# Blender v2.79 (sub 0) OBJ File: 'DHD_separated.blend'
# www.blender.org
o 0_DHD_symbols_outer_Cylinder.002
v 0.143221 0.872388 -0.325882
v 0.207388 0.889894 -0.296831
v 0.243057 0.902542 -0.275698
v 0.182177 0.882283 -0.309498
v 0.202354 0.744809 -0.426975
v 0.295657 0.769927 -0.385236
v 0.347102 0.788525 -0.354219
v 0.277417 0.824329 -0.346223
v 0.244406 0.806879 -0.369261
v 0.274923 0.819070 -0.351449
v 0.252568 0.807252 -0.367051
v 0.242442 0.802783 -0.373336
v 0.201751 0.835413 -0.353851
v 0.205484 0.838529 -0.350234
v 0.191775 0.837833 -0.354008
v 0.201185 0.844638 -0.345822
v 0.206487 0.843426 -0.345673
v 0.278335 0.801937 -0.365816
v 0.251237 0.804478 -0.369811
v 0.275544 0.803906 -0.364717
vt 0.947026 0.095462
vt 0.913978 0.186221
vt 0.898329 0.194253
vt 0.913909 0.198810
vt 0.898230 0.212850
vt 0.946950 0.119315
vt 0.962056 0.181878
vt 0.969321 0.187849
vt 0.788634 0.109474
vt 0.766870 0.107329
vt 0.779079 0.071558
vt 0.790577 0.072385
vt 0.793094 0.093542
vt 0.763657 0.789607
vt 0.670906 0.920494
vt 0.146202 0.292503
vt 0.405900 0.021014
vt 0.823444 0.715424
vt 0.941326 0.597955
vt 0.017912 0.486288
vn 0.1700 0.6529 -0.7381
vn 0.1700 0.6528 -0.7382
vn 0.1699 0.6529 -0.7382
vn 0.1701 0.6528 -0.7382
vn 0.1701 0.6529 -0.7381
vn 0.1700 0.6530 -0.7381
vn 0.1700 0.6530 -0.7380
vn 0.1783 0.6652 -0.7251
vn 0.1894 0.6689 -0.7189
vn 0.1737 0.6626 -0.7286
vn 0.1531 0.6549 -0.7401
vn 0.1567 0.6578 -0.7367
vn 0.1455 0.6550 -0.7415
vn 0.1911 0.6691 -0.7182
s off
f 8/1/1 11/2/1 9/3/1
f 9/3/1 19/4/1 12/5/1
f 8/1/1 10/6/1 11/2/1
f 9/3/2 11/2/2 19/4/2
f 20/7/3 10/6/3 18/8/3
f 10/6/4 8/1/4 18/8/4
f 13/9/1 15/10/1 16/11/1
f 16/11/2 17/12/2 14/13/2
f 13/9/5 16/11/5 14/13/5
f 20/7/6 18/8/6 19/4/6
f 18/8/7 12/5/7 19/4/7
f 12/5/5 13/9/5 9/3/5
f 13/9/5 14/13/5 9/3/5
s 1
f 2/14/8 3/15/9 6/16/10
f 6/16/10 5/17/11 4/18/12
f 5/17/11 1/19/13 4/18/12
f 3/15/9 7/20/14 6/16/10
f 6/16/10 4/18/12 2/14/8
