# Blender v2.79 (sub 0) OBJ File: 'DHD_separated.blend'
# www.blender.org
o 36_DHD_symbols_outer_Cylinder.075
v -0.010378 0.989868 -0.259342
v -0.014556 0.987924 -0.260812
v -0.023834 0.977149 -0.269702
v -0.024022 0.974253 -0.272215
v -0.026985 0.973978 -0.272296
v -0.027969 0.978751 -0.268086
v -0.020406 0.987608 -0.260775
v -0.033540 0.986966 -0.260632
v -0.044003 0.987687 -0.259445
v -0.042368 0.978866 -0.267217
v -0.047073 0.979006 -0.266842
v -0.049924 0.990976 -0.256263
v -0.056297 0.993745 -0.253511
v -0.051486 0.994958 -0.252710
v -0.050704 0.996732 -0.251208
v -0.047258 0.993285 -0.254395
v -0.041924 0.991991 -0.255806
v -0.024871 0.990874 -0.257692
v -0.017227 0.991341 -0.257693
v -0.012759 0.994170 -0.255468
v -0.026712 0.969507 -0.276205
v -0.026090 0.967631 -0.277873
v -0.029792 0.966456 -0.278699
v -0.031947 0.969580 -0.275861
v -0.041096 0.970613 -0.274472
v -0.041695 0.973458 -0.271963
v -0.034755 0.974723 -0.271231
v -0.034312 0.970710 -0.274750
v -0.030004 0.962630 -0.282019
v -0.029859 0.946426 -0.296142
v -0.024215 0.945591 -0.297171
v -0.023161 0.941345 -0.300926
v -0.028212 0.940729 -0.301193
v -0.028658 0.937907 -0.303627
v -0.032265 0.937988 -0.303364
v -0.032460 0.941185 -0.300569
v -0.036892 0.943573 -0.298252
v -0.044067 0.945367 -0.296305
v -0.051714 0.945576 -0.295714
v -0.058556 0.945158 -0.295713
v -0.058031 0.942373 -0.298166
v -0.060950 0.943231 -0.297262
v -0.062254 0.948188 -0.292876
v -0.058152 0.948574 -0.292759
v -0.054283 0.952067 -0.289923
v -0.050096 0.956701 -0.286110
v -0.047617 0.961363 -0.282181
v -0.047513 0.966120 -0.278044
v -0.043043 0.967338 -0.277222
v -0.043051 0.967348 -0.277213
v -0.042875 0.964453 -0.279744
v -0.044048 0.959844 -0.283696
v -0.046715 0.955237 -0.287566
v -0.052250 0.947935 -0.293631
v -0.045378 0.948355 -0.293633
v -0.035084 0.947132 -0.295248
v -0.034840 0.961465 -0.282776
v -0.052192 1.022699 -0.227742
v -0.001535 1.018944 -0.233993
v -0.004242 0.902519 -0.328921
v -0.001741 1.010101 -0.241203
v -0.036420 0.902977 -0.328160
v -0.090551 0.908917 -0.318273
v -0.023540 1.020575 -0.231277
vt 0.923568 0.131843
vt 0.955711 0.153320
vt 0.923675 0.166635
vt 0.879907 0.104604
vt 0.904622 0.144351
vt 0.843197 0.123365
vt 0.875287 0.061641
vt 0.959683 0.033300
vt 0.959707 0.033227
vt 0.987980 0.149805
vt 0.974531 0.184458
vt 0.948053 0.183335
vt 0.855193 0.221446
vt 0.839183 0.239054
vt 0.826227 0.231319
vt 0.847585 0.198168
vt 0.869298 0.128719
vt 0.832480 0.090769
vt 0.863256 0.070344
vt 0.841787 0.021147
vt 0.854178 0.012496
vt 0.849374 0.045177
vt 0.826842 0.051177
vt 0.816706 0.013415
vt 0.792286 0.151455
vt 0.774766 0.135539
vt 0.864728 0.054806
vt 0.882387 0.086071
vt 0.880441 0.043575
vt 0.904622 0.060752
vt 0.879598 0.159331
vt 0.957081 0.087706
vt 0.981107 0.097619
vt 0.892146 0.175678
vt 0.908062 0.197762
vt 0.866674 0.208237
vt 0.888446 0.221472
vt 0.849465 0.220322
vt 0.836794 0.208378
vt 0.877042 0.155560
vt 0.819037 0.096717
vt 0.846354 0.116721
vt 0.807961 0.109730
vt 0.834618 0.135232
vt 0.914641 0.065967
vt 0.879495 0.079483
vt 0.834466 0.070416
vt 0.944359 0.047656
vt 0.910051 0.047255
vt 0.936699 0.024812
vt 0.761425 0.091367
vt 0.784053 0.063454
vt 0.780765 0.089812
vt 0.801102 0.074748
vt 0.767301 0.104829
vt 0.853737 0.192447
vt 0.850807 0.166812
vt 0.592670 0.866930
vt 0.772181 0.768888
vt 0.670589 0.917938
vt 0.139505 0.305939
vt 0.406475 0.024661
vt 0.938455 0.597470
vt 0.018377 0.488975
vn -0.0403 0.6563 -0.7534
vn -0.0403 0.6563 -0.7535
vn 0.0395 -0.6544 0.7551
vn -0.0403 0.6562 -0.7535
vn -0.0404 0.6562 -0.7535
vn -0.0406 0.6561 -0.7536
vn -0.0401 0.6564 -0.7534
vn -0.0404 0.6563 -0.7534
vn -0.0405 0.6563 -0.7534
vn -0.0402 0.6563 -0.7534
vn -0.0402 0.6565 -0.7533
vn -0.0404 0.6565 -0.7533
vn -0.0402 0.6564 -0.7534
vn -0.0402 0.6564 -0.7533
vn -0.0402 0.6562 -0.7535
vn -0.0403 0.6564 -0.7534
vn -0.0402 0.6563 -0.7535
vn -0.0403 0.6564 -0.7533
vn -0.0399 0.6561 -0.7536
vn -0.0481 0.6331 -0.7726
vn -0.0486 0.6319 -0.7735
vn -0.0486 0.6319 -0.7736
vn -0.0419 0.6378 -0.7690
vn -0.0642 0.6398 -0.7659
vn -0.0093 0.6320 -0.7749
s off
f 18/1/1 19/2/1 7/3/1
f 28/4/2 25/5/2 27/6/2
f 46/7/3 49/8/3 50/9/3
f 20/10/4 1/11/4 19/2/4
f 1/11/1 2/12/1 19/2/1
f 3/13/5 4/14/5 5/15/5
f 2/12/1 3/13/1 7/3/1
f 19/2/1 2/12/1 7/3/1
f 3/13/5 5/15/5 6/16/5
f 7/3/2 8/17/2 18/1/2
f 8/17/1 9/18/1 17/19/1
f 18/1/1 8/17/1 17/19/1
f 3/13/1 6/16/1 7/3/1
f 14/20/6 15/21/6 16/22/6
f 12/23/7 13/24/7 14/20/7
f 10/25/8 11/26/8 9/18/8
f 11/26/1 12/23/1 9/18/1
f 12/23/9 14/20/9 16/22/9
f 12/23/5 16/22/5 9/18/5
f 16/22/10 17/19/10 9/18/10
f 28/4/11 21/27/11 24/28/11
f 21/27/12 22/29/12 23/30/12
f 24/28/13 21/27/13 23/30/13
f 24/28/14 25/5/14 28/4/14
f 25/5/15 26/31/15 27/6/15
f 57/32/1 29/33/1 30/34/1
f 30/34/10 31/35/10 33/36/10
f 31/35/16 32/37/16 33/36/16
f 33/36/17 34/38/17 35/39/17
f 56/40/1 57/32/1 30/34/1
f 54/41/1 55/42/1 39/43/1
f 55/42/4 56/40/4 38/44/4
f 52/45/8 53/46/8 46/7/8
f 53/46/10 54/41/10 45/47/10
f 46/7/18 53/46/18 45/47/18
f 50/9/1 51/48/1 46/7/1
f 51/48/1 52/45/1 46/7/1
f 47/49/1 48/50/1 49/8/1
f 46/7/19 47/49/19 49/8/19
f 42/51/4 43/52/4 40/53/4
f 43/52/10 44/54/10 40/53/10
f 40/53/8 41/55/8 42/51/8
f 40/53/1 44/54/1 54/41/1
f 44/54/4 45/47/4 54/41/4
f 39/43/1 40/53/1 54/41/1
f 33/36/17 35/39/17 36/56/17
f 56/40/1 30/34/1 37/57/1
f 30/34/10 33/36/10 36/56/10
f 30/34/1 36/56/1 37/57/1
f 55/42/4 38/44/4 39/43/4
f 56/40/1 37/57/1 38/44/1
s 1
f 61/58/20 64/59/21 59/60/22
f 62/61/23 63/62/24 61/58/20
f 63/62/24 58/63/22 61/58/20
f 58/63/22 64/59/21 61/58/20
f 61/58/20 60/64/25 62/61/23
