# Blender v2.79 (sub 0) OBJ File: 'DHD_separated.blend'
# www.blender.org
o 7_DHD_symbols_outer_Cylinder.009
v 0.157312 1.241789 0.288905
v 0.088312 1.253421 0.308179
v 0.045807 1.257761 0.315484
v 0.116464 1.249385 0.301463
v 0.225651 1.269145 0.445667
v 0.125755 1.286249 0.474068
v 0.063989 1.292302 0.484207
v 0.127120 1.256686 0.327214
v 0.130316 1.257329 0.330973
v 0.133802 1.257020 0.330619
v 0.137757 1.255773 0.326263
v 0.106942 1.268610 0.373985
v 0.133828 1.264820 0.365031
v 0.137509 1.264925 0.366559
v 0.107800 1.270438 0.382295
v 0.091034 1.275449 0.399556
v 0.095226 1.275716 0.401942
v 0.098914 1.275402 0.401626
v 0.109552 1.272097 0.390119
v 0.100978 1.280904 0.426492
v 0.104287 1.279763 0.422414
v 0.112819 1.280702 0.429017
v 0.099313 1.281844 0.430158
v 0.096639 1.282141 0.430696
v 0.097107 1.283140 0.435233
v 0.099813 1.282910 0.435005
v 0.110823 1.268715 0.375568
v 0.128896 1.266166 0.369549
v 0.117054 1.272691 0.394907
v 0.117620 1.271459 0.389633
v 0.112577 1.271059 0.386414
v 0.131371 1.266238 0.370577
v 0.111399 1.269943 0.381155
vt 0.813432 0.114333
vt 0.776238 0.030816
vt 0.819222 0.107544
vt 0.880536 0.109877
vt 0.886675 0.102780
vt 0.895275 0.122091
vt 0.883905 0.147478
vt 0.891686 0.158713
vt 0.831300 0.117645
vt 0.762514 0.024742
vt 0.785960 0.017080
vt 0.835192 0.113079
vt 0.783974 0.028398
vt 0.979163 0.219714
vt 0.983858 0.230257
vt 0.977911 0.232237
vt 0.972894 0.220974
vt 0.943209 0.230848
vt 0.964826 0.214333
vt 0.952803 0.208286
vt 0.901393 0.141141
vt 0.890431 0.135665
vt 0.938045 0.157008
vt 0.951943 0.145149
vt 0.886319 0.122860
vt 0.946156 0.154321
vt 0.754349 0.804863
vt 0.669699 0.918357
vt 0.126734 0.324915
vt 0.404281 0.019134
vt 0.827187 0.717768
vt 0.944049 0.596942
vt 0.018933 0.490974
vn 0.0638 0.9733 -0.2206
vn 0.0637 0.9733 -0.2206
vn 0.0639 0.9733 -0.2205
vn 0.0638 0.9733 -0.2207
vn 0.0636 0.9733 -0.2207
vn 0.0639 0.9732 -0.2207
vn 0.0637 0.9732 -0.2208
vn 0.0637 0.9733 -0.2205
vn 0.0637 0.9733 -0.2207
vn 0.0638 0.9732 -0.2208
vn 0.0638 0.9733 -0.2205
vn 0.0764 0.9747 -0.2101
vn 0.0635 0.9762 -0.2074
vn 0.0827 0.9742 -0.2100
vn 0.1069 0.9710 -0.2140
vn 0.1013 0.9714 -0.2148
vn 0.1131 0.9693 -0.2184
vn 0.0618 0.9765 -0.2066
s off
f 14/1/1 10/2/1 13/3/1
f 27/4/2 12/5/2 15/6/2
f 30/7/3 29/8/3 32/9/3
f 29/8/3 14/1/3 32/9/3
f 10/2/4 11/10/4 8/11/4
f 13/3/5 28/12/5 32/9/5
f 10/2/2 8/11/2 9/13/2
f 13/3/1 32/9/1 14/1/1
f 10/2/2 9/13/2 13/3/2
f 24/14/6 25/15/6 26/16/6
f 23/17/7 22/18/7 20/19/7
f 22/18/2 21/20/2 20/19/2
f 24/14/2 26/16/2 23/17/2
f 20/19/7 24/14/7 23/17/7
f 19/21/8 29/8/8 30/7/8
f 19/21/9 30/7/9 31/22/9
f 18/23/1 19/21/1 16/24/1
f 19/21/9 31/22/9 15/6/9
f 19/21/9 15/6/9 16/24/9
f 31/22/9 33/25/9 15/6/9
f 16/24/10 17/26/10 18/23/10
f 17/26/2 20/19/2 21/20/2
f 17/26/4 21/20/4 18/23/4
f 27/4/9 28/12/9 12/5/9
f 28/12/11 13/3/11 12/5/11
f 15/6/1 33/25/1 27/4/1
s 1
f 2/27/12 3/28/13 6/29/14
f 6/29/14 5/30/15 4/31/16
f 5/30/15 1/32/17 4/31/16
f 3/28/13 7/33/18 6/29/14
f 6/29/14 4/31/16 2/27/12
