# Blender v2.79 (sub 7) OBJ File: 'Universe Gate.blend'
# www.blender.org
o 04_Plane.011
v 3.283002 -0.207512 -2.003948
v 3.258498 -0.205618 -2.013195
v 3.212045 -0.210759 -1.958389
v 3.193381 -0.208467 -1.972469
v 3.218641 -0.209990 -1.966489
v 3.223060 -0.210190 -1.969767
v 3.231063 -0.209999 -1.972515
v 3.244774 -0.209713 -1.976384
v 3.259299 -0.209507 -1.981188
v 3.268130 -0.209006 -1.987661
v 3.277444 -0.208292 -1.996026
v 3.252940 -0.206398 -2.005273
v 3.249316 -0.206688 -2.001917
v 3.241889 -0.207185 -1.995845
v 3.235874 -0.207171 -1.993541
v 3.225416 -0.206645 -1.991675
v 3.213988 -0.206860 -1.989036
v 3.202077 -0.207547 -1.982380
v 3.283278 -0.199244 -2.002898
v 3.258774 -0.197350 -2.012147
v 3.212321 -0.202491 -1.957340
v 3.193657 -0.200199 -1.971420
v 3.218917 -0.201723 -1.965440
v 3.223336 -0.201922 -1.968718
v 3.231339 -0.201731 -1.971466
v 3.245049 -0.201445 -1.975335
v 3.259574 -0.201239 -1.980139
v 3.268405 -0.200738 -1.986612
v 3.277719 -0.200024 -1.994976
v 3.253215 -0.198130 -2.004224
v 3.249591 -0.198420 -2.000868
v 3.242165 -0.198917 -1.994796
v 3.236149 -0.198903 -1.992492
v 3.225691 -0.198377 -1.990626
v 3.214263 -0.198592 -1.987987
v 3.202353 -0.199279 -1.981331
v 3.355835 -0.217519 -2.040141
v 3.355724 -0.190926 -2.040075
v 3.309218 -0.217783 -2.012308
v 3.309108 -0.191189 -2.012242
v 3.346322 -0.217519 -2.056075
v 3.346211 -0.190926 -2.056009
v 3.299705 -0.217783 -2.028242
v 3.299594 -0.191189 -2.028176
v 3.417681 -0.217519 -2.077261
v 3.417570 -0.190926 -2.077194
v 3.371065 -0.217783 -2.049428
v 3.370954 -0.191189 -2.049361
v 3.408168 -0.217519 -2.093194
v 3.408056 -0.190926 -2.093128
v 3.361552 -0.217783 -2.065361
v 3.361440 -0.191189 -2.065295
vt 0.344922 0.253906
vt 0.294922 0.303906
vt 0.294922 0.253906
vt 0.344922 0.253906
vt 0.294922 0.303906
vt 0.294922 0.253906
vt 0.344922 0.253906
vt 0.294922 0.303906
vt 0.294922 0.253906
vt 0.344922 0.253906
vt 0.294922 0.303906
vt 0.294922 0.253906
vt 0.344922 0.253906
vt 0.294922 0.303906
vt 0.294922 0.253906
vt 0.344922 0.253906
vt 0.294922 0.303906
vt 0.294922 0.253906
vt 0.344922 0.253906
vt 0.294922 0.303906
vt 0.294922 0.253906
vt 0.344922 0.253906
vt 0.294922 0.303906
vt 0.294922 0.253906
vt 0.344922 0.253906
vt 0.294922 0.303906
vt 0.294922 0.253906
vt 0.344922 0.253906
vt 0.294922 0.303906
vt 0.294922 0.253906
vt 0.344922 0.253906
vt 0.294922 0.303906
vt 0.294922 0.253906
vt 0.344922 0.253906
vt 0.294922 0.303906
vt 0.294922 0.253906
vt 0.344922 0.253906
vt 0.294922 0.303906
vt 0.294922 0.253906
vt 0.344922 0.253906
vt 0.294922 0.303906
vt 0.294922 0.253906
vt 0.344922 0.253906
vt 0.294922 0.303906
vt 0.294922 0.253906
vt 0.344922 0.253906
vt 0.294922 0.303906
vt 0.294922 0.253906
vt 0.344922 0.303906
vt 0.294922 0.303906
vt 0.294922 0.253906
vt 0.344922 0.303906
vt 0.294922 0.303906
vt 0.294922 0.253906
vt 0.344922 0.303906
vt 0.294922 0.303906
vt 0.294922 0.253906
vt 0.344922 0.303906
vt 0.294922 0.303906
vt 0.294922 0.303906
vt 0.294922 0.253906
vt 0.294922 0.253906
vt 0.344922 0.303906
vt 0.294922 0.303906
vt 0.294922 0.253906
vt 0.294922 0.253906
vt 0.344922 0.303906
vt 0.294922 0.303906
vt 0.294922 0.253906
vt 0.344922 0.303906
vt 0.294922 0.303906
vt 0.294922 0.253906
vt 0.344922 0.303906
vt 0.294922 0.303906
vt 0.344922 0.253906
vt 0.294922 0.253906
vt 0.344922 0.303906
vt 0.294922 0.303906
vt 0.344922 0.253906
vt 0.294922 0.303906
vt 0.294922 0.253906
vt 0.344922 0.253906
vt 0.294922 0.303906
vt 0.294922 0.253906
vt 0.294922 0.253906
vt 0.344922 0.303906
vt 0.294922 0.303906
vt 0.294922 0.253906
vt 0.344922 0.303906
vt 0.294922 0.303906
vt 0.344922 0.303906
vt 0.294922 0.303906
vt 0.294922 0.253906
vt 0.344922 0.253906
vt 0.294922 0.303906
vt 0.294922 0.253906
vt 0.344922 0.253906
vt 0.294922 0.303906
vt 0.294922 0.253906
vt 0.294922 0.253906
vt 0.344922 0.303906
vt 0.294922 0.303906
vt 0.294922 0.253906
vt 0.344922 0.303906
vt 0.294922 0.303906
vt 0.344922 0.303906
vt 0.294922 0.303906
vt 0.294922 0.253906
vt 0.344922 0.303906
vt 0.344922 0.303906
vt 0.344922 0.303906
vt 0.344922 0.303906
vt 0.344922 0.303906
vt 0.344922 0.303906
vt 0.344922 0.303906
vt 0.344922 0.303906
vt 0.344922 0.303906
vt 0.344922 0.253906
vt 0.344922 0.253906
vt 0.344922 0.303906
vt 0.344922 0.253906
vt 0.344922 0.253906
vt 0.344922 0.303906
vt 0.344922 0.303906
vt 0.344922 0.253906
vt 0.344922 0.303906
vt 0.344922 0.253906
vt 0.344922 0.303906
vt 0.344922 0.253906
vt 0.344922 0.303906
vt 0.344922 0.253906
vt 0.344922 0.303906
vt 0.344922 0.303906
vt 0.344922 0.253906
vt 0.344922 0.303906
vt 0.344922 0.303906
vt 0.344922 0.253906
vt 0.344922 0.253906
vt 0.344922 0.253906
vt 0.344922 0.303906
vt 0.344922 0.303906
vt 0.344922 0.253906
vt 0.344922 0.253906
vt 0.344922 0.253906
vn -0.0315 -0.9923 -0.1198
vn -0.0272 -0.9918 -0.1248
vn -0.0181 -0.9904 -0.1373
vn -0.0325 -0.9861 -0.1630
vn -0.1266 -0.9858 -0.1107
vn 0.0315 0.9923 0.1198
vn 0.0272 0.9918 0.1248
vn 0.0181 0.9904 0.1373
vn 0.0325 0.9861 0.1630
vn 0.1266 0.9857 0.1107
vn 0.3130 -0.1298 0.9408
vn 0.3583 0.1058 -0.9276
vn -0.2254 0.1300 -0.9655
vn 0.5913 -0.1209 0.7973
vn -0.7523 0.1076 -0.6500
vn -0.4895 0.1258 -0.8629
vn 0.6686 -0.1154 0.7346
vn -0.6066 -0.0801 0.7910
vn -0.8191 0.0990 -0.5650
vn 0.7760 -0.1047 0.6219
vn -0.6800 0.1145 -0.7243
vn 0.5879 -0.1211 0.7998
vn -0.6333 0.1181 -0.7649
vn 0.3247 -0.1297 0.9369
vn -0.3543 0.1293 -0.9261
vn 0.2718 -0.1300 0.9535
vn 0.8191 -0.0990 0.5650
vn -0.1679 0.1296 -0.9773
vn 0.5126 -0.0000 0.8586
vn -0.8586 -0.0048 0.5126
vn -0.5126 0.0000 -0.8586
vn 0.8586 0.0048 -0.5126
vn 0.0042 -1.0000 -0.0025
vn -0.0042 1.0000 0.0025
vn -0.8586 -0.0049 0.5126
vn 0.8586 0.0049 -0.5126
vn -0.0489 -0.9914 -0.1215
vn -0.0763 -0.9857 -0.1500
vn -0.0188 -0.9867 -0.1617
vn -0.0177 -0.9908 -0.1339
vn 0.0489 0.9914 0.1215
vn 0.0763 0.9857 0.1500
vn 0.0188 0.9867 0.1617
vn 0.0177 0.9908 0.1339
vn 0.3129 -0.1298 0.9409
vn 0.3582 0.1057 -0.9276
vn 0.5913 -0.1208 0.7973
vn 0.6685 -0.1155 0.7346
vn -0.8192 0.0989 -0.5649
vn 0.7760 -0.1048 0.6220
vn -0.6800 0.1146 -0.7243
vn -0.6333 0.1182 -0.7648
vn 0.3247 -0.1296 0.9369
vn -0.3544 0.1293 -0.9261
vn 0.8192 -0.0990 0.5650
s off
f 3/1/1 18/2/1 5/3/1
f 11/4/1 2/5/1 1/6/1
f 10/7/1 12/8/1 11/9/1
f 9/10/1 13/11/1 10/12/1
f 8/13/2 14/14/2 9/15/2
f 7/16/3 15/17/3 8/18/3
f 6/19/4 16/20/4 7/21/4
f 5/22/5 17/23/5 6/24/5
f 36/25/6 21/26/6 23/27/6
f 20/28/6 29/29/6 19/30/6
f 30/31/6 28/32/6 29/33/6
f 31/34/6 27/35/6 28/36/6
f 32/37/7 26/38/7 27/39/7
f 33/40/8 25/41/8 26/42/8
f 34/43/9 24/44/9 25/45/9
f 35/46/10 23/47/10 24/48/10
f 9/10/11 26/38/11 8/18/11
f 1/6/12 20/49/12 19/50/12
f 16/51/13 35/52/13 34/53/13
f 10/7/14 27/35/14 9/15/14
f 18/54/15 22/55/15 36/56/15
f 17/57/16 36/58/16 35/59/16
f 11/4/17 28/32/17 10/12/17
f 3/1/18 22/60/18 4/61/18
f 2/62/19 30/63/19 20/64/19
f 5/22/20 21/26/20 3/65/20
f 12/66/21 31/67/21 30/68/21
f 6/19/22 23/47/22 5/3/22
f 13/69/23 32/70/23 31/71/23
f 7/16/24 24/44/24 6/24/24
f 14/72/25 33/73/25 32/74/25
f 8/13/26 25/41/26 7/21/26
f 1/75/27 29/29/27 11/9/27
f 15/76/28 34/77/28 33/78/28
f 38/79/29 39/80/29 37/81/29
f 40/82/30 43/83/30 39/84/30
f 43/85/31 42/86/31 41/87/31
f 41/88/32 38/89/32 37/90/32
f 39/84/33 41/91/33 37/90/33
f 40/82/34 42/92/34 44/93/34
f 46/94/29 47/95/29 45/96/29
f 48/97/35 51/98/35 47/99/35
f 51/100/31 50/101/31 49/102/31
f 49/103/36 46/104/36 45/105/36
f 47/99/33 49/106/33 45/105/33
f 48/97/34 50/107/34 52/108/34
f 3/1/1 4/109/1 18/2/1
f 11/4/1 12/110/1 2/5/1
f 10/7/1 13/111/1 12/8/1
f 9/10/1 14/112/1 13/11/1
f 8/13/37 15/113/37 14/14/37
f 7/16/38 16/114/38 15/17/38
f 6/19/39 17/115/39 16/20/39
f 5/22/40 18/116/40 17/23/40
f 36/25/6 22/55/6 21/26/6
f 20/28/6 30/63/6 29/29/6
f 30/31/6 31/67/6 28/32/6
f 31/34/6 32/70/6 27/35/6
f 32/37/41 33/73/41 26/38/41
f 33/40/42 34/77/42 25/41/42
f 34/43/43 35/52/43 24/44/43
f 35/46/44 36/58/44 23/47/44
f 9/10/45 27/117/45 26/38/45
f 1/6/46 2/118/46 20/49/46
f 16/51/13 17/119/13 35/52/13
f 10/7/47 28/120/47 27/35/47
f 18/54/15 4/121/15 22/55/15
f 17/57/16 18/122/16 36/58/16
f 11/4/48 29/123/48 28/32/48
f 3/1/18 21/124/18 22/60/18
f 2/62/49 12/125/49 30/63/49
f 5/22/50 23/126/50 21/26/50
f 12/66/51 13/127/51 31/67/51
f 6/19/22 24/128/22 23/47/22
f 13/69/52 14/129/52 32/70/52
f 7/16/53 25/130/53 24/44/53
f 14/72/54 15/131/54 33/73/54
f 8/13/26 26/132/26 25/41/26
f 1/75/55 19/133/55 29/29/55
f 15/76/28 16/134/28 34/77/28
f 38/79/29 40/135/29 39/80/29
f 40/82/35 44/136/35 43/83/35
f 43/85/31 44/137/31 42/86/31
f 41/88/32 42/138/32 38/89/32
f 39/84/33 43/139/33 41/91/33
f 40/82/34 38/89/34 42/92/34
f 46/94/29 48/140/29 47/95/29
f 48/97/35 52/141/35 51/98/35
f 51/100/31 52/142/31 50/101/31
f 49/103/36 50/143/36 46/104/36
f 47/99/33 51/144/33 49/106/33
f 48/97/34 46/104/34 50/107/34
