# Blender v2.79 (sub 7) OBJ File: 'Universe Gate.blend'
# www.blender.org
o 22_Plane.025
v -3.168242 -0.210235 2.241258
v -3.143584 -0.210443 2.249795
v -3.099231 -0.209911 2.193620
v -3.080218 -0.210160 2.207161
v -3.105518 -0.209991 2.201915
v -3.109822 -0.211150 2.205255
v -3.117679 -0.210874 2.208252
v -3.131165 -0.210239 2.212560
v -3.145437 -0.210030 2.217801
v -3.153999 -0.210081 2.224533
v -3.162979 -0.210154 2.233171
v -3.138322 -0.210362 2.241709
v -3.134831 -0.210332 2.238245
v -3.127652 -0.210282 2.231956
v -3.121745 -0.210022 2.229492
v -3.111395 -0.208992 2.227383
v -3.100136 -0.209644 2.224372
v -3.088532 -0.210255 2.217329
v -3.168171 -0.189290 2.241473
v -3.143514 -0.189498 2.250010
v -3.099161 -0.188967 2.193835
v -3.080148 -0.189215 2.207376
v -3.105448 -0.189046 2.202130
v -3.109752 -0.190205 2.205470
v -3.117609 -0.189929 2.208468
v -3.131095 -0.189295 2.212776
v -3.145367 -0.189086 2.218016
v -3.153929 -0.189136 2.224749
v -3.162909 -0.189209 2.233386
v -3.138252 -0.189417 2.241924
v -3.134761 -0.189387 2.238461
v -3.127582 -0.189337 2.232171
v -3.121675 -0.189077 2.229707
v -3.111325 -0.188047 2.227599
v -3.100067 -0.188699 2.224587
v -3.088462 -0.189310 2.217544
v -3.264865 -0.217515 2.305924
v -3.264760 -0.190921 2.305849
v -3.219150 -0.217788 2.273238
v -3.219045 -0.191194 2.273163
v -3.254072 -0.217515 2.321020
v -3.253967 -0.190921 2.320945
v -3.208356 -0.217788 2.288334
v -3.208251 -0.191194 2.288259
v -3.175082 -0.210063 2.254952
v -3.177228 -0.210063 2.252500
v -3.179811 -0.210063 2.250513
v -3.182733 -0.210063 2.249068
v -3.185880 -0.210063 2.248222
v -3.189132 -0.210063 2.248005
v -3.192363 -0.210063 2.248427
v -3.195451 -0.210063 2.249471
v -3.198275 -0.210063 2.251098
v -3.200727 -0.210063 2.253244
v -3.202714 -0.210063 2.255828
v -3.204159 -0.210063 2.258749
v -3.205005 -0.210063 2.261896
v -3.205222 -0.210063 2.265148
v -3.204800 -0.210063 2.268379
v -3.203756 -0.210063 2.271466
v -3.202129 -0.210063 2.274291
v -3.199983 -0.210063 2.276743
v -3.197400 -0.210063 2.278730
v -3.194478 -0.210063 2.280174
v -3.191331 -0.210063 2.281021
v -3.188080 -0.210063 2.281238
v -3.184848 -0.210063 2.280816
v -3.181760 -0.210063 2.279772
v -3.178936 -0.210063 2.278145
v -3.176484 -0.210063 2.275999
v -3.174497 -0.210063 2.273415
v -3.173053 -0.210063 2.270494
v -3.172206 -0.210063 2.267347
v -3.171989 -0.210063 2.264095
v -3.172411 -0.210063 2.260864
v -3.173455 -0.210063 2.257776
v -3.175082 -0.190960 2.254952
v -3.177228 -0.190960 2.252500
v -3.179811 -0.190960 2.250513
v -3.182733 -0.190960 2.249068
v -3.185880 -0.190960 2.248222
v -3.189132 -0.190960 2.248005
v -3.192363 -0.190960 2.248427
v -3.195451 -0.190960 2.249471
v -3.198275 -0.190960 2.251098
v -3.200727 -0.190960 2.253244
v -3.202714 -0.190960 2.255828
v -3.204159 -0.190960 2.258749
v -3.205005 -0.190960 2.261896
v -3.205222 -0.190960 2.265148
v -3.204800 -0.190960 2.268379
v -3.203756 -0.190960 2.271466
v -3.202129 -0.190960 2.274291
v -3.199983 -0.190960 2.276743
v -3.197400 -0.190960 2.278730
v -3.194478 -0.190960 2.280174
v -3.191331 -0.190960 2.281021
v -3.188080 -0.190960 2.281238
v -3.184848 -0.190960 2.280816
v -3.181760 -0.190960 2.279772
v -3.178936 -0.190960 2.278145
v -3.176484 -0.190960 2.275999
v -3.174497 -0.190960 2.273415
v -3.173053 -0.190960 2.270494
v -3.172206 -0.190960 2.267347
v -3.171989 -0.190960 2.264095
v -3.172411 -0.190960 2.260864
v -3.173455 -0.190960 2.257776
vt 0.344922 0.253906
vt 0.294922 0.303906
vt 0.294922 0.253906
vt 0.344922 0.253906
vt 0.294922 0.303906
vt 0.294922 0.253906
vt 0.344922 0.253906
vt 0.294922 0.303906
vt 0.294922 0.253906
vt 0.344922 0.253906
vt 0.294922 0.303906
vt 0.294922 0.253906
vt 0.344922 0.253906
vt 0.294922 0.303906
vt 0.294922 0.253906
vt 0.344922 0.253906
vt 0.294922 0.303906
vt 0.294922 0.253906
vt 0.294922 0.253906
vt 0.344922 0.303906
vt 0.294922 0.303906
vt 0.344922 0.253906
vt 0.294922 0.303906
vt 0.344922 0.253906
vt 0.294922 0.303906
vt 0.294922 0.253906
vt 0.344922 0.253906
vt 0.294922 0.303906
vt 0.294922 0.253906
vt 0.344922 0.253906
vt 0.294922 0.303906
vt 0.294922 0.253906
vt 0.344922 0.253906
vt 0.294922 0.303906
vt 0.294922 0.253906
vt 0.344922 0.253906
vt 0.294922 0.303906
vt 0.294922 0.253906
vt 0.344922 0.253906
vt 0.294922 0.303906
vt 0.294922 0.253906
vt 0.344922 0.253906
vt 0.294922 0.303906
vt 0.294922 0.253906
vt 0.344922 0.253906
vt 0.294922 0.303906
vt 0.294922 0.253906
vt 0.344922 0.303906
vt 0.344922 0.253906
vt 0.294922 0.303906
vt 0.294922 0.253906
vt 0.344922 0.303906
vt 0.294922 0.303906
vt 0.344922 0.303906
vt 0.344922 0.253906
vt 0.294922 0.303906
vt 0.294922 0.253906
vt 0.294922 0.253906
vt 0.344922 0.303906
vt 0.294922 0.303906
vt 0.344922 0.303906
vt 0.294922 0.253906
vt 0.344922 0.303906
vt 0.294922 0.303906
vt 0.344922 0.253906
vt 0.294922 0.303906
vt 0.294922 0.253906
vt 0.294922 0.253906
vt 0.344922 0.303906
vt 0.344922 0.253906
vt 0.294922 0.303906
vt 0.294922 0.253906
vt 0.344922 0.303906
vt 0.344922 0.253906
vt 0.294922 0.303906
vt 0.294922 0.253906
vt 0.344922 0.253906
vt 0.294922 0.303906
vt 0.294922 0.253906
vt 0.294922 0.253906
vt 0.344922 0.303906
vt 0.344922 0.253906
vt 0.294922 0.303906
vt 0.294922 0.253906
vt 0.344922 0.253906
vt 0.294922 0.303906
vt 0.294922 0.253906
vt 0.344922 0.253906
vt 0.294922 0.303906
vt 0.294922 0.253906
vt 0.294922 0.253906
vt 0.344922 0.303906
vt 0.294922 0.303906
vt 0.294922 0.253906
vt 0.344922 0.303906
vt 0.294922 0.303906
vt 0.344922 0.303906
vt 0.294922 0.303906
vt 0.294922 0.253906
vt 0.306033 0.299693
vt 0.310355 0.302003
vt 0.340709 0.265017
vt 0.310355 0.302003
vt 0.315045 0.303426
vt 0.295402 0.283784
vt 0.344922 0.253906
vt 0.294922 0.303906
vt 0.294922 0.253906
vt 0.344922 0.253906
vt 0.294922 0.303906
vt 0.294922 0.253906
vt 0.344922 0.253906
vt 0.294922 0.303906
vt 0.294922 0.253906
vt 0.344922 0.253906
vt 0.294922 0.303906
vt 0.294922 0.253906
vt 0.344922 0.253906
vt 0.294922 0.303906
vt 0.294922 0.253906
vt 0.344922 0.253906
vt 0.294922 0.303906
vt 0.294922 0.253906
vt 0.344922 0.253906
vt 0.294922 0.303906
vt 0.294922 0.253906
vt 0.344922 0.253906
vt 0.294922 0.303906
vt 0.294922 0.253906
vt 0.344922 0.253906
vt 0.294922 0.303906
vt 0.294922 0.253906
vt 0.344922 0.253906
vt 0.294922 0.303906
vt 0.294922 0.253906
vt 0.344922 0.253906
vt 0.294922 0.303906
vt 0.294922 0.253906
vt 0.344922 0.253906
vt 0.294922 0.303906
vt 0.294922 0.253906
vt 0.344922 0.253906
vt 0.294922 0.303906
vt 0.294922 0.253906
vt 0.344922 0.253906
vt 0.294922 0.303906
vt 0.294922 0.253906
vt 0.344922 0.253906
vt 0.294922 0.303906
vt 0.294922 0.253906
vt 0.344922 0.253906
vt 0.294922 0.303906
vt 0.294922 0.253906
vt 0.344922 0.253906
vt 0.294922 0.303906
vt 0.294922 0.253906
vt 0.344922 0.253906
vt 0.294922 0.303906
vt 0.294922 0.253906
vt 0.344922 0.253906
vt 0.294922 0.303906
vt 0.294922 0.253906
vt 0.344922 0.253906
vt 0.294922 0.303906
vt 0.294922 0.253906
vt 0.344922 0.253906
vt 0.294922 0.303906
vt 0.294922 0.253906
vt 0.344922 0.253906
vt 0.294922 0.303906
vt 0.294922 0.253906
vt 0.344922 0.253906
vt 0.294922 0.303906
vt 0.294922 0.253906
vt 0.344922 0.253906
vt 0.294922 0.303906
vt 0.294922 0.253906
vt 0.344922 0.253906
vt 0.294922 0.303906
vt 0.294922 0.253906
vt 0.344922 0.253906
vt 0.294922 0.303906
vt 0.294922 0.253906
vt 0.344922 0.253906
vt 0.294922 0.303906
vt 0.294922 0.253906
vt 0.344922 0.253906
vt 0.294922 0.303906
vt 0.294922 0.253906
vt 0.344922 0.253906
vt 0.294922 0.303906
vt 0.294922 0.253906
vt 0.344922 0.253906
vt 0.294922 0.303906
vt 0.294922 0.253906
vt 0.344922 0.253906
vt 0.294922 0.303906
vt 0.294922 0.253906
vt 0.344922 0.253906
vt 0.294922 0.303906
vt 0.294922 0.253906
vt 0.344922 0.303906
vt 0.344922 0.303906
vt 0.344922 0.303906
vt 0.344922 0.303906
vt 0.344922 0.303906
vt 0.344922 0.253906
vt 0.344922 0.303906
vt 0.344922 0.303906
vt 0.344922 0.303906
vt 0.344922 0.303906
vt 0.344922 0.303906
vt 0.344922 0.303906
vt 0.344922 0.303906
vt 0.344922 0.303906
vt 0.344922 0.253906
vt 0.344922 0.253906
vt 0.344922 0.303906
vt 0.344922 0.303906
vt 0.344922 0.253906
vt 0.344922 0.303906
vt 0.344922 0.303906
vt 0.344922 0.253906
vt 0.344922 0.253906
vt 0.344922 0.253906
vt 0.315045 0.303426
vt 0.319922 0.303906
vt 0.344442 0.274029
vt 0.324799 0.303426
vt 0.344922 0.278906
vt 0.344442 0.283783
vt 0.329489 0.302003
vt 0.333811 0.299693
vt 0.343019 0.288473
vt 0.337600 0.296584
vt 0.340709 0.292796
vt 0.343019 0.269339
vt 0.337600 0.261229
vt 0.333811 0.258120
vt 0.302244 0.296584
vt 0.299135 0.292796
vt 0.329489 0.255809
vt 0.324799 0.254387
vt 0.296825 0.288473
vt 0.319922 0.253906
vt 0.295402 0.283784
vt 0.315045 0.254387
vt 0.294922 0.278906
vt 0.295402 0.274029
vt 0.310355 0.255809
vt 0.306033 0.258120
vt 0.296825 0.269339
vt 0.302244 0.261229
vt 0.299135 0.265017
vt 0.319922 0.303906
vt 0.294922 0.278906
vt 0.324799 0.303426
vt 0.295402 0.274029
vt 0.329489 0.302003
vt 0.296825 0.269339
vt 0.333811 0.299693
vt 0.299135 0.265017
vt 0.337600 0.296584
vt 0.302244 0.261229
vt 0.340709 0.292796
vt 0.306033 0.258120
vt 0.343019 0.288473
vt 0.310355 0.255809
vt 0.344442 0.283783
vt 0.315045 0.254387
vt 0.344922 0.278906
vt 0.319922 0.253906
vt 0.344442 0.274029
vt 0.324799 0.254387
vt 0.343019 0.269339
vt 0.329489 0.255809
vt 0.340709 0.265017
vt 0.333811 0.258120
vt 0.337600 0.261229
vt 0.296825 0.288473
vt 0.299135 0.292796
vt 0.306033 0.299693
vt 0.302244 0.296584
vt 0.344922 0.303906
vt 0.344922 0.303906
vt 0.344922 0.303906
vt 0.344922 0.303906
vt 0.344922 0.303906
vt 0.344922 0.303906
vt 0.344922 0.303906
vt 0.344922 0.303906
vt 0.344922 0.303906
vt 0.344922 0.303906
vt 0.344922 0.303906
vt 0.344922 0.303906
vt 0.344922 0.303906
vt 0.344922 0.303906
vt 0.344922 0.303906
vt 0.344922 0.303906
vt 0.344922 0.303906
vt 0.344922 0.303906
vt 0.344922 0.303906
vt 0.344922 0.303906
vt 0.344922 0.303906
vt 0.344922 0.303906
vt 0.344922 0.303906
vt 0.344922 0.303906
vt 0.344922 0.303906
vt 0.344922 0.303906
vt 0.344922 0.303906
vt 0.344922 0.303906
vt 0.344922 0.303906
vt 0.344922 0.303906
vt 0.344922 0.303906
vt 0.344922 0.303906
vn -0.0041 -0.9999 -0.0127
vn -0.0040 -0.9999 -0.0127
vn -0.0145 -0.9999 0.0004
vn -0.0364 -0.9988 0.0331
vn 0.0022 -0.9953 0.0972
vn 0.2305 -0.9722 -0.0402
vn 0.0041 0.9999 0.0127
vn 0.0040 0.9999 0.0127
vn 0.0145 0.9999 -0.0004
vn 0.0364 0.9988 -0.0331
vn -0.0022 0.9953 -0.0972
vn -0.2306 0.9722 0.0402
vn -0.3445 0.0108 -0.9387
vn -0.3272 -0.0086 0.9449
vn 0.2578 -0.0108 0.9661
vn -0.6182 0.0102 -0.7860
vn 0.7741 -0.0091 0.6330
vn 0.5184 -0.0105 0.8551
vn -0.6932 0.0097 -0.7206
vn 0.5802 0.0064 -0.8145
vn 0.8382 -0.0084 0.5453
vn -0.7970 0.0089 -0.6040
vn 0.7042 -0.0097 0.7099
vn -0.6147 0.0102 -0.7887
vn 0.6590 -0.0099 0.7521
vn -0.3561 0.0108 -0.9344
vn 0.3854 -0.0108 0.9227
vn -0.3038 0.0108 -0.9527
vn -0.8382 0.0084 -0.5454
vn 0.2006 -0.0107 0.9796
vn -0.5816 0.0000 -0.8135
vn 0.8135 -0.0049 -0.5816
vn 0.5816 0.0000 0.8135
vn -0.8134 0.0048 0.5816
vn -0.0039 -1.0000 0.0028
vn 0.0039 1.0000 -0.0028
vn 0.0000 -1.0000 -0.0000
vn 0.0000 1.0000 0.0000
vn 0.4432 0.0000 -0.8964
vn 0.9916 0.0000 -0.1294
vn -0.7525 0.0000 0.6586
vn 0.2597 0.0000 -0.9657
vn 0.9472 0.0000 -0.3205
vn -0.6098 0.0000 0.7926
vn 0.0665 0.0000 -0.9978
vn 0.8666 0.0000 -0.4990
vn -0.4432 0.0000 0.8964
vn -0.1295 0.0000 -0.9916
vn -0.2598 0.0000 0.9657
vn -0.3204 0.0000 -0.9473
vn -0.0664 0.0000 0.9978
vn -0.4991 0.0000 -0.8666
vn 0.1295 0.0000 0.9916
vn -0.6585 0.0000 -0.7526
vn 0.3204 0.0000 0.9473
vn -0.7928 0.0000 -0.6095
vn 0.4991 0.0000 0.8666
vn -0.8964 0.0000 -0.4433
vn 0.6585 0.0000 0.7526
vn -0.9657 0.0000 -0.2597
vn 0.7927 0.0000 0.6096
vn -0.9978 0.0000 -0.0664
vn 0.8964 0.0000 0.4432
vn -0.9916 0.0000 0.1294
vn 0.7526 0.0000 -0.6585
vn 0.9656 0.0000 0.2598
vn -0.9473 0.0000 0.3204
vn 0.6096 0.0000 -0.7927
vn 0.9978 0.0000 0.0665
vn -0.8666 0.0000 0.4991
vn 0.0401 -0.9992 -0.0094
vn 0.1111 -0.9919 0.0611
vn -0.0323 -0.9950 0.0947
vn -0.0377 -0.9990 0.0245
vn -0.0400 0.9992 0.0094
vn -0.1111 0.9919 -0.0611
vn 0.0323 0.9950 -0.0947
vn 0.0377 0.9990 -0.0245
vn -0.6181 0.0101 -0.7860
vn 0.5184 -0.0105 0.8550
vn -0.6933 0.0097 -0.7206
vn -0.7970 0.0089 -0.6039
vn 0.7044 -0.0096 0.7098
vn -0.6148 0.0102 -0.7886
vn -0.3562 0.0108 -0.9344
vn 0.3855 -0.0107 0.9226
vn -0.8382 0.0084 -0.5453
vn 0.2006 -0.0108 0.9796
vn 0.8135 -0.0048 -0.5816
vn -0.8135 0.0048 0.5816
vn 0.4433 0.0000 -0.8964
vn -0.7524 0.0000 0.6587
vn -0.6097 0.0000 0.7926
vn 0.0664 0.0000 -0.9978
vn 0.8665 0.0000 -0.4991
vn -0.4431 0.0000 0.8965
vn -0.0667 0.0000 0.9978
vn -0.6586 0.0000 -0.7525
vn 0.3203 0.0000 0.9473
vn -0.7927 0.0000 -0.6096
vn 0.4992 0.0000 0.8665
vn -0.8963 0.0000 -0.4434
vn 0.6586 0.0000 0.7525
vn -0.9657 0.0000 -0.2598
vn 0.8964 0.0000 0.4433
vn 0.7525 0.0000 -0.6586
vn 0.9656 0.0000 0.2599
s off
f 3/1/1 18/2/1 5/3/1
f 11/4/2 2/5/2 1/6/2
f 10/7/2 12/8/2 11/9/2
f 9/10/2 13/11/2 10/12/2
f 8/13/3 14/14/3 9/15/3
f 7/16/4 15/17/4 8/18/4
f 6/19/5 16/20/5 7/21/5
f 5/22/6 17/23/6 6/19/6
f 36/24/7 21/25/7 23/26/7
f 20/27/8 29/28/8 19/29/8
f 30/30/8 28/31/8 29/32/8
f 31/33/7 27/34/7 28/35/7
f 32/36/9 26/37/9 27/38/9
f 33/39/10 25/40/10 26/41/10
f 34/42/11 24/43/11 25/44/11
f 35/45/12 23/46/12 24/47/12
f 8/18/13 27/48/13 26/37/13
f 2/49/14 19/50/14 1/6/14
f 16/51/15 35/52/15 34/53/15
f 9/15/16 28/54/16 27/34/16
f 4/55/17 36/56/17 18/57/17
f 17/58/18 36/59/18 35/60/18
f 10/12/19 29/61/19 28/31/19
f 4/62/20 21/63/20 22/64/20
f 12/65/21 20/66/21 2/67/21
f 3/68/22 23/69/22 21/25/22
f 13/70/23 30/71/23 12/72/23
f 5/3/24 24/73/24 23/46/24
f 14/74/25 31/75/25 13/76/25
f 7/16/26 24/43/26 6/19/26
f 15/77/27 32/78/27 14/79/27
f 8/13/28 25/40/28 7/80/28
f 11/9/29 19/81/29 29/28/29
f 16/82/30 33/83/30 15/84/30
f 38/85/31 39/86/31 37/87/31
f 40/88/32 43/89/32 39/90/32
f 43/91/33 42/92/33 41/93/33
f 41/94/34 38/95/34 37/96/34
f 39/90/35 41/97/35 37/96/35
f 40/88/36 42/98/36 44/99/36
f 49/100/37 48/101/37 67/102/37
f 108/103/38 77/104/38 103/105/38
f 48/106/39 79/107/39 47/108/39
f 75/109/40 106/110/40 74/111/40
f 62/112/41 93/113/41 61/114/41
f 49/115/42 80/116/42 48/117/42
f 76/118/43 107/119/43 75/120/43
f 63/121/44 94/122/44 62/123/44
f 50/124/45 81/125/45 49/126/45
f 45/127/46 108/128/46 76/129/46
f 64/130/47 95/131/47 63/132/47
f 51/133/48 82/134/48 50/135/48
f 65/136/49 96/137/49 64/138/49
f 52/139/50 83/140/50 51/141/50
f 66/142/51 97/143/51 65/144/51
f 53/145/52 84/146/52 52/147/52
f 67/148/53 98/149/53 66/150/53
f 54/151/54 85/152/54 53/153/54
f 68/154/55 99/155/55 67/156/55
f 55/157/56 86/158/56 54/159/56
f 69/160/57 100/161/57 68/162/57
f 56/163/58 87/164/58 55/165/58
f 70/166/59 101/167/59 69/168/59
f 57/169/60 88/170/60 56/171/60
f 71/172/61 102/173/61 70/174/61
f 58/175/62 89/176/62 57/177/62
f 72/178/63 103/179/63 71/180/63
f 59/181/64 90/182/64 58/183/64
f 46/184/65 77/185/65 45/186/65
f 73/187/66 104/188/66 72/189/66
f 60/190/67 91/191/67 59/192/67
f 47/193/68 78/194/68 46/195/68
f 74/196/69 105/197/69 73/198/69
f 61/199/70 92/200/70 60/201/70
f 3/1/2 4/202/2 18/2/2
f 11/4/2 12/203/2 2/5/2
f 10/7/2 13/204/2 12/8/2
f 9/10/2 14/205/2 13/11/2
f 8/13/71 15/206/71 14/14/71
f 7/16/72 16/20/72 15/17/72
f 6/19/73 17/207/73 16/20/73
f 5/22/74 18/208/74 17/23/74
f 36/24/8 22/209/8 21/25/8
f 20/27/8 30/210/8 29/28/8
f 30/30/7 31/211/7 28/31/7
f 31/33/8 32/212/8 27/34/8
f 32/36/75 33/213/75 26/37/75
f 33/39/76 34/214/76 25/40/76
f 34/42/77 35/52/77 24/43/77
f 35/45/78 36/59/78 23/46/78
f 8/18/13 9/10/13 27/48/13
f 2/49/14 20/215/14 19/50/14
f 16/51/15 17/207/15 35/52/15
f 9/15/79 10/7/79 28/54/79
f 4/55/17 22/209/17 36/56/17
f 17/58/80 18/216/80 36/59/80
f 10/12/81 11/4/81 29/61/81
f 4/62/20 3/1/20 21/63/20
f 12/65/21 30/210/21 20/66/21
f 3/68/82 5/22/82 23/69/82
f 13/70/83 31/211/83 30/71/83
f 5/3/84 6/217/84 24/73/84
f 14/74/25 32/212/25 31/75/25
f 7/16/85 25/218/85 24/43/85
f 15/77/86 33/213/86 32/78/86
f 8/13/28 26/219/28 25/40/28
f 11/9/87 1/220/87 19/81/87
f 16/82/88 34/214/88 33/83/88
f 38/85/31 40/221/31 39/86/31
f 40/88/89 44/222/89 43/89/89
f 43/91/33 44/223/33 42/92/33
f 41/94/90 42/224/90 38/95/90
f 39/90/35 43/225/35 41/97/35
f 40/88/36 38/95/36 42/98/36
f 47/226/37 46/227/37 69/228/37
f 46/227/37 45/229/37 70/230/37
f 70/230/37 45/229/37 71/231/37
f 45/229/37 76/232/37 71/231/37
f 76/232/37 75/233/37 72/234/37
f 71/231/37 76/232/37 72/234/37
f 75/233/37 74/235/37 73/236/37
f 73/236/37 72/234/37 75/233/37
f 70/230/37 69/228/37 46/227/37
f 69/228/37 68/237/37 47/226/37
f 68/237/37 67/102/37 48/101/37
f 47/226/37 68/237/37 48/101/37
f 67/102/37 66/238/37 49/100/37
f 66/238/37 65/239/37 50/240/37
f 50/240/37 65/239/37 51/241/37
f 65/239/37 64/242/37 51/241/37
f 64/242/37 63/243/37 52/244/37
f 51/241/37 64/242/37 52/244/37
f 63/243/37 62/245/37 53/246/37
f 62/245/37 61/247/37 54/248/37
f 54/248/37 61/247/37 55/249/37
f 61/247/37 60/250/37 55/249/37
f 60/250/37 59/251/37 56/252/37
f 55/249/37 60/250/37 56/252/37
f 59/251/37 58/253/37 57/254/37
f 57/254/37 56/252/37 59/251/37
f 54/248/37 53/246/37 62/245/37
f 53/246/37 52/244/37 63/243/37
f 50/240/37 49/100/37 66/238/37
f 77/104/38 78/255/38 102/256/38
f 78/255/38 79/257/38 101/258/38
f 79/257/38 80/259/38 100/260/38
f 80/259/38 81/261/38 99/262/38
f 79/257/38 100/260/38 101/258/38
f 81/261/38 82/263/38 98/264/38
f 82/263/38 83/265/38 97/266/38
f 83/265/38 84/267/38 96/268/38
f 84/267/38 85/269/38 95/270/38
f 83/265/38 96/268/38 97/266/38
f 85/269/38 86/271/38 94/272/38
f 86/271/38 87/273/38 93/274/38
f 87/273/38 88/275/38 92/276/38
f 88/275/38 89/277/38 91/278/38
f 92/276/38 88/275/38 91/278/38
f 89/277/38 90/279/38 91/278/38
f 92/276/38 93/274/38 87/273/38
f 93/274/38 94/272/38 86/271/38
f 94/272/38 95/270/38 85/269/38
f 95/270/38 96/268/38 84/267/38
f 97/266/38 98/264/38 82/263/38
f 98/264/38 99/262/38 81/261/38
f 99/262/38 100/260/38 80/259/38
f 101/258/38 102/256/38 78/255/38
f 102/256/38 103/105/38 77/104/38
f 103/105/38 104/280/38 108/103/38
f 104/280/38 105/281/38 107/282/38
f 108/103/38 104/280/38 107/282/38
f 105/281/38 106/283/38 107/282/38
f 48/106/91 80/284/91 79/107/91
f 75/109/40 107/285/40 106/110/40
f 62/112/92 94/286/92 93/113/92
f 49/115/42 81/287/42 80/116/42
f 76/118/43 108/288/43 107/119/43
f 63/121/93 95/289/93 94/122/93
f 50/124/94 82/290/94 81/125/94
f 45/127/95 77/291/95 108/128/95
f 64/130/96 96/292/96 95/131/96
f 51/133/48 83/293/48 82/134/48
f 65/136/49 97/294/49 96/137/49
f 52/139/50 84/295/50 83/140/50
f 66/142/97 98/296/97 97/143/97
f 53/145/52 85/297/52 84/146/52
f 67/148/53 99/298/53 98/149/53
f 54/151/98 86/299/98 85/152/98
f 68/154/99 100/300/99 99/155/99
f 55/157/100 87/301/100 86/158/100
f 69/160/101 101/302/101 100/161/101
f 56/163/102 88/303/102 87/164/102
f 70/166/103 102/304/103 101/167/103
f 57/169/104 89/305/104 88/170/104
f 71/172/61 103/306/61 102/173/61
f 58/175/62 90/307/62 89/176/62
f 72/178/105 104/308/105 103/179/105
f 59/181/64 91/309/64 90/182/64
f 46/184/106 78/310/106 77/185/106
f 73/187/107 105/311/107 104/188/107
f 60/190/67 92/312/67 91/191/67
f 47/193/68 79/313/68 78/194/68
f 74/196/69 106/314/69 105/197/69
f 61/199/70 93/315/70 92/200/70
