# Blender v2.79 (sub 7) OBJ File: 'Universe Gate.blend'
# www.blender.org
o 30_Cube.020
v 1.643284 -0.220133 3.458415
v 1.643219 -0.188993 3.458279
v 1.615850 -0.220441 3.401064
v 1.615784 -0.189301 3.400928
v 1.662886 -0.220133 3.449038
v 1.662821 -0.188993 3.448902
v 1.635452 -0.220441 3.391687
v 1.635387 -0.189301 3.391551
v 1.712985 -0.220133 3.609134
v 1.712920 -0.188993 3.608998
v 1.685551 -0.220441 3.551783
v 1.685486 -0.189301 3.551646
v 1.732588 -0.220133 3.599757
v 1.732522 -0.188993 3.599621
v 1.705154 -0.220441 3.542406
v 1.705088 -0.189301 3.542269
v 1.656256 -0.209869 3.481045
v 1.652962 -0.209869 3.484601
v 1.650425 -0.209869 3.488732
v 1.648743 -0.209869 3.493278
v 1.647979 -0.209869 3.498064
v 1.648164 -0.209869 3.502908
v 1.649291 -0.209869 3.507623
v 1.651316 -0.209869 3.512027
v 1.654161 -0.209869 3.515951
v 1.657717 -0.209869 3.519245
v 1.661847 -0.209869 3.521783
v 1.666393 -0.209869 3.523465
v 1.671180 -0.209869 3.524228
v 1.676023 -0.209869 3.524043
v 1.680738 -0.209869 3.522917
v 1.685142 -0.209869 3.520892
v 1.689067 -0.209869 3.518047
v 1.692361 -0.209869 3.514491
v 1.694898 -0.209869 3.510361
v 1.696580 -0.209869 3.505815
v 1.697344 -0.209869 3.501028
v 1.697158 -0.209869 3.496184
v 1.696032 -0.209869 3.491470
v 1.694007 -0.209869 3.487066
v 1.691162 -0.209869 3.483141
v 1.687606 -0.209869 3.479847
v 1.683476 -0.209869 3.477310
v 1.678930 -0.209869 3.475627
v 1.674143 -0.209869 3.474864
v 1.669299 -0.209869 3.475049
v 1.664585 -0.209869 3.476176
v 1.660181 -0.209869 3.478200
v 1.665943 -0.209869 3.491969
v 1.664594 -0.209869 3.493426
v 1.663554 -0.209869 3.495117
v 1.662865 -0.209869 3.496979
v 1.662553 -0.209869 3.498940
v 1.662629 -0.209869 3.500923
v 1.663090 -0.209869 3.502854
v 1.663919 -0.209869 3.504658
v 1.665084 -0.209869 3.506265
v 1.666541 -0.209869 3.507614
v 1.668232 -0.209869 3.508653
v 1.670094 -0.209869 3.509342
v 1.672054 -0.209869 3.509655
v 1.674038 -0.209869 3.509579
v 1.675969 -0.209869 3.509118
v 1.677773 -0.209869 3.508288
v 1.679380 -0.209869 3.507123
v 1.680729 -0.209869 3.505667
v 1.681768 -0.209869 3.503975
v 1.682457 -0.209869 3.502114
v 1.682770 -0.209869 3.500153
v 1.682694 -0.209869 3.498169
v 1.682233 -0.209869 3.496238
v 1.681404 -0.209869 3.494435
v 1.680238 -0.209869 3.492827
v 1.678782 -0.209869 3.491478
v 1.677090 -0.209869 3.490440
v 1.675229 -0.209869 3.489750
v 1.673268 -0.209869 3.489437
v 1.671285 -0.209869 3.489513
v 1.669354 -0.209869 3.489975
v 1.667550 -0.209869 3.490804
v 1.656256 -0.191635 3.481045
v 1.652962 -0.191635 3.484601
v 1.650425 -0.191635 3.488731
v 1.648743 -0.191635 3.493278
v 1.647979 -0.191635 3.498064
v 1.648164 -0.191635 3.502908
v 1.649291 -0.191635 3.507623
v 1.651316 -0.191635 3.512027
v 1.654161 -0.191635 3.515951
v 1.657717 -0.191635 3.519245
v 1.661847 -0.191635 3.521782
v 1.666393 -0.191635 3.523465
v 1.671180 -0.191635 3.524228
v 1.676023 -0.191635 3.524043
v 1.680738 -0.191635 3.522917
v 1.685142 -0.191635 3.520892
v 1.689067 -0.191635 3.518047
v 1.692361 -0.191635 3.514491
v 1.694898 -0.191635 3.510361
v 1.696580 -0.191635 3.505815
v 1.697344 -0.191635 3.501028
v 1.697158 -0.191635 3.496185
v 1.696032 -0.191635 3.491470
v 1.694007 -0.191635 3.487066
v 1.691162 -0.191635 3.483141
v 1.687606 -0.191635 3.479847
v 1.683476 -0.191635 3.477310
v 1.678930 -0.191635 3.475627
v 1.674143 -0.191635 3.474864
v 1.669300 -0.191635 3.475049
v 1.664585 -0.191635 3.476176
v 1.660181 -0.191635 3.478201
v 1.665943 -0.191635 3.491969
v 1.664594 -0.191635 3.493425
v 1.663554 -0.191635 3.495117
v 1.662865 -0.191635 3.496979
v 1.662553 -0.191635 3.498940
v 1.662629 -0.191635 3.500923
v 1.663090 -0.191635 3.502854
v 1.663919 -0.191635 3.504658
v 1.665084 -0.191635 3.506265
v 1.666541 -0.191635 3.507614
v 1.668232 -0.191635 3.508653
v 1.670094 -0.191635 3.509342
v 1.672055 -0.191635 3.509655
v 1.674038 -0.191635 3.509579
v 1.675969 -0.191635 3.509118
v 1.677773 -0.191635 3.508289
v 1.679380 -0.191635 3.507123
v 1.680729 -0.191635 3.505667
v 1.681768 -0.191635 3.503975
v 1.682458 -0.191635 3.502114
v 1.682770 -0.191635 3.500153
v 1.682694 -0.191635 3.498169
v 1.682233 -0.191635 3.496238
v 1.681404 -0.191635 3.494435
v 1.680238 -0.191635 3.492827
v 1.678782 -0.191635 3.491478
v 1.677091 -0.191635 3.490440
v 1.675229 -0.191635 3.489750
v 1.673268 -0.191635 3.489437
v 1.671285 -0.191635 3.489513
v 1.669354 -0.191635 3.489975
v 1.667550 -0.191635 3.490804
vt 0.294922 0.253906
vt 0.344922 0.303906
vt 0.294922 0.303906
vt 0.294922 0.253906
vt 0.344922 0.303906
vt 0.294922 0.303906
vt 0.344922 0.253906
vt 0.294922 0.303906
vt 0.294922 0.253906
vt 0.344922 0.253906
vt 0.294922 0.303906
vt 0.294922 0.253906
vt 0.344922 0.253906
vt 0.294922 0.253906
vt 0.344922 0.303906
vt 0.294922 0.303906
vt 0.294922 0.253906
vt 0.344922 0.303906
vt 0.294922 0.303906
vt 0.294922 0.253906
vt 0.344922 0.303906
vt 0.294922 0.303906
vt 0.344922 0.253906
vt 0.294922 0.303906
vt 0.294922 0.253906
vt 0.344922 0.253906
vt 0.294922 0.303906
vt 0.294922 0.253906
vt 0.344922 0.253906
vt 0.294922 0.253906
vt 0.344922 0.303906
vt 0.294922 0.303906
vt 0.344922 0.253906
vt 0.294922 0.303906
vt 0.294922 0.253906
vt 0.294922 0.253906
vt 0.344922 0.303906
vt 0.294922 0.303906
vt 0.344922 0.253906
vt 0.294922 0.303906
vt 0.294922 0.253906
vt 0.294922 0.253906
vt 0.344922 0.303906
vt 0.294922 0.303906
vt 0.294922 0.253906
vt 0.344922 0.303906
vt 0.294922 0.303906
vt 0.294922 0.253906
vt 0.344922 0.303906
vt 0.294922 0.303906
vt 0.294922 0.253906
vt 0.344922 0.303906
vt 0.294922 0.303906
vt 0.294922 0.253906
vt 0.344922 0.303906
vt 0.294922 0.303906
vt 0.294922 0.253906
vt 0.344922 0.303906
vt 0.294922 0.303906
vt 0.294922 0.253906
vt 0.344922 0.303906
vt 0.294922 0.303906
vt 0.294922 0.253906
vt 0.344922 0.303906
vt 0.294922 0.303906
vt 0.294922 0.253906
vt 0.344922 0.303906
vt 0.294922 0.303906
vt 0.294922 0.253906
vt 0.344922 0.303906
vt 0.294922 0.303906
vt 0.294922 0.253906
vt 0.344922 0.303906
vt 0.294922 0.303906
vt 0.294922 0.253906
vt 0.344922 0.303906
vt 0.294922 0.303906
vt 0.344922 0.253906
vt 0.294922 0.303906
vt 0.294922 0.253906
vt 0.294922 0.253906
vt 0.344922 0.303906
vt 0.294922 0.303906
vt 0.344922 0.253906
vt 0.294922 0.303906
vt 0.294922 0.253906
vt 0.344922 0.253906
vt 0.294922 0.303906
vt 0.294922 0.253906
vt 0.294922 0.253906
vt 0.344922 0.303906
vt 0.294922 0.303906
vt 0.344922 0.253906
vt 0.294922 0.303906
vt 0.294922 0.253906
vt 0.344922 0.253906
vt 0.294922 0.303906
vt 0.294922 0.253906
vt 0.344922 0.253906
vt 0.294922 0.303906
vt 0.294922 0.253906
vt 0.344922 0.253906
vt 0.294922 0.303906
vt 0.294922 0.253906
vt 0.344922 0.253906
vt 0.294922 0.303906
vt 0.294922 0.253906
vt 0.344922 0.253906
vt 0.294922 0.303906
vt 0.294922 0.253906
vt 0.344922 0.253906
vt 0.294922 0.303906
vt 0.294922 0.253906
vt 0.344922 0.253906
vt 0.294922 0.303906
vt 0.294922 0.253906
vt 0.344922 0.253906
vt 0.294922 0.303906
vt 0.294922 0.253906
vt 0.344922 0.253906
vt 0.294922 0.303906
vt 0.294922 0.253906
vt 0.294922 0.253906
vt 0.344922 0.303906
vt 0.294922 0.303906
vt 0.344922 0.253906
vt 0.294922 0.303906
vt 0.294922 0.253906
vt 0.344922 0.253906
vt 0.294922 0.303906
vt 0.294922 0.253906
vt 0.294922 0.253906
vt 0.344922 0.303906
vt 0.294922 0.303906
vt 0.344922 0.253906
vt 0.294922 0.303906
vt 0.294922 0.253906
vt 0.294922 0.253906
vt 0.344922 0.303906
vt 0.294922 0.303906
vt 0.294922 0.253906
vt 0.344922 0.303906
vt 0.294922 0.303906
vt 0.294922 0.253906
vt 0.344922 0.303906
vt 0.294922 0.303906
vt 0.294922 0.253906
vt 0.344922 0.303906
vt 0.294922 0.303906
vt 0.294922 0.253906
vt 0.344922 0.303906
vt 0.294922 0.303906
vt 0.294922 0.253906
vt 0.344922 0.303906
vt 0.294922 0.303906
vt 0.294922 0.253906
vt 0.344922 0.303906
vt 0.294922 0.303906
vt 0.294922 0.253906
vt 0.344922 0.303906
vt 0.294922 0.303906
vt 0.294922 0.253906
vt 0.344922 0.303906
vt 0.294922 0.303906
vt 0.294922 0.253906
vt 0.344922 0.303906
vt 0.294922 0.303906
vt 0.294922 0.253906
vt 0.344922 0.303906
vt 0.294922 0.303906
vt 0.294922 0.253906
vt 0.344922 0.303906
vt 0.294922 0.303906
vt 0.344922 0.253906
vt 0.294922 0.303906
vt 0.294922 0.253906
vt 0.294922 0.253906
vt 0.344922 0.303906
vt 0.294922 0.303906
vt 0.344922 0.253906
vt 0.294922 0.303906
vt 0.294922 0.253906
vt 0.344922 0.253906
vt 0.294922 0.303906
vt 0.294922 0.253906
vt 0.294922 0.253906
vt 0.344922 0.303906
vt 0.294922 0.303906
vt 0.344922 0.253906
vt 0.294922 0.303906
vt 0.294922 0.253906
vt 0.344922 0.253906
vt 0.294922 0.303906
vt 0.294922 0.253906
vt 0.344922 0.253906
vt 0.294922 0.303906
vt 0.294922 0.253906
vt 0.344922 0.253906
vt 0.294922 0.303906
vt 0.294922 0.253906
vt 0.344922 0.253906
vt 0.294922 0.303906
vt 0.294922 0.253906
vt 0.344922 0.253906
vt 0.294922 0.303906
vt 0.294922 0.253906
vt 0.344922 0.253906
vt 0.294922 0.303906
vt 0.294922 0.253906
vt 0.344922 0.253906
vt 0.294922 0.303906
vt 0.294922 0.253906
vt 0.344922 0.253906
vt 0.294922 0.303906
vt 0.294922 0.253906
vt 0.344922 0.253906
vt 0.294922 0.303906
vt 0.294922 0.253906
vt 0.294922 0.253906
vt 0.344922 0.303906
vt 0.294922 0.303906
vt 0.344922 0.253906
vt 0.294922 0.303906
vt 0.294922 0.253906
vt 0.344922 0.253906
vt 0.294922 0.303906
vt 0.344922 0.253906
vt 0.294922 0.303906
vt 0.344922 0.253906
vt 0.294922 0.253906
vt 0.344922 0.253906
vt 0.294922 0.303906
vt 0.344922 0.253906
vt 0.294922 0.303906
vt 0.294922 0.253906
vt 0.344922 0.253906
vt 0.294922 0.303906
vt 0.344922 0.253906
vt 0.294922 0.303906
vt 0.294922 0.253906
vt 0.294922 0.253906
vt 0.344922 0.303906
vt 0.344922 0.253906
vt 0.294922 0.303906
vt 0.294922 0.253906
vt 0.344922 0.303906
vt 0.294922 0.253906
vt 0.344922 0.303906
vt 0.344922 0.303906
vt 0.294922 0.303906
vt 0.294922 0.253906
vt 0.344922 0.303906
vt 0.294922 0.253906
vt 0.344922 0.303906
vt 0.344922 0.253906
vt 0.294922 0.303906
vt 0.294922 0.253906
vt 0.294922 0.253906
vt 0.344922 0.253906
vt 0.294922 0.303906
vt 0.294922 0.253906
vt 0.294922 0.253906
vt 0.344922 0.253906
vt 0.294922 0.303906
vt 0.294922 0.253906
vt 0.344922 0.253906
vt 0.294922 0.253906
vt 0.344922 0.253906
vt 0.294922 0.303906
vt 0.344922 0.253906
vt 0.294922 0.253906
vt 0.344922 0.303906
vt 0.294922 0.303906
vt 0.344922 0.253906
vt 0.294922 0.253906
vt 0.344922 0.253906
vt 0.294922 0.303906
vt 0.344922 0.253906
vt 0.294922 0.253906
vt 0.344922 0.303906
vt 0.294922 0.303906
vt 0.344922 0.253906
vt 0.294922 0.253906
vt 0.344922 0.253906
vt 0.294922 0.303906
vt 0.344922 0.253906
vt 0.294922 0.253906
vt 0.344922 0.253906
vt 0.294922 0.303906
vt 0.344922 0.253906
vt 0.294922 0.253906
vt 0.344922 0.303906
vt 0.294922 0.303906
vt 0.344922 0.253906
vt 0.294922 0.253906
vt 0.344922 0.253906
vt 0.294922 0.303906
vt 0.294922 0.253906
vt 0.344922 0.253906
vt 0.294922 0.303906
vt 0.294922 0.253906
vt 0.344922 0.253906
vt 0.294922 0.303906
vt 0.294922 0.253906
vt 0.344922 0.253906
vt 0.294922 0.303906
vt 0.294922 0.253906
vt 0.344922 0.303906
vt 0.294922 0.303906
vt 0.294922 0.253906
vt 0.344922 0.303906
vt 0.344922 0.253906
vt 0.294922 0.303906
vt 0.294922 0.253906
vt 0.344922 0.253906
vt 0.294922 0.303906
vt 0.294922 0.253906
vt 0.344922 0.253906
vt 0.294922 0.303906
vt 0.294922 0.253906
vt 0.344922 0.253906
vt 0.294922 0.303906
vt 0.344922 0.253906
vt 0.294922 0.303906
vt 0.294922 0.253906
vt 0.344922 0.303906
vt 0.294922 0.303906
vt 0.344922 0.253906
vt 0.294922 0.303906
vt 0.294922 0.253906
vt 0.344922 0.253906
vt 0.294922 0.303906
vt 0.344922 0.303906
vt 0.294922 0.303906
vt 0.344922 0.253906
vt 0.294922 0.253906
vt 0.344922 0.253906
vt 0.344922 0.253906
vt 0.344922 0.303906
vt 0.344922 0.303906
vt 0.344922 0.253906
vt 0.344922 0.253906
vt 0.344922 0.303906
vt 0.344922 0.303906
vt 0.344922 0.303906
vt 0.344922 0.253906
vt 0.344922 0.303906
vt 0.344922 0.253906
vt 0.344922 0.253906
vt 0.344922 0.253906
vt 0.344922 0.253906
vt 0.344922 0.253906
vt 0.344922 0.253906
vt 0.344922 0.253906
vt 0.344922 0.253906
vt 0.344922 0.253906
vt 0.344922 0.253906
vt 0.344922 0.253906
vt 0.344922 0.253906
vt 0.344922 0.303906
vt 0.344922 0.253906
vt 0.344922 0.303906
vt 0.344922 0.303906
vt 0.344922 0.253906
vt 0.344922 0.303906
vt 0.344922 0.303906
vt 0.344922 0.303906
vt 0.344922 0.303906
vt 0.344922 0.303906
vt 0.344922 0.303906
vt 0.344922 0.303906
vt 0.344922 0.303906
vt 0.344922 0.303906
vt 0.344922 0.303906
vt 0.344922 0.253906
vt 0.344922 0.303906
vt 0.344922 0.303906
vt 0.344922 0.253906
vt 0.344922 0.253906
vt 0.344922 0.253906
vt 0.344922 0.253906
vt 0.344922 0.303906
vt 0.344922 0.253906
vt 0.344922 0.303906
vt 0.344922 0.303906
vt 0.344922 0.253906
vt 0.344922 0.303906
vt 0.344922 0.303906
vt 0.344922 0.303906
vt 0.344922 0.303906
vt 0.344922 0.303906
vt 0.344922 0.303906
vt 0.344922 0.303906
vt 0.344922 0.303906
vt 0.344922 0.303906
vt 0.344922 0.303906
vt 0.344922 0.303906
vt 0.344922 0.303906
vt 0.344922 0.303906
vt 0.344922 0.253906
vt 0.344922 0.303906
vt 0.344922 0.303906
vt 0.344922 0.303906
vt 0.344922 0.303906
vt 0.344922 0.253906
vt 0.344922 0.303906
vt 0.344922 0.253906
vt 0.344922 0.303906
vt 0.344922 0.303906
vt 0.344922 0.253906
vt 0.344922 0.303906
vt 0.344922 0.303906
vt 0.344922 0.303906
vt 0.344922 0.303906
vt 0.344922 0.253906
vt 0.344922 0.303906
vt 0.344922 0.303906
vt 0.344922 0.303906
vt 0.344922 0.303906
vt 0.344922 0.303906
vt 0.344922 0.253906
vt 0.344922 0.303906
vt 0.344922 0.303906
vt 0.344922 0.253906
vn -0.9021 -0.0000 0.4315
vn -0.4315 -0.0048 -0.9021
vn 0.9021 0.0000 -0.4315
vn 0.4315 0.0049 0.9021
vn 0.0021 -1.0000 0.0044
vn -0.0021 1.0000 -0.0044
vn -0.4315 -0.0049 -0.9021
vn 0.0000 -1.0000 0.0000
vn 0.0000 1.0000 0.0000
vn -0.2323 0.0000 -0.9726
vn -0.9875 0.0000 -0.1575
vn -0.6796 -0.0000 0.7335
vn -0.4176 0.0000 -0.9086
vn -0.9993 0.0000 0.0382
vn -0.5232 0.0000 0.8522
vn -0.5870 0.0000 -0.8096
vn -0.9726 0.0000 0.2324
vn -0.3471 0.0000 0.9378
vn 0.7336 0.0000 0.6796
vn -0.9086 0.0000 0.4178
vn -0.1577 0.0000 0.9875
vn 0.8522 0.0000 0.5232
vn -0.8097 0.0000 0.5869
vn 0.0387 0.0000 0.9993
vn 0.9378 0.0000 0.3472
vn -0.6795 0.0000 0.7337
vn 0.2322 0.0000 0.9727
vn 0.9875 0.0000 0.1574
vn -0.5234 0.0000 0.8521
vn 0.4175 0.0000 0.9087
vn 0.9993 0.0000 -0.0383
vn 0.5870 0.0000 0.8096
vn 0.9726 0.0000 -0.2324
vn -0.1575 0.0000 0.9875
vn 0.9086 0.0000 -0.4177
vn 0.0383 0.0000 0.9993
vn 0.8097 -0.0000 -0.5869
vn 0.2323 0.0000 0.9726
vn 0.6794 -0.0000 -0.7337
vn 0.4178 0.0000 0.9086
vn 0.5233 -0.0000 -0.8522
vn 0.3471 0.0000 -0.9378
vn 0.1573 0.0000 -0.9876
vn 0.8521 -0.0000 0.5234
vn -0.0383 0.0000 -0.9993
vn 0.9378 0.0000 0.3471
vn -0.2322 0.0000 -0.9727
vn 0.9875 0.0000 0.1575
vn -0.4178 0.0000 -0.9085
vn 0.9993 -0.0000 -0.0382
vn -0.7336 0.0000 -0.6796
vn -0.8521 0.0000 -0.5234
vn 0.8096 -0.0000 -0.5870
vn -0.9378 0.0000 -0.3470
vn 0.6796 0.0000 -0.7336
vn -0.9875 0.0000 -0.1576
vn 0.5234 0.0000 -0.8521
vn -0.9993 0.0000 0.0383
vn 0.3472 -0.0000 -0.9378
vn -0.7337 0.0000 -0.6795
vn 0.1576 -0.0000 -0.9875
vn -0.9086 0.0000 0.4177
vn -0.9378 -0.0000 -0.3471
vn -0.4316 -0.0048 -0.9021
vn 0.4315 0.0048 0.9021
vn -0.2325 0.0000 -0.9726
vn -0.6794 0.0000 0.7337
vn -0.4178 0.0000 -0.9086
vn -0.5235 -0.0000 0.8520
vn -0.5869 0.0000 -0.8097
vn -0.1581 0.0000 0.9874
vn -0.8096 0.0000 0.5869
vn 0.9378 0.0000 0.3473
vn -0.6796 0.0000 0.7336
vn 0.2326 0.0000 0.9726
vn 0.9726 0.0000 -0.2325
vn 0.6799 -0.0000 -0.7333
vn 0.4176 0.0000 0.9086
vn 0.5236 0.0000 -0.8520
vn 0.5869 0.0000 0.8097
vn 0.3470 0.0000 -0.9379
vn 0.1577 -0.0000 -0.9875
vn 0.8520 -0.0000 0.5235
vn 0.9379 -0.0000 0.3469
vn -0.7334 0.0000 -0.6798
vn 0.9086 0.0000 -0.4176
vn 0.8096 0.0000 -0.5869
vn -0.9379 0.0000 -0.3470
vn -0.7335 0.0000 -0.6797
vn 0.1573 0.0000 -0.9875
vn -0.8520 0.0000 -0.5235
vn -0.0381 0.0000 -0.9993
vn -0.8095 -0.0000 0.5871
s off
f 1/1/1 4/2/1 3/3/1
f 3/4/2 8/5/2 7/6/2
f 8/7/3 5/8/3 7/9/3
f 6/10/4 1/11/4 5/12/4
f 7/13/5 1/11/5 3/4/5
f 8/14/6 2/15/6 6/16/6
f 9/17/1 12/18/1 11/19/1
f 11/20/7 16/21/7 15/22/7
f 16/23/3 13/24/3 15/25/3
f 14/26/4 9/27/4 13/28/4
f 15/29/5 9/27/5 11/20/5
f 16/30/6 10/31/6 14/32/6
f 35/33/8 68/34/8 36/35/8
f 23/36/8 54/37/8 55/38/8
f 36/39/8 69/40/8 37/41/8
f 24/42/8 55/43/8 56/44/8
f 38/45/8 69/46/8 70/47/8
f 25/48/8 56/49/8 57/50/8
f 39/51/8 70/52/8 71/53/8
f 26/54/8 57/55/8 58/56/8
f 40/57/8 71/58/8 72/59/8
f 27/60/8 58/61/8 59/62/8
f 41/63/8 72/64/8 73/65/8
f 28/66/8 59/67/8 60/68/8
f 42/69/8 73/70/8 74/71/8
f 29/72/8 60/73/8 61/74/8
f 43/75/8 74/76/8 75/77/8
f 29/78/8 62/79/8 30/80/8
f 44/81/8 75/82/8 76/83/8
f 30/84/8 63/85/8 31/86/8
f 17/87/8 50/88/8 18/89/8
f 45/90/8 76/91/8 77/92/8
f 31/93/8 64/94/8 32/95/8
f 18/96/8 51/97/8 19/98/8
f 45/99/8 78/100/8 46/101/8
f 32/102/8 65/103/8 33/104/8
f 19/105/8 52/106/8 20/107/8
f 46/108/8 79/109/8 47/110/8
f 33/111/8 66/112/8 34/113/8
f 20/114/8 53/115/8 21/116/8
f 47/117/8 80/118/8 48/119/8
f 34/120/8 67/121/8 35/122/8
f 22/123/8 53/124/8 54/125/8
f 48/126/8 49/127/8 17/128/8
f 132/129/9 99/130/9 100/131/9
f 87/132/9 118/133/9 86/134/9
f 133/135/9 100/136/9 101/137/9
f 88/138/9 119/139/9 87/140/9
f 102/141/9 133/142/9 101/143/9
f 89/144/9 120/145/9 88/146/9
f 103/147/9 134/148/9 102/149/9
f 90/150/9 121/151/9 89/152/9
f 104/153/9 135/154/9 103/155/9
f 91/156/9 122/157/9 90/158/9
f 105/159/9 136/160/9 104/161/9
f 92/162/9 123/163/9 91/164/9
f 106/165/9 137/166/9 105/167/9
f 93/168/9 124/169/9 92/170/9
f 107/171/9 138/172/9 106/173/9
f 126/174/9 93/175/9 94/176/9
f 108/177/9 139/178/9 107/179/9
f 127/180/9 94/181/9 95/182/9
f 114/183/9 81/184/9 82/185/9
f 109/186/9 140/187/9 108/188/9
f 128/189/9 95/190/9 96/191/9
f 115/192/9 82/193/9 83/194/9
f 142/195/9 109/196/9 110/197/9
f 129/198/9 96/199/9 97/200/9
f 116/201/9 83/202/9 84/203/9
f 143/204/9 110/205/9 111/206/9
f 130/207/9 97/208/9 98/209/9
f 117/210/9 84/211/9 85/212/9
f 144/213/9 111/214/9 112/215/9
f 131/216/9 98/217/9 99/218/9
f 86/219/9 117/220/9 85/221/9
f 113/222/9 112/223/9 81/224/9
f 111/225/10 46/226/10 47/110/10
f 85/227/11 20/228/11 21/116/11
f 137/229/12 74/71/12 73/230/12
f 112/231/13 47/232/13 48/119/13
f 86/233/14 21/234/14 22/123/14
f 74/235/15 139/178/15 75/77/15
f 81/236/16 48/237/16 17/128/16
f 87/238/17 22/239/17 23/36/17
f 75/240/18 140/187/18 76/83/18
f 49/241/19 114/242/19 50/88/19
f 88/243/20 23/244/20 24/42/20
f 76/245/21 141/246/21 77/92/21
f 50/247/22 115/248/22 51/97/22
f 25/48/23 88/249/23 24/250/23
f 77/251/24 142/252/24 78/100/24
f 51/253/25 116/254/25 52/106/25
f 90/255/26 25/256/26 26/54/26
f 142/195/27 79/109/27 78/257/27
f 116/201/28 53/115/28 52/258/28
f 91/259/29 26/260/29 27/60/29
f 143/204/30 80/118/30 79/261/30
f 53/262/31 118/133/31 54/125/31
f 92/263/18 27/264/18 28/66/18
f 144/213/32 49/127/32 80/265/32
f 118/266/33 55/38/33 54/267/33
f 93/268/34 28/269/34 29/72/34
f 119/270/35 56/44/35 55/271/35
f 30/80/36 93/272/36 29/273/36
f 120/274/37 57/50/37 56/275/37
f 95/276/38 30/277/38 31/86/38
f 121/278/39 58/56/39 57/279/39
f 32/95/40 95/280/40 31/281/40
f 122/282/41 59/62/41 58/283/41
f 97/284/32 32/285/32 33/104/32
f 123/286/42 60/68/42 59/287/42
f 98/288/19 33/289/19 34/113/19
f 124/290/43 61/74/43 60/291/43
f 35/122/44 98/292/44 34/293/44
f 125/294/45 62/79/45 61/295/45
f 100/296/46 35/297/46 36/35/46
f 126/174/47 63/85/47 62/298/47
f 101/299/48 36/300/48 37/41/48
f 127/180/49 64/94/49 63/301/49
f 102/302/50 37/303/50 38/45/50
f 128/189/16 65/103/16 64/304/16
f 103/305/33 38/306/33 39/51/33
f 129/198/51 66/112/51 65/307/51
f 40/57/35 103/308/35 39/309/35
f 66/310/52 131/311/52 67/121/52
f 105/312/53 40/313/53 41/63/53
f 131/216/54 68/34/54 67/314/54
f 106/315/55 41/316/55 42/69/55
f 132/129/56 69/40/56 68/317/56
f 107/318/57 42/319/57 43/75/57
f 69/320/58 134/148/58 70/47/58
f 108/321/59 43/322/59 44/81/59
f 82/323/60 17/324/60 18/89/60
f 70/325/17 135/154/17 71/53/17
f 45/90/61 108/326/61 44/327/61
f 83/328/52 18/329/52 19/98/52
f 71/330/62 136/160/62 72/59/62
f 110/331/45 45/332/45 46/101/45
f 20/107/63 83/333/63 19/334/63
f 136/335/23 73/65/23 72/336/23
f 1/1/1 2/337/1 4/2/1
f 3/4/64 4/338/64 8/5/64
f 8/7/3 6/339/3 5/8/3
f 6/10/65 2/15/65 1/11/65
f 7/13/5 5/340/5 1/11/5
f 8/14/6 4/338/6 2/15/6
f 9/17/1 10/341/1 12/18/1
f 11/20/7 12/342/7 16/21/7
f 16/23/3 14/343/3 13/24/3
f 14/26/4 10/31/4 9/27/4
f 15/29/5 13/344/5 9/27/5
f 16/30/6 12/342/6 10/31/6
f 35/33/8 67/345/8 68/34/8
f 23/36/8 22/346/8 54/37/8
f 36/39/8 68/347/8 69/40/8
f 24/42/8 23/348/8 55/43/8
f 38/45/8 37/349/8 69/46/8
f 25/48/8 24/350/8 56/49/8
f 39/51/8 38/351/8 70/52/8
f 26/54/8 25/352/8 57/55/8
f 40/57/8 39/353/8 71/58/8
f 27/60/8 26/354/8 58/61/8
f 41/63/8 40/355/8 72/64/8
f 28/66/8 27/356/8 59/67/8
f 42/69/8 41/357/8 73/70/8
f 29/72/8 28/358/8 60/73/8
f 43/75/8 42/359/8 74/76/8
f 29/78/8 61/360/8 62/79/8
f 44/81/8 43/361/8 75/82/8
f 30/84/8 62/362/8 63/85/8
f 17/87/8 49/363/8 50/88/8
f 45/90/8 44/364/8 76/91/8
f 31/93/8 63/365/8 64/94/8
f 18/96/8 50/366/8 51/97/8
f 45/99/8 77/367/8 78/100/8
f 32/102/8 64/368/8 65/103/8
f 19/105/8 51/369/8 52/106/8
f 46/108/8 78/370/8 79/109/8
f 33/111/8 65/371/8 66/112/8
f 20/114/8 52/372/8 53/115/8
f 47/117/8 79/373/8 80/118/8
f 34/120/8 66/374/8 67/121/8
f 22/123/8 21/375/8 53/124/8
f 48/126/8 80/376/8 49/127/8
f 132/129/9 131/311/9 99/130/9
f 87/132/9 119/270/9 118/133/9
f 133/135/9 132/377/9 100/136/9
f 88/138/9 120/274/9 119/139/9
f 102/141/9 134/378/9 133/142/9
f 89/144/9 121/278/9 120/145/9
f 103/147/9 135/379/9 134/148/9
f 90/150/9 122/282/9 121/151/9
f 104/153/9 136/335/9 135/154/9
f 91/156/9 123/286/9 122/157/9
f 105/159/9 137/229/9 136/160/9
f 92/162/9 124/290/9 123/163/9
f 106/165/9 138/380/9 137/166/9
f 93/168/9 125/294/9 124/169/9
f 107/171/9 139/381/9 138/172/9
f 126/174/9 125/382/9 93/175/9
f 108/177/9 140/383/9 139/178/9
f 127/180/9 126/384/9 94/181/9
f 114/183/9 113/385/9 81/184/9
f 109/186/9 141/386/9 140/187/9
f 128/189/9 127/387/9 95/190/9
f 115/192/9 114/242/9 82/193/9
f 142/195/9 141/246/9 109/196/9
f 129/198/9 128/388/9 96/199/9
f 116/201/9 115/248/9 83/202/9
f 143/204/9 142/252/9 110/205/9
f 130/207/9 129/389/9 97/208/9
f 117/210/9 116/254/9 84/211/9
f 144/213/9 143/390/9 111/214/9
f 131/216/9 130/391/9 98/217/9
f 86/219/9 118/266/9 117/220/9
f 113/222/9 144/392/9 112/223/9
f 111/225/66 110/393/66 46/226/66
f 85/227/11 84/394/11 20/228/11
f 137/229/67 138/172/67 74/71/67
f 112/231/68 111/395/68 47/232/68
f 86/233/14 85/396/14 21/234/14
f 74/235/69 138/380/69 139/178/69
f 81/236/70 112/397/70 48/237/70
f 87/238/17 86/398/17 22/239/17
f 75/240/18 139/381/18 140/187/18
f 49/241/19 113/222/19 114/242/19
f 88/243/62 87/399/62 23/244/62
f 76/245/71 140/383/71 141/246/71
f 50/247/44 114/183/44 115/248/44
f 25/48/72 89/400/72 88/249/72
f 77/251/36 141/386/36 142/252/36
f 51/253/73 115/192/73 116/254/73
f 90/255/74 89/401/74 25/256/74
f 142/195/75 143/390/75 79/109/75
f 116/201/28 117/220/28 53/115/28
f 91/259/69 90/402/69 26/260/69
f 143/204/30 144/392/30 80/118/30
f 53/262/31 117/210/31 118/133/31
f 92/263/18 91/403/18 27/264/18
f 144/213/32 113/385/32 49/127/32
f 118/266/76 119/139/76 55/38/76
f 93/268/34 92/404/34 28/269/34
f 119/270/35 120/145/35 56/44/35
f 30/80/36 94/405/36 93/272/36
f 120/274/37 121/151/37 57/50/37
f 95/276/38 94/406/38 30/277/38
f 121/278/77 122/157/77 58/56/77
f 32/95/78 96/407/78 95/280/78
f 122/282/79 123/163/79 59/62/79
f 97/284/80 96/408/80 32/285/80
f 123/286/81 124/169/81 60/68/81
f 98/288/19 97/409/19 33/289/19
f 124/290/82 125/382/82 61/74/82
f 35/122/83 99/410/83 98/292/83
f 125/294/45 126/384/45 62/79/45
f 100/296/84 99/411/84 35/297/84
f 126/174/47 127/387/47 63/85/47
f 101/299/48 100/412/48 36/300/48
f 127/180/49 128/388/49 64/94/49
f 102/302/50 101/413/50 37/303/50
f 128/189/16 129/389/16 65/103/16
f 103/305/33 102/414/33 38/306/33
f 129/198/85 130/391/85 66/112/85
f 40/57/86 104/415/86 103/308/86
f 66/310/52 130/207/52 131/311/52
f 105/312/87 104/416/87 40/313/87
f 131/216/88 132/377/88 68/34/88
f 106/315/55 105/417/55 41/316/55
f 132/129/11 133/142/11 69/40/11
f 107/318/57 106/418/57 42/319/57
f 69/320/14 133/135/14 134/148/14
f 108/321/42 107/419/42 43/322/42
f 82/323/89 81/420/89 17/324/89
f 70/325/17 134/378/17 135/154/17
f 45/90/90 109/421/90 108/326/90
f 83/328/91 82/422/91 18/329/91
f 71/330/62 135/379/62 136/160/62
f 110/331/92 109/423/92 45/332/92
f 20/107/63 84/424/63 83/333/63
f 136/335/93 137/166/93 73/65/93
