# Blender v2.79 (sub 7) OBJ File: 'Universe Gate.blend'
# www.blender.org
o 32_Circle.013
v 2.495493 -0.210062 2.812273
v 2.493278 -0.210062 2.814663
v 2.491572 -0.210062 2.817440
v 2.490441 -0.210062 2.820497
v 2.489928 -0.210062 2.823715
v 2.490052 -0.210062 2.826972
v 2.490810 -0.210062 2.830142
v 2.492171 -0.210062 2.833102
v 2.494084 -0.210062 2.835741
v 2.496475 -0.210062 2.837956
v 2.499252 -0.210062 2.839662
v 2.502308 -0.210062 2.840793
v 2.505526 -0.210062 2.841306
v 2.508783 -0.210062 2.841182
v 2.511953 -0.210062 2.840424
v 2.514914 -0.210062 2.839063
v 2.517553 -0.210062 2.837150
v 2.519767 -0.210062 2.834759
v 2.521473 -0.210062 2.831982
v 2.522604 -0.210062 2.828926
v 2.523118 -0.210062 2.825708
v 2.522993 -0.210062 2.822451
v 2.522236 -0.210062 2.819282
v 2.520875 -0.210062 2.816320
v 2.518962 -0.210062 2.813682
v 2.516571 -0.210062 2.811467
v 2.513794 -0.210062 2.809761
v 2.510737 -0.210062 2.808630
v 2.507519 -0.210062 2.808117
v 2.504263 -0.210062 2.808241
v 2.501093 -0.210062 2.808999
v 2.498132 -0.210062 2.810360
v 2.495493 -0.190959 2.812273
v 2.493278 -0.190959 2.814663
v 2.491572 -0.190959 2.817440
v 2.490441 -0.190959 2.820497
v 2.489928 -0.190959 2.823715
v 2.490052 -0.190959 2.826972
v 2.490810 -0.190959 2.830142
v 2.492171 -0.190959 2.833102
v 2.494084 -0.190959 2.835741
v 2.496475 -0.190959 2.837956
v 2.499252 -0.190959 2.839662
v 2.502308 -0.190959 2.840793
v 2.505526 -0.190959 2.841306
v 2.508783 -0.190959 2.841182
v 2.511953 -0.190959 2.840424
v 2.514914 -0.190959 2.839063
v 2.517553 -0.190959 2.837150
v 2.519767 -0.190959 2.834759
v 2.521473 -0.190959 2.831982
v 2.522604 -0.190959 2.828926
v 2.523118 -0.190959 2.825708
v 2.522993 -0.190959 2.822451
v 2.522236 -0.190959 2.819282
v 2.520875 -0.190959 2.816320
v 2.518962 -0.190959 2.813682
v 2.516571 -0.190959 2.811467
v 2.513794 -0.190959 2.809761
v 2.510737 -0.190959 2.808630
v 2.507519 -0.190959 2.808117
v 2.504263 -0.190959 2.808241
v 2.501093 -0.190959 2.808999
v 2.498132 -0.190959 2.810360
v 2.640584 -0.217391 2.989704
v 2.640498 -0.190797 2.989608
v 2.569648 -0.217910 2.909706
v 2.569562 -0.191316 2.909609
v 2.654469 -0.217391 2.977392
v 2.654383 -0.190797 2.977296
v 2.583533 -0.217910 2.897394
v 2.583447 -0.191316 2.897297
v 2.556760 -0.217518 2.896318
v 2.556674 -0.190925 2.896222
v 2.520738 -0.217782 2.855695
v 2.520653 -0.191188 2.855598
v 2.570645 -0.217518 2.884006
v 2.570559 -0.190925 2.883910
v 2.534623 -0.217782 2.843383
v 2.534538 -0.191188 2.843287
vt 0.344442 0.283783
vt 0.324799 0.254387
vt 0.295402 0.274029
vt 0.324799 0.254387
vt 0.295402 0.274029
vt 0.315045 0.303426
vt 0.344922 0.253906
vt 0.294922 0.303906
vt 0.294922 0.253906
vt 0.344922 0.253906
vt 0.294922 0.303906
vt 0.294922 0.253906
vt 0.344922 0.253906
vt 0.294922 0.303906
vt 0.294922 0.253906
vt 0.344922 0.253906
vt 0.294922 0.303906
vt 0.294922 0.253906
vt 0.344922 0.253906
vt 0.294922 0.303906
vt 0.294922 0.253906
vt 0.344922 0.253906
vt 0.294922 0.303906
vt 0.294922 0.253906
vt 0.344922 0.253906
vt 0.294922 0.303906
vt 0.294922 0.253906
vt 0.344922 0.253906
vt 0.294922 0.303906
vt 0.294922 0.253906
vt 0.344922 0.253906
vt 0.294922 0.303906
vt 0.294922 0.253906
vt 0.344922 0.253906
vt 0.294922 0.303906
vt 0.294922 0.253906
vt 0.344922 0.253906
vt 0.294922 0.303906
vt 0.294922 0.253906
vt 0.344922 0.253906
vt 0.294922 0.303906
vt 0.294922 0.253906
vt 0.344922 0.253906
vt 0.294922 0.303906
vt 0.294922 0.253906
vt 0.344922 0.253906
vt 0.294922 0.303906
vt 0.294922 0.253906
vt 0.344922 0.253906
vt 0.294922 0.303906
vt 0.294922 0.253906
vt 0.344922 0.253906
vt 0.294922 0.303906
vt 0.294922 0.253906
vt 0.344922 0.253906
vt 0.294922 0.303906
vt 0.294922 0.253906
vt 0.344922 0.253906
vt 0.294922 0.303906
vt 0.294922 0.253906
vt 0.344922 0.253906
vt 0.294922 0.303906
vt 0.294922 0.253906
vt 0.344922 0.253906
vt 0.294922 0.303906
vt 0.294922 0.253906
vt 0.344922 0.253906
vt 0.294922 0.303906
vt 0.294922 0.253906
vt 0.344922 0.253906
vt 0.294922 0.303906
vt 0.294922 0.253906
vt 0.344922 0.253906
vt 0.294922 0.303906
vt 0.294922 0.253906
vt 0.344922 0.253906
vt 0.294922 0.303906
vt 0.294922 0.253906
vt 0.344922 0.253906
vt 0.294922 0.303906
vt 0.294922 0.253906
vt 0.344922 0.253906
vt 0.294922 0.303906
vt 0.294922 0.253906
vt 0.344922 0.253906
vt 0.294922 0.303906
vt 0.294922 0.253906
vt 0.344922 0.253906
vt 0.294922 0.303906
vt 0.294922 0.253906
vt 0.344922 0.253906
vt 0.294922 0.303906
vt 0.294922 0.253906
vt 0.344922 0.253906
vt 0.294922 0.303906
vt 0.294922 0.253906
vt 0.344922 0.253906
vt 0.294922 0.303906
vt 0.294922 0.253906
vt 0.344922 0.253906
vt 0.294922 0.303906
vt 0.294922 0.253906
vt 0.294922 0.253906
vt 0.344922 0.303906
vt 0.294922 0.303906
vt 0.344922 0.253906
vt 0.294922 0.303906
vt 0.294922 0.253906
vt 0.344922 0.253906
vt 0.294922 0.303906
vt 0.294922 0.253906
vt 0.344922 0.253906
vt 0.294922 0.303906
vt 0.294922 0.253906
vt 0.344922 0.253906
vt 0.294922 0.253906
vt 0.344922 0.303906
vt 0.294922 0.303906
vt 0.294922 0.253906
vt 0.344922 0.303906
vt 0.294922 0.303906
vt 0.294922 0.253906
vt 0.344922 0.303906
vt 0.294922 0.303906
vt 0.344922 0.253906
vt 0.294922 0.303906
vt 0.294922 0.253906
vt 0.294922 0.253906
vt 0.344922 0.303906
vt 0.294922 0.303906
vt 0.344922 0.253906
vt 0.294922 0.253906
vt 0.294922 0.303906
vt 0.315045 0.303426
vt 0.319922 0.303906
vt 0.324799 0.303426
vt 0.329489 0.302003
vt 0.333811 0.299693
vt 0.337600 0.296584
vt 0.340709 0.292796
vt 0.343019 0.288473
vt 0.344922 0.278906
vt 0.340709 0.265017
vt 0.344442 0.274029
vt 0.343019 0.269339
vt 0.337600 0.261229
vt 0.333811 0.258120
vt 0.329489 0.255809
vt 0.319922 0.253906
vt 0.315045 0.254387
vt 0.310355 0.255809
vt 0.306033 0.258120
vt 0.302244 0.261229
vt 0.299135 0.265017
vt 0.296825 0.269339
vt 0.294922 0.278906
vt 0.295402 0.283784
vt 0.296825 0.288473
vt 0.299135 0.292796
vt 0.302244 0.296584
vt 0.306033 0.299693
vt 0.310355 0.302003
vt 0.319922 0.303906
vt 0.324799 0.303426
vt 0.329489 0.302003
vt 0.333811 0.299693
vt 0.337600 0.296584
vt 0.340709 0.292796
vt 0.343019 0.288473
vt 0.344442 0.283783
vt 0.344922 0.278906
vt 0.340709 0.265017
vt 0.344442 0.274029
vt 0.343019 0.269339
vt 0.337600 0.261229
vt 0.333811 0.258120
vt 0.329489 0.255809
vt 0.319922 0.253906
vt 0.315045 0.254387
vt 0.310355 0.255809
vt 0.306033 0.258120
vt 0.302244 0.261229
vt 0.299135 0.265017
vt 0.296825 0.269339
vt 0.294922 0.278906
vt 0.295402 0.283784
vt 0.296825 0.288473
vt 0.299135 0.292796
vt 0.302244 0.296584
vt 0.306033 0.299693
vt 0.310355 0.302003
vt 0.344922 0.303906
vt 0.344922 0.303906
vt 0.344922 0.303906
vt 0.344922 0.303906
vt 0.344922 0.303906
vt 0.344922 0.303906
vt 0.344922 0.303906
vt 0.344922 0.303906
vt 0.344922 0.303906
vt 0.344922 0.303906
vt 0.344922 0.303906
vt 0.344922 0.303906
vt 0.344922 0.303906
vt 0.344922 0.303906
vt 0.344922 0.303906
vt 0.344922 0.303906
vt 0.344922 0.303906
vt 0.344922 0.303906
vt 0.344922 0.303906
vt 0.344922 0.303906
vt 0.344922 0.303906
vt 0.344922 0.303906
vt 0.344922 0.303906
vt 0.344922 0.303906
vt 0.344922 0.303906
vt 0.344922 0.303906
vt 0.344922 0.303906
vt 0.344922 0.303906
vt 0.344922 0.303906
vt 0.344922 0.303906
vt 0.344922 0.303906
vt 0.344922 0.303906
vt 0.344922 0.253906
vt 0.344922 0.303906
vt 0.344922 0.303906
vt 0.344922 0.303906
vt 0.344922 0.253906
vt 0.344922 0.253906
vt 0.344922 0.303906
vt 0.344922 0.253906
vt 0.344922 0.303906
vn 0.0000 -1.0000 0.0000
vn 0.0000 1.0000 0.0000
vn -0.9379 0.0000 -0.3470
vn -0.2324 0.0000 -0.9726
vn 0.7337 0.0000 0.6795
vn -0.9875 0.0000 -0.1576
vn -0.4176 0.0000 -0.9086
vn 0.8521 0.0000 0.5234
vn -0.9993 0.0000 0.0383
vn -0.5869 0.0000 -0.8096
vn 0.9378 0.0000 0.3471
vn -0.9726 0.0000 0.2324
vn 0.9875 0.0000 0.1575
vn -0.9086 0.0000 0.4176
vn 0.9993 0.0000 -0.0383
vn -0.8096 0.0000 0.5870
vn 0.9726 0.0000 -0.2324
vn -0.6795 0.0000 0.7337
vn 0.9086 0.0000 -0.4177
vn -0.5234 0.0000 0.8521
vn 0.8096 0.0000 -0.5869
vn -0.3471 0.0000 0.9378
vn 0.6795 0.0000 -0.7336
vn -0.1575 0.0000 0.9875
vn 0.5234 0.0000 -0.8521
vn 0.0382 0.0000 0.9993
vn 0.3472 0.0000 -0.9378
vn 0.2324 0.0000 0.9726
vn -0.7336 0.0000 -0.6796
vn 0.1575 0.0000 -0.9875
vn 0.4176 0.0000 0.9086
vn -0.8520 0.0000 -0.5235
vn -0.0382 0.0000 -0.9993
vn 0.5869 0.0000 0.8097
vn -0.7482 0.0000 0.6635
vn -0.6634 -0.0049 -0.7482
vn 0.7482 -0.0000 -0.6635
vn 0.6635 0.0048 0.7482
vn 0.0032 -1.0000 0.0036
vn -0.0032 1.0000 -0.0036
vn -0.6634 -0.0048 -0.7482
vn 0.6634 0.0049 0.7482
vn 0.0000 -1.0000 -0.0001
vn 0.0000 1.0000 0.0001
vn -0.4177 0.0000 -0.9086
vn -0.5870 0.0000 -0.8096
vn -0.9086 0.0000 0.4178
vn -0.8096 0.0000 0.5869
vn -0.6796 0.0000 0.7336
vn 0.9086 0.0000 -0.4176
vn -0.5235 0.0000 0.8520
vn -0.3470 0.0000 0.9379
vn 0.6796 0.0000 -0.7336
vn -0.1576 0.0000 0.9875
vn 0.0383 0.0000 0.9993
vn 0.1574 0.0000 -0.9875
vn 0.4177 0.0000 0.9086
vn 0.5870 0.0000 0.8096
vn -0.6635 -0.0048 -0.7482
vn 0.6634 0.0048 0.7482
s off
f 27/1/1 19/2/1 11/3/1
f 49/4/2 57/5/2 33/6/2
f 4/7/3 35/8/3 3/9/3
f 31/10/4 62/11/4 30/12/4
f 18/13/5 49/14/5 17/15/5
f 5/16/6 36/17/6 4/18/6
f 32/19/7 63/20/7 31/21/7
f 19/22/8 50/23/8 18/24/8
f 6/25/9 37/26/9 5/27/9
f 1/28/10 64/29/10 32/30/10
f 20/31/11 51/32/11 19/33/11
f 7/34/12 38/35/12 6/36/12
f 21/37/13 52/38/13 20/39/13
f 8/40/14 39/41/14 7/42/14
f 22/43/15 53/44/15 21/45/15
f 9/46/16 40/47/16 8/48/16
f 23/49/17 54/50/17 22/51/17
f 10/52/18 41/53/18 9/54/18
f 24/55/19 55/56/19 23/57/19
f 11/58/20 42/59/20 10/60/20
f 25/61/21 56/62/21 24/63/21
f 12/64/22 43/65/22 11/66/22
f 26/67/23 57/68/23 25/69/23
f 13/70/24 44/71/24 12/72/24
f 27/73/25 58/74/25 26/75/25
f 14/76/26 45/77/26 13/78/26
f 28/79/27 59/80/27 27/81/27
f 15/82/28 46/83/28 14/84/28
f 2/85/29 33/86/29 1/87/29
f 29/88/30 60/89/30 28/90/30
f 16/91/31 47/92/31 15/93/31
f 3/94/32 34/95/32 2/96/32
f 30/97/33 61/98/33 29/99/33
f 17/100/34 48/101/34 16/102/34
f 65/103/35 68/104/35 67/105/35
f 68/106/36 71/107/36 67/108/36
f 72/109/37 69/110/37 71/111/37
f 70/112/38 65/113/38 69/114/38
f 71/115/39 65/113/39 67/108/39
f 72/116/40 66/117/40 70/118/40
f 73/119/35 76/120/35 75/121/35
f 75/122/41 80/123/41 79/124/41
f 80/125/37 77/126/37 79/127/37
f 77/128/42 74/129/42 73/130/42
f 79/131/39 73/130/39 75/122/39
f 80/132/40 74/129/40 78/133/40
f 3/134/1 2/135/1 1/136/1
f 1/136/1 32/137/1 31/138/1
f 31/138/43 30/139/43 29/140/43
f 29/140/1 28/141/1 27/1/1
f 27/1/1 26/142/1 23/143/1
f 26/142/1 25/144/1 23/143/1
f 25/144/1 24/145/1 23/143/1
f 23/143/1 22/146/1 19/2/1
f 22/146/1 21/147/1 19/2/1
f 21/147/1 20/148/1 19/2/1
f 19/2/1 18/149/1 17/150/1
f 17/150/1 16/151/1 19/2/1
f 16/151/1 15/152/1 19/2/1
f 15/152/1 14/153/1 13/154/1
f 13/154/43 12/155/43 11/3/43
f 11/3/1 10/156/1 9/157/1
f 9/157/1 8/158/1 7/159/1
f 7/159/1 6/160/1 5/161/1
f 5/161/1 4/162/1 7/159/1
f 4/162/1 3/134/1 7/159/1
f 3/134/1 1/136/1 27/1/1
f 1/136/1 31/138/1 27/1/1
f 31/138/1 29/140/1 27/1/1
f 15/152/1 13/154/1 19/2/1
f 13/154/1 11/3/1 19/2/1
f 11/3/1 9/157/1 3/134/1
f 9/157/1 7/159/1 3/134/1
f 27/1/1 23/143/1 19/2/1
f 3/134/1 27/1/1 11/3/1
f 33/6/2 34/163/2 35/164/2
f 35/164/2 36/165/2 33/6/2
f 36/165/2 37/166/2 33/6/2
f 37/166/2 38/167/2 39/168/2
f 39/168/2 40/169/2 41/170/2
f 41/170/2 42/171/2 45/172/2
f 42/171/2 43/173/2 45/172/2
f 43/173/2 44/174/2 45/172/2
f 45/172/44 46/175/44 47/176/44
f 47/176/2 48/177/2 45/172/2
f 48/177/2 49/4/2 45/172/2
f 49/4/2 50/178/2 51/179/2
f 51/179/2 52/180/2 49/4/2
f 52/180/2 53/181/2 49/4/2
f 53/181/2 54/182/2 57/5/2
f 54/182/2 55/183/2 57/5/2
f 55/183/2 56/184/2 57/5/2
f 57/5/2 58/185/2 59/186/2
f 59/186/2 60/187/2 61/188/2
f 61/188/2 62/189/2 33/6/2
f 62/189/2 63/190/2 33/6/2
f 63/190/2 64/191/2 33/6/2
f 37/166/2 39/168/2 33/6/2
f 39/168/2 41/170/2 33/6/2
f 57/5/2 59/186/2 33/6/2
f 59/186/2 61/188/2 33/6/2
f 41/170/2 45/172/2 33/6/2
f 45/172/2 49/4/2 33/6/2
f 49/4/2 53/181/2 57/5/2
f 4/7/3 36/192/3 35/8/3
f 31/10/4 63/193/4 62/11/4
f 18/13/5 50/194/5 49/14/5
f 5/16/6 37/195/6 36/17/6
f 32/19/45 64/196/45 63/20/45
f 19/22/8 51/197/8 50/23/8
f 6/25/9 38/198/9 37/26/9
f 1/28/46 33/199/46 64/29/46
f 20/31/11 52/200/11 51/32/11
f 7/34/12 39/201/12 38/35/12
f 21/37/13 53/202/13 52/38/13
f 8/40/47 40/203/47 39/41/47
f 22/43/15 54/204/15 53/44/15
f 9/46/48 41/205/48 40/47/48
f 23/49/17 55/206/17 54/50/17
f 10/52/49 42/207/49 41/53/49
f 24/55/50 56/208/50 55/56/50
f 11/58/51 43/209/51 42/59/51
f 25/61/21 57/210/21 56/62/21
f 12/64/52 44/211/52 43/65/52
f 26/67/53 58/212/53 57/68/53
f 13/70/54 45/213/54 44/71/54
f 27/73/25 59/214/25 58/74/25
f 14/76/55 46/215/55 45/77/55
f 28/79/27 60/216/27 59/80/27
f 15/82/28 47/217/28 46/83/28
f 2/85/29 34/218/29 33/86/29
f 29/88/56 61/219/56 60/89/56
f 16/91/57 48/220/57 47/92/57
f 3/94/32 35/221/32 34/95/32
f 30/97/33 62/222/33 61/98/33
f 17/100/58 49/223/58 48/101/58
f 65/103/35 66/224/35 68/104/35
f 68/106/59 72/225/59 71/107/59
f 72/109/37 70/226/37 69/110/37
f 70/112/60 66/117/60 65/113/60
f 71/115/39 69/227/39 65/113/39
f 72/116/40 68/106/40 66/117/40
f 73/119/35 74/228/35 76/120/35
f 75/122/36 76/229/36 80/123/36
f 80/125/37 78/230/37 77/126/37
f 77/128/60 78/231/60 74/129/60
f 79/131/39 77/232/39 73/130/39
f 80/132/40 76/229/40 74/129/40
