# Blender v2.79 (sub 0) OBJ File: 'DHD_separated.blend'
# www.blender.org
o 16_DHD_symbols_outer_Cylinder.018
v -0.218056 0.892033 -0.293186
v -0.157261 0.875211 -0.321267
v -0.118805 0.867496 -0.334024
v -0.182318 0.881409 -0.310952
v -0.310224 0.773537 -0.379163
v -0.222311 0.748874 -0.420274
v -0.166328 0.737960 -0.438373
v -0.199634 0.823481 -0.364505
v -0.225746 0.822889 -0.359863
v -0.181965 0.825757 -0.366001
v -0.183344 0.828786 -0.363069
v -0.171643 0.836013 -0.359039
v -0.170249 0.833708 -0.361338
v -0.191069 0.821404 -0.368021
v -0.192915 0.824863 -0.364621
v -0.199063 0.819148 -0.368421
v -0.222492 0.818617 -0.364255
v -0.234149 0.823203 -0.357925
v -0.233042 0.824302 -0.357180
v -0.202856 0.799229 -0.385154
v -0.202361 0.793633 -0.390163
v -0.198008 0.799828 -0.385586
v -0.198913 0.797024 -0.387869
v -0.194302 0.784884 -0.399436
v -0.203387 0.785668 -0.396952
v -0.160449 0.836354 -0.360953
v -0.158866 0.837956 -0.359861
v -0.156425 0.837209 -0.360997
v -0.159233 0.834368 -0.362937
v -0.168725 0.836354 -0.359317
v -0.168435 0.835875 -0.359795
v -0.165965 0.842205 -0.354727
v -0.168014 0.843704 -0.353006
v -0.157875 0.843182 -0.355469
v -0.161636 0.843547 -0.354405
v -0.161665 0.845672 -0.352534
v -0.155943 0.845116 -0.354154
v -0.157283 0.842242 -0.356411
v -0.154406 0.842677 -0.356597
vt 0.922201 0.186321
vt 0.923723 0.178712
vt 0.935467 0.198718
vt 0.928337 0.220435
vt 0.914236 0.217844
vt 0.918252 0.212451
vt 0.915309 0.206989
vt 0.909015 0.208158
vt 0.916431 0.180024
vt 0.920685 0.186593
vt 0.905034 0.143284
vt 0.914241 0.142690
vt 0.901035 0.116453
vt 0.911773 0.115094
vt 0.901689 0.094364
vt 0.919784 0.035348
vt 0.913690 0.097014
vt 0.851862 0.066157
vt 0.849421 0.078827
vt 0.842715 0.073930
vt 0.836564 0.062129
vt 0.806582 0.074028
vt 0.816231 0.052073
vt 0.941688 0.010547
vt 0.943688 0.014347
vt 0.933855 0.031240
vt 0.941161 0.195008
vt 0.941110 0.212718
vt 0.934866 0.226485
vt 0.931329 0.219840
vt 0.935432 0.210790
vt 0.927101 0.228030
vt 0.758207 0.791518
vt 0.670586 0.919769
vt 0.141427 0.303469
vt 0.019751 0.485710
vt 0.405365 0.023757
vt 0.836761 0.704186
vt 0.940958 0.598230
vn -0.1470 0.6525 -0.7434
vn -0.1474 0.6526 -0.7432
vn -0.1472 0.6522 -0.7436
vn -0.1468 0.6525 -0.7434
vn -0.1469 0.6524 -0.7435
vn -0.1470 0.6527 -0.7433
vn -0.1470 0.6526 -0.7433
vn -0.1469 0.6527 -0.7433
vn -0.1470 0.6524 -0.7435
vn -0.1469 0.6525 -0.7434
vn -0.1471 0.6524 -0.7435
vn -0.1467 0.6528 -0.7432
vn -0.1470 0.6524 -0.7434
vn -0.1470 0.6529 -0.7430
vn -0.1466 0.6528 -0.7432
vn -0.1472 0.6528 -0.7431
vn -0.1466 0.6527 -0.7433
vn -0.1473 0.6524 -0.7434
vn -0.1469 0.6525 -0.7435
vn -0.1473 0.6525 -0.7433
vn -0.1310 0.6524 -0.7464
vn -0.1183 0.6494 -0.7512
vn -0.1376 0.6527 -0.7450
vn -0.1168 0.6487 -0.7520
vn -0.1614 0.6572 -0.7362
vn -0.1558 0.6577 -0.7370
vn -0.1672 0.6609 -0.7316
s off
f 30/1/1 12/2/2 32/3/3
f 38/4/4 28/5/4 27/6/4
f 26/7/5 27/6/5 28/5/5
f 28/5/6 29/8/6 26/7/6
f 29/8/7 13/9/7 31/10/7
f 26/7/8 29/8/8 31/10/8
f 13/9/1 10/11/1 11/12/1
f 10/11/9 14/13/9 15/14/9
f 11/12/1 10/11/1 15/14/1
f 14/13/5 16/15/5 15/14/5
f 16/15/1 17/16/1 8/17/1
f 20/18/5 22/19/5 23/20/5
f 20/18/5 23/20/5 21/21/5
f 23/20/1 24/22/1 21/21/1
f 24/22/1 25/23/1 21/21/1
f 21/21/10 18/24/10 17/16/10
f 18/24/1 19/25/1 9/26/1
f 17/16/9 18/24/9 9/26/9
f 17/16/11 20/18/11 21/21/11
f 33/27/5 36/28/5 32/3/12
f 36/28/13 37/29/13 34/30/13
f 35/31/1 36/28/1 34/30/1
f 37/29/5 39/32/5 34/30/5
f 39/32/8 38/4/8 34/30/8
f 17/16/9 9/26/9 8/17/9
f 31/10/7 13/9/7 12/2/14
f 12/2/15 13/9/7 11/12/7
f 30/1/1 31/10/1 12/2/16
f 16/15/1 8/17/1 15/14/1
f 36/28/1 35/31/1 32/3/17
f 12/2/18 33/27/19 32/3/20
f 38/4/10 39/32/10 28/5/10
s 1
f 2/33/21 3/34/22 6/35/23
f 7/36/24 6/35/23 3/34/22
f 6/35/23 5/37/25 4/38/26
f 2/33/21 6/35/23 4/38/26
f 5/37/25 1/39/27 4/38/26
