# Blender v2.79 (sub 0) OBJ File: 'DHD_separated.blend'
# www.blender.org
o 33_DHD_symbols_outer_Cylinder.053
v -0.189585 1.088260 -0.118631
v -0.166201 1.064814 -0.157652
v -0.283004 0.980171 -0.199685
v -0.295168 0.989222 -0.184624
v -0.300908 0.993949 -0.176755
v -0.322846 1.020120 -0.133200
v -0.282374 1.026778 -0.151138
v -0.255125 1.015049 -0.177309
v -0.235196 1.066900 -0.125061
v -0.241369 1.044028 -0.149292
v -0.205884 1.055634 -0.151619
v -0.232811 1.067653 -0.125248
v -0.252745 1.015821 -0.177473
v -0.257245 1.018817 -0.171900
v -0.255634 1.019339 -0.172011
v -0.230769 1.063852 -0.130663
v -0.232381 1.063342 -0.130536
v -0.246958 1.038656 -0.153112
v -0.251722 1.034779 -0.155539
v -0.236555 1.047877 -0.146920
v -0.212562 1.055725 -0.148494
v -0.275668 1.026747 -0.154204
v -0.176405 1.057419 -0.161324
v -0.177198 1.075840 -0.139301
vt 0.952367 0.056626
vt 0.976444 0.021542
vt 0.976444 0.223417
vt 0.975106 0.225174
vt 0.806982 0.155282
vt 0.951748 0.195789
vt 0.807167 0.146402
vt 0.761272 0.152138
vt 0.756000 0.148120
vt 0.803313 0.142213
vt 0.755721 0.161655
vt 0.803120 0.151360
vt 0.952366 0.193121
vt 0.760999 0.165265
vt 0.975106 0.029354
vt 0.951747 0.063386
vt 0.089961 0.375568
vt 0.139320 0.304288
vt 0.603872 0.876401
vt 0.768128 0.763014
vt 0.667152 0.918946
vt 0.406126 0.021720
vt 0.928871 0.594335
vt 0.014801 0.487109
vn -0.2803 0.7326 -0.6202
vn -0.2802 0.7327 -0.6202
vn -0.2803 0.7327 -0.6202
vn -0.2802 0.7327 -0.6201
vn -0.2804 0.7327 -0.6201
vn -0.2805 0.7326 -0.6201
vn -0.2803 0.7326 -0.6203
vn -0.2804 0.7328 -0.6200
vn -0.2804 0.7326 -0.6202
vn -0.2803 0.7327 -0.6201
vn -0.2824 0.7115 -0.6434
vn -0.2955 0.7296 -0.6168
vn -0.3018 0.7263 -0.6176
vn -0.3034 0.7255 -0.6177
vn -0.3037 0.7376 -0.6031
vn -0.2786 0.7071 -0.6499
s off
f 21/1/1 11/2/1 10/3/1
f 18/4/2 15/5/2 19/6/2
f 14/7/3 15/5/3 8/8/3
f 12/9/4 21/1/4 16/10/4
f 10/3/3 9/11/3 17/12/3
f 9/11/3 12/9/3 17/12/3
f 10/3/5 17/12/5 20/13/5
f 12/9/6 16/10/6 17/12/6
f 20/13/7 21/1/7 10/3/7
f 18/4/3 13/14/3 15/5/3
f 7/15/1 18/4/1 22/16/1
f 18/4/8 19/6/8 22/16/8
f 13/14/3 8/8/3 15/5/3
f 8/8/4 7/15/4 22/16/4
f 14/7/9 8/8/9 22/16/9
f 12/9/10 11/2/10 21/1/10
s 1
f 4/17/11 5/18/12 23/19/13
f 23/19/13 24/20/14 2/21/14
f 5/18/12 6/22/15 23/19/13
f 6/22/15 1/23/14 23/19/13
f 1/23/14 24/20/14 23/19/13
f 23/19/13 3/24/16 4/17/11
