# Blender v2.79 (sub 0) OBJ File: 'DHD_separated.blend'
# www.blender.org
o 10_DHD_symbols_outer_Cylinder.012
v -0.218998 1.225149 0.261210
v -0.274658 1.201195 0.221260
v -0.304391 1.184913 0.194247
v -0.253094 1.211352 0.238165
v -0.308674 1.246414 0.407836
v -0.389732 1.211863 0.350268
v -0.432481 1.188081 0.310753
v -0.321665 1.199399 0.240738
v -0.321518 1.200274 0.243571
v -0.334310 1.202311 0.261099
v -0.326784 1.206702 0.269675
v -0.325436 1.210346 0.280864
v -0.312980 1.212739 0.278584
v -0.311246 1.217422 0.292967
v -0.315958 1.217468 0.297041
v -0.314205 1.222204 0.311585
v -0.310235 1.224710 0.316750
v -0.302393 1.226216 0.315314
v -0.301302 1.229165 0.324371
v -0.295737 1.228481 0.317429
v -0.299042 1.227847 0.318034
v -0.299894 1.225544 0.310964
v -0.308600 1.223872 0.312558
v -0.309698 1.220905 0.303446
v -0.300858 1.220785 0.295687
v -0.305744 1.219083 0.293999
v -0.306847 1.216100 0.284840
v -0.303542 1.215669 0.280633
v -0.318085 1.210323 0.274670
v -0.330115 1.203232 0.260723
v -0.317640 1.201294 0.243794
vt 0.799158 0.063951
vt 0.823600 0.080884
vt 0.795727 0.081059
vt 0.982781 0.193842
vt 0.986954 0.209717
vt 0.979142 0.204992
vt 0.899861 0.179934
vt 0.869848 0.159142
vt 0.895374 0.148076
vt 0.889976 0.127884
vt 0.851393 0.101154
vt 0.834740 0.108088
vt 0.785558 0.062128
vt 0.921397 0.202852
vt 0.915721 0.213971
vt 0.773934 0.025621
vt 0.799603 0.020675
vt 0.794262 0.028966
vt 0.855171 0.068052
vt 0.854544 0.084242
vt 0.879115 0.101263
vt 0.798229 0.042451
vt 0.813226 0.042105
vt 0.894595 0.098452
vt 0.761954 0.789734
vt 0.668613 0.916196
vt 0.140909 0.304510
vt 0.404543 0.026118
vt 0.829189 0.706872
vt 0.939758 0.596651
vt 0.020102 0.488338
vn -0.2298 0.9332 -0.2762
vn -0.2297 0.9332 -0.2763
vn -0.2299 0.9332 -0.2762
vn -0.2297 0.9333 -0.2761
vn -0.2298 0.9332 -0.2761
vn -0.2299 0.9332 -0.2763
vn -0.2297 0.9332 -0.2762
vn -0.2325 0.9301 -0.2843
vn -0.2420 0.9253 -0.2922
vn -0.2291 0.9324 -0.2795
vn -0.2119 0.9410 -0.2639
vn -0.2142 0.9391 -0.2686
vn -0.2046 0.9431 -0.2619
vn -0.2436 0.9246 -0.2929
s off
f 23/1/1 24/2/1 16/3/1
f 31/4/2 8/5/2 9/6/2
f 11/7/1 12/8/1 29/9/1
f 12/8/3 13/10/3 29/9/3
f 14/11/3 15/12/3 24/2/3
f 15/12/1 16/3/1 24/2/1
f 16/3/1 17/13/1 23/1/1
f 31/4/4 9/6/4 30/14/4
f 9/6/4 10/15/4 30/14/4
f 19/16/5 20/17/5 21/18/5
f 24/2/1 25/19/1 26/20/1
f 24/2/1 26/20/1 14/11/1
f 26/20/1 27/21/1 14/11/1
f 29/9/6 30/14/6 11/7/6
f 30/14/7 10/15/7 11/7/7
f 18/22/3 19/16/3 21/18/3
f 18/22/1 21/18/1 22/23/1
f 28/24/2 29/9/2 13/10/2
f 27/21/1 28/24/1 13/10/1
f 27/21/1 13/10/1 14/11/1
f 17/13/3 18/22/3 23/1/3
f 18/22/3 22/23/3 23/1/3
s 1
f 2/25/8 3/26/9 6/27/10
f 6/27/10 5/28/11 4/29/12
f 5/28/11 1/30/13 4/29/12
f 3/26/9 7/31/14 6/27/10
f 6/27/10 4/29/12 2/25/8
