# Blender v2.79 (sub 0) OBJ File: 'DHD_separated.blend'
# www.blender.org
o 12_DHD_symbols_outer_Cylinder.014
v -0.371909 1.121068 0.087991
v -0.387138 1.084556 0.027142
v -0.391178 1.062292 -0.009830
v -0.382267 1.099396 0.051839
v -0.526661 1.099033 0.162552
v -0.549268 1.046116 0.074420
v -0.554601 1.013816 0.020729
v -0.514828 1.054718 0.055084
v -0.514088 1.058269 0.060903
v -0.503192 1.060816 0.057966
v -0.504413 1.054945 0.048343
v -0.477802 1.067833 0.053051
v -0.475456 1.070577 0.056330
v -0.470528 1.068269 0.048837
v -0.477497 1.066268 0.050051
v -0.506283 1.052002 0.044381
v -0.473640 1.075012 0.062987
v -0.472691 1.079572 0.070460
v -0.466965 1.076572 0.061187
v -0.459830 1.079783 0.062013
v -0.459386 1.081913 0.065503
v -0.454286 1.083104 0.064128
v -0.454741 1.080918 0.060544
v -0.448452 1.082169 0.058459
v -0.447134 1.088500 0.068836
v -0.451022 1.087591 0.069884
v -0.437915 1.096983 0.077627
v -0.426418 1.095536 0.067161
v -0.412477 1.103849 0.072409
v -0.408704 1.100113 0.063162
v -0.426806 1.091058 0.059447
v -0.432900 1.094121 0.069086
v -0.441533 1.092103 0.071413
v -0.443352 1.083362 0.057085
vt 0.840614 0.086223
vt 0.875844 0.206380
vt 0.862559 0.207024
vt 0.845066 0.154950
vt 0.845066 0.104940
vt 0.882511 0.154950
vt 0.845647 0.154950
vt 0.867375 0.185705
vt 0.845066 0.185705
vt 0.893242 0.143463
vt 0.954450 0.101555
vt 0.940038 0.132396
vt 0.821857 0.076906
vt 0.865310 0.041265
vt 0.891793 0.045974
vt 0.884407 0.094004
vt 0.891793 0.217662
vt 0.860812 0.237897
vt 0.867373 0.154950
vt 0.993165 0.209526
vt 0.982534 0.234046
vt 0.931030 0.208243
vt 0.922927 0.226932
vt 0.922042 0.173896
vt 0.937981 0.018195
vt 0.987452 0.014985
vt 0.993165 0.117605
vt 0.757926 0.792767
vt 0.670377 0.916595
vt 0.148602 0.293390
vt 0.406625 0.023365
vt 0.827361 0.706850
vt 0.936636 0.595904
vt 0.020401 0.485823
vn -0.3183 0.8267 -0.4639
vn -0.3183 0.8267 -0.4640
vn -0.3184 0.8267 -0.4640
vn -0.3183 0.8268 -0.4639
vn -0.3182 0.8267 -0.4640
vn -0.3184 0.8267 -0.4638
vn -0.3284 0.8307 -0.4495
vn -0.3298 0.8240 -0.4608
vn -0.3287 0.8336 -0.4439
vn -0.3259 0.8457 -0.4226
vn -0.3250 0.8436 -0.4276
vn -0.3221 0.8498 -0.4173
vn -0.3305 0.8229 -0.4622
s off
f 11/1/1 12/2/1 15/3/1
f 17/4/2 18/5/2 19/6/2
f 20/7/1 22/8/1 23/9/1
f 27/10/1 28/11/1 32/12/1
f 16/13/3 8/14/3 11/1/3
f 8/14/2 9/15/2 10/16/2
f 11/1/1 8/14/1 10/16/1
f 12/2/1 13/17/1 14/18/1
f 12/2/4 14/18/4 15/3/4
f 15/3/2 16/13/2 11/1/2
f 20/7/5 21/19/5 22/8/5
f 34/20/1 24/21/1 25/22/1
f 25/22/6 26/23/6 33/24/6
f 26/23/6 27/10/6 33/24/6
f 28/11/1 29/25/1 30/26/1
f 33/24/2 34/20/2 25/22/2
f 28/11/1 30/26/1 31/27/1
f 32/12/1 33/24/1 27/10/1
f 28/11/1 31/27/1 32/12/1
s 1
f 2/28/7 3/29/8 6/30/9
f 6/30/9 5/31/10 4/32/11
f 5/31/10 1/33/12 4/32/11
f 3/29/8 7/34/13 6/30/9
f 6/30/9 4/32/11 2/28/7
