# Blender v2.79 (sub 0) OBJ File: 'DHD_separated.blend'
# www.blender.org
o 17_DHD_symbols_outer_Cylinder.020
v -0.052913 0.807270 -0.394421
v -0.070760 0.808346 -0.392827
v -0.027716 0.767435 -0.429221
v -0.033864 0.768017 -0.428493
v -0.067466 0.832613 -0.372337
v -0.068570 0.832679 -0.372239
v -0.060545 0.773520 -0.422801
v -0.075366 0.774413 -0.421477
v -0.069086 0.828884 -0.375444
v -0.081225 0.829615 -0.374359
v -0.077108 0.776677 -0.419489
v -0.075582 0.787912 -0.410002
v -0.073184 0.790490 -0.407903
v -0.057680 0.767573 -0.427963
v -0.076720 0.772248 -0.423265
v -0.038747 0.761939 -0.433470
v -0.038174 0.766161 -0.429905
v -0.055337 0.789414 -0.409498
v -0.059669 0.789676 -0.409111
v -0.024418 0.814772 -0.389134
v -0.025283 0.805924 -0.396618
v -0.053427 0.803479 -0.397622
v -0.074981 0.808601 -0.392450
v -0.077189 0.826349 -0.377288
v -0.081269 0.829293 -0.374632
v -0.077613 0.788036 -0.409820
v -0.077405 0.790745 -0.407526
v -0.069422 0.806056 -0.394822
v -0.071250 0.792583 -0.406200
v -0.060816 0.791954 -0.407132
v -0.083671 0.782589 -0.414216
v -0.077475 0.776088 -0.419975
v -0.086335 0.782338 -0.414328
v -0.058987 0.805427 -0.395755
v -0.083426 0.784390 -0.412696
v -0.085919 0.785406 -0.411737
v -0.105395 0.865228 -0.337798
v -0.033794 0.859148 -0.348000
v 0.009505 0.858078 -0.349698
v -0.062804 0.860956 -0.344991
v -0.150623 0.735232 -0.442912
v -0.046877 0.726120 -0.458143
v 0.015963 0.724866 -0.460167
vt 0.772898 0.074975
vt 0.767766 0.052550
vt 0.775750 0.064578
vt 0.885286 0.047234
vt 0.881638 0.051262
vt 0.858249 0.041658
vt 0.915580 0.136494
vt 0.908665 0.132049
vt 0.922732 0.131858
vt 0.865505 0.105123
vt 0.890982 0.143507
vt 0.878168 0.145294
vt 0.885335 0.156092
vt 0.856443 0.212070
vt 0.839185 0.187287
vt 0.888972 0.080993
vt 0.883187 0.093666
vt 0.881817 0.085628
vt 0.858915 0.100469
vt 0.851573 0.105225
vt 0.885042 0.056391
vt 0.891087 0.055974
vt 0.883597 0.073475
vt 0.880155 0.075705
vt 0.762036 0.081161
vt 0.858910 0.043696
vt 0.851420 0.039830
vt 0.826305 0.056105
vt 0.848987 0.032327
vt 0.809300 0.043788
vt 0.963529 0.176604
vt 0.976119 0.179348
vt 0.976729 0.180266
vt 0.956157 0.193596
vt 0.963334 0.204409
vt 0.961464 0.205623
vt 0.759795 0.790647
vt 0.668292 0.920140
vt 0.150823 0.293310
vt 0.407357 0.022134
vt 0.828996 0.709389
vt 0.942298 0.598242
vt 0.017527 0.486344
vn -0.0291 0.6471 -0.7618
vn -0.0290 0.6471 -0.7619
vn -0.0290 0.6472 -0.7618
vn -0.0291 0.6472 -0.7618
vn -0.0290 0.6470 -0.7620
vn -0.0291 0.6471 -0.7619
vn -0.0291 0.6470 -0.7619
vn -0.0289 0.6472 -0.7618
vn -0.0290 0.6471 -0.7618
vn -0.0290 0.6470 -0.7619
vn -0.0286 0.6472 -0.7618
vn -0.0295 0.6467 -0.7621
vn -0.0289 0.6472 -0.7617
vn -0.0271 0.6391 -0.7687
vn -0.0139 0.6384 -0.7696
vn -0.0333 0.6382 -0.7692
vn -0.0581 0.6384 -0.7675
vn -0.0527 0.6398 -0.7667
vn -0.0648 0.6409 -0.7649
vn -0.0121 0.6379 -0.7700
s off
f 4/1/1 16/2/1 17/3/1
f 33/4/1 31/5/1 32/6/1
f 2/7/2 28/8/2 23/9/2
f 30/10/3 34/11/3 22/12/3
f 34/11/4 1/13/4 22/12/4
f 1/13/3 20/14/3 21/15/3
f 1/13/3 21/15/3 22/12/3
f 27/16/5 29/17/5 13/18/5
f 29/17/6 30/10/6 19/19/6
f 13/18/7 29/17/7 19/19/7
f 30/10/8 22/12/8 18/20/8
f 35/21/4 36/22/4 26/23/4
f 36/22/4 27/16/4 26/23/4
f 13/18/9 12/24/9 27/16/9
f 12/24/8 26/23/8 27/16/8
f 30/10/9 18/20/9 19/19/9
f 18/20/1 4/1/1 17/3/1
f 19/19/8 18/20/8 17/3/8
f 4/1/10 3/25/10 16/2/10
f 11/26/11 12/24/11 8/27/11
f 12/24/3 13/18/3 8/27/3
f 8/27/3 7/28/3 15/29/3
f 7/28/3 14/30/3 15/29/3
f 32/6/12 11/26/12 8/27/12
f 15/29/3 33/4/3 32/6/3
f 33/4/1 36/22/1 35/21/1
f 31/5/1 33/4/1 35/21/1
f 32/6/3 8/27/3 15/29/3
f 24/31/13 25/32/13 10/33/13
f 9/34/1 6/35/1 5/36/1
f 24/31/3 10/33/3 9/34/3
f 29/17/4 27/16/4 28/8/4
f 27/16/8 23/9/8 28/8/8
f 23/9/8 24/31/8 2/7/8
f 24/31/3 9/34/3 2/7/3
f 9/34/4 5/36/4 2/7/4
f 2/7/2 1/13/2 34/11/2
f 2/7/6 34/11/6 28/8/6
s 1
f 38/37/14 39/38/15 42/39/16
f 42/39/16 41/40/17 40/41/18
f 41/40/17 37/42/19 40/41/18
f 39/38/15 43/43/20 42/39/16
f 42/39/16 40/41/18 38/37/14
