# Blender v2.79 (sub 0) OBJ File: 'DHD_separated.blend'
# www.blender.org
o 25_DHD_symbols_outer_Cylinder.064
v 0.192362 1.220413 0.176387
v 0.189769 1.220080 0.172246
v 0.164635 1.227818 0.186954
v 0.165361 1.224880 0.172964
v 0.171187 1.223101 0.169625
v 0.193312 1.217878 0.164616
v 0.190585 1.219045 0.167854
v 0.170159 1.222552 0.165899
v 0.162662 1.224983 0.170902
v 0.159856 1.227332 0.179971
v 0.147871 1.229074 0.177251
v 0.149692 1.227346 0.170349
v 0.143752 1.228341 0.169655
v 0.144159 1.227254 0.164609
v 0.160387 1.221520 0.151423
v 0.165233 1.220437 0.150630
v 0.155865 1.221071 0.144864
v 0.155513 1.222009 0.149218
v 0.142339 1.226537 0.159290
v 0.136564 1.227387 0.158031
v 0.137839 1.222249 0.133562
v 0.143726 1.220963 0.132748
v 0.143913 1.220464 0.130435
v 0.128859 1.223095 0.129227
v 0.128818 1.223441 0.130922
v 0.134665 1.222675 0.132669
v 0.134586 1.229367 0.166042
v 0.145940 1.230168 0.180876
v 0.136205 1.203371 0.072946
v 0.093607 1.217981 0.097260
v 0.156826 1.239466 0.231854
v 0.176010 1.234615 0.223780
v 0.185495 1.231927 0.219305
v 0.229406 1.214575 0.190427
v 0.111541 1.211830 0.087024
v 0.099957 1.220139 0.110779
vt 0.822199 0.192654
vt 0.832293 0.225293
vt 0.779129 0.187793
vt 0.832540 0.024384
vt 0.817442 0.016035
vt 0.850143 0.020144
vt 0.864067 0.009213
vt 0.834546 0.091886
vt 0.848712 0.094607
vt 0.825732 0.123557
vt 0.818842 0.114230
vt 0.788885 0.136429
vt 0.794217 0.179674
vt 0.822120 0.171035
vt 0.901176 0.126396
vt 0.906448 0.108375
vt 0.924904 0.141149
vt 0.907658 0.143673
vt 0.842183 0.189730
vt 0.862251 0.194906
vt 0.864619 0.215761
vt 0.961230 0.204151
vt 0.967049 0.182299
vt 0.976214 0.180958
vt 0.963322 0.215552
vt 0.974243 0.235903
vt 0.967572 0.236534
vt 0.763604 0.120854
vt 0.102119 0.362270
vt 0.143137 0.299316
vt 0.560758 0.847483
vt 0.769929 0.770948
vt 0.672186 0.921310
vt 0.407455 0.020283
vt 0.941642 0.595538
vt 0.017167 0.488997
vn 0.1839 0.9639 -0.1928
vn 0.1838 0.9639 -0.1928
vn 0.1839 0.9638 -0.1928
vn 0.1838 0.9639 -0.1929
vn 0.1839 0.9639 -0.1927
vn 0.1839 0.9638 -0.1929
vn 0.1840 0.9638 -0.1928
vn 0.1839 0.9638 -0.1931
vn 0.1838 0.9639 -0.1926
vn 0.1564 0.9609 -0.2284
vn 0.1835 0.9512 -0.2480
vn 0.1879 0.9519 -0.2422
vn 0.1891 0.9520 -0.2408
vn 0.1983 0.9460 -0.2563
vn 0.1493 0.9631 -0.2239
s off
f 13/1/1 27/2/1 28/3/1
f 2/4/1 1/5/1 7/6/1
f 1/5/2 6/7/2 7/6/2
f 5/8/3 2/4/3 7/6/3
f 8/9/4 9/10/4 4/11/4
f 9/10/4 10/12/4 4/11/4
f 11/13/3 12/14/3 13/1/3
f 15/15/5 16/16/5 17/17/5
f 15/15/3 17/17/3 18/18/3
f 14/19/1 15/15/1 18/18/1
f 14/19/4 18/18/4 19/20/4
f 13/1/1 14/19/1 27/2/1
f 14/19/6 19/20/6 27/2/6
f 19/20/7 20/21/7 27/2/7
f 11/13/1 13/1/1 28/3/1
f 21/22/6 22/23/6 23/24/6
f 21/22/8 23/24/8 26/25/8
f 23/24/3 24/26/3 26/25/3
f 24/26/9 25/27/9 26/25/9
f 5/8/1 7/6/1 8/9/1
f 4/11/3 5/8/3 8/9/3
f 20/21/1 21/22/1 26/25/1
f 3/28/1 4/11/1 10/12/1
f 20/21/3 26/25/3 27/2/3
f 3/28/1 10/12/1 28/3/1
f 10/12/1 11/13/1 28/3/1
s 1
f 32/29/10 33/30/11 36/31/12
f 36/31/12 35/32/13 30/33/13
f 33/30/11 34/34/14 36/31/12
f 34/34/14 29/35/13 36/31/12
f 29/35/13 35/32/13 36/31/12
f 36/31/12 31/36/15 32/29/10
