# Blender v2.79 (sub 0) OBJ File: 'DHD_separated.blend'
# www.blender.org
o 6_DHD_symbols_outer_Cylinder.008
v 0.265098 1.204825 0.227386
v 0.207289 1.227465 0.264982
v 0.169918 1.238739 0.283828
v 0.231318 1.218900 0.250727
v 0.378325 1.216420 0.357917
v 0.294816 1.249445 0.412816
v 0.240333 1.265590 0.439750
v 0.222952 1.239788 0.311610
v 0.258161 1.238201 0.330534
v 0.258752 1.240085 0.337668
v 0.267424 1.236637 0.331420
v 0.258672 1.237561 0.328604
v 0.239448 1.237207 0.313917
v 0.255381 1.233960 0.313454
v 0.295756 1.231439 0.332653
v 0.296600 1.232653 0.337575
v 0.302193 1.230874 0.335131
v 0.311019 1.231020 0.341818
v 0.313631 1.226952 0.329121
v 0.301690 1.229246 0.328969
v 0.298123 1.228526 0.323910
v 0.292649 1.230136 0.325833
v 0.275494 1.230823 0.316304
v 0.274103 1.229515 0.310663
v 0.266902 1.231642 0.313226
v 0.253262 1.232687 0.307429
vt 0.807355 0.058038
vt 0.821730 0.050120
vt 0.822994 0.070176
vt 0.887099 0.159414
vt 0.870444 0.168557
vt 0.870502 0.137966
vt 0.890544 0.155293
vt 0.911422 0.112228
vt 0.945761 0.137138
vt 0.929134 0.140879
vt 0.984466 0.217831
vt 0.953303 0.180721
vt 0.891053 0.095686
vt 0.905683 0.090727
vt 0.838517 0.051373
vt 0.842934 0.067681
vt 0.778667 0.046279
vt 0.802516 0.021003
vt 0.810812 0.075410
vt 0.743854 0.823711
vt 0.673296 0.919640
vt 0.128480 0.315575
vt 0.407812 0.018049
vt 0.817381 0.729195
vt 0.944547 0.597080
vt 0.015779 0.486806
vn 0.1852 0.9462 -0.2652
vn 0.1852 0.9463 -0.2651
vn 0.1852 0.9463 -0.2652
vn 0.1851 0.9463 -0.2652
vn 0.1852 0.9462 -0.2653
vn 0.1852 0.9463 -0.2649
vn 0.1851 0.9463 -0.2651
vn 0.1851 0.9463 -0.2650
vn 0.1852 0.9463 -0.2650
vn 0.1778 0.9526 -0.2467
vn 0.1665 0.9562 -0.2406
vn 0.1836 0.9511 -0.2484
vn 0.2048 0.9439 -0.2590
vn 0.1993 0.9452 -0.2584
vn 0.2091 0.9413 -0.2650
vn 0.1652 0.9568 -0.2394
s off
f 17/1/1 20/2/1 15/3/1
f 9/4/2 10/5/2 11/6/2
f 9/4/2 11/6/2 12/7/2
f 25/8/3 26/9/3 14/10/3
f 26/9/4 8/11/4 13/12/4
f 14/10/2 26/9/2 13/12/2
f 23/13/2 24/14/2 25/8/2
f 20/2/2 21/15/2 15/3/2
f 21/15/4 22/16/4 15/3/4
f 22/16/5 23/13/5 15/3/5
f 23/13/6 25/8/6 14/10/6
f 15/3/3 23/13/3 14/10/3
f 8/11/7 9/4/7 13/12/7
f 9/4/8 12/7/8 13/12/8
f 18/17/7 19/18/7 17/1/7
f 19/18/7 20/2/7 17/1/7
f 15/3/9 16/19/9 17/1/9
s 1
f 2/20/10 3/21/11 6/22/12
f 6/22/12 5/23/13 4/24/14
f 5/23/13 1/25/15 4/24/14
f 3/21/11 7/26/16 6/22/12
f 6/22/12 4/24/14 2/20/10
