# Blender v2.79 (sub 7) OBJ File: 'Universe Gate.blend'
# www.blender.org
o 01_Plane.010
v 4.045236 -0.207265 -0.524242
v 4.026770 -0.207265 -0.542913
v 3.961755 -0.207265 -0.511912
v 3.950610 -0.207265 -0.532591
v 3.971119 -0.207265 -0.516606
v 3.976491 -0.207717 -0.517723
v 3.984917 -0.207605 -0.516933
v 3.999006 -0.207352 -0.514819
v 4.014220 -0.207265 -0.513202
v 4.024942 -0.207265 -0.515474
v 4.036891 -0.207265 -0.519281
v 4.018425 -0.207265 -0.537951
v 4.013733 -0.207265 -0.536376
v 4.004457 -0.207265 -0.533889
v 3.998028 -0.207165 -0.534287
v 3.987744 -0.206749 -0.536971
v 3.976243 -0.207006 -0.539266
v 3.962636 -0.207265 -0.538075
v 4.045227 -0.198927 -0.524191
v 4.026762 -0.198927 -0.542862
v 3.961746 -0.198927 -0.511860
v 3.950601 -0.198927 -0.532540
v 3.971109 -0.198927 -0.516554
v 3.976483 -0.199378 -0.517671
v 3.984908 -0.199266 -0.516882
v 3.998996 -0.199013 -0.514767
v 4.014211 -0.198927 -0.513151
v 4.024934 -0.198927 -0.515423
v 4.036881 -0.198927 -0.519229
v 4.018416 -0.198927 -0.537900
v 4.013725 -0.198927 -0.536325
v 4.004447 -0.198927 -0.533838
v 3.998019 -0.198826 -0.534236
v 3.987735 -0.198410 -0.536920
v 3.976233 -0.198667 -0.539215
v 3.962627 -0.198927 -0.538023
v 3.795058 -0.209162 -0.497328
v 3.796624 -0.209162 -0.494470
v 3.798718 -0.209162 -0.491972
v 3.801258 -0.209162 -0.489931
v 3.804148 -0.209162 -0.488424
v 3.807276 -0.209162 -0.487510
v 3.810523 -0.209162 -0.487224
v 3.813762 -0.209162 -0.487577
v 3.816871 -0.209162 -0.488555
v 3.819730 -0.209162 -0.490121
v 3.822227 -0.209162 -0.492214
v 3.824269 -0.209162 -0.494755
v 3.825775 -0.209162 -0.497645
v 3.826689 -0.209162 -0.500773
v 3.826975 -0.209162 -0.504019
v 3.826622 -0.209162 -0.507259
v 3.825644 -0.209162 -0.510368
v 3.824078 -0.209162 -0.513226
v 3.821985 -0.209162 -0.515724
v 3.819444 -0.209162 -0.517765
v 3.816555 -0.209162 -0.519272
v 3.813426 -0.209162 -0.520186
v 3.810180 -0.209162 -0.520472
v 3.806940 -0.209162 -0.520119
v 3.803831 -0.209162 -0.519141
v 3.800973 -0.209162 -0.517575
v 3.798475 -0.209162 -0.515481
v 3.796434 -0.209162 -0.512941
v 3.794927 -0.209162 -0.510051
v 3.794014 -0.209162 -0.506923
v 3.793728 -0.209162 -0.503676
v 3.794080 -0.209162 -0.500436
v 3.795058 -0.190059 -0.497328
v 3.796624 -0.190059 -0.494470
v 3.798718 -0.190059 -0.491972
v 3.801258 -0.190059 -0.489931
v 3.804148 -0.190059 -0.488424
v 3.807276 -0.190059 -0.487510
v 3.810523 -0.190059 -0.487224
v 3.813762 -0.190059 -0.487577
v 3.816871 -0.190059 -0.488555
v 3.819730 -0.190059 -0.490121
v 3.822227 -0.190059 -0.492214
v 3.824269 -0.190059 -0.494755
v 3.825775 -0.190059 -0.497645
v 3.826689 -0.190059 -0.500773
v 3.826975 -0.190059 -0.504019
v 3.826622 -0.190059 -0.507259
v 3.825644 -0.190059 -0.510368
v 3.824078 -0.190059 -0.513226
v 3.821985 -0.190059 -0.515724
v 3.819444 -0.190059 -0.517765
v 3.816555 -0.190059 -0.519272
v 3.813426 -0.190059 -0.520186
v 3.810180 -0.190059 -0.520472
v 3.806940 -0.190059 -0.520119
v 3.803831 -0.190059 -0.519141
v 3.800973 -0.190059 -0.517575
v 3.798475 -0.190059 -0.515481
v 3.796434 -0.190059 -0.512941
v 3.794927 -0.190059 -0.510051
v 3.794014 -0.190059 -0.506923
v 3.793728 -0.190059 -0.503676
v 3.794080 -0.190059 -0.500436
v 3.743681 -0.217519 -0.487734
v 3.743553 -0.190926 -0.487718
v 3.689801 -0.217783 -0.481052
v 3.689672 -0.191189 -0.481036
v 3.741397 -0.217519 -0.506151
v 3.741269 -0.190926 -0.506135
v 3.687516 -0.217783 -0.499468
v 3.687388 -0.191189 -0.499452
v 3.754357 -0.209162 -0.492761
v 3.755922 -0.209162 -0.489903
v 3.758015 -0.209162 -0.487405
v 3.760556 -0.209162 -0.485364
v 3.763446 -0.209162 -0.483857
v 3.766574 -0.209162 -0.482943
v 3.769821 -0.209162 -0.482657
v 3.773061 -0.209162 -0.483010
v 3.776169 -0.209162 -0.483988
v 3.779027 -0.209162 -0.485554
v 3.781525 -0.209162 -0.487648
v 3.783567 -0.209162 -0.490188
v 3.785073 -0.209162 -0.493078
v 3.785987 -0.209162 -0.496206
v 3.786273 -0.209162 -0.499453
v 3.785920 -0.209162 -0.502693
v 3.784942 -0.209162 -0.505801
v 3.783376 -0.209162 -0.508659
v 3.781283 -0.209162 -0.511157
v 3.778742 -0.209162 -0.513199
v 3.775852 -0.209162 -0.514705
v 3.772724 -0.209162 -0.515619
v 3.769478 -0.209162 -0.515905
v 3.766238 -0.209162 -0.515552
v 3.763129 -0.209162 -0.514574
v 3.760271 -0.209162 -0.513008
v 3.757773 -0.209162 -0.510915
v 3.755732 -0.209162 -0.508374
v 3.754225 -0.209162 -0.505484
v 3.753311 -0.209162 -0.502356
v 3.753026 -0.209162 -0.499110
v 3.753378 -0.209162 -0.495870
v 3.754357 -0.190059 -0.492761
v 3.755922 -0.190059 -0.489903
v 3.758015 -0.190059 -0.487405
v 3.760556 -0.190059 -0.485364
v 3.763446 -0.190059 -0.483857
v 3.766574 -0.190059 -0.482943
v 3.769821 -0.190059 -0.482657
v 3.773061 -0.190059 -0.483010
v 3.776169 -0.190059 -0.483988
v 3.779027 -0.190059 -0.485554
v 3.781525 -0.190059 -0.487648
v 3.783567 -0.190059 -0.490188
v 3.785073 -0.190059 -0.493078
v 3.785987 -0.190059 -0.496206
v 3.786273 -0.190059 -0.499453
v 3.785920 -0.190059 -0.502693
v 3.784942 -0.190059 -0.505801
v 3.783376 -0.190059 -0.508659
v 3.781283 -0.190059 -0.511157
v 3.778742 -0.190059 -0.513199
v 3.775852 -0.190059 -0.514705
v 3.772724 -0.190059 -0.515619
v 3.769478 -0.190059 -0.515905
v 3.766238 -0.190059 -0.515552
v 3.763129 -0.190059 -0.514574
v 3.760271 -0.190059 -0.513008
v 3.757773 -0.190059 -0.510915
v 3.755732 -0.190059 -0.508374
v 3.754225 -0.190059 -0.505484
v 3.753311 -0.190059 -0.502356
v 3.753026 -0.190059 -0.499110
v 3.753378 -0.190059 -0.495870
v 3.906213 -0.209162 -0.512097
v 3.907779 -0.209162 -0.509239
v 3.909872 -0.209162 -0.506741
v 3.912412 -0.209162 -0.504699
v 3.915302 -0.209162 -0.503193
v 3.918431 -0.209162 -0.502279
v 3.921677 -0.209162 -0.501993
v 3.924917 -0.209162 -0.502346
v 3.928025 -0.209162 -0.503324
v 3.930884 -0.209162 -0.504890
v 3.933382 -0.209162 -0.506983
v 3.935423 -0.209162 -0.509524
v 3.936929 -0.209162 -0.512414
v 3.937844 -0.209162 -0.515542
v 3.938129 -0.209162 -0.518788
v 3.937777 -0.209162 -0.522028
v 3.936798 -0.209162 -0.525137
v 3.935232 -0.209162 -0.527995
v 3.933139 -0.209162 -0.530493
v 3.930599 -0.209162 -0.532534
v 3.927709 -0.209162 -0.534041
v 3.924581 -0.209162 -0.534954
v 3.921334 -0.209162 -0.535240
v 3.918094 -0.209162 -0.534888
v 3.914986 -0.209162 -0.533909
v 3.912127 -0.209162 -0.532344
v 3.909630 -0.209162 -0.530250
v 3.907588 -0.209162 -0.527710
v 3.906082 -0.209162 -0.524820
v 3.905168 -0.209162 -0.521692
v 3.904882 -0.209162 -0.518445
v 3.905235 -0.209162 -0.515206
v 3.906213 -0.190059 -0.512097
v 3.907779 -0.190059 -0.509239
v 3.909872 -0.190059 -0.506741
v 3.912412 -0.190059 -0.504699
v 3.915302 -0.190059 -0.503193
v 3.918431 -0.190059 -0.502279
v 3.921677 -0.190059 -0.501993
v 3.924917 -0.190059 -0.502346
v 3.928025 -0.190059 -0.503324
v 3.930884 -0.190059 -0.504890
v 3.933382 -0.190059 -0.506983
v 3.935423 -0.190059 -0.509524
v 3.936929 -0.190059 -0.512414
v 3.937844 -0.190059 -0.515542
v 3.938129 -0.190059 -0.518788
v 3.937777 -0.190059 -0.522028
v 3.936798 -0.190059 -0.525137
v 3.935232 -0.190059 -0.527995
v 3.933139 -0.190059 -0.530493
v 3.930599 -0.190059 -0.532534
v 3.927709 -0.190059 -0.534041
v 3.924581 -0.190059 -0.534955
v 3.921334 -0.190059 -0.535240
v 3.918094 -0.190059 -0.534888
v 3.914986 -0.190059 -0.533909
v 3.912127 -0.190059 -0.532344
v 3.909630 -0.190059 -0.530250
v 3.907588 -0.190059 -0.527710
v 3.906082 -0.190059 -0.524820
v 3.905168 -0.190059 -0.521692
v 3.904882 -0.190059 -0.518445
v 3.905235 -0.190059 -0.515206
v 3.894812 -0.217519 -0.505828
v 3.894685 -0.190926 -0.505812
v 3.840937 -0.217783 -0.499105
v 3.840809 -0.191189 -0.499088
v 3.892514 -0.217519 -0.524243
v 3.892386 -0.190926 -0.524227
v 3.838639 -0.217783 -0.517519
v 3.838511 -0.191189 -0.517503
vn 0.0000 -1.0000 0.0000
vn 0.0060 -1.0000 -0.0028
vn -0.0384 -0.9992 -0.0077
vn 0.0300 -0.9988 -0.0384
vn -0.0902 -0.9954 -0.0318
vn 0.0000 1.0000 0.0000
vn -0.0060 1.0000 0.0028
vn -0.0238 0.9989 0.0393
vn -0.0164 0.9993 0.0332
vn 0.0902 0.9954 0.0318
vn -0.1056 -0.0063 0.9944
vn 0.7110 0.0051 -0.7032
vn 0.1955 0.0062 -0.9807
vn 0.2073 -0.0058 0.9783
vn -0.4149 0.0051 -0.9099
vn -0.0873 0.0061 -0.9962
vn 0.3035 -0.0056 0.9528
vn -0.8803 -0.0039 0.4744
vn -0.5110 0.0048 -0.8596
vn 0.4482 -0.0050 0.8939
vn -0.3183 0.0055 -0.9480
vn 0.2030 -0.0058 0.9792
vn -0.2589 0.0056 -0.9659
vn -0.0932 -0.0062 0.9956
vn 0.0618 0.0062 -0.9981
vn -0.1483 -0.0063 0.9889
vn 0.5110 -0.0047 0.8595
vn 0.2528 0.0062 -0.9675
vn -0.6263 0.0000 0.7795
vn -0.9961 0.0000 -0.0878
vn 0.8770 0.0000 -0.4806
vn -0.4624 0.0000 0.8867
vn -0.9941 0.0000 0.1083
vn 0.7665 0.0000 -0.6422
vn -0.2804 0.0000 0.9599
vn -0.9539 0.0000 0.3001
vn 0.6264 0.0000 -0.7795
vn -0.0878 0.0000 0.9961
vn 0.4623 0.0000 -0.8867
vn 0.1083 0.0000 0.9941
vn 0.2804 0.0000 -0.9599
vn 0.3001 0.0000 0.9539
vn 0.0878 0.0000 -0.9961
vn 0.4805 0.0000 0.8770
vn -0.1083 0.0000 -0.9941
vn 0.6423 0.0000 0.7664
vn -0.3002 0.0000 -0.9539
vn 0.7795 0.0000 0.6264
vn -0.4804 0.0000 -0.8770
vn 0.8867 0.0000 0.4623
vn -0.6423 0.0000 -0.7664
vn 0.9599 0.0000 0.2804
vn -0.7796 0.0000 -0.6263
vn 0.9962 0.0000 0.0876
vn -0.8770 0.0000 0.4805
vn -0.8867 0.0000 -0.4624
vn 0.9941 0.0000 -0.1081
vn -0.7664 0.0000 0.6423
vn -0.9599 0.0000 -0.2803
vn 0.9539 0.0000 -0.3002
vn 0.1231 -0.0000 0.9924
vn -0.9924 -0.0049 0.1231
vn -0.1231 0.0000 -0.9924
vn 0.9924 0.0049 -0.1231
vn 0.0048 -1.0000 -0.0006
vn -0.0048 1.0000 0.0006
vn -0.6264 0.0000 0.7795
vn -0.9961 0.0000 -0.0877
vn 0.8770 0.0000 -0.4805
vn -0.4623 0.0000 0.8867
vn 0.7664 0.0000 -0.6423
vn -0.9539 0.0000 0.3002
vn 0.0877 0.0000 -0.9961
vn -0.1082 0.0000 -0.9941
vn 0.7795 0.0000 0.6265
vn -0.4805 0.0000 -0.8770
vn 0.8868 0.0000 0.4621
vn 0.9598 0.0000 0.2806
vn -0.7795 0.0000 -0.6264
vn -0.8770 0.0000 0.4804
vn -0.8868 0.0000 -0.4622
vn 0.9941 0.0000 -0.1083
vn -0.7665 0.0000 0.6423
vn -0.9599 0.0000 -0.2805
vn 0.9539 0.0000 -0.3000
vn -0.9962 0.0000 -0.0876
vn 0.7664 0.0000 -0.6424
vn 0.6265 0.0000 -0.7794
vn -0.0877 0.0000 0.9961
vn 0.4622 0.0000 -0.8868
vn 0.1082 0.0000 0.9941
vn 0.3002 0.0000 0.9539
vn -0.3001 0.0000 -0.9539
vn 0.8868 0.0000 0.4622
vn -0.6424 0.0000 -0.7664
vn 0.9599 0.0000 0.2805
vn -0.7794 -0.0000 -0.6265
vn 0.9961 0.0000 0.0877
vn -0.8868 0.0000 -0.4621
vn -0.9598 0.0000 -0.2805
vn 0.9539 0.0000 -0.3001
vn 0.1238 0.0000 0.9923
vn -0.9923 -0.0049 0.1238
vn -0.1238 0.0000 -0.9923
vn 0.9923 0.0048 -0.1238
vn -0.0151 -0.9998 -0.0089
vn 0.0238 -0.9989 -0.0393
vn 0.0164 -0.9993 -0.0332
vn 0.0185 -0.9998 -0.0073
vn 0.0151 0.9998 0.0089
vn 0.0384 0.9992 0.0077
vn -0.0300 0.9988 0.0384
vn -0.0185 0.9998 0.0073
vn -0.1056 -0.0062 0.9944
vn 0.1955 0.0063 -0.9807
vn -0.4149 0.0052 -0.9099
vn -0.0874 0.0060 -0.9962
vn 0.3035 -0.0055 0.9528
vn -0.5110 0.0048 -0.8595
vn 0.4481 -0.0051 0.8939
vn -0.3182 0.0055 -0.9480
vn 0.2031 -0.0058 0.9791
vn -0.2589 0.0057 -0.9659
vn -0.0933 -0.0063 0.9956
vn 0.5111 -0.0047 0.8595
vn 0.2528 0.0063 -0.9675
vn 0.9924 0.0048 -0.1231
vn 0.6423 0.0000 0.7665
vn -0.6423 0.0000 -0.7665
vn 0.4804 0.0000 0.8770
vn -0.7795 0.0000 -0.6265
vn 0.9923 0.0049 -0.1238
s off
f 3//1 18//1 5//1
f 11//1 2//1 1//1
f 10//1 12//1 11//1
f 9//1 13//1 10//1
f 8//2 14//2 9//2
f 8//3 16//3 15//3
f 7//4 17//4 16//4
f 5//5 17//5 6//5
f 36//6 21//6 23//6
f 20//6 29//6 19//6
f 30//6 28//6 29//6
f 31//6 27//6 28//6
f 32//7 26//7 27//7
f 26//8 34//8 25//8
f 25//9 35//9 24//9
f 35//10 23//10 24//10
f 8//11 27//11 26//11
f 2//12 19//12 1//12
f 16//13 35//13 34//13
f 9//14 28//14 27//14
f 4//15 36//15 18//15
f 17//16 36//16 35//16
f 10//17 29//17 28//17
f 3//18 22//18 4//18
f 12//19 20//19 2//19
f 3//20 23//20 21//20
f 13//21 30//21 12//21
f 5//22 24//22 23//22
f 14//23 31//23 13//23
f 7//24 24//24 6//24
f 15//25 32//25 14//25
f 8//26 25//26 7//26
f 11//27 19//27 29//27
f 16//28 33//28 15//28
f 41//1 40//1 61//1
f 100//6 69//6 97//6
f 40//29 71//29 39//29
f 67//30 98//30 66//30
f 54//31 85//31 53//31
f 41//32 72//32 40//32
f 68//33 99//33 67//33
f 55//34 86//34 54//34
f 42//35 73//35 41//35
f 37//36 100//36 68//36
f 56//37 87//37 55//37
f 43//38 74//38 42//38
f 57//39 88//39 56//39
f 44//40 75//40 43//40
f 58//41 89//41 57//41
f 45//42 76//42 44//42
f 59//43 90//43 58//43
f 46//44 77//44 45//44
f 60//45 91//45 59//45
f 47//46 78//46 46//46
f 61//47 92//47 60//47
f 48//48 79//48 47//48
f 62//49 93//49 61//49
f 49//50 80//50 48//50
f 63//51 94//51 62//51
f 50//52 81//52 49//52
f 64//53 95//53 63//53
f 51//54 82//54 50//54
f 38//55 69//55 37//55
f 65//56 96//56 64//56
f 52//57 83//57 51//57
f 39//58 70//58 38//58
f 66//59 97//59 65//59
f 53//60 84//60 52//60
f 102//61 103//61 101//61
f 104//62 107//62 103//62
f 107//63 106//63 105//63
f 105//64 102//64 101//64
f 103//65 105//65 101//65
f 104//66 106//66 108//66
f 113//1 112//1 133//1
f 172//6 141//6 169//6
f 112//67 143//67 111//67
f 139//68 170//68 138//68
f 126//69 157//69 125//69
f 113//70 144//70 112//70
f 140//33 171//33 139//33
f 127//71 158//71 126//71
f 114//35 145//35 113//35
f 109//72 172//72 140//72
f 128//37 159//37 127//37
f 115//38 146//38 114//38
f 129//39 160//39 128//39
f 116//40 147//40 115//40
f 130//41 161//41 129//41
f 117//42 148//42 116//42
f 131//73 162//73 130//73
f 118//44 149//44 117//44
f 132//74 163//74 131//74
f 119//46 150//46 118//46
f 133//47 164//47 132//47
f 120//75 151//75 119//75
f 134//76 165//76 133//76
f 121//77 152//77 120//77
f 135//51 166//51 134//51
f 122//78 153//78 121//78
f 136//79 167//79 135//79
f 123//54 154//54 122//54
f 110//80 141//80 109//80
f 136//81 169//81 168//81
f 124//82 155//82 123//82
f 111//83 142//83 110//83
f 138//84 169//84 137//84
f 125//85 156//85 124//85
f 177//1 176//1 197//1
f 236//6 205//6 233//6
f 176//67 207//67 175//67
f 203//86 234//86 202//86
f 190//69 221//69 189//69
f 177//70 208//70 176//70
f 204//33 235//33 203//33
f 191//87 222//87 190//87
f 178//35 209//35 177//35
f 173//36 236//36 204//36
f 192//88 223//88 191//88
f 179//89 210//89 178//89
f 193//90 224//90 192//90
f 180//91 211//91 179//91
f 194//41 225//41 193//41
f 181//92 212//92 180//92
f 195//73 226//73 194//73
f 182//44 213//44 181//44
f 196//45 227//45 195//45
f 183//46 214//46 182//46
f 197//93 228//93 196//93
f 184//48 215//48 183//48
f 198//49 229//49 197//49
f 185//94 216//94 184//94
f 199//95 230//95 198//95
f 186//96 217//96 185//96
f 200//97 231//97 199//97
f 187//98 218//98 186//98
f 174//55 205//55 173//55
f 201//99 232//99 200//99
f 188//82 219//82 187//82
f 175//83 206//83 174//83
f 202//100 233//100 201//100
f 189//101 220//101 188//101
f 238//102 239//102 237//102
f 240//103 243//103 239//103
f 243//104 242//104 241//104
f 241//105 238//105 237//105
f 239//65 241//65 237//65
f 240//66 242//66 244//66
f 3//1 4//1 18//1
f 11//1 12//1 2//1
f 10//1 13//1 12//1
f 9//1 14//1 13//1
f 8//106 15//106 14//106
f 8//107 7//107 16//107
f 7//108 6//108 17//108
f 5//109 18//109 17//109
f 36//6 22//6 21//6
f 20//6 30//6 29//6
f 30//6 31//6 28//6
f 31//6 32//6 27//6
f 32//110 33//110 26//110
f 26//111 33//111 34//111
f 25//112 34//112 35//112
f 35//113 36//113 23//113
f 8//114 9//114 27//114
f 2//12 20//12 19//12
f 16//115 17//115 35//115
f 9//14 10//14 28//14
f 4//116 22//116 36//116
f 17//117 18//117 36//117
f 10//118 11//118 29//118
f 3//18 21//18 22//18
f 12//119 30//119 20//119
f 3//120 5//120 23//120
f 13//121 31//121 30//121
f 5//122 6//122 24//122
f 14//123 32//123 31//123
f 7//124 25//124 24//124
f 15//25 33//25 32//25
f 8//26 26//26 25//26
f 11//125 1//125 19//125
f 16//126 34//126 33//126
f 39//1 38//1 63//1
f 38//1 37//1 64//1
f 63//1 38//1 64//1
f 37//1 68//1 65//1
f 68//1 67//1 66//1
f 65//1 68//1 66//1
f 65//1 64//1 37//1
f 63//1 62//1 39//1
f 62//1 61//1 40//1
f 39//1 62//1 40//1
f 61//1 60//1 41//1
f 60//1 59//1 42//1
f 41//1 60//1 42//1
f 59//1 58//1 43//1
f 58//1 57//1 44//1
f 43//1 58//1 44//1
f 57//1 56//1 45//1
f 56//1 55//1 46//1
f 45//1 56//1 46//1
f 55//1 54//1 47//1
f 54//1 53//1 48//1
f 47//1 54//1 48//1
f 53//1 52//1 49//1
f 52//1 51//1 50//1
f 49//1 52//1 50//1
f 49//1 48//1 53//1
f 47//1 46//1 55//1
f 45//1 44//1 57//1
f 43//1 42//1 59//1
f 69//6 70//6 96//6
f 70//6 71//6 95//6
f 71//6 72//6 94//6
f 72//6 73//6 93//6
f 73//6 74//6 92//6
f 74//6 75//6 91//6
f 73//6 92//6 93//6
f 75//6 76//6 90//6
f 76//6 77//6 89//6
f 75//6 90//6 91//6
f 77//6 78//6 88//6
f 78//6 79//6 87//6
f 79//6 80//6 86//6
f 80//6 81//6 85//6
f 81//6 82//6 84//6
f 82//6 83//6 84//6
f 84//6 85//6 81//6
f 85//6 86//6 80//6
f 86//6 87//6 79//6
f 87//6 88//6 78//6
f 88//6 89//6 77//6
f 89//6 90//6 76//6
f 91//6 92//6 74//6
f 93//6 94//6 72//6
f 94//6 95//6 71//6
f 95//6 96//6 70//6
f 96//6 97//6 69//6
f 97//6 98//6 100//6
f 98//6 99//6 100//6
f 40//67 72//67 71//67
f 67//30 99//30 98//30
f 54//31 86//31 85//31
f 41//32 73//32 72//32
f 68//33 100//33 99//33
f 55//34 87//34 86//34
f 42//35 74//35 73//35
f 37//36 69//36 100//36
f 56//37 88//37 87//37
f 43//38 75//38 74//38
f 57//39 89//39 88//39
f 44//91 76//91 75//91
f 58//41 90//41 89//41
f 45//92 77//92 76//92
f 59//73 91//73 90//73
f 46//44 78//44 77//44
f 60//74 92//74 91//74
f 47//46 79//46 78//46
f 61//93 93//93 92//93
f 48//48 80//48 79//48
f 62//49 94//49 93//49
f 49//50 81//50 80//50
f 63//51 95//51 94//51
f 50//52 82//52 81//52
f 64//53 96//53 95//53
f 51//54 83//54 82//54
f 38//55 70//55 69//55
f 65//56 97//56 96//56
f 52//57 84//57 83//57
f 39//58 71//58 70//58
f 66//59 98//59 97//59
f 53//60 85//60 84//60
f 102//61 104//61 103//61
f 104//62 108//62 107//62
f 107//63 108//63 106//63
f 105//127 106//127 102//127
f 103//65 107//65 105//65
f 104//66 102//66 106//66
f 111//1 110//1 135//1
f 110//1 109//1 136//1
f 135//1 110//1 136//1
f 109//1 140//1 137//1
f 140//1 139//1 138//1
f 137//1 140//1 138//1
f 137//1 136//1 109//1
f 135//1 134//1 111//1
f 134//1 133//1 112//1
f 111//1 134//1 112//1
f 133//1 132//1 113//1
f 132//1 131//1 114//1
f 113//1 132//1 114//1
f 131//1 130//1 115//1
f 130//1 129//1 116//1
f 115//1 130//1 116//1
f 129//1 128//1 117//1
f 128//1 127//1 118//1
f 117//1 128//1 118//1
f 127//1 126//1 119//1
f 126//1 125//1 120//1
f 119//1 126//1 120//1
f 125//1 124//1 121//1
f 124//1 123//1 122//1
f 121//1 124//1 122//1
f 121//1 120//1 125//1
f 119//1 118//1 127//1
f 117//1 116//1 129//1
f 115//1 114//1 131//1
f 141//6 142//6 168//6
f 142//6 143//6 167//6
f 143//6 144//6 166//6
f 144//6 145//6 165//6
f 145//6 146//6 164//6
f 146//6 147//6 163//6
f 145//6 164//6 165//6
f 147//6 148//6 162//6
f 148//6 149//6 161//6
f 147//6 162//6 163//6
f 149//6 150//6 160//6
f 150//6 151//6 159//6
f 151//6 152//6 158//6
f 152//6 153//6 157//6
f 153//6 154//6 156//6
f 154//6 155//6 156//6
f 156//6 157//6 153//6
f 157//6 158//6 152//6
f 158//6 159//6 151//6
f 159//6 160//6 150//6
f 160//6 161//6 149//6
f 161//6 162//6 148//6
f 163//6 164//6 146//6
f 165//6 166//6 144//6
f 166//6 167//6 143//6
f 167//6 168//6 142//6
f 168//6 169//6 141//6
f 169//6 170//6 172//6
f 170//6 171//6 172//6
f 112//29 144//29 143//29
f 139//68 171//68 170//68
f 126//31 158//31 157//31
f 113//70 145//70 144//70
f 140//33 172//33 171//33
f 127//71 159//71 158//71
f 114//35 146//35 145//35
f 109//72 141//72 172//72
f 128//37 160//37 159//37
f 115//38 147//38 146//38
f 129//90 161//90 160//90
f 116//40 148//40 147//40
f 130//41 162//41 161//41
f 117//42 149//42 148//42
f 131//43 163//43 162//43
f 118//44 150//44 149//44
f 132//74 164//74 163//74
f 119//128 151//128 150//128
f 133//47 165//47 164//47
f 120//75 152//75 151//75
f 134//76 166//76 165//76
f 121//77 153//77 152//77
f 135//129 167//129 166//129
f 122//78 154//78 153//78
f 136//79 168//79 167//79
f 123//54 155//54 154//54
f 110//80 142//80 141//80
f 136//81 137//81 169//81
f 124//82 156//82 155//82
f 111//83 143//83 142//83
f 138//84 170//84 169//84
f 125//85 157//85 156//85
f 175//1 174//1 199//1
f 174//1 173//1 200//1
f 199//1 174//1 200//1
f 173//1 204//1 201//1
f 204//1 203//1 202//1
f 201//1 204//1 202//1
f 201//1 200//1 173//1
f 199//1 198//1 175//1
f 198//1 197//1 176//1
f 175//1 198//1 176//1
f 197//1 196//1 177//1
f 196//1 195//1 178//1
f 177//1 196//1 178//1
f 195//1 194//1 179//1
f 194//1 193//1 180//1
f 179//1 194//1 180//1
f 193//1 192//1 181//1
f 192//1 191//1 182//1
f 181//1 192//1 182//1
f 191//1 190//1 183//1
f 190//1 189//1 184//1
f 183//1 190//1 184//1
f 189//1 188//1 185//1
f 188//1 187//1 186//1
f 185//1 188//1 186//1
f 185//1 184//1 189//1
f 183//1 182//1 191//1
f 181//1 180//1 193//1
f 179//1 178//1 195//1
f 205//6 206//6 232//6
f 206//6 207//6 231//6
f 207//6 208//6 230//6
f 208//6 209//6 229//6
f 209//6 210//6 228//6
f 210//6 211//6 227//6
f 209//6 228//6 229//6
f 211//6 212//6 226//6
f 212//6 213//6 225//6
f 211//6 226//6 227//6
f 213//6 214//6 224//6
f 214//6 215//6 223//6
f 215//6 216//6 222//6
f 216//6 217//6 221//6
f 217//6 218//6 220//6
f 218//6 219//6 220//6
f 220//6 221//6 217//6
f 221//6 222//6 216//6
f 222//6 223//6 215//6
f 223//6 224//6 214//6
f 224//6 225//6 213//6
f 225//6 226//6 212//6
f 227//6 228//6 210//6
f 229//6 230//6 208//6
f 230//6 231//6 207//6
f 231//6 232//6 206//6
f 232//6 233//6 205//6
f 233//6 234//6 236//6
f 234//6 235//6 236//6
f 176//67 208//67 207//67
f 203//86 235//86 234//86
f 190//69 222//69 221//69
f 177//70 209//70 208//70
f 204//33 236//33 235//33
f 191//87 223//87 222//87
f 178//35 210//35 209//35
f 173//36 205//36 236//36
f 192//88 224//88 223//88
f 179//89 211//89 210//89
f 193//39 225//39 224//39
f 180//40 212//40 211//40
f 194//41 226//41 225//41
f 181//92 213//92 212//92
f 195//43 227//43 226//43
f 182//130 214//130 213//130
f 196//45 228//45 227//45
f 183//128 215//128 214//128
f 197//93 229//93 228//93
f 184//48 216//48 215//48
f 198//49 230//49 229//49
f 185//94 217//94 216//94
f 199//95 231//95 230//95
f 186//96 218//96 217//96
f 200//131 232//131 231//131
f 187//98 219//98 218//98
f 174//55 206//55 205//55
f 201//81 233//81 232//81
f 188//82 220//82 219//82
f 175//58 207//58 206//58
f 202//100 234//100 233//100
f 189//60 221//60 220//60
f 238//102 240//102 239//102
f 240//103 244//103 243//103
f 243//104 244//104 242//104
f 241//132 242//132 238//132
f 239//65 243//65 241//65
f 240//66 238//66 242//66
