# Blender v2.79 (sub 7) OBJ File: 'Universe Gate.blend'
# www.blender.org
o 03_Cube.001
v 3.666036 -0.213744 -1.600006
v 3.666155 -0.187150 -1.600056
v 3.716083 -0.214007 -1.621055
v 3.716202 -0.187414 -1.621105
v 3.673230 -0.213744 -1.582900
v 3.673349 -0.187150 -1.582950
v 3.723278 -0.214007 -1.603949
v 3.723397 -0.187414 -1.603999
v 3.445761 -0.213744 -1.507365
v 3.445880 -0.187150 -1.507415
v 3.495809 -0.214007 -1.528414
v 3.495928 -0.187414 -1.528464
v 3.452955 -0.213744 -1.490259
v 3.453074 -0.187150 -1.490309
v 3.503003 -0.214007 -1.511307
v 3.503122 -0.187414 -1.511358
v 3.571776 -0.206451 -1.550297
v 3.570224 -0.206451 -1.553164
v 3.568143 -0.206451 -1.555671
v 3.565613 -0.206451 -1.557725
v 3.562730 -0.206451 -1.559246
v 3.559607 -0.206451 -1.560175
v 3.556362 -0.206451 -1.560477
v 3.553120 -0.206451 -1.560140
v 3.550006 -0.206451 -1.559177
v 3.547141 -0.206451 -1.557625
v 3.544633 -0.206451 -1.555544
v 3.542579 -0.206451 -1.553014
v 3.541058 -0.206451 -1.550131
v 3.540129 -0.206451 -1.547007
v 3.539827 -0.206451 -1.543762
v 3.540165 -0.206451 -1.540521
v 3.541127 -0.206451 -1.537407
v 3.542680 -0.206451 -1.534542
v 3.544760 -0.206451 -1.532034
v 3.547291 -0.206451 -1.529980
v 3.550173 -0.206451 -1.528459
v 3.553297 -0.206451 -1.527530
v 3.556542 -0.206451 -1.527228
v 3.559783 -0.206451 -1.527565
v 3.562897 -0.206451 -1.528528
v 3.565763 -0.206451 -1.530080
v 3.568271 -0.206451 -1.532161
v 3.570324 -0.206451 -1.534691
v 3.571845 -0.206451 -1.537574
v 3.572774 -0.206451 -1.540697
v 3.573076 -0.206451 -1.543943
v 3.572739 -0.206451 -1.547184
v 3.571776 -0.187348 -1.550297
v 3.570224 -0.187348 -1.553163
v 3.568143 -0.187348 -1.555671
v 3.565613 -0.187348 -1.557725
v 3.562730 -0.187348 -1.559246
v 3.559607 -0.187348 -1.560175
v 3.556361 -0.187348 -1.560477
v 3.553120 -0.187348 -1.560140
v 3.550007 -0.187348 -1.559177
v 3.547141 -0.187348 -1.557625
v 3.544633 -0.187348 -1.555544
v 3.542579 -0.187348 -1.553014
v 3.541058 -0.187348 -1.550131
v 3.540129 -0.187348 -1.547007
v 3.539827 -0.187348 -1.543762
v 3.540164 -0.187348 -1.540521
v 3.541127 -0.187348 -1.537407
v 3.542679 -0.187348 -1.534542
v 3.544760 -0.187348 -1.532034
v 3.547291 -0.187348 -1.529980
v 3.550173 -0.187348 -1.528459
v 3.553297 -0.187348 -1.527530
v 3.556542 -0.187348 -1.527228
v 3.559783 -0.187348 -1.527565
v 3.562897 -0.187348 -1.528528
v 3.565763 -0.187348 -1.530080
v 3.568270 -0.187348 -1.532161
v 3.570324 -0.187348 -1.534691
v 3.571845 -0.187348 -1.537574
v 3.572774 -0.187348 -1.540697
v 3.573076 -0.187348 -1.543942
v 3.572739 -0.187348 -1.547184
v 3.663951 -0.206368 -1.589064
v 3.662399 -0.206368 -1.591929
v 3.660318 -0.206368 -1.594437
v 3.657787 -0.206368 -1.596491
v 3.654905 -0.206368 -1.598012
v 3.651782 -0.206368 -1.598941
v 3.648537 -0.206368 -1.599243
v 3.645295 -0.206368 -1.598906
v 3.642181 -0.206368 -1.597943
v 3.639316 -0.206368 -1.596391
v 3.636808 -0.206368 -1.594310
v 3.634754 -0.206368 -1.591780
v 3.633233 -0.206368 -1.588897
v 3.632304 -0.206368 -1.585773
v 3.632002 -0.206368 -1.582528
v 3.632339 -0.206368 -1.579287
v 3.633302 -0.206368 -1.576173
v 3.634854 -0.206368 -1.573308
v 3.636935 -0.206368 -1.570800
v 3.639466 -0.206368 -1.568746
v 3.642348 -0.206368 -1.567225
v 3.645471 -0.206368 -1.566296
v 3.648717 -0.206368 -1.565994
v 3.651958 -0.206368 -1.566331
v 3.655071 -0.206368 -1.567294
v 3.657937 -0.206368 -1.568846
v 3.660446 -0.206368 -1.570927
v 3.662499 -0.206368 -1.573457
v 3.664020 -0.206368 -1.576340
v 3.664949 -0.206368 -1.579464
v 3.665251 -0.206368 -1.582709
v 3.664914 -0.206368 -1.585950
v 3.663951 -0.187265 -1.589064
v 3.662399 -0.187265 -1.591929
v 3.660318 -0.187265 -1.594437
v 3.657787 -0.187265 -1.596491
v 3.654905 -0.187265 -1.598012
v 3.651782 -0.187265 -1.598941
v 3.648536 -0.187265 -1.599243
v 3.645295 -0.187265 -1.598906
v 3.642182 -0.187265 -1.597943
v 3.639316 -0.187265 -1.596391
v 3.636807 -0.187265 -1.594310
v 3.634754 -0.187265 -1.591780
v 3.633233 -0.187265 -1.588897
v 3.632304 -0.187265 -1.585773
v 3.632002 -0.187265 -1.582528
v 3.632339 -0.187265 -1.579287
v 3.633302 -0.187265 -1.576173
v 3.634854 -0.187265 -1.573308
v 3.636935 -0.187265 -1.570800
v 3.639466 -0.187265 -1.568746
v 3.642348 -0.187265 -1.567225
v 3.645471 -0.187265 -1.566296
v 3.648716 -0.187265 -1.565994
v 3.651958 -0.187265 -1.566331
v 3.655071 -0.187265 -1.567294
v 3.657937 -0.187265 -1.568846
v 3.660445 -0.187265 -1.570927
v 3.662499 -0.187265 -1.573457
v 3.664020 -0.187265 -1.576340
v 3.664949 -0.187265 -1.579464
v 3.665251 -0.187265 -1.582709
v 3.664914 -0.187265 -1.585950
v 3.573857 -0.213744 -1.561238
v 3.573976 -0.187150 -1.561288
v 3.623904 -0.214007 -1.582287
v 3.624023 -0.187414 -1.582337
v 3.581051 -0.213744 -1.544132
v 3.581170 -0.187150 -1.544182
v 3.631099 -0.214007 -1.565181
v 3.631217 -0.187414 -1.565231
v 3.535991 -0.206287 -1.535247
v 3.534438 -0.206287 -1.538113
v 3.532357 -0.206287 -1.540621
v 3.529827 -0.206287 -1.542675
v 3.526945 -0.206287 -1.544195
v 3.523821 -0.206287 -1.545125
v 3.520576 -0.206287 -1.545426
v 3.517334 -0.206287 -1.545089
v 3.514221 -0.206287 -1.544126
v 3.511355 -0.206287 -1.542575
v 3.508847 -0.206287 -1.540493
v 3.506793 -0.206287 -1.537963
v 3.505272 -0.206287 -1.535081
v 3.504343 -0.206287 -1.531957
v 3.504041 -0.206287 -1.528712
v 3.504378 -0.206287 -1.525470
v 3.505341 -0.206287 -1.522357
v 3.506893 -0.206287 -1.519491
v 3.508975 -0.206287 -1.516983
v 3.511505 -0.206287 -1.514929
v 3.514387 -0.206287 -1.513409
v 3.517511 -0.206287 -1.512480
v 3.520756 -0.206287 -1.512177
v 3.523997 -0.206287 -1.512515
v 3.527111 -0.206287 -1.513478
v 3.529977 -0.206287 -1.515029
v 3.532485 -0.206287 -1.517110
v 3.534539 -0.206287 -1.519641
v 3.536060 -0.206287 -1.522523
v 3.536989 -0.206287 -1.525647
v 3.537291 -0.206287 -1.528892
v 3.536953 -0.206287 -1.532134
v 3.535991 -0.187184 -1.535247
v 3.534439 -0.187184 -1.538113
v 3.532357 -0.187184 -1.540621
v 3.529827 -0.187184 -1.542675
v 3.526945 -0.187184 -1.544195
v 3.523821 -0.187184 -1.545125
v 3.520576 -0.187184 -1.545426
v 3.517334 -0.187184 -1.545089
v 3.514221 -0.187184 -1.544127
v 3.511355 -0.187184 -1.542575
v 3.508847 -0.187184 -1.540493
v 3.506793 -0.187184 -1.537963
v 3.505272 -0.187184 -1.535081
v 3.504343 -0.187184 -1.531957
v 3.504041 -0.187184 -1.528712
v 3.504379 -0.187184 -1.525470
v 3.505341 -0.187184 -1.522357
v 3.506893 -0.187184 -1.519491
v 3.508974 -0.187184 -1.516983
v 3.511505 -0.187184 -1.514929
v 3.514387 -0.187184 -1.513409
v 3.517511 -0.187184 -1.512479
v 3.520756 -0.187184 -1.512177
v 3.523997 -0.187184 -1.512515
v 3.527111 -0.187184 -1.513478
v 3.529977 -0.187184 -1.515029
v 3.532485 -0.187184 -1.517110
v 3.534539 -0.187184 -1.519641
v 3.536060 -0.187184 -1.522523
v 3.536989 -0.187184 -1.525647
v 3.537291 -0.187184 -1.528892
v 3.536953 -0.187184 -1.532134
vn -0.3877 0.0000 -0.9218
vn 0.9218 -0.0049 -0.3877
vn 0.3877 -0.0000 0.9218
vn -0.9218 0.0049 0.3877
vn -0.0045 -1.0000 0.0019
vn 0.0045 1.0000 -0.0019
vn -0.9218 0.0048 0.3877
vn -0.0000 -1.0000 0.0000
vn -0.0000 1.0000 -0.0000
vn 0.6302 0.0000 -0.7764
vn 0.9957 0.0000 0.0927
vn -0.8794 -0.0000 0.4762
vn 0.4667 -0.0000 -0.8844
vn 0.9946 0.0000 -0.1034
vn -0.7696 0.0000 0.6386
vn 0.2850 0.0000 -0.9585
vn 0.9554 0.0000 -0.2954
vn -0.6302 0.0000 0.7764
vn 0.0927 0.0000 -0.9957
vn -0.4666 0.0000 0.8844
vn -0.1035 0.0000 -0.9946
vn -0.2851 0.0000 0.9585
vn -0.2956 -0.0000 -0.9553
vn -0.0926 0.0000 0.9957
vn -0.4762 0.0000 -0.8793
vn 0.1034 -0.0000 0.9946
vn -0.6385 -0.0000 -0.7697
vn 0.2956 0.0000 0.9553
vn -0.7765 0.0000 -0.6302
vn 0.4762 -0.0000 0.8793
vn -0.8844 0.0000 -0.4667
vn 0.6385 0.0000 0.7696
vn -0.9585 0.0000 -0.2851
vn 0.7764 0.0000 0.6302
vn -0.9957 0.0000 -0.0926
vn 0.8793 0.0000 -0.4762
vn 0.8844 0.0000 0.4667
vn -0.9946 0.0000 0.1035
vn 0.7695 0.0000 -0.6386
vn 0.9585 0.0000 0.2850
vn -0.9554 -0.0000 0.2954
vn 0.6301 0.0000 -0.7765
vn -0.8793 0.0000 0.4762
vn 0.9553 0.0000 -0.2955
vn -0.6301 0.0000 0.7765
vn -0.4666 0.0000 0.8845
vn -0.1034 -0.0000 -0.9946
vn -0.2954 0.0000 -0.9554
vn -0.6386 0.0000 -0.7695
vn 0.2955 0.0000 0.9553
vn -0.7764 0.0000 -0.6302
vn 0.4761 0.0000 0.8794
vn 0.6386 0.0000 0.7695
vn 0.7765 0.0000 0.6302
vn -0.9957 0.0000 -0.0927
vn 0.8794 -0.0000 -0.4761
vn 0.9585 0.0000 0.2851
vn 0.9957 0.0000 0.0926
vn -0.8794 -0.0000 0.4761
vn -0.7695 0.0000 0.6386
vn 0.0926 0.0000 -0.9957
vn -0.0928 -0.0000 0.9957
vn -0.4761 -0.0000 -0.8794
vn 0.1035 0.0000 0.9946
vn 0.2954 0.0000 0.9554
vn -0.7765 0.0000 -0.6301
vn 0.6386 0.0000 0.7696
vn -0.9947 -0.0000 0.1033
vn 0.7696 -0.0000 -0.6385
vn -0.9553 0.0000 0.2956
vn 0.9218 -0.0048 -0.3877
vn -0.8793 -0.0000 0.4763
vn 0.4666 0.0000 -0.8845
vn -0.7697 0.0000 0.6385
vn 0.2851 0.0000 -0.9585
vn -0.1033 -0.0000 -0.9947
vn 0.1033 -0.0000 0.9946
vn 0.4763 0.0000 0.8793
vn 0.8845 -0.0000 0.4666
vn -0.9946 -0.0000 0.1036
vn 0.9554 0.0000 -0.2955
vn -0.0927 0.0000 0.9957
vn -0.6385 0.0000 -0.7696
vn 0.7765 0.0000 0.6301
vn -0.9946 0.0000 0.1034
vn 0.0001 -1.0000 0.0000
vn 0.4666 0.0000 -0.8844
vn -0.4667 0.0000 0.8844
vn -0.2850 -0.0000 0.9585
vn -0.6386 0.0000 -0.7696
vn 0.8793 -0.0000 -0.4763
vn -0.9946 0.0001 0.1035
s off
f 2//1 3//1 1//1
f 4//2 7//2 3//2
f 7//3 6//3 5//3
f 5//4 2//4 1//4
f 3//5 5//5 1//5
f 4//6 6//6 8//6
f 10//1 11//1 9//1
f 12//2 15//2 11//2
f 15//3 14//3 13//3
f 13//7 10//7 9//7
f 11//5 13//5 9//5
f 12//6 14//6 16//6
f 21//8 20//8 41//8
f 80//9 49//9 77//9
f 19//10 52//10 51//10
f 47//11 78//11 46//11
f 33//12 66//12 65//12
f 21//13 52//13 20//13
f 48//14 79//14 47//14
f 34//15 67//15 66//15
f 22//16 53//16 21//16
f 48//17 49//17 80//17
f 36//18 67//18 35//18
f 23//19 54//19 22//19
f 37//20 68//20 36//20
f 24//21 55//21 23//21
f 38//22 69//22 37//22
f 24//23 57//23 56//23
f 39//24 70//24 38//24
f 25//25 58//25 57//25
f 39//26 72//26 71//26
f 27//27 58//27 26//27
f 40//28 73//28 72//28
f 27//29 60//29 59//29
f 42//30 73//30 41//30
f 29//31 60//31 28//31
f 42//32 75//32 74//32
f 30//33 61//33 29//33
f 43//34 76//34 75//34
f 31//35 62//35 30//35
f 18//36 49//36 17//36
f 44//37 77//37 76//37
f 31//38 64//38 63//38
f 18//39 51//39 50//39
f 45//40 78//40 77//40
f 32//41 65//41 64//41
f 85//8 84//8 105//8
f 144//9 113//9 141//9
f 84//42 115//42 83//42
f 110//11 143//11 142//11
f 98//43 129//43 97//43
f 84//13 117//13 116//13
f 112//14 143//14 111//14
f 99//15 130//15 98//15
f 86//16 117//16 85//16
f 81//44 144//44 112//44
f 99//45 132//45 131//45
f 87//19 118//19 86//19
f 101//46 132//46 100//46
f 88//47 119//47 87//47
f 102//22 133//22 101//22
f 88//48 121//48 120//48
f 102//24 135//24 134//24
f 89//25 122//25 121//25
f 103//26 136//26 135//26
f 91//49 122//49 90//49
f 105//50 136//50 104//50
f 92//51 123//51 91//51
f 106//52 137//52 105//52
f 93//31 124//31 92//31
f 106//53 139//53 138//53
f 93//33 126//33 125//33
f 107//54 140//54 139//54
f 95//55 126//55 94//55
f 82//56 113//56 81//56
f 109//37 140//37 108//37
f 95//38 128//38 127//38
f 83//39 114//39 82//39
f 110//57 141//57 109//57
f 97//41 128//41 96//41
f 146//1 147//1 145//1
f 148//2 151//2 147//2
f 151//3 150//3 149//3
f 149//4 146//4 145//4
f 147//5 149//5 145//5
f 148//6 150//6 152//6
f 157//8 156//8 177//8
f 216//9 185//9 213//9
f 155//10 188//10 187//10
f 183//58 214//58 182//58
f 170//59 201//59 169//59
f 157//13 188//13 156//13
f 184//14 215//14 183//14
f 170//60 203//60 202//60
f 158//16 189//16 157//16
f 153//17 216//17 184//17
f 171//45 204//45 203//45
f 159//61 190//61 158//61
f 173//20 204//20 172//20
f 160//47 191//47 159//47
f 173//22 206//22 205//22
f 160//48 193//48 192//48
f 175//62 206//62 174//62
f 161//63 194//63 193//63
f 176//64 207//64 175//64
f 163//49 194//49 162//49
f 177//65 208//65 176//65
f 163//66 196//66 195//66
f 178//30 209//30 177//30
f 165//31 196//31 164//31
f 178//67 211//67 210//67
f 166//33 197//33 165//33
f 180//54 211//54 179//54
f 166//55 199//55 198//55
f 153//36 186//36 185//36
f 181//37 212//37 180//37
f 168//68 199//68 167//68
f 155//69 186//69 154//69
f 182//57 213//57 181//57
f 169//70 200//70 168//70
f 2//1 4//1 3//1
f 4//2 8//2 7//2
f 7//3 8//3 6//3
f 5//4 6//4 2//4
f 3//5 7//5 5//5
f 4//6 2//6 6//6
f 10//1 12//1 11//1
f 12//71 16//71 15//71
f 15//3 16//3 14//3
f 13//7 14//7 10//7
f 11//5 15//5 13//5
f 12//6 10//6 14//6
f 19//8 18//8 43//8
f 18//8 17//8 44//8
f 43//8 18//8 44//8
f 17//8 48//8 45//8
f 48//8 47//8 46//8
f 45//8 48//8 46//8
f 45//8 44//8 17//8
f 43//8 42//8 19//8
f 42//8 41//8 20//8
f 19//8 42//8 20//8
f 41//8 40//8 21//8
f 40//8 39//8 22//8
f 21//8 40//8 22//8
f 39//8 38//8 23//8
f 38//8 37//8 24//8
f 23//8 38//8 24//8
f 37//8 36//8 25//8
f 36//8 35//8 26//8
f 25//8 36//8 26//8
f 35//8 34//8 27//8
f 34//8 33//8 28//8
f 27//8 34//8 28//8
f 33//8 32//8 29//8
f 32//8 31//8 30//8
f 29//8 32//8 30//8
f 29//8 28//8 33//8
f 27//8 26//8 35//8
f 25//8 24//8 37//8
f 23//8 22//8 39//8
f 49//9 50//9 76//9
f 50//9 51//9 75//9
f 51//9 52//9 74//9
f 52//9 53//9 73//9
f 53//9 54//9 72//9
f 54//9 55//9 71//9
f 53//9 72//9 73//9
f 55//9 56//9 70//9
f 56//9 57//9 69//9
f 55//9 70//9 71//9
f 57//9 58//9 68//9
f 58//9 59//9 67//9
f 59//9 60//9 66//9
f 60//9 61//9 65//9
f 61//9 62//9 64//9
f 62//9 63//9 64//9
f 64//9 65//9 61//9
f 65//9 66//9 60//9
f 66//9 67//9 59//9
f 67//9 68//9 58//9
f 68//9 69//9 57//9
f 69//9 70//9 56//9
f 71//9 72//9 54//9
f 73//9 74//9 52//9
f 74//9 75//9 51//9
f 75//9 76//9 50//9
f 76//9 77//9 49//9
f 77//9 78//9 80//9
f 78//9 79//9 80//9
f 19//42 20//42 52//42
f 47//11 79//11 78//11
f 33//72 34//72 66//72
f 21//73 53//73 52//73
f 48//14 80//14 79//14
f 34//74 35//74 67//74
f 22//75 54//75 53//75
f 48//17 17//17 49//17
f 36//18 68//18 67//18
f 23//61 55//61 54//61
f 37//46 69//46 68//46
f 24//76 56//76 55//76
f 38//22 70//22 69//22
f 24//48 25//48 57//48
f 39//24 71//24 70//24
f 25//25 26//25 58//25
f 39//77 40//77 72//77
f 27//49 59//49 58//49
f 40//65 41//65 73//65
f 27//29 28//29 60//29
f 42//78 74//78 73//78
f 29//31 61//31 60//31
f 42//67 43//67 75//67
f 30//33 62//33 61//33
f 43//54 44//54 76//54
f 31//35 63//35 62//35
f 18//36 50//36 49//36
f 44//79 45//79 77//79
f 31//80 32//80 64//80
f 18//69 19//69 51//69
f 45//57 46//57 78//57
f 32//41 33//41 65//41
f 83//8 82//8 107//8
f 82//8 81//8 108//8
f 107//8 82//8 108//8
f 81//8 112//8 109//8
f 112//8 111//8 110//8
f 109//8 112//8 110//8
f 109//8 108//8 81//8
f 107//8 106//8 83//8
f 106//8 105//8 84//8
f 83//8 106//8 84//8
f 105//8 104//8 85//8
f 104//8 103//8 86//8
f 85//8 104//8 86//8
f 103//8 102//8 87//8
f 102//8 101//8 88//8
f 87//8 102//8 88//8
f 101//8 100//8 89//8
f 100//8 99//8 90//8
f 89//8 100//8 90//8
f 99//8 98//8 91//8
f 98//8 97//8 92//8
f 91//8 98//8 92//8
f 97//8 96//8 93//8
f 96//8 95//8 94//8
f 93//8 96//8 94//8
f 93//8 92//8 97//8
f 91//8 90//8 99//8
f 89//8 88//8 101//8
f 87//8 86//8 103//8
f 113//9 114//9 140//9
f 114//9 115//9 139//9
f 115//9 116//9 138//9
f 116//9 117//9 137//9
f 117//9 118//9 136//9
f 118//9 119//9 135//9
f 117//9 136//9 137//9
f 119//9 120//9 134//9
f 120//9 121//9 133//9
f 119//9 134//9 135//9
f 121//9 122//9 132//9
f 122//9 123//9 131//9
f 123//9 124//9 130//9
f 124//9 125//9 129//9
f 125//9 126//9 128//9
f 126//9 127//9 128//9
f 128//9 129//9 125//9
f 129//9 130//9 124//9
f 130//9 131//9 123//9
f 131//9 132//9 122//9
f 132//9 133//9 121//9
f 133//9 134//9 120//9
f 135//9 136//9 118//9
f 137//9 138//9 116//9
f 138//9 139//9 115//9
f 139//9 140//9 114//9
f 140//9 141//9 113//9
f 141//9 142//9 144//9
f 142//9 143//9 144//9
f 84//10 116//10 115//10
f 110//11 111//11 143//11
f 98//72 130//72 129//72
f 84//73 85//73 117//73
f 112//14 144//14 143//14
f 99//74 131//74 130//74
f 86//75 118//75 117//75
f 81//81 113//81 144//81
f 99//45 100//45 132//45
f 87//61 119//61 118//61
f 101//46 133//46 132//46
f 88//21 120//21 119//21
f 102//22 134//22 133//22
f 88//48 89//48 121//48
f 102//82 103//82 135//82
f 89//25 90//25 122//25
f 103//77 104//77 136//77
f 91//83 123//83 122//83
f 105//28 137//28 136//28
f 92//29 124//29 123//29
f 106//52 138//52 137//52
f 93//31 125//31 124//31
f 106//32 107//32 139//32
f 93//33 94//33 126//33
f 107//84 108//84 140//84
f 95//55 127//55 126//55
f 82//36 114//36 113//36
f 109//37 141//37 140//37
f 95//85 96//85 128//85
f 83//69 115//69 114//69
f 110//57 142//57 141//57
f 97//41 129//41 128//41
f 146//1 148//1 147//1
f 148//2 152//2 151//2
f 151//3 152//3 150//3
f 149//4 150//4 146//4
f 147//5 151//5 149//5
f 148//6 146//6 150//6
f 155//8 154//8 179//8
f 154//8 153//8 180//8
f 179//8 154//8 180//8
f 153//8 184//8 181//8
f 184//8 183//8 182//8
f 181//8 184//8 182//8
f 181//8 180//8 153//8
f 179//8 178//8 155//8
f 178//8 177//8 156//8
f 155//8 178//8 156//8
f 177//8 176//8 157//8
f 176//8 175//8 158//8
f 157//8 176//8 158//8
f 175//8 174//8 159//8
f 174//8 173//8 160//8
f 159//8 174//8 160//8
f 173//8 172//8 161//8
f 172//8 171//8 162//8
f 161//8 172//8 162//8
f 171//8 170//8 163//8
f 170//8 169//8 164//8
f 163//8 170//8 164//8
f 169//8 168//8 165//8
f 168//86 167//86 166//86
f 165//8 168//8 166//8
f 165//8 164//8 169//8
f 163//8 162//8 171//8
f 161//8 160//8 173//8
f 159//8 158//8 175//8
f 185//9 186//9 212//9
f 186//9 187//9 211//9
f 187//9 188//9 210//9
f 188//9 189//9 209//9
f 189//9 190//9 208//9
f 190//9 191//9 207//9
f 189//9 208//9 209//9
f 191//9 192//9 206//9
f 192//9 193//9 205//9
f 191//9 206//9 207//9
f 193//9 194//9 204//9
f 194//9 195//9 203//9
f 195//9 196//9 202//9
f 196//9 197//9 201//9
f 197//9 198//9 200//9
f 198//9 199//9 200//9
f 200//9 201//9 197//9
f 201//9 202//9 196//9
f 202//9 203//9 195//9
f 203//9 204//9 194//9
f 204//9 205//9 193//9
f 205//9 206//9 192//9
f 207//9 208//9 190//9
f 209//9 210//9 188//9
f 210//9 211//9 187//9
f 211//9 212//9 186//9
f 212//9 213//9 185//9
f 213//9 214//9 216//9
f 214//9 215//9 216//9
f 155//10 156//10 188//10
f 183//58 215//58 214//58
f 170//43 202//43 201//43
f 157//87 189//87 188//87
f 184//14 216//14 215//14
f 170//60 171//60 203//60
f 158//75 190//75 189//75
f 153//17 185//17 216//17
f 171//18 172//18 204//18
f 159//61 191//61 190//61
f 173//88 205//88 204//88
f 160//47 192//47 191//47
f 173//89 174//89 206//89
f 160//48 161//48 193//48
f 175//24 207//24 206//24
f 161//63 162//63 194//63
f 176//26 208//26 207//26
f 163//90 195//90 194//90
f 177//65 209//65 208//65
f 163//66 164//66 196//66
f 178//30 210//30 209//30
f 165//31 197//31 196//31
f 178//67 179//67 211//67
f 166//33 198//33 197//33
f 180//34 212//34 211//34
f 166//35 167//35 199//35
f 153//91 154//91 186//91
f 181//37 213//37 212//37
f 168//92 200//92 199//92
f 155//39 187//39 186//39
f 182//57 214//57 213//57
f 169//41 201//41 200//41
