# Blender v2.79 (sub 7) OBJ File: 'Universe Gate.blend'
# www.blender.org
o 05_Cube.023
v 2.593303 -0.217519 -2.812699
v 2.593215 -0.190926 -2.812605
v 2.556251 -0.217783 -2.773014
v 2.556162 -0.191189 -2.772920
v 2.579739 -0.217519 -2.825364
v 2.579650 -0.190926 -2.825269
v 2.542687 -0.217783 -2.785679
v 2.542598 -0.191189 -2.785584
v 2.655207 -0.209162 -2.887536
v 2.658242 -0.209162 -2.886348
v 2.661449 -0.209162 -2.885774
v 2.664708 -0.209162 -2.885838
v 2.667891 -0.209162 -2.886535
v 2.670877 -0.209162 -2.887840
v 2.673552 -0.209162 -2.889703
v 2.675811 -0.209162 -2.892052
v 2.677569 -0.209162 -2.894796
v 2.678757 -0.209162 -2.897830
v 2.679331 -0.209162 -2.901038
v 2.679268 -0.209162 -2.904297
v 2.678570 -0.209162 -2.907480
v 2.677265 -0.209162 -2.910467
v 2.675402 -0.209162 -2.913141
v 2.673054 -0.209162 -2.915400
v 2.670309 -0.209162 -2.917158
v 2.667275 -0.209162 -2.918346
v 2.664067 -0.209162 -2.918920
v 2.660808 -0.209162 -2.918857
v 2.657625 -0.209162 -2.918159
v 2.654639 -0.209162 -2.916854
v 2.651964 -0.209162 -2.914991
v 2.649705 -0.209162 -2.912642
v 2.647947 -0.209162 -2.909898
v 2.646759 -0.209162 -2.906864
v 2.646185 -0.209162 -2.903656
v 2.646248 -0.209162 -2.900397
v 2.646946 -0.209162 -2.897214
v 2.648251 -0.209162 -2.894227
v 2.650114 -0.209162 -2.891553
v 2.652462 -0.209162 -2.889294
v 2.655207 -0.190059 -2.887536
v 2.658242 -0.190059 -2.886348
v 2.661449 -0.190059 -2.885774
v 2.664708 -0.190059 -2.885837
v 2.667891 -0.190059 -2.886535
v 2.670877 -0.190059 -2.887840
v 2.673552 -0.190059 -2.889703
v 2.675811 -0.190059 -2.892051
v 2.677569 -0.190059 -2.894796
v 2.678757 -0.190059 -2.897830
v 2.679331 -0.190059 -2.901038
v 2.679268 -0.190059 -2.904297
v 2.678570 -0.190059 -2.907480
v 2.677265 -0.190059 -2.910466
v 2.675402 -0.190059 -2.913141
v 2.673054 -0.190059 -2.915400
v 2.670309 -0.190059 -2.917158
v 2.667275 -0.190059 -2.918346
v 2.664066 -0.190059 -2.918920
v 2.660808 -0.190059 -2.918857
v 2.657625 -0.190059 -2.918159
v 2.654639 -0.190059 -2.916854
v 2.651964 -0.190059 -2.914991
v 2.649705 -0.190059 -2.912643
v 2.647947 -0.190059 -2.909898
v 2.646759 -0.190059 -2.906864
v 2.646185 -0.190059 -2.903656
v 2.646248 -0.190059 -2.900397
v 2.646946 -0.190059 -2.897214
v 2.648251 -0.190059 -2.894228
v 2.650114 -0.190059 -2.891553
v 2.652462 -0.190059 -2.889294
v 2.727544 -0.217519 -2.959125
v 2.727456 -0.190926 -2.959030
v 2.690521 -0.217783 -2.919412
v 2.690433 -0.191189 -2.919317
v 2.713969 -0.217519 -2.971779
v 2.713882 -0.190926 -2.971685
v 2.676947 -0.217783 -2.932066
v 2.676859 -0.191189 -2.931972
v 2.598033 -0.209162 -2.826102
v 2.601068 -0.209162 -2.824914
v 2.604276 -0.209162 -2.824340
v 2.607535 -0.209162 -2.824404
v 2.610718 -0.209162 -2.825101
v 2.613704 -0.209162 -2.826406
v 2.616379 -0.209162 -2.828269
v 2.618638 -0.209162 -2.830618
v 2.620396 -0.209162 -2.833362
v 2.621584 -0.209162 -2.836396
v 2.622158 -0.209162 -2.839604
v 2.622095 -0.209162 -2.842863
v 2.621397 -0.209162 -2.846046
v 2.620092 -0.209162 -2.849033
v 2.618229 -0.209162 -2.851707
v 2.615880 -0.209162 -2.853966
v 2.613136 -0.209162 -2.855724
v 2.610101 -0.209162 -2.856913
v 2.606893 -0.209162 -2.857486
v 2.603636 -0.209162 -2.857423
v 2.600451 -0.209162 -2.856725
v 2.597466 -0.209162 -2.855420
v 2.594791 -0.209162 -2.853557
v 2.592532 -0.209162 -2.851209
v 2.590774 -0.209162 -2.848464
v 2.589586 -0.209162 -2.845430
v 2.589012 -0.209162 -2.842222
v 2.589075 -0.209162 -2.838963
v 2.589772 -0.209162 -2.835780
v 2.591078 -0.209162 -2.832793
v 2.592941 -0.209162 -2.830120
v 2.595289 -0.209162 -2.827860
v 2.598034 -0.190059 -2.826102
v 2.601068 -0.190059 -2.824914
v 2.604276 -0.190059 -2.824340
v 2.607535 -0.190059 -2.824403
v 2.610718 -0.190059 -2.825101
v 2.613704 -0.190059 -2.826406
v 2.616379 -0.190059 -2.828269
v 2.618638 -0.190059 -2.830617
v 2.620395 -0.190059 -2.833362
v 2.621584 -0.190059 -2.836396
v 2.622158 -0.190059 -2.839604
v 2.622095 -0.190059 -2.842863
v 2.621397 -0.190059 -2.846046
v 2.620092 -0.190059 -2.849033
v 2.618229 -0.190059 -2.851707
v 2.615880 -0.190059 -2.853966
v 2.613136 -0.190059 -2.855724
v 2.610102 -0.190059 -2.856912
v 2.606894 -0.190059 -2.857486
v 2.603635 -0.190059 -2.857423
v 2.600451 -0.190059 -2.856725
v 2.597465 -0.190059 -2.855420
v 2.594791 -0.190059 -2.853557
v 2.592532 -0.190059 -2.851209
v 2.590774 -0.190059 -2.848464
v 2.589586 -0.190059 -2.845430
v 2.589012 -0.190059 -2.842222
v 2.589075 -0.190059 -2.838963
v 2.589772 -0.190059 -2.835780
v 2.591078 -0.190059 -2.832793
v 2.592941 -0.190059 -2.830120
v 2.595289 -0.190059 -2.827860
v 2.626236 -0.209162 -2.856818
v 2.629271 -0.209162 -2.855630
v 2.632478 -0.209162 -2.855056
v 2.635737 -0.209162 -2.855119
v 2.638920 -0.209162 -2.855817
v 2.641906 -0.209162 -2.857122
v 2.644581 -0.209162 -2.858985
v 2.646840 -0.209162 -2.861333
v 2.648598 -0.209162 -2.864078
v 2.649786 -0.209162 -2.867112
v 2.650360 -0.209162 -2.870320
v 2.650297 -0.209162 -2.873579
v 2.649600 -0.209162 -2.876762
v 2.648294 -0.209162 -2.879749
v 2.646431 -0.209162 -2.882422
v 2.644083 -0.209162 -2.884682
v 2.641338 -0.209162 -2.886440
v 2.638304 -0.209162 -2.887628
v 2.635096 -0.209162 -2.888202
v 2.631837 -0.209162 -2.888139
v 2.628654 -0.209162 -2.887441
v 2.625668 -0.209162 -2.886136
v 2.622993 -0.209162 -2.884273
v 2.620734 -0.209162 -2.881925
v 2.618976 -0.209162 -2.879180
v 2.617788 -0.209162 -2.876146
v 2.617214 -0.209162 -2.872937
v 2.617277 -0.209162 -2.869679
v 2.617975 -0.209162 -2.866496
v 2.619280 -0.209162 -2.863510
v 2.621143 -0.209162 -2.860836
v 2.623492 -0.209162 -2.858576
v 2.626236 -0.190059 -2.856818
v 2.629270 -0.190059 -2.855630
v 2.632479 -0.190059 -2.855056
v 2.635737 -0.190059 -2.855119
v 2.638921 -0.190059 -2.855817
v 2.641907 -0.190059 -2.857122
v 2.644581 -0.190059 -2.858985
v 2.646840 -0.190059 -2.861333
v 2.648598 -0.190059 -2.864078
v 2.649786 -0.190059 -2.867112
v 2.650360 -0.190059 -2.870320
v 2.650297 -0.190059 -2.873579
v 2.649600 -0.190059 -2.876762
v 2.648294 -0.190059 -2.879749
v 2.646431 -0.190059 -2.882423
v 2.644083 -0.190059 -2.884682
v 2.641338 -0.190059 -2.886440
v 2.638304 -0.190059 -2.887628
v 2.635096 -0.190059 -2.888202
v 2.631837 -0.190059 -2.888139
v 2.628654 -0.190059 -2.887441
v 2.625668 -0.190059 -2.886136
v 2.622993 -0.190059 -2.884273
v 2.620734 -0.190059 -2.881925
v 2.618976 -0.190059 -2.879180
v 2.617788 -0.190059 -2.876146
v 2.617214 -0.190059 -2.872938
v 2.617278 -0.190059 -2.869679
v 2.617975 -0.190059 -2.866496
v 2.619280 -0.190059 -2.863509
v 2.621143 -0.190059 -2.860836
v 2.623492 -0.190059 -2.858576
vn 0.7309 0.0000 0.6824
vn -0.6824 -0.0049 0.7309
vn -0.7309 -0.0000 -0.6824
vn 0.6824 0.0049 -0.7309
vn 0.0033 -1.0000 -0.0035
vn -0.0033 1.0000 0.0035
vn 0.0000 -1.0000 0.0000
vn 0.0000 1.0000 0.0000
vn 0.0195 0.0000 0.9998
vn -0.8205 0.0000 0.5717
vn 0.3649 -0.0000 -0.9311
vn 0.2141 -0.0000 0.9768
vn -0.6934 0.0000 0.7206
vn 0.1758 0.0000 -0.9844
vn 0.4005 0.0000 0.9163
vn -0.5393 0.0000 0.8421
vn -0.0193 0.0000 -0.9998
vn 0.5716 0.0000 0.8205
vn -0.2139 0.0000 -0.9769
vn 0.7207 0.0000 0.6932
vn -0.4005 0.0000 -0.9163
vn 0.8420 -0.0000 0.5395
vn -0.5716 0.0000 -0.8205
vn 0.9312 -0.0000 0.3646
vn -0.7207 0.0000 -0.6933
vn 0.9844 0.0000 0.1760
vn -0.8421 0.0000 -0.5394
vn 0.9998 0.0000 -0.0194
vn -0.9311 0.0000 -0.3647
vn 0.9768 0.0000 -0.2141
vn -0.9844 -0.0000 -0.1760
vn 0.9163 0.0000 -0.4005
vn -0.9998 -0.0000 0.0192
vn 0.8205 0.0000 -0.5716
vn -0.3647 0.0000 0.9311
vn -0.9768 -0.0000 0.2141
vn 0.6933 -0.0000 -0.7207
vn -0.1762 0.0000 0.9844
vn -0.9163 0.0000 0.4004
vn 0.5393 0.0000 -0.8421
vn 0.7315 0.0000 0.6819
vn -0.6819 -0.0048 0.7315
vn -0.7314 0.0000 -0.6819
vn 0.6819 0.0048 -0.7314
vn 0.0033 -1.0000 -0.0036
vn -0.0033 1.0000 0.0036
vn 0.0194 0.0000 0.9998
vn -0.8204 0.0000 0.5717
vn 0.3647 0.0000 -0.9311
vn -0.6933 0.0000 0.7206
vn 0.1760 0.0000 -0.9844
vn 0.4006 0.0000 0.9163
vn -0.5394 0.0000 0.8421
vn -0.0194 0.0000 -0.9998
vn -0.2138 0.0000 -0.9769
vn 0.7208 -0.0000 0.6932
vn 0.8421 0.0000 0.5393
vn 0.9311 0.0001 0.3648
vn -0.7206 0.0000 -0.6934
vn -0.8421 0.0000 -0.5393
vn 0.9998 0.0000 -0.0192
vn -0.9311 0.0000 -0.3648
vn 0.9162 -0.0000 -0.4006
vn -0.9998 0.0000 0.0194
vn 0.8206 0.0000 -0.5715
vn -0.9768 0.0000 0.2140
vn -0.1761 0.0000 0.9844
vn -0.9163 0.0000 0.4005
vn 0.5394 0.0000 -0.8421
vn -0.8205 0.0000 0.5716
vn 0.2139 0.0000 0.9769
vn 0.1762 0.0000 -0.9844
vn -0.2142 0.0000 -0.9768
vn -0.5716 0.0000 -0.8206
vn 0.9844 0.0000 0.1761
vn 0.9998 -0.0000 -0.0193
vn 0.9768 0.0000 -0.2140
vn -0.9844 0.0000 -0.1761
vn 0.9163 0.0000 -0.4004
vn -0.9998 -0.0000 0.0193
vn 0.8203 0.0000 -0.5719
vn -0.9768 0.0000 0.2139
vn 0.6934 0.0000 -0.7205
vn -0.1760 -0.0000 0.9844
vn -0.6825 -0.0049 0.7309
vn 0.2140 0.0000 0.9768
vn 0.1761 0.0000 -0.9844
vn 0.4003 0.0000 0.9164
vn -0.0197 0.0000 -0.9998
vn -0.2140 0.0000 -0.9768
vn -0.5717 0.0000 -0.8205
vn 0.9311 0.0000 0.3648
vn 0.9844 0.0000 0.1762
vn -0.3646 0.0000 0.9312
vn 0.6933 -0.0000 -0.7206
vn 0.5392 -0.0000 -0.8422
vn 0.7314 0.0000 0.6819
vn -0.6819 -0.0049 0.7314
vn 0.6819 0.0048 -0.7315
vn 0.0196 -0.0000 0.9998
vn 0.1759 -0.0000 -0.9844
vn -0.0195 0.0000 -0.9998
vn 0.5714 -0.0000 0.8206
vn -0.2141 0.0000 -0.9768
vn 0.7206 0.0000 0.6933
vn 0.8420 0.0000 0.5394
vn -0.5717 0.0000 -0.8204
vn 0.9311 0.0000 0.3647
vn -0.7208 0.0000 -0.6932
vn 0.9768 0.0000 -0.2142
vn -0.3648 0.0000 0.9311
vn -0.4006 0.0000 -0.9163
vn 0.8421 0.0000 0.5394
vn -0.7207 0.0000 -0.6932
vn -0.8420 0.0000 -0.5395
vn -0.9312 0.0000 -0.3645
vn 0.9163 0.0000 -0.4006
vn -0.9998 0.0000 0.0195
s off
f 2//1 3//1 1//1
f 4//2 7//2 3//2
f 7//3 6//3 5//3
f 5//4 2//4 1//4
f 3//5 5//5 1//5
f 4//6 6//6 8//6
f 12//7 11//7 27//7
f 71//8 72//8 63//8
f 11//9 44//9 43//9
f 39//10 70//10 38//10
f 26//11 57//11 25//11
f 12//12 45//12 44//12
f 40//13 71//13 39//13
f 27//14 58//14 26//14
f 14//15 45//15 13//15
f 9//16 72//16 40//16
f 28//17 59//17 27//17
f 15//18 46//18 14//18
f 29//19 60//19 28//19
f 16//20 47//20 15//20
f 30//21 61//21 29//21
f 17//22 48//22 16//22
f 30//23 63//23 62//23
f 17//24 50//24 49//24
f 32//25 63//25 31//25
f 19//26 50//26 18//26
f 32//27 65//27 64//27
f 19//28 52//28 51//28
f 34//29 65//29 33//29
f 21//30 52//30 20//30
f 35//31 66//31 34//31
f 21//32 54//32 53//32
f 36//33 67//33 35//33
f 22//34 55//34 54//34
f 10//35 41//35 9//35
f 37//36 68//36 36//36
f 23//37 56//37 55//37
f 11//38 42//38 10//38
f 38//39 69//39 37//39
f 24//40 57//40 56//40
f 74//41 75//41 73//41
f 76//42 79//42 75//42
f 79//43 78//43 77//43
f 77//44 74//44 73//44
f 75//45 77//45 73//45
f 76//46 78//46 80//46
f 84//7 83//7 99//7
f 143//8 144//8 135//8
f 83//47 116//47 115//47
f 110//48 143//48 142//48
f 97//49 130//49 129//49
f 84//12 117//12 116//12
f 111//50 144//50 143//50
f 98//51 131//51 130//51
f 85//52 118//52 117//52
f 81//53 144//53 112//53
f 99//54 132//54 131//54
f 87//18 118//18 86//18
f 101//55 132//55 100//55
f 88//56 119//56 87//56
f 102//21 133//21 101//21
f 88//57 121//57 120//57
f 103//23 134//23 102//23
f 89//58 122//58 121//58
f 103//59 136//59 135//59
f 91//26 122//26 90//26
f 104//60 137//60 136//60
f 91//61 124//61 123//61
f 105//62 138//62 137//62
f 92//30 125//30 124//30
f 107//31 138//31 106//31
f 93//63 126//63 125//63
f 108//64 139//64 107//64
f 94//65 127//65 126//65
f 82//35 113//35 81//35
f 108//66 141//66 140//66
f 95//37 128//37 127//37
f 82//67 115//67 114//67
f 110//68 141//68 109//68
f 96//69 129//69 128//69
f 148//7 147//7 163//7
f 207//8 208//8 199//8
f 148//47 179//47 147//47
f 174//70 207//70 206//70
f 161//49 194//49 193//49
f 149//71 180//71 148//71
f 175//50 208//50 207//50
f 163//72 194//72 162//72
f 150//15 181//15 149//15
f 176//53 177//53 208//53
f 164//54 195//54 163//54
f 151//18 182//18 150//18
f 165//73 196//73 164//73
f 152//20 183//20 151//20
f 165//21 198//21 197//21
f 152//57 185//57 184//57
f 166//74 199//74 198//74
f 154//24 185//24 153//24
f 168//25 199//25 167//25
f 155//75 186//75 154//75
f 168//27 201//27 200//27
f 156//76 187//76 155//76
f 169//29 202//29 201//29
f 157//77 188//77 156//77
f 170//78 203//78 202//78
f 158//79 189//79 157//79
f 172//80 203//80 171//80
f 159//81 190//81 158//81
f 145//35 178//35 177//35
f 172//82 205//82 204//82
f 160//83 191//83 159//83
f 146//84 179//84 178//84
f 173//68 206//68 205//68
f 161//40 192//40 160//40
f 2//1 4//1 3//1
f 4//85 8//85 7//85
f 7//3 8//3 6//3
f 5//4 6//4 2//4
f 3//5 7//5 5//5
f 4//6 2//6 6//6
f 11//7 10//7 28//7
f 10//7 9//7 29//7
f 9//7 40//7 30//7
f 40//7 39//7 31//7
f 39//7 38//7 32//7
f 38//7 37//7 33//7
f 37//7 36//7 34//7
f 36//7 35//7 34//7
f 34//7 33//7 37//7
f 33//7 32//7 38//7
f 32//7 31//7 39//7
f 31//7 30//7 40//7
f 30//7 29//7 9//7
f 29//7 28//7 10//7
f 28//7 27//7 11//7
f 27//7 26//7 12//7
f 26//7 25//7 13//7
f 25//7 24//7 14//7
f 24//7 23//7 15//7
f 23//7 22//7 16//7
f 22//7 21//7 17//7
f 21//7 20//7 18//7
f 20//7 19//7 18//7
f 18//7 17//7 21//7
f 17//7 16//7 22//7
f 16//7 15//7 23//7
f 15//7 14//7 24//7
f 14//7 13//7 25//7
f 13//7 12//7 26//7
f 41//8 42//8 61//8
f 42//8 43//8 60//8
f 61//8 42//8 60//8
f 43//8 44//8 59//8
f 44//8 45//8 58//8
f 59//8 44//8 58//8
f 45//8 46//8 57//8
f 46//8 47//8 56//8
f 57//8 46//8 56//8
f 47//8 48//8 55//8
f 48//8 49//8 54//8
f 55//8 48//8 54//8
f 49//8 50//8 53//8
f 50//8 51//8 52//8
f 53//8 50//8 52//8
f 53//8 54//8 49//8
f 55//8 56//8 47//8
f 57//8 58//8 45//8
f 59//8 60//8 43//8
f 61//8 62//8 41//8
f 62//8 63//8 72//8
f 41//8 62//8 72//8
f 63//8 64//8 71//8
f 64//8 65//8 70//8
f 71//8 64//8 70//8
f 65//8 66//8 69//8
f 66//8 67//8 68//8
f 69//8 66//8 68//8
f 69//8 70//8 65//8
f 11//47 12//47 44//47
f 39//70 71//70 70//70
f 26//49 58//49 57//49
f 12//86 13//86 45//86
f 40//13 72//13 71//13
f 27//87 59//87 58//87
f 14//88 46//88 45//88
f 9//16 41//16 72//16
f 28//89 60//89 59//89
f 15//18 47//18 46//18
f 29//90 61//90 60//90
f 16//56 48//56 47//56
f 30//21 62//21 61//21
f 17//57 49//57 48//57
f 30//91 31//91 63//91
f 17//92 18//92 50//92
f 32//25 64//25 63//25
f 19//93 51//93 50//93
f 32//27 33//27 65//27
f 19//28 20//28 52//28
f 34//29 66//29 65//29
f 21//30 53//30 52//30
f 35//31 67//31 66//31
f 21//79 22//79 54//79
f 36//80 68//80 67//80
f 22//34 23//34 55//34
f 10//94 42//94 41//94
f 37//66 69//66 68//66
f 23//95 24//95 56//95
f 11//67 43//67 42//67
f 38//68 70//68 69//68
f 24//96 25//96 57//96
f 74//97 76//97 75//97
f 76//98 80//98 79//98
f 79//43 80//43 78//43
f 77//99 78//99 74//99
f 75//45 79//45 77//45
f 76//46 74//46 78//46
f 83//7 82//7 100//7
f 82//7 81//7 101//7
f 81//7 112//7 102//7
f 112//7 111//7 103//7
f 111//7 110//7 104//7
f 110//7 109//7 105//7
f 109//7 108//7 106//7
f 108//7 107//7 106//7
f 106//7 105//7 109//7
f 105//7 104//7 110//7
f 104//7 103//7 111//7
f 103//7 102//7 112//7
f 102//7 101//7 81//7
f 101//7 100//7 82//7
f 100//7 99//7 83//7
f 99//7 98//7 84//7
f 98//7 97//7 85//7
f 97//7 96//7 86//7
f 96//7 95//7 87//7
f 95//7 94//7 88//7
f 94//7 93//7 89//7
f 93//7 92//7 90//7
f 92//7 91//7 90//7
f 90//7 89//7 93//7
f 89//7 88//7 94//7
f 88//7 87//7 95//7
f 87//7 86//7 96//7
f 86//7 85//7 97//7
f 85//7 84//7 98//7
f 113//8 114//8 133//8
f 114//8 115//8 132//8
f 133//8 114//8 132//8
f 115//8 116//8 131//8
f 116//8 117//8 130//8
f 131//8 116//8 130//8
f 117//8 118//8 129//8
f 118//8 119//8 128//8
f 129//8 118//8 128//8
f 119//8 120//8 127//8
f 120//8 121//8 126//8
f 127//8 120//8 126//8
f 121//8 122//8 125//8
f 122//8 123//8 124//8
f 125//8 122//8 124//8
f 125//8 126//8 121//8
f 127//8 128//8 119//8
f 129//8 130//8 117//8
f 131//8 132//8 115//8
f 133//8 134//8 113//8
f 134//8 135//8 144//8
f 113//8 134//8 144//8
f 135//8 136//8 143//8
f 136//8 137//8 142//8
f 143//8 136//8 142//8
f 137//8 138//8 141//8
f 138//8 139//8 140//8
f 141//8 138//8 140//8
f 141//8 142//8 137//8
f 83//100 84//100 116//100
f 110//10 111//10 143//10
f 97//11 98//11 130//11
f 84//86 85//86 117//86
f 111//50 112//50 144//50
f 98//101 99//101 131//101
f 85//15 86//15 118//15
f 81//16 113//16 144//16
f 99//102 100//102 132//102
f 87//103 119//103 118//103
f 101//104 133//104 132//104
f 88//105 120//105 119//105
f 102//21 134//21 133//21
f 88//106 89//106 121//106
f 103//107 135//107 134//107
f 89//108 90//108 122//108
f 103//109 104//109 136//109
f 91//26 123//26 122//26
f 104//27 105//27 137//27
f 91//61 92//61 124//61
f 105//29 106//29 138//29
f 92//110 93//110 125//110
f 107//31 139//31 138//31
f 93//79 94//79 126//79
f 108//64 140//64 139//64
f 94//34 95//34 127//34
f 82//111 114//111 113//111
f 108//66 109//66 141//66
f 95//37 96//37 128//37
f 82//38 83//38 115//38
f 110//39 142//39 141//39
f 96//40 97//40 129//40
f 147//7 146//7 164//7
f 146//7 145//7 165//7
f 145//7 176//7 166//7
f 176//7 175//7 167//7
f 175//7 174//7 168//7
f 174//7 173//7 169//7
f 173//7 172//7 170//7
f 172//7 171//7 170//7
f 170//7 169//7 173//7
f 169//7 168//7 174//7
f 168//7 167//7 175//7
f 167//7 166//7 176//7
f 166//7 165//7 145//7
f 165//7 164//7 146//7
f 164//7 163//7 147//7
f 163//7 162//7 148//7
f 162//7 161//7 149//7
f 161//7 160//7 150//7
f 160//7 159//7 151//7
f 159//7 158//7 152//7
f 158//7 157//7 153//7
f 157//7 156//7 154//7
f 156//7 155//7 154//7
f 154//7 153//7 157//7
f 153//7 152//7 158//7
f 152//7 151//7 159//7
f 151//7 150//7 160//7
f 150//7 149//7 161//7
f 149//7 148//7 162//7
f 177//8 178//8 197//8
f 178//8 179//8 196//8
f 197//8 178//8 196//8
f 179//8 180//8 195//8
f 180//8 181//8 194//8
f 195//8 180//8 194//8
f 181//8 182//8 193//8
f 182//8 183//8 192//8
f 193//8 182//8 192//8
f 183//8 184//8 191//8
f 184//8 185//8 190//8
f 191//8 184//8 190//8
f 185//8 186//8 189//8
f 186//8 187//8 188//8
f 189//8 186//8 188//8
f 189//8 190//8 185//8
f 191//8 192//8 183//8
f 193//8 194//8 181//8
f 195//8 196//8 179//8
f 197//8 198//8 177//8
f 198//8 199//8 208//8
f 177//8 198//8 208//8
f 199//8 200//8 207//8
f 200//8 201//8 206//8
f 207//8 200//8 206//8
f 201//8 202//8 205//8
f 202//8 203//8 204//8
f 205//8 202//8 204//8
f 205//8 206//8 201//8
f 148//47 180//47 179//47
f 174//70 175//70 207//70
f 161//49 162//49 194//49
f 149//12 181//12 180//12
f 175//50 176//50 208//50
f 163//72 195//72 194//72
f 150//15 182//15 181//15
f 176//16 145//16 177//16
f 164//17 196//17 195//17
f 151//18 183//18 182//18
f 165//104 197//104 196//104
f 152//105 184//105 183//105
f 165//112 166//112 198//112
f 152//113 153//113 185//113
f 166//23 167//23 199//23
f 154//92 186//92 185//92
f 168//114 200//114 199//114
f 155//26 187//26 186//26
f 168//115 169//115 201//115
f 156//28 188//28 187//28
f 169//116 170//116 202//116
f 157//77 189//77 188//77
f 170//78 171//78 203//78
f 158//117 190//117 189//117
f 172//118 204//118 203//118
f 159//65 191//65 190//65
f 145//35 146//35 178//35
f 172//36 173//36 205//36
f 160//95 192//95 191//95
f 146//67 147//67 179//67
f 173//68 174//68 206//68
f 161//40 193//40 192//40
