# Blender v2.79 (sub 7) OBJ File: 'Universe Gate.blend'
# www.blender.org
o 08_Circle.027
v 1.262081 -0.208698 -3.777850
v 1.257097 -0.208698 -3.777604
v 1.252257 -0.208698 -3.776389
v 1.247747 -0.208698 -3.774254
v 1.243740 -0.208698 -3.771280
v 1.240390 -0.208698 -3.767581
v 1.237826 -0.208698 -3.763300
v 1.236147 -0.208698 -3.758600
v 1.235416 -0.208698 -3.753664
v 1.235663 -0.208698 -3.748680
v 1.236878 -0.208698 -3.743840
v 1.239013 -0.208698 -3.739329
v 1.241987 -0.208698 -3.735322
v 1.245686 -0.208698 -3.731972
v 1.249967 -0.208698 -3.729409
v 1.254666 -0.208698 -3.727729
v 1.259603 -0.208698 -3.726999
v 1.264587 -0.208698 -3.727246
v 1.269427 -0.208698 -3.728460
v 1.273938 -0.208698 -3.730596
v 1.277945 -0.208698 -3.733569
v 1.281294 -0.208698 -3.737268
v 1.283858 -0.208698 -3.741550
v 1.285538 -0.208698 -3.746249
v 1.286268 -0.208698 -3.751185
v 1.286021 -0.208698 -3.756169
v 1.284807 -0.208698 -3.761010
v 1.282671 -0.208698 -3.765520
v 1.279697 -0.208698 -3.769527
v 1.275998 -0.208698 -3.772877
v 1.271717 -0.208698 -3.775441
v 1.267018 -0.208698 -3.777120
v 1.261350 -0.208698 -3.762838
v 1.259308 -0.208698 -3.762737
v 1.257326 -0.208698 -3.762239
v 1.255479 -0.208698 -3.761365
v 1.253838 -0.208698 -3.760147
v 1.252466 -0.208698 -3.758632
v 1.251416 -0.208698 -3.756879
v 1.250728 -0.208698 -3.754954
v 1.250429 -0.208698 -3.752933
v 1.250530 -0.208698 -3.750891
v 1.251027 -0.208698 -3.748909
v 1.251902 -0.208698 -3.747061
v 1.253120 -0.208698 -3.745420
v 1.254635 -0.208698 -3.744048
v 1.256388 -0.208698 -3.742998
v 1.258313 -0.208698 -3.742310
v 1.260335 -0.208698 -3.742012
v 1.262376 -0.208698 -3.742112
v 1.264358 -0.208698 -3.742610
v 1.266205 -0.208698 -3.743484
v 1.267847 -0.208698 -3.744702
v 1.269219 -0.208698 -3.746217
v 1.270268 -0.208698 -3.747971
v 1.270956 -0.208698 -3.749895
v 1.271255 -0.208698 -3.751917
v 1.271154 -0.208698 -3.753958
v 1.270657 -0.208698 -3.755941
v 1.269782 -0.208698 -3.757788
v 1.268564 -0.208698 -3.759429
v 1.267049 -0.208698 -3.760801
v 1.265296 -0.208698 -3.761851
v 1.263371 -0.208698 -3.762539
v 1.262081 -0.189926 -3.777850
v 1.257097 -0.189926 -3.777604
v 1.252257 -0.189926 -3.776389
v 1.247747 -0.189926 -3.774254
v 1.243740 -0.189926 -3.771280
v 1.240390 -0.189926 -3.767581
v 1.237826 -0.189926 -3.763300
v 1.236147 -0.189926 -3.758600
v 1.235416 -0.189926 -3.753664
v 1.235663 -0.189926 -3.748680
v 1.236878 -0.189926 -3.743840
v 1.239013 -0.189926 -3.739329
v 1.241987 -0.189926 -3.735322
v 1.245686 -0.189926 -3.731972
v 1.249967 -0.189926 -3.729409
v 1.254666 -0.189926 -3.727729
v 1.259603 -0.189926 -3.726999
v 1.264587 -0.189926 -3.727246
v 1.269427 -0.189926 -3.728460
v 1.273938 -0.189926 -3.730596
v 1.277945 -0.189926 -3.733569
v 1.281294 -0.189926 -3.737268
v 1.283858 -0.189926 -3.741550
v 1.285538 -0.189926 -3.746249
v 1.286268 -0.189926 -3.751185
v 1.286021 -0.189926 -3.756169
v 1.284807 -0.189926 -3.761010
v 1.282671 -0.189926 -3.765520
v 1.279697 -0.189926 -3.769527
v 1.275998 -0.189926 -3.772877
v 1.271717 -0.189926 -3.775441
v 1.267018 -0.189926 -3.777120
v 1.261350 -0.189926 -3.762838
v 1.259308 -0.189926 -3.762737
v 1.257326 -0.189926 -3.762239
v 1.255479 -0.189926 -3.761365
v 1.253838 -0.189926 -3.760147
v 1.252466 -0.189926 -3.758632
v 1.251416 -0.189926 -3.756879
v 1.250728 -0.189926 -3.754954
v 1.250429 -0.189926 -3.752933
v 1.250530 -0.189926 -3.750891
v 1.251027 -0.189926 -3.748909
v 1.251902 -0.189926 -3.747061
v 1.253120 -0.189926 -3.745420
v 1.254635 -0.189926 -3.744048
v 1.256388 -0.189926 -3.742998
v 1.258313 -0.189926 -3.742310
v 1.260335 -0.189926 -3.742012
v 1.262376 -0.189926 -3.742112
v 1.264358 -0.189926 -3.742610
v 1.266205 -0.189926 -3.743484
v 1.267847 -0.189926 -3.744702
v 1.269219 -0.189926 -3.746217
v 1.270268 -0.189926 -3.747971
v 1.270956 -0.189926 -3.749895
v 1.271255 -0.189926 -3.751917
v 1.271154 -0.189926 -3.753958
v 1.270657 -0.189926 -3.755941
v 1.269782 -0.189926 -3.757788
v 1.268564 -0.189926 -3.759429
v 1.267049 -0.189926 -3.760801
v 1.265296 -0.189926 -3.761851
v 1.263371 -0.189926 -3.762539
v 1.212264 -0.208761 -3.591403
v 1.212244 -0.199859 -3.591331
v 1.203697 -0.208849 -3.561196
v 1.203677 -0.199947 -3.561124
v 1.198962 -0.208761 -3.595646
v 1.198942 -0.199859 -3.595573
v 1.190395 -0.208849 -3.565438
v 1.190374 -0.199947 -3.565367
v 1.213751 -0.209162 -3.607785
v 1.217006 -0.209162 -3.607947
v 1.220167 -0.209162 -3.608740
v 1.223112 -0.209162 -3.610134
v 1.225729 -0.209162 -3.612077
v 1.227917 -0.209162 -3.614492
v 1.229591 -0.209162 -3.617288
v 1.230688 -0.209162 -3.620357
v 1.231165 -0.209162 -3.623581
v 1.231004 -0.209162 -3.626836
v 1.230211 -0.209162 -3.629997
v 1.228816 -0.209162 -3.632942
v 1.226874 -0.209162 -3.635559
v 1.224458 -0.209162 -3.637747
v 1.221662 -0.209162 -3.639422
v 1.218593 -0.209162 -3.640518
v 1.215369 -0.209162 -3.640995
v 1.212114 -0.209162 -3.640834
v 1.208953 -0.209162 -3.640041
v 1.206008 -0.209162 -3.638646
v 1.203391 -0.209162 -3.636703
v 1.201203 -0.209162 -3.634288
v 1.199529 -0.209162 -3.631493
v 1.198432 -0.209162 -3.628423
v 1.197955 -0.209162 -3.625200
v 1.198116 -0.209162 -3.621944
v 1.198909 -0.209162 -3.618783
v 1.200304 -0.209162 -3.615838
v 1.202246 -0.209162 -3.613221
v 1.204662 -0.209162 -3.611034
v 1.207458 -0.209162 -3.609359
v 1.210527 -0.209162 -3.608263
v 1.213751 -0.190059 -3.607785
v 1.217006 -0.190059 -3.607947
v 1.220167 -0.190059 -3.608740
v 1.223112 -0.190059 -3.610134
v 1.225729 -0.190059 -3.612077
v 1.227917 -0.190059 -3.614492
v 1.229591 -0.190059 -3.617288
v 1.230688 -0.190059 -3.620357
v 1.231165 -0.190059 -3.623581
v 1.231004 -0.190059 -3.626836
v 1.230211 -0.190059 -3.629997
v 1.228816 -0.190059 -3.632942
v 1.226874 -0.190059 -3.635559
v 1.224458 -0.190059 -3.637747
v 1.221662 -0.190059 -3.639422
v 1.218593 -0.190059 -3.640518
v 1.215369 -0.190059 -3.640995
v 1.212114 -0.190059 -3.640834
v 1.208953 -0.190059 -3.640041
v 1.206008 -0.190059 -3.638646
v 1.203391 -0.190059 -3.636703
v 1.201203 -0.190059 -3.634288
v 1.199529 -0.190059 -3.631493
v 1.198432 -0.190059 -3.628423
v 1.197955 -0.190059 -3.625200
v 1.198116 -0.190059 -3.621944
v 1.198909 -0.190059 -3.618783
v 1.200304 -0.190059 -3.615838
v 1.202246 -0.190059 -3.613221
v 1.204662 -0.190059 -3.611034
v 1.207458 -0.190059 -3.609359
v 1.210527 -0.190059 -3.608263
v 1.253869 -0.214624 -3.708888
v 1.253827 -0.188030 -3.708766
v 1.236362 -0.214887 -3.657494
v 1.236321 -0.188294 -3.657372
v 1.236303 -0.214624 -3.714871
v 1.236261 -0.188030 -3.714749
v 1.218796 -0.214887 -3.663478
v 1.218754 -0.188294 -3.663356
vn 0.0000 -1.0000 0.0000
vn 0.0000 1.0000 0.0000
vn 0.5138 0.0000 -0.8579
vn -0.5960 0.0000 -0.8030
vn -0.9988 0.0000 0.0495
vn 0.3366 0.0000 -0.9416
vn -0.7413 0.0000 -0.6712
vn -0.9700 0.0000 0.2433
vn 0.1462 0.0000 -0.9893
vn -0.8579 0.0000 -0.5138
vn -0.9037 0.0000 0.4281
vn 0.0497 0.0000 0.9988
vn -0.9417 0.0000 -0.3365
vn -0.8031 0.0000 0.5958
vn 0.2431 0.0000 0.9700
vn -0.9892 0.0000 -0.1464
vn -0.6714 0.0000 0.7411
vn 0.4277 0.0000 0.9039
vn -0.5135 0.0000 0.8581
vn 0.5959 0.0000 0.8030
vn -0.9699 0.0000 0.2434
vn -0.3364 0.0000 0.9417
vn 0.7411 0.0000 0.6713
vn -0.9039 0.0000 0.4278
vn -0.1464 0.0000 0.9892
vn 0.8580 0.0000 0.5137
vn -0.8029 0.0000 0.5961
vn 0.9417 0.0000 0.3365
vn -0.6712 0.0000 0.7413
vn 0.9892 0.0000 0.1464
vn -0.5138 0.0000 0.8579
vn 0.9988 0.0000 -0.0495
vn -0.3366 0.0000 0.9416
vn 0.9699 0.0000 -0.2434
vn -0.1465 0.0000 0.9892
vn 0.9038 0.0000 -0.4279
vn 0.0495 0.0000 0.9988
vn 0.8030 0.0000 -0.5959
vn 0.2434 0.0000 0.9699
vn 0.6712 0.0000 -0.7412
vn 0.4279 0.0000 0.9038
vn 0.5141 0.0000 -0.8577
vn 0.5960 0.0000 0.8030
vn 0.3364 0.0000 -0.9417
vn 0.7413 0.0000 0.6712
vn 0.1464 0.0000 -0.9892
vn 0.8579 0.0000 0.5138
vn -0.0493 0.0000 -0.9988
vn -0.2435 0.0000 -0.9699
vn 0.9892 0.0000 0.1463
vn -0.4277 0.0000 -0.9039
vn 0.9988 0.0000 -0.0494
vn -0.5959 0.0000 -0.8031
vn 0.9038 0.0000 -0.4280
vn -0.8580 0.0000 -0.5137
vn 0.8029 0.0000 -0.5961
vn -0.2434 0.0000 -0.9699
vn 0.6713 0.0000 -0.7412
vn -0.4279 0.0000 -0.9038
vn -0.9892 0.0000 -0.1463
vn 0.9621 0.0000 0.2729
vn -0.3038 -0.0084 0.9527
vn -0.9621 0.0000 -0.2728
vn 0.3039 0.0084 -0.9527
vn 0.0009 -1.0000 -0.0027
vn -0.0009 1.0000 0.0027
vn -0.5139 0.0000 0.8579
vn -0.3365 0.0000 0.9417
vn -0.5962 0.0000 -0.8029
vn -0.7411 0.0000 -0.6713
vn 0.9700 0.0000 -0.2433
vn 0.8030 0.0000 -0.5960
vn -0.9699 0.0000 0.2433
vn 0.6712 0.0000 -0.7413
vn -0.9038 0.0000 0.4279
vn 0.5139 0.0000 -0.8579
vn -0.8030 0.0000 0.5960
vn 0.3363 0.0000 -0.9417
vn 0.2432 0.0000 0.9700
vn -0.6711 0.0000 0.7414
vn 0.1462 0.0000 -0.9892
vn 0.9466 0.0000 0.3224
vn -0.9466 -0.0000 -0.3225
vn 0.0016 -1.0000 -0.0046
vn -0.0016 1.0000 0.0046
vn 0.3224 0.0049 -0.9466
vn 0.5137 0.0000 -0.8580
vn -0.7412 0.0000 -0.6713
vn -0.9417 0.0000 -0.3366
vn 0.2435 0.0000 0.9699
vn 0.5962 0.0000 0.8028
vn -0.3368 0.0000 0.9416
vn -0.1460 0.0000 0.9893
vn 0.8579 0.0000 0.5139
vn 0.9416 0.0000 0.3366
vn -0.6713 0.0000 0.7412
vn -0.1462 0.0000 0.9893
vn 0.0496 0.0000 0.9988
vn 0.4278 0.0000 0.9039
vn 0.5135 0.0000 -0.8581
vn 0.3367 0.0000 -0.9416
vn 0.7412 0.0000 0.6713
vn 0.1460 0.0000 -0.9893
vn 0.9417 0.0000 0.3366
vn -0.4280 0.0000 -0.9038
vn 0.9699 0.0000 -0.2433
vn 0.8031 0.0000 -0.5959
vn -0.9621 -0.0000 -0.2729
vn 0.3038 0.0084 -0.9527
vn 0.0000 -1.0000 0.0001
vn 0.0000 -1.0000 -0.0001
vn 0.0000 1.0000 -0.0001
vn -0.0495 0.0000 -0.9988
vn -0.2432 0.0000 -0.9700
vn 0.7411 0.0000 0.6714
vn -0.9988 0.0000 0.0494
vn 0.6713 0.0000 -0.7411
vn 0.0498 0.0000 0.9988
vn 0.3365 0.0000 -0.9417
vn -0.9466 0.0000 -0.3224
s off
f 19//1 52//1 20//1
f 6//1 39//1 7//1
f 20//1 53//1 21//1
f 8//1 39//1 40//1
f 22//1 53//1 54//1
f 8//1 41//1 9//1
f 23//1 54//1 55//1
f 10//1 41//1 42//1
f 23//1 56//1 24//1
f 11//1 42//1 43//1
f 25//1 56//1 57//1
f 11//1 44//1 12//1
f 26//1 57//1 58//1
f 12//1 45//1 13//1
f 26//1 59//1 27//1
f 14//1 45//1 46//1
f 28//1 59//1 60//1
f 14//1 47//1 15//1
f 2//1 33//1 34//1
f 28//1 61//1 29//1
f 15//1 48//1 16//1
f 3//1 34//1 35//1
f 29//1 62//1 30//1
f 17//1 48//1 49//1
f 3//1 36//1 4//1
f 31//1 62//1 63//1
f 17//1 50//1 18//1
f 5//1 36//1 37//1
f 31//1 64//1 32//1
f 19//1 50//1 51//1
f 6//1 37//1 38//1
f 1//1 64//1 33//1
f 116//2 83//2 84//2
f 103//2 70//2 71//2
f 117//2 84//2 85//2
f 72//2 103//2 71//2
f 86//2 117//2 85//2
f 105//2 72//2 73//2
f 87//2 118//2 86//2
f 74//2 105//2 73//2
f 120//2 87//2 88//2
f 75//2 106//2 74//2
f 89//2 120//2 88//2
f 108//2 75//2 76//2
f 90//2 121//2 89//2
f 109//2 76//2 77//2
f 123//2 90//2 91//2
f 78//2 109//2 77//2
f 92//2 123//2 91//2
f 111//2 78//2 79//2
f 66//2 97//2 65//2
f 125//2 92//2 93//2
f 112//2 79//2 80//2
f 67//2 98//2 66//2
f 126//2 93//2 94//2
f 81//2 112//2 80//2
f 100//2 67//2 68//2
f 95//2 126//2 94//2
f 114//2 81//2 82//2
f 69//2 100//2 68//2
f 128//2 95//2 96//2
f 83//2 114//2 82//2
f 70//2 101//2 69//2
f 65//2 128//2 96//2
f 95//3 30//3 31//3
f 69//4 4//4 5//4
f 121//5 58//5 57//5
f 96//6 31//6 32//6
f 70//7 5//7 6//7
f 122//8 59//8 58//8
f 65//9 32//9 1//9
f 71//10 6//10 7//10
f 123//11 60//11 59//11
f 97//12 34//12 33//12
f 72//13 7//13 8//13
f 124//14 61//14 60//14
f 98//15 35//15 34//15
f 73//16 8//16 9//16
f 125//17 62//17 61//17
f 99//18 36//18 35//18
f 74//5 9//5 10//5
f 126//19 63//19 62//19
f 100//20 37//20 36//20
f 75//21 10//21 11//21
f 127//22 64//22 63//22
f 101//23 38//23 37//23
f 76//24 11//24 12//24
f 128//25 33//25 64//25
f 102//26 39//26 38//26
f 77//27 12//27 13//27
f 103//28 40//28 39//28
f 78//29 13//29 14//29
f 104//30 41//30 40//30
f 79//31 14//31 15//31
f 105//32 42//32 41//32
f 80//33 15//33 16//33
f 106//34 43//34 42//34
f 81//35 16//35 17//35
f 107//36 44//36 43//36
f 82//37 17//37 18//37
f 108//38 45//38 44//38
f 83//39 18//39 19//39
f 109//40 46//40 45//40
f 84//41 19//41 20//41
f 110//42 47//42 46//42
f 85//43 20//43 21//43
f 111//44 48//44 47//44
f 86//45 21//45 22//45
f 112//46 49//46 48//46
f 87//47 22//47 23//47
f 113//48 50//48 49//48
f 88//28 23//28 24//28
f 114//49 51//49 50//49
f 89//50 24//50 25//50
f 115//51 52//51 51//51
f 90//52 25//52 26//52
f 116//53 53//53 52//53
f 91//34 26//34 27//34
f 117//7 54//7 53//7
f 92//54 27//54 28//54
f 66//48 1//48 2//48
f 118//55 55//55 54//55
f 93//56 28//56 29//56
f 67//57 2//57 3//57
f 119//13 56//13 55//13
f 94//58 29//58 30//58
f 68//59 3//59 4//59
f 120//60 57//60 56//60
f 130//61 131//61 129//61
f 131//62 136//62 135//62
f 135//63 134//63 133//63
f 134//64 129//64 133//64
f 135//65 129//65 131//65
f 136//66 130//66 134//66
f 139//1 163//1 155//1
f 189//2 193//2 169//2
f 140//41 171//41 139//41
f 167//67 198//67 166//67
f 154//48 185//48 153//48
f 141//43 172//43 140//43
f 168//68 199//68 167//68
f 154//57 187//57 186//57
f 142//23 173//23 141//23
f 137//35 200//35 168//35
f 156//51 187//51 155//51
f 143//26 174//26 142//26
f 157//69 188//69 156//69
f 144//28 175//28 143//28
f 158//70 189//70 157//70
f 145//30 176//30 144//30
f 159//10 190//10 158//10
f 146//32 177//32 145//32
f 160//13 191//13 159//13
f 147//71 178//71 146//71
f 161//60 192//60 160//60
f 148//54 179//54 147//54
f 162//5 193//5 161//5
f 149//72 180//72 148//72
f 163//73 194//73 162//73
f 150//74 181//74 149//74
f 164//75 195//75 163//75
f 151//76 182//76 150//76
f 138//37 169//37 137//37
f 165//77 196//77 164//77
f 152//78 183//78 151//78
f 139//79 170//79 138//79
f 166//80 197//80 165//80
f 153//81 184//81 152//81
f 202//82 203//82 201//82
f 207//83 206//83 205//83
f 203//84 205//84 201//84
f 204//85 206//85 208//85
f 205//86 202//86 201//86
f 19//1 51//1 52//1
f 6//1 38//1 39//1
f 20//1 52//1 53//1
f 8//1 7//1 39//1
f 22//1 21//1 53//1
f 8//1 40//1 41//1
f 23//1 22//1 54//1
f 10//1 9//1 41//1
f 23//1 55//1 56//1
f 11//1 10//1 42//1
f 25//1 24//1 56//1
f 11//1 43//1 44//1
f 26//1 25//1 57//1
f 12//1 44//1 45//1
f 26//1 58//1 59//1
f 14//1 13//1 45//1
f 28//1 27//1 59//1
f 14//1 46//1 47//1
f 2//1 1//1 33//1
f 28//1 60//1 61//1
f 15//1 47//1 48//1
f 3//1 2//1 34//1
f 29//1 61//1 62//1
f 17//1 16//1 48//1
f 3//1 35//1 36//1
f 31//1 30//1 62//1
f 17//1 49//1 50//1
f 5//1 4//1 36//1
f 31//1 63//1 64//1
f 19//1 18//1 50//1
f 6//1 5//1 37//1
f 1//1 32//1 64//1
f 116//2 115//2 83//2
f 103//2 102//2 70//2
f 117//2 116//2 84//2
f 72//2 104//2 103//2
f 86//2 118//2 117//2
f 105//2 104//2 72//2
f 87//2 119//2 118//2
f 74//2 106//2 105//2
f 120//2 119//2 87//2
f 75//2 107//2 106//2
f 89//2 121//2 120//2
f 108//2 107//2 75//2
f 90//2 122//2 121//2
f 109//2 108//2 76//2
f 123//2 122//2 90//2
f 78//2 110//2 109//2
f 92//2 124//2 123//2
f 111//2 110//2 78//2
f 66//2 98//2 97//2
f 125//2 124//2 92//2
f 112//2 111//2 79//2
f 67//2 99//2 98//2
f 126//2 125//2 93//2
f 81//2 113//2 112//2
f 100//2 99//2 67//2
f 95//2 127//2 126//2
f 114//2 113//2 81//2
f 69//2 101//2 100//2
f 128//2 127//2 95//2
f 83//2 115//2 114//2
f 70//2 102//2 101//2
f 65//2 97//2 128//2
f 95//87 94//87 30//87
f 69//4 68//4 4//4
f 121//5 122//5 58//5
f 96//6 95//6 31//6
f 70//88 69//88 5//88
f 122//21 123//21 59//21
f 65//9 96//9 32//9
f 71//10 70//10 6//10
f 123//75 124//75 60//75
f 97//12 98//12 34//12
f 72//89 71//89 7//89
f 124//77 125//77 61//77
f 98//90 99//90 35//90
f 73//16 72//16 8//16
f 125//17 126//17 62//17
f 99//18 100//18 36//18
f 74//5 73//5 9//5
f 126//31 127//31 63//31
f 100//91 101//91 37//91
f 75//73 74//73 10//73
f 127//92 128//92 64//92
f 101//45 102//45 38//45
f 76//75 75//75 11//75
f 128//93 97//93 33//93
f 102//94 103//94 39//94
f 77//77 76//77 12//77
f 103//95 104//95 40//95
f 78//96 77//96 13//96
f 104//50 105//50 41//50
f 79//31 78//31 14//31
f 105//32 106//32 42//32
f 80//68 79//68 15//68
f 106//34 107//34 43//34
f 81//97 80//97 16//97
f 107//36 108//36 44//36
f 82//98 81//98 17//98
f 108//56 109//56 45//56
f 83//39 82//39 18//39
f 109//40 110//40 46//40
f 84//99 83//99 19//99
f 110//100 111//100 47//100
f 85//20 84//20 20//20
f 111//101 112//101 48//101
f 86//102 85//102 21//102
f 112//103 113//103 49//103
f 87//26 86//26 22//26
f 113//48 114//48 50//48
f 88//104 87//104 23//104
f 114//49 115//49 51//49
f 89//50 88//50 24//50
f 115//105 116//105 52//105
f 90//32 89//32 25//32
f 116//53 117//53 53//53
f 91//106 90//106 26//106
f 117//70 118//70 54//70
f 92//36 91//36 27//36
f 66//48 65//48 1//48
f 118//55 119//55 55//55
f 93//107 92//107 28//107
f 67//57 66//57 2//57
f 119//13 120//13 56//13
f 94//58 93//58 29//58
f 68//59 67//59 3//59
f 120//16 121//16 57//16
f 130//61 132//61 131//61
f 131//62 132//62 136//62
f 135//108 136//108 134//108
f 134//109 130//109 129//109
f 135//65 133//65 129//65
f 136//66 132//66 130//66
f 139//1 138//1 137//1
f 137//1 168//1 139//1
f 168//110 167//110 166//110
f 139//1 168//1 166//1
f 166//1 165//1 163//1
f 165//1 164//1 163//1
f 163//1 162//1 161//1
f 161//1 160//1 163//1
f 160//1 159//1 163//1
f 159//1 158//1 157//1
f 157//111 156//111 155//111
f 155//111 154//111 153//111
f 153//1 152//1 151//1
f 151//1 150//1 153//1
f 150//1 149//1 153//1
f 149//1 148//1 147//1
f 147//1 146//1 143//1
f 146//1 145//1 143//1
f 145//1 144//1 143//1
f 143//1 142//1 141//1
f 141//1 140//1 143//1
f 140//1 139//1 143//1
f 166//1 163//1 139//1
f 159//1 157//1 163//1
f 157//1 155//1 163//1
f 155//1 153//1 147//1
f 147//1 153//1 149//1
f 147//1 143//1 155//1
f 143//1 139//1 155//1
f 169//2 170//2 185//2
f 170//2 171//2 173//2
f 171//2 172//2 173//2
f 173//2 174//2 175//2
f 175//2 176//2 173//2
f 176//2 177//2 173//2
f 177//2 178//2 179//2
f 179//2 180//2 177//2
f 180//2 181//2 177//2
f 181//2 182//2 185//2
f 182//2 183//2 185//2
f 183//2 184//2 185//2
f 185//2 186//2 189//2
f 186//2 187//2 189//2
f 187//112 188//112 189//112
f 189//2 190//2 191//2
f 191//2 192//2 189//2
f 192//2 193//2 189//2
f 193//2 194//2 195//2
f 195//2 196//2 193//2
f 196//2 197//2 193//2
f 197//2 198//2 193//2
f 198//112 199//112 200//112
f 169//2 198//2 200//2
f 170//2 173//2 185//2
f 198//2 169//2 193//2
f 173//2 177//2 185//2
f 177//2 181//2 185//2
f 185//2 189//2 169//2
f 140//41 172//41 171//41
f 167//67 199//67 198//67
f 154//113 186//113 185//113
f 141//43 173//43 172//43
f 168//22 200//22 199//22
f 154//114 155//114 187//114
f 142//115 174//115 173//115
f 137//35 169//35 200//35
f 156//59 188//59 187//59
f 143//26 175//26 174//26
f 157//69 189//69 188//69
f 144//28 176//28 175//28
f 158//70 190//70 189//70
f 145//30 177//30 176//30
f 159//10 191//10 190//10
f 146//32 178//32 177//32
f 160//13 192//13 191//13
f 147//71 179//71 178//71
f 161//16 193//16 192//16
f 148//36 180//36 179//36
f 162//116 194//116 193//116
f 149//72 181//72 180//72
f 163//21 195//21 194//21
f 150//117 182//117 181//117
f 164//75 196//75 195//75
f 151//76 183//76 182//76
f 138//118 170//118 169//118
f 165//77 197//77 196//77
f 152//119 184//119 183//119
f 139//79 171//79 170//79
f 166//29 198//29 197//29
f 153//81 185//81 184//81
f 202//82 204//82 203//82
f 207//120 208//120 206//120
f 203//84 207//84 205//84
f 204//85 202//85 206//85
f 205//86 206//86 202//86
