# Blender v2.79 (sub 7) OBJ File: 'Universe Gate.blend'
# www.blender.org
o 09_Cube.029
v 0.170451 -0.217519 -3.788034
v 0.170445 -0.190926 -3.787905
v 0.167972 -0.217783 -3.733797
v 0.167966 -0.191189 -3.733668
v 0.151913 -0.217519 -3.788881
v 0.151907 -0.190926 -3.788752
v 0.149433 -0.217783 -3.734644
v 0.149427 -0.191189 -3.734515
v 0.166040 -0.209162 -3.801284
v 0.169121 -0.209162 -3.802346
v 0.171936 -0.209162 -3.803989
v 0.174375 -0.209162 -3.806150
v 0.176347 -0.209162 -3.808745
v 0.177774 -0.209162 -3.811675
v 0.178602 -0.209162 -3.814827
v 0.178800 -0.209162 -3.818080
v 0.178359 -0.209162 -3.821309
v 0.177296 -0.209162 -3.824390
v 0.175653 -0.209162 -3.827204
v 0.173492 -0.209162 -3.829644
v 0.170897 -0.209162 -3.831615
v 0.167967 -0.209162 -3.833043
v 0.164815 -0.209162 -3.833871
v 0.161562 -0.209162 -3.834068
v 0.158333 -0.209162 -3.833627
v 0.155252 -0.209162 -3.832564
v 0.152438 -0.209162 -3.830921
v 0.149998 -0.209162 -3.828761
v 0.148027 -0.209162 -3.826166
v 0.146599 -0.209162 -3.823236
v 0.145771 -0.209162 -3.820084
v 0.145574 -0.209162 -3.816831
v 0.146015 -0.209162 -3.813602
v 0.147077 -0.209162 -3.810521
v 0.148721 -0.209162 -3.807706
v 0.150881 -0.209162 -3.805266
v 0.153476 -0.209162 -3.803295
v 0.156406 -0.209162 -3.801868
v 0.159558 -0.209162 -3.801040
v 0.162811 -0.209162 -3.800843
v 0.166040 -0.190059 -3.801284
v 0.169121 -0.190059 -3.802346
v 0.171936 -0.190059 -3.803989
v 0.174375 -0.190059 -3.806150
v 0.176347 -0.190059 -3.808745
v 0.177774 -0.190059 -3.811675
v 0.178602 -0.190059 -3.814827
v 0.178800 -0.190059 -3.818079
v 0.178359 -0.190059 -3.821308
v 0.177296 -0.190059 -3.824389
v 0.175653 -0.190059 -3.827204
v 0.173492 -0.190059 -3.829644
v 0.170897 -0.190059 -3.831616
v 0.167967 -0.190059 -3.833043
v 0.164815 -0.190059 -3.833871
v 0.161562 -0.190059 -3.834068
v 0.158333 -0.190059 -3.833627
v 0.155252 -0.190059 -3.832565
v 0.152438 -0.190059 -3.830921
v 0.149998 -0.190059 -3.828761
v 0.148027 -0.190059 -3.826165
v 0.146599 -0.190059 -3.823236
v 0.145771 -0.190059 -3.820084
v 0.145574 -0.190059 -3.816831
v 0.146015 -0.190059 -3.813602
v 0.147077 -0.190059 -3.810521
v 0.148721 -0.190059 -3.807706
v 0.150881 -0.190059 -3.805266
v 0.153476 -0.190059 -3.803295
v 0.156406 -0.190059 -3.801868
v 0.159558 -0.190059 -3.801040
v 0.162811 -0.190059 -3.800843
v 0.169636 -0.209162 -3.887598
v 0.172717 -0.209162 -3.888660
v 0.175531 -0.209162 -3.890303
v 0.177971 -0.209162 -3.892464
v 0.179942 -0.209162 -3.895059
v 0.181369 -0.209162 -3.897989
v 0.182198 -0.209162 -3.901141
v 0.182395 -0.209162 -3.904394
v 0.181954 -0.209162 -3.907623
v 0.180891 -0.209162 -3.910704
v 0.179248 -0.209162 -3.913518
v 0.177088 -0.209162 -3.915958
v 0.174492 -0.209162 -3.917930
v 0.171563 -0.209162 -3.919357
v 0.168411 -0.209162 -3.920185
v 0.165157 -0.209162 -3.920383
v 0.161928 -0.209162 -3.919941
v 0.158848 -0.209162 -3.918878
v 0.156033 -0.209162 -3.917235
v 0.153593 -0.209162 -3.915075
v 0.151622 -0.209162 -3.912480
v 0.150195 -0.209162 -3.909550
v 0.149367 -0.209162 -3.906398
v 0.149169 -0.209162 -3.903145
v 0.149610 -0.209162 -3.899915
v 0.150673 -0.209162 -3.896835
v 0.152316 -0.209162 -3.894021
v 0.154477 -0.209162 -3.891580
v 0.157072 -0.209162 -3.889609
v 0.160002 -0.209162 -3.888182
v 0.163154 -0.209162 -3.887354
v 0.166407 -0.209162 -3.887156
v 0.169636 -0.190059 -3.887598
v 0.172717 -0.190059 -3.888660
v 0.175531 -0.190059 -3.890303
v 0.177971 -0.190059 -3.892463
v 0.179942 -0.190059 -3.895059
v 0.181369 -0.190059 -3.897989
v 0.182198 -0.190059 -3.901141
v 0.182395 -0.190059 -3.904394
v 0.181954 -0.190059 -3.907623
v 0.180891 -0.190059 -3.910703
v 0.179248 -0.190059 -3.913518
v 0.177088 -0.190059 -3.915958
v 0.174492 -0.190059 -3.917930
v 0.171562 -0.190059 -3.919356
v 0.168410 -0.190059 -3.920185
v 0.165157 -0.190059 -3.920383
v 0.161928 -0.190059 -3.919941
v 0.158848 -0.190059 -3.918879
v 0.156033 -0.190059 -3.917236
v 0.153593 -0.190059 -3.915075
v 0.151622 -0.190059 -3.912480
v 0.150195 -0.190059 -3.909550
v 0.149367 -0.190059 -3.906398
v 0.149169 -0.190059 -3.903145
v 0.149610 -0.190059 -3.899916
v 0.150673 -0.190059 -3.896835
v 0.152316 -0.190059 -3.894021
v 0.154477 -0.190059 -3.891580
v 0.157072 -0.190059 -3.889609
v 0.160002 -0.190059 -3.888182
v 0.163154 -0.190059 -3.887354
v 0.166407 -0.190059 -3.887156
v 0.168079 -0.209162 -3.845927
v 0.171160 -0.209162 -3.846990
v 0.173974 -0.209162 -3.848633
v 0.176414 -0.209162 -3.850794
v 0.178385 -0.209162 -3.853389
v 0.179812 -0.209162 -3.856318
v 0.180641 -0.209162 -3.859471
v 0.180838 -0.209162 -3.862724
v 0.180397 -0.209162 -3.865953
v 0.179334 -0.209162 -3.869034
v 0.177691 -0.209162 -3.871848
v 0.175531 -0.209162 -3.874288
v 0.172935 -0.209162 -3.876259
v 0.170006 -0.209162 -3.877687
v 0.166853 -0.209162 -3.878514
v 0.163601 -0.209162 -3.878712
v 0.160371 -0.209162 -3.878271
v 0.157291 -0.209162 -3.877208
v 0.154476 -0.209162 -3.875565
v 0.152036 -0.209162 -3.873405
v 0.150065 -0.209162 -3.870810
v 0.148638 -0.209162 -3.867879
v 0.147810 -0.209162 -3.864727
v 0.147612 -0.209162 -3.861475
v 0.148053 -0.209162 -3.858245
v 0.149116 -0.209162 -3.855165
v 0.150759 -0.209162 -3.852350
v 0.152920 -0.209162 -3.849910
v 0.155515 -0.209162 -3.847939
v 0.158445 -0.209162 -3.846512
v 0.161597 -0.209162 -3.845684
v 0.164850 -0.209162 -3.845486
v 0.168079 -0.190059 -3.845927
v 0.171160 -0.190059 -3.846990
v 0.173974 -0.190059 -3.848633
v 0.176414 -0.190059 -3.850793
v 0.178385 -0.190059 -3.853389
v 0.179812 -0.190059 -3.856318
v 0.180641 -0.190059 -3.859471
v 0.180838 -0.190059 -3.862724
v 0.180397 -0.190059 -3.865953
v 0.179334 -0.190059 -3.869034
v 0.177691 -0.190059 -3.871848
v 0.175531 -0.190059 -3.874288
v 0.172935 -0.190059 -3.876259
v 0.170006 -0.190059 -3.877686
v 0.166854 -0.190059 -3.878515
v 0.163601 -0.190059 -3.878713
v 0.160371 -0.190059 -3.878271
v 0.157291 -0.190059 -3.877208
v 0.154476 -0.190059 -3.875565
v 0.152036 -0.190059 -3.873405
v 0.150065 -0.190059 -3.870810
v 0.148638 -0.190059 -3.867880
v 0.147810 -0.190059 -3.864727
v 0.147612 -0.190059 -3.861475
v 0.148053 -0.190059 -3.858245
v 0.149116 -0.190059 -3.855164
v 0.150759 -0.190059 -3.852350
v 0.152920 -0.190059 -3.849910
v 0.155515 -0.190059 -3.847939
v 0.158445 -0.190059 -3.846512
v 0.161597 -0.190059 -3.845684
v 0.164850 -0.190059 -3.845486
v 0.171776 -0.209162 -3.929768
v 0.174857 -0.209162 -3.930830
v 0.177671 -0.209162 -3.932474
v 0.180111 -0.209162 -3.934634
v 0.182082 -0.209162 -3.937229
v 0.183510 -0.209162 -3.940159
v 0.184338 -0.209162 -3.943311
v 0.184535 -0.209162 -3.946564
v 0.184094 -0.209162 -3.949794
v 0.183032 -0.209162 -3.952874
v 0.181388 -0.209162 -3.955688
v 0.179228 -0.209162 -3.958128
v 0.176633 -0.209162 -3.960100
v 0.173703 -0.209162 -3.961527
v 0.170551 -0.209162 -3.962355
v 0.167298 -0.209162 -3.962553
v 0.164069 -0.209162 -3.962111
v 0.160988 -0.209162 -3.961049
v 0.158173 -0.209162 -3.959406
v 0.155734 -0.209162 -3.957245
v 0.153762 -0.209162 -3.954650
v 0.152335 -0.209162 -3.951720
v 0.151507 -0.209162 -3.948568
v 0.151309 -0.209162 -3.945315
v 0.151750 -0.209162 -3.942086
v 0.152813 -0.209162 -3.939005
v 0.154456 -0.209162 -3.936191
v 0.156617 -0.209162 -3.933751
v 0.159212 -0.209162 -3.931779
v 0.162142 -0.209162 -3.930352
v 0.165294 -0.209162 -3.929524
v 0.168547 -0.209162 -3.929327
v 0.171776 -0.190059 -3.929768
v 0.174857 -0.190059 -3.930830
v 0.177671 -0.190059 -3.932474
v 0.180111 -0.190059 -3.934634
v 0.182082 -0.190059 -3.937229
v 0.183510 -0.190059 -3.940159
v 0.184338 -0.190059 -3.943311
v 0.184535 -0.190059 -3.946564
v 0.184094 -0.190059 -3.949794
v 0.183032 -0.190059 -3.952874
v 0.181388 -0.190059 -3.955688
v 0.179228 -0.190059 -3.958128
v 0.176633 -0.190059 -3.960100
v 0.173703 -0.190059 -3.961527
v 0.170551 -0.190059 -3.962355
v 0.167298 -0.190059 -3.962553
v 0.164069 -0.190059 -3.962111
v 0.160988 -0.190059 -3.961049
v 0.158173 -0.190059 -3.959406
v 0.155733 -0.190059 -3.957245
v 0.153762 -0.190059 -3.954650
v 0.152335 -0.190059 -3.951720
v 0.151507 -0.190059 -3.948567
v 0.151309 -0.190059 -3.945315
v 0.151750 -0.190059 -3.942086
v 0.152813 -0.190059 -3.939005
v 0.154456 -0.190059 -3.936191
v 0.156617 -0.190059 -3.933751
v 0.159212 -0.190059 -3.931779
v 0.162142 -0.190059 -3.930352
v 0.165294 -0.190059 -3.929524
v 0.168547 -0.190059 -3.929326
vn 0.9990 -0.0000 0.0457
vn -0.0457 -0.0048 0.9989
vn -0.9990 -0.0000 -0.0457
vn 0.0457 0.0049 -0.9989
vn 0.0002 -1.0000 -0.0048
vn -0.0002 1.0000 0.0048
vn -0.0000 -1.0000 0.0000
vn 0.0000 1.0000 0.0000
vn 0.6631 0.0000 0.7485
vn -0.2540 0.0000 0.9672
vn -0.3260 0.0000 -0.9454
vn 0.7963 -0.0000 0.6050
vn -0.0603 0.0000 0.9982
vn -0.5042 -0.0000 -0.8636
vn 0.8990 0.0000 0.4379
vn 0.1355 0.0000 0.9908
vn -0.6629 -0.0000 -0.7487
vn 0.9672 0.0000 0.2541
vn -0.7963 0.0000 -0.6048
vn 0.9982 0.0000 0.0606
vn -0.8990 0.0000 -0.4379
vn 0.9908 0.0000 -0.1353
vn -0.9672 0.0000 -0.2541
vn 0.9454 0.0000 -0.3259
vn -0.9982 0.0000 -0.0606
vn 0.8636 0.0000 -0.5041
vn -0.9908 -0.0000 0.1354
vn 0.7487 0.0000 -0.6630
vn -0.9454 0.0000 0.3260
vn 0.6050 -0.0000 -0.7962
vn -0.8636 0.0000 0.5041
vn 0.4382 -0.0000 -0.8989
vn -0.7487 0.0000 0.6629
vn 0.2539 0.0000 -0.9672
vn 0.3260 0.0000 0.9454
vn -0.6049 0.0000 0.7963
vn 0.0608 0.0000 -0.9982
vn 0.5041 0.0000 0.8636
vn -0.4381 0.0000 0.8989
vn -0.1352 0.0000 -0.9908
vn 0.6630 0.0000 0.7486
vn -0.2542 0.0000 0.9672
vn -0.3258 -0.0000 -0.9454
vn 0.7963 -0.0000 0.6049
vn -0.0606 0.0000 0.9982
vn -0.5041 -0.0000 -0.8636
vn -0.6632 -0.0000 -0.7485
vn 0.9672 0.0000 0.2542
vn -0.7962 0.0000 -0.6050
vn 0.9982 0.0000 0.0605
vn -0.8991 0.0000 -0.4378
vn 0.9908 0.0000 -0.1354
vn 0.9453 0.0000 -0.3261
vn 0.8636 0.0000 -0.5042
vn -0.9908 0.0000 0.1353
vn -0.9453 0.0000 0.3261
vn -0.8636 0.0000 0.5042
vn 0.4378 -0.0000 -0.8991
vn -0.7488 0.0000 0.6628
vn 0.2542 0.0000 -0.9672
vn 0.3262 0.0000 0.9453
vn -0.6047 0.0000 0.7964
vn 0.0606 0.0000 -0.9982
vn 0.5043 -0.0000 0.8636
vn -0.4380 0.0000 0.8990
vn -0.1355 0.0000 -0.9908
vn -0.3262 0.0000 -0.9453
vn 0.7964 -0.0000 0.6048
vn 0.8990 0.0000 0.4380
vn -0.6630 0.0000 -0.7486
vn 0.9454 0.0000 -0.3261
vn 0.7488 0.0000 -0.6628
vn 0.6049 0.0000 -0.7963
vn 0.4380 0.0000 -0.8990
vn -0.7486 -0.0000 0.6630
vn -0.6050 0.0000 0.7962
vn -0.4378 0.0000 0.8991
vn -0.1358 -0.0000 -0.9907
vn -0.0608 -0.0000 0.9982
vn 0.1352 -0.0000 0.9908
vn -0.7963 0.0000 -0.6049
vn 0.9453 0.0000 -0.3262
vn 0.7486 0.0000 -0.6631
vn -0.7487 0.0000 0.6630
vn 0.2540 0.0000 -0.9672
vn 0.0610 0.0000 -0.9981
vn 0.5043 0.0000 0.8635
vn 0.0457 0.0048 -0.9989
vn 0.0001 1.0000 0.0000
vn -0.2541 0.0000 0.9672
vn -0.0609 0.0000 0.9981
vn -0.5043 -0.0000 -0.8635
vn -0.8990 -0.0000 -0.4380
vn -0.9672 0.0000 -0.2542
vn -0.9982 0.0000 -0.0605
vn 0.8635 0.0000 -0.5043
vn 0.6047 -0.0000 -0.7964
vn 0.4381 0.0000 -0.8989
vn 0.3261 0.0000 0.9453
vn 0.0604 0.0000 -0.9982
vn 0.5040 0.0000 0.8637
vn 0.6629 -0.0000 0.7487
vn -0.5041 -0.0000 -0.8637
vn 0.8991 0.0000 0.4378
vn 0.9454 0.0000 -0.3260
vn 0.7486 0.0000 -0.6630
vn 0.2542 0.0000 -0.9671
vn 0.3258 -0.0000 0.9454
vn -0.1357 -0.0000 -0.9907
vn 0.7962 0.0000 0.6050
vn 0.1354 0.0000 0.9908
vn 0.7487 0.0000 -0.6629
vn 0.0609 -0.0000 -0.9981
vn 0.0605 0.0000 -0.9982
s off
f 1//1 4//1 3//1
f 4//2 7//2 3//2
f 8//3 5//3 7//3
f 5//4 2//4 1//4
f 3//5 5//5 1//5
f 4//6 6//6 8//6
f 13//7 12//7 19//7
f 71//8 72//8 56//8
f 11//9 44//9 43//9
f 39//10 70//10 38//10
f 25//11 58//11 57//11
f 12//12 45//12 44//12
f 40//13 71//13 39//13
f 26//14 59//14 58//14
f 14//15 45//15 13//15
f 9//16 72//16 40//16
f 28//17 59//17 27//17
f 15//18 46//18 14//18
f 28//19 61//19 60//19
f 15//20 48//20 47//20
f 30//21 61//21 29//21
f 17//22 48//22 16//22
f 31//23 62//23 30//23
f 17//24 50//24 49//24
f 32//25 63//25 31//25
f 18//26 51//26 50//26
f 32//27 65//27 64//27
f 20//28 51//28 19//28
f 33//29 66//29 65//29
f 20//30 53//30 52//30
f 34//31 67//31 66//31
f 22//32 53//32 21//32
f 35//33 68//33 67//33
f 22//34 55//34 54//34
f 10//35 41//35 9//35
f 36//36 69//36 68//36
f 24//37 55//37 23//37
f 11//38 42//38 10//38
f 37//39 70//39 69//39
f 25//40 56//40 24//40
f 77//7 76//7 83//7
f 135//8 136//8 120//8
f 76//41 107//41 75//41
f 102//42 135//42 134//42
f 89//43 122//43 121//43
f 76//44 109//44 108//44
f 104//45 135//45 103//45
f 91//46 122//46 90//46
f 78//15 109//15 77//15
f 73//16 136//16 104//16
f 91//47 124//47 123//47
f 79//48 110//48 78//48
f 93//49 124//49 92//49
f 80//50 111//50 79//50
f 94//51 125//51 93//51
f 80//52 113//52 112//52
f 94//23 127//23 126//23
f 81//53 114//53 113//53
f 95//25 128//25 127//25
f 82//54 115//54 114//54
f 97//55 128//55 96//55
f 84//28 115//28 83//28
f 97//56 130//56 129//56
f 85//30 116//30 84//30
f 98//57 131//57 130//57
f 85//58 118//58 117//58
f 100//59 131//59 99//59
f 87//60 118//60 86//60
f 74//61 105//61 73//61
f 100//62 133//62 132//62
f 88//63 119//63 87//63
f 74//64 107//64 106//64
f 102//65 133//65 101//65
f 89//66 120//66 88//66
f 141//7 140//7 147//7
f 199//8 200//8 184//8
f 140//9 171//9 139//9
f 167//42 198//42 166//42
f 154//67 185//67 153//67
f 140//68 173//68 172//68
f 167//45 200//45 199//45
f 155//46 186//46 154//46
f 141//69 174//69 173//69
f 137//16 200//16 168//16
f 156//70 187//70 155//70
f 143//18 174//18 142//18
f 157//49 188//49 156//49
f 143//50 176//50 175//50
f 157//51 190//51 189//51
f 144//52 177//52 176//52
f 158//23 191//23 190//23
f 145//71 178//71 177//71
f 159//25 192//25 191//25
f 147//26 178//26 146//26
f 161//55 192//55 160//55
f 147//72 180//72 179//72
f 162//56 193//56 161//56
f 149//73 180//73 148//73
f 163//57 194//57 162//57
f 150//74 181//74 149//74
f 163//75 196//75 195//75
f 150//34 183//34 182//34
f 138//35 169//35 137//35
f 164//76 197//76 196//76
f 152//37 183//37 151//37
f 139//38 170//38 138//38
f 166//77 197//77 165//77
f 152//78 185//78 184//78
f 205//7 204//7 211//7
f 263//8 264//8 248//8
f 204//41 235//41 203//41
f 230//10 263//10 262//10
f 218//11 249//11 217//11
f 204//44 237//44 236//44
f 232//79 263//79 231//79
f 219//46 250//46 218//46
f 206//15 237//15 205//15
f 201//80 264//80 232//80
f 220//70 251//70 219//70
f 207//18 238//18 206//18
f 221//81 252//81 220//81
f 208//20 239//20 207//20
f 221//51 254//51 253//51
f 209//22 240//22 208//22
f 222//23 255//23 254//23
f 210//82 241//82 209//82
f 224//25 255//25 223//25
f 211//54 242//54 210//54
f 225//27 256//27 224//27
f 211//83 244//83 243//83
f 226//56 257//56 225//56
f 213//30 244//30 212//30
f 226//57 259//57 258//57
f 213//58 246//58 245//58
f 227//84 260//84 259//84
f 215//85 246//85 214//85
f 201//35 234//35 233//35
f 228//76 261//76 260//76
f 216//86 247//86 215//86
f 203//87 234//87 202//87
f 230//65 261//65 229//65
f 217//40 248//40 216//40
f 1//1 2//1 4//1
f 4//2 8//2 7//2
f 8//3 6//3 5//3
f 5//88 6//88 2//88
f 3//5 7//5 5//5
f 4//6 2//6 6//6
f 11//7 10//7 21//7
f 10//7 9//7 22//7
f 22//7 9//7 23//7
f 9//7 40//7 23//7
f 40//7 39//7 24//7
f 23//7 40//7 24//7
f 39//7 38//7 25//7
f 38//7 37//7 26//7
f 26//7 37//7 27//7
f 37//7 36//7 27//7
f 36//7 35//7 28//7
f 27//7 36//7 28//7
f 35//7 34//7 29//7
f 34//7 33//7 30//7
f 30//7 33//7 31//7
f 33//7 32//7 31//7
f 30//7 29//7 34//7
f 29//7 28//7 35//7
f 26//7 25//7 38//7
f 25//7 24//7 39//7
f 22//7 21//7 10//7
f 21//7 20//7 11//7
f 20//7 19//7 12//7
f 11//7 20//7 12//7
f 19//7 18//7 13//7
f 18//7 17//7 14//7
f 14//7 17//7 15//7
f 17//7 16//7 15//7
f 14//7 13//7 18//7
f 41//8 42//8 54//8
f 42//8 43//8 53//8
f 43//8 44//8 52//8
f 44//8 45//8 51//8
f 43//8 52//8 53//8
f 45//8 46//8 50//8
f 46//8 47//8 49//8
f 47//89 48//89 49//89
f 49//8 50//8 46//8
f 50//8 51//8 45//8
f 51//8 52//8 44//8
f 53//8 54//8 42//8
f 54//8 55//8 41//8
f 55//8 56//8 72//8
f 56//8 57//8 71//8
f 55//8 72//8 41//8
f 57//8 58//8 70//8
f 58//8 59//8 69//8
f 59//8 60//8 68//8
f 60//8 61//8 67//8
f 59//8 68//8 69//8
f 61//8 62//8 66//8
f 62//8 63//8 65//8
f 63//8 64//8 65//8
f 65//8 66//8 62//8
f 66//8 67//8 61//8
f 67//8 68//8 60//8
f 69//8 70//8 58//8
f 70//8 71//8 57//8
f 11//41 12//41 44//41
f 39//90 71//90 70//90
f 25//67 26//67 58//67
f 12//44 13//44 45//44
f 40//91 72//91 71//91
f 26//92 27//92 59//92
f 14//69 46//69 45//69
f 9//80 41//80 72//80
f 28//70 60//70 59//70
f 15//18 47//18 46//18
f 28//81 29//81 61//81
f 15//20 16//20 48//20
f 30//93 62//93 61//93
f 17//22 49//22 48//22
f 31//94 63//94 62//94
f 17//53 18//53 50//53
f 32//95 64//95 63//95
f 18//96 19//96 51//96
f 32//55 33//55 65//55
f 20//28 52//28 51//28
f 33//56 34//56 66//56
f 20//97 21//97 53//97
f 34//57 35//57 67//57
f 22//98 54//98 53//98
f 35//84 36//84 68//84
f 22//85 23//85 55//85
f 10//99 42//99 41//99
f 36//36 37//36 69//36
f 24//100 56//100 55//100
f 11//101 43//101 42//101
f 37//77 38//77 70//77
f 25//40 57//40 56//40
f 75//7 74//7 85//7
f 74//7 73//7 86//7
f 86//7 73//7 87//7
f 73//7 104//7 87//7
f 104//7 103//7 88//7
f 87//7 104//7 88//7
f 103//7 102//7 89//7
f 102//7 101//7 90//7
f 90//7 101//7 91//7
f 101//7 100//7 91//7
f 100//7 99//7 92//7
f 91//7 100//7 92//7
f 99//7 98//7 93//7
f 98//7 97//7 94//7
f 94//7 97//7 95//7
f 97//7 96//7 95//7
f 94//7 93//7 98//7
f 93//7 92//7 99//7
f 90//7 89//7 102//7
f 89//7 88//7 103//7
f 86//7 85//7 74//7
f 85//7 84//7 75//7
f 84//7 83//7 76//7
f 75//7 84//7 76//7
f 83//7 82//7 77//7
f 82//7 81//7 78//7
f 78//7 81//7 79//7
f 81//7 80//7 79//7
f 78//7 77//7 82//7
f 105//8 106//8 118//8
f 106//8 107//8 117//8
f 107//8 108//8 116//8
f 108//8 109//8 115//8
f 107//8 116//8 117//8
f 109//8 110//8 114//8
f 110//8 111//8 113//8
f 111//8 112//8 113//8
f 113//8 114//8 110//8
f 114//8 115//8 109//8
f 115//8 116//8 108//8
f 117//8 118//8 106//8
f 118//8 119//8 105//8
f 119//8 120//8 136//8
f 120//8 121//8 135//8
f 119//8 136//8 105//8
f 121//8 122//8 134//8
f 122//8 123//8 133//8
f 123//8 124//8 132//8
f 124//8 125//8 131//8
f 123//8 132//8 133//8
f 125//8 126//8 130//8
f 126//8 127//8 129//8
f 127//8 128//8 129//8
f 129//8 130//8 126//8
f 130//8 131//8 125//8
f 131//8 132//8 124//8
f 133//8 134//8 122//8
f 134//8 135//8 121//8
f 76//102 108//102 107//102
f 102//10 103//10 135//10
f 89//67 90//67 122//67
f 76//44 77//44 109//44
f 104//79 136//79 135//79
f 91//103 123//103 122//103
f 78//104 110//104 109//104
f 73//16 105//16 136//16
f 91//17 92//17 124//17
f 79//18 111//18 110//18
f 93//81 125//81 124//81
f 80//20 112//20 111//20
f 94//21 126//21 125//21
f 80//22 81//22 113//22
f 94//94 95//94 127//94
f 81//105 82//105 114//105
f 95//25 96//25 128//25
f 82//54 83//54 115//54
f 97//55 129//55 128//55
f 84//106 116//106 115//106
f 97//56 98//56 130//56
f 85//73 117//73 116//73
f 98//57 99//57 131//57
f 85//58 86//58 118//58
f 100//75 132//75 131//75
f 87//107 119//107 118//107
f 74//108 106//108 105//108
f 100//36 101//36 133//36
f 88//37 120//37 119//37
f 74//38 75//38 107//38
f 102//65 134//65 133//65
f 89//109 121//109 120//109
f 139//7 138//7 149//7
f 138//7 137//7 150//7
f 150//7 137//7 151//7
f 137//7 168//7 151//7
f 168//7 167//7 152//7
f 151//7 168//7 152//7
f 167//7 166//7 153//7
f 166//7 165//7 154//7
f 154//7 165//7 155//7
f 165//7 164//7 155//7
f 164//7 163//7 156//7
f 155//7 164//7 156//7
f 163//7 162//7 157//7
f 162//7 161//7 158//7
f 158//7 161//7 159//7
f 161//7 160//7 159//7
f 158//7 157//7 162//7
f 157//7 156//7 163//7
f 154//7 153//7 166//7
f 153//7 152//7 167//7
f 150//7 149//7 138//7
f 149//7 148//7 139//7
f 148//7 147//7 140//7
f 139//7 148//7 140//7
f 147//7 146//7 141//7
f 146//7 145//7 142//7
f 142//7 145//7 143//7
f 145//7 144//7 143//7
f 142//7 141//7 146//7
f 169//8 170//8 182//8
f 170//8 171//8 181//8
f 171//8 172//8 180//8
f 172//8 173//8 179//8
f 171//8 180//8 181//8
f 173//8 174//8 178//8
f 174//8 175//8 177//8
f 175//8 176//8 177//8
f 177//8 178//8 174//8
f 178//8 179//8 173//8
f 179//8 180//8 172//8
f 181//8 182//8 170//8
f 182//8 183//8 169//8
f 183//8 184//8 200//8
f 184//8 185//8 199//8
f 183//8 200//8 169//8
f 185//8 186//8 198//8
f 186//8 187//8 197//8
f 187//8 188//8 196//8
f 188//8 189//8 195//8
f 187//8 196//8 197//8
f 189//8 190//8 194//8
f 190//8 191//8 193//8
f 191//8 192//8 193//8
f 193//8 194//8 190//8
f 194//8 195//8 189//8
f 195//8 196//8 188//8
f 197//8 198//8 186//8
f 198//8 199//8 185//8
f 140//102 172//102 171//102
f 167//10 199//10 198//10
f 154//11 186//11 185//11
f 140//110 141//110 173//110
f 167//79 168//79 200//79
f 155//46 187//46 186//46
f 141//69 142//69 174//69
f 137//111 169//111 200//111
f 156//17 188//17 187//17
f 143//18 175//18 174//18
f 157//81 189//81 188//81
f 143//20 144//20 176//20
f 157//51 158//51 190//51
f 144//22 145//22 177//22
f 158//23 159//23 191//23
f 145//53 146//53 178//53
f 159//25 160//25 192//25
f 147//96 179//96 178//96
f 161//55 193//55 192//55
f 147//112 148//112 180//112
f 162//29 194//29 193//29
f 149//97 181//97 180//97
f 163//57 195//57 194//57
f 150//74 182//74 181//74
f 163//33 164//33 196//33
f 150//85 151//85 183//85
f 138//35 170//35 169//35
f 164//76 165//76 197//76
f 152//113 184//113 183//113
f 139//87 171//87 170//87
f 166//77 198//77 197//77
f 152//40 153//40 185//40
f 203//7 202//7 213//7
f 202//7 201//7 214//7
f 214//7 201//7 215//7
f 201//7 232//7 215//7
f 232//7 231//7 216//7
f 215//7 232//7 216//7
f 231//7 230//7 217//7
f 230//7 229//7 218//7
f 218//7 229//7 219//7
f 229//7 228//7 219//7
f 228//7 227//7 220//7
f 219//7 228//7 220//7
f 227//7 226//7 221//7
f 226//7 225//7 222//7
f 222//7 225//7 223//7
f 225//7 224//7 223//7
f 222//7 221//7 226//7
f 221//7 220//7 227//7
f 218//7 217//7 230//7
f 217//7 216//7 231//7
f 214//7 213//7 202//7
f 213//7 212//7 203//7
f 212//7 211//7 204//7
f 203//7 212//7 204//7
f 211//7 210//7 205//7
f 210//7 209//7 206//7
f 206//7 209//7 207//7
f 209//7 208//7 207//7
f 206//7 205//7 210//7
f 233//8 234//8 246//8
f 234//8 235//8 245//8
f 235//8 236//8 244//8
f 236//8 237//8 243//8
f 235//8 244//8 245//8
f 237//8 238//8 242//8
f 238//8 239//8 241//8
f 239//8 240//8 241//8
f 241//8 242//8 238//8
f 242//8 243//8 237//8
f 243//8 244//8 236//8
f 245//8 246//8 234//8
f 246//8 247//8 233//8
f 247//8 248//8 264//8
f 248//8 249//8 263//8
f 247//8 264//8 233//8
f 249//8 250//8 262//8
f 250//8 251//8 261//8
f 251//8 252//8 260//8
f 252//8 253//8 259//8
f 251//8 260//8 261//8
f 253//8 254//8 258//8
f 254//8 255//8 257//8
f 255//8 256//8 257//8
f 257//8 258//8 254//8
f 258//8 259//8 253//8
f 259//8 260//8 252//8
f 261//8 262//8 250//8
f 262//8 263//8 249//8
f 204//102 236//102 235//102
f 230//10 231//10 263//10
f 218//11 250//11 249//11
f 204//44 205//44 237//44
f 232//45 264//45 263//45
f 219//92 251//92 250//92
f 206//69 238//69 237//69
f 201//16 233//16 264//16
f 220//70 252//70 251//70
f 207//18 239//18 238//18
f 221//49 253//49 252//49
f 208//20 240//20 239//20
f 221//21 222//21 254//21
f 209//22 241//22 240//22
f 222//23 223//23 255//23
f 210//105 242//105 241//105
f 224//25 256//25 255//25
f 211//54 243//54 242//54
f 225//55 257//55 256//55
f 211//28 212//28 244//28
f 226//56 258//56 257//56
f 213//73 245//73 244//73
f 226//57 227//57 259//57
f 213//74 214//74 246//74
f 227//84 228//84 260//84
f 215//85 247//85 246//85
f 201//35 202//35 234//35
f 228//36 229//36 261//36
f 216//114 248//114 247//114
f 203//87 235//87 234//87
f 230//65 262//65 261//65
f 217//66 249//66 248//66
