# Blender v2.79 (sub 7) OBJ File: 'Universe Gate.blend'
# www.blender.org
o 12_Cube.034
v -1.381684 -0.227366 -3.520503
v -1.381556 -0.200773 -3.520489
v -1.367842 -0.227452 -3.485702
v -1.367714 -0.200858 -3.485687
v -1.398928 -0.227287 -3.513644
v -1.398800 -0.200693 -3.513630
v -1.385086 -0.227372 -3.478843
v -1.384957 -0.200779 -3.478828
v -1.470918 -0.222066 -3.740099
v -1.483321 -0.221869 -3.716954
v -1.434546 -0.221941 -3.663954
v -1.451025 -0.221747 -3.647213
v -1.441789 -0.221929 -3.671520
v -1.444443 -0.223214 -3.676319
v -1.446170 -0.222925 -3.684606
v -1.448296 -0.222263 -3.698695
v -1.451232 -0.222071 -3.713712
v -1.456562 -0.222081 -3.723289
v -1.463718 -0.222083 -3.733586
v -1.476121 -0.221886 -3.710441
v -1.473235 -0.221886 -3.706422
v -1.468125 -0.221881 -3.698288
v -1.466611 -0.221575 -3.692028
v -1.466143 -0.220347 -3.681415
v -1.464951 -0.221026 -3.669746
v -1.459807 -0.221736 -3.657090
v -1.470783 -0.198423 -3.740203
v -1.483186 -0.198226 -3.717057
v -1.434411 -0.198298 -3.664057
v -1.450890 -0.198104 -3.647316
v -1.441655 -0.198286 -3.671622
v -1.444309 -0.199571 -3.676423
v -1.446035 -0.199282 -3.684709
v -1.448162 -0.198620 -3.698798
v -1.451097 -0.198428 -3.713814
v -1.456427 -0.198439 -3.723393
v -1.463583 -0.198440 -3.733689
v -1.475987 -0.198243 -3.710544
v -1.473100 -0.198243 -3.706524
v -1.467991 -0.198238 -3.698391
v -1.466476 -0.197932 -3.692132
v -1.466008 -0.196704 -3.681519
v -1.464816 -0.197383 -3.669849
v -1.459672 -0.198093 -3.657194
v -1.406074 -0.219096 -3.571428
v -1.403703 -0.219112 -3.573664
v -1.401813 -0.219129 -3.576320
v -1.400478 -0.219144 -3.579293
v -1.399749 -0.219159 -3.582469
v -1.399653 -0.219173 -3.585726
v -1.400195 -0.219184 -3.588940
v -1.401353 -0.219192 -3.591986
v -1.403083 -0.219198 -3.594748
v -1.405319 -0.219201 -3.597119
v -1.407974 -0.219200 -3.599008
v -1.410947 -0.219196 -3.600344
v -1.414123 -0.219190 -3.601073
v -1.417381 -0.219180 -3.601169
v -1.420594 -0.219168 -3.600627
v -1.423641 -0.219154 -3.599469
v -1.426403 -0.219139 -3.597739
v -1.428774 -0.219123 -3.595503
v -1.430663 -0.219107 -3.592848
v -1.431998 -0.219091 -3.589875
v -1.432728 -0.219076 -3.586699
v -1.432823 -0.219063 -3.583441
v -1.432282 -0.219052 -3.580228
v -1.431124 -0.219043 -3.577182
v -1.429393 -0.219037 -3.574420
v -1.427158 -0.219035 -3.572048
v -1.424502 -0.219035 -3.570159
v -1.421529 -0.219039 -3.568824
v -1.418353 -0.219046 -3.568094
v -1.415095 -0.219055 -3.567999
v -1.411882 -0.219067 -3.568541
v -1.408836 -0.219081 -3.569698
v -1.406016 -0.199994 -3.571504
v -1.403645 -0.200010 -3.573740
v -1.401755 -0.200026 -3.576395
v -1.400420 -0.200042 -3.579368
v -1.399691 -0.200057 -3.582545
v -1.399595 -0.200070 -3.585802
v -1.400137 -0.200081 -3.589016
v -1.401295 -0.200090 -3.592062
v -1.403025 -0.200096 -3.594824
v -1.405261 -0.200098 -3.597195
v -1.407916 -0.200098 -3.599084
v -1.410889 -0.200094 -3.600420
v -1.414065 -0.200087 -3.601149
v -1.417323 -0.200078 -3.601245
v -1.420537 -0.200066 -3.600703
v -1.423583 -0.200052 -3.599545
v -1.426345 -0.200037 -3.597815
v -1.428716 -0.200021 -3.595579
v -1.430605 -0.200004 -3.592924
v -1.431940 -0.199989 -3.589951
v -1.432670 -0.199974 -3.586775
v -1.432766 -0.199960 -3.583517
v -1.432224 -0.199949 -3.580303
v -1.431066 -0.199941 -3.577257
v -1.429335 -0.199935 -3.574496
v -1.427100 -0.199932 -3.572125
v -1.424444 -0.199933 -3.570235
v -1.421471 -0.199937 -3.568900
v -1.418295 -0.199943 -3.568171
v -1.415038 -0.199953 -3.568075
v -1.411824 -0.199965 -3.568616
v -1.408778 -0.199979 -3.569774
v -1.421795 -0.219202 -3.610051
v -1.419423 -0.219218 -3.612287
v -1.417534 -0.219234 -3.614942
v -1.416199 -0.219250 -3.617915
v -1.415470 -0.219265 -3.621091
v -1.415374 -0.219278 -3.624349
v -1.415915 -0.219290 -3.627562
v -1.417074 -0.219298 -3.630609
v -1.418804 -0.219304 -3.633370
v -1.421039 -0.219307 -3.635741
v -1.423695 -0.219306 -3.637631
v -1.426668 -0.219302 -3.638966
v -1.429844 -0.219296 -3.639695
v -1.433102 -0.219286 -3.639791
v -1.436315 -0.219274 -3.639250
v -1.439362 -0.219260 -3.638092
v -1.442123 -0.219245 -3.636362
v -1.444495 -0.219229 -3.634126
v -1.446384 -0.219213 -3.631470
v -1.447719 -0.219197 -3.628497
v -1.448448 -0.219182 -3.625321
v -1.448544 -0.219169 -3.622063
v -1.448003 -0.219158 -3.618850
v -1.446844 -0.219149 -3.615803
v -1.445114 -0.219143 -3.613042
v -1.442879 -0.219141 -3.610671
v -1.440223 -0.219141 -3.608782
v -1.437250 -0.219145 -3.607446
v -1.434074 -0.219152 -3.606717
v -1.430816 -0.219161 -3.606621
v -1.427603 -0.219173 -3.607163
v -1.424556 -0.219187 -3.608321
v -1.421737 -0.200100 -3.610127
v -1.419366 -0.200116 -3.612362
v -1.417476 -0.200132 -3.615018
v -1.416141 -0.200148 -3.617991
v -1.415412 -0.200163 -3.621167
v -1.415316 -0.200176 -3.624424
v -1.415858 -0.200187 -3.627638
v -1.417016 -0.200196 -3.630685
v -1.418746 -0.200201 -3.633446
v -1.420982 -0.200204 -3.635817
v -1.423637 -0.200204 -3.637707
v -1.426610 -0.200200 -3.639042
v -1.429786 -0.200193 -3.639771
v -1.433044 -0.200184 -3.639867
v -1.436258 -0.200172 -3.639326
v -1.439304 -0.200158 -3.638168
v -1.442066 -0.200143 -3.636437
v -1.444437 -0.200127 -3.634202
v -1.446326 -0.200110 -3.631546
v -1.447661 -0.200094 -3.628573
v -1.448390 -0.200080 -3.625397
v -1.448486 -0.200066 -3.622140
v -1.447945 -0.200055 -3.618926
v -1.446787 -0.200047 -3.615880
v -1.445056 -0.200041 -3.613118
v -1.442821 -0.200038 -3.610747
v -1.440165 -0.200039 -3.608857
v -1.437192 -0.200042 -3.607522
v -1.434016 -0.200049 -3.606792
v -1.430758 -0.200059 -3.606697
v -1.427545 -0.200071 -3.607238
v -1.424498 -0.200084 -3.608397
v -1.389569 -0.218981 -3.529898
v -1.387198 -0.218997 -3.532134
v -1.385308 -0.219013 -3.534789
v -1.383973 -0.219029 -3.537762
v -1.383244 -0.219044 -3.540938
v -1.383148 -0.219057 -3.544196
v -1.383690 -0.219069 -3.547410
v -1.384848 -0.219077 -3.550456
v -1.386578 -0.219083 -3.553218
v -1.388814 -0.219086 -3.555588
v -1.391469 -0.219085 -3.557478
v -1.394442 -0.219081 -3.558814
v -1.397618 -0.219075 -3.559543
v -1.400876 -0.219065 -3.559639
v -1.404089 -0.219053 -3.559097
v -1.407136 -0.219039 -3.557939
v -1.409898 -0.219024 -3.556209
v -1.412269 -0.219008 -3.553973
v -1.414158 -0.218992 -3.551318
v -1.415493 -0.218976 -3.548345
v -1.416223 -0.218961 -3.545168
v -1.416318 -0.218948 -3.541911
v -1.415777 -0.218937 -3.538697
v -1.414619 -0.218928 -3.535651
v -1.412888 -0.218922 -3.532889
v -1.410653 -0.218920 -3.530518
v -1.407997 -0.218920 -3.528629
v -1.405024 -0.218924 -3.527293
v -1.401848 -0.218931 -3.526564
v -1.398590 -0.218940 -3.526468
v -1.395377 -0.218952 -3.527010
v -1.392330 -0.218966 -3.528168
v -1.389511 -0.199879 -3.529974
v -1.387140 -0.199895 -3.532209
v -1.385250 -0.199911 -3.534865
v -1.383915 -0.199927 -3.537838
v -1.383186 -0.199942 -3.541014
v -1.383090 -0.199955 -3.544272
v -1.383632 -0.199966 -3.547485
v -1.384790 -0.199975 -3.550532
v -1.386520 -0.199980 -3.553293
v -1.388756 -0.199983 -3.555665
v -1.391411 -0.199983 -3.557554
v -1.394384 -0.199979 -3.558890
v -1.397560 -0.199972 -3.559619
v -1.400818 -0.199963 -3.559715
v -1.404032 -0.199951 -3.559173
v -1.407078 -0.199937 -3.558015
v -1.409840 -0.199922 -3.556285
v -1.412211 -0.199906 -3.554049
v -1.414100 -0.199889 -3.551394
v -1.415435 -0.199874 -3.548421
v -1.416165 -0.199859 -3.545244
v -1.416261 -0.199845 -3.541987
v -1.415719 -0.199834 -3.538773
v -1.414561 -0.199826 -3.535727
v -1.412831 -0.199820 -3.532965
v -1.410595 -0.199817 -3.530594
v -1.407939 -0.199818 -3.528704
v -1.404966 -0.199822 -3.527369
v -1.401790 -0.199828 -3.526640
v -1.398533 -0.199838 -3.526544
v -1.395319 -0.199850 -3.527086
v -1.392273 -0.199863 -3.528244
vn 0.9292 -0.0043 -0.3696
vn 0.3696 -0.0023 0.9292
vn -0.9292 0.0043 0.3696
vn -0.3696 0.0023 -0.9292
vn -0.0048 -1.0000 -0.0005
vn 0.0048 1.0000 0.0005
vn -0.0068 -1.0000 0.0049
vn 0.0273 -0.9987 0.0422
vn 0.0045 -0.9934 0.1148
vn -0.1348 -0.9899 -0.0438
vn -0.1096 -0.9939 -0.0112
vn 0.0068 1.0000 -0.0049
vn 0.0394 0.9992 0.0051
vn 0.1321 0.9909 0.0266
vn 0.1098 0.9939 0.0118
vn -0.1374 0.9732 -0.1846
vn 0.9814 -0.0064 -0.1920
vn -0.8814 0.0030 -0.4724
vn -0.9948 0.0061 0.1020
vn 0.8738 -0.0071 -0.4862
vn -0.7473 0.0071 0.6645
vn -0.9262 0.0069 0.3769
vn 0.8211 -0.0072 -0.5707
vn 0.7126 -0.0010 0.7015
vn -0.6709 0.0071 0.7415
vn 0.7222 -0.0071 -0.6916
vn -0.8121 0.0072 0.5834
vn 0.8759 -0.0071 -0.4824
vn -0.8468 0.0071 0.5319
vn 0.9789 -0.0065 -0.2041
vn -0.9720 0.0066 0.2348
vn 0.9887 -0.0063 -0.1495
vn 0.6709 -0.0071 -0.7416
vn -0.9990 0.0059 0.0434
vn -0.0030 -1.0000 0.0040
vn 0.0030 1.0000 -0.0040
vn 0.9123 -0.0012 0.4096
vn 0.1663 0.0034 0.9861
vn -0.6861 -0.0008 -0.7275
vn 0.9746 -0.0021 0.2237
vn 0.3552 0.0026 0.9348
vn -0.8148 0.0002 -0.5797
vn 0.9996 -0.0029 0.0294
vn 0.5309 0.0018 0.8474
vn -0.9123 0.0012 -0.4096
vn 0.9861 -0.0036 -0.1662
vn -0.9746 0.0021 -0.2239
vn 0.9347 -0.0042 -0.3553
vn -0.9996 0.0029 -0.0294
vn 0.8475 -0.0047 -0.5308
vn -0.9861 0.0036 0.1662
vn 0.7275 -0.0049 -0.6861
vn -0.9347 0.0042 0.3554
vn 0.5796 -0.0050 -0.8149
vn -0.8474 0.0047 0.5309
vn 0.4096 -0.0049 -0.9123
vn -0.7276 0.0049 0.6860
vn 0.2238 -0.0046 -0.9746
vn -0.5797 0.0050 0.8148
vn 0.0294 -0.0041 -0.9996
vn -0.4095 0.0049 0.9123
vn -0.1664 -0.0034 -0.9861
vn 0.6861 0.0008 0.7275
vn -0.2238 0.0045 0.9746
vn -0.3554 -0.0026 -0.9347
vn 0.8148 -0.0002 0.5798
vn -0.0294 0.0041 0.9996
vn -0.5311 -0.0018 -0.8473
vn 0.9122 -0.0012 0.4097
vn 0.1661 0.0034 0.9861
vn -0.6860 -0.0008 -0.7276
vn 0.9746 -0.0020 0.2239
vn -0.8149 0.0002 -0.5796
vn 0.5309 0.0017 0.8474
vn 0.9861 -0.0037 -0.1662
vn -0.9746 0.0021 -0.2238
vn 0.8473 -0.0047 -0.5311
vn 0.7276 -0.0049 -0.6860
vn -0.9347 0.0042 0.3553
vn 0.4096 -0.0049 -0.9122
vn 0.2240 -0.0046 -0.9746
vn 0.0295 -0.0041 -0.9996
vn -0.4099 0.0049 0.9121
vn -0.1661 -0.0034 -0.9861
vn 0.6860 0.0008 0.7276
vn -0.2238 0.0046 0.9746
vn -0.3553 -0.0027 -0.9347
vn 0.8149 -0.0002 0.5796
vn -0.0292 0.0041 0.9996
vn -0.5309 -0.0018 -0.8474
vn 0.9122 -0.0011 0.4097
vn 0.9746 -0.0020 0.2238
vn 0.3554 0.0026 0.9347
vn -0.8148 0.0002 -0.5798
vn -0.9123 0.0011 -0.4096
vn -0.9746 0.0021 -0.2237
vn -0.9347 0.0043 0.3554
vn 0.5799 -0.0050 -0.8147
vn 0.4099 -0.0049 -0.9121
vn -0.7275 0.0049 0.6861
vn 0.2237 -0.0045 -0.9747
vn -0.5795 0.0050 0.8149
vn -0.4098 0.0049 0.9122
vn -0.1658 -0.0034 -0.9862
vn 0.6859 0.0008 0.7277
vn -0.2236 0.0046 0.9747
vn -0.5309 -0.0017 -0.8475
vn -0.0394 -0.9992 -0.0051
vn -0.1321 -0.9909 -0.0266
vn -0.1098 -0.9939 -0.0118
vn 0.1374 -0.9732 0.1846
vn -0.0273 0.9987 -0.0422
vn -0.0045 0.9934 -0.1148
vn 0.1347 0.9899 0.0438
vn 0.1096 0.9939 0.0112
vn 0.9814 -0.0064 -0.1919
vn -0.7473 0.0071 0.6644
vn 0.7127 -0.0010 0.7015
vn -0.6708 0.0070 0.7416
vn 0.7223 -0.0071 -0.6916
vn -0.8123 0.0072 0.5833
vn 0.8759 -0.0071 -0.4825
vn -0.8467 0.0071 0.5320
vn 0.9789 -0.0065 -0.2042
vn -0.9720 0.0066 0.2349
vn 0.6709 -0.0071 -0.7415
vn 0.0031 1.0000 -0.0040
vn 0.9122 -0.0011 0.4098
vn 0.9746 -0.0021 0.2239
vn 0.3555 0.0026 0.9347
vn -0.8147 0.0002 -0.5799
vn 0.5308 0.0018 0.8475
vn -0.9122 0.0011 -0.4097
vn -0.9746 0.0020 -0.2238
vn 0.9347 -0.0042 -0.3554
vn 0.7276 -0.0050 -0.6860
vn 0.5797 -0.0050 -0.8148
vn 0.4097 -0.0049 -0.9122
vn 0.2238 -0.0045 -0.9746
vn -0.4097 0.0048 0.9122
vn -0.3552 -0.0026 -0.9348
vn 0.8147 -0.0002 0.5799
vn -0.0295 0.0041 0.9996
vn -0.5309 -0.0018 -0.8475
vn 0.9746 -0.0021 0.2238
vn 0.3557 0.0026 0.9346
vn 0.9996 -0.0029 0.0293
vn 0.5309 0.0018 0.8475
vn -0.9122 0.0012 -0.4098
vn 0.9347 -0.0043 -0.3553
vn 0.8474 -0.0047 -0.5309
vn 0.7276 -0.0049 -0.6859
vn -0.9347 0.0043 0.3553
vn 0.5800 -0.0050 -0.8146
vn 0.2236 -0.0046 -0.9747
vn -0.5796 0.0050 0.8149
vn -0.4096 0.0049 0.9122
vn -0.3550 -0.0026 -0.9349
vn 0.8148 -0.0002 0.5797
vn -0.5309 -0.0017 -0.8474
vn -0.6859 -0.0008 -0.7277
vn 0.5310 0.0018 0.8474
vn -0.9122 0.0011 -0.4098
vn -0.9746 0.0020 -0.2239
vn 0.8474 -0.0047 -0.5310
vn -0.9861 0.0037 0.1662
vn -0.9348 0.0042 0.3553
vn 0.4098 -0.0049 -0.9122
vn -0.7277 0.0050 0.6858
vn 0.0294 -0.0040 -0.9996
vn -0.2239 0.0046 0.9746
s off
f 2//1 3//1 1//1
f 3//2 8//2 7//2
f 7//3 6//3 5//3
f 6//4 1//4 5//4
f 7//5 1//5 3//5
f 8//6 2//6 6//6
f 13//7 12//7 26//7
f 9//7 20//7 10//7
f 19//7 21//7 20//7
f 18//7 22//7 21//7
f 17//8 23//8 22//8
f 16//9 24//9 23//9
f 15//10 25//10 24//10
f 14//11 26//11 25//11
f 31//12 30//12 29//12
f 27//12 38//12 37//12
f 37//12 39//12 36//12
f 36//12 40//12 35//12
f 35//13 41//13 34//13
f 34//14 42//14 33//14
f 33//15 43//15 32//15
f 32//16 44//16 31//16
f 17//17 34//17 16//17
f 10//18 27//18 9//18
f 24//19 43//19 42//19
f 17//20 36//20 35//20
f 12//21 44//21 26//21
f 25//22 44//22 43//22
f 18//23 37//23 36//23
f 11//24 30//24 12//24
f 20//25 28//25 10//25
f 11//26 31//26 29//26
f 21//27 38//27 20//27
f 13//28 32//28 31//28
f 22//29 39//29 21//29
f 15//30 32//30 14//30
f 23//31 40//31 22//31
f 16//32 33//32 15//32
f 19//33 27//33 37//33
f 24//34 41//34 23//34
f 49//35 48//35 51//35
f 107//36 108//36 88//36
f 47//37 80//37 79//37
f 75//38 106//38 74//38
f 61//39 94//39 93//39
f 48//40 81//40 80//40
f 76//41 107//41 75//41
f 62//42 95//42 94//42
f 49//43 82//43 81//43
f 45//44 108//44 76//44
f 64//45 95//45 63//45
f 50//46 83//46 82//46
f 65//47 96//47 64//47
f 51//48 84//48 83//48
f 66//49 97//49 65//49
f 52//50 85//50 84//50
f 67//51 98//51 66//51
f 53//52 86//52 85//52
f 68//53 99//53 67//53
f 54//54 87//54 86//54
f 69//55 100//55 68//55
f 55//56 88//56 87//56
f 70//57 101//57 69//57
f 56//58 89//58 88//58
f 71//59 102//59 70//59
f 57//60 90//60 89//60
f 72//61 103//61 71//61
f 58//62 91//62 90//62
f 46//63 77//63 45//63
f 73//64 104//64 72//64
f 59//65 92//65 91//65
f 47//66 78//66 46//66
f 74//67 105//67 73//67
f 60//68 93//68 92//68
f 113//35 112//35 115//35
f 171//36 172//36 152//36
f 111//69 144//69 143//69
f 139//70 170//70 138//70
f 125//71 158//71 157//71
f 112//72 145//72 144//72
f 140//41 171//41 139//41
f 126//73 159//73 158//73
f 113//43 146//43 145//43
f 109//74 172//74 140//74
f 128//45 159//45 127//45
f 114//75 147//75 146//75
f 129//76 160//76 128//76
f 115//48 148//48 147//48
f 130//49 161//49 129//49
f 116//77 149//77 148//77
f 131//51 162//51 130//51
f 117//78 150//78 149//78
f 132//79 163//79 131//79
f 118//54 151//54 150//54
f 133//55 164//55 132//55
f 119//80 152//80 151//80
f 134//57 165//57 133//57
f 120//81 153//81 152//81
f 135//59 166//59 134//59
f 121//82 154//82 153//82
f 136//83 167//83 135//83
f 122//84 155//84 154//84
f 110//85 141//85 109//85
f 137//86 168//86 136//86
f 123//87 156//87 155//87
f 111//88 142//88 110//88
f 138//89 169//89 137//89
f 124//90 157//90 156//90
f 177//35 176//35 179//35
f 235//36 236//36 216//36
f 175//91 208//91 207//91
f 203//70 234//70 202//70
f 189//71 222//71 221//71
f 176//92 209//92 208//92
f 204//93 235//93 203//93
f 190//94 223//94 222//94
f 177//43 210//43 209//43
f 173//44 236//44 204//44
f 192//95 223//95 191//95
f 178//75 211//75 210//75
f 193//96 224//96 192//96
f 179//48 212//48 211//48
f 194//49 225//49 193//49
f 180//50 213//50 212//50
f 195//51 226//51 194//51
f 181//78 214//78 213//78
f 196//97 227//97 195//97
f 182//98 215//98 214//98
f 197//55 228//55 196//55
f 183//99 216//99 215//99
f 198//100 229//100 197//100
f 184//101 217//101 216//101
f 199//102 230//102 198//102
f 185//60 218//60 217//60
f 200//103 231//103 199//103
f 186//104 219//104 218//104
f 174//105 205//105 173//105
f 201//106 232//106 200//106
f 187//65 220//65 219//65
f 175//66 206//66 174//66
f 202//67 233//67 201//67
f 188//107 221//107 220//107
f 2//1 4//1 3//1
f 3//2 4//2 8//2
f 7//3 8//3 6//3
f 6//4 2//4 1//4
f 7//5 5//5 1//5
f 8//6 4//6 2//6
f 13//7 11//7 12//7
f 9//7 19//7 20//7
f 19//7 18//7 21//7
f 18//7 17//7 22//7
f 17//108 16//108 23//108
f 16//109 15//109 24//109
f 15//110 14//110 25//110
f 14//111 13//111 26//111
f 31//12 44//12 30//12
f 27//12 28//12 38//12
f 37//12 38//12 39//12
f 36//12 39//12 40//12
f 35//112 40//112 41//112
f 34//113 41//113 42//113
f 33//114 42//114 43//114
f 32//115 43//115 44//115
f 17//116 35//116 34//116
f 10//18 28//18 27//18
f 24//19 25//19 43//19
f 17//20 18//20 36//20
f 12//117 30//117 44//117
f 25//22 26//22 44//22
f 18//23 19//23 37//23
f 11//118 29//118 30//118
f 20//119 38//119 28//119
f 11//120 13//120 31//120
f 21//121 39//121 38//121
f 13//122 14//122 32//122
f 22//123 40//123 39//123
f 15//124 33//124 32//124
f 23//125 41//125 40//125
f 16//32 34//32 33//32
f 19//126 9//126 27//126
f 24//34 42//34 41//34
f 47//35 46//35 53//35
f 46//35 45//35 54//35
f 53//35 46//35 54//35
f 45//35 76//35 55//35
f 76//35 75//35 56//35
f 55//35 76//35 56//35
f 75//35 74//35 57//35
f 74//35 73//35 58//35
f 58//35 73//35 59//35
f 73//35 72//35 59//35
f 72//35 71//35 60//35
f 59//35 72//35 60//35
f 71//35 70//35 61//35
f 70//35 69//35 62//35
f 61//35 70//35 62//35
f 69//35 68//35 63//35
f 68//35 67//35 64//35
f 63//35 68//35 64//35
f 67//35 66//35 65//35
f 65//35 64//35 67//35
f 63//35 62//35 69//35
f 61//35 60//35 71//35
f 58//35 57//35 74//35
f 57//35 56//35 75//35
f 55//35 54//35 45//35
f 53//35 52//35 47//35
f 52//35 51//35 48//35
f 47//35 52//35 48//35
f 51//35 50//35 49//35
f 77//36 78//36 86//36
f 78//36 79//36 85//36
f 79//36 80//36 84//36
f 80//36 81//36 83//36
f 81//127 82//127 83//127
f 83//36 84//36 80//36
f 84//36 85//36 79//36
f 85//36 86//36 78//36
f 86//36 87//36 77//36
f 87//36 88//36 108//36
f 88//36 89//36 107//36
f 87//36 108//36 77//36
f 89//36 90//36 106//36
f 90//36 91//36 105//36
f 91//36 92//36 104//36
f 92//36 93//36 103//36
f 91//36 104//36 105//36
f 93//36 94//36 102//36
f 94//36 95//36 101//36
f 95//36 96//36 100//36
f 96//36 97//36 99//36
f 97//36 98//36 99//36
f 99//36 100//36 96//36
f 100//36 101//36 95//36
f 101//36 102//36 94//36
f 102//36 103//36 93//36
f 103//36 104//36 92//36
f 105//36 106//36 90//36
f 106//36 107//36 89//36
f 47//128 48//128 80//128
f 75//70 107//70 106//70
f 61//71 62//71 94//71
f 48//129 49//129 81//129
f 76//130 108//130 107//130
f 62//131 63//131 95//131
f 49//43 50//43 82//43
f 45//132 77//132 108//132
f 64//133 96//133 95//133
f 50//75 51//75 83//75
f 65//134 97//134 96//134
f 51//135 52//135 84//135
f 66//49 98//49 97//49
f 52//50 53//50 85//50
f 67//51 99//51 98//51
f 53//136 54//136 86//136
f 68//53 100//53 99//53
f 54//137 55//137 87//137
f 69//55 101//55 100//55
f 55//138 56//138 88//138
f 70//57 102//57 101//57
f 56//139 57//139 89//139
f 71//59 103//59 102//59
f 57//60 58//60 90//60
f 72//140 104//140 103//140
f 58//84 59//84 91//84
f 46//85 78//85 77//85
f 73//86 105//86 104//86
f 59//141 60//141 92//141
f 47//142 79//142 78//142
f 74//143 106//143 105//143
f 60//144 61//144 93//144
f 111//35 110//35 117//35
f 110//35 109//35 118//35
f 117//35 110//35 118//35
f 109//35 140//35 119//35
f 140//35 139//35 120//35
f 119//35 140//35 120//35
f 139//35 138//35 121//35
f 138//35 137//35 122//35
f 122//35 137//35 123//35
f 137//35 136//35 123//35
f 136//35 135//35 124//35
f 123//35 136//35 124//35
f 135//35 134//35 125//35
f 134//35 133//35 126//35
f 125//35 134//35 126//35
f 133//35 132//35 127//35
f 132//35 131//35 128//35
f 127//35 132//35 128//35
f 131//35 130//35 129//35
f 129//35 128//35 131//35
f 127//35 126//35 133//35
f 125//35 124//35 135//35
f 122//35 121//35 138//35
f 121//35 120//35 139//35
f 119//35 118//35 109//35
f 117//35 116//35 111//35
f 116//35 115//35 112//35
f 111//35 116//35 112//35
f 115//35 114//35 113//35
f 141//36 142//36 150//36
f 142//36 143//36 149//36
f 143//36 144//36 148//36
f 144//36 145//36 147//36
f 145//36 146//36 147//36
f 147//36 148//36 144//36
f 148//36 149//36 143//36
f 149//36 150//36 142//36
f 150//36 151//36 141//36
f 151//36 152//36 172//36
f 152//36 153//36 171//36
f 151//36 172//36 141//36
f 153//36 154//36 170//36
f 154//36 155//36 169//36
f 155//36 156//36 168//36
f 156//36 157//36 167//36
f 155//36 168//36 169//36
f 157//36 158//36 166//36
f 158//36 159//36 165//36
f 159//36 160//36 164//36
f 160//36 161//36 163//36
f 161//127 162//127 163//127
f 163//36 164//36 160//36
f 164//36 165//36 159//36
f 165//36 166//36 158//36
f 166//36 167//36 157//36
f 167//36 168//36 156//36
f 169//36 170//36 154//36
f 170//36 171//36 153//36
f 111//91 112//91 144//91
f 139//38 171//38 170//38
f 125//71 126//71 158//71
f 112//145 113//145 145//145
f 140//146 172//146 171//146
f 126//94 127//94 159//94
f 113//147 114//147 146//147
f 109//148 141//148 172//148
f 128//149 160//149 159//149
f 114//46 115//46 147//46
f 129//134 161//134 160//134
f 115//150 116//150 148//150
f 130//49 162//49 161//49
f 116//151 117//151 149//151
f 131//51 163//51 162//51
f 117//152 118//152 150//152
f 132//153 164//153 163//153
f 118//154 119//154 151//154
f 133//55 165//55 164//55
f 119//56 120//56 152//56
f 134//57 166//57 165//57
f 120//155 121//155 153//155
f 135//156 167//156 166//156
f 121//60 122//60 154//60
f 136//157 168//157 167//157
f 122//62 123//62 155//62
f 110//85 142//85 141//85
f 137//64 169//64 168//64
f 123//158 124//158 156//158
f 111//159 143//159 142//159
f 138//67 170//67 169//67
f 124//160 125//160 157//160
f 175//35 174//35 181//35
f 174//35 173//35 182//35
f 181//35 174//35 182//35
f 173//35 204//35 183//35
f 204//35 203//35 184//35
f 183//35 204//35 184//35
f 203//35 202//35 185//35
f 202//35 201//35 186//35
f 186//35 201//35 187//35
f 201//35 200//35 187//35
f 200//35 199//35 188//35
f 187//35 200//35 188//35
f 199//35 198//35 189//35
f 198//35 197//35 190//35
f 189//35 198//35 190//35
f 197//35 196//35 191//35
f 196//35 195//35 192//35
f 191//35 196//35 192//35
f 195//35 194//35 193//35
f 193//35 192//35 195//35
f 191//35 190//35 197//35
f 189//35 188//35 199//35
f 186//35 185//35 202//35
f 185//35 184//35 203//35
f 183//35 182//35 173//35
f 181//35 180//35 175//35
f 180//35 179//35 176//35
f 175//35 180//35 176//35
f 179//35 178//35 177//35
f 205//36 206//36 214//36
f 206//36 207//36 213//36
f 207//36 208//36 212//36
f 208//36 209//36 211//36
f 209//127 210//127 211//127
f 211//36 212//36 208//36
f 212//36 213//36 207//36
f 213//36 214//36 206//36
f 214//36 215//36 205//36
f 215//36 216//36 236//36
f 216//36 217//36 235//36
f 215//36 236//36 205//36
f 217//36 218//36 234//36
f 218//36 219//36 233//36
f 219//36 220//36 232//36
f 220//36 221//36 231//36
f 219//36 232//36 233//36
f 221//36 222//36 230//36
f 222//36 223//36 229//36
f 223//36 224//36 228//36
f 224//127 225//127 227//127
f 225//36 226//36 227//36
f 227//36 228//36 224//36
f 228//36 229//36 223//36
f 229//36 230//36 222//36
f 230//36 231//36 221//36
f 231//36 232//36 220//36
f 233//36 234//36 218//36
f 234//36 235//36 217//36
f 175//128 176//128 208//128
f 203//70 235//70 234//70
f 189//161 190//161 222//161
f 176//145 177//145 209//145
f 204//130 236//130 235//130
f 190//42 191//42 223//42
f 177//43 178//43 210//43
f 173//162 205//162 236//162
f 192//163 224//163 223//163
f 178//46 179//46 211//46
f 193//164 225//164 224//164
f 179//48 180//48 212//48
f 194//49 226//49 225//49
f 180//165 181//165 213//165
f 195//166 227//166 226//166
f 181//52 182//52 214//52
f 196//167 228//167 227//167
f 182//54 183//54 215//54
f 197//55 229//55 228//55
f 183//168 184//168 216//168
f 198//169 230//169 229//169
f 184//155 185//155 217//155
f 199//59 231//59 230//59
f 185//170 186//170 218//170
f 200//103 232//103 231//103
f 186//62 187//62 219//62
f 174//85 206//85 205//85
f 201//171 233//171 232//171
f 187//65 188//65 220//65
f 175//159 207//159 206//159
f 202//89 234//89 233//89
f 188//90 189//90 221//90
