# Blender v2.79 (sub 7) OBJ File: 'Universe Gate.blend'
# www.blender.org
o 13_Cube.048
v -2.297280 -0.217515 -2.969711
v -2.297359 -0.190921 -2.969813
v -2.331646 -0.217788 -3.014178
v -2.331725 -0.191194 -3.014280
v -2.282597 -0.217515 -2.981059
v -2.282676 -0.190921 -2.981161
v -2.316962 -0.217788 -3.025526
v -2.317041 -0.191194 -3.025628
v -2.328912 -0.209162 -3.033116
v -2.327249 -0.209162 -3.035919
v -2.326165 -0.209162 -3.038992
v -2.325702 -0.209162 -3.042218
v -2.325877 -0.209162 -3.045473
v -2.326683 -0.209162 -3.048630
v -2.328090 -0.209162 -3.051570
v -2.330043 -0.209162 -3.054179
v -2.332468 -0.209162 -3.056356
v -2.335271 -0.209162 -3.058019
v -2.338344 -0.209162 -3.059103
v -2.341570 -0.209162 -3.059566
v -2.344824 -0.209162 -3.059391
v -2.347982 -0.209162 -3.058585
v -2.350922 -0.209162 -3.057179
v -2.353531 -0.209162 -3.055225
v -2.355708 -0.209162 -3.052800
v -2.357371 -0.209162 -3.049998
v -2.358455 -0.209162 -3.046924
v -2.358918 -0.209162 -3.043698
v -2.358744 -0.209162 -3.040444
v -2.357937 -0.209162 -3.037286
v -2.356530 -0.209162 -3.034347
v -2.354577 -0.209162 -3.031738
v -2.352153 -0.209162 -3.029560
v -2.349349 -0.209162 -3.027898
v -2.346276 -0.209162 -3.026814
v -2.343050 -0.209162 -3.026350
v -2.339796 -0.209162 -3.026525
v -2.336638 -0.209162 -3.027331
v -2.333699 -0.209162 -3.028738
v -2.331090 -0.209162 -3.030691
v -2.328912 -0.190059 -3.033116
v -2.327249 -0.190059 -3.035919
v -2.326165 -0.190059 -3.038992
v -2.325702 -0.190059 -3.042218
v -2.325877 -0.190059 -3.045472
v -2.326683 -0.190059 -3.048630
v -2.328090 -0.190059 -3.051570
v -2.330043 -0.190059 -3.054179
v -2.332468 -0.190059 -3.056356
v -2.335271 -0.190059 -3.058019
v -2.338344 -0.190059 -3.059103
v -2.341570 -0.190059 -3.059566
v -2.344824 -0.190059 -3.059391
v -2.347982 -0.190059 -3.058585
v -2.350922 -0.190059 -3.057178
v -2.353531 -0.190059 -3.055225
v -2.355708 -0.190059 -3.052800
v -2.357371 -0.190059 -3.049998
v -2.358455 -0.190059 -3.046924
v -2.358918 -0.190059 -3.043699
v -2.358744 -0.190059 -3.040444
v -2.357937 -0.190059 -3.037286
v -2.356530 -0.190059 -3.034347
v -2.354577 -0.190059 -3.031738
v -2.352153 -0.190059 -3.029560
v -2.349349 -0.190059 -3.027898
v -2.346276 -0.190059 -3.026814
v -2.343050 -0.190059 -3.026350
v -2.339796 -0.190059 -3.026525
v -2.336638 -0.190059 -3.027331
v -2.333698 -0.190059 -3.028738
v -2.331090 -0.190059 -3.030691
v -2.356230 -0.209162 -3.068485
v -2.354567 -0.209162 -3.071288
v -2.353483 -0.209162 -3.074361
v -2.353019 -0.209162 -3.077587
v -2.353194 -0.209162 -3.080842
v -2.354000 -0.209162 -3.083999
v -2.355407 -0.209162 -3.086939
v -2.357360 -0.209162 -3.089547
v -2.359785 -0.209162 -3.091725
v -2.362588 -0.209162 -3.093388
v -2.365662 -0.209162 -3.094472
v -2.368887 -0.209162 -3.094935
v -2.372141 -0.209162 -3.094760
v -2.375299 -0.209162 -3.093954
v -2.378239 -0.209162 -3.092548
v -2.380848 -0.209162 -3.090594
v -2.383025 -0.209162 -3.088169
v -2.384688 -0.209162 -3.085366
v -2.385772 -0.209162 -3.082293
v -2.386235 -0.209162 -3.079067
v -2.386061 -0.209162 -3.075813
v -2.385255 -0.209162 -3.072655
v -2.383847 -0.209162 -3.069715
v -2.381894 -0.209162 -3.067106
v -2.379470 -0.209162 -3.064929
v -2.376667 -0.209162 -3.063266
v -2.373593 -0.209162 -3.062182
v -2.370368 -0.209162 -3.061719
v -2.367114 -0.209162 -3.061894
v -2.363955 -0.209162 -3.062700
v -2.361016 -0.209162 -3.064107
v -2.358407 -0.209162 -3.066060
v -2.356230 -0.190059 -3.068485
v -2.354567 -0.190059 -3.071288
v -2.353483 -0.190059 -3.074361
v -2.353019 -0.190059 -3.077587
v -2.353194 -0.190059 -3.080841
v -2.354000 -0.190059 -3.083999
v -2.355407 -0.190059 -3.086939
v -2.357360 -0.190059 -3.089547
v -2.359785 -0.190059 -3.091725
v -2.362588 -0.190059 -3.093388
v -2.365662 -0.190059 -3.094472
v -2.368887 -0.190059 -3.094935
v -2.372141 -0.190059 -3.094760
v -2.375299 -0.190059 -3.093954
v -2.378239 -0.190059 -3.092547
v -2.380847 -0.190059 -3.090594
v -2.383025 -0.190059 -3.088169
v -2.384688 -0.190059 -3.085366
v -2.385772 -0.190059 -3.082293
v -2.386235 -0.190059 -3.079067
v -2.386061 -0.190059 -3.075813
v -2.385255 -0.190059 -3.072655
v -2.383848 -0.190059 -3.069715
v -2.381895 -0.190059 -3.067107
v -2.379470 -0.190059 -3.064929
v -2.376667 -0.190059 -3.063266
v -2.373593 -0.190059 -3.062182
v -2.370368 -0.190059 -3.061719
v -2.367113 -0.190059 -3.061893
v -2.363956 -0.190059 -3.062700
v -2.361016 -0.190059 -3.064106
v -2.358407 -0.190059 -3.066060
v -2.382232 -0.209637 -3.107265
v -2.379739 -0.209637 -3.111468
v -2.378113 -0.209637 -3.116077
v -2.377418 -0.209637 -3.120914
v -2.377680 -0.209637 -3.125795
v -2.378889 -0.209637 -3.130530
v -2.380999 -0.209637 -3.134938
v -2.383928 -0.209637 -3.138850
v -2.387564 -0.209637 -3.142116
v -2.391767 -0.209637 -3.144609
v -2.396376 -0.209637 -3.146235
v -2.401214 -0.209637 -3.146930
v -2.406094 -0.209637 -3.146667
v -2.410829 -0.209637 -3.145459
v -2.415237 -0.209637 -3.143349
v -2.419150 -0.209637 -3.140420
v -2.422415 -0.209637 -3.136784
v -2.424908 -0.209637 -3.132581
v -2.426534 -0.209637 -3.127972
v -2.427229 -0.209637 -3.123134
v -2.426967 -0.209637 -3.118254
v -2.425758 -0.209637 -3.113518
v -2.423648 -0.209637 -3.109110
v -2.420719 -0.209637 -3.105198
v -2.417083 -0.209637 -3.101933
v -2.412880 -0.209637 -3.099439
v -2.408271 -0.209637 -3.097814
v -2.403433 -0.209637 -3.097118
v -2.398553 -0.209637 -3.097381
v -2.393818 -0.209637 -3.098590
v -2.389409 -0.209637 -3.100699
v -2.385497 -0.209637 -3.103628
v -2.394095 -0.209637 -3.115979
v -2.393074 -0.209637 -3.117701
v -2.392408 -0.209637 -3.119588
v -2.392124 -0.209637 -3.121570
v -2.392231 -0.209637 -3.123568
v -2.392726 -0.209637 -3.125508
v -2.393589 -0.209637 -3.127313
v -2.394789 -0.209637 -3.128916
v -2.396279 -0.209637 -3.130253
v -2.398000 -0.209637 -3.131274
v -2.399888 -0.209637 -3.131940
v -2.401869 -0.209637 -3.132224
v -2.403868 -0.209637 -3.132117
v -2.405807 -0.209637 -3.131622
v -2.407613 -0.209637 -3.130758
v -2.409215 -0.209637 -3.129558
v -2.410552 -0.209637 -3.128069
v -2.411573 -0.209637 -3.126348
v -2.412239 -0.209637 -3.124460
v -2.412524 -0.209637 -3.122478
v -2.412416 -0.209637 -3.120480
v -2.411921 -0.209637 -3.118541
v -2.411057 -0.209637 -3.116735
v -2.409858 -0.209637 -3.115133
v -2.408368 -0.209637 -3.113796
v -2.406647 -0.209637 -3.112774
v -2.404759 -0.209637 -3.112109
v -2.402778 -0.209637 -3.111824
v -2.400779 -0.209637 -3.111931
v -2.398840 -0.209637 -3.112427
v -2.397034 -0.209637 -3.113291
v -2.395433 -0.209637 -3.114490
v -2.382232 -0.191253 -3.107265
v -2.379739 -0.191253 -3.111468
v -2.378113 -0.191253 -3.116077
v -2.377418 -0.191253 -3.120914
v -2.377680 -0.191253 -3.125794
v -2.378889 -0.191253 -3.130530
v -2.380999 -0.191253 -3.134938
v -2.383928 -0.191253 -3.138850
v -2.387564 -0.191253 -3.142116
v -2.391767 -0.191253 -3.144609
v -2.396376 -0.191253 -3.146235
v -2.401214 -0.191253 -3.146930
v -2.406094 -0.191253 -3.146668
v -2.410829 -0.191253 -3.145458
v -2.415238 -0.191253 -3.143349
v -2.419150 -0.191253 -3.140420
v -2.422415 -0.191253 -3.136784
v -2.424908 -0.191253 -3.132580
v -2.426534 -0.191253 -3.127971
v -2.427229 -0.191253 -3.123134
v -2.426967 -0.191253 -3.118254
v -2.425758 -0.191253 -3.113519
v -2.423649 -0.191253 -3.109110
v -2.420719 -0.191253 -3.105198
v -2.417083 -0.191253 -3.101933
v -2.412880 -0.191253 -3.099439
v -2.408271 -0.191253 -3.097814
v -2.403433 -0.191253 -3.097118
v -2.398554 -0.191253 -3.097381
v -2.393818 -0.191253 -3.098590
v -2.389409 -0.191253 -3.100699
v -2.385497 -0.191253 -3.103629
v -2.394095 -0.191253 -3.115979
v -2.393074 -0.191253 -3.117701
v -2.392408 -0.191253 -3.119588
v -2.392123 -0.191253 -3.121570
v -2.392231 -0.191253 -3.123569
v -2.392726 -0.191253 -3.125508
v -2.393590 -0.191253 -3.127313
v -2.394789 -0.191253 -3.128915
v -2.396279 -0.191253 -3.130253
v -2.398000 -0.191253 -3.131274
v -2.399888 -0.191253 -3.131940
v -2.401869 -0.191253 -3.132225
v -2.403868 -0.191253 -3.132117
v -2.405807 -0.191253 -3.131622
v -2.407613 -0.191253 -3.130758
v -2.409215 -0.191253 -3.129558
v -2.410552 -0.191253 -3.128069
v -2.411573 -0.191253 -3.126348
v -2.412239 -0.191253 -3.124460
v -2.412524 -0.191253 -3.122479
v -2.412416 -0.191253 -3.120480
v -2.411921 -0.191253 -3.118541
v -2.411057 -0.191253 -3.116735
v -2.409858 -0.191253 -3.115133
v -2.408368 -0.191253 -3.113796
v -2.406647 -0.191253 -3.112775
v -2.404759 -0.191253 -3.112109
v -2.402778 -0.191253 -3.111824
v -2.400779 -0.191253 -3.111931
v -2.398840 -0.191253 -3.112427
v -2.397034 -0.191253 -3.113291
v -2.395432 -0.191253 -3.114490
vn -0.7912 0.0000 0.6115
vn -0.6115 -0.0049 -0.7912
vn 0.7912 0.0000 -0.6115
vn 0.6115 0.0048 0.7912
vn 0.0030 -1.0000 0.0038
vn -0.0030 1.0000 -0.0038
vn 0.0000 -1.0000 0.0000
vn 0.0000 1.0000 0.0000
vn 0.9898 -0.0000 0.1422
vn 0.4318 0.0000 0.9020
vn -0.8601 0.0000 -0.5101
vn 0.9986 0.0000 -0.0537
vn 0.5993 -0.0000 0.8005
vn -0.9431 0.0000 -0.3325
vn 0.9689 0.0000 -0.2473
vn 0.7440 -0.0000 0.6682
vn -0.9898 0.0000 -0.1422
vn 0.9020 0.0000 -0.4317
vn -0.9986 0.0000 0.0536
vn 0.8005 -0.0000 -0.5993
vn -0.9689 0.0000 0.2474
vn 0.6681 0.0000 -0.7440
vn -0.9021 -0.0000 0.4316
vn 0.5102 0.0000 -0.8601
vn -0.8005 0.0000 0.5993
vn 0.3326 0.0000 -0.9431
vn -0.6683 0.0000 0.7439
vn 0.1422 0.0000 -0.9898
vn -0.5101 0.0000 0.8601
vn -0.0537 0.0000 -0.9986
vn -0.3326 0.0000 0.9431
vn -0.2473 0.0000 -0.9690
vn -0.1422 0.0000 0.9898
vn -0.4318 0.0000 -0.9020
vn 0.8600 0.0000 0.5102
vn 0.0537 0.0000 0.9986
vn -0.5993 0.0000 -0.8005
vn 0.9431 0.0000 0.3326
vn 0.2473 -0.0000 0.9689
vn -0.7440 0.0000 -0.6681
vn 0.9898 0.0000 0.1421
vn -0.8600 0.0000 -0.5103
vn 0.9986 0.0000 -0.0536
vn 0.5994 -0.0000 0.8004
vn -0.9430 0.0000 -0.3327
vn 0.9689 -0.0000 -0.2474
vn 0.7439 -0.0000 0.6683
vn 0.8004 0.0000 -0.5995
vn 0.6682 0.0000 -0.7440
vn -0.9020 0.0000 0.4316
vn -0.8006 0.0000 0.5992
vn -0.6682 0.0000 0.7440
vn -0.5102 0.0000 0.8601
vn -0.2472 0.0000 -0.9690
vn -0.4317 0.0000 -0.9020
vn 0.8601 0.0000 0.5102
vn -0.5994 0.0000 -0.8005
vn 0.2476 -0.0000 0.9689
vn -0.7441 0.0000 -0.6681
vn 0.4315 -0.0000 0.9021
vn 0.5103 0.0000 -0.8600
vn 0.3327 0.0000 -0.9430
vn 0.7441 -0.0000 0.6681
vn 0.9021 -0.0000 -0.4316
vn 0.1424 0.0000 -0.9898
vn 0.8005 -0.0000 -0.5994
vn -0.2473 0.0000 -0.9689
vn 0.5101 0.0000 -0.8601
vn -0.4316 0.0000 -0.9021
vn -0.9986 0.0000 0.0534
vn -0.5995 0.0000 -0.8004
vn -0.9689 0.0000 0.2475
vn 0.1423 0.0000 -0.9898
vn -0.7439 0.0000 -0.6683
vn -0.9020 0.0000 0.4317
vn -0.6681 -0.0000 0.7440
vn -0.5102 -0.0000 0.8600
vn -0.7440 -0.0000 -0.6682
vn -0.1419 0.0000 0.9899
vn 0.0539 0.0000 0.9985
vn -0.9431 0.0000 -0.3326
vn 0.4317 -0.0000 0.9020
vn 0.5995 0.0000 0.8004
vn -0.9689 0.0000 0.2473
vn -0.9020 -0.0000 0.4318
vn 0.8601 0.0000 0.5101
vn -0.8005 -0.0000 0.5994
vn 0.9431 0.0000 0.3325
vn 0.9898 0.0000 0.1423
vn -0.1423 -0.0000 0.9898
vn 0.9021 -0.0000 -0.4315
vn 0.0538 0.0000 0.9986
vn 0.2475 -0.0000 0.9689
vn 0.4316 -0.0000 0.9020
vn -0.8600 0.0000 -0.5102
vn 0.5994 0.0000 0.8005
vn -0.9986 0.0000 0.0535
vn -0.9689 -0.0000 0.2476
vn 0.6680 0.0000 -0.7441
vn -0.8004 0.0000 0.5994
vn -0.3327 0.0000 0.9430
vn -0.2474 0.0000 -0.9689
vn 0.8600 0.0000 0.5103
vn -0.5994 0.0000 -0.8004
vn 0.2474 0.0000 0.9689
vn -0.7439 0.0000 -0.6682
vn 0.4316 -0.0000 0.9021
vn 0.9986 -0.0000 -0.0535
vn 0.7440 0.0000 0.6681
vn 0.9020 0.0000 -0.4316
vn -0.5103 0.0000 0.8600
vn 0.0534 -0.0000 0.9986
vn 0.9430 0.0000 0.3327
vn 0.3325 -0.0000 -0.9431
vn 0.8004 0.0000 -0.5994
vn -0.0539 0.0000 -0.9985
vn 0.6683 0.0000 -0.7439
vn -0.2477 0.0000 -0.9688
vn -0.7441 0.0000 -0.6680
vn -0.2475 0.0000 -0.9689
vn -0.3329 0.0000 0.9430
vn -0.1425 0.0000 0.9898
vn 0.2472 0.0000 0.9690
vn -0.9898 0.0000 -0.1423
vn 0.4313 -0.0000 0.9022
vn -0.9986 0.0000 0.0537
vn 0.7441 0.0000 0.6680
vn -0.9021 0.0001 0.4316
vn 0.8599 0.0000 0.5105
vn 0.9898 0.0000 0.1424
s off
f 1//1 4//1 3//1
f 3//2 8//2 7//2
f 8//3 5//3 7//3
f 6//4 1//4 5//4
f 7//5 1//5 3//5
f 8//6 2//6 6//6
f 13//7 12//7 11//7
f 71//8 72//8 49//8
f 12//9 43//9 11//9
f 39//10 70//10 38//10
f 25//11 58//11 57//11
f 12//12 45//12 44//12
f 40//13 71//13 39//13
f 27//14 58//14 26//14
f 13//15 46//15 45//15
f 9//16 72//16 40//16
f 27//17 60//17 59//17
f 15//18 46//18 14//18
f 29//19 60//19 28//19
f 16//20 47//20 15//20
f 29//21 62//21 61//21
f 16//22 49//22 48//22
f 30//23 63//23 62//23
f 17//24 50//24 49//24
f 32//25 63//25 31//25
f 18//26 51//26 50//26
f 32//27 65//27 64//27
f 19//28 52//28 51//28
f 33//29 66//29 65//29
f 20//30 53//30 52//30
f 34//31 67//31 66//31
f 22//32 53//32 21//32
f 35//33 68//33 67//33
f 22//34 55//34 54//34
f 10//35 41//35 9//35
f 37//36 68//36 36//36
f 23//37 56//37 55//37
f 11//38 42//38 10//38
f 38//39 69//39 37//39
f 24//40 57//40 56//40
f 77//7 76//7 75//7
f 135//8 136//8 113//8
f 75//41 108//41 107//41
f 103//10 134//10 102//10
f 89//42 122//42 121//42
f 77//43 108//43 76//43
f 104//44 135//44 103//44
f 90//45 123//45 122//45
f 77//46 110//46 109//46
f 73//47 136//47 104//47
f 91//17 124//17 123//17
f 78//18 111//18 110//18
f 93//19 124//19 92//19
f 80//48 111//48 79//48
f 93//21 126//21 125//21
f 80//49 113//49 112//49
f 94//50 127//50 126//50
f 82//24 113//24 81//24
f 95//51 128//51 127//51
f 82//26 115//26 114//26
f 96//52 129//52 128//52
f 83//28 116//28 115//28
f 98//53 129//53 97//53
f 84//30 117//30 116//30
f 98//31 131//31 130//31
f 86//54 117//54 85//54
f 99//33 132//33 131//33
f 87//55 118//55 86//55
f 73//56 106//56 105//56
f 101//36 132//36 100//36
f 87//57 120//57 119//57
f 75//38 106//38 74//38
f 102//58 133//58 101//58
f 88//59 121//59 120//59
f 155//7 188//7 156//7
f 143//7 174//7 175//7
f 157//7 188//7 189//7
f 144//7 175//7 176//7
f 158//7 189//7 190//7
f 145//7 176//7 177//7
f 159//7 190//7 191//7
f 146//7 177//7 178//7
f 160//7 191//7 192//7
f 147//7 178//7 179//7
f 161//7 192//7 193//7
f 148//7 179//7 180//7
f 162//7 193//7 194//7
f 148//7 181//7 149//7
f 163//7 194//7 195//7
f 149//7 182//7 150//7
f 164//7 195//7 196//7
f 150//7 183//7 151//7
f 137//7 170//7 138//7
f 164//7 197//7 165//7
f 151//7 184//7 152//7
f 138//7 171//7 139//7
f 165//7 198//7 166//7
f 152//7 185//7 153//7
f 139//7 172//7 140//7
f 166//7 199//7 167//7
f 153//7 186//7 154//7
f 141//7 172//7 173//7
f 167//7 200//7 168//7
f 154//7 187//7 155//7
f 142//7 173//7 174//7
f 168//7 169//7 137//7
f 252//8 219//8 220//8
f 207//8 238//8 206//8
f 221//8 252//8 220//8
f 208//8 239//8 207//8
f 222//8 253//8 221//8
f 209//8 240//8 208//8
f 223//8 254//8 222//8
f 210//8 241//8 209//8
f 224//8 255//8 223//8
f 211//8 242//8 210//8
f 225//8 256//8 224//8
f 212//8 243//8 211//8
f 226//8 257//8 225//8
f 245//8 212//8 213//8
f 227//8 258//8 226//8
f 246//8 213//8 214//8
f 228//8 259//8 227//8
f 247//8 214//8 215//8
f 234//8 201//8 202//8
f 261//8 228//8 229//8
f 248//8 215//8 216//8
f 235//8 202//8 203//8
f 262//8 229//8 230//8
f 249//8 216//8 217//8
f 236//8 203//8 204//8
f 263//8 230//8 231//8
f 250//8 217//8 218//8
f 205//8 236//8 204//8
f 264//8 231//8 232//8
f 251//8 218//8 219//8
f 206//8 237//8 205//8
f 233//8 232//8 201//8
f 167//60 230//60 166//60
f 205//12 140//12 141//12
f 193//61 258//61 194//61
f 168//13 231//13 167//13
f 206//46 141//46 142//46
f 194//62 259//62 195//62
f 137//63 232//63 168//63
f 207//64 142//64 143//64
f 259//65 196//65 195//65
f 233//42 170//42 169//42
f 144//66 207//66 143//66
f 260//30 197//30 196//30
f 234//14 171//14 170//14
f 209//49 144//49 145//49
f 261//67 198//67 197//67
f 171//17 236//17 172//17
f 210//68 145//68 146//68
f 262//69 199//69 198//69
f 236//70 173//70 172//70
f 147//26 210//26 146//26
f 263//71 200//71 199//71
f 237//72 174//72 173//72
f 148//73 211//73 147//73
f 264//74 169//74 200//74
f 238//75 175//75 174//75
f 149//30 212//30 148//30
f 239//51 176//51 175//51
f 150//54 213//54 149//54
f 240//76 177//76 176//76
f 215//55 150//55 151//55
f 241//77 178//77 177//77
f 152//37 215//37 151//37
f 242//31 179//31 178//31
f 153//78 216//78 152//78
f 243//79 180//79 179//79
f 218//11 153//11 154//11
f 244//80 181//80 180//80
f 219//81 154//81 155//81
f 181//58 246//58 182//58
f 156//17 219//17 155//17
f 182//82 247//82 183//82
f 221//19 156//19 157//19
f 183//83 248//83 184//83
f 158//84 221//84 157//84
f 184//63 249//63 185//63
f 223//85 158//85 159//85
f 185//86 250//86 186//86
f 224//87 159//87 160//87
f 250//88 187//88 186//88
f 161//52 224//52 160//52
f 187//89 252//89 188//89
f 162//53 225//53 161//53
f 252//12 189//12 188//12
f 163//31 226//31 162//31
f 189//46 254//46 190//46
f 228//90 163//90 164//90
f 138//56 201//56 137//56
f 190//91 255//91 191//91
f 229//92 164//92 165//92
f 203//38 138//38 139//38
f 191//20 256//20 192//20
f 230//93 165//93 166//93
f 140//89 203//89 139//89
f 192//22 257//22 193//22
f 1//1 2//1 4//1
f 3//2 4//2 8//2
f 8//3 6//3 5//3
f 6//4 2//4 1//4
f 7//5 5//5 1//5
f 8//6 4//6 2//6
f 11//7 10//7 14//7
f 10//7 9//7 15//7
f 9//7 40//7 16//7
f 40//7 39//7 17//7
f 9//7 16//7 15//7
f 39//7 38//7 18//7
f 38//7 37//7 19//7
f 37//7 36//7 20//7
f 36//7 35//7 21//7
f 37//7 20//7 19//7
f 35//7 34//7 22//7
f 34//7 33//7 23//7
f 33//7 32//7 24//7
f 32//7 31//7 25//7
f 33//7 24//7 23//7
f 31//7 30//7 26//7
f 30//7 29//7 27//7
f 29//7 28//7 27//7
f 27//7 26//7 30//7
f 26//7 25//7 31//7
f 25//7 24//7 32//7
f 23//7 22//7 34//7
f 22//7 21//7 35//7
f 21//7 20//7 36//7
f 19//7 18//7 38//7
f 18//7 17//7 39//7
f 17//7 16//7 40//7
f 15//7 14//7 10//7
f 14//7 13//7 11//7
f 41//8 42//8 47//8
f 42//8 43//8 46//8
f 46//8 43//8 45//8
f 43//8 44//8 45//8
f 46//8 47//8 42//8
f 47//8 48//8 41//8
f 48//8 49//8 72//8
f 41//8 48//8 72//8
f 49//8 50//8 71//8
f 50//8 51//8 70//8
f 70//8 51//8 69//8
f 51//8 52//8 69//8
f 52//8 53//8 68//8
f 69//8 52//8 68//8
f 53//8 54//8 67//8
f 54//8 55//8 66//8
f 66//8 55//8 65//8
f 55//8 56//8 65//8
f 56//8 57//8 64//8
f 65//8 56//8 64//8
f 57//8 58//8 63//8
f 58//8 59//8 62//8
f 62//8 59//8 61//8
f 59//8 60//8 61//8
f 62//8 63//8 58//8
f 63//8 64//8 57//8
f 66//8 67//8 54//8
f 67//8 68//8 53//8
f 70//8 71//8 50//8
f 12//9 44//9 43//9
f 39//94 71//94 70//94
f 25//95 26//95 58//95
f 12//12 13//12 45//12
f 40//96 72//96 71//96
f 27//45 59//45 58//45
f 13//46 14//46 46//46
f 9//16 41//16 72//16
f 27//17 28//17 60//17
f 15//64 47//64 46//64
f 29//97 61//97 60//97
f 16//20 48//20 47//20
f 29//98 30//98 62//98
f 16//99 17//99 49//99
f 30//23 31//23 63//23
f 17//24 18//24 50//24
f 32//100 64//100 63//100
f 18//26 19//26 51//26
f 32//76 33//76 65//76
f 19//65 20//65 52//65
f 33//53 34//53 66//53
f 20//30 21//30 53//30
f 34//101 35//101 67//101
f 22//102 54//102 53//102
f 35//90 36//90 68//90
f 22//69 23//69 55//69
f 10//103 42//103 41//103
f 37//36 69//36 68//36
f 23//104 24//104 56//104
f 11//38 43//38 42//38
f 38//105 70//105 69//105
f 24//106 25//106 57//106
f 75//7 74//7 78//7
f 74//7 73//7 79//7
f 73//7 104//7 80//7
f 104//7 103//7 81//7
f 73//7 80//7 79//7
f 103//7 102//7 82//7
f 102//7 101//7 83//7
f 101//7 100//7 84//7
f 100//7 99//7 85//7
f 101//7 84//7 83//7
f 99//7 98//7 86//7
f 98//7 97//7 87//7
f 97//7 96//7 88//7
f 96//7 95//7 89//7
f 97//7 88//7 87//7
f 95//7 94//7 90//7
f 94//7 93//7 91//7
f 93//7 92//7 91//7
f 91//7 90//7 94//7
f 90//7 89//7 95//7
f 89//7 88//7 96//7
f 87//7 86//7 98//7
f 86//7 85//7 99//7
f 85//7 84//7 100//7
f 83//7 82//7 102//7
f 82//7 81//7 103//7
f 81//7 80//7 104//7
f 79//7 78//7 74//7
f 78//7 77//7 75//7
f 105//8 106//8 111//8
f 106//8 107//8 110//8
f 110//8 107//8 109//8
f 107//8 108//8 109//8
f 110//8 111//8 106//8
f 111//8 112//8 105//8
f 112//8 113//8 136//8
f 105//8 112//8 136//8
f 113//8 114//8 135//8
f 114//8 115//8 134//8
f 134//8 115//8 133//8
f 115//8 116//8 133//8
f 116//8 117//8 132//8
f 133//8 116//8 132//8
f 117//8 118//8 131//8
f 118//8 119//8 130//8
f 130//8 119//8 129//8
f 119//8 120//8 129//8
f 120//8 121//8 128//8
f 129//8 120//8 128//8
f 121//8 122//8 127//8
f 122//8 123//8 126//8
f 126//8 123//8 125//8
f 123//8 124//8 125//8
f 126//8 127//8 122//8
f 127//8 128//8 121//8
f 130//8 131//8 118//8
f 131//8 132//8 117//8
f 134//8 135//8 114//8
f 75//9 76//9 108//9
f 103//107 135//107 134//107
f 89//42 90//42 122//42
f 77//108 109//108 108//108
f 104//13 136//13 135//13
f 90//14 91//14 123//14
f 77//46 78//46 110//46
f 73//109 105//109 136//109
f 91//17 92//17 124//17
f 78//110 79//110 111//110
f 93//19 125//19 124//19
f 80//66 112//66 111//66
f 93//21 94//21 126//21
f 80//49 81//49 113//49
f 94//85 95//85 127//85
f 82//68 114//68 113//68
f 95//100 96//100 128//100
f 82//26 83//26 115//26
f 96//76 97//76 129//76
f 83//65 84//65 116//65
f 98//111 130//111 129//111
f 84//30 85//30 117//30
f 98//31 99//31 131//31
f 86//102 118//102 117//102
f 99//90 100//90 132//90
f 87//55 119//55 118//55
f 73//56 74//56 106//56
f 101//112 133//112 132//112
f 87//57 88//57 120//57
f 75//113 107//113 106//113
f 102//105 134//105 133//105
f 88//59 89//59 121//59
f 155//7 187//7 188//7
f 143//7 142//7 174//7
f 157//7 156//7 188//7
f 144//7 143//7 175//7
f 158//7 157//7 189//7
f 145//7 144//7 176//7
f 159//7 158//7 190//7
f 146//7 145//7 177//7
f 160//7 159//7 191//7
f 147//7 146//7 178//7
f 161//7 160//7 192//7
f 148//7 147//7 179//7
f 162//7 161//7 193//7
f 148//7 180//7 181//7
f 163//7 162//7 194//7
f 149//7 181//7 182//7
f 164//7 163//7 195//7
f 150//7 182//7 183//7
f 137//7 169//7 170//7
f 164//7 196//7 197//7
f 151//7 183//7 184//7
f 138//7 170//7 171//7
f 165//7 197//7 198//7
f 152//7 184//7 185//7
f 139//7 171//7 172//7
f 166//7 198//7 199//7
f 153//7 185//7 186//7
f 141//7 140//7 172//7
f 167//7 199//7 200//7
f 154//7 186//7 187//7
f 142//7 141//7 173//7
f 168//7 200//7 169//7
f 252//8 251//8 219//8
f 207//8 239//8 238//8
f 221//8 253//8 252//8
f 208//8 240//8 239//8
f 222//8 254//8 253//8
f 209//8 241//8 240//8
f 223//8 255//8 254//8
f 210//8 242//8 241//8
f 224//8 256//8 255//8
f 211//8 243//8 242//8
f 225//8 257//8 256//8
f 212//8 244//8 243//8
f 226//8 258//8 257//8
f 245//8 244//8 212//8
f 227//8 259//8 258//8
f 246//8 245//8 213//8
f 228//8 260//8 259//8
f 247//8 246//8 214//8
f 234//8 233//8 201//8
f 261//8 260//8 228//8
f 248//8 247//8 215//8
f 235//8 234//8 202//8
f 262//8 261//8 229//8
f 249//8 248//8 216//8
f 236//8 235//8 203//8
f 263//8 262//8 230//8
f 250//8 249//8 217//8
f 205//8 237//8 236//8
f 264//8 263//8 231//8
f 251//8 250//8 218//8
f 206//8 238//8 237//8
f 233//8 264//8 232//8
f 167//82 231//82 230//82
f 205//43 204//43 140//43
f 193//68 257//68 258//68
f 168//96 232//96 231//96
f 206//46 205//46 141//46
f 194//114 258//114 259//114
f 137//16 201//16 232//16
f 207//18 206//18 142//18
f 259//73 260//73 196//73
f 233//42 234//42 170//42
f 144//115 208//115 207//115
f 260//116 261//116 197//116
f 234//45 235//45 171//45
f 209//117 208//117 144//117
f 261//118 262//118 198//118
f 171//17 235//17 236//17
f 210//68 209//68 145//68
f 262//69 263//69 199//69
f 236//19 237//19 173//19
f 147//114 211//114 210//114
f 263//57 264//57 200//57
f 237//21 238//21 174//21
f 148//28 212//28 211//28
f 264//119 233//119 169//119
f 238//85 239//85 175//85
f 149//30 213//30 212//30
f 239//25 240//25 176//25
f 150//120 214//120 213//120
f 240//76 241//76 177//76
f 215//69 214//69 150//69
f 241//111 242//111 178//111
f 152//57 216//57 215//57
f 242//121 243//121 179//121
f 153//40 217//40 216//40
f 243//122 244//122 180//122
f 218//11 217//11 153//11
f 244//80 245//80 181//80
f 219//45 218//45 154//45
f 181//123 245//123 246//123
f 156//124 220//124 219//124
f 182//125 246//125 247//125
f 221//126 220//126 156//126
f 183//13 247//13 248//13
f 158//21 222//21 221//21
f 184//127 248//127 249//127
f 223//128 222//128 158//128
f 185//129 249//129 250//129
f 224//25 223//25 159//25
f 250//88 251//88 187//88
f 161//76 225//76 224//76
f 187//130 251//130 252//130
f 162//77 226//77 225//77
f 252//12 253//12 189//12
f 163//31 227//31 226//31
f 189//46 253//46 254//46
f 228//33 227//33 163//33
f 138//56 202//56 201//56
f 190//18 254//18 255//18
f 229//36 228//36 164//36
f 203//38 202//38 138//38
f 191//48 255//48 256//48
f 230//39 229//39 165//39
f 140//41 204//41 203//41
f 192//49 256//49 257//49
