# Blender v2.79 (sub 7) OBJ File: 'Universe Gate.blend'
# www.blender.org
o 15_Circle.113
v -3.202264 -0.209162 -2.366637
v -3.203193 -0.209162 -2.363513
v -3.203495 -0.209162 -2.360268
v -3.203158 -0.209162 -2.357027
v -3.202194 -0.209162 -2.353913
v -3.200643 -0.209162 -2.351048
v -3.198561 -0.209162 -2.348540
v -3.196031 -0.209162 -2.346486
v -3.193149 -0.209162 -2.344965
v -3.190025 -0.209162 -2.344036
v -3.186779 -0.209162 -2.343735
v -3.183538 -0.209162 -2.344072
v -3.180425 -0.209162 -2.345035
v -3.177559 -0.209162 -2.346586
v -3.175051 -0.209162 -2.348668
v -3.172997 -0.209162 -2.351199
v -3.171477 -0.209162 -2.354081
v -3.170548 -0.209162 -2.357205
v -3.170246 -0.209162 -2.360450
v -3.170583 -0.209162 -2.363692
v -3.171546 -0.209162 -2.366805
v -3.173098 -0.209162 -2.369670
v -3.175179 -0.209162 -2.372179
v -3.177710 -0.209162 -2.374232
v -3.180592 -0.209162 -2.375753
v -3.183716 -0.209162 -2.376682
v -3.186961 -0.209162 -2.376983
v -3.190202 -0.209162 -2.376646
v -3.193316 -0.209162 -2.375683
v -3.196182 -0.209162 -2.374131
v -3.198690 -0.209162 -2.372050
v -3.200743 -0.209162 -2.369519
v -3.202264 -0.190059 -2.366637
v -3.203193 -0.190059 -2.363513
v -3.203495 -0.190059 -2.360268
v -3.203158 -0.190059 -2.357027
v -3.202194 -0.190059 -2.353913
v -3.200643 -0.190059 -2.351048
v -3.198561 -0.190059 -2.348540
v -3.196031 -0.190059 -2.346486
v -3.193149 -0.190059 -2.344965
v -3.190025 -0.190059 -2.344036
v -3.186779 -0.190059 -2.343735
v -3.183538 -0.190059 -2.344072
v -3.180425 -0.190059 -2.345035
v -3.177559 -0.190059 -2.346586
v -3.175051 -0.190059 -2.348668
v -3.172997 -0.190059 -2.351199
v -3.171477 -0.190059 -2.354081
v -3.170548 -0.190059 -2.357205
v -3.170246 -0.190059 -2.360450
v -3.170583 -0.190059 -2.363692
v -3.171546 -0.190059 -2.366805
v -3.173098 -0.190059 -2.369670
v -3.175179 -0.190059 -2.372179
v -3.177710 -0.190059 -2.374232
v -3.180592 -0.190059 -2.375753
v -3.183716 -0.190059 -2.376682
v -3.186961 -0.190059 -2.376983
v -3.190202 -0.190059 -2.376646
v -3.193316 -0.190059 -2.375683
v -3.196182 -0.190059 -2.374131
v -3.198690 -0.190059 -2.372050
v -3.200743 -0.190059 -2.369519
v -3.134166 -0.209162 -2.313479
v -3.135095 -0.209162 -2.310356
v -3.135396 -0.209162 -2.307111
v -3.135059 -0.209162 -2.303869
v -3.134096 -0.209162 -2.300756
v -3.132545 -0.209162 -2.297890
v -3.130463 -0.209162 -2.295382
v -3.127933 -0.209162 -2.293329
v -3.125050 -0.209162 -2.291808
v -3.121927 -0.209162 -2.290879
v -3.118681 -0.209162 -2.290577
v -3.115440 -0.209162 -2.290914
v -3.112327 -0.209162 -2.291877
v -3.109461 -0.209162 -2.293429
v -3.106953 -0.209162 -2.295511
v -3.104899 -0.209162 -2.298041
v -3.103379 -0.209162 -2.300923
v -3.102450 -0.209162 -2.304047
v -3.102148 -0.209162 -2.307292
v -3.102485 -0.209162 -2.310534
v -3.103448 -0.209162 -2.313647
v -3.105000 -0.209162 -2.316513
v -3.107081 -0.209162 -2.319021
v -3.109612 -0.209162 -2.321074
v -3.112494 -0.209162 -2.322595
v -3.115618 -0.209162 -2.323524
v -3.118863 -0.209162 -2.323826
v -3.122105 -0.209162 -2.323489
v -3.125218 -0.209162 -2.322526
v -3.128083 -0.209162 -2.320974
v -3.130591 -0.209162 -2.318892
v -3.132646 -0.209162 -2.316362
v -3.134166 -0.190059 -2.313479
v -3.135095 -0.190059 -2.310356
v -3.135396 -0.190059 -2.307111
v -3.135059 -0.190059 -2.303869
v -3.134096 -0.190059 -2.300756
v -3.132545 -0.190059 -2.297890
v -3.130463 -0.190059 -2.295382
v -3.127933 -0.190059 -2.293329
v -3.125050 -0.190059 -2.291808
v -3.121927 -0.190059 -2.290879
v -3.118681 -0.190059 -2.290577
v -3.115440 -0.190059 -2.290914
v -3.112327 -0.190059 -2.291877
v -3.109461 -0.190059 -2.293429
v -3.106953 -0.190059 -2.295511
v -3.104899 -0.190059 -2.298041
v -3.103379 -0.190059 -2.300923
v -3.102450 -0.190059 -2.304047
v -3.102148 -0.190059 -2.307292
v -3.102485 -0.190059 -2.310534
v -3.103448 -0.190059 -2.313647
v -3.105000 -0.190059 -2.316513
v -3.107081 -0.190059 -2.319021
v -3.109612 -0.190059 -2.321074
v -3.112494 -0.190059 -2.322595
v -3.115618 -0.190059 -2.323524
v -3.118863 -0.190059 -2.323826
v -3.122105 -0.190059 -2.323489
v -3.125218 -0.190059 -2.322526
v -3.128083 -0.190059 -2.320974
v -3.130591 -0.190059 -2.318892
v -3.132646 -0.190059 -2.316362
v -3.167146 -0.209162 -2.338997
v -3.168075 -0.209162 -2.335873
v -3.168376 -0.209162 -2.332628
v -3.168040 -0.209162 -2.329387
v -3.167077 -0.209162 -2.326274
v -3.165525 -0.209162 -2.323408
v -3.163443 -0.209162 -2.320900
v -3.160913 -0.209162 -2.318846
v -3.158031 -0.209162 -2.317325
v -3.154907 -0.209162 -2.316396
v -3.151661 -0.209162 -2.316095
v -3.148420 -0.209162 -2.316432
v -3.145307 -0.209162 -2.317395
v -3.142441 -0.209162 -2.318947
v -3.139933 -0.209162 -2.321028
v -3.137879 -0.209162 -2.323558
v -3.136359 -0.209162 -2.326441
v -3.135430 -0.209162 -2.329565
v -3.135128 -0.209162 -2.332810
v -3.135465 -0.209162 -2.336051
v -3.136428 -0.209162 -2.339165
v -3.137980 -0.209162 -2.342031
v -3.140061 -0.209162 -2.344538
v -3.142592 -0.209162 -2.346592
v -3.145474 -0.209162 -2.348113
v -3.148598 -0.209162 -2.349042
v -3.151843 -0.209162 -2.349343
v -3.155084 -0.209162 -2.349006
v -3.158198 -0.209162 -2.348043
v -3.161064 -0.209162 -2.346491
v -3.163571 -0.209162 -2.344410
v -3.165625 -0.209162 -2.341880
v -3.167146 -0.190059 -2.338997
v -3.168075 -0.190059 -2.335873
v -3.168376 -0.190059 -2.332628
v -3.168040 -0.190059 -2.329387
v -3.167077 -0.190059 -2.326274
v -3.165525 -0.190059 -2.323408
v -3.163443 -0.190059 -2.320900
v -3.160913 -0.190059 -2.318846
v -3.158031 -0.190059 -2.317325
v -3.154907 -0.190059 -2.316396
v -3.151661 -0.190059 -2.316095
v -3.148420 -0.190059 -2.316432
v -3.145307 -0.190059 -2.317395
v -3.142441 -0.190059 -2.318947
v -3.139933 -0.190059 -2.321028
v -3.137879 -0.190059 -2.323558
v -3.136359 -0.190059 -2.326441
v -3.135430 -0.190059 -2.329565
v -3.135128 -0.190059 -2.332810
v -3.135465 -0.190059 -2.336051
v -3.136428 -0.190059 -2.339165
v -3.137980 -0.190059 -2.342031
v -3.140061 -0.190059 -2.344538
v -3.142592 -0.190059 -2.346592
v -3.145474 -0.190059 -2.348113
v -3.148598 -0.190059 -2.349042
v -3.151843 -0.190059 -2.349343
v -3.155084 -0.190059 -2.349006
v -3.158198 -0.190059 -2.348043
v -3.161064 -0.190059 -2.346491
v -3.163571 -0.190059 -2.344410
v -3.165625 -0.190059 -2.341880
v -3.016475 -0.217392 -2.214422
v -3.016577 -0.190798 -2.214501
v -3.100513 -0.217911 -2.280523
v -3.100615 -0.191317 -2.280602
v -3.005002 -0.217392 -2.229008
v -3.005104 -0.190798 -2.229088
v -3.089040 -0.217911 -2.295109
v -3.089142 -0.191317 -2.295188
vn 0.0000 -1.0000 0.0000
vn 0.0000 1.0000 0.0000
vn -0.9947 0.0000 0.1033
vn -0.6385 0.0000 -0.7696
vn 0.9585 0.0000 0.2850
vn -0.9553 0.0000 0.2956
vn -0.7765 0.0000 -0.6301
vn 0.9957 0.0000 0.0926
vn -0.8794 0.0000 0.4762
vn -0.8845 0.0000 -0.4666
vn 0.9946 0.0000 -0.1034
vn -0.7696 0.0000 0.6385
vn 0.9553 0.0000 -0.2955
vn -0.6301 0.0000 0.7765
vn 0.8794 0.0000 -0.4762
vn -0.4666 0.0000 0.8845
vn 0.7697 0.0000 -0.6384
vn -0.2849 0.0000 0.9585
vn 0.6300 0.0000 -0.7766
vn -0.0924 0.0000 0.9957
vn 0.4666 0.0000 -0.8844
vn 0.1034 0.0000 0.9946
vn 0.2850 0.0000 -0.9585
vn 0.2956 0.0000 0.9553
vn 0.0926 0.0000 -0.9957
vn 0.4761 0.0000 0.8794
vn -0.1033 0.0000 -0.9947
vn 0.6387 0.0000 0.7695
vn -0.9585 0.0000 -0.2851
vn -0.2956 0.0000 -0.9553
vn 0.7765 0.0000 0.6302
vn -0.9957 0.0000 -0.0925
vn -0.4763 0.0000 -0.8793
vn 0.8844 0.0000 0.4667
vn -0.9946 0.0000 0.1034
vn -0.6387 0.0000 -0.7695
vn -0.9554 0.0000 0.2955
vn -0.7763 0.0000 -0.6303
vn -0.8793 0.0000 0.4762
vn -0.8845 0.0000 -0.4665
vn 0.9553 0.0000 -0.2956
vn -0.6300 0.0000 0.7766
vn 0.8794 0.0000 -0.4761
vn -0.4665 0.0000 0.8845
vn 0.7696 0.0000 -0.6386
vn -0.2851 0.0000 0.9585
vn 0.6303 0.0000 -0.7764
vn -0.0926 0.0000 0.9957
vn 0.4666 0.0000 -0.8845
vn 0.2849 0.0000 -0.9586
vn 0.2954 0.0000 0.9554
vn 0.4762 0.0000 0.8793
vn -0.1035 0.0000 -0.9946
vn 0.6385 0.0000 0.7696
vn 0.7766 0.0000 0.6300
vn -0.6386 0.0000 -0.7696
vn 0.9585 0.0000 0.2851
vn -0.9553 0.0000 0.2955
vn -0.7765 0.0000 -0.6302
vn -0.8794 0.0000 0.4761
vn 0.9946 0.0000 -0.1035
vn -0.7696 0.0000 0.6386
vn 0.9554 0.0000 -0.2954
vn -0.6302 0.0000 0.7764
vn 0.8793 0.0000 -0.4763
vn 0.7695 0.0000 -0.6386
vn -0.2850 0.0000 0.9585
vn 0.1035 0.0000 0.9946
vn 0.2849 0.0000 -0.9585
vn 0.4763 0.0000 0.8793
vn -0.9585 0.0000 -0.2850
vn -0.4762 0.0000 -0.8793
vn 0.8845 0.0000 0.4666
vn -0.6182 -0.0000 0.7860
vn -0.7860 -0.0048 -0.6182
vn 0.6182 -0.0000 -0.7860
vn 0.7860 0.0049 0.6182
vn 0.0038 -1.0000 0.0030
vn -0.0038 1.0000 -0.0030
vn 0.0000 -1.0000 0.0001
vn 0.0000 -1.0000 -0.0001
vn 0.0000 1.0000 -0.0001
vn 0.9957 0.0000 0.0925
vn -0.7695 0.0000 0.6386
vn -0.4667 0.0000 0.8844
vn 0.7696 0.0000 -0.6385
vn 0.6301 0.0000 -0.7765
vn 0.2851 0.0000 -0.9585
vn 0.0924 0.0000 -0.9957
vn -0.1034 0.0000 -0.9946
vn -0.2955 0.0000 -0.9553
vn 0.7764 0.0000 0.6302
vn -0.9957 0.0000 -0.0926
vn -0.4761 0.0000 -0.8794
vn -0.7764 0.0000 -0.6303
vn 0.7695 0.0000 -0.6387
vn -0.2849 0.0000 0.9586
vn 0.6386 0.0000 0.7696
vn 0.7765 0.0000 0.6301
vn 0.0000 1.0000 0.0001
vn -0.6386 0.0000 -0.7695
vn -0.7764 0.0000 -0.6302
vn -0.7695 0.0000 0.6387
vn 0.9554 0.0000 -0.2955
vn 0.6302 0.0000 -0.7764
vn 0.2852 0.0000 -0.9585
vn 0.2955 0.0000 0.9553
vn 0.0925 0.0000 -0.9957
vn -0.2954 0.0000 -0.9554
vn 0.8845 0.0000 0.4665
vn -0.7860 -0.0049 -0.6182
s off
f 3//1 27//1 19//1
f 53//2 57//2 33//2
f 4//3 35//3 3//3
f 31//4 62//4 30//4
f 18//5 49//5 17//5
f 5//6 36//6 4//6
f 32//7 63//7 31//7
f 19//8 50//8 18//8
f 6//9 37//9 5//9
f 1//10 64//10 32//10
f 20//11 51//11 19//11
f 7//12 38//12 6//12
f 21//13 52//13 20//13
f 8//14 39//14 7//14
f 22//15 53//15 21//15
f 9//16 40//16 8//16
f 23//17 54//17 22//17
f 10//18 41//18 9//18
f 24//19 55//19 23//19
f 11//20 42//20 10//20
f 25//21 56//21 24//21
f 12//22 43//22 11//22
f 26//23 57//23 25//23
f 13//24 44//24 12//24
f 27//25 58//25 26//25
f 14//26 45//26 13//26
f 28//27 59//27 27//27
f 15//28 46//28 14//28
f 2//29 33//29 1//29
f 29//30 60//30 28//30
f 16//31 47//31 15//31
f 3//32 34//32 2//32
f 30//33 61//33 29//33
f 17//34 48//34 16//34
f 75//1 71//1 67//1
f 121//2 125//2 97//2
f 68//35 99//35 67//35
f 95//36 126//36 94//36
f 82//5 113//5 81//5
f 69//37 100//37 68//37
f 96//38 127//38 95//38
f 83//8 114//8 82//8
f 70//39 101//39 69//39
f 65//40 128//40 96//40
f 84//11 115//11 83//11
f 71//12 102//12 70//12
f 85//41 116//41 84//41
f 72//42 103//42 71//42
f 86//43 117//43 85//43
f 73//44 104//44 72//44
f 87//45 118//45 86//45
f 74//46 105//46 73//46
f 88//47 119//47 87//47
f 75//48 106//48 74//48
f 89//49 120//49 88//49
f 76//22 107//22 75//22
f 90//50 121//50 89//50
f 77//51 108//51 76//51
f 91//25 122//25 90//25
f 78//52 109//52 77//52
f 92//53 123//53 91//53
f 79//54 110//54 78//54
f 66//29 97//29 65//29
f 93//30 124//30 92//30
f 80//55 111//55 79//55
f 67//32 98//32 66//32
f 94//33 125//33 93//33
f 81//34 112//34 80//34
f 139//1 135//1 131//1
f 177//2 185//2 161//2
f 132//35 163//35 131//35
f 159//56 190//56 158//56
f 146//57 177//57 145//57
f 133//58 164//58 132//58
f 160//59 191//59 159//59
f 147//8 178//8 146//8
f 134//60 165//60 133//60
f 129//10 192//10 160//10
f 148//61 179//61 147//61
f 135//62 166//62 134//62
f 149//63 180//63 148//63
f 136//64 167//64 135//64
f 150//65 181//65 149//65
f 137//16 168//16 136//16
f 151//66 182//66 150//66
f 138//67 169//67 137//67
f 152//47 183//47 151//47
f 139//48 170//48 138//48
f 153//49 184//49 152//49
f 140//68 171//68 139//68
f 154//69 185//69 153//69
f 141//24 172//24 140//24
f 155//25 186//25 154//25
f 142//70 173//70 141//70
f 156//53 187//53 155//53
f 143//54 174//54 142//54
f 130//71 161//71 129//71
f 157//30 188//30 156//30
f 144//31 175//31 143//31
f 131//32 162//32 130//32
f 158//72 189//72 157//72
f 145//73 176//73 144//73
f 194//74 195//74 193//74
f 196//75 199//75 195//75
f 200//76 197//76 199//76
f 198//77 193//77 197//77
f 199//78 193//78 195//78
f 200//79 194//79 198//79
f 3//1 2//1 1//1
f 1//1 32//1 31//1
f 31//80 30//80 29//80
f 29//1 28//1 27//1
f 27//1 26//1 25//1
f 25//1 24//1 27//1
f 24//1 23//1 27//1
f 23//1 22//1 19//1
f 22//1 21//1 19//1
f 21//1 20//1 19//1
f 19//1 18//1 15//1
f 18//1 17//1 15//1
f 17//1 16//1 15//1
f 15//81 14//81 13//81
f 13//1 12//1 11//1
f 11//1 10//1 7//1
f 10//1 9//1 7//1
f 9//1 8//1 7//1
f 7//1 6//1 3//1
f 6//1 5//1 3//1
f 5//1 4//1 3//1
f 3//1 1//1 27//1
f 1//1 31//1 27//1
f 31//1 29//1 27//1
f 15//1 13//1 11//1
f 27//1 23//1 19//1
f 19//1 15//1 3//1
f 15//1 11//1 3//1
f 11//1 7//1 3//1
f 33//2 34//2 35//2
f 35//2 36//2 37//2
f 37//2 38//2 41//2
f 38//2 39//2 41//2
f 39//82 40//82 41//82
f 41//2 42//2 45//2
f 42//2 43//2 45//2
f 43//82 44//82 45//82
f 45//2 46//2 47//2
f 47//2 48//2 49//2
f 49//2 50//2 53//2
f 50//2 51//2 53//2
f 51//2 52//2 53//2
f 53//2 54//2 57//2
f 54//2 55//2 57//2
f 55//2 56//2 57//2
f 57//2 58//2 59//2
f 59//2 60//2 61//2
f 61//2 62//2 63//2
f 63//2 64//2 61//2
f 64//2 33//2 61//2
f 33//2 35//2 41//2
f 35//2 37//2 41//2
f 45//2 47//2 49//2
f 57//2 59//2 33//2
f 59//2 61//2 33//2
f 41//2 45//2 33//2
f 45//2 49//2 33//2
f 49//2 53//2 33//2
f 4//3 36//3 35//3
f 31//36 63//36 62//36
f 18//5 50//5 49//5
f 5//6 37//6 36//6
f 32//7 64//7 63//7
f 19//83 51//83 50//83
f 6//39 38//39 37//39
f 1//10 33//10 64//10
f 20//11 52//11 51//11
f 7//84 39//84 38//84
f 21//13 53//13 52//13
f 8//64 40//64 39//64
f 22//65 54//65 53//65
f 9//85 41//85 40//85
f 23//86 55//86 54//86
f 10//46 42//46 41//46
f 24//87 56//87 55//87
f 11//48 43//48 42//48
f 25//21 57//21 56//21
f 12//22 44//22 43//22
f 26//88 58//88 57//88
f 13//24 45//24 44//24
f 27//89 59//89 58//89
f 14//26 46//26 45//26
f 28//90 60//90 59//90
f 15//28 47//28 46//28
f 2//29 34//29 33//29
f 29//91 61//91 60//91
f 16//92 48//92 47//92
f 3//93 35//93 34//93
f 30//94 62//94 61//94
f 17//73 49//73 48//73
f 67//1 66//1 65//1
f 65//1 96//1 95//1
f 95//1 94//1 91//1
f 94//1 93//1 91//1
f 93//81 92//81 91//81
f 91//1 90//1 87//1
f 90//1 89//1 87//1
f 89//81 88//81 87//81
f 87//1 86//1 85//1
f 85//1 84//1 83//1
f 83//1 82//1 81//1
f 81//1 80//1 83//1
f 80//1 79//1 83//1
f 79//1 78//1 75//1
f 78//1 77//1 75//1
f 77//81 76//81 75//81
f 75//81 74//81 73//81
f 73//1 72//1 75//1
f 72//1 71//1 75//1
f 71//1 70//1 69//1
f 69//1 68//1 71//1
f 68//1 67//1 71//1
f 67//1 65//1 91//1
f 65//1 95//1 91//1
f 87//1 85//1 83//1
f 91//1 87//1 67//1
f 87//1 83//1 67//1
f 83//1 79//1 67//1
f 79//1 75//1 67//1
f 97//2 98//2 99//2
f 99//2 100//2 97//2
f 100//2 101//2 97//2
f 101//2 102//2 103//2
f 103//2 104//2 101//2
f 104//2 105//2 101//2
f 105//2 106//2 107//2
f 107//2 108//2 109//2
f 109//2 110//2 111//2
f 111//2 112//2 109//2
f 112//2 113//2 109//2
f 113//2 114//2 117//2
f 114//2 115//2 117//2
f 115//2 116//2 117//2
f 117//2 118//2 119//2
f 119//2 120//2 117//2
f 120//2 121//2 117//2
f 121//2 122//2 125//2
f 122//2 123//2 125//2
f 123//2 124//2 125//2
f 125//2 126//2 97//2
f 126//2 127//2 97//2
f 127//2 128//2 97//2
f 105//2 107//2 109//2
f 97//2 101//2 105//2
f 105//2 109//2 97//2
f 109//2 113//2 97//2
f 113//2 117//2 97//2
f 117//2 121//2 97//2
f 68//35 100//35 99//35
f 95//4 127//4 126//4
f 82//5 114//5 113//5
f 69//58 101//58 100//58
f 96//95 128//95 127//95
f 83//8 115//8 114//8
f 70//39 102//39 101//39
f 65//40 97//40 128//40
f 84//11 116//11 115//11
f 71//12 103//12 102//12
f 85//41 117//41 116//41
f 72//14 104//14 103//14
f 86//15 118//15 117//15
f 73//85 105//85 104//85
f 87//96 119//96 118//96
f 74//97 106//97 105//97
f 88//87 120//87 119//87
f 75//48 107//48 106//48
f 89//49 121//49 120//49
f 76//68 108//68 107//68
f 90//88 122//88 121//88
f 77//24 109//24 108//24
f 91//25 123//25 122//25
f 78//70 110//70 109//70
f 92//90 124//90 123//90
f 79//98 111//98 110//98
f 66//29 98//29 97//29
f 93//91 125//91 124//91
f 80//99 112//99 111//99
f 67//93 99//93 98//93
f 94//72 126//72 125//72
f 81//34 113//34 112//34
f 131//1 130//1 159//1
f 130//1 129//1 159//1
f 129//1 160//1 159//1
f 159//1 158//1 157//1
f 157//1 156//1 159//1
f 156//1 155//1 159//1
f 155//1 154//1 153//1
f 153//80 152//80 151//80
f 151//1 150//1 149//1
f 149//1 148//1 151//1
f 148//1 147//1 151//1
f 147//1 146//1 145//1
f 145//1 144//1 143//1
f 143//81 142//81 141//81
f 141//1 140//1 139//1
f 139//1 138//1 135//1
f 138//1 137//1 135//1
f 137//1 136//1 135//1
f 135//1 134//1 131//1
f 134//1 133//1 131//1
f 133//1 132//1 131//1
f 155//1 153//1 151//1
f 147//1 145//1 143//1
f 143//1 141//1 139//1
f 131//1 159//1 147//1
f 159//1 155//1 147//1
f 155//1 151//1 147//1
f 147//1 143//1 131//1
f 143//1 139//1 131//1
f 161//2 162//2 165//2
f 162//2 163//2 165//2
f 163//2 164//2 165//2
f 165//2 166//2 167//2
f 167//82 168//82 169//82
f 169//2 170//2 173//2
f 170//2 171//2 173//2
f 171//82 172//82 173//82
f 173//2 174//2 177//2
f 174//2 175//2 177//2
f 175//2 176//2 177//2
f 177//2 178//2 179//2
f 179//2 180//2 177//2
f 180//2 181//2 177//2
f 181//2 182//2 183//2
f 183//2 184//2 185//2
f 185//2 186//2 187//2
f 187//2 188//2 185//2
f 188//2 189//2 185//2
f 189//100 190//100 191//100
f 191//2 192//2 161//2
f 165//2 167//2 161//2
f 167//2 169//2 161//2
f 181//2 183//2 177//2
f 183//2 185//2 177//2
f 189//2 191//2 185//2
f 191//2 161//2 185//2
f 169//2 173//2 161//2
f 173//2 177//2 161//2
f 132//35 164//35 163//35
f 159//101 191//101 190//101
f 146//57 178//57 177//57
f 133//58 165//58 164//58
f 160//102 192//102 191//102
f 147//8 179//8 178//8
f 134//9 166//9 165//9
f 129//10 161//10 192//10
f 148//61 180//61 179//61
f 135//103 167//103 166//103
f 149//104 181//104 180//104
f 136//14 168//14 167//14
f 150//15 182//15 181//15
f 137//16 169//16 168//16
f 151//96 183//96 182//96
f 138//46 170//46 169//46
f 152//105 184//105 183//105
f 139//48 171//48 170//48
f 153//49 185//49 184//49
f 140//22 172//22 171//22
f 154//106 186//106 185//106
f 141//107 173//107 172//107
f 155//108 187//108 186//108
f 142//26 174//26 173//26
f 156//90 188//90 187//90
f 143//28 175//28 174//28
f 130//71 162//71 161//71
f 157//109 189//109 188//109
f 144//92 176//92 175//92
f 131//93 163//93 162//93
f 158//72 190//72 189//72
f 145//110 177//110 176//110
f 194//74 196//74 195//74
f 196//111 200//111 199//111
f 200//76 198//76 197//76
f 198//77 194//77 193//77
f 199//78 197//78 193//78
f 200//79 196//79 194//79
