# Blender v2.79 (sub 7) OBJ File: 'Universe Gate.blend'
# www.blender.org
o 16_Cube.052
v -3.280337 -0.217515 -1.772152
v -3.280451 -0.190921 -1.772213
v -3.329888 -0.217788 -1.798666
v -3.330002 -0.191194 -1.798727
v -3.271581 -0.217515 -1.788514
v -3.271695 -0.190921 -1.788575
v -3.321132 -0.217788 -1.815029
v -3.321246 -0.191194 -1.815089
v -3.339250 -0.217515 -1.803837
v -3.339364 -0.190921 -1.803898
v -3.388800 -0.217788 -1.830352
v -3.388914 -0.191194 -1.830413
v -3.330494 -0.217515 -1.820199
v -3.330608 -0.190921 -1.820261
v -3.380045 -0.217788 -1.846714
v -3.380159 -0.191194 -1.846775
v -3.448224 -0.209637 -1.881927
v -3.447668 -0.209637 -1.886783
v -3.448071 -0.209637 -1.891654
v -3.449415 -0.209637 -1.896352
v -3.451651 -0.209637 -1.900698
v -3.454691 -0.209637 -1.904524
v -3.458420 -0.209637 -1.907683
v -3.462693 -0.209637 -1.910055
v -3.467347 -0.209637 -1.911547
v -3.472203 -0.209637 -1.912102
v -3.477074 -0.209637 -1.911700
v -3.481772 -0.209637 -1.910355
v -3.486118 -0.209637 -1.908119
v -3.489944 -0.209637 -1.905079
v -3.493104 -0.209637 -1.901350
v -3.495475 -0.209637 -1.897077
v -3.496967 -0.209637 -1.892423
v -3.497522 -0.209637 -1.887568
v -3.497120 -0.209637 -1.882697
v -3.495775 -0.209637 -1.877998
v -3.493540 -0.209637 -1.873653
v -3.490499 -0.209637 -1.869826
v -3.486770 -0.209637 -1.866667
v -3.482497 -0.209637 -1.864295
v -3.477843 -0.209637 -1.862804
v -3.472988 -0.209637 -1.862248
v -3.468117 -0.209637 -1.862651
v -3.463418 -0.209637 -1.863995
v -3.459072 -0.209637 -1.866231
v -3.455247 -0.209637 -1.869272
v -3.452086 -0.209637 -1.873000
v -3.449715 -0.209637 -1.877274
v -3.462614 -0.209637 -1.885026
v -3.462386 -0.209637 -1.887015
v -3.462551 -0.209637 -1.889009
v -3.463102 -0.209637 -1.890934
v -3.464017 -0.209637 -1.892713
v -3.465262 -0.209637 -1.894280
v -3.466790 -0.209637 -1.895574
v -3.468540 -0.209637 -1.896545
v -3.470446 -0.209637 -1.897157
v -3.472434 -0.209637 -1.897384
v -3.474429 -0.209637 -1.897220
v -3.476353 -0.209637 -1.896669
v -3.478133 -0.209637 -1.895753
v -3.479700 -0.209637 -1.894508
v -3.480994 -0.209637 -1.892981
v -3.481966 -0.209637 -1.891231
v -3.482576 -0.209637 -1.889324
v -3.482804 -0.209637 -1.887336
v -3.482639 -0.209637 -1.885341
v -3.482088 -0.209637 -1.883417
v -3.481173 -0.209637 -1.881637
v -3.479928 -0.209637 -1.880070
v -3.478400 -0.209637 -1.878776
v -3.476650 -0.209637 -1.877805
v -3.474745 -0.209637 -1.877194
v -3.472756 -0.209637 -1.876966
v -3.470761 -0.209637 -1.877131
v -3.468837 -0.209637 -1.877682
v -3.467057 -0.209637 -1.878597
v -3.465490 -0.209637 -1.879843
v -3.464196 -0.209637 -1.881370
v -3.463224 -0.209637 -1.883120
v -3.448224 -0.191253 -1.881927
v -3.447668 -0.191253 -1.886783
v -3.448070 -0.191253 -1.891653
v -3.449415 -0.191253 -1.896352
v -3.451651 -0.191253 -1.900698
v -3.454691 -0.191253 -1.904524
v -3.458420 -0.191253 -1.907683
v -3.462693 -0.191253 -1.910055
v -3.467347 -0.191253 -1.911547
v -3.472203 -0.191253 -1.912102
v -3.477074 -0.191253 -1.911700
v -3.481772 -0.191253 -1.910355
v -3.486118 -0.191253 -1.908119
v -3.489944 -0.191253 -1.905079
v -3.493104 -0.191253 -1.901350
v -3.495475 -0.191253 -1.897077
v -3.496967 -0.191253 -1.892423
v -3.497522 -0.191253 -1.887567
v -3.497120 -0.191253 -1.882697
v -3.495775 -0.191253 -1.877998
v -3.493539 -0.191253 -1.873653
v -3.490499 -0.191253 -1.869827
v -3.486770 -0.191253 -1.866667
v -3.482497 -0.191253 -1.864295
v -3.477843 -0.191253 -1.862804
v -3.472988 -0.191253 -1.862248
v -3.468117 -0.191253 -1.862650
v -3.463418 -0.191253 -1.863995
v -3.459073 -0.191253 -1.866231
v -3.455246 -0.191253 -1.869272
v -3.452087 -0.191253 -1.873000
v -3.449715 -0.191253 -1.877274
v -3.462614 -0.191253 -1.885026
v -3.462386 -0.191253 -1.887015
v -3.462551 -0.191253 -1.889009
v -3.463102 -0.191253 -1.890934
v -3.464017 -0.191253 -1.892714
v -3.465262 -0.191253 -1.894280
v -3.466790 -0.191253 -1.895574
v -3.468540 -0.191253 -1.896546
v -3.470446 -0.191253 -1.897157
v -3.472434 -0.191253 -1.897384
v -3.474429 -0.191253 -1.897220
v -3.476353 -0.191253 -1.896669
v -3.478133 -0.191253 -1.895753
v -3.479701 -0.191253 -1.894508
v -3.480994 -0.191253 -1.892981
v -3.481966 -0.191253 -1.891231
v -3.482576 -0.191253 -1.889324
v -3.482805 -0.191253 -1.887336
v -3.482639 -0.191253 -1.885341
v -3.482088 -0.191253 -1.883417
v -3.481173 -0.191253 -1.881637
v -3.479928 -0.191253 -1.880070
v -3.478400 -0.191253 -1.878776
v -3.476650 -0.191253 -1.877805
v -3.474745 -0.191253 -1.877194
v -3.472756 -0.191253 -1.876966
v -3.470761 -0.191253 -1.877131
v -3.468837 -0.191253 -1.877682
v -3.467057 -0.191253 -1.878597
v -3.465490 -0.191253 -1.879843
v -3.464196 -0.191253 -1.881370
v -3.463224 -0.191253 -1.883120
v -3.397138 -0.217515 -1.835228
v -3.397252 -0.190921 -1.835289
v -3.446689 -0.217788 -1.861743
v -3.446802 -0.191194 -1.861804
v -3.388383 -0.217515 -1.851591
v -3.388496 -0.190921 -1.851652
v -3.437933 -0.217788 -1.878106
v -3.438047 -0.191194 -1.878167
vn -0.4718 0.0000 0.8817
vn -0.8817 -0.0049 -0.4718
vn 0.4718 -0.0000 -0.8817
vn 0.8817 0.0049 0.4718
vn 0.0043 -1.0000 0.0023
vn -0.0043 1.0000 -0.0023
vn -0.0000 -1.0000 0.0000
vn 0.0000 1.0000 0.0000
vn 0.7629 0.0000 0.6466
vn 0.8892 -0.0000 -0.4575
vn 0.1134 0.0000 -0.9936
vn 0.8744 0.0000 0.4852
vn 0.7829 0.0000 -0.6221
vn -0.0820 0.0000 -0.9966
vn 0.9523 0.0000 0.3052
vn 0.6464 0.0000 -0.7630
vn -0.2754 0.0000 -0.9613
vn -0.9935 0.0000 -0.1137
vn 0.4852 0.0000 -0.8744
vn -0.4575 0.0000 -0.8892
vn -0.9966 0.0000 0.0823
vn 0.3054 0.0000 -0.9522
vn -0.6222 -0.0000 -0.7829
vn -0.9614 0.0000 0.2753
vn 0.1136 0.0000 -0.9935
vn -0.7630 0.0000 -0.6464
vn -0.8893 0.0000 0.4574
vn -0.0823 0.0000 -0.9966
vn -0.8743 0.0000 -0.4854
vn -0.7829 -0.0000 0.6221
vn -0.2753 0.0000 -0.9614
vn -0.9523 0.0000 -0.3052
vn -0.6463 0.0000 0.7631
vn -0.4574 0.0000 -0.8892
vn -0.4850 0.0000 0.8745
vn -0.6221 0.0000 -0.7830
vn -0.3056 0.0000 0.9521
vn -0.7629 0.0000 -0.6465
vn -0.1134 0.0000 0.9935
vn -0.8744 -0.0000 -0.4852
vn 0.0822 0.0000 0.9966
vn -0.9523 0.0000 -0.3053
vn 0.2754 0.0000 0.9613
vn 0.4576 0.0000 0.8891
vn 0.6221 0.0000 0.7830
vn -0.9614 0.0000 0.2752
vn 0.7628 0.0001 0.6466
vn -0.7829 0.0000 0.6222
vn 0.9523 0.0000 0.3051
vn -0.6465 -0.0000 0.7629
vn 0.9935 0.0000 0.1137
vn -0.4853 0.0000 0.8744
vn 0.9966 0.0000 -0.0823
vn -0.3053 0.0000 0.9523
vn 0.9614 0.0000 -0.2752
vn -0.1136 0.0000 0.9935
vn 0.8893 0.0000 -0.4574
vn 0.0823 -0.0000 0.9966
vn 0.2751 0.0000 0.9614
vn 0.4575 0.0000 0.8892
vn 0.4854 0.0000 -0.8743
vn 0.6222 -0.0000 0.7829
vn 0.3052 0.0000 -0.9523
vn -0.8817 -0.0048 -0.4718
vn 0.8817 0.0048 0.4718
vn 0.7629 0.0000 0.6465
vn 0.1137 0.0000 -0.9935
vn 0.8743 0.0000 0.4853
vn -0.0822 0.0000 -0.9966
vn -0.9935 0.0000 -0.1136
vn 0.3053 0.0000 -0.9523
vn -0.6220 0.0000 -0.7830
vn -0.8743 0.0000 -0.4853
vn -0.2752 0.0000 -0.9614
vn -0.9523 0.0000 -0.3051
vn -0.6464 0.0000 0.7630
vn -0.4852 0.0000 0.8744
vn -0.3052 -0.0000 0.9523
vn -0.7629 0.0000 -0.6466
vn -0.1138 -0.0000 0.9935
vn 0.2752 0.0000 0.9614
vn 0.4576 0.0000 0.8892
vn -0.9966 -0.0000 0.0824
vn 0.6220 0.0000 0.7830
vn 0.7630 0.0000 0.6464
vn -0.8892 0.0000 0.4575
vn 0.9935 0.0000 0.1140
vn 0.9966 0.0001 -0.0827
vn -0.1137 0.0000 0.9935
vn 0.7830 0.0000 -0.6220
vn 0.9966 -0.0000 -0.0824
vn 0.6221 0.0000 0.7829
s off
f 2//1 3//1 1//1
f 3//2 8//2 7//2
f 7//3 6//3 5//3
f 6//4 1//4 5//4
f 7//5 1//5 3//5
f 8//6 2//6 6//6
f 10//1 11//1 9//1
f 11//2 16//2 15//2
f 15//3 14//3 13//3
f 14//4 9//4 13//4
f 15//5 9//5 11//5
f 16//6 10//6 14//6
f 36//7 67//7 68//7
f 23//7 54//7 55//7
f 37//7 68//7 69//7
f 24//7 55//7 56//7
f 38//7 69//7 70//7
f 25//7 56//7 57//7
f 39//7 70//7 71//7
f 26//7 57//7 58//7
f 40//7 71//7 72//7
f 26//7 59//7 27//7
f 41//7 72//7 73//7
f 27//7 60//7 28//7
f 42//7 73//7 74//7
f 28//7 61//7 29//7
f 42//7 75//7 43//7
f 29//7 62//7 30//7
f 43//7 76//7 44//7
f 30//7 63//7 31//7
f 17//7 50//7 18//7
f 44//7 77//7 45//7
f 31//7 64//7 32//7
f 19//7 50//7 51//7
f 45//7 78//7 46//7
f 32//7 65//7 33//7
f 20//7 51//7 52//7
f 46//7 79//7 47//7
f 33//7 66//7 34//7
f 21//7 52//7 53//7
f 47//7 80//7 48//7
f 35//7 66//7 67//7
f 22//7 53//7 54//7
f 48//7 49//7 17//7
f 100//8 131//8 99//8
f 87//8 118//8 86//8
f 101//8 132//8 100//8
f 88//8 119//8 87//8
f 102//8 133//8 101//8
f 89//8 120//8 88//8
f 103//8 134//8 102//8
f 90//8 121//8 89//8
f 104//8 135//8 103//8
f 123//8 90//8 91//8
f 105//8 136//8 104//8
f 124//8 91//8 92//8
f 106//8 137//8 105//8
f 125//8 92//8 93//8
f 139//8 106//8 107//8
f 126//8 93//8 94//8
f 140//8 107//8 108//8
f 127//8 94//8 95//8
f 114//8 81//8 82//8
f 141//8 108//8 109//8
f 128//8 95//8 96//8
f 83//8 114//8 82//8
f 142//8 109//8 110//8
f 129//8 96//8 97//8
f 84//8 115//8 83//8
f 143//8 110//8 111//8
f 130//8 97//8 98//8
f 85//8 116//8 84//8
f 144//8 111//8 112//8
f 99//8 130//8 98//8
f 86//8 117//8 85//8
f 113//8 112//8 81//8
f 111//9 46//9 47//9
f 85//10 20//10 21//10
f 73//11 138//11 74//11
f 112//12 47//12 48//12
f 86//13 21//13 22//13
f 74//14 139//14 75//14
f 81//15 48//15 17//15
f 87//16 22//16 23//16
f 139//17 76//17 75//17
f 113//18 50//18 49//18
f 24//19 87//19 23//19
f 140//20 77//20 76//20
f 114//21 51//21 50//21
f 89//22 24//22 25//22
f 141//23 78//23 77//23
f 51//24 116//24 52//24
f 90//25 25//25 26//25
f 142//26 79//26 78//26
f 116//27 53//27 52//27
f 27//28 90//28 26//28
f 143//29 80//29 79//29
f 117//30 54//30 53//30
f 92//31 27//31 28//31
f 144//32 49//32 80//32
f 54//33 119//33 55//33
f 93//34 28//34 29//34
f 55//35 120//35 56//35
f 94//36 29//36 30//36
f 120//37 57//37 56//37
f 31//38 94//38 30//38
f 57//39 122//39 58//39
f 96//40 31//40 32//40
f 122//41 59//41 58//41
f 97//42 32//42 33//42
f 123//43 60//43 59//43
f 34//18 97//18 33//18
f 124//44 61//44 60//44
f 99//21 34//21 35//21
f 125//45 62//45 61//45
f 36//46 99//46 35//46
f 126//47 63//47 62//47
f 37//27 100//27 36//27
f 127//12 64//12 63//12
f 102//48 37//48 38//48
f 128//49 65//49 64//49
f 39//50 102//50 38//50
f 129//51 66//51 65//51
f 104//52 39//52 40//52
f 66//53 131//53 67//53
f 41//54 104//54 40//54
f 131//55 68//55 67//55
f 42//56 105//56 41//56
f 132//57 69//57 68//57
f 107//58 42//58 43//58
f 69//13 134//13 70//13
f 108//59 43//59 44//59
f 82//51 17//51 18//51
f 134//16 71//16 70//16
f 109//60 44//60 45//60
f 83//53 18//53 19//53
f 135//61 72//61 71//61
f 110//62 45//62 46//62
f 84//55 19//55 20//55
f 72//63 137//63 73//63
f 146//1 147//1 145//1
f 147//64 152//64 151//64
f 151//3 150//3 149//3
f 150//4 145//4 149//4
f 151//5 145//5 147//5
f 152//6 146//6 150//6
f 2//1 4//1 3//1
f 3//2 4//2 8//2
f 7//3 8//3 6//3
f 6//65 2//65 1//65
f 7//5 5//5 1//5
f 8//6 4//6 2//6
f 10//1 12//1 11//1
f 11//64 12//64 16//64
f 15//3 16//3 14//3
f 14//65 10//65 9//65
f 15//5 13//5 9//5
f 16//6 12//6 10//6
f 36//7 35//7 67//7
f 23//7 22//7 54//7
f 37//7 36//7 68//7
f 24//7 23//7 55//7
f 38//7 37//7 69//7
f 25//7 24//7 56//7
f 39//7 38//7 70//7
f 26//7 25//7 57//7
f 40//7 39//7 71//7
f 26//7 58//7 59//7
f 41//7 40//7 72//7
f 27//7 59//7 60//7
f 42//7 41//7 73//7
f 28//7 60//7 61//7
f 42//7 74//7 75//7
f 29//7 61//7 62//7
f 43//7 75//7 76//7
f 30//7 62//7 63//7
f 17//7 49//7 50//7
f 44//7 76//7 77//7
f 31//7 63//7 64//7
f 19//7 18//7 50//7
f 45//7 77//7 78//7
f 32//7 64//7 65//7
f 20//7 19//7 51//7
f 46//7 78//7 79//7
f 33//7 65//7 66//7
f 21//7 20//7 52//7
f 47//7 79//7 80//7
f 35//7 34//7 66//7
f 22//7 21//7 53//7
f 48//7 80//7 49//7
f 100//8 132//8 131//8
f 87//8 119//8 118//8
f 101//8 133//8 132//8
f 88//8 120//8 119//8
f 102//8 134//8 133//8
f 89//8 121//8 120//8
f 103//8 135//8 134//8
f 90//8 122//8 121//8
f 104//8 136//8 135//8
f 123//8 122//8 90//8
f 105//8 137//8 136//8
f 124//8 123//8 91//8
f 106//8 138//8 137//8
f 125//8 124//8 92//8
f 139//8 138//8 106//8
f 126//8 125//8 93//8
f 140//8 139//8 107//8
f 127//8 126//8 94//8
f 114//8 113//8 81//8
f 141//8 140//8 108//8
f 128//8 127//8 95//8
f 83//8 115//8 114//8
f 142//8 141//8 109//8
f 129//8 128//8 96//8
f 84//8 116//8 115//8
f 143//8 142//8 110//8
f 130//8 129//8 97//8
f 85//8 117//8 116//8
f 144//8 143//8 111//8
f 99//8 131//8 130//8
f 86//8 118//8 117//8
f 113//8 144//8 112//8
f 111//66 110//66 46//66
f 85//57 84//57 20//57
f 73//67 137//67 138//67
f 112//68 111//68 47//68
f 86//13 85//13 21//13
f 74//69 138//69 139//69
f 81//15 112//15 48//15
f 87//16 86//16 22//16
f 139//17 140//17 76//17
f 113//70 114//70 50//70
f 24//19 88//19 87//19
f 140//20 141//20 77//20
f 114//21 115//21 51//21
f 89//71 88//71 24//71
f 141//72 142//72 78//72
f 51//24 115//24 116//24
f 90//67 89//67 25//67
f 142//26 143//26 79//26
f 116//27 117//27 53//27
f 27//28 91//28 90//28
f 143//73 144//73 80//73
f 117//30 118//30 54//30
f 92//74 91//74 27//74
f 144//75 113//75 49//75
f 54//76 118//76 119//76
f 93//20 92//20 28//20
f 55//77 119//77 120//77
f 94//23 93//23 29//23
f 120//78 121//78 57//78
f 31//79 95//79 94//79
f 57//80 121//80 122//80
f 96//40 95//40 31//40
f 122//41 123//41 59//41
f 97//42 96//42 32//42
f 123//81 124//81 60//81
f 34//18 98//18 97//18
f 124//82 125//82 61//82
f 99//83 98//83 34//83
f 125//84 126//84 62//84
f 36//46 100//46 99//46
f 126//85 127//85 63//85
f 37//86 101//86 100//86
f 127//12 128//12 64//12
f 102//48 101//48 37//48
f 128//15 129//15 65//15
f 39//50 103//50 102//50
f 129//87 130//87 66//87
f 104//52 103//52 39//52
f 66//88 130//88 131//88
f 41//54 105//54 104//54
f 131//55 132//55 68//55
f 42//89 106//89 105//89
f 132//10 133//10 69//10
f 107//58 106//58 42//58
f 69//90 133//90 134//90
f 108//59 107//59 43//59
f 82//51 81//51 17//51
f 134//16 135//16 71//16
f 109//60 108//60 44//60
f 83//91 82//91 18//91
f 135//61 136//61 72//61
f 110//92 109//92 45//92
f 84//55 83//55 19//55
f 72//71 136//71 137//71
f 146//1 148//1 147//1
f 147//2 148//2 152//2
f 151//3 152//3 150//3
f 150//65 146//65 145//65
f 151//5 149//5 145//5
f 152//6 148//6 146//6
