# Blender v2.79 (sub 7) OBJ File: 'Universe Gate.blend'
# www.blender.org
o 22_Plane.025
v -3.168242 -0.210235 2.241258
v -3.143584 -0.210443 2.249795
v -3.099231 -0.209911 2.193620
v -3.080218 -0.210160 2.207161
v -3.105518 -0.209991 2.201915
v -3.109822 -0.211150 2.205255
v -3.117679 -0.210874 2.208252
v -3.131165 -0.210239 2.212560
v -3.145437 -0.210030 2.217801
v -3.153999 -0.210081 2.224533
v -3.162979 -0.210154 2.233171
v -3.138322 -0.210362 2.241709
v -3.134831 -0.210332 2.238245
v -3.127652 -0.210282 2.231956
v -3.121745 -0.210022 2.229492
v -3.111395 -0.208992 2.227383
v -3.100136 -0.209644 2.224372
v -3.088532 -0.210255 2.217329
v -3.168171 -0.189290 2.241473
v -3.143514 -0.189498 2.250010
v -3.099161 -0.188967 2.193835
v -3.080148 -0.189215 2.207376
v -3.105448 -0.189046 2.202130
v -3.109752 -0.190205 2.205470
v -3.117609 -0.189929 2.208468
v -3.131095 -0.189295 2.212776
v -3.145367 -0.189086 2.218016
v -3.153929 -0.189136 2.224749
v -3.162909 -0.189209 2.233386
v -3.138252 -0.189417 2.241924
v -3.134761 -0.189387 2.238461
v -3.127582 -0.189337 2.232171
v -3.121675 -0.189077 2.229707
v -3.111325 -0.188047 2.227599
v -3.100067 -0.188699 2.224587
v -3.088462 -0.189310 2.217544
v -3.264865 -0.217515 2.305924
v -3.264760 -0.190921 2.305849
v -3.219150 -0.217788 2.273238
v -3.219045 -0.191194 2.273163
v -3.254072 -0.217515 2.321020
v -3.253967 -0.190921 2.320945
v -3.208356 -0.217788 2.288334
v -3.208251 -0.191194 2.288259
v -3.175082 -0.210063 2.254952
v -3.177228 -0.210063 2.252500
v -3.179811 -0.210063 2.250513
v -3.182733 -0.210063 2.249068
v -3.185880 -0.210063 2.248222
v -3.189132 -0.210063 2.248005
v -3.192363 -0.210063 2.248427
v -3.195451 -0.210063 2.249471
v -3.198275 -0.210063 2.251098
v -3.200727 -0.210063 2.253244
v -3.202714 -0.210063 2.255828
v -3.204159 -0.210063 2.258749
v -3.205005 -0.210063 2.261896
v -3.205222 -0.210063 2.265148
v -3.204800 -0.210063 2.268379
v -3.203756 -0.210063 2.271466
v -3.202129 -0.210063 2.274291
v -3.199983 -0.210063 2.276743
v -3.197400 -0.210063 2.278730
v -3.194478 -0.210063 2.280174
v -3.191331 -0.210063 2.281021
v -3.188080 -0.210063 2.281238
v -3.184848 -0.210063 2.280816
v -3.181760 -0.210063 2.279772
v -3.178936 -0.210063 2.278145
v -3.176484 -0.210063 2.275999
v -3.174497 -0.210063 2.273415
v -3.173053 -0.210063 2.270494
v -3.172206 -0.210063 2.267347
v -3.171989 -0.210063 2.264095
v -3.172411 -0.210063 2.260864
v -3.173455 -0.210063 2.257776
v -3.175082 -0.190960 2.254952
v -3.177228 -0.190960 2.252500
v -3.179811 -0.190960 2.250513
v -3.182733 -0.190960 2.249068
v -3.185880 -0.190960 2.248222
v -3.189132 -0.190960 2.248005
v -3.192363 -0.190960 2.248427
v -3.195451 -0.190960 2.249471
v -3.198275 -0.190960 2.251098
v -3.200727 -0.190960 2.253244
v -3.202714 -0.190960 2.255828
v -3.204159 -0.190960 2.258749
v -3.205005 -0.190960 2.261896
v -3.205222 -0.190960 2.265148
v -3.204800 -0.190960 2.268379
v -3.203756 -0.190960 2.271466
v -3.202129 -0.190960 2.274291
v -3.199983 -0.190960 2.276743
v -3.197400 -0.190960 2.278730
v -3.194478 -0.190960 2.280174
v -3.191331 -0.190960 2.281021
v -3.188080 -0.190960 2.281238
v -3.184848 -0.190960 2.280816
v -3.181760 -0.190960 2.279772
v -3.178936 -0.190960 2.278145
v -3.176484 -0.190960 2.275999
v -3.174497 -0.190960 2.273415
v -3.173053 -0.190960 2.270494
v -3.172206 -0.190960 2.267347
v -3.171989 -0.190960 2.264095
v -3.172411 -0.190960 2.260864
v -3.173455 -0.190960 2.257776
vn -0.0041 -0.9999 -0.0127
vn -0.0040 -0.9999 -0.0127
vn -0.0145 -0.9999 0.0004
vn -0.0364 -0.9988 0.0331
vn 0.0022 -0.9953 0.0972
vn 0.2305 -0.9722 -0.0402
vn 0.0041 0.9999 0.0127
vn 0.0040 0.9999 0.0127
vn 0.0145 0.9999 -0.0004
vn 0.0364 0.9988 -0.0331
vn -0.0022 0.9953 -0.0972
vn -0.2306 0.9722 0.0402
vn -0.3445 0.0108 -0.9387
vn -0.3272 -0.0086 0.9449
vn 0.2578 -0.0108 0.9661
vn -0.6182 0.0102 -0.7860
vn 0.7741 -0.0091 0.6330
vn 0.5184 -0.0105 0.8551
vn -0.6932 0.0097 -0.7206
vn 0.5802 0.0064 -0.8145
vn 0.8382 -0.0084 0.5453
vn -0.7970 0.0089 -0.6040
vn 0.7042 -0.0097 0.7099
vn -0.6147 0.0102 -0.7887
vn 0.6590 -0.0099 0.7521
vn -0.3561 0.0108 -0.9344
vn 0.3854 -0.0108 0.9227
vn -0.3038 0.0108 -0.9527
vn -0.8382 0.0084 -0.5454
vn 0.2006 -0.0107 0.9796
vn -0.5816 0.0000 -0.8135
vn 0.8135 -0.0049 -0.5816
vn 0.5816 0.0000 0.8135
vn -0.8134 0.0048 0.5816
vn -0.0039 -1.0000 0.0028
vn 0.0039 1.0000 -0.0028
vn 0.0000 -1.0000 -0.0000
vn 0.0000 1.0000 0.0000
vn 0.4432 0.0000 -0.8964
vn 0.9916 0.0000 -0.1294
vn -0.7525 0.0000 0.6586
vn 0.2597 0.0000 -0.9657
vn 0.9472 0.0000 -0.3205
vn -0.6098 0.0000 0.7926
vn 0.0665 0.0000 -0.9978
vn 0.8666 0.0000 -0.4990
vn -0.4432 0.0000 0.8964
vn -0.1295 0.0000 -0.9916
vn -0.2598 0.0000 0.9657
vn -0.3204 0.0000 -0.9473
vn -0.0664 0.0000 0.9978
vn -0.4991 0.0000 -0.8666
vn 0.1295 0.0000 0.9916
vn -0.6585 0.0000 -0.7526
vn 0.3204 0.0000 0.9473
vn -0.7928 0.0000 -0.6095
vn 0.4991 0.0000 0.8666
vn -0.8964 0.0000 -0.4433
vn 0.6585 0.0000 0.7526
vn -0.9657 0.0000 -0.2597
vn 0.7927 0.0000 0.6096
vn -0.9978 0.0000 -0.0664
vn 0.8964 0.0000 0.4432
vn -0.9916 0.0000 0.1294
vn 0.7526 0.0000 -0.6585
vn 0.9656 0.0000 0.2598
vn -0.9473 0.0000 0.3204
vn 0.6096 0.0000 -0.7927
vn 0.9978 0.0000 0.0665
vn -0.8666 0.0000 0.4991
vn 0.0401 -0.9992 -0.0094
vn 0.1111 -0.9919 0.0611
vn -0.0323 -0.9950 0.0947
vn -0.0377 -0.9990 0.0245
vn -0.0400 0.9992 0.0094
vn -0.1111 0.9919 -0.0611
vn 0.0323 0.9950 -0.0947
vn 0.0377 0.9990 -0.0245
vn -0.6181 0.0101 -0.7860
vn 0.5184 -0.0105 0.8550
vn -0.6933 0.0097 -0.7206
vn -0.7970 0.0089 -0.6039
vn 0.7044 -0.0096 0.7098
vn -0.6148 0.0102 -0.7886
vn -0.3562 0.0108 -0.9344
vn 0.3855 -0.0107 0.9226
vn -0.8382 0.0084 -0.5453
vn 0.2006 -0.0108 0.9796
vn 0.8135 -0.0048 -0.5816
vn -0.8135 0.0048 0.5816
vn 0.4433 0.0000 -0.8964
vn -0.7524 0.0000 0.6587
vn -0.6097 0.0000 0.7926
vn 0.0664 0.0000 -0.9978
vn 0.8665 0.0000 -0.4991
vn -0.4431 0.0000 0.8965
vn -0.0667 0.0000 0.9978
vn -0.6586 0.0000 -0.7525
vn 0.3203 0.0000 0.9473
vn -0.7927 0.0000 -0.6096
vn 0.4992 0.0000 0.8665
vn -0.8963 0.0000 -0.4434
vn 0.6586 0.0000 0.7525
vn -0.9657 0.0000 -0.2598
vn 0.8964 0.0000 0.4433
vn 0.7525 0.0000 -0.6586
vn 0.9656 0.0000 0.2599
s off
f 3//1 18//1 5//1
f 11//2 2//2 1//2
f 10//2 12//2 11//2
f 9//2 13//2 10//2
f 8//3 14//3 9//3
f 7//4 15//4 8//4
f 6//5 16//5 7//5
f 5//6 17//6 6//6
f 36//7 21//7 23//7
f 20//8 29//8 19//8
f 30//8 28//8 29//8
f 31//7 27//7 28//7
f 32//9 26//9 27//9
f 33//10 25//10 26//10
f 34//11 24//11 25//11
f 35//12 23//12 24//12
f 8//13 27//13 26//13
f 2//14 19//14 1//14
f 16//15 35//15 34//15
f 9//16 28//16 27//16
f 4//17 36//17 18//17
f 17//18 36//18 35//18
f 10//19 29//19 28//19
f 4//20 21//20 22//20
f 12//21 20//21 2//21
f 3//22 23//22 21//22
f 13//23 30//23 12//23
f 5//24 24//24 23//24
f 14//25 31//25 13//25
f 7//26 24//26 6//26
f 15//27 32//27 14//27
f 8//28 25//28 7//28
f 11//29 19//29 29//29
f 16//30 33//30 15//30
f 38//31 39//31 37//31
f 40//32 43//32 39//32
f 43//33 42//33 41//33
f 41//34 38//34 37//34
f 39//35 41//35 37//35
f 40//36 42//36 44//36
f 49//37 48//37 67//37
f 108//38 77//38 103//38
f 48//39 79//39 47//39
f 75//40 106//40 74//40
f 62//41 93//41 61//41
f 49//42 80//42 48//42
f 76//43 107//43 75//43
f 63//44 94//44 62//44
f 50//45 81//45 49//45
f 45//46 108//46 76//46
f 64//47 95//47 63//47
f 51//48 82//48 50//48
f 65//49 96//49 64//49
f 52//50 83//50 51//50
f 66//51 97//51 65//51
f 53//52 84//52 52//52
f 67//53 98//53 66//53
f 54//54 85//54 53//54
f 68//55 99//55 67//55
f 55//56 86//56 54//56
f 69//57 100//57 68//57
f 56//58 87//58 55//58
f 70//59 101//59 69//59
f 57//60 88//60 56//60
f 71//61 102//61 70//61
f 58//62 89//62 57//62
f 72//63 103//63 71//63
f 59//64 90//64 58//64
f 46//65 77//65 45//65
f 73//66 104//66 72//66
f 60//67 91//67 59//67
f 47//68 78//68 46//68
f 74//69 105//69 73//69
f 61//70 92//70 60//70
f 3//2 4//2 18//2
f 11//2 12//2 2//2
f 10//2 13//2 12//2
f 9//2 14//2 13//2
f 8//71 15//71 14//71
f 7//72 16//72 15//72
f 6//73 17//73 16//73
f 5//74 18//74 17//74
f 36//8 22//8 21//8
f 20//8 30//8 29//8
f 30//7 31//7 28//7
f 31//8 32//8 27//8
f 32//75 33//75 26//75
f 33//76 34//76 25//76
f 34//77 35//77 24//77
f 35//78 36//78 23//78
f 8//13 9//13 27//13
f 2//14 20//14 19//14
f 16//15 17//15 35//15
f 9//79 10//79 28//79
f 4//17 22//17 36//17
f 17//80 18//80 36//80
f 10//81 11//81 29//81
f 4//20 3//20 21//20
f 12//21 30//21 20//21
f 3//82 5//82 23//82
f 13//83 31//83 30//83
f 5//84 6//84 24//84
f 14//25 32//25 31//25
f 7//85 25//85 24//85
f 15//86 33//86 32//86
f 8//28 26//28 25//28
f 11//87 1//87 19//87
f 16//88 34//88 33//88
f 38//31 40//31 39//31
f 40//89 44//89 43//89
f 43//33 44//33 42//33
f 41//90 42//90 38//90
f 39//35 43//35 41//35
f 40//36 38//36 42//36
f 47//37 46//37 69//37
f 46//37 45//37 70//37
f 70//37 45//37 71//37
f 45//37 76//37 71//37
f 76//37 75//37 72//37
f 71//37 76//37 72//37
f 75//37 74//37 73//37
f 73//37 72//37 75//37
f 70//37 69//37 46//37
f 69//37 68//37 47//37
f 68//37 67//37 48//37
f 47//37 68//37 48//37
f 67//37 66//37 49//37
f 66//37 65//37 50//37
f 50//37 65//37 51//37
f 65//37 64//37 51//37
f 64//37 63//37 52//37
f 51//37 64//37 52//37
f 63//37 62//37 53//37
f 62//37 61//37 54//37
f 54//37 61//37 55//37
f 61//37 60//37 55//37
f 60//37 59//37 56//37
f 55//37 60//37 56//37
f 59//37 58//37 57//37
f 57//37 56//37 59//37
f 54//37 53//37 62//37
f 53//37 52//37 63//37
f 50//37 49//37 66//37
f 77//38 78//38 102//38
f 78//38 79//38 101//38
f 79//38 80//38 100//38
f 80//38 81//38 99//38
f 79//38 100//38 101//38
f 81//38 82//38 98//38
f 82//38 83//38 97//38
f 83//38 84//38 96//38
f 84//38 85//38 95//38
f 83//38 96//38 97//38
f 85//38 86//38 94//38
f 86//38 87//38 93//38
f 87//38 88//38 92//38
f 88//38 89//38 91//38
f 92//38 88//38 91//38
f 89//38 90//38 91//38
f 92//38 93//38 87//38
f 93//38 94//38 86//38
f 94//38 95//38 85//38
f 95//38 96//38 84//38
f 97//38 98//38 82//38
f 98//38 99//38 81//38
f 99//38 100//38 80//38
f 101//38 102//38 78//38
f 102//38 103//38 77//38
f 103//38 104//38 108//38
f 104//38 105//38 107//38
f 108//38 104//38 107//38
f 105//38 106//38 107//38
f 48//91 80//91 79//91
f 75//40 107//40 106//40
f 62//92 94//92 93//92
f 49//42 81//42 80//42
f 76//43 108//43 107//43
f 63//93 95//93 94//93
f 50//94 82//94 81//94
f 45//95 77//95 108//95
f 64//96 96//96 95//96
f 51//48 83//48 82//48
f 65//49 97//49 96//49
f 52//50 84//50 83//50
f 66//97 98//97 97//97
f 53//52 85//52 84//52
f 67//53 99//53 98//53
f 54//98 86//98 85//98
f 68//99 100//99 99//99
f 55//100 87//100 86//100
f 69//101 101//101 100//101
f 56//102 88//102 87//102
f 70//103 102//103 101//103
f 57//104 89//104 88//104
f 71//61 103//61 102//61
f 58//62 90//62 89//62
f 72//105 104//105 103//105
f 59//64 91//64 90//64
f 46//106 78//106 77//106
f 73//107 105//107 104//107
f 60//67 92//67 91//67
f 47//68 79//68 78//68
f 74//69 106//69 105//69
f 61//70 93//70 92//70
