# Blender v2.79 (sub 7) OBJ File: 'Universe Gate.blend'
# www.blender.org
o 24_Cube.044
v -2.403797 -0.216762 3.006536
v -2.403716 -0.190168 3.006435
v -2.368634 -0.217035 2.962697
v -2.368553 -0.190441 2.962596
v -2.389321 -0.216762 3.018147
v -2.389240 -0.190168 3.018046
v -2.354158 -0.217035 2.974308
v -2.354077 -0.190441 2.974207
v -2.476823 -0.216762 3.095423
v -2.476742 -0.190168 3.095323
v -2.441661 -0.217035 3.051584
v -2.441580 -0.190441 3.051484
v -2.462347 -0.216762 3.107035
v -2.462266 -0.190168 3.106934
v -2.427184 -0.217035 3.063195
v -2.427104 -0.190441 3.063095
v -2.405268 -0.209310 3.021592
v -2.407998 -0.209310 3.019812
v -2.411022 -0.209310 3.018598
v -2.414226 -0.209310 3.017998
v -2.417485 -0.209310 3.018035
v -2.420674 -0.209310 3.018707
v -2.423671 -0.209310 3.019987
v -2.426359 -0.209310 3.021828
v -2.428638 -0.209310 3.024158
v -2.430418 -0.209310 3.026888
v -2.431631 -0.209310 3.029913
v -2.432231 -0.209310 3.033117
v -2.432195 -0.209310 3.036375
v -2.431524 -0.209310 3.039564
v -2.430243 -0.209310 3.042561
v -2.428401 -0.209310 3.045250
v -2.426071 -0.209310 3.047529
v -2.423342 -0.209310 3.049309
v -2.420317 -0.209310 3.050522
v -2.417114 -0.209310 3.051122
v -2.413855 -0.209310 3.051085
v -2.410666 -0.209310 3.050414
v -2.407669 -0.209310 3.049133
v -2.404980 -0.209310 3.047292
v -2.402701 -0.209310 3.044962
v -2.400921 -0.209310 3.042232
v -2.399708 -0.209310 3.039207
v -2.399108 -0.209310 3.036004
v -2.399144 -0.209310 3.032745
v -2.399816 -0.209310 3.029556
v -2.401097 -0.209310 3.026559
v -2.402938 -0.209310 3.023870
v -2.405268 -0.190207 3.021592
v -2.407998 -0.190207 3.019811
v -2.411022 -0.190207 3.018598
v -2.414226 -0.190207 3.017999
v -2.417485 -0.190207 3.018035
v -2.420674 -0.190207 3.018707
v -2.423670 -0.190207 3.019987
v -2.426359 -0.190207 3.021828
v -2.428638 -0.190207 3.024158
v -2.430418 -0.190207 3.026888
v -2.431632 -0.190207 3.029913
v -2.432231 -0.190207 3.033116
v -2.432195 -0.190207 3.036375
v -2.431523 -0.190207 3.039564
v -2.430243 -0.190207 3.042561
v -2.428401 -0.190207 3.045250
v -2.426071 -0.190207 3.047529
v -2.423342 -0.190207 3.049309
v -2.420317 -0.190207 3.050522
v -2.417113 -0.190207 3.051122
v -2.413854 -0.190207 3.051085
v -2.410666 -0.190207 3.050414
v -2.407669 -0.190207 3.049133
v -2.404980 -0.190207 3.047292
v -2.402701 -0.190207 3.044962
v -2.400921 -0.190207 3.042232
v -2.399708 -0.190207 3.039207
v -2.399108 -0.190207 3.036004
v -2.399144 -0.190207 3.032745
v -2.399816 -0.190207 3.029557
v -2.401097 -0.190207 3.026559
v -2.402938 -0.190207 3.023870
v -2.481683 -0.209310 3.113990
v -2.484413 -0.209310 3.112209
v -2.487438 -0.209310 3.110996
v -2.490641 -0.209310 3.110396
v -2.493900 -0.209310 3.110433
v -2.497089 -0.209310 3.111104
v -2.500086 -0.209310 3.112385
v -2.502775 -0.209310 3.114226
v -2.505054 -0.209310 3.116557
v -2.506834 -0.209310 3.119286
v -2.508047 -0.209310 3.122310
v -2.508647 -0.209310 3.125514
v -2.508610 -0.209310 3.128773
v -2.507939 -0.209310 3.131962
v -2.506658 -0.209310 3.134959
v -2.504817 -0.209310 3.137648
v -2.502487 -0.209310 3.139926
v -2.499757 -0.209310 3.141706
v -2.496732 -0.209310 3.142920
v -2.493529 -0.209310 3.143520
v -2.490270 -0.209310 3.143483
v -2.487081 -0.209310 3.142812
v -2.484084 -0.209310 3.141531
v -2.481395 -0.209310 3.139690
v -2.479117 -0.209310 3.137360
v -2.477336 -0.209310 3.134629
v -2.476123 -0.209310 3.131605
v -2.475523 -0.209310 3.128402
v -2.475560 -0.209310 3.125143
v -2.476231 -0.209310 3.121953
v -2.477512 -0.209310 3.118957
v -2.479353 -0.209310 3.116268
v -2.481683 -0.190207 3.113990
v -2.484413 -0.190207 3.112209
v -2.487438 -0.190207 3.110996
v -2.490641 -0.190207 3.110396
v -2.493900 -0.190207 3.110433
v -2.497089 -0.190207 3.111104
v -2.500086 -0.190207 3.112385
v -2.502775 -0.190207 3.114226
v -2.505054 -0.190207 3.116556
v -2.506834 -0.190207 3.119286
v -2.508047 -0.190207 3.122311
v -2.508647 -0.190207 3.125514
v -2.508610 -0.190207 3.128773
v -2.507939 -0.190207 3.131962
v -2.506658 -0.190207 3.134959
v -2.504817 -0.190207 3.137648
v -2.502487 -0.190207 3.139926
v -2.499757 -0.190207 3.141706
v -2.496732 -0.190207 3.142920
v -2.493529 -0.190207 3.143520
v -2.490270 -0.190207 3.143483
v -2.487081 -0.190207 3.142812
v -2.484085 -0.190207 3.141531
v -2.481395 -0.190207 3.139690
v -2.479117 -0.190207 3.137360
v -2.477336 -0.190207 3.134629
v -2.476123 -0.190207 3.131605
v -2.475523 -0.190207 3.128402
v -2.475559 -0.190207 3.125143
v -2.476231 -0.190207 3.121954
v -2.477512 -0.190207 3.118957
v -2.479353 -0.190207 3.116268
vt 0.294922 0.253906
vt 0.344922 0.303906
vt 0.294922 0.303906
vt 0.344922 0.253906
vt 0.294922 0.303906
vt 0.294922 0.253906
vt 0.344922 0.253906
vt 0.294922 0.303906
vt 0.294922 0.253906
vt 0.294922 0.253906
vt 0.344922 0.303906
vt 0.294922 0.303906
vt 0.344922 0.303906
vt 0.294922 0.303906
vt 0.294922 0.253906
vt 0.294922 0.253906
vt 0.344922 0.303906
vt 0.294922 0.303906
vt 0.344922 0.253906
vt 0.294922 0.303906
vt 0.294922 0.253906
vt 0.344922 0.253906
vt 0.294922 0.303906
vt 0.294922 0.253906
vt 0.294922 0.253906
vt 0.344922 0.303906
vt 0.294922 0.303906
vt 0.344922 0.303906
vt 0.294922 0.303906
vt 0.294922 0.253906
vt 0.310355 0.302003
vt 0.315045 0.303426
vt 0.333811 0.258120
vt 0.306033 0.299693
vt 0.310355 0.302003
vt 0.295402 0.274029
vt 0.344922 0.253906
vt 0.294922 0.303906
vt 0.294922 0.253906
vt 0.344922 0.253906
vt 0.294922 0.303906
vt 0.294922 0.253906
vt 0.294922 0.253906
vt 0.344922 0.303906
vt 0.294922 0.303906
vt 0.344922 0.253906
vt 0.294922 0.303906
vt 0.294922 0.253906
vt 0.344922 0.253906
vt 0.294922 0.303906
vt 0.294922 0.253906
vt 0.344922 0.253906
vt 0.294922 0.303906
vt 0.294922 0.253906
vt 0.344922 0.253906
vt 0.294922 0.303906
vt 0.294922 0.253906
vt 0.344922 0.253906
vt 0.294922 0.303906
vt 0.294922 0.253906
vt 0.344922 0.253906
vt 0.294922 0.303906
vt 0.294922 0.253906
vt 0.344922 0.253906
vt 0.294922 0.303906
vt 0.294922 0.253906
vt 0.344922 0.253906
vt 0.294922 0.303906
vt 0.294922 0.253906
vt 0.294922 0.253906
vt 0.344922 0.303906
vt 0.294922 0.303906
vt 0.344922 0.253906
vt 0.294922 0.303906
vt 0.294922 0.253906
vt 0.344922 0.253906
vt 0.294922 0.303906
vt 0.294922 0.253906
vt 0.294922 0.253906
vt 0.344922 0.303906
vt 0.294922 0.303906
vt 0.344922 0.253906
vt 0.294922 0.303906
vt 0.294922 0.253906
vt 0.294922 0.253906
vt 0.344922 0.303906
vt 0.294922 0.303906
vt 0.344922 0.253906
vt 0.294922 0.303906
vt 0.294922 0.253906
vt 0.344922 0.253906
vt 0.294922 0.303906
vt 0.294922 0.253906
vt 0.344922 0.253906
vt 0.294922 0.303906
vt 0.294922 0.253906
vt 0.344922 0.253906
vt 0.294922 0.303906
vt 0.294922 0.253906
vt 0.294922 0.253906
vt 0.344922 0.303906
vt 0.294922 0.303906
vt 0.344922 0.253906
vt 0.294922 0.303906
vt 0.294922 0.253906
vt 0.344922 0.253906
vt 0.294922 0.303906
vt 0.294922 0.253906
vt 0.294922 0.253906
vt 0.344922 0.303906
vt 0.294922 0.303906
vt 0.344922 0.253906
vt 0.294922 0.303906
vt 0.294922 0.253906
vt 0.344922 0.253906
vt 0.294922 0.303906
vt 0.294922 0.253906
vt 0.294922 0.253906
vt 0.344922 0.303906
vt 0.294922 0.303906
vt 0.344922 0.253906
vt 0.294922 0.303906
vt 0.294922 0.253906
vt 0.344922 0.253906
vt 0.294922 0.303906
vt 0.294922 0.253906
vt 0.344922 0.253906
vt 0.294922 0.303906
vt 0.294922 0.253906
vt 0.344922 0.253906
vt 0.294922 0.303906
vt 0.294922 0.253906
vt 0.310355 0.302003
vt 0.315045 0.303426
vt 0.333811 0.258120
vt 0.306033 0.299693
vt 0.310355 0.302003
vt 0.295402 0.274029
vt 0.344922 0.253906
vt 0.294922 0.303906
vt 0.294922 0.253906
vt 0.344922 0.253906
vt 0.294922 0.303906
vt 0.294922 0.253906
vt 0.294922 0.253906
vt 0.344922 0.303906
vt 0.294922 0.303906
vt 0.344922 0.253906
vt 0.294922 0.303906
vt 0.294922 0.253906
vt 0.344922 0.253906
vt 0.294922 0.303906
vt 0.294922 0.253906
vt 0.344922 0.253906
vt 0.294922 0.303906
vt 0.294922 0.253906
vt 0.294922 0.253906
vt 0.344922 0.303906
vt 0.294922 0.303906
vt 0.344922 0.253906
vt 0.294922 0.303906
vt 0.294922 0.253906
vt 0.344922 0.253906
vt 0.294922 0.303906
vt 0.294922 0.253906
vt 0.294922 0.253906
vt 0.344922 0.303906
vt 0.294922 0.303906
vt 0.344922 0.253906
vt 0.294922 0.303906
vt 0.294922 0.253906
vt 0.294922 0.253906
vt 0.344922 0.303906
vt 0.294922 0.303906
vt 0.344922 0.253906
vt 0.294922 0.303906
vt 0.294922 0.253906
vt 0.344922 0.253906
vt 0.294922 0.303906
vt 0.294922 0.253906
vt 0.294922 0.253906
vt 0.344922 0.303906
vt 0.294922 0.303906
vt 0.344922 0.253906
vt 0.294922 0.303906
vt 0.294922 0.253906
vt 0.294922 0.253906
vt 0.344922 0.303906
vt 0.294922 0.303906
vt 0.344922 0.253906
vt 0.294922 0.303906
vt 0.294922 0.253906
vt 0.294922 0.253906
vt 0.344922 0.303906
vt 0.294922 0.303906
vt 0.344922 0.253906
vt 0.294922 0.303906
vt 0.294922 0.253906
vt 0.344922 0.253906
vt 0.294922 0.303906
vt 0.294922 0.253906
vt 0.344922 0.253906
vt 0.294922 0.303906
vt 0.294922 0.253906
vt 0.344922 0.253906
vt 0.294922 0.303906
vt 0.294922 0.253906
vt 0.344922 0.253906
vt 0.294922 0.303906
vt 0.294922 0.253906
vt 0.344922 0.253906
vt 0.294922 0.303906
vt 0.294922 0.253906
vt 0.344922 0.253906
vt 0.294922 0.303906
vt 0.294922 0.253906
vt 0.344922 0.253906
vt 0.294922 0.303906
vt 0.294922 0.253906
vt 0.294922 0.253906
vt 0.344922 0.303906
vt 0.294922 0.303906
vt 0.294922 0.253906
vt 0.344922 0.303906
vt 0.294922 0.303906
vt 0.344922 0.253906
vt 0.294922 0.303906
vt 0.294922 0.253906
vt 0.294922 0.253906
vt 0.344922 0.303906
vt 0.294922 0.303906
vt 0.294922 0.253906
vt 0.344922 0.303906
vt 0.294922 0.303906
vt 0.344922 0.253906
vt 0.344922 0.303906
vt 0.344922 0.303906
vt 0.344922 0.253906
vt 0.344922 0.253906
vt 0.344922 0.253906
vt 0.344922 0.303906
vt 0.344922 0.303906
vt 0.344922 0.253906
vt 0.344922 0.253906
vt 0.319922 0.303906
vt 0.337600 0.261229
vt 0.324799 0.303426
vt 0.340709 0.265017
vt 0.329489 0.302003
vt 0.343019 0.269339
vt 0.333811 0.299693
vt 0.344442 0.274029
vt 0.337600 0.296584
vt 0.344922 0.278906
vt 0.340709 0.292796
vt 0.344442 0.283783
vt 0.343019 0.288473
vt 0.329489 0.255809
vt 0.324799 0.254387
vt 0.306033 0.299693
vt 0.319922 0.253906
vt 0.302244 0.296584
vt 0.315045 0.254387
vt 0.299135 0.292796
vt 0.310355 0.255809
vt 0.296825 0.288473
vt 0.306033 0.258120
vt 0.295402 0.283784
vt 0.302244 0.261229
vt 0.294922 0.278906
vt 0.299135 0.265017
vt 0.295402 0.274029
vt 0.296825 0.269339
vt 0.315045 0.303426
vt 0.319922 0.303906
vt 0.299135 0.265017
vt 0.324799 0.303426
vt 0.302244 0.261229
vt 0.329489 0.302003
vt 0.306033 0.258120
vt 0.333811 0.299693
vt 0.310355 0.255809
vt 0.337600 0.296584
vt 0.315045 0.254387
vt 0.340709 0.292796
vt 0.319922 0.253906
vt 0.343019 0.288473
vt 0.324799 0.254387
vt 0.344442 0.283783
vt 0.329489 0.255809
vt 0.344922 0.278906
vt 0.333811 0.258120
vt 0.344442 0.274029
vt 0.337600 0.261229
vt 0.343019 0.269339
vt 0.340709 0.265017
vt 0.296825 0.269339
vt 0.294922 0.278906
vt 0.295402 0.283784
vt 0.302244 0.296584
vt 0.296825 0.288473
vt 0.299135 0.292796
vt 0.344922 0.303906
vt 0.344922 0.303906
vt 0.344922 0.253906
vt 0.344922 0.303906
vt 0.344922 0.303906
vt 0.344922 0.303906
vt 0.344922 0.303906
vt 0.344922 0.303906
vt 0.344922 0.303906
vt 0.344922 0.303906
vt 0.344922 0.303906
vt 0.344922 0.253906
vt 0.344922 0.303906
vt 0.344922 0.303906
vt 0.344922 0.253906
vt 0.344922 0.303906
vt 0.344922 0.253906
vt 0.344922 0.303906
vt 0.344922 0.303906
vt 0.344922 0.303906
vt 0.344922 0.303906
vt 0.344922 0.253906
vt 0.344922 0.303906
vt 0.344922 0.303906
vt 0.344922 0.253906
vt 0.344922 0.303906
vt 0.344922 0.303906
vt 0.344922 0.253906
vt 0.344922 0.303906
vt 0.344922 0.303906
vt 0.344922 0.303906
vt 0.344922 0.303906
vt 0.319922 0.303906
vt 0.337600 0.261229
vt 0.324799 0.303426
vt 0.340709 0.265017
vt 0.329489 0.302003
vt 0.343019 0.269339
vt 0.333811 0.299693
vt 0.344442 0.274029
vt 0.337600 0.296584
vt 0.344922 0.278906
vt 0.340709 0.292796
vt 0.344442 0.283783
vt 0.343019 0.288473
vt 0.329489 0.255809
vt 0.324799 0.254387
vt 0.306033 0.299693
vt 0.319922 0.253906
vt 0.302244 0.296584
vt 0.315045 0.254387
vt 0.299135 0.292796
vt 0.310355 0.255809
vt 0.296825 0.288473
vt 0.306033 0.258120
vt 0.295402 0.283784
vt 0.302244 0.261229
vt 0.294922 0.278906
vt 0.299135 0.265017
vt 0.295402 0.274029
vt 0.296825 0.269339
vt 0.315045 0.303426
vt 0.319922 0.303906
vt 0.299135 0.265017
vt 0.324799 0.303426
vt 0.302244 0.261229
vt 0.329489 0.302003
vt 0.306033 0.258120
vt 0.333811 0.299693
vt 0.310355 0.255809
vt 0.337600 0.296584
vt 0.315045 0.254387
vt 0.340709 0.292796
vt 0.319922 0.253906
vt 0.343019 0.288473
vt 0.324799 0.254387
vt 0.344442 0.283783
vt 0.329489 0.255809
vt 0.344922 0.278906
vt 0.333811 0.258120
vt 0.344442 0.274029
vt 0.337600 0.261229
vt 0.343019 0.269339
vt 0.340709 0.265017
vt 0.296825 0.269339
vt 0.294922 0.278906
vt 0.295402 0.283784
vt 0.302244 0.296584
vt 0.296825 0.288473
vt 0.299135 0.292796
vt 0.344922 0.303906
vt 0.344922 0.303906
vt 0.344922 0.253906
vt 0.344922 0.303906
vt 0.344922 0.303906
vt 0.344922 0.303906
vt 0.344922 0.253906
vt 0.344922 0.303906
vt 0.344922 0.303906
vt 0.344922 0.253906
vt 0.344922 0.303906
vt 0.344922 0.253906
vt 0.344922 0.303906
vt 0.344922 0.303906
vt 0.344922 0.253906
vt 0.344922 0.303906
vt 0.344922 0.253906
vt 0.344922 0.303906
vt 0.344922 0.253906
vt 0.344922 0.303906
vt 0.344922 0.303906
vt 0.344922 0.303906
vt 0.344922 0.303906
vt 0.344922 0.303906
vt 0.344922 0.303906
vt 0.344922 0.303906
vt 0.344922 0.303906
vt 0.344922 0.253906
vt 0.344922 0.253906
vt 0.344922 0.303906
vt 0.344922 0.253906
vt 0.344922 0.253906
vn -0.7801 0.0000 -0.6257
vn 0.6257 -0.0049 -0.7801
vn 0.7801 -0.0000 0.6257
vn -0.6257 0.0049 0.7801
vn -0.0030 -1.0000 0.0038
vn 0.0030 1.0000 -0.0038
vn -0.6257 0.0048 0.7801
vn 0.0000 -1.0000 0.0000
vn 0.0000 1.0000 0.0000
vn 0.1841 0.0000 -0.9829
vn 0.9195 0.0000 -0.3931
vn -0.5462 -0.0000 0.8377
vn -0.0111 0.0000 -0.9999
vn 0.8251 0.0000 -0.5650
vn -0.3722 0.0000 0.9282
vn -0.2060 -0.0000 -0.9786
vn 0.6993 -0.0000 -0.7149
vn -0.1841 0.0000 0.9829
vn -0.3930 0.0000 -0.9195
vn 0.0112 -0.0000 0.9999
vn -0.5649 0.0000 -0.8251
vn 0.2061 0.0000 0.9785
vn -0.7150 0.0000 -0.6991
vn 0.3931 0.0000 0.9195
vn -0.8376 0.0000 -0.5463
vn 0.5648 -0.0000 0.8252
vn -0.9282 0.0000 -0.3722
vn 0.7150 -0.0000 0.6991
vn -0.9829 -0.0000 -0.1842
vn 0.8376 -0.0000 0.5463
vn -0.9999 0.0000 0.0112
vn 0.9282 -0.0000 0.3721
vn -0.9785 0.0000 0.2061
vn 0.9829 0.0000 0.1841
vn -0.9195 -0.0000 0.3930
vn 0.5462 0.0000 -0.8377
vn 0.9999 0.0000 -0.0111
vn -0.8251 0.0000 0.5650
vn 0.3724 -0.0000 -0.9281
vn 0.9785 -0.0000 -0.2061
vn -0.6992 -0.0000 0.7149
vn -0.5460 0.0000 0.8378
vn -0.0114 0.0000 -0.9999
vn 0.8252 0.0000 -0.5649
vn -0.3723 -0.0000 0.9281
vn -0.2061 0.0000 -0.9785
vn 0.6991 0.0000 -0.7150
vn -0.1842 0.0000 0.9829
vn -0.3928 0.0000 -0.9196
vn 0.0111 0.0000 0.9999
vn -0.7151 0.0000 -0.6990
vn 0.3930 0.0000 0.9196
vn -0.9281 0.0000 -0.3723
vn 0.7149 0.0000 0.6992
vn -0.9829 -0.0000 -0.1843
vn 0.8378 0.0000 0.5460
vn -0.9999 0.0000 0.0113
vn 0.9281 -0.0000 0.3723
vn -0.9785 0.0000 0.2062
vn 0.9829 -0.0000 0.1840
vn 0.5463 0.0000 -0.8376
vn 0.9999 -0.0000 -0.0112
vn -0.8252 0.0000 0.5648
vn 0.6257 -0.0048 -0.7801
vn 0.1839 0.0000 -0.9829
vn 0.9196 0.0000 -0.3929
vn -0.5463 0.0000 0.8376
vn -0.2062 0.0000 -0.9785
vn -0.1843 -0.0000 0.9829
vn -0.5649 0.0000 -0.8252
vn 0.2060 0.0000 0.9786
vn 0.3932 -0.0000 0.9194
vn 0.7151 0.0000 0.6990
vn -0.9829 0.0000 -0.1841
vn -0.9999 0.0000 0.0111
vn 0.9281 0.0000 0.3722
vn 0.9829 0.0000 0.1842
vn -0.8252 -0.0000 0.5649
vn 0.3722 0.0000 -0.9282
vn 0.9785 0.0001 -0.2062
vn -0.6991 -0.0000 0.7150
vn 0.8252 0.0000 -0.5648
vn -0.2063 -0.0000 -0.9785
vn 0.6990 0.0000 -0.7151
vn -0.3929 -0.0000 -0.9196
vn 0.0113 0.0000 0.9999
vn -0.5648 0.0000 -0.8252
vn 0.3933 -0.0000 0.9194
vn 0.8377 -0.0000 0.5462
vn 0.9281 0.0000 0.3724
vn 0.9829 -0.0001 0.1841
vn -0.9195 0.0000 0.3931
vn 0.9786 -0.0000 -0.2060
vn -0.6993 -0.0000 0.7149
s off
f 1/1/1 4/2/1 3/3/1
f 4/4/2 7/5/2 3/6/2
f 8/7/3 5/8/3 7/9/3
f 5/10/4 2/11/4 1/12/4
f 3/6/5 5/13/5 1/12/5
f 4/4/6 6/14/6 8/15/6
f 9/16/1 12/17/1 11/18/1
f 12/19/2 15/20/2 11/21/2
f 16/22/3 13/23/3 15/24/3
f 13/25/7 10/26/7 9/27/7
f 11/21/5 13/28/5 9/27/5
f 12/19/6 14/29/6 16/30/6
f 20/31/8 19/32/8 37/33/8
f 79/34/9 80/35/9 73/36/9
f 20/37/10 51/38/10 19/39/10
f 47/40/11 78/41/11 46/42/11
f 33/43/12 66/44/12 65/45/12
f 21/46/13 52/47/13 20/48/13
f 48/49/14 79/50/14 47/51/14
f 35/52/15 66/53/15 34/54/15
f 22/55/16 53/56/16 21/57/16
f 17/58/17 80/59/17 48/60/17
f 36/61/18 67/62/18 35/63/18
f 23/64/19 54/65/19 22/66/19
f 37/67/20 68/68/20 36/69/20
f 23/70/21 56/71/21 55/72/21
f 38/73/22 69/74/22 37/75/22
f 25/76/23 56/77/23 24/78/23
f 38/79/24 71/80/24 70/81/24
f 26/82/25 57/83/25 25/84/25
f 39/85/26 72/86/26 71/87/26
f 27/88/27 58/89/27 26/90/27
f 41/91/28 72/92/28 40/93/28
f 28/94/29 59/95/29 27/96/29
f 42/97/30 73/98/30 41/99/30
f 28/100/31 61/101/31 60/102/31
f 43/103/32 74/104/32 42/105/32
f 30/106/33 61/107/33 29/108/33
f 43/109/34 76/110/34 75/111/34
f 31/112/35 62/113/35 30/114/35
f 18/115/36 49/116/36 17/117/36
f 44/118/37 77/119/37 76/120/37
f 32/121/38 63/122/38 31/123/38
f 19/124/39 50/125/39 18/126/39
f 46/127/40 77/128/40 45/129/40
f 33/130/41 64/131/41 32/132/41
f 84/133/8 83/134/8 101/135/8
f 143/136/9 144/137/9 137/138/9
f 84/139/10 115/140/10 83/141/10
f 111/142/11 142/143/11 110/144/11
f 97/145/42 130/146/42 129/147/42
f 85/148/43 116/149/43 84/150/43
f 112/151/44 143/152/44 111/153/44
f 99/154/45 130/155/45 98/156/45
f 85/157/46 118/158/46 117/159/46
f 81/160/47 144/161/47 112/162/47
f 100/163/48 131/164/48 99/165/48
f 86/166/49 119/167/49 118/168/49
f 101/169/50 132/170/50 100/171/50
f 87/172/21 120/173/21 119/174/21
f 102/175/22 133/176/22 101/177/22
f 89/178/51 120/179/51 88/180/51
f 102/181/52 135/182/52 134/183/52
f 90/184/25 121/185/25 89/186/25
f 103/187/26 136/188/26 135/189/26
f 91/190/53 122/191/53 90/192/53
f 104/193/54 137/194/54 136/195/54
f 92/196/55 123/197/55 91/198/55
f 106/199/56 137/200/56 105/201/56
f 93/202/57 124/203/57 92/204/57
f 107/205/58 138/206/58 106/207/58
f 94/208/59 125/209/59 93/210/59
f 108/211/60 139/212/60 107/213/60
f 95/214/35 126/215/35 94/216/35
f 82/217/61 113/218/61 81/219/61
f 108/220/62 141/221/62 140/222/62
f 95/223/63 128/224/63 127/225/63
f 83/226/39 114/227/39 82/228/39
f 109/229/40 142/230/40 141/231/40
f 96/232/41 129/233/41 128/234/41
f 1/1/1 2/235/1 4/2/1
f 4/4/2 8/236/2 7/5/2
f 8/7/3 6/237/3 5/8/3
f 5/10/4 6/238/4 2/11/4
f 3/6/5 7/239/5 5/13/5
f 4/4/6 2/11/6 6/14/6
f 9/16/1 10/240/1 12/17/1
f 12/19/64 16/241/64 15/20/64
f 16/22/3 14/242/3 13/23/3
f 13/25/4 14/243/4 10/26/4
f 11/21/5 15/244/5 13/28/5
f 12/19/6 10/26/6 14/29/6
f 19/32/8 18/245/8 38/246/8
f 18/245/8 17/247/8 39/248/8
f 17/247/8 48/249/8 40/250/8
f 48/249/8 47/251/8 41/252/8
f 47/251/8 46/253/8 42/254/8
f 46/253/8 45/255/8 43/256/8
f 45/255/8 44/257/8 43/256/8
f 43/256/8 42/254/8 46/253/8
f 42/254/8 41/252/8 47/251/8
f 41/252/8 40/250/8 48/249/8
f 40/250/8 39/248/8 17/247/8
f 39/248/8 38/246/8 18/245/8
f 38/246/8 37/33/8 19/32/8
f 37/33/8 36/258/8 20/31/8
f 36/258/8 35/259/8 21/260/8
f 35/259/8 34/261/8 22/262/8
f 34/261/8 33/263/8 23/264/8
f 33/263/8 32/265/8 24/266/8
f 32/265/8 31/267/8 25/268/8
f 31/267/8 30/269/8 26/270/8
f 30/269/8 29/271/8 27/272/8
f 29/271/8 28/273/8 27/272/8
f 27/272/8 26/270/8 30/269/8
f 26/270/8 25/268/8 31/267/8
f 25/268/8 24/266/8 32/265/8
f 24/266/8 23/264/8 33/263/8
f 23/264/8 22/262/8 34/261/8
f 22/262/8 21/260/8 35/259/8
f 21/260/8 20/31/8 36/258/8
f 49/274/9 50/275/9 71/276/9
f 50/275/9 51/277/9 70/278/9
f 71/276/9 50/275/9 70/278/9
f 51/277/9 52/279/9 69/280/9
f 52/279/9 53/281/9 68/282/9
f 69/280/9 52/279/9 68/282/9
f 53/281/9 54/283/9 67/284/9
f 54/283/9 55/285/9 66/286/9
f 67/284/9 54/283/9 66/286/9
f 55/285/9 56/287/9 65/288/9
f 56/287/9 57/289/9 64/290/9
f 65/288/9 56/287/9 64/290/9
f 57/289/9 58/291/9 63/292/9
f 58/291/9 59/293/9 62/294/9
f 63/292/9 58/291/9 62/294/9
f 59/293/9 60/295/9 61/296/9
f 61/296/9 62/294/9 59/293/9
f 63/292/9 64/290/9 57/289/9
f 65/288/9 66/286/9 55/285/9
f 67/284/9 68/282/9 53/281/9
f 69/280/9 70/278/9 51/277/9
f 71/276/9 72/297/9 49/274/9
f 72/297/9 73/36/9 80/35/9
f 49/274/9 72/297/9 80/35/9
f 73/36/9 74/298/9 79/34/9
f 74/298/9 75/299/9 78/300/9
f 79/34/9 74/298/9 78/300/9
f 75/299/9 76/301/9 77/302/9
f 77/302/9 78/300/9 75/299/9
f 20/37/65 52/303/65 51/38/65
f 47/40/66 79/304/66 78/41/66
f 33/43/67 34/305/67 66/44/67
f 21/46/13 53/306/13 52/47/13
f 48/49/44 80/307/44 79/50/44
f 35/52/45 67/308/45 66/53/45
f 22/55/68 54/309/68 53/56/68
f 17/58/47 49/310/47 80/59/47
f 36/61/69 68/311/69 67/62/69
f 23/64/19 55/312/19 54/65/19
f 37/67/20 69/313/20 68/68/20
f 23/70/70 24/314/70 56/71/70
f 38/73/71 70/315/71 69/74/71
f 25/76/23 57/316/23 56/77/23
f 38/79/72 39/317/72 71/80/72
f 26/82/25 58/318/25 57/83/25
f 39/85/26 40/319/26 72/86/26
f 27/88/53 59/320/53 58/89/53
f 41/91/73 73/321/73 72/92/73
f 28/94/74 60/322/74 59/95/74
f 42/97/30 74/323/30 73/98/30
f 28/100/75 29/324/75 61/101/75
f 43/103/76 75/325/76 74/104/76
f 30/106/33 62/326/33 61/107/33
f 43/109/77 44/327/77 76/110/77
f 31/112/35 63/328/35 62/113/35
f 18/115/61 50/329/61 49/116/61
f 44/118/37 45/330/37 77/119/37
f 32/121/78 64/331/78 63/122/78
f 19/124/79 51/332/79 50/125/79
f 46/127/80 78/333/80 77/128/80
f 33/130/81 65/334/81 64/131/81
f 83/134/8 82/335/8 102/336/8
f 82/335/8 81/337/8 103/338/8
f 81/337/8 112/339/8 104/340/8
f 112/339/8 111/341/8 105/342/8
f 111/341/8 110/343/8 106/344/8
f 110/343/8 109/345/8 107/346/8
f 109/345/8 108/347/8 107/346/8
f 107/346/8 106/344/8 110/343/8
f 106/344/8 105/342/8 111/341/8
f 105/342/8 104/340/8 112/339/8
f 104/340/8 103/338/8 81/337/8
f 103/338/8 102/336/8 82/335/8
f 102/336/8 101/135/8 83/134/8
f 101/135/8 100/348/8 84/133/8
f 100/348/8 99/349/8 85/350/8
f 99/349/8 98/351/8 86/352/8
f 98/351/8 97/353/8 87/354/8
f 97/353/8 96/355/8 88/356/8
f 96/355/8 95/357/8 89/358/8
f 95/357/8 94/359/8 90/360/8
f 94/359/8 93/361/8 91/362/8
f 93/361/8 92/363/8 91/362/8
f 91/362/8 90/360/8 94/359/8
f 90/360/8 89/358/8 95/357/8
f 89/358/8 88/356/8 96/355/8
f 88/356/8 87/354/8 97/353/8
f 87/354/8 86/352/8 98/351/8
f 86/352/8 85/350/8 99/349/8
f 85/350/8 84/133/8 100/348/8
f 113/364/9 114/365/9 135/366/9
f 114/365/9 115/367/9 134/368/9
f 135/366/9 114/365/9 134/368/9
f 115/367/9 116/369/9 133/370/9
f 116/369/9 117/371/9 132/372/9
f 133/370/9 116/369/9 132/372/9
f 117/371/9 118/373/9 131/374/9
f 118/373/9 119/375/9 130/376/9
f 131/374/9 118/373/9 130/376/9
f 119/375/9 120/377/9 129/378/9
f 120/377/9 121/379/9 128/380/9
f 129/378/9 120/377/9 128/380/9
f 121/379/9 122/381/9 127/382/9
f 122/381/9 123/383/9 126/384/9
f 127/382/9 122/381/9 126/384/9
f 123/383/9 124/385/9 125/386/9
f 125/386/9 126/384/9 123/383/9
f 127/382/9 128/380/9 121/379/9
f 129/378/9 130/376/9 119/375/9
f 131/374/9 132/372/9 117/371/9
f 133/370/9 134/368/9 115/367/9
f 135/366/9 136/387/9 113/364/9
f 136/387/9 137/138/9 144/137/9
f 113/364/9 136/387/9 144/137/9
f 137/138/9 138/388/9 143/136/9
f 138/388/9 139/389/9 142/390/9
f 143/136/9 138/388/9 142/390/9
f 139/389/9 140/391/9 141/392/9
f 141/392/9 142/390/9 139/389/9
f 84/139/10 116/393/10 115/140/10
f 111/142/11 143/394/11 142/143/11
f 97/145/67 98/395/67 130/146/67
f 85/148/13 117/396/13 116/149/13
f 112/151/82 144/397/82 143/152/82
f 99/154/15 131/398/15 130/155/15
f 85/157/83 86/399/83 118/158/83
f 81/160/84 113/400/84 144/161/84
f 100/163/69 132/401/69 131/164/69
f 86/166/85 87/402/85 119/167/85
f 101/169/86 133/403/86 132/170/86
f 87/172/87 88/404/87 120/173/87
f 102/175/22 134/405/22 133/176/22
f 89/178/51 121/406/51 120/179/51
f 102/181/88 103/407/88 135/182/88
f 90/184/25 122/408/25 121/185/25
f 103/187/26 104/409/26 136/188/26
f 91/190/53 123/410/53 122/191/53
f 104/193/28 105/411/28 137/194/28
f 92/196/74 124/412/74 123/197/74
f 106/199/89 138/413/89 137/200/89
f 93/202/57 125/414/57 124/203/57
f 107/205/90 139/415/90 138/206/90
f 94/208/33 126/416/33 125/209/33
f 108/211/91 140/417/91 139/212/91
f 95/214/92 127/418/92 126/215/92
f 82/217/61 114/419/61 113/218/61
f 108/220/37 109/420/37 141/221/37
f 95/223/38 96/421/38 128/224/38
f 83/226/79 115/422/79 114/227/79
f 109/229/93 110/423/93 142/230/93
f 96/232/94 97/424/94 129/233/94
