# Blender v2.79 (sub 7) OBJ File: 'Universe Gate.blend'
# www.blender.org
o 24_Cube.044
v -2.403797 -0.216762 3.006536
v -2.403716 -0.190168 3.006435
v -2.368634 -0.217035 2.962697
v -2.368553 -0.190441 2.962596
v -2.389321 -0.216762 3.018147
v -2.389240 -0.190168 3.018046
v -2.354158 -0.217035 2.974308
v -2.354077 -0.190441 2.974207
v -2.476823 -0.216762 3.095423
v -2.476742 -0.190168 3.095323
v -2.441661 -0.217035 3.051584
v -2.441580 -0.190441 3.051484
v -2.462347 -0.216762 3.107035
v -2.462266 -0.190168 3.106934
v -2.427184 -0.217035 3.063195
v -2.427104 -0.190441 3.063095
v -2.405268 -0.209310 3.021592
v -2.407998 -0.209310 3.019812
v -2.411022 -0.209310 3.018598
v -2.414226 -0.209310 3.017998
v -2.417485 -0.209310 3.018035
v -2.420674 -0.209310 3.018707
v -2.423671 -0.209310 3.019987
v -2.426359 -0.209310 3.021828
v -2.428638 -0.209310 3.024158
v -2.430418 -0.209310 3.026888
v -2.431631 -0.209310 3.029913
v -2.432231 -0.209310 3.033117
v -2.432195 -0.209310 3.036375
v -2.431524 -0.209310 3.039564
v -2.430243 -0.209310 3.042561
v -2.428401 -0.209310 3.045250
v -2.426071 -0.209310 3.047529
v -2.423342 -0.209310 3.049309
v -2.420317 -0.209310 3.050522
v -2.417114 -0.209310 3.051122
v -2.413855 -0.209310 3.051085
v -2.410666 -0.209310 3.050414
v -2.407669 -0.209310 3.049133
v -2.404980 -0.209310 3.047292
v -2.402701 -0.209310 3.044962
v -2.400921 -0.209310 3.042232
v -2.399708 -0.209310 3.039207
v -2.399108 -0.209310 3.036004
v -2.399144 -0.209310 3.032745
v -2.399816 -0.209310 3.029556
v -2.401097 -0.209310 3.026559
v -2.402938 -0.209310 3.023870
v -2.405268 -0.190207 3.021592
v -2.407998 -0.190207 3.019811
v -2.411022 -0.190207 3.018598
v -2.414226 -0.190207 3.017999
v -2.417485 -0.190207 3.018035
v -2.420674 -0.190207 3.018707
v -2.423670 -0.190207 3.019987
v -2.426359 -0.190207 3.021828
v -2.428638 -0.190207 3.024158
v -2.430418 -0.190207 3.026888
v -2.431632 -0.190207 3.029913
v -2.432231 -0.190207 3.033116
v -2.432195 -0.190207 3.036375
v -2.431523 -0.190207 3.039564
v -2.430243 -0.190207 3.042561
v -2.428401 -0.190207 3.045250
v -2.426071 -0.190207 3.047529
v -2.423342 -0.190207 3.049309
v -2.420317 -0.190207 3.050522
v -2.417113 -0.190207 3.051122
v -2.413854 -0.190207 3.051085
v -2.410666 -0.190207 3.050414
v -2.407669 -0.190207 3.049133
v -2.404980 -0.190207 3.047292
v -2.402701 -0.190207 3.044962
v -2.400921 -0.190207 3.042232
v -2.399708 -0.190207 3.039207
v -2.399108 -0.190207 3.036004
v -2.399144 -0.190207 3.032745
v -2.399816 -0.190207 3.029557
v -2.401097 -0.190207 3.026559
v -2.402938 -0.190207 3.023870
v -2.481683 -0.209310 3.113990
v -2.484413 -0.209310 3.112209
v -2.487438 -0.209310 3.110996
v -2.490641 -0.209310 3.110396
v -2.493900 -0.209310 3.110433
v -2.497089 -0.209310 3.111104
v -2.500086 -0.209310 3.112385
v -2.502775 -0.209310 3.114226
v -2.505054 -0.209310 3.116557
v -2.506834 -0.209310 3.119286
v -2.508047 -0.209310 3.122310
v -2.508647 -0.209310 3.125514
v -2.508610 -0.209310 3.128773
v -2.507939 -0.209310 3.131962
v -2.506658 -0.209310 3.134959
v -2.504817 -0.209310 3.137648
v -2.502487 -0.209310 3.139926
v -2.499757 -0.209310 3.141706
v -2.496732 -0.209310 3.142920
v -2.493529 -0.209310 3.143520
v -2.490270 -0.209310 3.143483
v -2.487081 -0.209310 3.142812
v -2.484084 -0.209310 3.141531
v -2.481395 -0.209310 3.139690
v -2.479117 -0.209310 3.137360
v -2.477336 -0.209310 3.134629
v -2.476123 -0.209310 3.131605
v -2.475523 -0.209310 3.128402
v -2.475560 -0.209310 3.125143
v -2.476231 -0.209310 3.121953
v -2.477512 -0.209310 3.118957
v -2.479353 -0.209310 3.116268
v -2.481683 -0.190207 3.113990
v -2.484413 -0.190207 3.112209
v -2.487438 -0.190207 3.110996
v -2.490641 -0.190207 3.110396
v -2.493900 -0.190207 3.110433
v -2.497089 -0.190207 3.111104
v -2.500086 -0.190207 3.112385
v -2.502775 -0.190207 3.114226
v -2.505054 -0.190207 3.116556
v -2.506834 -0.190207 3.119286
v -2.508047 -0.190207 3.122311
v -2.508647 -0.190207 3.125514
v -2.508610 -0.190207 3.128773
v -2.507939 -0.190207 3.131962
v -2.506658 -0.190207 3.134959
v -2.504817 -0.190207 3.137648
v -2.502487 -0.190207 3.139926
v -2.499757 -0.190207 3.141706
v -2.496732 -0.190207 3.142920
v -2.493529 -0.190207 3.143520
v -2.490270 -0.190207 3.143483
v -2.487081 -0.190207 3.142812
v -2.484085 -0.190207 3.141531
v -2.481395 -0.190207 3.139690
v -2.479117 -0.190207 3.137360
v -2.477336 -0.190207 3.134629
v -2.476123 -0.190207 3.131605
v -2.475523 -0.190207 3.128402
v -2.475559 -0.190207 3.125143
v -2.476231 -0.190207 3.121954
v -2.477512 -0.190207 3.118957
v -2.479353 -0.190207 3.116268
vn -0.7801 0.0000 -0.6257
vn 0.6257 -0.0049 -0.7801
vn 0.7801 -0.0000 0.6257
vn -0.6257 0.0049 0.7801
vn -0.0030 -1.0000 0.0038
vn 0.0030 1.0000 -0.0038
vn -0.6257 0.0048 0.7801
vn 0.0000 -1.0000 0.0000
vn 0.0000 1.0000 0.0000
vn 0.1841 0.0000 -0.9829
vn 0.9195 0.0000 -0.3931
vn -0.5462 -0.0000 0.8377
vn -0.0111 0.0000 -0.9999
vn 0.8251 0.0000 -0.5650
vn -0.3722 0.0000 0.9282
vn -0.2060 -0.0000 -0.9786
vn 0.6993 -0.0000 -0.7149
vn -0.1841 0.0000 0.9829
vn -0.3930 0.0000 -0.9195
vn 0.0112 -0.0000 0.9999
vn -0.5649 0.0000 -0.8251
vn 0.2061 0.0000 0.9785
vn -0.7150 0.0000 -0.6991
vn 0.3931 0.0000 0.9195
vn -0.8376 0.0000 -0.5463
vn 0.5648 -0.0000 0.8252
vn -0.9282 0.0000 -0.3722
vn 0.7150 -0.0000 0.6991
vn -0.9829 -0.0000 -0.1842
vn 0.8376 -0.0000 0.5463
vn -0.9999 0.0000 0.0112
vn 0.9282 -0.0000 0.3721
vn -0.9785 0.0000 0.2061
vn 0.9829 0.0000 0.1841
vn -0.9195 -0.0000 0.3930
vn 0.5462 0.0000 -0.8377
vn 0.9999 0.0000 -0.0111
vn -0.8251 0.0000 0.5650
vn 0.3724 -0.0000 -0.9281
vn 0.9785 -0.0000 -0.2061
vn -0.6992 -0.0000 0.7149
vn -0.5460 0.0000 0.8378
vn -0.0114 0.0000 -0.9999
vn 0.8252 0.0000 -0.5649
vn -0.3723 -0.0000 0.9281
vn -0.2061 0.0000 -0.9785
vn 0.6991 0.0000 -0.7150
vn -0.1842 0.0000 0.9829
vn -0.3928 0.0000 -0.9196
vn 0.0111 0.0000 0.9999
vn -0.7151 0.0000 -0.6990
vn 0.3930 0.0000 0.9196
vn -0.9281 0.0000 -0.3723
vn 0.7149 0.0000 0.6992
vn -0.9829 -0.0000 -0.1843
vn 0.8378 0.0000 0.5460
vn -0.9999 0.0000 0.0113
vn 0.9281 -0.0000 0.3723
vn -0.9785 0.0000 0.2062
vn 0.9829 -0.0000 0.1840
vn 0.5463 0.0000 -0.8376
vn 0.9999 -0.0000 -0.0112
vn -0.8252 0.0000 0.5648
vn 0.6257 -0.0048 -0.7801
vn 0.1839 0.0000 -0.9829
vn 0.9196 0.0000 -0.3929
vn -0.5463 0.0000 0.8376
vn -0.2062 0.0000 -0.9785
vn -0.1843 -0.0000 0.9829
vn -0.5649 0.0000 -0.8252
vn 0.2060 0.0000 0.9786
vn 0.3932 -0.0000 0.9194
vn 0.7151 0.0000 0.6990
vn -0.9829 0.0000 -0.1841
vn -0.9999 0.0000 0.0111
vn 0.9281 0.0000 0.3722
vn 0.9829 0.0000 0.1842
vn -0.8252 -0.0000 0.5649
vn 0.3722 0.0000 -0.9282
vn 0.9785 0.0001 -0.2062
vn -0.6991 -0.0000 0.7150
vn 0.8252 0.0000 -0.5648
vn -0.2063 -0.0000 -0.9785
vn 0.6990 0.0000 -0.7151
vn -0.3929 -0.0000 -0.9196
vn 0.0113 0.0000 0.9999
vn -0.5648 0.0000 -0.8252
vn 0.3933 -0.0000 0.9194
vn 0.8377 -0.0000 0.5462
vn 0.9281 0.0000 0.3724
vn 0.9829 -0.0001 0.1841
vn -0.9195 0.0000 0.3931
vn 0.9786 -0.0000 -0.2060
vn -0.6993 -0.0000 0.7149
s off
f 1//1 4//1 3//1
f 4//2 7//2 3//2
f 8//3 5//3 7//3
f 5//4 2//4 1//4
f 3//5 5//5 1//5
f 4//6 6//6 8//6
f 9//1 12//1 11//1
f 12//2 15//2 11//2
f 16//3 13//3 15//3
f 13//7 10//7 9//7
f 11//5 13//5 9//5
f 12//6 14//6 16//6
f 20//8 19//8 37//8
f 79//9 80//9 73//9
f 20//10 51//10 19//10
f 47//11 78//11 46//11
f 33//12 66//12 65//12
f 21//13 52//13 20//13
f 48//14 79//14 47//14
f 35//15 66//15 34//15
f 22//16 53//16 21//16
f 17//17 80//17 48//17
f 36//18 67//18 35//18
f 23//19 54//19 22//19
f 37//20 68//20 36//20
f 23//21 56//21 55//21
f 38//22 69//22 37//22
f 25//23 56//23 24//23
f 38//24 71//24 70//24
f 26//25 57//25 25//25
f 39//26 72//26 71//26
f 27//27 58//27 26//27
f 41//28 72//28 40//28
f 28//29 59//29 27//29
f 42//30 73//30 41//30
f 28//31 61//31 60//31
f 43//32 74//32 42//32
f 30//33 61//33 29//33
f 43//34 76//34 75//34
f 31//35 62//35 30//35
f 18//36 49//36 17//36
f 44//37 77//37 76//37
f 32//38 63//38 31//38
f 19//39 50//39 18//39
f 46//40 77//40 45//40
f 33//41 64//41 32//41
f 84//8 83//8 101//8
f 143//9 144//9 137//9
f 84//10 115//10 83//10
f 111//11 142//11 110//11
f 97//42 130//42 129//42
f 85//43 116//43 84//43
f 112//44 143//44 111//44
f 99//45 130//45 98//45
f 85//46 118//46 117//46
f 81//47 144//47 112//47
f 100//48 131//48 99//48
f 86//49 119//49 118//49
f 101//50 132//50 100//50
f 87//21 120//21 119//21
f 102//22 133//22 101//22
f 89//51 120//51 88//51
f 102//52 135//52 134//52
f 90//25 121//25 89//25
f 103//26 136//26 135//26
f 91//53 122//53 90//53
f 104//54 137//54 136//54
f 92//55 123//55 91//55
f 106//56 137//56 105//56
f 93//57 124//57 92//57
f 107//58 138//58 106//58
f 94//59 125//59 93//59
f 108//60 139//60 107//60
f 95//35 126//35 94//35
f 82//61 113//61 81//61
f 108//62 141//62 140//62
f 95//63 128//63 127//63
f 83//39 114//39 82//39
f 109//40 142//40 141//40
f 96//41 129//41 128//41
f 1//1 2//1 4//1
f 4//2 8//2 7//2
f 8//3 6//3 5//3
f 5//4 6//4 2//4
f 3//5 7//5 5//5
f 4//6 2//6 6//6
f 9//1 10//1 12//1
f 12//64 16//64 15//64
f 16//3 14//3 13//3
f 13//4 14//4 10//4
f 11//5 15//5 13//5
f 12//6 10//6 14//6
f 19//8 18//8 38//8
f 18//8 17//8 39//8
f 17//8 48//8 40//8
f 48//8 47//8 41//8
f 47//8 46//8 42//8
f 46//8 45//8 43//8
f 45//8 44//8 43//8
f 43//8 42//8 46//8
f 42//8 41//8 47//8
f 41//8 40//8 48//8
f 40//8 39//8 17//8
f 39//8 38//8 18//8
f 38//8 37//8 19//8
f 37//8 36//8 20//8
f 36//8 35//8 21//8
f 35//8 34//8 22//8
f 34//8 33//8 23//8
f 33//8 32//8 24//8
f 32//8 31//8 25//8
f 31//8 30//8 26//8
f 30//8 29//8 27//8
f 29//8 28//8 27//8
f 27//8 26//8 30//8
f 26//8 25//8 31//8
f 25//8 24//8 32//8
f 24//8 23//8 33//8
f 23//8 22//8 34//8
f 22//8 21//8 35//8
f 21//8 20//8 36//8
f 49//9 50//9 71//9
f 50//9 51//9 70//9
f 71//9 50//9 70//9
f 51//9 52//9 69//9
f 52//9 53//9 68//9
f 69//9 52//9 68//9
f 53//9 54//9 67//9
f 54//9 55//9 66//9
f 67//9 54//9 66//9
f 55//9 56//9 65//9
f 56//9 57//9 64//9
f 65//9 56//9 64//9
f 57//9 58//9 63//9
f 58//9 59//9 62//9
f 63//9 58//9 62//9
f 59//9 60//9 61//9
f 61//9 62//9 59//9
f 63//9 64//9 57//9
f 65//9 66//9 55//9
f 67//9 68//9 53//9
f 69//9 70//9 51//9
f 71//9 72//9 49//9
f 72//9 73//9 80//9
f 49//9 72//9 80//9
f 73//9 74//9 79//9
f 74//9 75//9 78//9
f 79//9 74//9 78//9
f 75//9 76//9 77//9
f 77//9 78//9 75//9
f 20//65 52//65 51//65
f 47//66 79//66 78//66
f 33//67 34//67 66//67
f 21//13 53//13 52//13
f 48//44 80//44 79//44
f 35//45 67//45 66//45
f 22//68 54//68 53//68
f 17//47 49//47 80//47
f 36//69 68//69 67//69
f 23//19 55//19 54//19
f 37//20 69//20 68//20
f 23//70 24//70 56//70
f 38//71 70//71 69//71
f 25//23 57//23 56//23
f 38//72 39//72 71//72
f 26//25 58//25 57//25
f 39//26 40//26 72//26
f 27//53 59//53 58//53
f 41//73 73//73 72//73
f 28//74 60//74 59//74
f 42//30 74//30 73//30
f 28//75 29//75 61//75
f 43//76 75//76 74//76
f 30//33 62//33 61//33
f 43//77 44//77 76//77
f 31//35 63//35 62//35
f 18//61 50//61 49//61
f 44//37 45//37 77//37
f 32//78 64//78 63//78
f 19//79 51//79 50//79
f 46//80 78//80 77//80
f 33//81 65//81 64//81
f 83//8 82//8 102//8
f 82//8 81//8 103//8
f 81//8 112//8 104//8
f 112//8 111//8 105//8
f 111//8 110//8 106//8
f 110//8 109//8 107//8
f 109//8 108//8 107//8
f 107//8 106//8 110//8
f 106//8 105//8 111//8
f 105//8 104//8 112//8
f 104//8 103//8 81//8
f 103//8 102//8 82//8
f 102//8 101//8 83//8
f 101//8 100//8 84//8
f 100//8 99//8 85//8
f 99//8 98//8 86//8
f 98//8 97//8 87//8
f 97//8 96//8 88//8
f 96//8 95//8 89//8
f 95//8 94//8 90//8
f 94//8 93//8 91//8
f 93//8 92//8 91//8
f 91//8 90//8 94//8
f 90//8 89//8 95//8
f 89//8 88//8 96//8
f 88//8 87//8 97//8
f 87//8 86//8 98//8
f 86//8 85//8 99//8
f 85//8 84//8 100//8
f 113//9 114//9 135//9
f 114//9 115//9 134//9
f 135//9 114//9 134//9
f 115//9 116//9 133//9
f 116//9 117//9 132//9
f 133//9 116//9 132//9
f 117//9 118//9 131//9
f 118//9 119//9 130//9
f 131//9 118//9 130//9
f 119//9 120//9 129//9
f 120//9 121//9 128//9
f 129//9 120//9 128//9
f 121//9 122//9 127//9
f 122//9 123//9 126//9
f 127//9 122//9 126//9
f 123//9 124//9 125//9
f 125//9 126//9 123//9
f 127//9 128//9 121//9
f 129//9 130//9 119//9
f 131//9 132//9 117//9
f 133//9 134//9 115//9
f 135//9 136//9 113//9
f 136//9 137//9 144//9
f 113//9 136//9 144//9
f 137//9 138//9 143//9
f 138//9 139//9 142//9
f 143//9 138//9 142//9
f 139//9 140//9 141//9
f 141//9 142//9 139//9
f 84//10 116//10 115//10
f 111//11 143//11 142//11
f 97//67 98//67 130//67
f 85//13 117//13 116//13
f 112//82 144//82 143//82
f 99//15 131//15 130//15
f 85//83 86//83 118//83
f 81//84 113//84 144//84
f 100//69 132//69 131//69
f 86//85 87//85 119//85
f 101//86 133//86 132//86
f 87//87 88//87 120//87
f 102//22 134//22 133//22
f 89//51 121//51 120//51
f 102//88 103//88 135//88
f 90//25 122//25 121//25
f 103//26 104//26 136//26
f 91//53 123//53 122//53
f 104//28 105//28 137//28
f 92//74 124//74 123//74
f 106//89 138//89 137//89
f 93//57 125//57 124//57
f 107//90 139//90 138//90
f 94//33 126//33 125//33
f 108//91 140//91 139//91
f 95//92 127//92 126//92
f 82//61 114//61 113//61
f 108//37 109//37 141//37
f 95//38 96//38 128//38
f 83//79 115//79 114//79
f 109//93 110//93 142//93
f 96//94 97//94 129//94
