# Blender v2.79 (sub 7) OBJ File: 'Universe Gate.blend'
# www.blender.org
o 26_Circle.045
v -0.937985 -0.210063 3.659058
v -0.941203 -0.210063 3.658545
v -0.944460 -0.210063 3.658671
v -0.947629 -0.210063 3.659429
v -0.950590 -0.210063 3.660791
v -0.953228 -0.210063 3.662704
v -0.955442 -0.210063 3.665096
v -0.957147 -0.210063 3.667873
v -0.958277 -0.210063 3.670930
v -0.958790 -0.210063 3.674149
v -0.958664 -0.210063 3.677406
v -0.957906 -0.210063 3.680575
v -0.956544 -0.210063 3.683535
v -0.954630 -0.210063 3.686173
v -0.952239 -0.210063 3.688388
v -0.949462 -0.210063 3.690093
v -0.946405 -0.210063 3.691223
v -0.943186 -0.210063 3.691735
v -0.939930 -0.210063 3.691610
v -0.936760 -0.210063 3.690852
v -0.933800 -0.210063 3.689489
v -0.931162 -0.210063 3.687576
v -0.928947 -0.210063 3.685185
v -0.927242 -0.210063 3.682407
v -0.926112 -0.210063 3.679351
v -0.925600 -0.210063 3.676132
v -0.925725 -0.210063 3.672875
v -0.926483 -0.210063 3.669706
v -0.927846 -0.210063 3.666745
v -0.929759 -0.210063 3.664107
v -0.932150 -0.210063 3.661893
v -0.934928 -0.210063 3.660188
v -0.937985 -0.190960 3.659058
v -0.941203 -0.190960 3.658545
v -0.944460 -0.190960 3.658671
v -0.947629 -0.190960 3.659429
v -0.950590 -0.190960 3.660791
v -0.953228 -0.190960 3.662704
v -0.955442 -0.190960 3.665096
v -0.957147 -0.190960 3.667873
v -0.958277 -0.190960 3.670930
v -0.958790 -0.190960 3.674149
v -0.958664 -0.190960 3.677406
v -0.957906 -0.190960 3.680575
v -0.956544 -0.190960 3.683535
v -0.954630 -0.190960 3.686173
v -0.952239 -0.190960 3.688388
v -0.949462 -0.190960 3.690093
v -0.946405 -0.190960 3.691223
v -0.943186 -0.190960 3.691735
v -0.939930 -0.190960 3.691610
v -0.936760 -0.190960 3.690852
v -0.933800 -0.190960 3.689489
v -0.931162 -0.190960 3.687576
v -0.928947 -0.190960 3.685185
v -0.927242 -0.190960 3.682407
v -0.926112 -0.190960 3.679351
v -0.925600 -0.190960 3.676132
v -0.925725 -0.190960 3.672875
v -0.926483 -0.190960 3.669706
v -0.927846 -0.190960 3.666745
v -0.929759 -0.190960 3.664107
v -0.932150 -0.190960 3.661893
v -0.934928 -0.190960 3.660188
v -0.988875 -0.210063 3.843939
v -0.992093 -0.210063 3.843427
v -0.995350 -0.210063 3.843552
v -0.998519 -0.210063 3.844311
v -1.001480 -0.210063 3.845672
v -1.004118 -0.210063 3.847586
v -1.006332 -0.210063 3.849978
v -1.008037 -0.210063 3.852755
v -1.009168 -0.210063 3.855812
v -1.009680 -0.210063 3.859030
v -1.009554 -0.210063 3.862287
v -1.008796 -0.210063 3.865456
v -1.007434 -0.210063 3.868417
v -1.005520 -0.210063 3.871055
v -1.003129 -0.210063 3.873269
v -1.000352 -0.210063 3.874974
v -0.997295 -0.210063 3.876105
v -0.994076 -0.210063 3.876617
v -0.990820 -0.210063 3.876491
v -0.987650 -0.210063 3.875733
v -0.984690 -0.210063 3.874371
v -0.982052 -0.210063 3.872458
v -0.979837 -0.210063 3.870066
v -0.978132 -0.210063 3.867289
v -0.977002 -0.210063 3.864232
v -0.976490 -0.210063 3.861013
v -0.976615 -0.210063 3.857757
v -0.977373 -0.210063 3.854587
v -0.978736 -0.210063 3.851627
v -0.980649 -0.210063 3.848989
v -0.983041 -0.210063 3.846775
v -0.985818 -0.210063 3.845069
v -0.988875 -0.190960 3.843939
v -0.992093 -0.190960 3.843427
v -0.995350 -0.190960 3.843552
v -0.998519 -0.190960 3.844311
v -1.001480 -0.190960 3.845672
v -1.004118 -0.190960 3.847586
v -1.006332 -0.190960 3.849978
v -1.008037 -0.190960 3.852755
v -1.009168 -0.190960 3.855812
v -1.009680 -0.190960 3.859030
v -1.009554 -0.190960 3.862287
v -1.008796 -0.190960 3.865456
v -1.007434 -0.190960 3.868417
v -1.005520 -0.190960 3.871055
v -1.003129 -0.190960 3.873269
v -1.000352 -0.190960 3.874974
v -0.997295 -0.190960 3.876105
v -0.994076 -0.190960 3.876617
v -0.990820 -0.190960 3.876491
v -0.987650 -0.190960 3.875733
v -0.984690 -0.190960 3.874371
v -0.982052 -0.190960 3.872458
v -0.979837 -0.190960 3.870066
v -0.978132 -0.190960 3.867289
v -0.977002 -0.190960 3.864232
v -0.976490 -0.190960 3.861013
v -0.976615 -0.190960 3.857757
v -0.977373 -0.190960 3.854587
v -0.978736 -0.190960 3.851627
v -0.980649 -0.190960 3.848989
v -0.983041 -0.190960 3.846775
v -0.985818 -0.190960 3.845069
v -0.963496 -0.210063 3.752571
v -0.966715 -0.210063 3.752059
v -0.969971 -0.210063 3.752184
v -0.973141 -0.210063 3.752942
v -0.976102 -0.210063 3.754304
v -0.978740 -0.210063 3.756218
v -0.980954 -0.210063 3.758609
v -0.982659 -0.210063 3.761387
v -0.983789 -0.210063 3.764443
v -0.984302 -0.210063 3.767662
v -0.984176 -0.210063 3.770918
v -0.983418 -0.210063 3.774088
v -0.982056 -0.210063 3.777048
v -0.980142 -0.210063 3.779686
v -0.977751 -0.210063 3.781901
v -0.974973 -0.210063 3.783606
v -0.971917 -0.210063 3.784736
v -0.968698 -0.210063 3.785248
v -0.965442 -0.210063 3.785123
v -0.962272 -0.210063 3.784364
v -0.959311 -0.210063 3.783002
v -0.956673 -0.210063 3.781089
v -0.954459 -0.210063 3.778698
v -0.952754 -0.210063 3.775920
v -0.951624 -0.210063 3.772864
v -0.951111 -0.210063 3.769645
v -0.951237 -0.210063 3.766388
v -0.951995 -0.210063 3.763219
v -0.953357 -0.210063 3.760258
v -0.955271 -0.210063 3.757620
v -0.957662 -0.210063 3.755406
v -0.960440 -0.210063 3.753701
v -0.963496 -0.190960 3.752571
v -0.966715 -0.190960 3.752059
v -0.969971 -0.190960 3.752184
v -0.973141 -0.190960 3.752942
v -0.976102 -0.190960 3.754304
v -0.978740 -0.190960 3.756218
v -0.980954 -0.190960 3.758609
v -0.982659 -0.190960 3.761387
v -0.983789 -0.190960 3.764443
v -0.984302 -0.190960 3.767662
v -0.984176 -0.190960 3.770918
v -0.983418 -0.190960 3.774088
v -0.982056 -0.190960 3.777048
v -0.980142 -0.190960 3.779686
v -0.977751 -0.190960 3.781901
v -0.974973 -0.190960 3.783606
v -0.971917 -0.190960 3.784736
v -0.968698 -0.190960 3.785248
v -0.965442 -0.190960 3.785123
v -0.962272 -0.190960 3.784364
v -0.959311 -0.190960 3.783002
v -0.956673 -0.190960 3.781089
v -0.954459 -0.190960 3.778698
v -0.952754 -0.190960 3.775920
v -0.951624 -0.190960 3.772864
v -0.951111 -0.190960 3.769645
v -0.951237 -0.190960 3.766388
v -0.951995 -0.190960 3.763219
v -0.953357 -0.190960 3.760258
v -0.955271 -0.190960 3.757620
v -0.957662 -0.190960 3.755406
v -0.960440 -0.190960 3.753701
v -0.969290 -0.217560 3.736524
v -0.969257 -0.190967 3.736399
v -0.959805 -0.217742 3.700292
v -0.959772 -0.191148 3.700167
v -0.951337 -0.217560 3.741224
v -0.951304 -0.190967 3.741099
v -0.941852 -0.217742 3.704992
v -0.941820 -0.191148 3.704867
v -0.994449 -0.217560 3.831292
v -0.994416 -0.190967 3.831167
v -0.984964 -0.217742 3.795060
v -0.984931 -0.191148 3.794935
v -0.976496 -0.217560 3.835991
v -0.976464 -0.190967 3.835866
v -0.967012 -0.217742 3.799759
v -0.966979 -0.191148 3.799634
vn 0.0000 -1.0000 -0.0000
vn 0.0000 1.0000 -0.0000
vn -0.2329 0.0000 -0.9725
vn 0.6793 0.0000 -0.7338
vn -0.1572 0.0000 0.9876
vn -0.4179 0.0000 -0.9085
vn 0.5232 0.0000 -0.8522
vn 0.0385 0.0000 0.9993
vn -0.5871 0.0000 -0.8095
vn 0.3468 0.0000 -0.9379
vn 0.2327 0.0000 0.9726
vn -0.7338 0.0000 -0.6793
vn 0.4181 0.0000 0.9084
vn -0.8523 0.0000 -0.5231
vn 0.5871 0.0000 0.8095
vn -0.9379 0.0000 -0.3469
vn 0.7337 0.0000 0.6795
vn -0.9876 0.0000 -0.1572
vn 0.8523 0.0000 0.5231
vn -0.9993 0.0000 0.0385
vn 0.9379 0.0000 0.3469
vn -0.9725 0.0000 0.2327
vn 0.9876 0.0000 0.1572
vn -0.9085 0.0000 0.4179
vn 0.9993 0.0000 -0.0385
vn -0.8095 0.0000 0.5871
vn 0.9726 0.0000 -0.2326
vn -0.6795 0.0000 0.7337
vn 0.1573 0.0000 -0.9876
vn 0.9084 0.0000 -0.4180
vn -0.5230 0.0000 0.8523
vn -0.0383 0.0000 -0.9993
vn 0.8095 0.0000 -0.5871
vn -0.3470 0.0000 0.9378
vn -0.2327 0.0000 -0.9726
vn -0.1570 0.0000 0.9876
vn 0.4179 0.0000 0.9085
vn -0.8522 0.0000 -0.5232
vn -0.9379 0.0000 -0.3468
vn 0.7338 0.0000 0.6793
vn -0.8094 0.0000 0.5873
vn -0.6793 0.0000 0.7338
vn 0.1570 0.0000 -0.9876
vn 0.9085 0.0000 -0.4180
vn -0.5232 0.0000 0.8522
vn -0.0385 0.0000 -0.9993
vn -0.3468 0.0000 0.9379
vn -0.5873 0.0000 -0.8094
vn 0.2329 0.0000 0.9725
vn -0.7337 0.0000 -0.6795
vn 0.5870 0.0000 0.8096
vn 0.8522 0.0000 0.5231
vn -0.9085 0.0000 0.4180
vn 0.8094 0.0000 -0.5872
vn -0.9674 0.0000 -0.2532
vn 0.2533 -0.0048 -0.9674
vn 0.9674 -0.0000 0.2533
vn -0.2532 0.0049 0.9674
vn -0.0012 -1.0000 0.0047
vn 0.0012 1.0000 -0.0047
vn 0.2532 -0.0048 -0.9674
vn 0.9674 -0.0000 0.2532
vn 0.0000 -1.0000 0.0001
vn 0.0000 -1.0000 -0.0001
vn 0.0000 1.0000 -0.0001
vn 0.6795 0.0000 -0.7337
vn -0.4177 0.0000 -0.9086
vn 0.0383 0.0000 0.9993
vn 0.3466 0.0000 -0.9380
vn -0.7337 0.0000 -0.6794
vn -0.9725 0.0000 0.2328
vn 0.9726 0.0000 -0.2327
vn 0.9085 0.0000 -0.4179
vn 0.8094 0.0000 -0.5873
vn 0.0000 1.0000 0.0001
vn -0.1573 0.0000 0.9876
vn 0.8522 0.0000 0.5232
vn 0.9379 0.0000 0.3468
vn -0.9726 0.0000 0.2327
vn -0.8096 0.0000 0.5870
vn -0.3470 0.0000 0.9379
vn 0.7337 0.0000 0.6794
vn 0.8096 0.0000 -0.5870
vn 0.2532 -0.0049 -0.9674
vn -0.2533 0.0049 0.9674
s off
f 3//1 27//1 19//1
f 53//2 57//2 33//2
f 4//3 35//3 3//3
f 31//4 62//4 30//4
f 18//5 49//5 17//5
f 5//6 36//6 4//6
f 32//7 63//7 31//7
f 19//8 50//8 18//8
f 6//9 37//9 5//9
f 1//10 64//10 32//10
f 20//11 51//11 19//11
f 7//12 38//12 6//12
f 21//13 52//13 20//13
f 8//14 39//14 7//14
f 22//15 53//15 21//15
f 9//16 40//16 8//16
f 23//17 54//17 22//17
f 10//18 41//18 9//18
f 24//19 55//19 23//19
f 11//20 42//20 10//20
f 25//21 56//21 24//21
f 12//22 43//22 11//22
f 26//23 57//23 25//23
f 13//24 44//24 12//24
f 27//25 58//25 26//25
f 14//26 45//26 13//26
f 28//27 59//27 27//27
f 15//28 46//28 14//28
f 2//29 33//29 1//29
f 29//30 60//30 28//30
f 16//31 47//31 15//31
f 3//32 34//32 2//32
f 30//33 61//33 29//33
f 17//34 48//34 16//34
f 67//1 91//1 83//1
f 113//2 121//2 97//2
f 68//35 99//35 67//35
f 95//4 126//4 94//4
f 82//36 113//36 81//36
f 69//6 100//6 68//6
f 96//7 127//7 95//7
f 83//8 114//8 82//8
f 70//9 101//9 69//9
f 65//10 128//10 96//10
f 84//11 115//11 83//11
f 71//12 102//12 70//12
f 85//37 116//37 84//37
f 72//38 103//38 71//38
f 86//15 117//15 85//15
f 73//39 104//39 72//39
f 87//40 118//40 86//40
f 74//18 105//18 73//18
f 88//19 119//19 87//19
f 75//20 106//20 74//20
f 89//21 120//21 88//21
f 76//22 107//22 75//22
f 90//23 121//23 89//23
f 77//24 108//24 76//24
f 91//25 122//25 90//25
f 78//41 109//41 77//41
f 92//27 123//27 91//27
f 79//42 110//42 78//42
f 66//43 97//43 65//43
f 93//44 124//44 92//44
f 80//45 111//45 79//45
f 67//46 98//46 66//46
f 94//33 125//33 93//33
f 81//47 112//47 80//47
f 131//1 155//1 147//1
f 181//2 185//2 161//2
f 132//35 163//35 131//35
f 159//4 190//4 158//4
f 146//36 177//36 145//36
f 133//6 164//6 132//6
f 160//7 191//7 159//7
f 147//8 178//8 146//8
f 134//48 165//48 133//48
f 160//10 161//10 192//10
f 148//49 179//49 147//49
f 135//50 166//50 134//50
f 149//13 180//13 148//13
f 136//14 167//14 135//14
f 150//51 181//51 149//51
f 137//39 168//39 136//39
f 151//40 182//40 150//40
f 138//18 169//18 137//18
f 152//52 183//52 151//52
f 139//20 170//20 138//20
f 153//21 184//21 152//21
f 140//22 171//22 139//22
f 154//23 185//23 153//23
f 141//53 172//53 140//53
f 155//25 186//25 154//25
f 142//26 173//26 141//26
f 156//27 187//27 155//27
f 143//42 174//42 142//42
f 129//29 162//29 161//29
f 157//30 188//30 156//30
f 144//31 175//31 143//31
f 131//32 162//32 130//32
f 158//54 189//54 157//54
f 145//47 176//47 144//47
f 194//55 195//55 193//55
f 196//56 199//56 195//56
f 199//57 198//57 197//57
f 198//58 193//58 197//58
f 199//59 193//59 195//59
f 200//60 194//60 198//60
f 202//55 203//55 201//55
f 204//61 207//61 203//61
f 207//62 206//62 205//62
f 205//58 202//58 201//58
f 203//59 205//59 201//59
f 208//60 202//60 206//60
f 3//1 2//1 1//1
f 1//63 32//63 31//63
f 31//1 30//1 27//1
f 30//1 29//1 27//1
f 29//1 28//1 27//1
f 27//1 26//1 25//1
f 25//1 24//1 27//1
f 24//1 23//1 27//1
f 23//64 22//64 21//64
f 21//1 20//1 19//1
f 19//64 18//64 17//64
f 17//1 16//1 19//1
f 16//1 15//1 19//1
f 15//1 14//1 11//1
f 14//1 13//1 11//1
f 13//1 12//1 11//1
f 11//1 10//1 7//1
f 10//1 9//1 7//1
f 9//1 8//1 7//1
f 7//1 6//1 5//1
f 5//1 4//1 7//1
f 4//1 3//1 7//1
f 3//1 1//1 27//1
f 1//1 31//1 27//1
f 23//1 21//1 27//1
f 21//1 19//1 27//1
f 19//1 15//1 11//1
f 11//1 7//1 19//1
f 7//1 3//1 19//1
f 33//2 34//2 35//2
f 35//2 36//2 33//2
f 36//2 37//2 33//2
f 37//2 38//2 39//2
f 39//2 40//2 41//2
f 41//2 42//2 43//2
f 43//2 44//2 41//2
f 44//2 45//2 41//2
f 45//2 46//2 47//2
f 47//2 48//2 45//2
f 48//2 49//2 45//2
f 49//2 50//2 53//2
f 50//2 51//2 53//2
f 51//2 52//2 53//2
f 53//2 54//2 55//2
f 55//2 56//2 53//2
f 56//2 57//2 53//2
f 57//2 58//2 59//2
f 59//2 60//2 61//2
f 61//2 62//2 33//2
f 62//2 63//2 33//2
f 63//65 64//65 33//65
f 37//2 39//2 33//2
f 39//2 41//2 33//2
f 57//2 59//2 33//2
f 59//2 61//2 33//2
f 41//2 45//2 33//2
f 45//2 49//2 33//2
f 49//2 53//2 33//2
f 4//35 36//35 35//35
f 31//66 63//66 62//66
f 18//36 50//36 49//36
f 5//67 37//67 36//67
f 32//7 64//7 63//7
f 19//68 51//68 50//68
f 6//48 38//48 37//48
f 1//69 33//69 64//69
f 20//11 52//11 51//11
f 7//70 39//70 38//70
f 21//37 53//37 52//37
f 8//38 40//38 39//38
f 22//15 54//15 53//15
f 9//16 41//16 40//16
f 23//40 55//40 54//40
f 10//18 42//18 41//18
f 24//19 56//19 55//19
f 11//20 43//20 42//20
f 25//21 57//21 56//21
f 12//71 44//71 43//71
f 26//23 58//23 57//23
f 13//53 45//53 44//53
f 27//25 59//25 58//25
f 14//26 46//26 45//26
f 28//72 60//72 59//72
f 15//42 47//42 46//42
f 2//29 34//29 33//29
f 29//73 61//73 60//73
f 16//45 48//45 47//45
f 3//46 35//46 34//46
f 30//74 62//74 61//74
f 17//47 49//47 48//47
f 67//1 66//1 65//1
f 65//1 96//1 95//1
f 95//1 94//1 93//1
f 93//1 92//1 95//1
f 92//1 91//1 95//1
f 91//1 90//1 89//1
f 89//1 88//1 87//1
f 87//1 86//1 83//1
f 86//1 85//1 83//1
f 85//63 84//63 83//63
f 83//1 82//1 79//1
f 82//1 81//1 79//1
f 81//64 80//64 79//64
f 79//1 78//1 77//1
f 77//1 76//1 75//1
f 75//1 74//1 71//1
f 74//1 73//1 71//1
f 73//1 72//1 71//1
f 71//1 70//1 67//1
f 70//1 69//1 67//1
f 69//1 68//1 67//1
f 67//1 65//1 91//1
f 65//1 95//1 91//1
f 91//1 89//1 83//1
f 89//1 87//1 83//1
f 79//1 77//1 75//1
f 83//1 79//1 75//1
f 75//1 71//1 83//1
f 71//1 67//1 83//1
f 97//2 98//2 99//2
f 99//2 100//2 97//2
f 100//2 101//2 97//2
f 101//2 102//2 103//2
f 103//2 104//2 105//2
f 105//2 106//2 109//2
f 106//2 107//2 109//2
f 107//2 108//2 109//2
f 109//2 110//2 111//2
f 111//2 112//2 109//2
f 112//2 113//2 109//2
f 113//65 114//65 115//65
f 115//75 116//75 117//75
f 117//2 118//2 121//2
f 118//2 119//2 121//2
f 119//2 120//2 121//2
f 121//2 122//2 123//2
f 123//2 124//2 121//2
f 124//2 125//2 121//2
f 125//2 126//2 127//2
f 127//65 128//65 97//65
f 101//2 103//2 97//2
f 103//2 105//2 97//2
f 113//2 115//2 121//2
f 115//2 117//2 121//2
f 125//2 127//2 121//2
f 127//2 97//2 121//2
f 105//2 109//2 97//2
f 109//2 113//2 97//2
f 68//35 100//35 99//35
f 95//4 127//4 126//4
f 82//76 114//76 113//76
f 69//6 101//6 100//6
f 96//7 128//7 127//7
f 83//8 115//8 114//8
f 70//48 102//48 101//48
f 65//10 97//10 128//10
f 84//11 116//11 115//11
f 71//12 103//12 102//12
f 85//37 117//37 116//37
f 72//38 104//38 103//38
f 86//15 118//15 117//15
f 73//39 105//39 104//39
f 87//40 119//40 118//40
f 74//18 106//18 105//18
f 88//77 120//77 119//77
f 75//20 107//20 106//20
f 89//78 121//78 120//78
f 76//79 108//79 107//79
f 90//23 122//23 121//23
f 77//53 109//53 108//53
f 91//25 123//25 122//25
f 78//80 110//80 109//80
f 92//72 124//72 123//72
f 79//42 111//42 110//42
f 66//29 98//29 97//29
f 93//73 125//73 124//73
f 80//45 112//45 111//45
f 67//32 99//32 98//32
f 94//33 126//33 125//33
f 81//81 113//81 112//81
f 131//1 130//1 129//1
f 129//63 160//63 159//63
f 159//1 158//1 157//1
f 157//1 156//1 159//1
f 156//1 155//1 159//1
f 155//1 154//1 153//1
f 153//1 152//1 155//1
f 152//1 151//1 155//1
f 151//63 150//63 149//63
f 149//1 148//1 147//1
f 147//1 146//1 143//1
f 146//1 145//1 143//1
f 145//63 144//63 143//63
f 143//1 142//1 139//1
f 142//1 141//1 139//1
f 141//1 140//1 139//1
f 139//1 138//1 137//1
f 137//1 136//1 135//1
f 135//1 134//1 131//1
f 134//1 133//1 131//1
f 133//63 132//63 131//63
f 131//1 129//1 155//1
f 129//1 159//1 155//1
f 151//1 149//1 155//1
f 149//1 147//1 155//1
f 139//1 137//1 135//1
f 147//1 143//1 139//1
f 139//1 135//1 147//1
f 135//1 131//1 147//1
f 161//75 162//75 163//75
f 163//2 164//2 161//2
f 164//2 165//2 161//2
f 165//2 166//2 167//2
f 167//2 168//2 169//2
f 169//2 170//2 173//2
f 170//2 171//2 173//2
f 171//2 172//2 173//2
f 173//2 174//2 175//2
f 175//2 176//2 173//2
f 176//2 177//2 173//2
f 177//2 178//2 181//2
f 178//2 179//2 181//2
f 179//65 180//65 181//65
f 181//2 182//2 183//2
f 183//2 184//2 181//2
f 184//2 185//2 181//2
f 185//2 186//2 187//2
f 187//2 188//2 189//2
f 189//2 190//2 191//2
f 191//2 192//2 161//2
f 165//2 167//2 161//2
f 167//2 169//2 161//2
f 185//2 187//2 161//2
f 187//2 189//2 161//2
f 189//2 191//2 161//2
f 169//2 173//2 161//2
f 173//2 177//2 161//2
f 177//2 181//2 161//2
f 132//35 164//35 163//35
f 159//4 191//4 190//4
f 146//76 178//76 177//76
f 133//6 165//6 164//6
f 160//7 192//7 191//7
f 147//68 179//68 178//68
f 134//9 166//9 165//9
f 160//10 129//10 161//10
f 148//11 180//11 179//11
f 135//12 167//12 166//12
f 149//37 181//37 180//37
f 136//38 168//38 167//38
f 150//15 182//15 181//15
f 137//39 169//39 168//39
f 151//82 183//82 182//82
f 138//18 170//18 169//18
f 152//52 184//52 183//52
f 139//20 171//20 170//20
f 153//78 185//78 184//78
f 140//22 172//22 171//22
f 154//23 186//23 185//23
f 141//24 173//24 172//24
f 155//25 187//25 186//25
f 142//26 174//26 173//26
f 156//72 188//72 187//72
f 143//28 175//28 174//28
f 129//43 130//43 162//43
f 157//73 189//73 188//73
f 144//45 176//45 175//45
f 131//46 163//46 162//46
f 158//83 190//83 189//83
f 145//34 177//34 176//34
f 194//55 196//55 195//55
f 196//84 200//84 199//84
f 199//62 200//62 198//62
f 198//58 194//58 193//58
f 199//59 197//59 193//59
f 200//60 196//60 194//60
f 202//55 204//55 203//55
f 204//84 208//84 207//84
f 207//62 208//62 206//62
f 205//85 206//85 202//85
f 203//59 207//59 205//59
f 208//60 204//60 202//60
