# Blender v2.79 (sub 7) OBJ File: 'Universe Gate.blend'
# www.blender.org
o 27_Circle.044
v -0.420443 -0.210090 3.736089
v -0.423680 -0.210090 3.736027
v -0.426868 -0.210090 3.736598
v -0.429883 -0.210090 3.737781
v -0.432610 -0.210090 3.739528
v -0.434943 -0.210090 3.741775
v -0.436793 -0.210090 3.744433
v -0.438089 -0.210090 3.747401
v -0.438781 -0.210090 3.750565
v -0.438842 -0.210090 3.753802
v -0.438271 -0.210090 3.756990
v -0.437088 -0.210090 3.760005
v -0.435341 -0.210090 3.762732
v -0.433095 -0.210090 3.765064
v -0.430436 -0.210090 3.766915
v -0.427468 -0.210090 3.768210
v -0.424305 -0.210090 3.768903
v -0.421067 -0.210090 3.768964
v -0.417879 -0.210090 3.768393
v -0.414864 -0.210090 3.767210
v -0.412138 -0.210090 3.765462
v -0.409805 -0.210090 3.763216
v -0.407955 -0.210090 3.760558
v -0.406659 -0.210090 3.757591
v -0.405967 -0.210090 3.754426
v -0.405905 -0.210090 3.751189
v -0.406477 -0.210090 3.748001
v -0.407659 -0.210090 3.744986
v -0.409407 -0.210090 3.742260
v -0.411653 -0.210090 3.739927
v -0.414311 -0.210090 3.738077
v -0.417279 -0.210090 3.736780
v -0.420443 -0.191107 3.736089
v -0.423680 -0.191107 3.736027
v -0.426868 -0.191107 3.736598
v -0.429883 -0.191107 3.737781
v -0.432610 -0.191107 3.739528
v -0.434943 -0.191107 3.741775
v -0.436793 -0.191107 3.744433
v -0.438089 -0.191107 3.747401
v -0.438781 -0.191107 3.750565
v -0.438842 -0.191107 3.753802
v -0.438271 -0.191107 3.756990
v -0.437088 -0.191107 3.760005
v -0.435341 -0.191107 3.762732
v -0.433095 -0.191107 3.765064
v -0.430436 -0.191107 3.766915
v -0.427468 -0.191107 3.768210
v -0.424305 -0.191107 3.768903
v -0.421067 -0.191107 3.768964
v -0.417879 -0.191107 3.768393
v -0.414864 -0.191107 3.767210
v -0.412138 -0.191107 3.765462
v -0.409805 -0.191107 3.763216
v -0.407955 -0.191107 3.760558
v -0.406659 -0.191107 3.757591
v -0.405967 -0.191107 3.754426
v -0.405905 -0.191107 3.751189
v -0.406477 -0.191107 3.748001
v -0.407659 -0.191107 3.744986
v -0.409407 -0.191107 3.742260
v -0.411653 -0.191107 3.739927
v -0.414311 -0.191107 3.738077
v -0.417279 -0.191107 3.736780
v -0.447454 -0.207402 3.877846
v -0.424773 -0.207402 3.864943
v -0.437748 -0.207402 3.794553
v -0.415027 -0.207402 3.789194
v -0.435659 -0.207402 3.804750
v -0.435973 -0.208353 3.810194
v -0.438905 -0.208117 3.818076
v -0.444570 -0.207584 3.831050
v -0.450047 -0.207402 3.845234
v -0.450633 -0.207402 3.856110
v -0.450063 -0.207402 3.868557
v -0.427381 -0.207402 3.855654
v -0.427682 -0.207402 3.850746
v -0.427675 -0.207402 3.841202
v -0.425634 -0.207189 3.835134
v -0.420405 -0.206312 3.825959
v -0.415235 -0.206854 3.815514
v -0.412868 -0.207402 3.802149
v -0.447501 -0.189817 3.877824
v -0.424820 -0.189817 3.864921
v -0.437795 -0.189817 3.794531
v -0.415074 -0.189817 3.789172
v -0.435706 -0.189817 3.804727
v -0.436021 -0.190769 3.810172
v -0.438952 -0.190532 3.818054
v -0.444617 -0.189999 3.831028
v -0.450094 -0.189817 3.845212
v -0.450680 -0.189817 3.856088
v -0.450110 -0.189817 3.868535
v -0.427428 -0.189817 3.855632
v -0.427729 -0.189817 3.850724
v -0.427722 -0.189817 3.841180
v -0.425682 -0.189605 3.835113
v -0.420452 -0.188728 3.825937
v -0.415283 -0.189269 3.815492
v -0.412915 -0.189817 3.802127
v -0.444989 -0.210090 3.941671
v -0.448227 -0.210090 3.941610
v -0.451414 -0.210090 3.942181
v -0.454429 -0.210090 3.943363
v -0.457156 -0.210090 3.945111
v -0.459489 -0.210090 3.947357
v -0.461339 -0.210090 3.950015
v -0.462635 -0.210090 3.952983
v -0.463327 -0.210090 3.956147
v -0.463388 -0.210090 3.959385
v -0.462817 -0.210090 3.962573
v -0.461635 -0.210090 3.965588
v -0.459887 -0.210090 3.968314
v -0.457641 -0.210090 3.970647
v -0.454983 -0.210090 3.972497
v -0.452015 -0.210090 3.973793
v -0.448851 -0.210090 3.974485
v -0.445613 -0.210090 3.974546
v -0.442425 -0.210090 3.973975
v -0.439410 -0.210090 3.972793
v -0.436684 -0.210090 3.971045
v -0.434351 -0.210090 3.968799
v -0.432501 -0.210090 3.966141
v -0.431205 -0.210090 3.963173
v -0.430513 -0.210090 3.960009
v -0.430451 -0.210090 3.956771
v -0.431023 -0.210090 3.953583
v -0.432205 -0.210090 3.950568
v -0.433953 -0.210090 3.947842
v -0.436199 -0.210090 3.945509
v -0.438857 -0.210090 3.943659
v -0.441825 -0.210090 3.942363
v -0.444989 -0.191107 3.941671
v -0.448227 -0.191107 3.941610
v -0.451414 -0.191107 3.942181
v -0.454429 -0.191107 3.943363
v -0.457156 -0.191107 3.945111
v -0.459489 -0.191107 3.947357
v -0.461339 -0.191107 3.950015
v -0.462635 -0.191107 3.952983
v -0.463327 -0.191107 3.956147
v -0.463388 -0.191107 3.959385
v -0.462817 -0.191107 3.962573
v -0.461635 -0.191107 3.965588
v -0.459887 -0.191107 3.968314
v -0.457641 -0.191107 3.970647
v -0.454983 -0.191107 3.972497
v -0.452015 -0.191107 3.973793
v -0.448851 -0.191107 3.974485
v -0.445613 -0.191107 3.974546
v -0.442425 -0.191107 3.973975
v -0.439410 -0.191107 3.972793
v -0.436684 -0.191107 3.971045
v -0.434351 -0.191107 3.968799
v -0.432501 -0.191107 3.966141
v -0.431205 -0.191107 3.963173
v -0.430513 -0.191107 3.960009
v -0.430451 -0.191107 3.956771
v -0.431023 -0.191107 3.953583
v -0.432205 -0.191107 3.950568
v -0.433953 -0.191107 3.947842
v -0.436199 -0.191107 3.945509
v -0.438857 -0.191107 3.943659
v -0.441825 -0.191107 3.942363
v -0.439105 -0.210090 3.896547
v -0.442343 -0.210090 3.896486
v -0.445530 -0.210090 3.897057
v -0.448545 -0.210090 3.898239
v -0.451272 -0.210090 3.899987
v -0.453605 -0.210090 3.902233
v -0.455455 -0.210090 3.904891
v -0.456751 -0.210090 3.907859
v -0.457443 -0.210090 3.911023
v -0.457504 -0.210090 3.914261
v -0.456933 -0.210090 3.917449
v -0.455751 -0.210090 3.920464
v -0.454003 -0.210090 3.923190
v -0.451757 -0.210090 3.925523
v -0.449099 -0.210090 3.927373
v -0.446131 -0.210090 3.928669
v -0.442967 -0.210090 3.929361
v -0.439729 -0.210090 3.929422
v -0.436541 -0.210090 3.928851
v -0.433526 -0.210090 3.927669
v -0.430800 -0.210090 3.925921
v -0.428467 -0.210090 3.923675
v -0.426617 -0.210090 3.921017
v -0.425321 -0.210090 3.918049
v -0.424629 -0.210090 3.914885
v -0.424567 -0.210090 3.911648
v -0.425139 -0.210090 3.908460
v -0.426321 -0.210090 3.905445
v -0.428069 -0.210090 3.902718
v -0.430315 -0.210090 3.900385
v -0.432973 -0.210090 3.898535
v -0.435941 -0.210090 3.897239
v -0.439105 -0.191107 3.896547
v -0.442343 -0.191107 3.896486
v -0.445530 -0.191107 3.897057
v -0.448545 -0.191107 3.898239
v -0.451272 -0.191107 3.899987
v -0.453605 -0.191107 3.902233
v -0.455455 -0.191107 3.904891
v -0.456751 -0.191107 3.907859
v -0.457443 -0.191107 3.911023
v -0.457504 -0.191107 3.914261
v -0.456933 -0.191107 3.917449
v -0.455751 -0.191107 3.920464
v -0.454003 -0.191107 3.923190
v -0.451757 -0.191107 3.925523
v -0.449099 -0.191107 3.927373
v -0.446131 -0.191107 3.928669
v -0.442967 -0.191107 3.929361
v -0.439729 -0.191107 3.929422
v -0.436541 -0.191107 3.928851
v -0.433526 -0.191107 3.927669
v -0.430800 -0.191107 3.925921
v -0.428467 -0.191107 3.923675
v -0.426617 -0.191107 3.921017
v -0.425321 -0.191107 3.918049
v -0.424629 -0.191107 3.914885
v -0.424567 -0.191107 3.911648
v -0.425139 -0.191107 3.908460
v -0.426321 -0.191107 3.905445
v -0.428069 -0.191107 3.902718
v -0.430315 -0.191107 3.900385
v -0.432973 -0.191107 3.898535
v -0.435941 -0.191107 3.897239
vn 0.0000 -1.0000 0.0000
vn 0.0000 1.0000 0.0000
vn -0.3650 0.0000 -0.9310
vn 0.5713 0.0000 -0.8207
vn -0.0191 0.0000 0.9998
vn -0.5398 0.0000 -0.8418
vn 0.4002 0.0000 -0.9164
vn 0.1762 0.0000 0.9843
vn -0.6936 0.0000 -0.7203
vn 0.2138 0.0000 -0.9769
vn 0.3653 0.0000 0.9309
vn -0.8207 0.0000 -0.5713
vn 0.5396 0.0000 0.8419
vn -0.9165 0.0000 -0.4001
vn 0.6935 0.0000 0.7205
vn -0.9769 0.0000 -0.2137
vn 0.8208 0.0000 0.5713
vn -0.9998 0.0000 -0.0190
vn 0.9165 0.0000 0.4001
vn -0.9843 0.0000 0.1764
vn 0.9769 0.0000 0.2137
vn -0.9310 0.0000 0.3651
vn 0.9998 0.0000 0.0190
vn -0.8419 0.0000 0.5397
vn 0.9843 0.0000 -0.1764
vn -0.7203 0.0000 0.6937
vn 0.9310 0.0000 -0.3650
vn -0.5715 0.0000 0.8206
vn 0.0189 0.0000 -0.9998
vn 0.8418 0.0000 -0.5397
vn -0.4002 0.0000 0.9164
vn -0.1765 0.0000 -0.9843
vn 0.7204 0.0000 -0.6936
vn -0.2138 0.0000 0.9769
vn 0.0025 -0.9999 0.0138
vn 0.0109 -0.9989 0.0458
vn 0.0728 -0.9957 0.0570
vn 0.1131 -0.9798 -0.1648
vn -0.0025 0.9999 -0.0138
vn -0.0109 0.9989 -0.0458
vn -0.0729 0.9957 -0.0570
vn -0.1131 0.9798 0.1648
vn -0.9329 -0.0029 -0.3602
vn 0.4945 0.0024 0.8692
vn 0.8963 0.0030 0.4435
vn -0.9985 -0.0027 -0.0538
vn 0.9864 0.0024 -0.1644
vn 0.9847 0.0029 0.1743
vn -0.9989 -0.0026 0.0458
vn -0.2296 -0.0018 -0.9733
vn 0.9628 0.0022 -0.2703
vn -0.9796 -0.0024 0.2007
vn 0.9981 0.0026 -0.0612
vn -0.9983 -0.0027 -0.0581
vn 1.0000 0.0027 0.0008
vn -0.9373 -0.0030 -0.3486
vn 0.9478 0.0029 0.3189
vn -0.9165 -0.0029 -0.4000
vn -0.9628 -0.0022 0.2703
vn 0.8687 0.0029 0.4953
vn -0.3648 0.0000 -0.9311
vn 0.5711 0.0000 -0.8209
vn -0.0189 0.0000 0.9998
vn 0.1762 0.0000 0.9844
vn -0.8208 0.0000 -0.5713
vn 0.5398 0.0000 0.8418
vn 0.6935 0.0000 0.7204
vn 0.9164 0.0000 0.4002
vn -0.7204 0.0000 0.6936
vn 0.9310 0.0000 -0.3651
vn -0.5711 0.0000 0.8209
vn 0.0191 0.0000 -0.9998
vn 0.8418 0.0000 -0.5398
vn 0.7205 0.0000 -0.6935
vn 0.1765 0.0000 0.9843
vn 0.2136 0.0000 -0.9769
vn 0.3648 0.0000 0.9311
vn -0.9164 0.0000 -0.4002
vn -0.5713 0.0000 0.8207
vn 0.8419 0.0000 -0.5397
vn -0.1767 0.0000 -0.9843
vn -0.2136 0.0000 0.9769
vn 0.0000 1.0000 -0.0001
vn 0.0000 1.0000 0.0001
vn -0.0187 0.0000 0.9998
vn -0.5396 0.0000 -0.8419
vn 0.4004 0.0000 -0.9163
vn 0.2135 0.0000 -0.9769
vn 0.3650 0.0000 0.9310
vn 0.9769 0.0000 0.2136
vn -0.9309 0.0000 0.3652
vn -0.8419 0.0000 0.5396
vn 0.9843 0.0000 -0.1765
vn 0.0264 -0.9993 -0.0261
vn 0.1105 -0.9934 -0.0320
vn 0.0521 -0.9956 0.0774
vn 0.0048 -0.9991 0.0418
vn -0.0264 0.9993 0.0261
vn -0.1105 0.9934 0.0320
vn -0.0521 0.9956 -0.0774
vn -0.0048 0.9991 -0.0418
vn -0.9329 -0.0030 -0.3602
vn 0.4944 0.0024 0.8692
vn -0.9989 -0.0026 0.0457
vn -0.9797 -0.0024 0.2007
vn -0.9983 -0.0028 -0.0581
vn 1.0000 0.0027 0.0007
vn -0.9373 -0.0029 -0.3486
vn -0.9165 -0.0030 -0.4000
vn -0.9628 -0.0022 0.2704
vn 0.8687 0.0030 0.4953
vn 0.0000 -1.0000 0.0001
vn 0.0000 -1.0000 -0.0001
vn 0.6936 0.0000 0.7203
vn -0.9769 0.0000 -0.2136
vn 0.8419 0.0000 -0.5396
vn -0.1762 0.0000 -0.9843
vn 0.7205 0.0000 -0.6934
vn -0.2135 0.0000 0.9769
s off
f 11//1 7//1 3//1
f 41//2 49//2 57//2
f 4//3 35//3 3//3
f 31//4 62//4 30//4
f 18//5 49//5 17//5
f 5//6 36//6 4//6
f 32//7 63//7 31//7
f 19//8 50//8 18//8
f 6//9 37//9 5//9
f 1//10 64//10 32//10
f 20//11 51//11 19//11
f 7//12 38//12 6//12
f 21//13 52//13 20//13
f 8//14 39//14 7//14
f 22//15 53//15 21//15
f 9//16 40//16 8//16
f 23//17 54//17 22//17
f 10//18 41//18 9//18
f 24//19 55//19 23//19
f 11//20 42//20 10//20
f 25//21 56//21 24//21
f 12//22 43//22 11//22
f 26//23 57//23 25//23
f 13//24 44//24 12//24
f 27//25 58//25 26//25
f 14//26 45//26 13//26
f 28//27 59//27 27//27
f 15//28 46//28 14//28
f 2//29 33//29 1//29
f 29//30 60//30 28//30
f 16//31 47//31 15//31
f 3//32 34//32 2//32
f 30//33 61//33 29//33
f 17//34 48//34 16//34
f 69//1 68//1 82//1
f 75//1 66//1 65//1
f 74//1 76//1 75//1
f 73//1 77//1 74//1
f 72//35 78//35 73//35
f 71//36 79//36 72//36
f 70//37 80//37 71//37
f 69//38 81//38 70//38
f 87//2 86//2 85//2
f 84//2 93//2 83//2
f 94//2 92//2 93//2
f 95//2 91//2 92//2
f 96//39 90//39 91//39
f 97//40 89//40 90//40
f 98//41 88//41 89//41
f 99//42 87//42 88//42
f 73//43 90//43 72//43
f 65//44 84//44 83//44
f 80//45 99//45 98//45
f 73//46 92//46 91//46
f 68//47 100//47 82//47
f 81//48 100//48 99//48
f 74//49 93//49 92//49
f 67//50 86//50 68//50
f 76//51 84//51 66//51
f 67//52 87//52 85//52
f 77//53 94//53 76//53
f 69//54 88//54 87//54
f 78//55 95//55 77//55
f 71//56 88//56 70//56
f 79//57 96//57 78//57
f 72//58 89//58 71//58
f 75//59 83//59 93//59
f 80//60 97//60 79//60
f 115//1 111//1 103//1
f 141//2 149//2 157//2
f 104//61 135//61 103//61
f 131//62 162//62 130//62
f 118//63 149//63 117//63
f 105//6 136//6 104//6
f 132//7 163//7 131//7
f 119//64 150//64 118//64
f 106//9 137//9 105//9
f 132//10 133//10 164//10
f 120//11 151//11 119//11
f 107//65 138//65 106//65
f 121//66 152//66 120//66
f 108//14 139//14 107//14
f 122//67 153//67 121//67
f 109//16 140//16 108//16
f 123//17 154//17 122//17
f 110//18 141//18 109//18
f 124//68 155//68 123//68
f 111//20 142//20 110//20
f 125//21 156//21 124//21
f 112//22 143//22 111//22
f 126//23 157//23 125//23
f 113//24 144//24 112//24
f 127//25 158//25 126//25
f 114//69 145//69 113//69
f 128//70 159//70 127//70
f 115//71 146//71 114//71
f 102//72 133//72 101//72
f 129//73 160//73 128//73
f 116//31 147//31 115//31
f 103//32 134//32 102//32
f 130//74 161//74 129//74
f 117//34 148//34 116//34
f 171//1 167//1 183//1
f 213//2 221//2 197//2
f 168//3 199//3 167//3
f 195//62 226//62 194//62
f 182//5 213//5 181//5
f 169//6 200//6 168//6
f 196//7 227//7 195//7
f 183//75 214//75 182//75
f 170//9 201//9 169//9
f 165//76 228//76 196//76
f 184//77 215//77 183//77
f 171//65 202//65 170//65
f 185//13 216//13 184//13
f 172//78 203//78 171//78
f 186//67 217//67 185//67
f 173//16 204//16 172//16
f 187//17 218//17 186//17
f 174//18 205//18 173//18
f 188//68 219//68 187//68
f 175//20 206//20 174//20
f 189//21 220//21 188//21
f 176//22 207//22 175//22
f 190//23 221//23 189//23
f 177//24 208//24 176//24
f 190//25 223//25 222//25
f 178//26 209//26 177//26
f 192//70 223//70 191//70
f 179//79 210//79 178//79
f 166//72 197//72 165//72
f 193//80 224//80 192//80
f 180//31 211//31 179//31
f 167//81 198//81 166//81
f 194//33 225//33 193//33
f 181//82 212//82 180//82
f 3//1 2//1 1//1
f 1//1 32//1 31//1
f 31//1 30//1 27//1
f 30//1 29//1 27//1
f 29//1 28//1 27//1
f 27//1 26//1 25//1
f 25//1 24//1 23//1
f 23//1 22//1 21//1
f 21//1 20//1 23//1
f 20//1 19//1 23//1
f 19//1 18//1 15//1
f 18//1 17//1 15//1
f 17//1 16//1 15//1
f 15//1 14//1 11//1
f 14//1 13//1 11//1
f 13//1 12//1 11//1
f 11//1 10//1 7//1
f 10//1 9//1 7//1
f 9//1 8//1 7//1
f 7//1 6//1 3//1
f 6//1 5//1 3//1
f 5//1 4//1 3//1
f 3//1 1//1 31//1
f 27//1 25//1 23//1
f 3//1 31//1 19//1
f 31//1 27//1 19//1
f 27//1 23//1 19//1
f 19//1 15//1 3//1
f 15//1 11//1 3//1
f 33//2 34//2 35//2
f 35//83 36//83 37//83
f 37//2 38//2 39//2
f 39//2 40//2 41//2
f 41//2 42//2 45//2
f 42//2 43//2 45//2
f 43//2 44//2 45//2
f 45//2 46//2 49//2
f 46//2 47//2 49//2
f 47//2 48//2 49//2
f 49//2 50//2 53//2
f 50//2 51//2 53//2
f 51//84 52//84 53//84
f 53//2 54//2 55//2
f 55//2 56//2 57//2
f 57//2 58//2 59//2
f 59//2 60//2 61//2
f 61//2 62//2 63//2
f 63//2 64//2 33//2
f 33//2 35//2 37//2
f 37//2 39//2 33//2
f 39//2 41//2 33//2
f 53//2 55//2 49//2
f 55//2 57//2 49//2
f 57//2 59//2 61//2
f 61//2 63//2 57//2
f 63//2 33//2 57//2
f 41//2 45//2 49//2
f 33//2 41//2 57//2
f 4//3 36//3 35//3
f 31//62 63//62 62//62
f 18//85 50//85 49//85
f 5//86 37//86 36//86
f 32//87 64//87 63//87
f 19//75 51//75 50//75
f 6//9 38//9 37//9
f 1//88 33//88 64//88
f 20//89 52//89 51//89
f 7//65 39//65 38//65
f 21//66 53//66 52//66
f 8//14 40//14 39//14
f 22//15 54//15 53//15
f 9//16 41//16 40//16
f 23//17 55//17 54//17
f 10//18 42//18 41//18
f 24//19 56//19 55//19
f 11//20 43//20 42//20
f 25//90 57//90 56//90
f 12//91 44//91 43//91
f 26//23 58//23 57//23
f 13//92 45//92 44//92
f 27//93 59//93 58//93
f 14//26 46//26 45//26
f 28//27 60//27 59//27
f 15//79 47//79 46//79
f 2//72 34//72 33//72
f 29//30 61//30 60//30
f 16//31 48//31 47//31
f 3//32 35//32 34//32
f 30//33 62//33 61//33
f 17//82 49//82 48//82
f 69//1 67//1 68//1
f 75//1 76//1 66//1
f 74//1 77//1 76//1
f 73//1 78//1 77//1
f 72//94 79//94 78//94
f 71//95 80//95 79//95
f 70//96 81//96 80//96
f 69//97 82//97 81//97
f 87//2 100//2 86//2
f 84//2 94//2 93//2
f 94//2 95//2 92//2
f 95//2 96//2 91//2
f 96//98 97//98 90//98
f 97//99 98//99 89//99
f 98//100 99//100 88//100
f 99//101 100//101 87//101
f 73//102 91//102 90//102
f 65//103 66//103 84//103
f 80//45 81//45 99//45
f 73//46 74//46 92//46
f 68//47 86//47 100//47
f 81//48 82//48 100//48
f 74//104 75//104 93//104
f 67//50 85//50 86//50
f 76//51 94//51 84//51
f 67//105 69//105 87//105
f 77//53 95//53 94//53
f 69//106 70//106 88//106
f 78//107 96//107 95//107
f 71//108 89//108 88//108
f 79//57 97//57 96//57
f 72//109 90//109 89//109
f 75//110 65//110 83//110
f 80//111 98//111 97//111
f 103//1 102//1 131//1
f 102//1 101//1 131//1
f 101//112 132//112 131//112
f 131//1 130//1 129//1
f 129//1 128//1 127//1
f 127//1 126//1 125//1
f 125//1 124//1 123//1
f 123//1 122//1 121//1
f 121//1 120//1 123//1
f 120//1 119//1 123//1
f 119//1 118//1 115//1
f 118//1 117//1 115//1
f 117//113 116//113 115//113
f 115//1 114//1 113//1
f 113//1 112//1 115//1
f 112//1 111//1 115//1
f 111//1 110//1 109//1
f 109//1 108//1 107//1
f 107//1 106//1 103//1
f 106//1 105//1 103//1
f 105//1 104//1 103//1
f 131//1 129//1 127//1
f 127//1 125//1 119//1
f 125//1 123//1 119//1
f 111//1 109//1 103//1
f 109//1 107//1 103//1
f 103//1 131//1 119//1
f 131//1 127//1 119//1
f 119//1 115//1 103//1
f 133//2 134//2 137//2
f 134//2 135//2 137//2
f 135//2 136//2 137//2
f 137//2 138//2 141//2
f 138//2 139//2 141//2
f 139//2 140//2 141//2
f 141//2 142//2 145//2
f 142//2 143//2 145//2
f 143//2 144//2 145//2
f 145//84 146//84 147//84
f 147//2 148//2 149//2
f 149//2 150//2 153//2
f 150//2 151//2 153//2
f 151//2 152//2 153//2
f 153//2 154//2 157//2
f 154//2 155//2 157//2
f 155//2 156//2 157//2
f 157//2 158//2 161//2
f 158//2 159//2 161//2
f 159//2 160//2 161//2
f 161//2 162//2 163//2
f 163//83 164//83 133//83
f 145//2 147//2 141//2
f 147//2 149//2 141//2
f 161//2 163//2 157//2
f 163//2 133//2 157//2
f 133//2 137//2 141//2
f 149//2 153//2 157//2
f 133//2 141//2 157//2
f 104//3 136//3 135//3
f 131//62 163//62 162//62
f 118//85 150//85 149//85
f 105//86 137//86 136//86
f 132//7 164//7 163//7
f 119//64 151//64 150//64
f 106//9 138//9 137//9
f 132//76 101//76 133//76
f 120//89 152//89 151//89
f 107//65 139//65 138//65
f 121//13 153//13 152//13
f 108//14 140//14 139//14
f 122//114 154//114 153//114
f 109//115 141//115 140//115
f 123//17 155//17 154//17
f 110//18 142//18 141//18
f 124//68 156//68 155//68
f 111//20 143//20 142//20
f 125//90 157//90 156//90
f 112//22 144//22 143//22
f 126//23 158//23 157//23
f 113//24 145//24 144//24
f 127//25 159//25 158//25
f 114//69 146//69 145//69
f 128//70 160//70 159//70
f 115//79 147//79 146//79
f 102//29 134//29 133//29
f 129//116 161//116 160//116
f 116//31 148//31 147//31
f 103//32 135//32 134//32
f 130//33 162//33 161//33
f 117//34 149//34 148//34
f 167//1 166//1 165//1
f 165//112 196//112 195//112
f 195//1 194//1 193//1
f 193//1 192//1 191//1
f 191//1 190//1 187//1
f 190//1 189//1 187//1
f 189//1 188//1 187//1
f 187//1 186//1 185//1
f 185//1 184//1 187//1
f 184//1 183//1 187//1
f 183//112 182//112 181//112
f 181//1 180//1 179//1
f 179//1 178//1 175//1
f 178//1 177//1 175//1
f 177//1 176//1 175//1
f 175//1 174//1 171//1
f 174//1 173//1 171//1
f 173//1 172//1 171//1
f 171//1 170//1 167//1
f 170//1 169//1 167//1
f 169//112 168//112 167//112
f 167//1 165//1 195//1
f 195//1 193//1 191//1
f 183//1 181//1 175//1
f 181//1 179//1 175//1
f 167//1 195//1 183//1
f 195//1 191//1 183//1
f 191//1 187//1 183//1
f 175//1 171//1 183//1
f 197//2 198//2 199//2
f 199//2 200//2 201//2
f 201//2 202//2 203//2
f 203//2 204//2 205//2
f 205//2 206//2 207//2
f 207//2 208//2 209//2
f 209//2 210//2 213//2
f 210//2 211//2 213//2
f 211//2 212//2 213//2
f 213//2 214//2 215//2
f 215//2 216//2 213//2
f 216//2 217//2 213//2
f 217//2 218//2 219//2
f 219//2 220//2 221//2
f 221//2 222//2 225//2
f 222//2 223//2 225//2
f 223//2 224//2 225//2
f 225//83 226//83 227//83
f 227//2 228//2 197//2
f 197//2 199//2 201//2
f 201//2 203//2 197//2
f 203//2 205//2 197//2
f 205//2 207//2 213//2
f 207//2 209//2 213//2
f 217//2 219//2 213//2
f 219//2 221//2 213//2
f 225//2 227//2 221//2
f 227//2 197//2 221//2
f 197//2 205//2 213//2
f 168//3 200//3 199//3
f 195//4 227//4 226//4
f 182//63 214//63 213//63
f 169//86 201//86 200//86
f 196//7 228//7 227//7
f 183//64 215//64 214//64
f 170//9 202//9 201//9
f 165//76 197//76 228//76
f 184//11 216//11 215//11
f 171//65 203//65 202//65
f 185//66 217//66 216//66
f 172//78 204//78 203//78
f 186//114 218//114 217//114
f 173//16 205//16 204//16
f 187//17 219//17 218//17
f 174//18 206//18 205//18
f 188//68 220//68 219//68
f 175//20 207//20 206//20
f 189//90 221//90 220//90
f 176//22 208//22 207//22
f 190//23 222//23 221//23
f 177//92 209//92 208//92
f 190//25 191//25 223//25
f 178//69 210//69 209//69
f 192//70 224//70 223//70
f 179//79 211//79 210//79
f 166//72 198//72 197//72
f 193//80 225//80 224//80
f 180//31 212//31 211//31
f 167//117 199//117 198//117
f 194//118 226//118 225//118
f 181//119 213//119 212//119
