# Blender v2.79 (sub 7) OBJ File: 'Universe Gate.blend'
# www.blender.org
o 28_Cube.036
v 0.092320 -0.221475 3.802545
v 0.092316 -0.194881 3.802416
v 0.091298 -0.221657 3.765106
v 0.091294 -0.195063 3.764977
v 0.110870 -0.221475 3.802038
v 0.110867 -0.194881 3.801909
v 0.109848 -0.221657 3.764599
v 0.109845 -0.195063 3.764470
v 0.097117 -0.221475 4.015778
v 0.097113 -0.194881 4.015648
v 0.096094 -0.221657 3.978339
v 0.096091 -0.195063 3.978210
v 0.115667 -0.221475 4.015271
v 0.115664 -0.194881 4.015142
v 0.114645 -0.221657 3.977832
v 0.114642 -0.195063 3.977703
v 0.102390 -0.213977 3.818265
v 0.099157 -0.213977 3.818673
v 0.096065 -0.213977 3.819704
v 0.093234 -0.213977 3.821318
v 0.090772 -0.213977 3.823453
v 0.088774 -0.213977 3.826028
v 0.087317 -0.213977 3.828943
v 0.086456 -0.213977 3.832087
v 0.086225 -0.213977 3.835337
v 0.086633 -0.213977 3.838571
v 0.087664 -0.213977 3.841662
v 0.089278 -0.213977 3.844493
v 0.091414 -0.213977 3.846955
v 0.093988 -0.213977 3.848953
v 0.096903 -0.213977 3.850411
v 0.100047 -0.213977 3.851271
v 0.103298 -0.213977 3.851502
v 0.106531 -0.213977 3.851094
v 0.109623 -0.213977 3.850063
v 0.112454 -0.213977 3.848449
v 0.114916 -0.213977 3.846313
v 0.116914 -0.213977 3.843739
v 0.118371 -0.213977 3.840824
v 0.119231 -0.213977 3.837681
v 0.119462 -0.213977 3.834430
v 0.119054 -0.213977 3.831196
v 0.118024 -0.213977 3.828104
v 0.116409 -0.213977 3.825274
v 0.114274 -0.213977 3.822811
v 0.111699 -0.213977 3.820813
v 0.108784 -0.213977 3.819356
v 0.105641 -0.213977 3.818496
v 0.102390 -0.194874 3.818264
v 0.099157 -0.194874 3.818673
v 0.096065 -0.194874 3.819704
v 0.093234 -0.194874 3.821318
v 0.090772 -0.194874 3.823453
v 0.088774 -0.194874 3.826028
v 0.087317 -0.194874 3.828943
v 0.086456 -0.194874 3.832086
v 0.086225 -0.194874 3.835337
v 0.086633 -0.194874 3.838570
v 0.087664 -0.194874 3.841662
v 0.089278 -0.194874 3.844494
v 0.091414 -0.194874 3.846955
v 0.093988 -0.194874 3.848953
v 0.096903 -0.194874 3.850410
v 0.100047 -0.194874 3.851271
v 0.103298 -0.194874 3.851502
v 0.106531 -0.194874 3.851094
v 0.109623 -0.194874 3.850063
v 0.112454 -0.194874 3.848449
v 0.114916 -0.194874 3.846313
v 0.116914 -0.194874 3.843739
v 0.118371 -0.194874 3.840823
v 0.119231 -0.194874 3.837680
v 0.119462 -0.194874 3.834430
v 0.119054 -0.194874 3.831196
v 0.118024 -0.194874 3.828104
v 0.116409 -0.194874 3.825273
v 0.114274 -0.194874 3.822812
v 0.111699 -0.194874 3.820813
v 0.108784 -0.194874 3.819356
v 0.105641 -0.194874 3.818496
v 0.104268 -0.213977 3.929754
v 0.101035 -0.213977 3.930162
v 0.097943 -0.213977 3.931193
v 0.095112 -0.213977 3.932807
v 0.092650 -0.213977 3.934943
v 0.090652 -0.213977 3.937517
v 0.089195 -0.213977 3.940433
v 0.088334 -0.213977 3.943576
v 0.088103 -0.213977 3.946827
v 0.088511 -0.213977 3.950060
v 0.089542 -0.213977 3.953152
v 0.091156 -0.213977 3.955983
v 0.093292 -0.213977 3.958444
v 0.095866 -0.213977 3.960443
v 0.098781 -0.213977 3.961900
v 0.101925 -0.213977 3.962760
v 0.105175 -0.213977 3.962991
v 0.108409 -0.213977 3.962583
v 0.111501 -0.213977 3.961553
v 0.114332 -0.213977 3.959939
v 0.116794 -0.213977 3.957803
v 0.118792 -0.213977 3.955228
v 0.120249 -0.213977 3.952313
v 0.121109 -0.213977 3.949170
v 0.121340 -0.213977 3.945919
v 0.120932 -0.213977 3.942685
v 0.119901 -0.213977 3.939594
v 0.118287 -0.213977 3.936763
v 0.116152 -0.213977 3.934301
v 0.113577 -0.213977 3.932303
v 0.110662 -0.213977 3.930845
v 0.107519 -0.213977 3.929985
v 0.104268 -0.194875 3.929754
v 0.101035 -0.194875 3.930162
v 0.097943 -0.194875 3.931193
v 0.095112 -0.194875 3.932807
v 0.092650 -0.194875 3.934943
v 0.090652 -0.194875 3.937517
v 0.089195 -0.194875 3.940433
v 0.088334 -0.194875 3.943575
v 0.088103 -0.194875 3.946826
v 0.088511 -0.194875 3.950060
v 0.089542 -0.194875 3.953152
v 0.091156 -0.194874 3.955983
v 0.093292 -0.194875 3.958445
v 0.095866 -0.194875 3.960443
v 0.098781 -0.194874 3.961899
v 0.101925 -0.194875 3.962760
v 0.105175 -0.194875 3.962991
v 0.108409 -0.194875 3.962583
v 0.111501 -0.194874 3.961552
v 0.114332 -0.194875 3.959939
v 0.116794 -0.194875 3.957803
v 0.118792 -0.194874 3.955228
v 0.120249 -0.194875 3.952313
v 0.121109 -0.194874 3.949169
v 0.121340 -0.194875 3.945919
v 0.120932 -0.194875 3.942685
v 0.119901 -0.194874 3.939594
v 0.118287 -0.194875 3.936763
v 0.116152 -0.194875 3.934301
v 0.113577 -0.194875 3.932303
v 0.110662 -0.194875 3.930846
v 0.107519 -0.194875 3.929985
v 0.096229 -0.213785 3.869801
v 0.091773 -0.213785 3.871709
v 0.087776 -0.213785 3.874450
v 0.084390 -0.213785 3.877919
v 0.081745 -0.213785 3.881982
v 0.079944 -0.213785 3.886482
v 0.079056 -0.213785 3.891247
v 0.079114 -0.213785 3.896094
v 0.080117 -0.213785 3.900836
v 0.082026 -0.213785 3.905292
v 0.084767 -0.213785 3.909289
v 0.088235 -0.213785 3.912676
v 0.092298 -0.213785 3.915320
v 0.096798 -0.213785 3.917121
v 0.101563 -0.213785 3.918009
v 0.106410 -0.213785 3.917951
v 0.111152 -0.213785 3.916949
v 0.115608 -0.213785 3.915040
v 0.119606 -0.213785 3.912298
v 0.122992 -0.213785 3.908830
v 0.125636 -0.213785 3.904768
v 0.127437 -0.213785 3.900267
v 0.128326 -0.213785 3.895502
v 0.128267 -0.213785 3.890655
v 0.127264 -0.213785 3.885913
v 0.125356 -0.213785 3.881457
v 0.122615 -0.213785 3.877460
v 0.119146 -0.213785 3.874073
v 0.115084 -0.213785 3.871429
v 0.110583 -0.213785 3.869628
v 0.105818 -0.213785 3.868740
v 0.100971 -0.213785 3.868798
v 0.100635 -0.213785 3.883720
v 0.098810 -0.213785 3.884502
v 0.097173 -0.213785 3.885624
v 0.095786 -0.213785 3.887045
v 0.094703 -0.213785 3.888709
v 0.093965 -0.213785 3.890552
v 0.093601 -0.213785 3.892503
v 0.093625 -0.213785 3.894488
v 0.094036 -0.213785 3.896431
v 0.094818 -0.213785 3.898255
v 0.095940 -0.213785 3.899893
v 0.097361 -0.213785 3.901280
v 0.099025 -0.213785 3.902363
v 0.100868 -0.213785 3.903100
v 0.102819 -0.213785 3.903464
v 0.104804 -0.213785 3.903440
v 0.106747 -0.213785 3.903029
v 0.108571 -0.213785 3.902247
v 0.110209 -0.213785 3.901125
v 0.111596 -0.213785 3.899704
v 0.112679 -0.213785 3.898041
v 0.113416 -0.213785 3.896197
v 0.113780 -0.213785 3.894246
v 0.113756 -0.213785 3.892261
v 0.113345 -0.213785 3.890319
v 0.112564 -0.213785 3.888494
v 0.111441 -0.213785 3.886856
v 0.110020 -0.213785 3.885469
v 0.108357 -0.213785 3.884387
v 0.106514 -0.213785 3.883649
v 0.104562 -0.213785 3.883285
v 0.102577 -0.213785 3.883309
v 0.096229 -0.195551 3.869801
v 0.091773 -0.195551 3.871709
v 0.087776 -0.195551 3.874450
v 0.084390 -0.195551 3.877919
v 0.081745 -0.195551 3.881982
v 0.079944 -0.195551 3.886482
v 0.079056 -0.195551 3.891247
v 0.079114 -0.195551 3.896094
v 0.080117 -0.195551 3.900836
v 0.082026 -0.195551 3.905292
v 0.084767 -0.195551 3.909289
v 0.088235 -0.195551 3.912676
v 0.092298 -0.195551 3.915320
v 0.096798 -0.195551 3.917121
v 0.101563 -0.195551 3.918009
v 0.106410 -0.195551 3.917951
v 0.111152 -0.195551 3.916948
v 0.115608 -0.195551 3.915040
v 0.119606 -0.195551 3.912298
v 0.122992 -0.195551 3.908830
v 0.125636 -0.195551 3.904767
v 0.127437 -0.195551 3.900267
v 0.128326 -0.195551 3.895502
v 0.128267 -0.195551 3.890655
v 0.127264 -0.195551 3.885913
v 0.125356 -0.195551 3.881457
v 0.122615 -0.195551 3.877460
v 0.119146 -0.195551 3.874074
v 0.115084 -0.195551 3.871429
v 0.110583 -0.195551 3.869628
v 0.105818 -0.195551 3.868740
v 0.100971 -0.195551 3.868798
v 0.100635 -0.195551 3.883720
v 0.098810 -0.195551 3.884501
v 0.097173 -0.195551 3.885624
v 0.095786 -0.195551 3.887045
v 0.094703 -0.195551 3.888709
v 0.093965 -0.195551 3.890552
v 0.093601 -0.195551 3.892503
v 0.093625 -0.195551 3.894488
v 0.094036 -0.195551 3.896430
v 0.094818 -0.195551 3.898256
v 0.095940 -0.195551 3.899893
v 0.097361 -0.195551 3.901279
v 0.099025 -0.195551 3.902362
v 0.100868 -0.195551 3.903100
v 0.102819 -0.195551 3.903464
v 0.104804 -0.195551 3.903440
v 0.106747 -0.195551 3.903029
v 0.108571 -0.195551 3.902247
v 0.110209 -0.195551 3.901125
v 0.111596 -0.195551 3.899705
v 0.112679 -0.195551 3.898041
v 0.113416 -0.195551 3.896197
v 0.113780 -0.195551 3.894246
v 0.113756 -0.195551 3.892261
v 0.113345 -0.195551 3.890318
v 0.112564 -0.195551 3.888494
v 0.111441 -0.195551 3.886857
v 0.110020 -0.195551 3.885470
v 0.108357 -0.195551 3.884387
v 0.106514 -0.195551 3.883649
v 0.104562 -0.195551 3.883285
v 0.102577 -0.195551 3.883309
vn -0.9996 -0.0000 0.0273
vn -0.0273 -0.0049 -0.9996
vn 0.9996 0.0000 -0.0273
vn 0.0273 0.0049 0.9996
vn 0.0001 -1.0000 0.0049
vn -0.0001 1.0000 -0.0049
vn 0.0274 0.0049 0.9996
vn 0.0000 -1.0000 -0.0000
vn 0.0000 1.0000 0.0000
vn -0.4954 0.0000 -0.8687
vn 0.4471 0.0000 -0.8945
vn 0.1252 -0.0000 0.9921
vn -0.6552 0.0000 -0.7555
vn 0.2642 0.0000 -0.9645
vn 0.3162 0.0000 0.9487
vn -0.7901 0.0000 -0.6130
vn 0.0708 0.0000 -0.9975
vn 0.4952 0.0000 0.8688
vn -0.8945 -0.0000 -0.4472
vn 0.6552 0.0000 0.7555
vn -0.9645 -0.0000 -0.2641
vn 0.7901 -0.0000 0.6129
vn -0.9975 -0.0000 -0.0708
vn 0.8945 0.0000 0.4471
vn -0.9921 0.0000 0.1251
vn 0.9645 0.0000 0.2641
vn -0.9486 0.0000 0.3164
vn 0.9975 0.0000 0.0708
vn -0.8688 0.0000 0.4952
vn 0.9921 0.0000 -0.1251
vn -0.7554 -0.0000 0.6553
vn 0.9487 0.0000 -0.3163
vn -0.6132 -0.0000 0.7900
vn 0.8688 -0.0000 -0.4952
vn -0.4471 0.0000 0.8945
vn -0.1252 -0.0000 -0.9921
vn 0.7554 -0.0000 -0.6553
vn -0.2640 0.0000 0.9645
vn -0.3164 0.0000 -0.9486
vn 0.6132 0.0000 -0.7900
vn -0.0706 0.0000 0.9975
vn -0.4952 0.0000 -0.8688
vn -0.6553 0.0000 -0.7554
vn 0.2640 0.0000 -0.9645
vn 0.4954 0.0000 0.8687
vn -0.8945 0.0000 -0.4471
vn 0.6553 0.0000 0.7554
vn 0.7901 -0.0000 0.6130
vn 0.8944 -0.0000 0.4472
vn -0.9487 0.0000 0.3163
vn -0.8687 0.0000 0.4953
vn -0.6130 -0.0000 0.7901
vn -0.4469 0.0000 0.8946
vn -0.3162 0.0000 -0.9487
vn 0.6130 -0.0000 -0.7901
vn -0.0708 0.0000 0.9975
vn 0.1833 -0.0000 -0.9831
vn -0.8381 -0.0000 -0.5455
vn -0.9192 -0.0000 0.3938
vn -0.0121 -0.0000 -0.9999
vn -0.9284 0.0000 -0.3716
vn -0.8248 -0.0000 0.5654
vn -0.2067 0.0000 -0.9784
vn -0.9831 0.0000 -0.1833
vn -0.6986 -0.0000 0.7155
vn 0.3936 0.0000 0.9193
vn -0.9999 0.0000 0.0120
vn -0.5455 -0.0000 0.8381
vn 0.5655 0.0000 0.8248
vn -0.9784 0.0000 0.2069
vn -0.3714 0.0000 0.9285
vn 0.7157 -0.0000 0.6984
vn -0.9192 0.0000 0.3937
vn -0.1832 0.0000 0.9831
vn 0.8380 -0.0000 0.5457
vn -0.8247 0.0000 0.5656
vn 0.0117 0.0000 0.9999
vn 0.9285 0.0000 0.3714
vn 0.2067 0.0000 0.9784
vn 0.9831 0.0000 0.1833
vn -0.5456 0.0000 0.8381
vn 0.9999 0.0000 -0.0120
vn -0.3716 0.0000 0.9284
vn 0.9784 -0.0000 -0.2068
vn -0.1833 0.0000 0.9831
vn 0.9192 0.0000 -0.3939
vn 0.0120 0.0000 0.9999
vn 0.8248 0.0000 -0.5654
vn 0.2069 0.0000 0.9784
vn 0.6986 -0.0000 -0.7155
vn 0.3938 0.0000 0.9192
vn 0.5455 -0.0000 -0.8381
vn 0.3714 -0.0000 -0.9285
vn 0.7156 -0.0000 0.6985
vn 0.1836 -0.0000 -0.9830
vn 0.8381 0.0000 0.5456
vn -0.0119 0.0000 -0.9999
vn 0.9284 0.0000 0.3715
vn -0.2071 0.0000 -0.9783
vn -0.3936 0.0000 -0.9193
vn -0.5656 0.0000 -0.8247
vn 0.9784 -0.0000 -0.2069
vn -0.7157 0.0000 -0.6984
vn 0.9192 0.0000 -0.3938
vn -0.8380 0.0000 -0.5457
vn 0.8247 0.0000 -0.5656
vn -0.9285 0.0000 -0.3714
vn -0.3937 0.0000 -0.9192
vn -0.9830 0.0000 -0.1834
vn 0.3716 -0.0000 -0.9284
vn -0.7156 0.0000 -0.6985
vn -0.9784 -0.0000 0.2068
vn 0.0272 0.0049 0.9996
vn 0.3164 0.0000 0.9486
vn -0.9645 -0.0000 -0.2640
vn 0.7900 0.0000 0.6131
vn -0.7553 -0.0000 0.6554
vn 0.8687 -0.0000 -0.4953
vn -0.4473 0.0000 0.8944
vn 0.7553 0.0000 -0.6554
vn -0.0711 0.0000 0.9975
vn -0.7900 0.0000 -0.6131
vn 0.4951 0.0000 0.8688
vn 0.9645 0.0000 0.2640
vn -0.9487 0.0000 0.3162
vn -0.7555 -0.0000 0.6551
vn 0.9486 0.0000 -0.3163
vn -0.9192 0.0000 0.3939
vn -0.0120 0.0000 -0.9999
vn -0.9284 -0.0000 -0.3715
vn -0.2069 0.0000 -0.9784
vn -0.6984 -0.0000 0.7157
vn 0.3939 0.0000 0.9191
vn -0.5458 0.0000 0.8379
vn 0.5659 -0.0000 0.8245
vn -0.3721 0.0000 0.9282
vn 0.7153 -0.0000 0.6988
vn -0.1829 0.0000 0.9831
vn 0.8381 0.0000 0.5455
vn 0.0119 0.0000 0.9999
vn 0.9284 0.0000 0.3716
vn 0.2071 0.0000 0.9783
vn 0.9830 0.0000 0.1834
vn -0.5453 -0.0000 0.8382
vn -0.3717 0.0000 0.9283
vn -0.1831 0.0000 0.9831
vn 0.2070 0.0000 0.9783
vn 0.5656 0.0000 0.8247
vn 0.7155 0.0000 0.6986
vn 0.1832 0.0000 -0.9831
vn 0.9831 0.0000 0.1832
vn -0.3939 0.0000 -0.9191
vn -0.5653 0.0000 -0.8249
vn -0.7155 0.0000 -0.6986
vn 0.8247 -0.0000 -0.5655
vn 0.6984 0.0000 -0.7157
vn -0.3938 0.0000 -0.9192
vn 0.5457 -0.0000 -0.8380
vn -0.5655 0.0000 -0.8248
vn 0.3715 0.0000 -0.9284
s off
f 1//1 4//1 3//1
f 3//2 8//2 7//2
f 8//3 5//3 7//3
f 6//4 1//4 5//4
f 7//5 1//5 3//5
f 8//6 2//6 6//6
f 9//1 12//1 11//1
f 11//2 16//2 15//2
f 16//3 13//3 15//3
f 14//7 9//7 13//7
f 15//5 9//5 11//5
f 16//6 10//6 14//6
f 21//8 20//8 29//8
f 80//9 49//9 65//9
f 20//10 51//10 19//10
f 46//11 79//11 78//11
f 34//12 65//12 33//12
f 21//13 52//13 20//13
f 47//14 80//14 79//14
f 35//15 66//15 34//15
f 21//16 54//16 53//16
f 17//17 80//17 48//17
f 36//18 67//18 35//18
f 22//19 55//19 54//19
f 36//20 69//20 68//20
f 23//21 56//21 55//21
f 37//22 70//22 69//22
f 24//23 57//23 56//23
f 39//24 70//24 38//24
f 25//25 58//25 57//25
f 40//26 71//26 39//26
f 26//27 59//27 58//27
f 41//28 72//28 40//28
f 28//29 59//29 27//29
f 41//30 74//30 73//30
f 28//31 61//31 60//31
f 43//32 74//32 42//32
f 30//33 61//33 29//33
f 44//34 75//34 43//34
f 30//35 63//35 62//35
f 17//36 50//36 49//36
f 45//37 76//37 44//37
f 31//38 64//38 63//38
f 19//39 50//39 18//39
f 45//40 78//40 77//40
f 32//41 65//41 64//41
f 85//8 84//8 93//8
f 144//9 113//9 129//9
f 84//42 115//42 83//42
f 110//11 143//11 142//11
f 98//12 129//12 97//12
f 85//43 116//43 84//43
f 112//44 143//44 111//44
f 99//15 130//15 98//15
f 86//16 117//16 85//16
f 81//17 144//17 112//17
f 100//45 131//45 99//45
f 87//46 118//46 86//46
f 100//47 133//47 132//47
f 87//21 120//21 119//21
f 101//48 134//48 133//48
f 88//23 121//23 120//23
f 102//49 135//49 134//49
f 89//25 122//25 121//25
f 104//26 135//26 103//26
f 90//50 123//50 122//50
f 105//28 136//28 104//28
f 92//51 123//51 91//51
f 106//30 137//30 105//30
f 93//31 124//31 92//31
f 107//32 138//32 106//32
f 94//52 125//52 93//52
f 107//34 140//34 139//34
f 94//53 127//53 126//53
f 81//36 114//36 113//36
f 109//37 140//37 108//37
f 95//38 128//38 127//38
f 82//54 115//54 114//54
f 110//55 141//55 109//55
f 97//56 128//56 96//56
f 163//8 196//8 164//8
f 150//8 183//8 151//8
f 164//8 197//8 165//8
f 152//8 183//8 184//8
f 165//8 198//8 166//8
f 153//8 184//8 185//8
f 166//8 199//8 167//8
f 154//8 185//8 186//8
f 168//8 199//8 200//8
f 155//8 186//8 187//8
f 169//8 200//8 201//8
f 156//8 187//8 188//8
f 170//8 201//8 202//8
f 157//8 188//8 189//8
f 171//8 202//8 203//8
f 158//8 189//8 190//8
f 172//8 203//8 204//8
f 159//8 190//8 191//8
f 145//8 178//8 146//8
f 173//8 204//8 205//8
f 159//8 192//8 160//8
f 146//8 179//8 147//8
f 174//8 205//8 206//8
f 160//8 193//8 161//8
f 147//8 180//8 148//8
f 175//8 206//8 207//8
f 161//8 194//8 162//8
f 148//8 181//8 149//8
f 175//8 208//8 176//8
f 162//8 195//8 163//8
f 149//8 182//8 150//8
f 176//8 177//8 145//8
f 260//9 227//9 228//9
f 247//9 214//9 215//9
f 261//9 228//9 229//9
f 216//9 247//9 215//9
f 262//9 229//9 230//9
f 217//9 248//9 216//9
f 263//9 230//9 231//9
f 218//9 249//9 217//9
f 232//9 263//9 231//9
f 219//9 250//9 218//9
f 233//9 264//9 232//9
f 220//9 251//9 219//9
f 234//9 265//9 233//9
f 221//9 252//9 220//9
f 235//9 266//9 234//9
f 222//9 253//9 221//9
f 236//9 267//9 235//9
f 223//9 254//9 222//9
f 242//9 209//9 210//9
f 237//9 268//9 236//9
f 256//9 223//9 224//9
f 243//9 210//9 211//9
f 238//9 269//9 237//9
f 257//9 224//9 225//9
f 244//9 211//9 212//9
f 239//9 270//9 238//9
f 258//9 225//9 226//9
f 245//9 212//9 213//9
f 272//9 239//9 240//9
f 259//9 226//9 227//9
f 246//9 213//9 214//9
f 241//9 240//9 209//9
f 239//57 174//57 175//57
f 213//58 148//58 149//58
f 201//59 266//59 202//59
f 176//60 239//60 175//60
f 214//61 149//61 150//61
f 202//62 267//62 203//62
f 209//63 176//63 145//63
f 215//64 150//64 151//64
f 203//65 268//65 204//65
f 177//66 242//66 178//66
f 216//67 151//67 152//67
f 268//68 205//68 204//68
f 242//69 179//69 178//69
f 217//70 152//70 153//70
f 269//71 206//71 205//71
f 179//72 244//72 180//72
f 154//73 217//73 153//73
f 206//74 271//74 207//74
f 244//75 181//75 180//75
f 219//76 154//76 155//76
f 271//77 208//77 207//77
f 245//78 182//78 181//78
f 220//65 155//65 156//65
f 208//79 241//79 177//79
f 246//80 183//80 182//80
f 221//81 156//81 157//81
f 247//82 184//82 183//82
f 222//83 157//83 158//83
f 184//84 249//84 185//84
f 159//85 222//85 158//85
f 185//86 250//86 186//86
f 224//87 159//87 160//87
f 250//88 187//88 186//88
f 161//89 224//89 160//89
f 187//90 252//90 188//90
f 226//91 161//91 162//91
f 188//92 253//92 189//92
f 163//69 226//69 162//69
f 189//93 254//93 190//93
f 228//94 163//94 164//94
f 254//95 191//95 190//95
f 229//96 164//96 165//96
f 255//97 192//97 191//97
f 230//98 165//98 166//98
f 256//99 193//99 192//99
f 167//80 230//80 166//80
f 257//100 194//100 193//100
f 168//82 231//82 167//82
f 258//101 195//101 194//101
f 169//102 232//102 168//102
f 195//103 260//103 196//103
f 234//104 169//104 170//104
f 196//105 261//105 197//105
f 171//106 234//106 170//106
f 197//107 262//107 198//107
f 172//90 235//90 171//90
f 210//108 145//108 146//108
f 262//109 199//109 198//109
f 173//92 236//92 172//92
f 211//101 146//101 147//101
f 263//67 200//67 199//67
f 174//110 237//110 173//110
f 212//111 147//111 148//111
f 264//112 201//112 200//112
f 1//1 2//1 4//1
f 3//2 4//2 8//2
f 8//3 6//3 5//3
f 6//4 2//4 1//4
f 7//5 5//5 1//5
f 8//6 4//6 2//6
f 9//1 10//1 12//1
f 11//2 12//2 16//2
f 16//3 14//3 13//3
f 14//113 10//113 9//113
f 15//5 13//5 9//5
f 16//6 12//6 10//6
f 19//8 18//8 31//8
f 18//8 17//8 32//8
f 32//8 17//8 33//8
f 17//8 48//8 33//8
f 48//8 47//8 34//8
f 34//8 47//8 35//8
f 47//8 46//8 35//8
f 46//8 45//8 36//8
f 35//8 46//8 36//8
f 45//8 44//8 37//8
f 44//8 43//8 38//8
f 37//8 44//8 38//8
f 43//8 42//8 39//8
f 42//8 41//8 40//8
f 39//8 42//8 40//8
f 39//8 38//8 43//8
f 37//8 36//8 45//8
f 34//8 33//8 48//8
f 32//8 31//8 18//8
f 31//8 30//8 19//8
f 30//8 29//8 20//8
f 19//8 30//8 20//8
f 29//8 28//8 21//8
f 28//8 27//8 22//8
f 21//8 28//8 22//8
f 27//8 26//8 23//8
f 26//8 25//8 24//8
f 23//8 26//8 24//8
f 23//8 22//8 27//8
f 49//9 50//9 64//9
f 50//9 51//9 63//9
f 51//9 52//9 62//9
f 52//9 53//9 61//9
f 53//9 54//9 60//9
f 54//9 55//9 59//9
f 55//9 56//9 58//9
f 56//9 57//9 58//9
f 58//9 59//9 55//9
f 59//9 60//9 54//9
f 60//9 61//9 53//9
f 61//9 62//9 52//9
f 62//9 63//9 51//9
f 63//9 64//9 50//9
f 64//9 65//9 49//9
f 65//9 66//9 80//9
f 66//9 67//9 79//9
f 67//9 68//9 78//9
f 68//9 69//9 77//9
f 69//9 70//9 76//9
f 70//9 71//9 75//9
f 71//9 72//9 74//9
f 72//9 73//9 74//9
f 74//9 75//9 71//9
f 75//9 76//9 70//9
f 76//9 77//9 69//9
f 77//9 78//9 68//9
f 78//9 79//9 67//9
f 79//9 80//9 66//9
f 20//42 52//42 51//42
f 46//11 47//11 79//11
f 34//12 66//12 65//12
f 21//13 53//13 52//13
f 47//44 48//44 80//44
f 35//114 67//114 66//114
f 21//16 22//16 54//16
f 17//17 49//17 80//17
f 36//45 68//45 67//45
f 22//46 23//46 55//46
f 36//20 37//20 69//20
f 23//115 24//115 56//115
f 37//116 38//116 70//116
f 24//23 25//23 57//23
f 39//24 71//24 70//24
f 25//25 26//25 58//25
f 40//26 72//26 71//26
f 26//50 27//50 59//50
f 41//28 73//28 72//28
f 28//29 60//29 59//29
f 41//30 42//30 74//30
f 28//117 29//117 61//117
f 43//32 75//32 74//32
f 30//52 62//52 61//52
f 44//118 76//118 75//118
f 30//119 31//119 63//119
f 17//36 18//36 50//36
f 45//120 77//120 76//120
f 31//38 32//38 64//38
f 19//54 51//54 50//54
f 45//55 46//55 78//55
f 32//121 33//121 65//121
f 83//8 82//8 95//8
f 82//8 81//8 96//8
f 96//8 81//8 97//8
f 81//8 112//8 97//8
f 112//8 111//8 98//8
f 98//8 111//8 99//8
f 111//8 110//8 99//8
f 110//8 109//8 100//8
f 99//8 110//8 100//8
f 109//8 108//8 101//8
f 108//8 107//8 102//8
f 101//8 108//8 102//8
f 107//8 106//8 103//8
f 106//8 105//8 104//8
f 103//8 106//8 104//8
f 103//8 102//8 107//8
f 101//8 100//8 109//8
f 98//8 97//8 112//8
f 96//8 95//8 82//8
f 95//8 94//8 83//8
f 94//8 93//8 84//8
f 83//8 94//8 84//8
f 93//8 92//8 85//8
f 92//8 91//8 86//8
f 85//8 92//8 86//8
f 91//8 90//8 87//8
f 90//8 89//8 88//8
f 87//8 90//8 88//8
f 87//8 86//8 91//8
f 113//9 114//9 128//9
f 114//9 115//9 127//9
f 115//9 116//9 126//9
f 116//9 117//9 125//9
f 117//9 118//9 124//9
f 118//9 119//9 123//9
f 119//9 120//9 122//9
f 120//9 121//9 122//9
f 122//9 123//9 119//9
f 123//9 124//9 118//9
f 124//9 125//9 117//9
f 125//9 126//9 116//9
f 126//9 127//9 115//9
f 127//9 128//9 114//9
f 128//9 129//9 113//9
f 129//9 130//9 144//9
f 130//9 131//9 143//9
f 131//9 132//9 142//9
f 132//9 133//9 141//9
f 133//9 134//9 140//9
f 134//9 135//9 139//9
f 135//9 136//9 138//9
f 136//9 137//9 138//9
f 138//9 139//9 135//9
f 139//9 140//9 134//9
f 140//9 141//9 133//9
f 141//9 142//9 132//9
f 142//9 143//9 131//9
f 143//9 144//9 130//9
f 84//10 116//10 115//10
f 110//11 111//11 143//11
f 98//12 130//12 129//12
f 85//43 117//43 116//43
f 112//44 144//44 143//44
f 99//15 131//15 130//15
f 86//122 118//122 117//122
f 81//17 113//17 144//17
f 100//123 132//123 131//123
f 87//46 119//46 118//46
f 100//47 101//47 133//47
f 87//21 88//21 120//21
f 101//48 102//48 134//48
f 88//23 89//23 121//23
f 102//24 103//24 135//24
f 89//25 90//25 122//25
f 104//124 136//124 135//124
f 90//125 91//125 123//125
f 105//28 137//28 136//28
f 92//51 124//51 123//51
f 106//30 138//30 137//30
f 93//126 125//126 124//126
f 107//127 139//127 138//127
f 94//52 126//52 125//52
f 107//118 108//118 140//118
f 94//119 95//119 127//119
f 81//36 82//36 114//36
f 109//37 141//37 140//37
f 95//38 96//38 128//38
f 82//54 83//54 115//54
f 110//40 142//40 141//40
f 97//56 129//56 128//56
f 163//8 195//8 196//8
f 150//8 182//8 183//8
f 164//8 196//8 197//8
f 152//8 151//8 183//8
f 165//8 197//8 198//8
f 153//8 152//8 184//8
f 166//8 198//8 199//8
f 154//8 153//8 185//8
f 168//8 167//8 199//8
f 155//8 154//8 186//8
f 169//8 168//8 200//8
f 156//8 155//8 187//8
f 170//8 169//8 201//8
f 157//8 156//8 188//8
f 171//8 170//8 202//8
f 158//8 157//8 189//8
f 172//8 171//8 203//8
f 159//8 158//8 190//8
f 145//8 177//8 178//8
f 173//8 172//8 204//8
f 159//8 191//8 192//8
f 146//8 178//8 179//8
f 174//8 173//8 205//8
f 160//8 192//8 193//8
f 147//8 179//8 180//8
f 175//8 174//8 206//8
f 161//8 193//8 194//8
f 148//8 180//8 181//8
f 175//8 207//8 208//8
f 162//8 194//8 195//8
f 149//8 181//8 182//8
f 176//8 208//8 177//8
f 260//9 259//9 227//9
f 247//9 246//9 214//9
f 261//9 260//9 228//9
f 216//9 248//9 247//9
f 262//9 261//9 229//9
f 217//9 249//9 248//9
f 263//9 262//9 230//9
f 218//9 250//9 249//9
f 232//9 264//9 263//9
f 219//9 251//9 250//9
f 233//9 265//9 264//9
f 220//9 252//9 251//9
f 234//9 266//9 265//9
f 221//9 253//9 252//9
f 235//9 267//9 266//9
f 222//9 254//9 253//9
f 236//9 268//9 267//9
f 223//9 255//9 254//9
f 242//9 241//9 209//9
f 237//9 269//9 268//9
f 256//9 255//9 223//9
f 243//9 242//9 210//9
f 238//9 270//9 269//9
f 257//9 256//9 224//9
f 244//9 243//9 211//9
f 239//9 271//9 270//9
f 258//9 257//9 225//9
f 245//9 244//9 212//9
f 272//9 271//9 239//9
f 259//9 258//9 226//9
f 246//9 245//9 213//9
f 241//9 272//9 240//9
f 239//57 238//57 174//57
f 213//58 212//58 148//58
f 201//128 265//128 266//128
f 176//129 240//129 239//129
f 214//130 213//130 149//130
f 202//76 266//76 267//76
f 209//131 240//131 176//131
f 215//64 214//64 150//64
f 203//132 267//132 268//132
f 177//133 241//133 242//133
f 216//67 215//67 151//67
f 268//134 269//134 205//134
f 242//135 243//135 179//135
f 217//112 216//112 152//112
f 269//136 270//136 206//136
f 179//137 243//137 244//137
f 154//59 218//59 217//59
f 206//138 270//138 271//138
f 244//139 245//139 181//139
f 219//76 218//76 154//76
f 271//140 272//140 208//140
f 245//141 246//141 182//141
f 220//65 219//65 155//65
f 208//142 272//142 241//142
f 246//143 247//143 183//143
f 221//144 220//144 156//144
f 247//82 248//82 184//82
f 222//145 221//145 157//145
f 184//84 248//84 249//84
f 159//146 223//146 222//146
f 185//104 249//104 250//104
f 224//87 223//87 159//87
f 250//106 251//106 187//106
f 161//147 225//147 224//147
f 187//90 251//90 252//90
f 226//66 225//66 161//66
f 188//92 252//92 253//92
f 163//148 227//148 226//148
f 189//110 253//110 254//110
f 228//149 227//149 163//149
f 254//150 255//150 191//150
f 229//139 228//139 164//139
f 255//97 256//97 192//97
f 230//141 229//141 165//141
f 256//99 257//99 193//99
f 167//151 231//151 230//151
f 257//152 258//152 194//152
f 168//82 232//82 231//82
f 258//153 259//153 195//153
f 169//102 233//102 232//102
f 195//154 259//154 260//154
f 234//104 233//104 169//104
f 196//58 260//58 261//58
f 171//155 235//155 234//155
f 197//107 261//107 262//107
f 172//156 236//156 235//156
f 210//157 209//157 145//157
f 262//64 263//64 199//64
f 173//158 237//158 236//158
f 211//159 210//159 146//159
f 263//67 264//67 200//67
f 174//160 238//160 237//160
f 212//154 211//154 147//154
f 264//112 265//112 201//112
