# Blender v2.79 (sub 7) OBJ File: 'Universe Gate.blend'
# www.blender.org
o 30_Cube.020
v 1.643284 -0.220133 3.458415
v 1.643219 -0.188993 3.458279
v 1.615850 -0.220441 3.401064
v 1.615784 -0.189301 3.400928
v 1.662886 -0.220133 3.449038
v 1.662821 -0.188993 3.448902
v 1.635452 -0.220441 3.391687
v 1.635387 -0.189301 3.391551
v 1.712985 -0.220133 3.609134
v 1.712920 -0.188993 3.608998
v 1.685551 -0.220441 3.551783
v 1.685486 -0.189301 3.551646
v 1.732588 -0.220133 3.599757
v 1.732522 -0.188993 3.599621
v 1.705154 -0.220441 3.542406
v 1.705088 -0.189301 3.542269
v 1.656256 -0.209869 3.481045
v 1.652962 -0.209869 3.484601
v 1.650425 -0.209869 3.488732
v 1.648743 -0.209869 3.493278
v 1.647979 -0.209869 3.498064
v 1.648164 -0.209869 3.502908
v 1.649291 -0.209869 3.507623
v 1.651316 -0.209869 3.512027
v 1.654161 -0.209869 3.515951
v 1.657717 -0.209869 3.519245
v 1.661847 -0.209869 3.521783
v 1.666393 -0.209869 3.523465
v 1.671180 -0.209869 3.524228
v 1.676023 -0.209869 3.524043
v 1.680738 -0.209869 3.522917
v 1.685142 -0.209869 3.520892
v 1.689067 -0.209869 3.518047
v 1.692361 -0.209869 3.514491
v 1.694898 -0.209869 3.510361
v 1.696580 -0.209869 3.505815
v 1.697344 -0.209869 3.501028
v 1.697158 -0.209869 3.496184
v 1.696032 -0.209869 3.491470
v 1.694007 -0.209869 3.487066
v 1.691162 -0.209869 3.483141
v 1.687606 -0.209869 3.479847
v 1.683476 -0.209869 3.477310
v 1.678930 -0.209869 3.475627
v 1.674143 -0.209869 3.474864
v 1.669299 -0.209869 3.475049
v 1.664585 -0.209869 3.476176
v 1.660181 -0.209869 3.478200
v 1.665943 -0.209869 3.491969
v 1.664594 -0.209869 3.493426
v 1.663554 -0.209869 3.495117
v 1.662865 -0.209869 3.496979
v 1.662553 -0.209869 3.498940
v 1.662629 -0.209869 3.500923
v 1.663090 -0.209869 3.502854
v 1.663919 -0.209869 3.504658
v 1.665084 -0.209869 3.506265
v 1.666541 -0.209869 3.507614
v 1.668232 -0.209869 3.508653
v 1.670094 -0.209869 3.509342
v 1.672054 -0.209869 3.509655
v 1.674038 -0.209869 3.509579
v 1.675969 -0.209869 3.509118
v 1.677773 -0.209869 3.508288
v 1.679380 -0.209869 3.507123
v 1.680729 -0.209869 3.505667
v 1.681768 -0.209869 3.503975
v 1.682457 -0.209869 3.502114
v 1.682770 -0.209869 3.500153
v 1.682694 -0.209869 3.498169
v 1.682233 -0.209869 3.496238
v 1.681404 -0.209869 3.494435
v 1.680238 -0.209869 3.492827
v 1.678782 -0.209869 3.491478
v 1.677090 -0.209869 3.490440
v 1.675229 -0.209869 3.489750
v 1.673268 -0.209869 3.489437
v 1.671285 -0.209869 3.489513
v 1.669354 -0.209869 3.489975
v 1.667550 -0.209869 3.490804
v 1.656256 -0.191635 3.481045
v 1.652962 -0.191635 3.484601
v 1.650425 -0.191635 3.488731
v 1.648743 -0.191635 3.493278
v 1.647979 -0.191635 3.498064
v 1.648164 -0.191635 3.502908
v 1.649291 -0.191635 3.507623
v 1.651316 -0.191635 3.512027
v 1.654161 -0.191635 3.515951
v 1.657717 -0.191635 3.519245
v 1.661847 -0.191635 3.521782
v 1.666393 -0.191635 3.523465
v 1.671180 -0.191635 3.524228
v 1.676023 -0.191635 3.524043
v 1.680738 -0.191635 3.522917
v 1.685142 -0.191635 3.520892
v 1.689067 -0.191635 3.518047
v 1.692361 -0.191635 3.514491
v 1.694898 -0.191635 3.510361
v 1.696580 -0.191635 3.505815
v 1.697344 -0.191635 3.501028
v 1.697158 -0.191635 3.496185
v 1.696032 -0.191635 3.491470
v 1.694007 -0.191635 3.487066
v 1.691162 -0.191635 3.483141
v 1.687606 -0.191635 3.479847
v 1.683476 -0.191635 3.477310
v 1.678930 -0.191635 3.475627
v 1.674143 -0.191635 3.474864
v 1.669300 -0.191635 3.475049
v 1.664585 -0.191635 3.476176
v 1.660181 -0.191635 3.478201
v 1.665943 -0.191635 3.491969
v 1.664594 -0.191635 3.493425
v 1.663554 -0.191635 3.495117
v 1.662865 -0.191635 3.496979
v 1.662553 -0.191635 3.498940
v 1.662629 -0.191635 3.500923
v 1.663090 -0.191635 3.502854
v 1.663919 -0.191635 3.504658
v 1.665084 -0.191635 3.506265
v 1.666541 -0.191635 3.507614
v 1.668232 -0.191635 3.508653
v 1.670094 -0.191635 3.509342
v 1.672055 -0.191635 3.509655
v 1.674038 -0.191635 3.509579
v 1.675969 -0.191635 3.509118
v 1.677773 -0.191635 3.508289
v 1.679380 -0.191635 3.507123
v 1.680729 -0.191635 3.505667
v 1.681768 -0.191635 3.503975
v 1.682458 -0.191635 3.502114
v 1.682770 -0.191635 3.500153
v 1.682694 -0.191635 3.498169
v 1.682233 -0.191635 3.496238
v 1.681404 -0.191635 3.494435
v 1.680238 -0.191635 3.492827
v 1.678782 -0.191635 3.491478
v 1.677091 -0.191635 3.490440
v 1.675229 -0.191635 3.489750
v 1.673268 -0.191635 3.489437
v 1.671285 -0.191635 3.489513
v 1.669354 -0.191635 3.489975
v 1.667550 -0.191635 3.490804
vn -0.9021 -0.0000 0.4315
vn -0.4315 -0.0048 -0.9021
vn 0.9021 0.0000 -0.4315
vn 0.4315 0.0049 0.9021
vn 0.0021 -1.0000 0.0044
vn -0.0021 1.0000 -0.0044
vn -0.4315 -0.0049 -0.9021
vn 0.0000 -1.0000 0.0000
vn 0.0000 1.0000 0.0000
vn -0.2323 0.0000 -0.9726
vn -0.9875 0.0000 -0.1575
vn -0.6796 -0.0000 0.7335
vn -0.4176 0.0000 -0.9086
vn -0.9993 0.0000 0.0382
vn -0.5232 0.0000 0.8522
vn -0.5870 0.0000 -0.8096
vn -0.9726 0.0000 0.2324
vn -0.3471 0.0000 0.9378
vn 0.7336 0.0000 0.6796
vn -0.9086 0.0000 0.4178
vn -0.1577 0.0000 0.9875
vn 0.8522 0.0000 0.5232
vn -0.8097 0.0000 0.5869
vn 0.0387 0.0000 0.9993
vn 0.9378 0.0000 0.3472
vn -0.6795 0.0000 0.7337
vn 0.2322 0.0000 0.9727
vn 0.9875 0.0000 0.1574
vn -0.5234 0.0000 0.8521
vn 0.4175 0.0000 0.9087
vn 0.9993 0.0000 -0.0383
vn 0.5870 0.0000 0.8096
vn 0.9726 0.0000 -0.2324
vn -0.1575 0.0000 0.9875
vn 0.9086 0.0000 -0.4177
vn 0.0383 0.0000 0.9993
vn 0.8097 -0.0000 -0.5869
vn 0.2323 0.0000 0.9726
vn 0.6794 -0.0000 -0.7337
vn 0.4178 0.0000 0.9086
vn 0.5233 -0.0000 -0.8522
vn 0.3471 0.0000 -0.9378
vn 0.1573 0.0000 -0.9876
vn 0.8521 -0.0000 0.5234
vn -0.0383 0.0000 -0.9993
vn 0.9378 0.0000 0.3471
vn -0.2322 0.0000 -0.9727
vn 0.9875 0.0000 0.1575
vn -0.4178 0.0000 -0.9085
vn 0.9993 -0.0000 -0.0382
vn -0.7336 0.0000 -0.6796
vn -0.8521 0.0000 -0.5234
vn 0.8096 -0.0000 -0.5870
vn -0.9378 0.0000 -0.3470
vn 0.6796 0.0000 -0.7336
vn -0.9875 0.0000 -0.1576
vn 0.5234 0.0000 -0.8521
vn -0.9993 0.0000 0.0383
vn 0.3472 -0.0000 -0.9378
vn -0.7337 0.0000 -0.6795
vn 0.1576 -0.0000 -0.9875
vn -0.9086 0.0000 0.4177
vn -0.9378 -0.0000 -0.3471
vn -0.4316 -0.0048 -0.9021
vn 0.4315 0.0048 0.9021
vn -0.2325 0.0000 -0.9726
vn -0.6794 0.0000 0.7337
vn -0.4178 0.0000 -0.9086
vn -0.5235 -0.0000 0.8520
vn -0.5869 0.0000 -0.8097
vn -0.1581 0.0000 0.9874
vn -0.8096 0.0000 0.5869
vn 0.9378 0.0000 0.3473
vn -0.6796 0.0000 0.7336
vn 0.2326 0.0000 0.9726
vn 0.9726 0.0000 -0.2325
vn 0.6799 -0.0000 -0.7333
vn 0.4176 0.0000 0.9086
vn 0.5236 0.0000 -0.8520
vn 0.5869 0.0000 0.8097
vn 0.3470 0.0000 -0.9379
vn 0.1577 -0.0000 -0.9875
vn 0.8520 -0.0000 0.5235
vn 0.9379 -0.0000 0.3469
vn -0.7334 0.0000 -0.6798
vn 0.9086 0.0000 -0.4176
vn 0.8096 0.0000 -0.5869
vn -0.9379 0.0000 -0.3470
vn -0.7335 0.0000 -0.6797
vn 0.1573 0.0000 -0.9875
vn -0.8520 0.0000 -0.5235
vn -0.0381 0.0000 -0.9993
vn -0.8095 -0.0000 0.5871
s off
f 1//1 4//1 3//1
f 3//2 8//2 7//2
f 8//3 5//3 7//3
f 6//4 1//4 5//4
f 7//5 1//5 3//5
f 8//6 2//6 6//6
f 9//1 12//1 11//1
f 11//7 16//7 15//7
f 16//3 13//3 15//3
f 14//4 9//4 13//4
f 15//5 9//5 11//5
f 16//6 10//6 14//6
f 35//8 68//8 36//8
f 23//8 54//8 55//8
f 36//8 69//8 37//8
f 24//8 55//8 56//8
f 38//8 69//8 70//8
f 25//8 56//8 57//8
f 39//8 70//8 71//8
f 26//8 57//8 58//8
f 40//8 71//8 72//8
f 27//8 58//8 59//8
f 41//8 72//8 73//8
f 28//8 59//8 60//8
f 42//8 73//8 74//8
f 29//8 60//8 61//8
f 43//8 74//8 75//8
f 29//8 62//8 30//8
f 44//8 75//8 76//8
f 30//8 63//8 31//8
f 17//8 50//8 18//8
f 45//8 76//8 77//8
f 31//8 64//8 32//8
f 18//8 51//8 19//8
f 45//8 78//8 46//8
f 32//8 65//8 33//8
f 19//8 52//8 20//8
f 46//8 79//8 47//8
f 33//8 66//8 34//8
f 20//8 53//8 21//8
f 47//8 80//8 48//8
f 34//8 67//8 35//8
f 22//8 53//8 54//8
f 48//8 49//8 17//8
f 132//9 99//9 100//9
f 87//9 118//9 86//9
f 133//9 100//9 101//9
f 88//9 119//9 87//9
f 102//9 133//9 101//9
f 89//9 120//9 88//9
f 103//9 134//9 102//9
f 90//9 121//9 89//9
f 104//9 135//9 103//9
f 91//9 122//9 90//9
f 105//9 136//9 104//9
f 92//9 123//9 91//9
f 106//9 137//9 105//9
f 93//9 124//9 92//9
f 107//9 138//9 106//9
f 126//9 93//9 94//9
f 108//9 139//9 107//9
f 127//9 94//9 95//9
f 114//9 81//9 82//9
f 109//9 140//9 108//9
f 128//9 95//9 96//9
f 115//9 82//9 83//9
f 142//9 109//9 110//9
f 129//9 96//9 97//9
f 116//9 83//9 84//9
f 143//9 110//9 111//9
f 130//9 97//9 98//9
f 117//9 84//9 85//9
f 144//9 111//9 112//9
f 131//9 98//9 99//9
f 86//9 117//9 85//9
f 113//9 112//9 81//9
f 111//10 46//10 47//10
f 85//11 20//11 21//11
f 137//12 74//12 73//12
f 112//13 47//13 48//13
f 86//14 21//14 22//14
f 74//15 139//15 75//15
f 81//16 48//16 17//16
f 87//17 22//17 23//17
f 75//18 140//18 76//18
f 49//19 114//19 50//19
f 88//20 23//20 24//20
f 76//21 141//21 77//21
f 50//22 115//22 51//22
f 25//23 88//23 24//23
f 77//24 142//24 78//24
f 51//25 116//25 52//25
f 90//26 25//26 26//26
f 142//27 79//27 78//27
f 116//28 53//28 52//28
f 91//29 26//29 27//29
f 143//30 80//30 79//30
f 53//31 118//31 54//31
f 92//18 27//18 28//18
f 144//32 49//32 80//32
f 118//33 55//33 54//33
f 93//34 28//34 29//34
f 119//35 56//35 55//35
f 30//36 93//36 29//36
f 120//37 57//37 56//37
f 95//38 30//38 31//38
f 121//39 58//39 57//39
f 32//40 95//40 31//40
f 122//41 59//41 58//41
f 97//32 32//32 33//32
f 123//42 60//42 59//42
f 98//19 33//19 34//19
f 124//43 61//43 60//43
f 35//44 98//44 34//44
f 125//45 62//45 61//45
f 100//46 35//46 36//46
f 126//47 63//47 62//47
f 101//48 36//48 37//48
f 127//49 64//49 63//49
f 102//50 37//50 38//50
f 128//16 65//16 64//16
f 103//33 38//33 39//33
f 129//51 66//51 65//51
f 40//35 103//35 39//35
f 66//52 131//52 67//52
f 105//53 40//53 41//53
f 131//54 68//54 67//54
f 106//55 41//55 42//55
f 132//56 69//56 68//56
f 107//57 42//57 43//57
f 69//58 134//58 70//58
f 108//59 43//59 44//59
f 82//60 17//60 18//60
f 70//17 135//17 71//17
f 45//61 108//61 44//61
f 83//52 18//52 19//52
f 71//62 136//62 72//62
f 110//45 45//45 46//45
f 20//63 83//63 19//63
f 136//23 73//23 72//23
f 1//1 2//1 4//1
f 3//64 4//64 8//64
f 8//3 6//3 5//3
f 6//65 2//65 1//65
f 7//5 5//5 1//5
f 8//6 4//6 2//6
f 9//1 10//1 12//1
f 11//7 12//7 16//7
f 16//3 14//3 13//3
f 14//4 10//4 9//4
f 15//5 13//5 9//5
f 16//6 12//6 10//6
f 35//8 67//8 68//8
f 23//8 22//8 54//8
f 36//8 68//8 69//8
f 24//8 23//8 55//8
f 38//8 37//8 69//8
f 25//8 24//8 56//8
f 39//8 38//8 70//8
f 26//8 25//8 57//8
f 40//8 39//8 71//8
f 27//8 26//8 58//8
f 41//8 40//8 72//8
f 28//8 27//8 59//8
f 42//8 41//8 73//8
f 29//8 28//8 60//8
f 43//8 42//8 74//8
f 29//8 61//8 62//8
f 44//8 43//8 75//8
f 30//8 62//8 63//8
f 17//8 49//8 50//8
f 45//8 44//8 76//8
f 31//8 63//8 64//8
f 18//8 50//8 51//8
f 45//8 77//8 78//8
f 32//8 64//8 65//8
f 19//8 51//8 52//8
f 46//8 78//8 79//8
f 33//8 65//8 66//8
f 20//8 52//8 53//8
f 47//8 79//8 80//8
f 34//8 66//8 67//8
f 22//8 21//8 53//8
f 48//8 80//8 49//8
f 132//9 131//9 99//9
f 87//9 119//9 118//9
f 133//9 132//9 100//9
f 88//9 120//9 119//9
f 102//9 134//9 133//9
f 89//9 121//9 120//9
f 103//9 135//9 134//9
f 90//9 122//9 121//9
f 104//9 136//9 135//9
f 91//9 123//9 122//9
f 105//9 137//9 136//9
f 92//9 124//9 123//9
f 106//9 138//9 137//9
f 93//9 125//9 124//9
f 107//9 139//9 138//9
f 126//9 125//9 93//9
f 108//9 140//9 139//9
f 127//9 126//9 94//9
f 114//9 113//9 81//9
f 109//9 141//9 140//9
f 128//9 127//9 95//9
f 115//9 114//9 82//9
f 142//9 141//9 109//9
f 129//9 128//9 96//9
f 116//9 115//9 83//9
f 143//9 142//9 110//9
f 130//9 129//9 97//9
f 117//9 116//9 84//9
f 144//9 143//9 111//9
f 131//9 130//9 98//9
f 86//9 118//9 117//9
f 113//9 144//9 112//9
f 111//66 110//66 46//66
f 85//11 84//11 20//11
f 137//67 138//67 74//67
f 112//68 111//68 47//68
f 86//14 85//14 21//14
f 74//69 138//69 139//69
f 81//70 112//70 48//70
f 87//17 86//17 22//17
f 75//18 139//18 140//18
f 49//19 113//19 114//19
f 88//62 87//62 23//62
f 76//71 140//71 141//71
f 50//44 114//44 115//44
f 25//72 89//72 88//72
f 77//36 141//36 142//36
f 51//73 115//73 116//73
f 90//74 89//74 25//74
f 142//75 143//75 79//75
f 116//28 117//28 53//28
f 91//69 90//69 26//69
f 143//30 144//30 80//30
f 53//31 117//31 118//31
f 92//18 91//18 27//18
f 144//32 113//32 49//32
f 118//76 119//76 55//76
f 93//34 92//34 28//34
f 119//35 120//35 56//35
f 30//36 94//36 93//36
f 120//37 121//37 57//37
f 95//38 94//38 30//38
f 121//77 122//77 58//77
f 32//78 96//78 95//78
f 122//79 123//79 59//79
f 97//80 96//80 32//80
f 123//81 124//81 60//81
f 98//19 97//19 33//19
f 124//82 125//82 61//82
f 35//83 99//83 98//83
f 125//45 126//45 62//45
f 100//84 99//84 35//84
f 126//47 127//47 63//47
f 101//48 100//48 36//48
f 127//49 128//49 64//49
f 102//50 101//50 37//50
f 128//16 129//16 65//16
f 103//33 102//33 38//33
f 129//85 130//85 66//85
f 40//86 104//86 103//86
f 66//52 130//52 131//52
f 105//87 104//87 40//87
f 131//88 132//88 68//88
f 106//55 105//55 41//55
f 132//11 133//11 69//11
f 107//57 106//57 42//57
f 69//14 133//14 134//14
f 108//42 107//42 43//42
f 82//89 81//89 17//89
f 70//17 134//17 135//17
f 45//90 109//90 108//90
f 83//91 82//91 18//91
f 71//62 135//62 136//62
f 110//92 109//92 45//92
f 20//63 84//63 83//63
f 136//93 137//93 73//93
