# Blender v2.79 (sub 7) OBJ File: 'Universe Gate.blend'
# www.blender.org
o 31_Cube.021
v 2.104873 -0.219012 3.184010
v 2.104802 -0.192419 3.183902
v 2.074856 -0.219276 3.138768
v 2.074785 -0.192682 3.138661
v 2.120337 -0.219012 3.173750
v 2.120265 -0.192419 3.173642
v 2.090320 -0.219276 3.128509
v 2.090248 -0.192682 3.128401
v 2.195692 -0.218893 3.326581
v 2.195621 -0.192298 3.326473
v 2.155307 -0.219397 3.262286
v 2.155236 -0.192802 3.262178
v 2.211155 -0.218893 3.316321
v 2.211084 -0.192298 3.316213
v 2.170771 -0.219397 3.252026
v 2.170699 -0.192802 3.251919
v 2.117065 -0.211719 3.186697
v 2.114540 -0.211719 3.188757
v 2.112464 -0.211719 3.191269
v 2.110919 -0.211719 3.194139
v 2.109962 -0.211719 3.197254
v 2.109632 -0.211719 3.200497
v 2.109941 -0.211719 3.203741
v 2.110877 -0.211719 3.206862
v 2.112404 -0.211719 3.209742
v 2.114463 -0.211719 3.212268
v 2.116976 -0.211719 3.214343
v 2.119845 -0.211719 3.215889
v 2.122961 -0.211719 3.216845
v 2.126203 -0.211719 3.217175
v 2.129447 -0.211719 3.216866
v 2.132569 -0.211719 3.215930
v 2.135448 -0.211719 3.214403
v 2.137974 -0.211719 3.212344
v 2.140050 -0.211719 3.209831
v 2.141595 -0.211719 3.206962
v 2.142551 -0.211719 3.203847
v 2.142881 -0.211719 3.200604
v 2.142572 -0.211719 3.197360
v 2.141637 -0.211719 3.194238
v 2.140110 -0.211719 3.191359
v 2.138050 -0.211719 3.188833
v 2.135538 -0.211719 3.186758
v 2.132668 -0.211719 3.185212
v 2.129553 -0.211719 3.184256
v 2.126311 -0.211719 3.183926
v 2.123066 -0.211719 3.184235
v 2.119945 -0.211719 3.185170
v 2.117065 -0.192617 3.186697
v 2.114540 -0.192617 3.188757
v 2.112464 -0.192617 3.191269
v 2.110919 -0.192617 3.194139
v 2.109962 -0.192617 3.197254
v 2.109632 -0.192617 3.200497
v 2.109941 -0.192617 3.203741
v 2.110877 -0.192617 3.206862
v 2.112404 -0.192617 3.209742
v 2.114463 -0.192617 3.212268
v 2.116976 -0.192617 3.214343
v 2.119845 -0.192617 3.215889
v 2.122961 -0.192617 3.216845
v 2.126203 -0.192617 3.217175
v 2.129447 -0.192617 3.216866
v 2.132569 -0.192617 3.215930
v 2.135448 -0.192617 3.214403
v 2.137974 -0.192617 3.212344
v 2.140050 -0.192617 3.209831
v 2.141595 -0.192617 3.206962
v 2.142551 -0.192617 3.203847
v 2.142881 -0.192617 3.200604
v 2.142572 -0.192617 3.197360
v 2.141636 -0.192617 3.194238
v 2.140110 -0.192617 3.191359
v 2.138050 -0.192617 3.188833
v 2.135538 -0.192617 3.186758
v 2.132669 -0.192617 3.185212
v 2.129553 -0.192617 3.184256
v 2.126311 -0.192617 3.183926
v 2.123066 -0.192617 3.184235
v 2.119945 -0.192617 3.185171
v 2.139325 -0.211556 3.219376
v 2.136799 -0.211556 3.221435
v 2.134724 -0.211556 3.223948
v 2.133178 -0.211556 3.226817
v 2.132222 -0.211556 3.229932
v 2.131892 -0.211556 3.233175
v 2.132201 -0.211556 3.236419
v 2.133137 -0.211556 3.239541
v 2.134664 -0.211556 3.242420
v 2.136723 -0.211556 3.244946
v 2.139236 -0.211556 3.247021
v 2.142105 -0.211556 3.248567
v 2.145221 -0.211556 3.249523
v 2.148463 -0.211556 3.249853
v 2.151707 -0.211556 3.249544
v 2.154829 -0.211556 3.248608
v 2.157708 -0.211556 3.247082
v 2.160234 -0.211556 3.245022
v 2.162310 -0.211556 3.242510
v 2.163855 -0.211556 3.239640
v 2.164811 -0.211556 3.236525
v 2.165141 -0.211556 3.233283
v 2.164832 -0.211556 3.230038
v 2.163896 -0.211556 3.226917
v 2.162369 -0.211556 3.224037
v 2.160310 -0.211556 3.221511
v 2.157798 -0.211556 3.219436
v 2.154928 -0.211556 3.217890
v 2.151813 -0.211556 3.216934
v 2.148570 -0.211556 3.216604
v 2.145326 -0.211556 3.216913
v 2.142205 -0.211556 3.217849
v 2.139325 -0.192453 3.219376
v 2.136799 -0.192453 3.221435
v 2.134724 -0.192453 3.223948
v 2.133178 -0.192453 3.226817
v 2.132222 -0.192453 3.229932
v 2.131892 -0.192453 3.233175
v 2.132201 -0.192453 3.236419
v 2.133137 -0.192453 3.239541
v 2.134664 -0.192453 3.242420
v 2.136723 -0.192453 3.244946
v 2.139236 -0.192453 3.247022
v 2.142105 -0.192453 3.248567
v 2.145221 -0.192453 3.249523
v 2.148463 -0.192453 3.249853
v 2.151707 -0.192453 3.249544
v 2.154829 -0.192453 3.248608
v 2.157708 -0.192453 3.247082
v 2.160234 -0.192453 3.245022
v 2.162310 -0.192453 3.242510
v 2.163855 -0.192453 3.239640
v 2.164811 -0.192453 3.236525
v 2.165141 -0.192453 3.233283
v 2.164832 -0.192453 3.230038
v 2.163896 -0.192453 3.226916
v 2.162369 -0.192453 3.224037
v 2.160310 -0.192453 3.221511
v 2.157798 -0.192453 3.219436
v 2.154929 -0.192453 3.217890
v 2.151813 -0.192453 3.216934
v 2.148571 -0.192453 3.216604
v 2.145326 -0.192453 3.216913
v 2.142205 -0.192453 3.217849
v 2.209630 -0.211556 3.331935
v 2.207104 -0.211556 3.333994
v 2.205029 -0.211556 3.336506
v 2.203483 -0.211556 3.339376
v 2.202527 -0.211556 3.342491
v 2.202197 -0.211556 3.345734
v 2.202506 -0.211556 3.348978
v 2.203442 -0.211556 3.352100
v 2.204969 -0.211556 3.354979
v 2.207028 -0.211556 3.357505
v 2.209541 -0.211556 3.359581
v 2.212409 -0.211556 3.361126
v 2.215525 -0.211556 3.362082
v 2.218767 -0.211556 3.362412
v 2.222012 -0.211556 3.362103
v 2.225134 -0.211556 3.361167
v 2.228013 -0.211556 3.359641
v 2.230539 -0.211556 3.357581
v 2.232615 -0.211556 3.355069
v 2.234160 -0.211556 3.352199
v 2.235116 -0.211556 3.349084
v 2.235446 -0.211556 3.345842
v 2.235137 -0.211556 3.342597
v 2.234201 -0.211556 3.339475
v 2.232674 -0.211556 3.336596
v 2.230615 -0.211556 3.334071
v 2.228102 -0.211556 3.331995
v 2.225233 -0.211556 3.330449
v 2.222118 -0.211556 3.329493
v 2.218875 -0.211556 3.329163
v 2.215631 -0.211556 3.329472
v 2.212509 -0.211556 3.330408
v 2.209630 -0.192453 3.331935
v 2.207104 -0.192453 3.333994
v 2.205029 -0.192453 3.336507
v 2.203483 -0.192453 3.339376
v 2.202527 -0.192453 3.342491
v 2.202197 -0.192453 3.345734
v 2.202506 -0.192453 3.348978
v 2.203442 -0.192453 3.352100
v 2.204969 -0.192453 3.354979
v 2.207028 -0.192453 3.357505
v 2.209541 -0.192453 3.359581
v 2.212410 -0.192453 3.361126
v 2.215525 -0.192453 3.362082
v 2.218768 -0.192453 3.362412
v 2.222012 -0.192453 3.362103
v 2.225133 -0.192453 3.361167
v 2.228013 -0.192453 3.359641
v 2.230539 -0.192453 3.357581
v 2.232615 -0.192453 3.355069
v 2.234160 -0.192453 3.352199
v 2.235116 -0.192453 3.349084
v 2.235446 -0.192453 3.345842
v 2.235137 -0.192453 3.342597
v 2.234201 -0.192453 3.339476
v 2.232674 -0.192453 3.336596
v 2.230615 -0.192453 3.334071
v 2.228102 -0.192453 3.331995
v 2.225233 -0.192453 3.330449
v 2.222118 -0.192453 3.329493
v 2.218875 -0.192453 3.329163
v 2.215631 -0.192453 3.329472
v 2.212509 -0.192453 3.330408
vn -0.8333 0.0000 0.5529
vn -0.5529 -0.0049 -0.8333
vn 0.8333 -0.0000 -0.5529
vn 0.5529 0.0049 0.8333
vn 0.0027 -1.0000 0.0040
vn -0.0027 1.0000 -0.0040
vn -0.8468 -0.0001 0.5319
vn -0.5529 -0.0048 -0.8332
vn 0.8468 0.0001 -0.5319
vn 0.5529 0.0048 0.8332
vn 0.0037 -1.0000 0.0055
vn -0.0037 1.0000 -0.0055
vn 0.0000 -1.0000 -0.0000
vn 0.0000 1.0000 0.0000
vn -0.8804 0.0000 -0.4743
vn -0.0948 0.0000 -0.9955
vn 0.6318 0.0000 0.7751
vn -0.9560 0.0000 -0.2934
vn -0.2872 0.0000 -0.9579
vn 0.7710 0.0000 0.6369
vn -0.9949 0.0000 -0.1012
vn -0.4684 0.0000 -0.8835
vn 0.8804 0.0000 0.4742
vn -0.9955 -0.0000 0.0948
vn 0.9560 0.0000 0.2934
vn -0.9579 0.0000 0.2871
vn 0.9949 0.0000 0.1013
vn -0.8835 0.0000 0.4685
vn 0.9955 0.0000 -0.0948
vn -0.7750 -0.0000 0.6319
vn 0.9579 0.0000 -0.2872
vn -0.6369 0.0000 0.7710
vn 0.8835 0.0000 -0.4685
vn -0.4742 0.0000 0.8804
vn 0.7751 0.0000 -0.6319
vn -0.2934 0.0000 0.9560
vn 0.6368 0.0000 -0.7710
vn -0.1012 0.0000 0.9949
vn 0.4742 0.0000 -0.8804
vn 0.0948 0.0000 0.9955
vn -0.6318 0.0000 -0.7751
vn 0.2936 0.0000 -0.9559
vn 0.2873 0.0000 0.9579
vn -0.7709 0.0000 -0.6370
vn 0.1014 -0.0000 -0.9948
vn 0.4686 0.0000 0.8834
vn -0.8805 0.0000 -0.4741
vn -0.0945 0.0000 -0.9955
vn 0.6320 0.0000 0.7750
vn 0.7710 0.0000 0.6368
vn -0.4685 0.0000 -0.8835
vn -0.9955 0.0000 0.0947
vn -0.9579 0.0000 0.2872
vn -0.7751 0.0000 0.6319
vn -0.6370 -0.0000 0.7709
vn 0.8834 -0.0000 -0.4686
vn -0.4741 -0.0000 0.8805
vn -0.2933 0.0000 0.9560
vn 0.6369 0.0000 -0.7709
vn -0.6319 0.0000 -0.7751
vn 0.2872 0.0000 0.9579
vn -0.7709 0.0000 -0.6369
vn 0.1011 0.0000 -0.9949
vn 0.4684 0.0000 0.8835
vn 0.7709 0.0000 0.6369
vn -0.9949 0.0000 -0.1013
vn 0.9560 -0.0000 0.2935
vn 0.9949 0.0000 0.1012
vn -0.8834 0.0000 0.4685
vn 0.9955 0.0000 -0.0947
vn 0.9579 0.0000 -0.2871
vn -0.4744 0.0000 0.8803
vn 0.6370 0.0000 -0.7708
vn 0.2933 0.0000 -0.9560
vn 0.1012 0.0000 -0.9949
vn 0.4685 0.0000 0.8834
vn 0.5529 0.0048 0.8333
vn -0.0001 -1.0000 0.0000
vn -0.8804 0.0000 -0.4742
vn -0.0949 0.0000 -0.9955
vn -0.2871 0.0000 -0.9579
vn -0.4685 0.0000 -0.8834
vn 0.8805 0.0000 0.4741
vn -0.4743 0.0000 0.8804
vn 0.6369 0.0000 -0.7710
vn 0.4743 0.0000 -0.8804
vn 0.0947 0.0000 0.9955
vn -0.6321 0.0000 -0.7749
vn 0.2932 -0.0000 -0.9560
vn 0.2873 0.0000 0.9578
vn -0.7710 0.0000 -0.6368
vn 0.4685 0.0000 0.8835
vn -0.8803 0.0000 -0.4743
vn -0.9560 0.0000 -0.2933
vn 0.7709 0.0000 0.6370
vn -0.4686 0.0000 -0.8834
vn 0.9560 0.0000 0.2933
vn -0.8834 -0.0000 0.4686
vn -0.2935 -0.0000 0.9559
vn 0.6319 0.0000 0.7750
vn 0.9578 0.0000 -0.2873
vn 0.7750 0.0000 -0.6319
vn -0.1010 0.0000 0.9949
vn -0.6319 -0.0000 -0.7750
vn 0.2937 0.0000 -0.9559
vn 0.2870 0.0000 0.9579
vn -0.7710 0.0000 -0.6369
s off
f 1//1 4//1 3//1
f 3//2 8//2 7//2
f 8//3 5//3 7//3
f 6//4 1//4 5//4
f 7//5 1//5 3//5
f 8//6 2//6 6//6
f 9//7 12//7 11//7
f 11//8 16//8 15//8
f 16//9 13//9 15//9
f 14//10 9//10 13//10
f 15//11 9//11 11//11
f 16//12 10//12 14//12
f 21//13 20//13 24//13
f 79//14 80//14 61//14
f 19//15 52//15 51//15
f 46//16 79//16 78//16
f 34//17 65//17 33//17
f 20//18 53//18 52//18
f 47//19 80//19 79//19
f 34//20 67//20 66//20
f 21//21 54//21 53//21
f 17//22 80//22 48//22
f 36//23 67//23 35//23
f 23//24 54//24 22//24
f 37//25 68//25 36//25
f 24//26 55//26 23//26
f 37//27 70//27 69//27
f 24//28 57//28 56//28
f 39//29 70//29 38//29
f 25//30 58//30 57//30
f 40//31 71//31 39//31
f 26//32 59//32 58//32
f 41//33 72//33 40//33
f 27//34 60//34 59//34
f 42//35 73//35 41//35
f 29//36 60//36 28//36
f 43//37 74//37 42//37
f 30//38 61//38 29//38
f 43//39 76//39 75//39
f 31//40 62//40 30//40
f 18//41 49//41 17//41
f 44//42 77//42 76//42
f 31//43 64//43 63//43
f 18//44 51//44 50//44
f 46//45 77//45 45//45
f 33//46 64//46 32//46
f 85//13 84//13 88//13
f 143//14 144//14 125//14
f 83//47 116//47 115//47
f 110//48 143//48 142//48
f 97//49 130//49 129//49
f 84//18 117//18 116//18
f 112//19 143//19 111//19
f 99//50 130//50 98//50
f 86//21 117//21 85//21
f 112//51 113//51 144//51
f 100//23 131//23 99//23
f 87//52 118//52 86//52
f 101//25 132//25 100//25
f 88//53 119//53 87//53
f 101//27 134//27 133//27
f 88//28 121//28 120//28
f 103//29 134//29 102//29
f 89//54 122//54 121//54
f 104//31 135//31 103//31
f 91//55 122//55 90//55
f 104//56 137//56 136//56
f 92//57 123//57 91//57
f 106//35 137//35 105//35
f 92//58 125//58 124//58
f 107//59 138//59 106//59
f 94//38 125//38 93//38
f 107//39 140//39 139//39
f 95//40 126//40 94//40
f 82//60 113//60 81//60
f 108//42 141//42 140//42
f 95//61 128//61 127//61
f 83//62 114//62 82//62
f 109//63 142//63 141//63
f 96//64 129//64 128//64
f 149//13 148//13 152//13
f 207//14 208//14 189//14
f 148//15 179//15 147//15
f 175//16 206//16 174//16
f 161//49 194//49 193//49
f 148//18 181//18 180//18
f 176//19 207//19 175//19
f 163//65 194//65 162//65
f 150//66 181//66 149//66
f 145//22 208//22 176//22
f 164//23 195//23 163//23
f 151//24 182//24 150//24
f 165//67 196//67 164//67
f 152//53 183//53 151//53
f 165//68 198//68 197//68
f 152//69 185//69 184//69
f 167//70 198//70 166//70
f 154//54 185//54 153//54
f 167//71 200//71 199//71
f 155//32 186//32 154//32
f 169//56 200//56 168//56
f 155//72 188//72 187//72
f 170//35 201//35 169//35
f 157//36 188//36 156//36
f 171//73 202//73 170//73
f 158//38 189//38 157//38
f 172//39 203//39 171//39
f 159//40 190//40 158//40
f 146//60 177//60 145//60
f 172//74 205//74 204//74
f 159//43 192//43 191//43
f 147//44 178//44 146//44
f 174//75 205//75 173//75
f 160//76 193//76 192//76
f 1//1 2//1 4//1
f 3//2 4//2 8//2
f 8//3 6//3 5//3
f 6//77 2//77 1//77
f 7//5 5//5 1//5
f 8//6 4//6 2//6
f 9//7 10//7 12//7
f 11//2 12//2 16//2
f 16//9 14//9 13//9
f 14//77 10//77 9//77
f 15//11 13//11 9//11
f 16//12 12//12 10//12
f 19//13 18//13 26//13
f 18//13 17//13 27//13
f 17//13 48//13 28//13
f 48//13 47//13 29//13
f 17//13 28//13 27//13
f 47//13 46//13 30//13
f 46//13 45//13 31//13
f 45//13 44//13 32//13
f 44//13 43//13 33//13
f 45//13 32//13 31//13
f 43//13 42//13 34//13
f 42//13 41//13 35//13
f 41//13 40//13 36//13
f 40//13 39//13 37//13
f 41//13 36//13 35//13
f 39//78 38//78 37//78
f 37//13 36//13 40//13
f 35//13 34//13 42//13
f 34//13 33//13 43//13
f 33//13 32//13 44//13
f 31//13 30//13 46//13
f 30//13 29//13 47//13
f 29//13 28//13 48//13
f 27//13 26//13 18//13
f 26//13 25//13 19//13
f 25//13 24//13 20//13
f 24//13 23//13 21//13
f 25//13 20//13 19//13
f 23//13 22//13 21//13
f 49//14 50//14 59//14
f 50//14 51//14 58//14
f 58//14 51//14 57//14
f 51//14 52//14 57//14
f 52//14 53//14 56//14
f 57//14 52//14 56//14
f 53//14 54//14 55//14
f 55//14 56//14 53//14
f 58//14 59//14 50//14
f 59//14 60//14 49//14
f 60//14 61//14 80//14
f 49//14 60//14 80//14
f 61//14 62//14 79//14
f 62//14 63//14 78//14
f 78//14 63//14 77//14
f 63//14 64//14 77//14
f 64//14 65//14 76//14
f 77//14 64//14 76//14
f 65//14 66//14 75//14
f 66//14 67//14 74//14
f 74//14 67//14 73//14
f 67//14 68//14 73//14
f 68//14 69//14 72//14
f 73//14 68//14 72//14
f 69//14 70//14 71//14
f 71//14 72//14 69//14
f 74//14 75//14 66//14
f 75//14 76//14 65//14
f 78//14 79//14 62//14
f 19//79 20//79 52//79
f 46//80 47//80 79//80
f 34//17 66//17 65//17
f 20//18 21//18 53//18
f 47//81 48//81 80//81
f 34//65 35//65 67//65
f 21//66 22//66 54//66
f 17//82 49//82 80//82
f 36//83 68//83 67//83
f 23//24 55//24 54//24
f 37//25 69//25 68//25
f 24//53 56//53 55//53
f 37//27 38//27 70//27
f 24//28 25//28 57//28
f 39//29 71//29 70//29
f 25//54 26//54 58//54
f 40//31 72//31 71//31
f 26//32 27//32 59//32
f 41//33 73//33 72//33
f 27//84 28//84 60//84
f 42//35 74//35 73//35
f 29//58 61//58 60//58
f 43//85 75//85 74//85
f 30//38 62//38 61//38
f 43//86 44//86 76//86
f 31//87 63//87 62//87
f 18//88 50//88 49//88
f 44//89 45//89 77//89
f 31//90 32//90 64//90
f 18//91 19//91 51//91
f 46//75 78//75 77//75
f 33//92 65//92 64//92
f 83//13 82//13 90//13
f 82//13 81//13 91//13
f 81//13 112//13 92//13
f 112//13 111//13 93//13
f 81//13 92//13 91//13
f 111//13 110//13 94//13
f 110//13 109//13 95//13
f 109//13 108//13 96//13
f 108//13 107//13 97//13
f 109//13 96//13 95//13
f 107//13 106//13 98//13
f 106//13 105//13 99//13
f 105//13 104//13 100//13
f 104//13 103//13 101//13
f 105//13 100//13 99//13
f 103//13 102//13 101//13
f 101//13 100//13 104//13
f 99//13 98//13 106//13
f 98//13 97//13 107//13
f 97//13 96//13 108//13
f 95//13 94//13 110//13
f 94//13 93//13 111//13
f 93//13 92//13 112//13
f 91//13 90//13 82//13
f 90//13 89//13 83//13
f 89//13 88//13 84//13
f 88//13 87//13 85//13
f 89//13 84//13 83//13
f 87//13 86//13 85//13
f 113//14 114//14 123//14
f 114//14 115//14 122//14
f 122//14 115//14 121//14
f 115//14 116//14 121//14
f 116//14 117//14 120//14
f 121//14 116//14 120//14
f 117//14 118//14 119//14
f 119//14 120//14 117//14
f 122//14 123//14 114//14
f 123//14 124//14 113//14
f 124//14 125//14 144//14
f 113//14 124//14 144//14
f 125//14 126//14 143//14
f 126//14 127//14 142//14
f 142//14 127//14 141//14
f 127//14 128//14 141//14
f 128//14 129//14 140//14
f 141//14 128//14 140//14
f 129//14 130//14 139//14
f 130//14 131//14 138//14
f 138//14 131//14 137//14
f 131//14 132//14 137//14
f 132//14 133//14 136//14
f 137//14 132//14 136//14
f 133//14 134//14 135//14
f 135//14 136//14 133//14
f 138//14 139//14 130//14
f 139//14 140//14 129//14
f 142//14 143//14 126//14
f 83//93 84//93 116//93
f 110//16 111//16 143//16
f 97//17 98//17 130//17
f 84//94 85//94 117//94
f 112//19 144//19 143//19
f 99//95 131//95 130//95
f 86//21 118//21 117//21
f 112//96 81//96 113//96
f 100//23 132//23 131//23
f 87//24 119//24 118//24
f 101//97 133//97 132//97
f 88//53 120//53 119//53
f 101//27 102//27 134//27
f 88//98 89//98 121//98
f 103//29 135//29 134//29
f 89//30 90//30 122//30
f 104//71 136//71 135//71
f 91//55 123//55 122//55
f 104//56 105//56 137//56
f 92//34 124//34 123//34
f 106//35 138//35 137//35
f 92//99 93//99 125//99
f 107//59 139//59 138//59
f 94//38 126//38 125//38
f 107//39 108//39 140//39
f 95//87 127//87 126//87
f 82//41 114//41 113//41
f 108//74 109//74 141//74
f 95//90 96//90 128//90
f 83//44 115//44 114//44
f 109//75 110//75 142//75
f 96//64 97//64 129//64
f 147//13 146//13 154//13
f 146//13 145//13 155//13
f 145//13 176//13 156//13
f 176//13 175//13 157//13
f 145//13 156//13 155//13
f 175//13 174//13 158//13
f 174//13 173//13 159//13
f 173//13 172//13 160//13
f 172//13 171//13 161//13
f 173//13 160//13 159//13
f 171//13 170//13 162//13
f 170//13 169//13 163//13
f 169//13 168//13 164//13
f 168//13 167//13 165//13
f 169//13 164//13 163//13
f 167//13 166//13 165//13
f 165//13 164//13 168//13
f 163//13 162//13 170//13
f 162//13 161//13 171//13
f 161//13 160//13 172//13
f 159//13 158//13 174//13
f 158//13 157//13 175//13
f 157//13 156//13 176//13
f 155//13 154//13 146//13
f 154//13 153//13 147//13
f 153//13 152//13 148//13
f 152//13 151//13 149//13
f 153//13 148//13 147//13
f 151//13 150//13 149//13
f 177//14 178//14 187//14
f 178//14 179//14 186//14
f 186//14 179//14 185//14
f 179//14 180//14 185//14
f 180//14 181//14 184//14
f 185//14 180//14 184//14
f 181//14 182//14 183//14
f 183//14 184//14 181//14
f 186//14 187//14 178//14
f 187//14 188//14 177//14
f 188//14 189//14 208//14
f 177//14 188//14 208//14
f 189//14 190//14 207//14
f 190//14 191//14 206//14
f 206//14 191//14 205//14
f 191//14 192//14 205//14
f 192//14 193//14 204//14
f 205//14 192//14 204//14
f 193//14 194//14 203//14
f 194//14 195//14 202//14
f 202//14 195//14 201//14
f 195//14 196//14 201//14
f 196//14 197//14 200//14
f 201//14 196//14 200//14
f 197//14 198//14 199//14
f 199//14 200//14 197//14
f 202//14 203//14 194//14
f 203//14 204//14 193//14
f 206//14 207//14 190//14
f 148//79 180//79 179//79
f 175//16 207//16 206//16
f 161//100 162//100 194//100
f 148//18 149//18 181//18
f 176//19 208//19 207//19
f 163//65 195//65 194//65
f 150//66 182//66 181//66
f 145//96 177//96 208//96
f 164//83 196//83 195//83
f 151//52 183//52 182//52
f 165//25 197//25 196//25
f 152//53 184//53 183//53
f 165//27 166//27 198//27
f 152//28 153//28 185//28
f 167//29 199//29 198//29
f 154//54 186//54 185//54
f 167//101 168//101 200//101
f 155//32 187//32 186//32
f 169//56 201//56 200//56
f 155//34 156//34 188//34
f 170//102 202//102 201//102
f 157//36 189//36 188//36
f 171//85 203//85 202//85
f 158//103 190//103 189//103
f 172//39 204//39 203//39
f 159//40 191//40 190//40
f 146//104 178//104 177//104
f 172//105 173//105 205//105
f 159//106 160//106 192//106
f 147//107 179//107 178//107
f 174//75 206//75 205//75
f 160//64 161//64 193//64
