# Blender v2.79 (sub 7) OBJ File: 'Universe Gate.blend'
# www.blender.org
o 32_Circle.013
v 2.495493 -0.210062 2.812273
v 2.493278 -0.210062 2.814663
v 2.491572 -0.210062 2.817440
v 2.490441 -0.210062 2.820497
v 2.489928 -0.210062 2.823715
v 2.490052 -0.210062 2.826972
v 2.490810 -0.210062 2.830142
v 2.492171 -0.210062 2.833102
v 2.494084 -0.210062 2.835741
v 2.496475 -0.210062 2.837956
v 2.499252 -0.210062 2.839662
v 2.502308 -0.210062 2.840793
v 2.505526 -0.210062 2.841306
v 2.508783 -0.210062 2.841182
v 2.511953 -0.210062 2.840424
v 2.514914 -0.210062 2.839063
v 2.517553 -0.210062 2.837150
v 2.519767 -0.210062 2.834759
v 2.521473 -0.210062 2.831982
v 2.522604 -0.210062 2.828926
v 2.523118 -0.210062 2.825708
v 2.522993 -0.210062 2.822451
v 2.522236 -0.210062 2.819282
v 2.520875 -0.210062 2.816320
v 2.518962 -0.210062 2.813682
v 2.516571 -0.210062 2.811467
v 2.513794 -0.210062 2.809761
v 2.510737 -0.210062 2.808630
v 2.507519 -0.210062 2.808117
v 2.504263 -0.210062 2.808241
v 2.501093 -0.210062 2.808999
v 2.498132 -0.210062 2.810360
v 2.495493 -0.190959 2.812273
v 2.493278 -0.190959 2.814663
v 2.491572 -0.190959 2.817440
v 2.490441 -0.190959 2.820497
v 2.489928 -0.190959 2.823715
v 2.490052 -0.190959 2.826972
v 2.490810 -0.190959 2.830142
v 2.492171 -0.190959 2.833102
v 2.494084 -0.190959 2.835741
v 2.496475 -0.190959 2.837956
v 2.499252 -0.190959 2.839662
v 2.502308 -0.190959 2.840793
v 2.505526 -0.190959 2.841306
v 2.508783 -0.190959 2.841182
v 2.511953 -0.190959 2.840424
v 2.514914 -0.190959 2.839063
v 2.517553 -0.190959 2.837150
v 2.519767 -0.190959 2.834759
v 2.521473 -0.190959 2.831982
v 2.522604 -0.190959 2.828926
v 2.523118 -0.190959 2.825708
v 2.522993 -0.190959 2.822451
v 2.522236 -0.190959 2.819282
v 2.520875 -0.190959 2.816320
v 2.518962 -0.190959 2.813682
v 2.516571 -0.190959 2.811467
v 2.513794 -0.190959 2.809761
v 2.510737 -0.190959 2.808630
v 2.507519 -0.190959 2.808117
v 2.504263 -0.190959 2.808241
v 2.501093 -0.190959 2.808999
v 2.498132 -0.190959 2.810360
v 2.640584 -0.217391 2.989704
v 2.640498 -0.190797 2.989608
v 2.569648 -0.217910 2.909706
v 2.569562 -0.191316 2.909609
v 2.654469 -0.217391 2.977392
v 2.654383 -0.190797 2.977296
v 2.583533 -0.217910 2.897394
v 2.583447 -0.191316 2.897297
v 2.556760 -0.217518 2.896318
v 2.556674 -0.190925 2.896222
v 2.520738 -0.217782 2.855695
v 2.520653 -0.191188 2.855598
v 2.570645 -0.217518 2.884006
v 2.570559 -0.190925 2.883910
v 2.534623 -0.217782 2.843383
v 2.534538 -0.191188 2.843287
vn 0.0000 -1.0000 0.0000
vn 0.0000 1.0000 0.0000
vn -0.9379 0.0000 -0.3470
vn -0.2324 0.0000 -0.9726
vn 0.7337 0.0000 0.6795
vn -0.9875 0.0000 -0.1576
vn -0.4176 0.0000 -0.9086
vn 0.8521 0.0000 0.5234
vn -0.9993 0.0000 0.0383
vn -0.5869 0.0000 -0.8096
vn 0.9378 0.0000 0.3471
vn -0.9726 0.0000 0.2324
vn 0.9875 0.0000 0.1575
vn -0.9086 0.0000 0.4176
vn 0.9993 0.0000 -0.0383
vn -0.8096 0.0000 0.5870
vn 0.9726 0.0000 -0.2324
vn -0.6795 0.0000 0.7337
vn 0.9086 0.0000 -0.4177
vn -0.5234 0.0000 0.8521
vn 0.8096 0.0000 -0.5869
vn -0.3471 0.0000 0.9378
vn 0.6795 0.0000 -0.7336
vn -0.1575 0.0000 0.9875
vn 0.5234 0.0000 -0.8521
vn 0.0382 0.0000 0.9993
vn 0.3472 0.0000 -0.9378
vn 0.2324 0.0000 0.9726
vn -0.7336 0.0000 -0.6796
vn 0.1575 0.0000 -0.9875
vn 0.4176 0.0000 0.9086
vn -0.8520 0.0000 -0.5235
vn -0.0382 0.0000 -0.9993
vn 0.5869 0.0000 0.8097
vn -0.7482 0.0000 0.6635
vn -0.6634 -0.0049 -0.7482
vn 0.7482 -0.0000 -0.6635
vn 0.6635 0.0048 0.7482
vn 0.0032 -1.0000 0.0036
vn -0.0032 1.0000 -0.0036
vn -0.6634 -0.0048 -0.7482
vn 0.6634 0.0049 0.7482
vn 0.0000 -1.0000 -0.0001
vn 0.0000 1.0000 0.0001
vn -0.4177 0.0000 -0.9086
vn -0.5870 0.0000 -0.8096
vn -0.9086 0.0000 0.4178
vn -0.8096 0.0000 0.5869
vn -0.6796 0.0000 0.7336
vn 0.9086 0.0000 -0.4176
vn -0.5235 0.0000 0.8520
vn -0.3470 0.0000 0.9379
vn 0.6796 0.0000 -0.7336
vn -0.1576 0.0000 0.9875
vn 0.0383 0.0000 0.9993
vn 0.1574 0.0000 -0.9875
vn 0.4177 0.0000 0.9086
vn 0.5870 0.0000 0.8096
vn -0.6635 -0.0048 -0.7482
vn 0.6634 0.0048 0.7482
s off
f 27//1 19//1 11//1
f 49//2 57//2 33//2
f 4//3 35//3 3//3
f 31//4 62//4 30//4
f 18//5 49//5 17//5
f 5//6 36//6 4//6
f 32//7 63//7 31//7
f 19//8 50//8 18//8
f 6//9 37//9 5//9
f 1//10 64//10 32//10
f 20//11 51//11 19//11
f 7//12 38//12 6//12
f 21//13 52//13 20//13
f 8//14 39//14 7//14
f 22//15 53//15 21//15
f 9//16 40//16 8//16
f 23//17 54//17 22//17
f 10//18 41//18 9//18
f 24//19 55//19 23//19
f 11//20 42//20 10//20
f 25//21 56//21 24//21
f 12//22 43//22 11//22
f 26//23 57//23 25//23
f 13//24 44//24 12//24
f 27//25 58//25 26//25
f 14//26 45//26 13//26
f 28//27 59//27 27//27
f 15//28 46//28 14//28
f 2//29 33//29 1//29
f 29//30 60//30 28//30
f 16//31 47//31 15//31
f 3//32 34//32 2//32
f 30//33 61//33 29//33
f 17//34 48//34 16//34
f 65//35 68//35 67//35
f 68//36 71//36 67//36
f 72//37 69//37 71//37
f 70//38 65//38 69//38
f 71//39 65//39 67//39
f 72//40 66//40 70//40
f 73//35 76//35 75//35
f 75//41 80//41 79//41
f 80//37 77//37 79//37
f 77//42 74//42 73//42
f 79//39 73//39 75//39
f 80//40 74//40 78//40
f 3//1 2//1 1//1
f 1//1 32//1 31//1
f 31//43 30//43 29//43
f 29//1 28//1 27//1
f 27//1 26//1 23//1
f 26//1 25//1 23//1
f 25//1 24//1 23//1
f 23//1 22//1 19//1
f 22//1 21//1 19//1
f 21//1 20//1 19//1
f 19//1 18//1 17//1
f 17//1 16//1 19//1
f 16//1 15//1 19//1
f 15//1 14//1 13//1
f 13//43 12//43 11//43
f 11//1 10//1 9//1
f 9//1 8//1 7//1
f 7//1 6//1 5//1
f 5//1 4//1 7//1
f 4//1 3//1 7//1
f 3//1 1//1 27//1
f 1//1 31//1 27//1
f 31//1 29//1 27//1
f 15//1 13//1 19//1
f 13//1 11//1 19//1
f 11//1 9//1 3//1
f 9//1 7//1 3//1
f 27//1 23//1 19//1
f 3//1 27//1 11//1
f 33//2 34//2 35//2
f 35//2 36//2 33//2
f 36//2 37//2 33//2
f 37//2 38//2 39//2
f 39//2 40//2 41//2
f 41//2 42//2 45//2
f 42//2 43//2 45//2
f 43//2 44//2 45//2
f 45//44 46//44 47//44
f 47//2 48//2 45//2
f 48//2 49//2 45//2
f 49//2 50//2 51//2
f 51//2 52//2 49//2
f 52//2 53//2 49//2
f 53//2 54//2 57//2
f 54//2 55//2 57//2
f 55//2 56//2 57//2
f 57//2 58//2 59//2
f 59//2 60//2 61//2
f 61//2 62//2 33//2
f 62//2 63//2 33//2
f 63//2 64//2 33//2
f 37//2 39//2 33//2
f 39//2 41//2 33//2
f 57//2 59//2 33//2
f 59//2 61//2 33//2
f 41//2 45//2 33//2
f 45//2 49//2 33//2
f 49//2 53//2 57//2
f 4//3 36//3 35//3
f 31//4 63//4 62//4
f 18//5 50//5 49//5
f 5//6 37//6 36//6
f 32//45 64//45 63//45
f 19//8 51//8 50//8
f 6//9 38//9 37//9
f 1//46 33//46 64//46
f 20//11 52//11 51//11
f 7//12 39//12 38//12
f 21//13 53//13 52//13
f 8//47 40//47 39//47
f 22//15 54//15 53//15
f 9//48 41//48 40//48
f 23//17 55//17 54//17
f 10//49 42//49 41//49
f 24//50 56//50 55//50
f 11//51 43//51 42//51
f 25//21 57//21 56//21
f 12//52 44//52 43//52
f 26//53 58//53 57//53
f 13//54 45//54 44//54
f 27//25 59//25 58//25
f 14//55 46//55 45//55
f 28//27 60//27 59//27
f 15//28 47//28 46//28
f 2//29 34//29 33//29
f 29//56 61//56 60//56
f 16//57 48//57 47//57
f 3//32 35//32 34//32
f 30//33 62//33 61//33
f 17//58 49//58 48//58
f 65//35 66//35 68//35
f 68//59 72//59 71//59
f 72//37 70//37 69//37
f 70//60 66//60 65//60
f 71//39 69//39 65//39
f 72//40 68//40 66//40
f 73//35 74//35 76//35
f 75//36 76//36 80//36
f 80//37 78//37 77//37
f 77//60 78//60 74//60
f 79//39 77//39 73//39
f 80//40 76//40 74//40
