# Blender v2.79 (sub 7) OBJ File: 'Universe Gate.blend'
# www.blender.org
o 33_Circle.012
v 3.164314 -0.210062 2.009338
v 3.162844 -0.210062 2.012247
v 3.161970 -0.210062 2.015386
v 3.161725 -0.210062 2.018636
v 3.162119 -0.210062 2.021871
v 3.163136 -0.210062 2.024967
v 3.164738 -0.210062 2.027806
v 3.166863 -0.210062 2.030277
v 3.169429 -0.210062 2.032286
v 3.172337 -0.210062 2.033756
v 3.175477 -0.210062 2.034630
v 3.178726 -0.210062 2.034875
v 3.181962 -0.210062 2.034481
v 3.185058 -0.210062 2.033464
v 3.187896 -0.210062 2.031862
v 3.190367 -0.210062 2.029737
v 3.192376 -0.210062 2.027171
v 3.193846 -0.210062 2.024263
v 3.194721 -0.210062 2.021123
v 3.194966 -0.210062 2.017874
v 3.194572 -0.210062 2.014638
v 3.193555 -0.210062 2.011542
v 3.191953 -0.210062 2.008704
v 3.189828 -0.210062 2.006233
v 3.187262 -0.210062 2.004224
v 3.184353 -0.210062 2.002754
v 3.181214 -0.210062 2.001880
v 3.177964 -0.210062 2.001635
v 3.174729 -0.210062 2.002028
v 3.171633 -0.210062 2.003046
v 3.168795 -0.210062 2.004647
v 3.166323 -0.210062 2.006772
v 3.164314 -0.190960 2.009338
v 3.162844 -0.190960 2.012247
v 3.161970 -0.190960 2.015386
v 3.161725 -0.190960 2.018636
v 3.162119 -0.190960 2.021871
v 3.163136 -0.190960 2.024967
v 3.164738 -0.190960 2.027806
v 3.166863 -0.190960 2.030277
v 3.169429 -0.190960 2.032286
v 3.172337 -0.190960 2.033756
v 3.175477 -0.190960 2.034630
v 3.178726 -0.190960 2.034875
v 3.181962 -0.190960 2.034481
v 3.185058 -0.190960 2.033464
v 3.187896 -0.190960 2.031862
v 3.190367 -0.190960 2.029737
v 3.192376 -0.190960 2.027171
v 3.193846 -0.190960 2.024263
v 3.194721 -0.190960 2.021123
v 3.194966 -0.190960 2.017874
v 3.194572 -0.190960 2.014638
v 3.193555 -0.190960 2.011542
v 3.191953 -0.190960 2.008704
v 3.189828 -0.190960 2.006233
v 3.187262 -0.190960 2.004224
v 3.184353 -0.190960 2.002754
v 3.181214 -0.190960 2.001880
v 3.177964 -0.190960 2.001635
v 3.174729 -0.190960 2.002028
v 3.171633 -0.190960 2.003046
v 3.168795 -0.190960 2.004647
v 3.166323 -0.190960 2.006772
v 3.357173 -0.217519 2.143081
v 3.357064 -0.190925 2.143012
v 3.311349 -0.217782 2.113960
v 3.311241 -0.191189 2.113891
v 3.367126 -0.217519 2.127418
v 3.367017 -0.190925 2.127349
v 3.321303 -0.217782 2.098297
v 3.321194 -0.191189 2.098228
v 3.250064 -0.210226 2.064019
v 3.248593 -0.210226 2.066928
v 3.247719 -0.210226 2.070067
v 3.247474 -0.210226 2.073317
v 3.247868 -0.210226 2.076552
v 3.248886 -0.210226 2.079648
v 3.250487 -0.210226 2.082487
v 3.252612 -0.210226 2.084958
v 3.255178 -0.210226 2.086967
v 3.258087 -0.210226 2.088437
v 3.261226 -0.210226 2.089311
v 3.264476 -0.210226 2.089556
v 3.267711 -0.210226 2.089162
v 3.270807 -0.210226 2.088145
v 3.273645 -0.210226 2.086543
v 3.276116 -0.210226 2.084419
v 3.278126 -0.210226 2.081853
v 3.279596 -0.210226 2.078944
v 3.280470 -0.210226 2.075804
v 3.280715 -0.210226 2.072555
v 3.280321 -0.210226 2.069319
v 3.279304 -0.210226 2.066223
v 3.277702 -0.210226 2.063385
v 3.275577 -0.210226 2.060914
v 3.273011 -0.210226 2.058905
v 3.270103 -0.210226 2.057435
v 3.266963 -0.210226 2.056561
v 3.263713 -0.210226 2.056316
v 3.260478 -0.210226 2.056709
v 3.257382 -0.210226 2.057727
v 3.254544 -0.210226 2.059328
v 3.252073 -0.210226 2.061453
v 3.250064 -0.191123 2.064019
v 3.248593 -0.191123 2.066928
v 3.247719 -0.191123 2.070067
v 3.247474 -0.191123 2.073317
v 3.247868 -0.191123 2.076552
v 3.248886 -0.191123 2.079648
v 3.250487 -0.191123 2.082487
v 3.252612 -0.191123 2.084958
v 3.255178 -0.191123 2.086967
v 3.258087 -0.191123 2.088437
v 3.261226 -0.191123 2.089311
v 3.264476 -0.191123 2.089556
v 3.267711 -0.191123 2.089162
v 3.270807 -0.191123 2.088145
v 3.273645 -0.191123 2.086543
v 3.276116 -0.191123 2.084419
v 3.278126 -0.191123 2.081853
v 3.279596 -0.191123 2.078944
v 3.280470 -0.191123 2.075804
v 3.280715 -0.191123 2.072555
v 3.280321 -0.191123 2.069319
v 3.279304 -0.191123 2.066223
v 3.277702 -0.191123 2.063385
v 3.275577 -0.191123 2.060914
v 3.273011 -0.191123 2.058905
v 3.270103 -0.191123 2.057435
v 3.266963 -0.191123 2.056561
v 3.263713 -0.191123 2.056316
v 3.260478 -0.191123 2.056709
v 3.257382 -0.191123 2.057727
v 3.254544 -0.191123 2.059328
v 3.252073 -0.191123 2.061453
v 3.239889 -0.217519 2.068547
v 3.239780 -0.190925 2.068478
v 3.194065 -0.217782 2.039426
v 3.193957 -0.191189 2.039357
v 3.249842 -0.217519 2.052884
v 3.249733 -0.190925 2.052815
v 3.204019 -0.217782 2.023764
v 3.203910 -0.191189 2.023695
v 3.282829 -0.210062 2.084841
v 3.281359 -0.210062 2.087750
v 3.280485 -0.210062 2.090890
v 3.280240 -0.210062 2.094139
v 3.280633 -0.210062 2.097374
v 3.281651 -0.210062 2.100471
v 3.283253 -0.210062 2.103309
v 3.285377 -0.210062 2.105780
v 3.287943 -0.210062 2.107789
v 3.290852 -0.210062 2.109259
v 3.293992 -0.210062 2.110133
v 3.297241 -0.210062 2.110378
v 3.300477 -0.210062 2.109985
v 3.303573 -0.210062 2.108967
v 3.306411 -0.210062 2.107366
v 3.308882 -0.210062 2.105241
v 3.310891 -0.210062 2.102675
v 3.312361 -0.210062 2.099766
v 3.313236 -0.210062 2.096627
v 3.313480 -0.210062 2.093377
v 3.313087 -0.210062 2.090142
v 3.312069 -0.210062 2.087045
v 3.310468 -0.210062 2.084208
v 3.308343 -0.210062 2.081736
v 3.305777 -0.210062 2.079727
v 3.302868 -0.210062 2.078257
v 3.299729 -0.210062 2.077383
v 3.296479 -0.210062 2.077138
v 3.293244 -0.210062 2.077532
v 3.290148 -0.210062 2.078549
v 3.287310 -0.210062 2.080151
v 3.284838 -0.210062 2.082275
v 3.282829 -0.190960 2.084841
v 3.281359 -0.190960 2.087750
v 3.280485 -0.190960 2.090890
v 3.280240 -0.190960 2.094139
v 3.280633 -0.190960 2.097374
v 3.281651 -0.190960 2.100471
v 3.283253 -0.190960 2.103309
v 3.285377 -0.190960 2.105780
v 3.287943 -0.190960 2.107789
v 3.290852 -0.190960 2.109259
v 3.293992 -0.190960 2.110133
v 3.297241 -0.190960 2.110378
v 3.300477 -0.190960 2.109985
v 3.303573 -0.190960 2.108967
v 3.306411 -0.190960 2.107366
v 3.308882 -0.190960 2.105241
v 3.310891 -0.190960 2.102675
v 3.312361 -0.190960 2.099766
v 3.313236 -0.190960 2.096627
v 3.313480 -0.190960 2.093377
v 3.313087 -0.190960 2.090142
v 3.312069 -0.190960 2.087045
v 3.310468 -0.190960 2.084208
v 3.308343 -0.190960 2.081736
v 3.305777 -0.190960 2.079727
v 3.302868 -0.190960 2.078257
v 3.299729 -0.190960 2.077383
v 3.296479 -0.190960 2.077138
v 3.293244 -0.190960 2.077532
v 3.290148 -0.190960 2.078549
v 3.287310 -0.190960 2.080151
v 3.284838 -0.190960 2.082275
v 3.369613 -0.210062 2.138920
v 3.368143 -0.210062 2.141829
v 3.367269 -0.210062 2.144969
v 3.367024 -0.210062 2.148218
v 3.367418 -0.210062 2.151453
v 3.368435 -0.210062 2.154549
v 3.370037 -0.210062 2.157388
v 3.372161 -0.210062 2.159859
v 3.374727 -0.210062 2.161868
v 3.377636 -0.210062 2.163338
v 3.380776 -0.210062 2.164212
v 3.384025 -0.210062 2.164457
v 3.387260 -0.210062 2.164063
v 3.390357 -0.210062 2.163046
v 3.393195 -0.210062 2.161444
v 3.395666 -0.210062 2.159319
v 3.397675 -0.210062 2.156754
v 3.399145 -0.210062 2.153845
v 3.400020 -0.210062 2.150705
v 3.400265 -0.210062 2.147456
v 3.399871 -0.210062 2.144221
v 3.398853 -0.210062 2.141124
v 3.397251 -0.210062 2.138286
v 3.395127 -0.210062 2.135815
v 3.392561 -0.210062 2.133806
v 3.389652 -0.210062 2.132336
v 3.386513 -0.210062 2.131462
v 3.383263 -0.210062 2.131217
v 3.380028 -0.210062 2.131610
v 3.376932 -0.210062 2.132628
v 3.374094 -0.210062 2.134229
v 3.371622 -0.210062 2.136354
v 3.369613 -0.190960 2.138920
v 3.368143 -0.190960 2.141829
v 3.367269 -0.190960 2.144969
v 3.367024 -0.190960 2.148218
v 3.367418 -0.190960 2.151453
v 3.368435 -0.190960 2.154549
v 3.370037 -0.190960 2.157388
v 3.372161 -0.190960 2.159859
v 3.374727 -0.190960 2.161868
v 3.377636 -0.190960 2.163338
v 3.380776 -0.190960 2.164212
v 3.384025 -0.190960 2.164457
v 3.387260 -0.190960 2.164063
v 3.390357 -0.190960 2.163046
v 3.393195 -0.190960 2.161444
v 3.395666 -0.190960 2.159319
v 3.397675 -0.190960 2.156754
v 3.399145 -0.190960 2.153845
v 3.400020 -0.190960 2.150705
v 3.400265 -0.190960 2.147456
v 3.399871 -0.190960 2.144221
v 3.398853 -0.190960 2.141124
v 3.397251 -0.190960 2.138286
v 3.395127 -0.190960 2.135815
v 3.392561 -0.190960 2.133806
v 3.389652 -0.190960 2.132336
v 3.386513 -0.190960 2.131462
v 3.383263 -0.190960 2.131217
v 3.380028 -0.190960 2.131610
v 3.376932 -0.190960 2.132628
v 3.374094 -0.190960 2.134229
v 3.371622 -0.190960 2.136354
vn 0.0000 -1.0000 0.0000
vn 0.0000 1.0000 0.0000
vn -0.9972 0.0000 -0.0752
vn -0.4916 0.0000 -0.8708
vn 0.8925 0.0000 0.4511
vn -0.9927 0.0000 0.1208
vn -0.6518 0.0000 -0.7584
vn 0.9633 0.0000 0.2683
vn -0.9500 0.0000 0.3122
vn -0.7874 0.0000 -0.6164
vn 0.9972 0.0000 0.0752
vn -0.8708 0.0000 0.4916
vn 0.9927 0.0000 -0.1208
vn -0.7583 0.0000 0.6520
vn 0.9500 0.0000 -0.3122
vn -0.6165 0.0000 0.7874
vn 0.8709 0.0000 -0.4915
vn -0.4511 0.0000 0.8925
vn 0.7583 0.0000 -0.6519
vn -0.2683 0.0000 0.9633
vn 0.6164 0.0000 -0.7874
vn -0.0750 0.0000 0.9972
vn 0.4511 0.0000 -0.8925
vn 0.1209 0.0000 0.9927
vn 0.2682 0.0000 -0.9634
vn 0.3120 0.0000 0.9501
vn 0.0753 0.0000 -0.9972
vn 0.4916 0.0000 0.8708
vn -0.8925 0.0000 -0.4511
vn -0.1209 0.0000 -0.9927
vn 0.6518 0.0000 0.7584
vn -0.9634 0.0000 -0.2682
vn -0.3121 0.0000 -0.9500
vn 0.7874 0.0000 0.6164
vn -0.5364 0.0000 0.8440
vn -0.8440 -0.0048 -0.5363
vn 0.5364 0.0000 -0.8440
vn 0.8440 0.0048 0.5364
vn 0.0041 -1.0000 0.0026
vn -0.0041 1.0000 -0.0026
vn -0.9972 0.0000 -0.0751
vn -0.4915 0.0000 -0.8709
vn -0.6519 0.0000 -0.7583
vn -0.7874 0.0000 -0.6165
vn -0.8709 0.0000 0.4915
vn 0.9927 0.0000 -0.1209
vn -0.7582 0.0000 0.6520
vn -0.6166 0.0000 0.7873
vn -0.4510 0.0000 0.8925
vn 0.6166 0.0000 -0.7873
vn 0.3122 0.0000 0.9500
vn 0.4915 0.0000 0.8709
vn -0.8924 0.0000 -0.4512
vn -0.1207 0.0000 -0.9927
vn 0.6520 0.0000 0.7582
vn -0.3123 0.0000 -0.9500
vn 0.7874 0.0000 0.6165
vn -0.8440 -0.0048 -0.5364
vn 0.8440 0.0048 0.5363
vn -0.4914 0.0000 -0.8709
vn 0.8925 0.0000 0.4510
vn -0.9927 0.0000 0.1207
vn -0.6520 0.0000 -0.7582
vn 0.9633 0.0000 0.2684
vn 0.9972 0.0000 0.0751
vn 0.9500 0.0000 -0.3121
vn 0.8708 0.0000 -0.4916
vn 0.7583 0.0000 -0.6520
vn 0.4510 0.0000 -0.8925
vn 0.3121 0.0000 0.9500
vn 0.0752 0.0000 -0.9972
vn -0.9633 0.0000 -0.2683
vn -0.7873 0.0000 -0.6165
vn -0.8709 0.0000 0.4914
vn -0.2684 0.0000 0.9633
vn 0.6165 0.0000 -0.7874
vn -0.0752 0.0000 0.9972
vn 0.4512 0.0000 -0.8924
vn 0.1206 0.0000 0.9927
vn 0.4914 0.0000 0.8709
vn -0.8925 0.0000 -0.4510
vn -0.1206 0.0000 -0.9927
vn 0.0000 -1.0000 -0.0001
vn 0.0000 -1.0000 0.0001
vn 0.0000 1.0000 -0.0001
vn 0.0000 1.0000 0.0001
vn -0.4915 0.0000 -0.8708
vn -0.9500 0.0000 0.3121
vn -0.7873 0.0000 -0.6166
vn -0.2682 0.0000 0.9634
vn -0.0753 0.0000 0.9972
vn 0.1207 0.0000 0.9927
vn -0.3122 0.0000 -0.9500
vn 0.8440 0.0049 0.5363
vn 0.7582 0.0000 -0.6520
vn 0.2683 0.0000 -0.9633
vn 0.0750 0.0000 -0.9972
vn -0.3120 0.0000 -0.9501
vn 0.7873 0.0000 0.6166
vn -0.6165 0.0000 0.7873
vn 0.7584 0.0000 -0.6518
vn -0.8926 0.0000 -0.4509
vn -0.9633 0.0000 -0.2684
vn 0.7873 0.0000 0.6165
s off
f 15//1 11//1 3//1
f 49//2 57//2 33//2
f 4//3 35//3 3//3
f 31//4 62//4 30//4
f 18//5 49//5 17//5
f 5//6 36//6 4//6
f 32//7 63//7 31//7
f 19//8 50//8 18//8
f 6//9 37//9 5//9
f 1//10 64//10 32//10
f 20//11 51//11 19//11
f 7//12 38//12 6//12
f 21//13 52//13 20//13
f 8//14 39//14 7//14
f 22//15 53//15 21//15
f 9//16 40//16 8//16
f 23//17 54//17 22//17
f 10//18 41//18 9//18
f 24//19 55//19 23//19
f 11//20 42//20 10//20
f 25//21 56//21 24//21
f 12//22 43//22 11//22
f 26//23 57//23 25//23
f 13//24 44//24 12//24
f 27//25 58//25 26//25
f 14//26 45//26 13//26
f 28//27 59//27 27//27
f 15//28 46//28 14//28
f 2//29 33//29 1//29
f 29//30 60//30 28//30
f 16//31 47//31 15//31
f 3//32 34//32 2//32
f 30//33 61//33 29//33
f 17//34 48//34 16//34
f 65//35 68//35 67//35
f 67//36 72//36 71//36
f 72//37 69//37 71//37
f 70//38 65//38 69//38
f 67//39 69//39 65//39
f 68//40 70//40 72//40
f 79//1 75//1 91//1
f 121//2 129//2 105//2
f 76//41 107//41 75//41
f 103//42 134//42 102//42
f 90//5 121//5 89//5
f 77//6 108//6 76//6
f 104//43 135//43 103//43
f 91//8 122//8 90//8
f 78//9 109//9 77//9
f 73//44 136//44 104//44
f 92//11 123//11 91//11
f 79//45 110//45 78//45
f 93//46 124//46 92//46
f 80//47 111//47 79//47
f 94//15 125//15 93//15
f 81//48 112//48 80//48
f 95//17 126//17 94//17
f 82//49 113//49 81//49
f 96//19 127//19 95//19
f 83//20 114//20 82//20
f 97//50 128//50 96//50
f 84//22 115//22 83//22
f 98//23 129//23 97//23
f 85//24 116//24 84//24
f 99//25 130//25 98//25
f 86//51 117//51 85//51
f 100//27 131//27 99//27
f 87//52 118//52 86//52
f 74//53 105//53 73//53
f 101//54 132//54 100//54
f 88//55 119//55 87//55
f 75//32 106//32 74//32
f 102//56 133//56 101//56
f 89//57 120//57 88//57
f 137//35 140//35 139//35
f 139//58 144//58 143//58
f 144//37 141//37 143//37
f 142//59 137//59 141//59
f 143//39 137//39 139//39
f 144//40 138//40 142//40
f 171//1 163//1 155//1
f 197//2 201//2 177//2
f 148//41 179//41 147//41
f 175//60 206//60 174//60
f 162//61 193//61 161//61
f 149//62 180//62 148//62
f 176//63 207//63 175//63
f 163//64 194//64 162//64
f 150//9 181//9 149//9
f 145//44 208//44 176//44
f 164//65 195//65 163//65
f 151//45 182//45 150//45
f 165//13 196//13 164//13
f 152//47 183//47 151//47
f 166//66 197//66 165//66
f 153//16 184//16 152//16
f 167//67 198//67 166//67
f 154//49 185//49 153//49
f 168//68 199//68 167//68
f 155//20 186//20 154//20
f 169//50 200//50 168//50
f 156//22 187//22 155//22
f 170//69 201//69 169//69
f 157//24 188//24 156//24
f 171//25 202//25 170//25
f 158//70 189//70 157//70
f 172//71 203//71 171//71
f 159//52 190//52 158//52
f 146//29 177//29 145//29
f 173//30 204//30 172//30
f 160//55 191//55 159//55
f 147//72 178//72 146//72
f 174//33 205//33 173//33
f 161//57 192//57 160//57
f 227//1 219//1 211//1
f 249//2 257//2 265//2
f 212//41 243//41 211//41
f 239//60 270//60 238//60
f 226//5 257//5 225//5
f 213//6 244//6 212//6
f 240//63 271//63 239//63
f 227//64 258//64 226//64
f 214//9 245//9 213//9
f 209//73 272//73 240//73
f 228//65 259//65 227//65
f 215//74 246//74 214//74
f 229//46 260//46 228//46
f 216//47 247//47 215//47
f 230//15 261//15 229//15
f 217//16 248//16 216//16
f 231//17 262//17 230//17
f 218//18 249//18 217//18
f 232//19 263//19 231//19
f 219//75 250//75 218//75
f 233//76 264//76 232//76
f 220//77 251//77 219//77
f 234//78 265//78 233//78
f 221//79 252//79 220//79
f 235//25 266//25 234//25
f 222//51 253//51 221//51
f 236//71 267//71 235//71
f 223//80 254//80 222//80
f 210//81 241//81 209//81
f 237//82 268//82 236//82
f 224//55 255//55 223//55
f 211//72 242//72 210//72
f 238//56 269//56 237//56
f 225//34 256//34 224//34
f 3//1 2//1 1//1
f 1//1 32//1 31//1
f 31//1 30//1 27//1
f 30//1 29//1 27//1
f 29//83 28//83 27//83
f 27//83 26//83 25//83
f 25//1 24//1 23//1
f 23//1 22//1 21//1
f 21//1 20//1 19//1
f 19//1 18//1 15//1
f 18//1 17//1 15//1
f 17//1 16//1 15//1
f 15//84 14//84 13//84
f 13//1 12//1 15//1
f 12//1 11//1 15//1
f 11//1 10//1 9//1
f 9//1 8//1 7//1
f 7//1 6//1 3//1
f 6//1 5//1 3//1
f 5//1 4//1 3//1
f 3//1 1//1 31//1
f 27//1 25//1 23//1
f 23//1 21//1 19//1
f 11//1 9//1 3//1
f 9//1 7//1 3//1
f 3//1 31//1 19//1
f 31//1 27//1 19//1
f 27//1 23//1 19//1
f 19//1 15//1 3//1
f 33//2 34//2 35//2
f 35//2 36//2 37//2
f 37//2 38//2 41//2
f 38//2 39//2 41//2
f 39//85 40//85 41//85
f 41//86 42//86 43//86
f 43//2 44//2 41//2
f 44//2 45//2 41//2
f 45//2 46//2 47//2
f 47//2 48//2 49//2
f 49//2 50//2 53//2
f 50//2 51//2 53//2
f 51//2 52//2 53//2
f 53//2 54//2 55//2
f 55//86 56//86 57//86
f 57//85 58//85 59//85
f 59//2 60//2 61//2
f 61//86 62//86 63//86
f 63//2 64//2 33//2
f 33//2 35//2 41//2
f 35//2 37//2 41//2
f 45//2 47//2 41//2
f 47//2 49//2 41//2
f 53//2 55//2 49//2
f 55//2 57//2 49//2
f 57//2 59//2 61//2
f 61//2 63//2 57//2
f 63//2 33//2 57//2
f 33//2 41//2 49//2
f 4//3 36//3 35//3
f 31//87 63//87 62//87
f 18//5 50//5 49//5
f 5//6 37//6 36//6
f 32//43 64//43 63//43
f 19//8 51//8 50//8
f 6//88 38//88 37//88
f 1//89 33//89 64//89
f 20//11 52//11 51//11
f 7//45 39//45 38//45
f 21//13 53//13 52//13
f 8//47 40//47 39//47
f 22//15 54//15 53//15
f 9//48 41//48 40//48
f 23//67 55//67 54//67
f 10//18 42//18 41//18
f 24//19 56//19 55//19
f 11//90 43//90 42//90
f 25//76 57//76 56//76
f 12//91 44//91 43//91
f 26//23 58//23 57//23
f 13//92 45//92 44//92
f 27//25 59//25 58//25
f 14//51 46//51 45//51
f 28//71 60//71 59//71
f 15//52 47//52 46//52
f 2//29 34//29 33//29
f 29//82 61//82 60//82
f 16//55 48//55 47//55
f 3//32 35//32 34//32
f 30//93 62//93 61//93
f 17//34 49//34 48//34
f 65//35 66//35 68//35
f 67//36 68//36 72//36
f 72//37 70//37 69//37
f 70//94 66//94 65//94
f 67//39 71//39 69//39
f 68//40 66//40 70//40
f 75//1 74//1 73//1
f 73//1 104//1 103//1
f 103//1 102//1 99//1
f 102//1 101//1 99//1
f 101//1 100//1 99//1
f 99//1 98//1 97//1
f 97//1 96//1 99//1
f 96//1 95//1 99//1
f 95//1 94//1 91//1
f 94//1 93//1 91//1
f 93//1 92//1 91//1
f 91//1 90//1 89//1
f 89//1 88//1 91//1
f 88//1 87//1 91//1
f 87//1 86//1 85//1
f 85//1 84//1 87//1
f 84//1 83//1 87//1
f 83//1 82//1 79//1
f 82//1 81//1 79//1
f 81//1 80//1 79//1
f 79//1 78//1 77//1
f 77//1 76//1 79//1
f 76//1 75//1 79//1
f 75//1 73//1 99//1
f 73//1 103//1 99//1
f 99//1 95//1 75//1
f 95//1 91//1 75//1
f 91//1 87//1 83//1
f 83//1 79//1 91//1
f 105//2 106//2 107//2
f 107//2 108//2 105//2
f 108//2 109//2 105//2
f 109//2 110//2 111//2
f 111//2 112//2 109//2
f 112//2 113//2 109//2
f 113//2 114//2 117//2
f 114//2 115//2 117//2
f 115//2 116//2 117//2
f 117//85 118//85 119//85
f 119//2 120//2 117//2
f 120//2 121//2 117//2
f 121//2 122//2 123//2
f 123//2 124//2 125//2
f 125//2 126//2 127//2
f 127//2 128//2 125//2
f 128//2 129//2 125//2
f 129//2 130//2 133//2
f 130//2 131//2 133//2
f 131//86 132//86 133//86
f 133//2 134//2 105//2
f 134//2 135//2 105//2
f 135//2 136//2 105//2
f 121//2 123//2 129//2
f 123//2 125//2 129//2
f 105//2 109//2 121//2
f 109//2 113//2 121//2
f 113//2 117//2 121//2
f 129//2 133//2 105//2
f 76//41 108//41 107//41
f 103//42 135//42 134//42
f 90//5 122//5 121//5
f 77//6 109//6 108//6
f 104//63 136//63 135//63
f 91//8 123//8 122//8
f 78//9 110//9 109//9
f 73//10 105//10 136//10
f 92//11 124//11 123//11
f 79//45 111//45 110//45
f 93//13 125//13 124//13
f 80//47 112//47 111//47
f 94//66 126//66 125//66
f 81//48 113//48 112//48
f 95//67 127//67 126//67
f 82//18 114//18 113//18
f 96//95 128//95 127//95
f 83//75 115//75 114//75
f 97//76 129//76 128//76
f 84//77 116//77 115//77
f 98//23 130//23 129//23
f 85//92 117//92 116//92
f 99//96 131//96 130//96
f 86//70 118//70 117//70
f 100//97 132//97 131//97
f 87//80 119//80 118//80
f 74//29 106//29 105//29
f 101//30 133//30 132//30
f 88//55 120//55 119//55
f 75//32 107//32 106//32
f 102//98 134//98 133//98
f 89//99 121//99 120//99
f 137//35 138//35 140//35
f 139//58 140//58 144//58
f 144//37 142//37 141//37
f 142//94 138//94 137//94
f 143//39 141//39 137//39
f 144//40 140//40 138//40
f 147//1 146//1 145//1
f 145//1 176//1 175//1
f 175//1 174//1 171//1
f 174//1 173//1 171//1
f 173//83 172//83 171//83
f 171//84 170//84 169//84
f 169//1 168//1 171//1
f 168//1 167//1 171//1
f 167//1 166//1 165//1
f 165//1 164//1 163//1
f 163//1 162//1 159//1
f 162//1 161//1 159//1
f 161//1 160//1 159//1
f 159//84 158//84 157//84
f 157//1 156//1 159//1
f 156//1 155//1 159//1
f 155//83 154//83 153//83
f 153//1 152//1 151//1
f 151//1 150//1 149//1
f 149//1 148//1 151//1
f 148//1 147//1 151//1
f 147//1 145//1 171//1
f 145//1 175//1 171//1
f 167//1 165//1 171//1
f 165//1 163//1 171//1
f 155//1 153//1 147//1
f 153//1 151//1 147//1
f 163//1 159//1 155//1
f 147//1 171//1 155//1
f 177//2 178//2 179//2
f 179//2 180//2 177//2
f 180//2 181//2 177//2
f 181//2 182//2 183//2
f 183//2 184//2 181//2
f 184//2 185//2 181//2
f 185//86 186//86 187//86
f 187//2 188//2 185//2
f 188//2 189//2 185//2
f 189//2 190//2 191//2
f 191//2 192//2 189//2
f 192//2 193//2 189//2
f 193//2 194//2 197//2
f 194//2 195//2 197//2
f 195//2 196//2 197//2
f 197//2 198//2 199//2
f 199//2 200//2 197//2
f 200//2 201//2 197//2
f 201//2 202//2 203//2
f 203//2 204//2 205//2
f 205//2 206//2 177//2
f 206//2 207//2 177//2
f 207//2 208//2 177//2
f 201//2 203//2 177//2
f 203//2 205//2 177//2
f 177//2 181//2 185//2
f 185//2 189//2 177//2
f 189//2 193//2 177//2
f 193//2 197//2 177//2
f 148//41 180//41 179//41
f 175//42 207//42 206//42
f 162//61 194//61 193//61
f 149//62 181//62 180//62
f 176//43 208//43 207//43
f 163//64 195//64 194//64
f 150//9 182//9 181//9
f 145//44 177//44 208//44
f 164//65 196//65 195//65
f 151//45 183//45 182//45
f 165//13 197//13 196//13
f 152//47 184//47 183//47
f 166//15 198//15 197//15
f 153//100 185//100 184//100
f 167//17 199//17 198//17
f 154//18 186//18 185//18
f 168//19 200//19 199//19
f 155//75 187//75 186//75
f 169//76 201//76 200//76
f 156//77 188//77 187//77
f 170//69 202//69 201//69
f 157//79 189//79 188//79
f 171//25 203//25 202//25
f 158//51 190//51 189//51
f 172//27 204//27 203//27
f 159//80 191//80 190//80
f 146//29 178//29 177//29
f 173//30 205//30 204//30
f 160//55 192//55 191//55
f 147//32 179//32 178//32
f 174//56 206//56 205//56
f 161//99 193//99 192//99
f 211//1 210//1 239//1
f 210//1 209//1 239//1
f 209//84 240//84 239//84
f 239//1 238//1 235//1
f 238//1 237//1 235//1
f 237//84 236//84 235//84
f 235//84 234//84 233//84
f 233//1 232//1 231//1
f 231//1 230//1 229//1
f 229//1 228//1 231//1
f 228//1 227//1 231//1
f 227//1 226//1 225//1
f 225//83 224//83 223//83
f 223//84 222//84 221//84
f 221//1 220//1 223//1
f 220//1 219//1 223//1
f 219//1 218//1 217//1
f 217//84 216//84 215//84
f 215//1 214//1 213//1
f 213//1 212//1 215//1
f 212//1 211//1 215//1
f 235//1 233//1 231//1
f 227//1 225//1 219//1
f 225//1 223//1 219//1
f 219//1 217//1 211//1
f 217//1 215//1 211//1
f 211//1 239//1 235//1
f 235//1 231//1 211//1
f 231//1 227//1 211//1
f 241//2 242//2 243//2
f 243//2 244//2 241//2
f 244//2 245//2 241//2
f 245//2 246//2 247//2
f 247//2 248//2 245//2
f 248//2 249//2 245//2
f 249//86 250//86 251//86
f 251//2 252//2 249//2
f 252//2 253//2 249//2
f 253//2 254//2 257//2
f 254//2 255//2 257//2
f 255//2 256//2 257//2
f 257//2 258//2 261//2
f 258//2 259//2 261//2
f 259//2 260//2 261//2
f 261//2 262//2 263//2
f 263//2 264//2 265//2
f 265//85 266//85 267//85
f 267//2 268//2 265//2
f 268//2 269//2 265//2
f 269//85 270//85 271//85
f 271//2 272//2 241//2
f 261//2 263//2 257//2
f 263//2 265//2 257//2
f 269//2 271//2 265//2
f 271//2 241//2 265//2
f 241//2 245//2 249//2
f 249//2 253//2 257//2
f 241//2 249//2 265//2
f 212//41 244//41 243//41
f 239//42 271//42 270//42
f 226//5 258//5 257//5
f 213//6 245//6 244//6
f 240//43 272//43 271//43
f 227//64 259//64 258//64
f 214//9 246//9 245//9
f 209//73 241//73 272//73
f 228//65 260//65 259//65
f 215//45 247//45 246//45
f 229//13 261//13 260//13
f 216//14 248//14 247//14
f 230//15 262//15 261//15
f 217//16 249//16 248//16
f 231//67 263//67 262//67
f 218//49 250//49 249//49
f 232//101 264//101 263//101
f 219//20 251//20 250//20
f 233//21 265//21 264//21
f 220//22 252//22 251//22
f 234//78 266//78 265//78
f 221//24 253//24 252//24
f 235//25 267//25 266//25
f 222//70 254//70 253//70
f 236//97 268//97 267//97
f 223//52 255//52 254//52
f 210//102 242//102 241//102
f 237//30 269//30 268//30
f 224//55 256//55 255//55
f 211//103 243//103 242//103
f 238//33 270//33 269//33
f 225//104 257//104 256//104
