# Blender v2.79 (sub 7) OBJ File: 'Universe Gate.blend'
# www.blender.org
o 34_Circle.008
v 3.428134 -0.211637 1.568362
v 3.427864 -0.211637 1.573553
v 3.428611 -0.211637 1.578697
v 3.430348 -0.211637 1.583596
v 3.433006 -0.211637 1.588063
v 3.436485 -0.211637 1.591925
v 3.440651 -0.211637 1.595034
v 3.445344 -0.211637 1.597271
v 3.450382 -0.211637 1.598549
v 3.455573 -0.211637 1.598820
v 3.460716 -0.211637 1.598072
v 3.465616 -0.211637 1.596336
v 3.470083 -0.211637 1.593677
v 3.473944 -0.211637 1.590198
v 3.477054 -0.211637 1.586033
v 3.479290 -0.211637 1.581340
v 3.480569 -0.211637 1.576302
v 3.480839 -0.211637 1.571111
v 3.480092 -0.211637 1.565967
v 3.478356 -0.211637 1.561067
v 3.475697 -0.211637 1.556601
v 3.472218 -0.211637 1.552739
v 3.468052 -0.211637 1.549630
v 3.463360 -0.211637 1.547393
v 3.458321 -0.211637 1.546115
v 3.453131 -0.211637 1.545844
v 3.447986 -0.211637 1.546591
v 3.443087 -0.211637 1.548328
v 3.438620 -0.211637 1.550987
v 3.434759 -0.211637 1.554466
v 3.431649 -0.211637 1.558632
v 3.429413 -0.211637 1.563324
v 3.443614 -0.211637 1.570706
v 3.443504 -0.211637 1.572832
v 3.443810 -0.211637 1.574939
v 3.444520 -0.211637 1.576945
v 3.445609 -0.211637 1.578775
v 3.447034 -0.211637 1.580356
v 3.448740 -0.211637 1.581630
v 3.450662 -0.211637 1.582546
v 3.452725 -0.211637 1.583069
v 3.454852 -0.211637 1.583180
v 3.456958 -0.211637 1.582874
v 3.458965 -0.211637 1.582163
v 3.460794 -0.211637 1.581074
v 3.462376 -0.211637 1.579649
v 3.463649 -0.211637 1.577943
v 3.464566 -0.211637 1.576021
v 3.465089 -0.211637 1.573958
v 3.465200 -0.211637 1.571832
v 3.464893 -0.211637 1.569725
v 3.464183 -0.211637 1.567718
v 3.463094 -0.211637 1.565889
v 3.461668 -0.211637 1.564307
v 3.459963 -0.211637 1.563034
v 3.458041 -0.211637 1.562118
v 3.455977 -0.211637 1.561594
v 3.453852 -0.211637 1.561484
v 3.451745 -0.211637 1.561790
v 3.449738 -0.211637 1.562501
v 3.447909 -0.211637 1.563590
v 3.446327 -0.211637 1.565015
v 3.445054 -0.211637 1.566721
v 3.444138 -0.211637 1.568642
v 3.428134 -0.192084 1.568362
v 3.427864 -0.192084 1.573553
v 3.428611 -0.192084 1.578697
v 3.430348 -0.192084 1.583596
v 3.433006 -0.192084 1.588063
v 3.436485 -0.192084 1.591925
v 3.440651 -0.192084 1.595034
v 3.445344 -0.192084 1.597271
v 3.450382 -0.192084 1.598549
v 3.455573 -0.192084 1.598820
v 3.460716 -0.192084 1.598072
v 3.465616 -0.192084 1.596336
v 3.470083 -0.192084 1.593677
v 3.473944 -0.192084 1.590198
v 3.477054 -0.192084 1.586033
v 3.479290 -0.192084 1.581340
v 3.480569 -0.192084 1.576302
v 3.480839 -0.192084 1.571111
v 3.480092 -0.192084 1.565967
v 3.478356 -0.192084 1.561067
v 3.475697 -0.192084 1.556601
v 3.472218 -0.192084 1.552739
v 3.468052 -0.192084 1.549630
v 3.463360 -0.192084 1.547393
v 3.458321 -0.192084 1.546115
v 3.453131 -0.192084 1.545844
v 3.447986 -0.192084 1.546591
v 3.443087 -0.192084 1.548328
v 3.438620 -0.192084 1.550987
v 3.434759 -0.192084 1.554466
v 3.431649 -0.192084 1.558632
v 3.429413 -0.192084 1.563324
v 3.443614 -0.192084 1.570706
v 3.443504 -0.192084 1.572832
v 3.443810 -0.192084 1.574939
v 3.444520 -0.192084 1.576945
v 3.445609 -0.192084 1.578775
v 3.447034 -0.192084 1.580356
v 3.448740 -0.192084 1.581630
v 3.450662 -0.192084 1.582546
v 3.452725 -0.192084 1.583069
v 3.454852 -0.192084 1.583180
v 3.456958 -0.192084 1.582874
v 3.458965 -0.192084 1.582163
v 3.460794 -0.192084 1.581074
v 3.462376 -0.192084 1.579649
v 3.463649 -0.192084 1.577943
v 3.464566 -0.192084 1.576021
v 3.465089 -0.192084 1.573958
v 3.465200 -0.192084 1.571832
v 3.464893 -0.192084 1.569725
v 3.464183 -0.192084 1.567718
v 3.463094 -0.192084 1.565889
v 3.461668 -0.192084 1.564307
v 3.459963 -0.192084 1.563034
v 3.458041 -0.192084 1.562118
v 3.455977 -0.192084 1.561594
v 3.453852 -0.192084 1.561484
v 3.451745 -0.192084 1.561790
v 3.449738 -0.192084 1.562501
v 3.447909 -0.192084 1.563590
v 3.446327 -0.192084 1.565015
v 3.445054 -0.192084 1.566721
v 3.444138 -0.192084 1.568642
v 3.552402 -0.224432 1.631033
v 3.552254 -0.191038 1.630965
v 3.490419 -0.224763 1.602641
v 3.490272 -0.191369 1.602574
v 3.562106 -0.224432 1.609847
v 3.561959 -0.191038 1.609780
v 3.500123 -0.224763 1.581455
v 3.499976 -0.191369 1.581388
v 3.572615 -0.211080 1.637436
v 3.572345 -0.211080 1.642627
v 3.573092 -0.211080 1.647771
v 3.574828 -0.211080 1.652671
v 3.577487 -0.211080 1.657137
v 3.580966 -0.211080 1.660999
v 3.585132 -0.211080 1.664108
v 3.589824 -0.211080 1.666345
v 3.594862 -0.211080 1.667623
v 3.600054 -0.211080 1.667894
v 3.605197 -0.211080 1.667146
v 3.610097 -0.211080 1.665410
v 3.614564 -0.211080 1.662751
v 3.618426 -0.211080 1.659272
v 3.621535 -0.211080 1.655106
v 3.623772 -0.211080 1.650414
v 3.625049 -0.211080 1.645376
v 3.625320 -0.211080 1.640185
v 3.624573 -0.211080 1.635041
v 3.622837 -0.211080 1.630141
v 3.620178 -0.211080 1.625674
v 3.616699 -0.211080 1.621812
v 3.612533 -0.211080 1.618703
v 3.607841 -0.211080 1.616467
v 3.602802 -0.211080 1.615189
v 3.597612 -0.211080 1.614918
v 3.592467 -0.211080 1.615665
v 3.587568 -0.211080 1.617402
v 3.583102 -0.211080 1.620060
v 3.579239 -0.211080 1.623540
v 3.576130 -0.211080 1.627705
v 3.573894 -0.211080 1.632398
v 3.588095 -0.211080 1.639780
v 3.587984 -0.211080 1.641906
v 3.588290 -0.211080 1.644013
v 3.589001 -0.211080 1.646019
v 3.590090 -0.211080 1.647848
v 3.591515 -0.211080 1.649430
v 3.593221 -0.211080 1.650704
v 3.595144 -0.211080 1.651620
v 3.597206 -0.211080 1.652143
v 3.599333 -0.211080 1.652254
v 3.601439 -0.211080 1.651948
v 3.603446 -0.211080 1.651237
v 3.605275 -0.211080 1.650148
v 3.606857 -0.211080 1.648723
v 3.608130 -0.211080 1.647017
v 3.609046 -0.211080 1.645095
v 3.609569 -0.211080 1.643032
v 3.609681 -0.211080 1.640906
v 3.609375 -0.211080 1.638799
v 3.608664 -0.211080 1.636792
v 3.607575 -0.211080 1.634963
v 3.606149 -0.211080 1.633381
v 3.604444 -0.211080 1.632108
v 3.602522 -0.211080 1.631192
v 3.600458 -0.211080 1.630669
v 3.598332 -0.211080 1.630558
v 3.596226 -0.211080 1.630864
v 3.594219 -0.211080 1.631575
v 3.592390 -0.211080 1.632664
v 3.590808 -0.211080 1.634089
v 3.589535 -0.211080 1.635795
v 3.588619 -0.211080 1.637716
v 3.572615 -0.191527 1.637436
v 3.572345 -0.191527 1.642627
v 3.573092 -0.191527 1.647771
v 3.574828 -0.191527 1.652671
v 3.577487 -0.191527 1.657137
v 3.580966 -0.191527 1.660999
v 3.585132 -0.191527 1.664108
v 3.589824 -0.191527 1.666345
v 3.594862 -0.191527 1.667623
v 3.600054 -0.191527 1.667894
v 3.605197 -0.191527 1.667146
v 3.610097 -0.191527 1.665410
v 3.614564 -0.191527 1.662751
v 3.618426 -0.191527 1.659272
v 3.621535 -0.191527 1.655106
v 3.623772 -0.191527 1.650414
v 3.625049 -0.191527 1.645376
v 3.625320 -0.191527 1.640185
v 3.624573 -0.191527 1.635041
v 3.622837 -0.191527 1.630141
v 3.620178 -0.191527 1.625674
v 3.616699 -0.191527 1.621812
v 3.612533 -0.191527 1.618703
v 3.607841 -0.191527 1.616467
v 3.602802 -0.191527 1.615189
v 3.597612 -0.191527 1.614918
v 3.592467 -0.191527 1.615665
v 3.587568 -0.191527 1.617402
v 3.583102 -0.191527 1.620060
v 3.579239 -0.191527 1.623540
v 3.576130 -0.191527 1.627705
v 3.573894 -0.191527 1.632398
v 3.588095 -0.191527 1.639780
v 3.587984 -0.191527 1.641906
v 3.588290 -0.191527 1.644013
v 3.589001 -0.191527 1.646019
v 3.590090 -0.191527 1.647848
v 3.591515 -0.191527 1.649430
v 3.593221 -0.191527 1.650704
v 3.595144 -0.191527 1.651620
v 3.597206 -0.191527 1.652143
v 3.599333 -0.191527 1.652254
v 3.601439 -0.191527 1.651948
v 3.603446 -0.191527 1.651237
v 3.605275 -0.191527 1.650148
v 3.606857 -0.191527 1.648723
v 3.608130 -0.191527 1.647017
v 3.609046 -0.191527 1.645095
v 3.609569 -0.191527 1.643032
v 3.609681 -0.191527 1.640906
v 3.609375 -0.191527 1.638799
v 3.608664 -0.191527 1.636792
v 3.607575 -0.191527 1.634963
v 3.606149 -0.191527 1.633381
v 3.604444 -0.191527 1.632108
v 3.602522 -0.191527 1.631192
v 3.600458 -0.191527 1.630669
v 3.598332 -0.191527 1.630558
v 3.596226 -0.191527 1.630864
v 3.594219 -0.191527 1.631575
v 3.592390 -0.191527 1.632664
v 3.590808 -0.191527 1.634089
v 3.589535 -0.191527 1.635795
v 3.588619 -0.191527 1.637716
vn 0.0000 -1.0000 0.0000
vn 0.0000 1.0000 0.0000
vn -0.8014 0.0000 -0.5981
vn -0.8593 0.0000 0.5115
vn -0.0520 0.0000 0.9986
vn -0.9027 0.0000 -0.4303
vn -0.7430 0.0000 0.6693
vn 0.1437 0.0000 0.9896
vn -0.9693 0.0000 -0.2459
vn -0.5981 0.0000 0.8014
vn 0.3341 0.0000 0.9425
vn 0.9986 0.0000 0.0521
vn -0.4303 0.0000 0.9027
vn 0.5115 0.0000 0.8593
vn 0.9896 0.0000 -0.1437
vn -0.2459 0.0000 0.9693
vn 0.6692 0.0000 0.7431
vn 0.9426 0.0000 -0.3339
vn -0.0521 0.0000 0.9986
vn 0.8015 0.0000 0.5981
vn 0.8593 0.0000 -0.5115
vn 0.1438 0.0000 0.9896
vn 0.9027 0.0000 0.4303
vn 0.7430 0.0000 -0.6693
vn 0.3340 0.0000 0.9426
vn 0.9693 0.0000 0.2458
vn 0.5982 0.0000 -0.8014
vn 0.4303 0.0000 -0.9027
vn 0.6694 0.0000 0.7429
vn 0.2460 0.0000 -0.9693
vn 0.8014 0.0000 0.5982
vn 0.0521 0.0000 -0.9986
vn -0.1436 0.0000 -0.9896
vn 0.9693 0.0000 0.2459
vn -0.3340 0.0000 -0.9426
vn 0.9986 0.0000 0.0520
vn -0.5114 0.0000 -0.8593
vn -0.6692 0.0000 -0.7431
vn 0.9425 0.0000 -0.3341
vn -0.8016 0.0000 -0.5979
vn -0.9026 0.0000 -0.4305
vn -0.9693 0.0000 -0.2457
vn 0.5981 0.0000 -0.8014
vn -0.9986 0.0000 -0.0522
vn -0.9896 0.0000 0.1440
vn 0.2459 0.0000 -0.9693
vn -0.9427 0.0000 0.3338
vn -0.1438 0.0000 -0.9896
vn -0.7428 0.0000 0.6695
vn -0.9986 0.0000 -0.0521
vn -0.5983 0.0000 0.8013
vn -0.5115 0.0000 -0.8593
vn -0.9896 0.0000 0.1437
vn -0.6694 0.0000 -0.7429
vn -0.9425 0.0000 0.3341
vn -0.2460 0.0000 0.9693
vn -0.4165 -0.0000 0.9092
vn -0.9091 -0.0048 -0.4164
vn 0.4165 -0.0000 -0.9092
vn 0.9092 0.0048 0.4164
vn 0.0044 -1.0000 0.0020
vn -0.0044 1.0000 -0.0020
vn -0.9027 0.0000 -0.4302
vn -0.9693 0.0000 -0.2460
vn -0.4302 0.0000 0.9027
vn 0.5116 0.0000 0.8592
vn 0.8015 0.0000 0.5980
vn 0.3341 0.0000 0.9426
vn 0.9692 0.0000 0.2461
vn 0.5980 0.0000 -0.8015
vn 0.4302 0.0000 -0.9027
vn 0.6693 0.0000 0.7430
vn 0.8014 0.0000 0.5981
vn 0.9027 0.0000 0.4304
vn 0.9896 0.0000 -0.1438
vn 0.9426 0.0000 -0.3340
vn -0.9026 0.0000 -0.4304
vn 0.5981 0.0000 -0.8015
vn -0.9986 0.0000 -0.0524
vn -0.9896 0.0000 0.1439
vn -0.9426 0.0000 0.3339
vn -0.1437 0.0000 -0.9896
vn -0.3341 0.0000 -0.9425
vn -0.9986 0.0000 -0.0520
vn -0.5982 0.0000 0.8013
vn -0.9896 0.0000 0.1438
vn -0.6693 0.0000 -0.7430
vn -0.9426 0.0000 0.3340
vn 0.1436 0.0000 0.9896
vn 0.3342 0.0000 0.9425
vn 0.7429 0.0000 -0.6693
vn 0.0520 0.0000 -0.9986
vn -0.3342 0.0000 -0.9425
vn -0.8015 0.0000 -0.5980
vn -0.9026 0.0000 -0.4306
vn -0.9427 0.0000 0.3337
vn -0.4164 0.0000 0.9092
vn -0.9091 -0.0049 -0.4164
vn 0.4164 0.0000 -0.9092
vn 0.9092 0.0049 0.4164
vn 0.8015 0.0000 0.5979
vn 0.9692 0.0000 0.2462
vn 0.0519 0.0000 -0.9987
vn -0.1439 0.0000 -0.9896
vn -0.5113 0.0000 -0.8594
vn -0.7429 0.0000 0.6694
vn -0.3341 0.0000 -0.9426
vn -0.2458 0.0000 0.9693
s off
f 19//1 52//1 20//1
f 6//1 39//1 7//1
f 20//1 53//1 21//1
f 8//1 39//1 40//1
f 22//1 53//1 54//1
f 8//1 41//1 9//1
f 23//1 54//1 55//1
f 10//1 41//1 42//1
f 23//1 56//1 24//1
f 10//1 43//1 11//1
f 24//1 57//1 25//1
f 12//1 43//1 44//1
f 26//1 57//1 58//1
f 12//1 45//1 13//1
f 26//1 59//1 27//1
f 14//1 45//1 46//1
f 28//1 59//1 60//1
f 15//1 46//1 47//1
f 2//1 33//1 34//1
f 28//1 61//1 29//1
f 15//1 48//1 16//1
f 2//1 35//1 3//1
f 30//1 61//1 62//1
f 17//1 48//1 49//1
f 3//1 36//1 4//1
f 31//1 62//1 63//1
f 17//1 50//1 18//1
f 4//1 37//1 5//1
f 31//1 64//1 32//1
f 19//1 50//1 51//1
f 5//1 38//1 6//1
f 32//1 33//1 1//1
f 116//2 83//2 84//2
f 103//2 70//2 71//2
f 117//2 84//2 85//2
f 72//2 103//2 71//2
f 86//2 117//2 85//2
f 105//2 72//2 73//2
f 87//2 118//2 86//2
f 74//2 105//2 73//2
f 120//2 87//2 88//2
f 107//2 74//2 75//2
f 121//2 88//2 89//2
f 76//2 107//2 75//2
f 90//2 121//2 89//2
f 109//2 76//2 77//2
f 123//2 90//2 91//2
f 78//2 109//2 77//2
f 92//2 123//2 91//2
f 79//2 110//2 78//2
f 66//2 97//2 65//2
f 125//2 92//2 93//2
f 112//2 79//2 80//2
f 99//2 66//2 67//2
f 94//2 125//2 93//2
f 81//2 112//2 80//2
f 100//2 67//2 68//2
f 95//2 126//2 94//2
f 114//2 81//2 82//2
f 101//2 68//2 69//2
f 128//2 95//2 96//2
f 83//2 114//2 82//2
f 102//2 69//2 70//2
f 97//2 96//2 65//2
f 95//3 30//3 31//3
f 69//4 4//4 5//4
f 121//5 58//5 57//5
f 96//6 31//6 32//6
f 70//7 5//7 6//7
f 122//8 59//8 58//8
f 65//9 32//9 1//9
f 71//10 6//10 7//10
f 123//11 60//11 59//11
f 97//12 34//12 33//12
f 72//13 7//13 8//13
f 124//14 61//14 60//14
f 98//15 35//15 34//15
f 73//16 8//16 9//16
f 125//17 62//17 61//17
f 99//18 36//18 35//18
f 74//19 9//19 10//19
f 126//20 63//20 62//20
f 100//21 37//21 36//21
f 75//22 10//22 11//22
f 127//23 64//23 63//23
f 101//24 38//24 37//24
f 76//25 11//25 12//25
f 128//26 33//26 64//26
f 102//27 39//27 38//27
f 77//14 12//14 13//14
f 103//28 40//28 39//28
f 78//29 13//29 14//29
f 104//30 41//30 40//30
f 79//31 14//31 15//31
f 105//32 42//32 41//32
f 80//23 15//23 16//23
f 106//33 43//33 42//33
f 81//34 16//34 17//34
f 107//35 44//35 43//35
f 82//36 17//36 18//36
f 108//37 45//37 44//37
f 83//15 18//15 19//15
f 109//38 46//38 45//38
f 84//39 19//39 20//39
f 110//40 47//40 46//40
f 85//21 20//21 21//21
f 111//41 48//41 47//41
f 86//24 21//24 22//24
f 112//42 49//42 48//42
f 87//43 22//43 23//43
f 113//44 50//44 49//44
f 88//28 23//28 24//28
f 114//45 51//45 50//45
f 89//46 24//46 25//46
f 115//47 52//47 51//47
f 90//32 25//32 26//32
f 116//4 53//4 52//4
f 91//48 26//48 27//48
f 117//49 54//49 53//49
f 92//35 27//35 28//35
f 66//50 1//50 2//50
f 118//51 55//51 54//51
f 93//52 28//52 29//52
f 67//53 2//53 3//53
f 119//13 56//13 55//13
f 94//54 29//54 30//54
f 68//55 3//55 4//55
f 120//56 57//56 56//56
f 129//57 132//57 131//57
f 132//58 135//58 131//58
f 136//59 133//59 135//59
f 134//60 129//60 133//60
f 131//61 133//61 129//61
f 132//62 134//62 136//62
f 155//1 188//1 156//1
f 143//1 174//1 175//1
f 156//1 189//1 157//1
f 144//1 175//1 176//1
f 158//1 189//1 190//1
f 144//1 177//1 145//1
f 159//1 190//1 191//1
f 146//1 177//1 178//1
f 159//1 192//1 160//1
f 146//1 179//1 147//1
f 160//1 193//1 161//1
f 148//1 179//1 180//1
f 162//1 193//1 194//1
f 148//1 181//1 149//1
f 162//1 195//1 163//1
f 149//1 182//1 150//1
f 164//1 195//1 196//1
f 151//1 182//1 183//1
f 138//1 169//1 170//1
f 165//1 196//1 197//1
f 151//1 184//1 152//1
f 139//1 170//1 171//1
f 165//1 198//1 166//1
f 153//1 184//1 185//1
f 139//1 172//1 140//1
f 167//1 198//1 199//1
f 153//1 186//1 154//1
f 140//1 173//1 141//1
f 168//1 199//1 200//1
f 155//1 186//1 187//1
f 142//1 173//1 174//1
f 168//1 169//1 137//1
f 252//2 219//2 220//2
f 207//2 238//2 206//2
f 253//2 220//2 221//2
f 208//2 239//2 207//2
f 222//2 253//2 221//2
f 241//2 208//2 209//2
f 223//2 254//2 222//2
f 210//2 241//2 209//2
f 256//2 223//2 224//2
f 243//2 210//2 211//2
f 257//2 224//2 225//2
f 212//2 243//2 211//2
f 226//2 257//2 225//2
f 245//2 212//2 213//2
f 259//2 226//2 227//2
f 246//2 213//2 214//2
f 228//2 259//2 227//2
f 215//2 246//2 214//2
f 202//2 233//2 201//2
f 229//2 260//2 228//2
f 248//2 215//2 216//2
f 203//2 234//2 202//2
f 262//2 229//2 230//2
f 217//2 248//2 216//2
f 236//2 203//2 204//2
f 231//2 262//2 230//2
f 250//2 217//2 218//2
f 237//2 204//2 205//2
f 232//2 263//2 231//2
f 219//2 250//2 218//2
f 206//2 237//2 205//2
f 233//2 232//2 201//2
f 231//3 166//3 167//3
f 205//4 140//4 141//4
f 257//19 194//19 193//19
f 232//63 167//63 168//63
f 206//7 141//7 142//7
f 258//8 195//8 194//8
f 201//64 168//64 137//64
f 207//10 142//10 143//10
f 259//25 196//25 195//25
f 233//36 170//36 169//36
f 208//65 143//65 144//65
f 260//66 197//66 196//66
f 234//15 171//15 170//15
f 209//16 144//16 145//16
f 261//17 198//17 197//17
f 235//39 172//39 171//39
f 210//5 145//5 146//5
f 262//67 199//67 198//67
f 236//21 173//21 172//21
f 211//8 146//8 147//8
f 263//23 200//23 199//23
f 237//24 174//24 173//24
f 212//68 147//68 148//68
f 264//69 169//69 200//69
f 238//70 175//70 174//70
f 213//14 148//14 149//14
f 239//71 176//71 175//71
f 150//72 213//72 149//72
f 240//30 177//30 176//30
f 215//73 150//73 151//73
f 241//32 178//32 177//32
f 216//74 151//74 152//74
f 242//33 179//33 178//33
f 217//26 152//26 153//26
f 243//35 180//35 179//35
f 218//12 153//12 154//12
f 244//52 181//52 180//52
f 219//75 154//75 155//75
f 245//38 182//38 181//38
f 220//76 155//76 156//76
f 246//40 183//40 182//40
f 221//21 156//21 157//21
f 247//77 184//77 183//77
f 222//24 157//24 158//24
f 248//42 185//42 184//42
f 223//78 158//78 159//78
f 249//79 186//79 185//79
f 224//28 159//28 160//28
f 250//80 187//80 186//80
f 225//46 160//46 161//46
f 251//81 188//81 187//81
f 226//32 161//32 162//32
f 252//4 189//4 188//4
f 227//82 162//82 163//82
f 253//49 190//49 189//49
f 228//83 163//83 164//83
f 202//84 137//84 138//84
f 254//85 191//85 190//85
f 229//52 164//52 165//52
f 203//86 138//86 139//86
f 255//13 192//13 191//13
f 230//87 165//87 166//87
f 204//88 139//88 140//88
f 256//56 193//56 192//56
f 19//1 51//1 52//1
f 6//1 38//1 39//1
f 20//1 52//1 53//1
f 8//1 7//1 39//1
f 22//1 21//1 53//1
f 8//1 40//1 41//1
f 23//1 22//1 54//1
f 10//1 9//1 41//1
f 23//1 55//1 56//1
f 10//1 42//1 43//1
f 24//1 56//1 57//1
f 12//1 11//1 43//1
f 26//1 25//1 57//1
f 12//1 44//1 45//1
f 26//1 58//1 59//1
f 14//1 13//1 45//1
f 28//1 27//1 59//1
f 15//1 14//1 46//1
f 2//1 1//1 33//1
f 28//1 60//1 61//1
f 15//1 47//1 48//1
f 2//1 34//1 35//1
f 30//1 29//1 61//1
f 17//1 16//1 48//1
f 3//1 35//1 36//1
f 31//1 30//1 62//1
f 17//1 49//1 50//1
f 4//1 36//1 37//1
f 31//1 63//1 64//1
f 19//1 18//1 50//1
f 5//1 37//1 38//1
f 32//1 64//1 33//1
f 116//2 115//2 83//2
f 103//2 102//2 70//2
f 117//2 116//2 84//2
f 72//2 104//2 103//2
f 86//2 118//2 117//2
f 105//2 104//2 72//2
f 87//2 119//2 118//2
f 74//2 106//2 105//2
f 120//2 119//2 87//2
f 107//2 106//2 74//2
f 121//2 120//2 88//2
f 76//2 108//2 107//2
f 90//2 122//2 121//2
f 109//2 108//2 76//2
f 123//2 122//2 90//2
f 78//2 110//2 109//2
f 92//2 124//2 123//2
f 79//2 111//2 110//2
f 66//2 98//2 97//2
f 125//2 124//2 92//2
f 112//2 111//2 79//2
f 99//2 98//2 66//2
f 94//2 126//2 125//2
f 81//2 113//2 112//2
f 100//2 99//2 67//2
f 95//2 127//2 126//2
f 114//2 113//2 81//2
f 101//2 100//2 68//2
f 128//2 127//2 95//2
f 83//2 115//2 114//2
f 102//2 101//2 69//2
f 97//2 128//2 96//2
f 95//3 94//3 30//3
f 69//4 68//4 4//4
f 121//19 122//19 58//19
f 96//6 95//6 31//6
f 70//7 69//7 5//7
f 122//89 123//89 59//89
f 65//9 96//9 32//9
f 71//10 70//10 6//10
f 123//90 124//90 60//90
f 97//12 98//12 34//12
f 72//65 71//65 7//65
f 124//14 125//14 61//14
f 98//15 99//15 35//15
f 73//56 72//56 8//56
f 125//17 126//17 62//17
f 99//76 100//76 36//76
f 74//5 73//5 9//5
f 126//20 127//20 63//20
f 100//21 101//21 37//21
f 75//22 74//22 10//22
f 127//23 128//23 64//23
f 101//91 102//91 38//91
f 76//25 75//25 11//25
f 128//26 97//26 33//26
f 102//43 103//43 39//43
f 77//14 76//14 12//14
f 103//71 104//71 40//71
f 78//29 77//29 13//29
f 104//30 105//30 41//30
f 79//31 78//31 14//31
f 105//92 106//92 42//92
f 80//23 79//23 15//23
f 106//82 107//82 43//82
f 81//34 80//34 16//34
f 107//93 108//93 44//93
f 82//36 81//36 17//36
f 108//37 109//37 45//37
f 83//15 82//15 18//15
f 109//87 110//87 46//87
f 84//39 83//39 19//39
f 110//94 111//94 47//94
f 85//21 84//21 20//21
f 111//95 112//95 48//95
f 86//24 85//24 21//24
f 112//42 113//42 49//42
f 87//43 86//43 22//43
f 113//44 114//44 50//44
f 88//28 87//28 23//28
f 114//45 115//45 51//45
f 89//46 88//46 24//46
f 115//96 116//96 52//96
f 90//32 89//32 25//32
f 116//4 117//4 53//4
f 91//82 90//82 26//82
f 117//49 118//49 54//49
f 92//35 91//35 27//35
f 66//50 65//50 1//50
f 118//10 119//10 55//10
f 93//52 92//52 28//52
f 67//53 66//53 2//53
f 119//65 120//65 56//65
f 94//87 93//87 29//87
f 68//55 67//55 3//55
f 120//16 121//16 57//16
f 129//97 130//97 132//97
f 132//98 136//98 135//98
f 136//99 134//99 133//99
f 134//100 130//100 129//100
f 131//61 135//61 133//61
f 132//62 130//62 134//62
f 155//1 187//1 188//1
f 143//1 142//1 174//1
f 156//1 188//1 189//1
f 144//1 143//1 175//1
f 158//1 157//1 189//1
f 144//1 176//1 177//1
f 159//1 158//1 190//1
f 146//1 145//1 177//1
f 159//1 191//1 192//1
f 146//1 178//1 179//1
f 160//1 192//1 193//1
f 148//1 147//1 179//1
f 162//1 161//1 193//1
f 148//1 180//1 181//1
f 162//1 194//1 195//1
f 149//1 181//1 182//1
f 164//1 163//1 195//1
f 151//1 150//1 182//1
f 138//1 137//1 169//1
f 165//1 164//1 196//1
f 151//1 183//1 184//1
f 139//1 138//1 170//1
f 165//1 197//1 198//1
f 153//1 152//1 184//1
f 139//1 171//1 172//1
f 167//1 166//1 198//1
f 153//1 185//1 186//1
f 140//1 172//1 173//1
f 168//1 167//1 199//1
f 155//1 154//1 186//1
f 142//1 141//1 173//1
f 168//1 200//1 169//1
f 252//2 251//2 219//2
f 207//2 239//2 238//2
f 253//2 252//2 220//2
f 208//2 240//2 239//2
f 222//2 254//2 253//2
f 241//2 240//2 208//2
f 223//2 255//2 254//2
f 210//2 242//2 241//2
f 256//2 255//2 223//2
f 243//2 242//2 210//2
f 257//2 256//2 224//2
f 212//2 244//2 243//2
f 226//2 258//2 257//2
f 245//2 244//2 212//2
f 259//2 258//2 226//2
f 246//2 245//2 213//2
f 228//2 260//2 259//2
f 215//2 247//2 246//2
f 202//2 234//2 233//2
f 229//2 261//2 260//2
f 248//2 247//2 215//2
f 203//2 235//2 234//2
f 262//2 261//2 229//2
f 217//2 249//2 248//2
f 236//2 235//2 203//2
f 231//2 263//2 262//2
f 250//2 249//2 217//2
f 237//2 236//2 204//2
f 232//2 264//2 263//2
f 219//2 251//2 250//2
f 206//2 238//2 237//2
f 233//2 264//2 232//2
f 231//3 230//3 166//3
f 205//4 204//4 140//4
f 257//19 258//19 194//19
f 232//63 231//63 167//63
f 206//7 205//7 141//7
f 258//8 259//8 195//8
f 201//64 232//64 168//64
f 207//10 206//10 142//10
f 259//25 260//25 196//25
f 233//36 234//36 170//36
f 208//13 207//13 143//13
f 260//66 261//66 197//66
f 234//15 235//15 171//15
f 209//56 208//56 144//56
f 261//72 262//72 198//72
f 235//39 236//39 172//39
f 210//19 209//19 145//19
f 262//101 263//101 199//101
f 236//21 237//21 173//21
f 211//22 210//22 146//22
f 263//23 264//23 200//23
f 237//24 238//24 174//24
f 212//25 211//25 147//25
f 264//102 233//102 169//102
f 238//27 239//27 175//27
f 213//14 212//14 148//14
f 239//71 240//71 176//71
f 150//29 214//29 213//29
f 240//30 241//30 177//30
f 215//73 214//73 150//73
f 241//103 242//103 178//103
f 216//74 215//74 151//74
f 242//104 243//104 179//104
f 217//26 216//26 152//26
f 243//93 244//93 180//93
f 218//12 217//12 153//12
f 244//105 245//105 181//105
f 219//75 218//75 154//75
f 245//87 246//87 182//87
f 220//76 219//76 155//76
f 246//40 247//40 183//40
f 221//21 220//21 156//21
f 247//41 248//41 184//41
f 222//24 221//24 157//24
f 248//42 249//42 185//42
f 223//78 222//78 158//78
f 249//79 250//79 186//79
f 224//28 223//28 159//28
f 250//80 251//80 187//80
f 225//46 224//46 160//46
f 251//81 252//81 188//81
f 226//32 225//32 161//32
f 252//4 253//4 189//4
f 227//82 226//82 162//82
f 253//106 254//106 190//106
f 228//107 227//107 163//107
f 202//84 201//84 137//84
f 254//10 255//10 191//10
f 229//52 228//52 164//52
f 203//86 202//86 138//86
f 255//13 256//13 192//13
f 230//87 229//87 165//87
f 204//88 203//88 139//88
f 256//108 257//108 193//108
