# Blender v2.79 (sub 7) OBJ File: 'Universe Gate.blend'
# www.blender.org
o 36_Circle.005
v 3.682689 -0.204870 0.544857
v 3.682511 -0.204870 0.548111
v 3.682971 -0.204870 0.551338
v 3.684052 -0.204870 0.554412
v 3.685712 -0.204870 0.557217
v 3.687887 -0.204870 0.559644
v 3.690494 -0.204870 0.561600
v 3.693432 -0.204870 0.563009
v 3.696589 -0.204870 0.563819
v 3.699843 -0.204870 0.563997
v 3.703070 -0.204870 0.563537
v 3.706144 -0.204870 0.562456
v 3.708949 -0.204870 0.560796
v 3.711375 -0.204870 0.558621
v 3.713331 -0.204870 0.556014
v 3.714741 -0.204870 0.553076
v 3.715551 -0.204870 0.549919
v 3.715728 -0.204870 0.546665
v 3.715268 -0.204870 0.543438
v 3.714188 -0.204870 0.540364
v 3.712528 -0.204870 0.537559
v 3.710353 -0.204870 0.535132
v 3.707746 -0.204870 0.533176
v 3.704808 -0.204870 0.531767
v 3.701651 -0.204870 0.530957
v 3.698396 -0.204870 0.530779
v 3.695170 -0.204870 0.531239
v 3.692096 -0.204870 0.532320
v 3.689291 -0.204870 0.533980
v 3.686864 -0.204870 0.536155
v 3.684908 -0.204870 0.538762
v 3.683498 -0.204870 0.541700
v 3.682689 -0.185768 0.544857
v 3.682511 -0.185768 0.548111
v 3.682971 -0.185768 0.551338
v 3.684052 -0.185768 0.554412
v 3.685712 -0.185768 0.557217
v 3.687887 -0.185768 0.559644
v 3.690494 -0.185768 0.561600
v 3.693432 -0.185768 0.563009
v 3.696589 -0.185768 0.563819
v 3.699843 -0.185768 0.563997
v 3.703070 -0.185768 0.563537
v 3.706144 -0.185768 0.562456
v 3.708949 -0.185768 0.560796
v 3.711375 -0.185768 0.558621
v 3.713331 -0.185768 0.556014
v 3.714741 -0.185768 0.553076
v 3.715551 -0.185768 0.549919
v 3.715728 -0.185768 0.546665
v 3.715268 -0.185768 0.543438
v 3.714188 -0.185768 0.540364
v 3.712528 -0.185768 0.537559
v 3.710353 -0.185768 0.535132
v 3.707746 -0.185768 0.533176
v 3.704808 -0.185768 0.531767
v 3.701651 -0.185768 0.530957
v 3.698396 -0.185768 0.530779
v 3.695170 -0.185768 0.531239
v 3.692096 -0.185768 0.532320
v 3.689291 -0.185768 0.533980
v 3.686864 -0.185768 0.536155
v 3.684908 -0.185768 0.538762
v 3.683498 -0.185768 0.541700
v 3.981177 -0.212246 0.599433
v 3.981049 -0.185652 0.599414
v 3.927516 -0.212510 0.591168
v 3.927389 -0.185916 0.591148
v 3.984002 -0.212246 0.581092
v 3.983874 -0.185652 0.581072
v 3.930341 -0.212510 0.572827
v 3.930214 -0.185916 0.572807
v 3.887071 -0.204870 0.575312
v 3.886893 -0.204870 0.578566
v 3.887353 -0.204870 0.581792
v 3.888434 -0.204870 0.584867
v 3.890094 -0.204870 0.587671
v 3.892269 -0.204870 0.590098
v 3.894876 -0.204870 0.592054
v 3.897814 -0.204870 0.593464
v 3.900971 -0.204870 0.594273
v 3.904225 -0.204870 0.594451
v 3.907452 -0.204870 0.593991
v 3.910526 -0.204870 0.592910
v 3.913331 -0.204870 0.591250
v 3.915757 -0.204870 0.589075
v 3.917713 -0.204870 0.586468
v 3.919123 -0.204870 0.583530
v 3.919933 -0.204870 0.580373
v 3.920110 -0.204870 0.577119
v 3.919650 -0.204870 0.573893
v 3.918570 -0.204870 0.570818
v 3.916910 -0.204870 0.568014
v 3.914734 -0.204870 0.565587
v 3.912128 -0.204870 0.563631
v 3.909189 -0.204870 0.562221
v 3.906033 -0.204870 0.561412
v 3.902778 -0.204870 0.561234
v 3.899553 -0.204870 0.561694
v 3.896478 -0.204870 0.562775
v 3.893673 -0.204870 0.564435
v 3.891246 -0.204870 0.566610
v 3.889290 -0.204870 0.569216
v 3.887881 -0.204870 0.572155
v 3.887071 -0.185768 0.575312
v 3.886893 -0.185768 0.578566
v 3.887353 -0.185768 0.581792
v 3.888434 -0.185768 0.584867
v 3.890094 -0.185768 0.587671
v 3.892269 -0.185768 0.590098
v 3.894876 -0.185768 0.592054
v 3.897814 -0.185768 0.593464
v 3.900971 -0.185768 0.594273
v 3.904225 -0.185768 0.594451
v 3.907452 -0.185768 0.593991
v 3.910526 -0.185768 0.592910
v 3.913331 -0.185768 0.591250
v 3.915757 -0.185768 0.589075
v 3.917713 -0.185768 0.586468
v 3.919123 -0.185768 0.583530
v 3.919933 -0.185768 0.580373
v 3.920110 -0.185768 0.577119
v 3.919650 -0.185768 0.573893
v 3.918570 -0.185768 0.570818
v 3.916910 -0.185768 0.568014
v 3.914734 -0.185768 0.565587
v 3.912128 -0.185768 0.563631
v 3.909189 -0.185768 0.562221
v 3.906033 -0.185768 0.561412
v 3.902778 -0.185768 0.561234
v 3.899553 -0.185768 0.561694
v 3.896478 -0.185768 0.562775
v 3.893673 -0.185768 0.564435
v 3.891246 -0.185768 0.566610
v 3.889290 -0.185768 0.569216
v 3.887881 -0.185768 0.572155
v 3.877508 -0.212246 0.583968
v 3.877381 -0.185652 0.583948
v 3.823848 -0.212510 0.575703
v 3.823720 -0.185916 0.575683
v 3.880333 -0.212246 0.565627
v 3.880206 -0.185652 0.565607
v 3.826673 -0.212510 0.557361
v 3.826545 -0.185916 0.557342
v 3.774497 -0.212246 0.568172
v 3.774369 -0.185652 0.568152
v 3.720836 -0.212510 0.559906
v 3.720709 -0.185916 0.559887
v 3.777322 -0.212246 0.549830
v 3.777194 -0.185652 0.549811
v 3.723661 -0.212510 0.541565
v 3.723534 -0.185916 0.541545
v 3.784047 -0.204870 0.560660
v 3.783868 -0.204870 0.563914
v 3.784329 -0.204870 0.567141
v 3.785409 -0.204870 0.570215
v 3.787069 -0.204870 0.573020
v 3.789244 -0.204870 0.575447
v 3.791851 -0.204870 0.577403
v 3.794790 -0.204870 0.578812
v 3.797946 -0.204870 0.579622
v 3.801201 -0.204870 0.579800
v 3.804427 -0.204870 0.579340
v 3.807502 -0.204870 0.578259
v 3.810306 -0.204870 0.576599
v 3.812733 -0.204870 0.574424
v 3.814689 -0.204870 0.571817
v 3.816098 -0.204870 0.568879
v 3.816908 -0.204870 0.565722
v 3.817086 -0.204870 0.562468
v 3.816626 -0.204870 0.559241
v 3.815545 -0.204870 0.556167
v 3.813885 -0.204870 0.553362
v 3.811710 -0.204870 0.550935
v 3.809103 -0.204870 0.548979
v 3.806165 -0.204870 0.547570
v 3.803008 -0.204870 0.546760
v 3.799754 -0.204870 0.546582
v 3.796528 -0.204870 0.547042
v 3.793453 -0.204870 0.548123
v 3.790649 -0.204870 0.549783
v 3.788221 -0.204870 0.551958
v 3.786266 -0.204870 0.554565
v 3.784856 -0.204870 0.557503
v 3.784047 -0.185768 0.560660
v 3.783868 -0.185768 0.563914
v 3.784329 -0.185768 0.567141
v 3.785409 -0.185768 0.570215
v 3.787069 -0.185768 0.573020
v 3.789244 -0.185768 0.575447
v 3.791851 -0.185768 0.577403
v 3.794790 -0.185768 0.578812
v 3.797946 -0.185768 0.579622
v 3.801201 -0.185768 0.579800
v 3.804427 -0.185768 0.579340
v 3.807502 -0.185768 0.578259
v 3.810306 -0.185768 0.576599
v 3.812733 -0.185768 0.574424
v 3.814689 -0.185768 0.571817
v 3.816098 -0.185768 0.568879
v 3.816908 -0.185768 0.565722
v 3.817086 -0.185768 0.562468
v 3.816626 -0.185768 0.559241
v 3.815545 -0.185768 0.556167
v 3.813885 -0.185768 0.553362
v 3.811710 -0.185768 0.550935
v 3.809103 -0.185768 0.548979
v 3.806165 -0.185768 0.547570
v 3.803008 -0.185768 0.546760
v 3.799754 -0.185768 0.546582
v 3.796528 -0.185768 0.547042
v 3.793453 -0.185768 0.548123
v 3.790649 -0.185768 0.549783
v 3.788221 -0.185768 0.551958
v 3.786266 -0.185768 0.554565
v 3.784856 -0.185768 0.557503
vn 0.0000 -1.0000 -0.0000
vn 0.0000 1.0000 0.0000
vn -0.9434 0.0000 0.3316
vn -0.7999 0.0000 -0.6002
vn 0.9985 0.0000 0.0545
vn -0.8606 0.0000 0.5093
vn -0.9016 -0.0000 -0.4327
vn 0.9900 0.0000 -0.1412
vn -0.7447 0.0000 0.6674
vn -0.9687 0.0000 -0.2483
vn 0.9434 0.0000 -0.3316
vn -0.6001 0.0000 0.7999
vn 0.8605 0.0000 -0.5094
vn -0.4326 0.0000 0.9016
vn 0.7447 0.0000 -0.6674
vn -0.2483 0.0000 0.9687
vn 0.6002 0.0000 -0.7999
vn -0.0546 0.0000 0.9985
vn 0.4325 0.0000 -0.9016
vn 0.1412 0.0000 0.9900
vn 0.2484 0.0000 -0.9687
vn 0.3317 0.0000 0.9434
vn 0.0547 0.0000 -0.9985
vn 0.5092 0.0000 0.8606
vn -0.1413 0.0000 -0.9900
vn 0.6675 0.0000 0.7446
vn -0.3316 0.0000 -0.9434
vn 0.7999 0.0000 0.6002
vn -0.9985 0.0000 -0.0546
vn -0.5093 0.0000 -0.8606
vn 0.9016 0.0000 0.4326
vn -0.9900 0.0000 0.1413
vn -0.6675 0.0000 -0.7446
vn 0.9686 0.0000 0.2484
vn -0.1522 -0.0000 0.9883
vn -0.9883 -0.0048 -0.1522
vn 0.1522 0.0000 -0.9883
vn 0.9883 0.0049 0.1522
vn 0.0048 -1.0000 0.0007
vn -0.0048 1.0000 -0.0007
vn -0.9434 0.0000 0.3317
vn -0.7999 0.0000 -0.6001
vn 0.9985 0.0000 0.0546
vn -0.9016 0.0000 -0.4325
vn -0.7447 0.0000 0.6675
vn -0.9686 0.0000 -0.2484
vn -0.6002 0.0000 0.7999
vn 0.8606 0.0000 -0.5093
vn 0.7446 0.0000 -0.6675
vn -0.2484 0.0000 0.9687
vn 0.6002 0.0000 -0.7998
vn 0.0546 0.0000 -0.9985
vn 0.5093 0.0000 0.8606
vn -0.1412 0.0000 -0.9900
vn 0.6674 0.0000 0.7447
vn -0.9900 0.0000 0.1412
vn -0.6674 0.0000 -0.7447
vn 0.9687 0.0000 0.2484
vn -0.9883 -0.0049 -0.1522
vn 0.9883 0.0048 0.1522
vn 0.9883 0.0049 0.1523
vn -0.9016 0.0000 -0.4326
vn 0.9434 0.0000 -0.3317
vn 0.6001 0.0000 -0.7999
vn 0.4326 0.0000 -0.9016
vn 0.3316 0.0000 0.9434
vn -0.9985 0.0000 -0.0547
vn -0.5094 0.0000 -0.8606
vn 0.9016 -0.0000 0.4325
vn 0.0000 -1.0000 0.0001
vn 0.0000 -1.0000 -0.0001
vn 0.0000 1.0000 -0.0001
vn 0.0000 1.0000 0.0001
vn 0.8606 0.0000 -0.5094
vn -0.0547 0.0000 0.9985
vn -0.3317 0.0000 -0.9434
vn -0.4325 0.0000 0.9016
vn 0.2483 0.0000 -0.9687
vn -0.9900 0.0000 0.1411
vn 0.5094 0.0000 0.8606
vn 0.9686 0.0000 0.2485
s off
f 3//1 27//1 19//1
f 49//2 57//2 33//2
f 4//3 35//3 3//3
f 31//4 62//4 30//4
f 18//5 49//5 17//5
f 5//6 36//6 4//6
f 32//7 63//7 31//7
f 19//8 50//8 18//8
f 6//9 37//9 5//9
f 1//10 64//10 32//10
f 20//11 51//11 19//11
f 7//12 38//12 6//12
f 21//13 52//13 20//13
f 8//14 39//14 7//14
f 22//15 53//15 21//15
f 9//16 40//16 8//16
f 23//17 54//17 22//17
f 10//18 41//18 9//18
f 24//19 55//19 23//19
f 11//20 42//20 10//20
f 25//21 56//21 24//21
f 12//22 43//22 11//22
f 26//23 57//23 25//23
f 13//24 44//24 12//24
f 27//25 58//25 26//25
f 14//26 45//26 13//26
f 28//27 59//27 27//27
f 15//28 46//28 14//28
f 2//29 33//29 1//29
f 29//30 60//30 28//30
f 16//31 47//31 15//31
f 3//32 34//32 2//32
f 30//33 61//33 29//33
f 17//34 48//34 16//34
f 65//35 68//35 67//35
f 67//36 72//36 71//36
f 72//37 69//37 71//37
f 69//38 66//38 65//38
f 67//39 69//39 65//39
f 68//40 70//40 72//40
f 75//1 99//1 91//1
f 121//2 129//2 105//2
f 76//41 107//41 75//41
f 103//42 134//42 102//42
f 90//43 121//43 89//43
f 77//6 108//6 76//6
f 104//44 135//44 103//44
f 91//8 122//8 90//8
f 78//45 109//45 77//45
f 73//46 136//46 104//46
f 92//11 123//11 91//11
f 79//47 110//47 78//47
f 93//48 124//48 92//48
f 80//14 111//14 79//14
f 94//49 125//49 93//49
f 81//50 112//50 80//50
f 95//51 126//51 94//51
f 82//18 113//18 81//18
f 96//19 127//19 95//19
f 83//20 114//20 82//20
f 97//21 128//21 96//21
f 84//22 115//22 83//22
f 98//52 129//52 97//52
f 85//53 116//53 84//53
f 99//54 130//54 98//54
f 86//55 117//55 85//55
f 100//27 131//27 99//27
f 87//28 118//28 86//28
f 73//29 106//29 105//29
f 101//30 132//30 100//30
f 88//31 119//31 87//31
f 75//56 106//56 74//56
f 102//57 133//57 101//57
f 89//58 120//58 88//58
f 137//35 140//35 139//35
f 139//59 144//59 143//59
f 144//37 141//37 143//37
f 141//60 138//60 137//60
f 139//39 141//39 137//39
f 140//40 142//40 144//40
f 145//35 148//35 147//35
f 148//59 151//59 147//59
f 152//37 149//37 151//37
f 150//61 145//61 149//61
f 151//39 145//39 147//39
f 152//40 146//40 150//40
f 159//1 155//1 171//1
f 201//2 209//2 185//2
f 156//3 187//3 155//3
f 183//42 214//42 182//42
f 170//43 201//43 169//43
f 157//6 188//6 156//6
f 184//62 215//62 183//62
f 171//8 202//8 170//8
f 158//9 189//9 157//9
f 153//10 216//10 184//10
f 172//63 203//63 171//63
f 159//12 190//12 158//12
f 173//48 204//48 172//48
f 160//14 191//14 159//14
f 174//15 205//15 173//15
f 161//50 192//50 160//50
f 175//64 206//64 174//64
f 162//18 193//18 161//18
f 176//65 207//65 175//65
f 163//20 194//20 162//20
f 177//21 208//21 176//21
f 164//66 195//66 163//66
f 178//52 209//52 177//52
f 165//53 196//53 164//53
f 179//54 210//54 178//54
f 166//55 197//55 165//55
f 180//27 211//27 179//27
f 167//28 198//28 166//28
f 154//67 185//67 153//67
f 181//68 212//68 180//68
f 168//69 199//69 167//69
f 155//32 186//32 154//32
f 182//57 213//57 181//57
f 169//34 200//34 168//34
f 3//1 2//1 1//1
f 1//1 32//1 31//1
f 31//1 30//1 27//1
f 30//1 29//1 27//1
f 29//1 28//1 27//1
f 27//70 26//70 25//70
f 25//1 24//1 23//1
f 23//1 22//1 19//1
f 22//1 21//1 19//1
f 21//1 20//1 19//1
f 19//1 18//1 17//1
f 17//1 16//1 19//1
f 16//1 15//1 19//1
f 15//71 14//71 13//71
f 13//1 12//1 15//1
f 12//1 11//1 15//1
f 11//1 10//1 7//1
f 10//1 9//1 7//1
f 9//1 8//1 7//1
f 7//1 6//1 3//1
f 6//1 5//1 3//1
f 5//1 4//1 3//1
f 3//1 1//1 27//1
f 1//1 31//1 27//1
f 27//1 25//1 19//1
f 25//1 23//1 19//1
f 19//1 15//1 11//1
f 11//1 7//1 19//1
f 7//1 3//1 19//1
f 33//2 34//2 35//2
f 35//2 36//2 37//2
f 37//2 38//2 39//2
f 39//72 40//72 41//72
f 41//2 42//2 43//2
f 43//2 44//2 41//2
f 44//2 45//2 41//2
f 45//2 46//2 47//2
f 47//2 48//2 45//2
f 48//2 49//2 45//2
f 49//2 50//2 51//2
f 51//2 52//2 53//2
f 53//2 54//2 57//2
f 54//2 55//2 57//2
f 55//2 56//2 57//2
f 57//73 58//73 59//73
f 59//2 60//2 61//2
f 61//2 62//2 33//2
f 62//2 63//2 33//2
f 63//2 64//2 33//2
f 33//2 35//2 41//2
f 35//2 37//2 41//2
f 37//2 39//2 41//2
f 49//2 51//2 57//2
f 51//2 53//2 57//2
f 57//2 59//2 33//2
f 59//2 61//2 33//2
f 41//2 45//2 49//2
f 33//2 41//2 49//2
f 4//3 36//3 35//3
f 31//4 63//4 62//4
f 18//5 50//5 49//5
f 5//6 37//6 36//6
f 32//62 64//62 63//62
f 19//8 51//8 50//8
f 6//9 38//9 37//9
f 1//10 33//10 64//10
f 20//11 52//11 51//11
f 7//47 39//47 38//47
f 21//74 53//74 52//74
f 8//14 40//14 39//14
f 22//15 54//15 53//15
f 9//50 41//50 40//50
f 23//17 55//17 54//17
f 10//75 42//75 41//75
f 24//65 56//65 55//65
f 11//20 43//20 42//20
f 25//21 57//21 56//21
f 12//22 44//22 43//22
f 26//23 58//23 57//23
f 13//24 45//24 44//24
f 27//25 59//25 58//25
f 14//26 46//26 45//26
f 28//76 60//76 59//76
f 15//28 47//28 46//28
f 2//29 34//29 33//29
f 29//30 61//30 60//30
f 16//31 48//31 47//31
f 3//32 35//32 34//32
f 30//33 62//33 61//33
f 17//34 49//34 48//34
f 65//35 66//35 68//35
f 67//59 68//59 72//59
f 72//37 70//37 69//37
f 69//38 70//38 66//38
f 67//39 71//39 69//39
f 68//40 66//40 70//40
f 75//1 74//1 73//1
f 73//1 104//1 103//1
f 103//71 102//71 101//71
f 101//70 100//70 99//70
f 99//1 98//1 97//1
f 97//1 96//1 99//1
f 96//1 95//1 99//1
f 95//1 94//1 91//1
f 94//1 93//1 91//1
f 93//1 92//1 91//1
f 91//1 90//1 87//1
f 90//1 89//1 87//1
f 89//1 88//1 87//1
f 87//1 86//1 85//1
f 85//1 84//1 87//1
f 84//1 83//1 87//1
f 83//1 82//1 79//1
f 82//1 81//1 79//1
f 81//70 80//70 79//70
f 79//1 78//1 75//1
f 78//1 77//1 75//1
f 77//1 76//1 75//1
f 75//1 73//1 99//1
f 73//1 103//1 99//1
f 103//1 101//1 99//1
f 99//1 95//1 91//1
f 91//1 87//1 83//1
f 83//1 79//1 91//1
f 79//1 75//1 91//1
f 105//2 106//2 109//2
f 106//2 107//2 109//2
f 107//2 108//2 109//2
f 109//2 110//2 113//2
f 110//2 111//2 113//2
f 111//2 112//2 113//2
f 113//2 114//2 117//2
f 114//2 115//2 117//2
f 115//72 116//72 117//72
f 117//2 118//2 119//2
f 119//2 120//2 121//2
f 121//2 122//2 123//2
f 123//2 124//2 125//2
f 125//2 126//2 129//2
f 126//2 127//2 129//2
f 127//72 128//72 129//72
f 129//2 130//2 131//2
f 131//72 132//72 133//72
f 133//2 134//2 135//2
f 135//2 136//2 133//2
f 136//2 105//2 133//2
f 117//2 119//2 113//2
f 119//2 121//2 113//2
f 121//2 123//2 129//2
f 123//2 125//2 129//2
f 129//2 131//2 105//2
f 131//2 133//2 105//2
f 105//2 109//2 113//2
f 105//2 113//2 121//2
f 76//41 108//41 107//41
f 103//42 135//42 134//42
f 90//43 122//43 121//43
f 77//6 109//6 108//6
f 104//44 136//44 135//44
f 91//8 123//8 122//8
f 78//9 110//9 109//9
f 73//46 105//46 136//46
f 92//11 124//11 123//11
f 79//47 111//47 110//47
f 93//48 125//48 124//48
f 80//77 112//77 111//77
f 94//49 126//49 125//49
f 81//50 113//50 112//50
f 95//51 127//51 126//51
f 82//18 114//18 113//18
f 96//65 128//65 127//65
f 83//20 115//20 114//20
f 97//78 129//78 128//78
f 84//22 116//22 115//22
f 98//23 130//23 129//23
f 85//53 117//53 116//53
f 99//25 131//25 130//25
f 86//55 118//55 117//55
f 100//27 132//27 131//27
f 87//28 119//28 118//28
f 73//67 74//67 106//67
f 101//30 133//30 132//30
f 88//31 120//31 119//31
f 75//79 107//79 106//79
f 102//57 134//57 133//57
f 89//58 121//58 120//58
f 137//35 138//35 140//35
f 139//36 140//36 144//36
f 144//37 142//37 141//37
f 141//38 142//38 138//38
f 139//39 143//39 141//39
f 140//40 138//40 142//40
f 145//35 146//35 148//35
f 148//36 152//36 151//36
f 152//37 150//37 149//37
f 150//60 146//60 145//60
f 151//39 149//39 145//39
f 152//40 148//40 146//40
f 155//1 154//1 153//1
f 153//1 184//1 183//1
f 183//71 182//71 181//71
f 181//70 180//70 179//70
f 179//70 178//70 177//70
f 177//71 176//71 175//71
f 175//1 174//1 173//1
f 173//1 172//1 175//1
f 172//1 171//1 175//1
f 171//1 170//1 167//1
f 170//1 169//1 167//1
f 169//1 168//1 167//1
f 167//1 166//1 165//1
f 165//71 164//71 163//71
f 163//1 162//1 159//1
f 162//1 161//1 159//1
f 161//1 160//1 159//1
f 159//1 158//1 157//1
f 157//1 156//1 155//1
f 155//1 153//1 179//1
f 153//1 183//1 179//1
f 183//1 181//1 179//1
f 179//1 177//1 175//1
f 167//1 165//1 171//1
f 165//1 163//1 171//1
f 159//1 157//1 155//1
f 179//1 175//1 155//1
f 175//1 171//1 155//1
f 163//1 159//1 171//1
f 185//2 186//2 187//2
f 187//2 188//2 189//2
f 189//2 190//2 191//2
f 191//72 192//72 193//72
f 193//2 194//2 197//2
f 194//2 195//2 197//2
f 195//72 196//72 197//72
f 197//2 198//2 199//2
f 199//2 200//2 197//2
f 200//2 201//2 197//2
f 201//2 202//2 205//2
f 202//2 203//2 205//2
f 203//2 204//2 205//2
f 205//2 206//2 207//2
f 207//2 208//2 209//2
f 209//73 210//73 211//73
f 211//73 212//73 213//73
f 213//2 214//2 215//2
f 215//2 216//2 185//2
f 185//2 187//2 189//2
f 189//2 191//2 185//2
f 191//2 193//2 185//2
f 205//2 207//2 201//2
f 207//2 209//2 201//2
f 209//2 211//2 213//2
f 213//2 215//2 185//2
f 193//2 197//2 185//2
f 197//2 201//2 185//2
f 209//2 213//2 185//2
f 156//3 188//3 187//3
f 183//42 215//42 214//42
f 170//43 202//43 201//43
f 157//6 189//6 188//6
f 184//62 216//62 215//62
f 171//8 203//8 202//8
f 158//9 190//9 189//9
f 153//10 185//10 216//10
f 172//63 204//63 203//63
f 159//12 191//12 190//12
f 173//48 205//48 204//48
f 160//14 192//14 191//14
f 174//15 206//15 205//15
f 161//50 193//50 192//50
f 175//64 207//64 206//64
f 162//18 194//18 193//18
f 176//65 208//65 207//65
f 163//20 195//20 194//20
f 177//21 209//21 208//21
f 164//66 196//66 195//66
f 178//52 210//52 209//52
f 165//80 197//80 196//80
f 179//54 211//54 210//54
f 166//55 198//55 197//55
f 180//27 212//27 211//27
f 167//28 199//28 198//28
f 154//67 186//67 185//67
f 181//68 213//68 212//68
f 168//69 200//69 199//69
f 155//32 187//32 186//32
f 182//57 214//57 213//57
f 169//81 201//81 200//81
