# Blender v2.79 (sub 0) OBJ File: 'DHD_separated.blend'
# www.blender.org
o 11_DHD_symbols_outer_Cylinder.013
v -0.312628 1.179499 0.185236
v -0.350036 1.147501 0.131900
v -0.367846 1.127111 0.098048
v -0.336089 1.160728 0.153911
v -0.441990 1.181834 0.300358
v -0.496695 1.135550 0.223263
v -0.522049 1.105883 0.173953
v -0.456413 1.130971 0.171689
v -0.463212 1.133617 0.182158
v -0.450935 1.137881 0.182720
v -0.443774 1.142208 0.187010
v -0.436532 1.146044 0.190183
v -0.427134 1.150273 0.192692
v -0.416546 1.154356 0.194052
v -0.407459 1.157493 0.194427
v -0.395176 1.160829 0.192988
v -0.367583 1.167258 0.187466
v -0.362662 1.170020 0.189955
v -0.364013 1.165195 0.180518
v -0.368039 1.165560 0.184130
v -0.395128 1.159155 0.189353
v -0.407657 1.155661 0.190624
v -0.416201 1.152698 0.190240
v -0.435690 1.144762 0.186833
v -0.450051 1.137000 0.180205
vt 0.777471 0.030793
vt 0.786090 0.026537
vt 0.825916 0.091205
vt 0.952489 0.191517
vt 0.984460 0.191500
vt 0.973196 0.222023
vt 0.948342 0.197286
vt 0.924651 0.189040
vt 0.903394 0.178883
vt 0.909557 0.171900
vt 0.879546 0.163192
vt 0.856083 0.143226
vt 0.864269 0.136555
vt 0.837782 0.124851
vt 0.846992 0.119331
vt 0.817567 0.096979
vt 0.762251 0.024412
vt 0.786755 0.012502
vt 0.758740 0.791005
vt 0.668377 0.915336
vt 0.138076 0.304839
vt 0.405599 0.024460
vt 0.828427 0.712398
vt 0.936976 0.597895
vt 0.019766 0.486110
vn -0.2835 0.8697 -0.4040
vn -0.2834 0.8697 -0.4041
vn -0.2836 0.8697 -0.4040
vn -0.2835 0.8696 -0.4042
vn -0.2835 0.8698 -0.4039
vn -0.2835 0.8697 -0.4041
vn -0.2836 0.8696 -0.4042
vn -0.2966 0.8844 -0.3604
vn -0.3025 0.8782 -0.3705
vn -0.2951 0.8871 -0.3549
vn -0.2846 0.8981 -0.3353
vn -0.2854 0.8959 -0.3404
vn -0.2787 0.9014 -0.3314
vn -0.3037 0.8773 -0.3717
s off
f 17/1/1 20/2/1 21/3/1
f 25/4/1 8/5/1 9/6/1
f 10/7/2 11/8/2 25/4/2
f 11/8/3 12/9/3 24/10/3
f 25/4/4 9/6/4 10/7/4
f 24/10/3 25/4/3 11/8/3
f 12/9/1 13/11/1 24/10/1
f 13/11/5 14/12/5 23/13/5
f 14/12/6 15/14/6 22/15/6
f 15/14/7 16/16/7 21/3/7
f 16/16/4 17/1/4 21/3/4
f 17/1/3 18/17/3 19/18/3
f 17/1/3 19/18/3 20/2/3
f 14/12/5 22/15/5 23/13/5
f 22/15/6 15/14/6 21/3/6
f 23/13/1 24/10/1 13/11/1
s 1
f 2/19/8 3/20/9 6/21/10
f 6/21/10 5/22/11 4/23/12
f 5/22/11 1/24/13 4/23/12
f 3/20/9 7/25/14 6/21/10
f 6/21/10 4/23/12 2/19/8
