# WaveFront *.obj file (generated by CINEMA 4D)

mtllib ./19.mtl

v 0.01230899989605 1.22899997234344 0.11559899896383
v -0.06717400252819 1.25460302829742 0.25704500079155
v 0.01975299976766 1.25814402103424 0.26293900609016
v -0.03443689644337 1.2440140247345 0.17084623873234
v -0.01172288507223 1.24309718608856 0.16687129437923
v -0.0020558568649 1.24666738510132 0.18554364144802
v -0.01426204293966 1.24263191223145 0.16439354419708
v -0.03618197143078 1.24321639537811 0.16668327152729
v -0.038708999753 1.22689402103424 0.11214599758387
v -0.03722599893808 1.2576140165329 0.26231500506401
v -0.02105708234012 1.25694262981415 0.23774944245815
v -0.02594844438136 1.25565826892853 0.23098847270012
v -0.04028217121959 1.24866116046906 0.19454717636108
v -0.04781854897738 1.24945020675659 0.19835664331913
v -0.03997988253832 1.25001633167267 0.20152713358402
v -0.03806216642261 1.24969267845154 0.19992025196552
v -0.00531971408054 1.24637758731842 0.18394200503826
v -0.00154446356464 1.25231504440308 0.21459844708443
v -0.00489909062162 1.25307631492615 0.2184052169323
v 0.00458988035098 1.25296688079834 0.21814681589603
v 0.00097078282852 1.25248003005981 0.21552617847919
v 0.00199910416268 1.24421977996826 0.17309142649174
v -0.01163766719401 1.24172043800354 0.15979598462582
v -0.04384781420231 1.24867784976959 0.19451536238194
v -0.01618742384017 1.25566208362579 0.23132987320423
v -0.0168687440455 1.25521779060364 0.22902305424213
# 26 vertices

vn 0.00629886146635 0.98159146308899 -0.19088870286942
vn 0.00633405800909 0.98161041736603 -0.19079013168812
vn 0.00631353678182 0.98161149024963 -0.1907853782177
vn 0 0 0
vn 0.00629562465474 0.98157632350922 -0.19096675515175
vn 0.00629753200337 0.98156571388245 -0.19102114439011
vn 0.00629371730611 0.98158693313599 -0.19091235101223
vn -0.03238020464778 0.97970944643021 -0.19779008626938
vn -0.06322380155325 0.97787266969681 -0.19941851496696
vn -0.04506232589483 0.97880238294601 -0.19978806376457
vn -0.01694593019783 0.98027616739273 -0.19690479338169
vn -0.00700405752286 0.98103648424149 -0.19369645416737
vn 0.00612163869664 0.98160099983215 -0.19084540009499
vn 0.00630125682801 0.98159819841385 -0.19085396826267
vn 0.00635893410072 0.98159694671631 -0.19085849821568
vn 0.00612048525363 0.98159736394882 -0.19086422026157
vn 0.00576635077596 0.9816061258316 -0.19083033502102
vn 0.00634225830436 0.98158413171768 -0.19092500209808
vn 0.00633224053308 0.98158699274063 -0.19091068208218
vn 0.00639670016244 0.9816158413887 -0.19076018035412
vn 0.00606736168265 0.98159158229828 -0.19089551270008
vn 0.00612438376993 0.98160666227341 -0.19081641733646
vn 0.00608697300777 0.98159259557724 -0.19088977575302
vn 0.00620279368013 0.98158437013626 -0.19092836976051
vn 0.0063488939777 0.98159199953079 -0.19088423252106
vn 0.00642814626917 0.98158711194992 -0.19090692698956
# 26 normals

vt 0.91166698932648 0.04383897781372 0
vt 0.96721702814102 0.1028550863266 0
vt 0.92388701438904 0.04123306274414 0
vt 0.83076500892639 0.1069700717926 0
vt 0.81294202804565 0.15779507160187 0
vt 0.87279802560806 0.15779507160187 0
vt 0.84713900089264 0.10169506072998 0
vt 0.13935199379921 0.30352807044983 0
vt 0.01674900017679 0.48879301548004 0
vt 0.67109197378159 0.92046403884888 0
vt 0.94211399555206 0.59901702404022 0
vt 0.40843001008034 0.0223560333252 0
vt 0.91968101263046 0.21081507205963 0
vt 0.9481920003891 0.2168790102005 0
vt 0.9449480175972 0.19665503501892 0
vt 0.93488299846649 0.18945598602295 0
vt 0.91760498285294 0.20183002948761 0
vt 0.9259780049324 0.02138197422028 0
vt 0.86038601398468 0.0353330373764 0
vt 0.98067200183868 0.09331798553467 0
vt 0.77601498365402 0.17106306552887 0
vt 0.76047402620316 0.17190706729889 0
vt 0.78656202554703 0.19214498996735 0
vt 0.7849799990654 0.17328906059265 0
vt 0.84615397453308 0.08284604549408 0
vt 0.85860598087311 0.08448600769043 0
# 26 texture coordinates

o 19_DHD_symbols_outer_Cylinder.058
usemtl Symbole
f 7/3/3 4/2/2 5/1/1
f 12/6/5 11/5/6 25/4/5
f 12/6/5 25/4/5 26/7/7
f 9/10/10 2/9/9 10/8/8
f 10/8/8 3/12/12 1/11/11
f 1/11/11 9/10/10 10/8/8
f 24/15/15 14/14/14 15/13/13
f 15/13/13 16/17/17 13/16/16
f 24/15/15 15/13/13 13/16/16
f 22/19/19 23/18/18 5/1/1
f 23/18/18 7/3/3 5/1/1
f 8/20/20 24/15/15 4/2/2
f 24/15/15 13/16/16 4/2/2
f 19/23/23 20/22/22 21/21/21
f 18/24/24 19/23/23 21/21/21
f 18/24/24 21/21/21 6/25/25
f 17/26/26 18/24/24 6/25/25
f 7/3/3 8/20/20 4/2/2
f 5/1/1 17/26/26 22/19/19
f 17/26/26 6/25/25 22/19/19

