# WaveFront *.obj file (generated by CINEMA 4D)

mtllib ./21.mtl

v -0.18934978544712 1.21726393699646 0.15990270674229
v -0.18604734539986 1.21813201904297 0.15997537970543
v -0.22189147770405 1.2043741941452 0.14456202089787
v -0.20942018926144 1.20572352409363 0.13834494352341
v -0.15326899290085 1.19193398952484 0.0539099983871
v -0.19694900512695 1.22578597068787 0.20908500254154
v -0.26034399867058 1.19537198543549 0.15886899828911
v -0.24008999764919 1.20792901515961 0.17936600744724
v -0.11560799926519 1.20976805686951 0.08362299948931
v -0.17932400107384 1.2010715007782 0.09670553356409
v -0.17043650150299 1.20309031009674 0.09583999961615
v -0.17305901646614 1.20018529891968 0.08831349760294
v -0.1804434210062 1.19877374172211 0.0899338722229
v -0.21431182324886 1.20486688613892 0.13967975974083
v -0.19689440727234 1.21526265144348 0.15967406332493
v -0.21635773777962 1.20515298843384 0.14241081476212
v -0.15626682341099 1.21144235134125 0.11174585670233
v -0.19604621827602 1.21432447433472 0.15578158199787
v -0.19603648781776 1.21890962123871 0.17121767997742
v -0.2197507172823 1.20193028450012 0.13448087871075
v -0.16303306818008 1.21058440208435 0.11469431966543
v -0.19443228840828 1.21317541599274 0.15051558613777
v -0.18101987242699 1.20259273052216 0.1032947152853
v -0.17420436441898 1.20414221286774 0.10263026505709
v -0.19716607034206 1.21269023418427 0.1512425839901
v -0.16198997199535 1.2060272693634 0.098443351686
v -0.16772694885731 1.2063934803009 0.10462740063667
# 27 vertices

vn -0.23848421871662 0.93098777532578 -0.27638208866119
vn -0.23843657970428 0.93101394176483 -0.27633500099182
vn -0.23849213123322 0.93101215362549 -0.27629312872887
vn 0 0 0
vn -0.23847371339798 0.93099278211594 -0.27637431025505
vn -0.23850311338902 0.93098813295364 -0.27636456489563
vn -0.23841099441051 0.93099582195282 -0.27641820907593
vn -0.23861221969128 0.93093758821487 -0.27644068002701
vn -0.23845462501049 0.9309875369072 -0.27640843391418
vn -0.23850160837173 0.93098074197769 -0.27639070153236
vn -0.23847977817059 0.93101954460144 -0.27627891302109
vn -0.23852124810219 0.93100243806839 -0.27630078792572
vn -0.23845532536507 0.93102896213532 -0.27626824378967
vn -0.23844972252846 0.93101066350937 -0.27633473277092
vn -0.23844204843044 0.93098157644272 -0.2764393389225
vn -0.23847250640392 0.93100422620773 -0.27633664011955
vn -0.2385351806879 0.93099081516266 -0.27632787823677
vn -0.23852328956127 0.93098133802414 -0.2763699889183
vn -0.23845110833645 0.93103003501892 -0.27626824378967
vn -0.23858980834484 0.93095773458481 -0.27639207243919
vn -0.23862521350384 0.93094128370285 -0.27641701698303
vn -0.23859821259975 0.93095242977142 -0.27640268206596
vn -0.23851370811462 0.93100279569626 -0.27630606293678
vn -0.24511903524399 0.92583018541336 -0.28767183423042
vn -0.21893174946308 0.93860697746277 -0.26661917567253
vn -0.23426085710526 0.93162131309509 -0.27785539627075
vn -0.26462879776955 0.91650474071503 -0.29998445510864
vn -0.21237708628178 0.94250756502151 -0.25802209973335
# 28 normals

vt 0.78578501939774 0.12086606025696 0
vt 0.76419097185135 0.12189304828644 0
vt 0.90470999479294 0.18336403369904 0
vt 0.81655597686768 0.0421450138092 0
vt 0.79177397489548 0.02589201927185 0
vt 0.79073601961136 0.0526350736618 0
vt 0.81398898363113 0.01991498470306 0
vt 0.79052102565765 0.08334302902222 0
vt 0.76909500360489 0.07301902770996 0
vt 0.95974498987198 0.12636506557465 0
vt 0.96261501312256 0.09725499153137 0
vt 0.95166099071503 0.12108397483826 0
vt 0.97718501091003 0.12472903728485 0
vt 0.80711597204208 0.06771004199982 0
vt 0.82691597938538 0.05966603755951 0
vt 0.91304099559784 0.18153607845306 0
vt 0.91940599679947 0.20756101608276 0
vt 0.93672502040863 0.12425005435944 0
vt 0.89830297231674 0.21939504146576 0
vt 0.88904100656509 0.22449207305908 0
vt 0.9267470240593 0.2439090013504 0
vt 0.91372001171112 0.1969850063324 0
vt 0.66843301057816 0.91959601640701 0
vt 0.94316697120666 0.5981850028038 0
vt 0.11769700050354 0.33689606189728 0
vt 0.01821899972856 0.48830103874207 0
vt 0.40606200695038 0.02356600761414 0
# 27 texture coordinates

o 21_DHD_symbols_outer_Cylinder.041
usemtl Symbole
f 22/3/3 17/2/2 21/1/1
f 11/6/7 12/5/6 10/4/5
f 12/5/6 13/7/8 10/4/5
f 17/2/2 26/9/10 27/8/9
f 26/9/10 11/6/7 27/8/9
f 27/8/9 21/1/1 17/2/2
f 14/12/13 20/11/12 16/10/11
f 20/11/12 3/13/14 16/10/11
f 27/8/9 11/6/7 24/14/15
f 11/6/7 10/4/5 24/14/15
f 10/4/5 14/12/13 23/15/16
f 16/10/11 15/17/18 25/16/17
f 14/12/13 16/10/11 4/18/19
f 23/15/16 24/14/15 10/4/5
f 4/18/19 23/15/16 14/12/13
f 19/21/22 2/20/21 1/19/20
f 18/22/23 22/3/3 25/16/17
f 19/21/22 1/19/20 15/17/18
f 1/19/20 18/22/23 15/17/18
f 18/22/23 25/16/17 15/17/18
f 25/16/17 4/18/19 16/10/11
f 22/3/3 18/22/23 17/2/2
f 8/25/26 9/24/25 5/23/24
f 5/23/24 7/26/27 8/25/26
f 8/25/26 6/27/28 9/24/25

