# WaveFront *.obj file (generated by CINEMA 4D)

mtllib ./22.mtl

v -0.27488169074059 1.16759788990021 0.08754532039165
v -0.26944580674171 1.17107629776001 0.09203337132931
v -0.22245743870735 1.17940700054169 0.07194112986326
v -0.22069644927979 1.18120300769806 0.07520839571953
v -0.22123315930367 1.17691802978516 0.06408475339413
v -0.22480045258999 1.176513671875 0.06622983515263
v -0.26019644737244 1.17270457744598 0.08804690092802
v -0.26604473590851 1.17015337944031 0.08644545078278
v -0.21665436029434 1.16837584972382 0.03678227961063
v -0.21472428739071 1.17034471035004 0.04036296904087
v -0.1611790060997 1.18629598617554 0.04552699998021
v -0.31707900762558 1.14738202095032 0.07959800213575
v -0.30538299679756 1.16180896759033 0.10386499762535
v -0.27422600984573 1.1864949464798 0.14469300210476
v -0.18632599711418 1.16332697868347 0.00732599990442
v -0.28093525767326 1.16284894943237 0.08017349243164
v -0.25445687770844 1.17730069160461 0.09528934210539
v -0.25094953179359 1.18109774589539 0.10239008814096
v -0.27050507068634 1.17920029163361 0.11500702798367
v -0.25824466347694 1.18513095378876 0.11994202435017
v -0.24605205655098 1.18332552909851 0.10398029536009
v -0.25331911444664 1.17591381072998 0.09049683064222
v -0.21657378971577 1.18166947364807 0.072728946805
v -0.22266927361488 1.17868781089783 0.07018477469683
v -0.25265169143677 1.17529439926147 0.08821094036102
v -0.27109476923943 1.16709470748901 0.08274414390326
v -0.20385183393955 1.17470717430115 0.04231221973896
# 27 vertices

vn -0.29989710450172 0.89495146274567 -0.33033862709999
vn -0.29988810420036 0.89497321844101 -0.33028793334961
vn -0.29992198944092 0.89493656158447 -0.33035641908646
vn 0 0 0
vn -0.2998671233654 0.89495289325714 -0.33036205172539
vn -0.29990839958191 0.89496129751205 -0.33030182123184
vn -0.29994943737984 0.89494282007217 -0.33031460642815
vn -0.29990443587303 0.8949521780014 -0.33032995462418
vn -0.29991778731346 0.89494645595551 -0.33033332228661
vn -0.29996690154076 0.89496314525604 -0.3302435874939
vn -0.29993632435799 0.89495313167572 -0.33029848337173
vn -0.29996570944786 0.89499646425247 -0.33015435934067
vn -0.29987037181854 0.89498460292816 -0.33027318120003
vn -0.29987072944641 0.89496803283691 -0.33031770586967
vn -0.29983395338058 0.89492678642273 -0.33046281337738
vn -0.29986429214478 0.89495539665222 -0.33035784959793
vn -0.29992187023163 0.89496141672134 -0.33028921484947
vn -0.29991498589516 0.89495700597763 -0.33030739426613
vn -0.29987064003944 0.89499545097351 -0.33024352788925
vn -0.29994359612465 0.89495539665222 -0.33028581738472
vn -0.29998862743378 0.89494490623474 -0.33027336001396
vn -0.30004480481148 0.89492344856262 -0.33028036355972
vn -0.29989522695541 0.89501655101776 -0.33016395568848
vn -0.29599159955978 0.88973915576935 -0.34749564528465
vn -0.31137278676033 0.87519693374634 -0.37023949623108
vn -0.30127373337746 0.88392436504364 -0.35764759778976
vn -0.28819343447685 0.89668852090836 -0.33599734306335
vn -0.28528273105621 0.90092700719833 -0.32702344655991
# 28 normals

vt 0.80566400289536 0.10749506950378 0
vt 0.81338202953339 0.12025797367096 0
vt 0.82951599359512 0.11008703708649 0
vt 0.88055801391602 0.0665580034256 0
vt 0.87048697471619 0.01963007450104 0
vt 0.83366197347641 0.03341603279114 0
vt 0.89504599571228 0.06207799911499 0
vt 0.82331997156143 0.09519100189209 0
vt 0.84664499759674 0.10553503036499 0
vt 0.86673402786255 0.0858119726181 0
vt 0.86711698770523 0.0986590385437 0
vt 0.7846320271492 0.12758004665375 0
vt 0.94508600234985 0.23196697235107 0
vt 0.9376699924469 0.24168300628662 0
vt 0.97633802890778 0.22627198696136 0
vt 0.95866698026657 0.14495098590851 0
vt 0.94867497682571 0.13845098018646 0
vt 0.94190800189972 0.14731407165527 0
vt 0.94030600786209 0.15205001831055 0
vt 0.94076001644135 0.16840600967407 0
vt 0.93211299180984 0.16278207302094 0
vt 0.86764800548553 0.1047830581665 0
vt 0.13354499638081 0.31256508827209 0
vt 0.0184339992702 0.48852801322937 0
vt 0.67018097639084 0.92068201303482 0
vt 0.93056702613831 0.59628301858902 0
vt 0.40850800275803 0.02191698551178 0
# 27 texture coordinates

o 22_DHD_symbols_outer_Cylinder.042
usemtl Symbole
f 8/3/3 26/2/2 1/1/1
f 19/6/7 20/5/6 18/4/5
f 20/5/6 21/7/8 18/4/5
f 1/1/1 2/8/9 8/3/3
f 2/8/9 17/10/11 7/9/10
f 8/3/3 2/8/9 7/9/10
f 17/10/11 18/4/5 21/7/8
f 17/10/11 21/7/8 22/11/12
f 16/12/13 1/1/1 26/2/2
f 27/15/16 9/14/15 10/13/14
f 3/18/19 4/17/18 23/16/17
f 23/16/17 5/20/21 24/19/20
f 5/20/21 6/21/22 24/19/20
f 3/18/19 23/16/17 24/19/20
f 3/18/19 24/19/20 25/22/23
f 22/11/12 3/18/19 25/22/23
f 22/11/12 25/22/23 7/9/10
f 27/15/16 10/13/14 26/2/2
f 10/13/14 16/12/13 26/2/2
f 17/10/11 22/11/12 7/9/10
f 15/25/26 12/24/25 13/23/24
f 13/23/24 14/27/28 11/26/27
f 11/26/27 15/25/26 13/23/24

