# WaveFront *.obj file (generated by CINEMA 4D)

mtllib ./24.mtl

v -0.30159792304039 1.05906999111176 -0.09984835237265
v -0.32059675455093 1.07412171363831 -0.0641592592001
v -0.31393727660179 1.07478833198547 -0.06749773025513
v -0.25535342097282 1.09759998321533 -0.07069658488035
v -0.26416656374931 1.09269857406616 -0.07248474657536
v -0.33854699134827 1.04795598983765 -0.08658400177956
v -0.19420300424099 1.09586095809937 -0.10574600100517
v -0.20170600712299 1.12203800678253 -0.06241500005126
v -0.33048099279404 1.03290104866028 -0.11192899942398
v -0.34319299459457 1.07733201980591 -0.03798399865627
v -0.29944348335266 1.06330633163452 -0.0947233736515
# 11 vertices

vn -0.33575159311295 0.79055392742157 -0.51214778423309
vn -0.33583843708038 0.79056948423386 -0.51206684112549
vn -0.33574289083481 0.79055446386337 -0.51215267181396
vn 0 0 0
vn -0.33578729629517 0.79047703742981 -0.51224303245544
vn -0.33587136864662 0.79051810503006 -0.51212453842163
vn -0.33578306436539 0.79047238826752 -0.51225304603577
vn -0.33173057436943 0.77872568368912 -0.53248584270477
vn -0.32723397016525 0.76304316520691 -0.5573895573616
vn -0.3285186290741 0.77249228954315 -0.54344379901886
vn -0.33386871218681 0.78630864620209 -0.51985609531403
vn -0.33798509836197 0.79079538583756 -0.51030260324478
# 12 normals

vt 0.772421002388 0.01642405986786 0
vt 0.88144302368164 0.23429298400879 0
vt 0.79809302091599 0.04016208648682 0
vt 0.98812299966812 0.09884703159332 0
vt 0.88125801086426 0.20636200904846 0
vt 0.96263998746872 0.10303699970245 0
vt 0.12641400098801 0.32032299041748 0
vt 0.0180440004915 0.48897004127502 0
vt 0.67023301124573 0.91788601875305 0
vt 0.94323498010635 0.59762400388718 0
vt 0.40660500526428 0.02077805995941 0
# 11 texture coordinates

o 24_DHD_symbols_outer_Cylinder.044
usemtl Symbole
f 5/3/3 2/2/2 4/1/1
f 5/3/3 4/1/1 1/4/5
f 5/3/3 3/5/6 2/2/2
f 2/2/2 3/5/6 1/4/5
f 3/5/6 11/6/7 1/4/5
f 11/6/7 5/3/3 1/4/5
f 7/9/10 9/8/9 6/7/8
f 6/7/8 10/11/12 8/10/11
f 8/10/11 7/9/10 6/7/8

