# WaveFront *.obj file (generated by CINEMA 4D)

mtllib ./25.mtl

v -0.16619999706745 1.06481194496155 -0.15764999389648
v -0.21961495280266 1.05770111083984 -0.14816696941853
v -0.21870964765549 1.05941104888916 -0.14679200947285
v -0.20562011003494 1.05801856517792 -0.15464881062508
v -0.20636317133904 1.05677926540375 -0.15560093522072
v -0.28012976050377 1.03330433368683 -0.14457875490189
v -0.18958500027657 1.08826005458832 -0.11863099783659
v -0.28300398588181 0.98017102479935 -0.19968500733376
v -0.32284599542618 1.02012002468109 -0.13320000469685
v -0.2760713994503 1.03592467308044 -0.14377543330193
v -0.30014398694038 0.99308997392654 -0.17793600261211
v -0.25607585906982 1.03171980381012 -0.15798117220402
v -0.25939586758614 1.03502714633942 -0.15285333991051
v -0.27552223205566 1.04200804233551 -0.13758586347103
v -0.27473631501198 1.03924131393433 -0.14090415835381
v -0.23656420409679 1.03086602687836 -0.16839477419853
v -0.23458874225616 1.03459703922272 -0.16539691388607
v -0.24205408990383 1.04663419723511 -0.14898134768009
v -0.24572575092316 1.04794216156006 -0.14580427110195
v -0.23528033494949 1.0507218837738 -0.14794315397739
v -0.23698417842388 1.04750239849091 -0.15053027868271
v -0.23063358664513 1.03819024562836 -0.16350933909416
v -0.22524724900723 1.03823471069336 -0.16608686745167
v -0.26188811659813 1.02143716812134 -0.16606590151787
v -0.25683096051216 1.03758180141449 -0.15139164030552
v -0.25288274884224 1.03281247615814 -0.15837801992893
v -0.25470560789108 1.02579391002655 -0.16493956744671
v -0.24347791075706 1.025963306427 -0.17022952437401
v -0.24182866513729 1.03125727176666 -0.16541357338428
v -0.21508613228798 1.05622100830078 -0.15194483101368
v -0.21203330159187 1.05639111995697 -0.15325041115284
v -0.22727446258068 1.03211057186127 -0.17160008847713
v -0.24353268742561 1.02303612232208 -0.17331083118916
# 33 vertices

vn -0.31688892841339 0.69042187929153 -0.65030682086945
vn -0.31686589121819 0.69037652015686 -0.65036624670029
vn -0.31694579124451 0.69037395715714 -0.65033000707626
vn 0 0 0
vn -0.31694570183754 0.69033432006836 -0.65037214756012
vn -0.31687220931053 0.69041281938553 -0.65032458305359
vn -0.3170410990715 0.69030237197876 -0.65035951137543
vn -0.31688836216927 0.69040256738663 -0.65032768249512
vn -0.31688693165779 0.69039237499237 -0.65033912658691
vn -0.31698232889175 0.69048404693604 -0.65019530057907
vn -0.31697005033493 0.69035923480988 -0.65033388137817
vn -0.31693670153618 0.69041347503662 -0.65029257535934
vn -0.31690388917923 0.69033288955688 -0.6503940820694
vn -0.31689077615738 0.69031709432602 -0.65041726827621
vn -0.31690749526024 0.69034391641617 -0.65038055181503
vn -0.31688761711121 0.69036954641342 -0.65036302804947
vn -0.31687173247337 0.69038063287735 -0.65035903453827
vn -0.31686383485794 0.69039106369019 -0.6503518819809
vn -0.31678593158722 0.69036960601807 -0.65041255950928
vn -0.31675878167152 0.69049400091171 -0.65029376745224
vn -0.31673607230186 0.69055199623108 -0.65024316310883
vn -0.31664842367172 0.69052952528 -0.6503096818924
vn -0.31679460406303 0.69033080339432 -0.65044951438904
vn -0.31698754429817 0.69011795520782 -0.65058135986328
vn -0.31698498129845 0.6899898648262 -0.65071851015091
vn -0.31695833802223 0.69031167030334 -0.65039002895355
vn -0.31689217686653 0.69038081169128 -0.65034884214401
vn -0.31681483983994 0.69042885303497 -0.65033555030823
vn -0.29681617021561 0.72527974843979 -0.62118393182755
vn -0.28268399834633 0.71026730537415 -0.64467829465866
vn -0.28996703028679 0.71989113092422 -0.63061541318893
vn -0.31664082407951 0.69030225276947 -0.65055471658707
vn -0.30377385020256 0.73252063989639 -0.6092084646225
vn -0.31036528944969 0.73569637537003 -0.60201680660248
# 34 normals

vt 0.77912902832031 0.18779301643372 0
vt 0.83229297399521 0.22529304027557 0
vt 0.82219898700714 0.19265401363373 0
vt 0.81884199380875 0.11423003673553 0
vt 0.78888499736786 0.13642907142639 0
vt 0.82573199272156 0.12355697154999 0
vt 0.85014301538467 0.02014398574829 0
vt 0.81744199991226 0.01603507995605 0
vt 0.83253997564316 0.02438402175903 0
vt 0.82212001085281 0.17103505134583 0
vt 0.79421699047089 0.17967402935028 0
vt 0.9249039888382 0.14114904403687 0
vt 0.90644800662994 0.10837507247925 0
vt 0.90117597579956 0.12639605998993 0
vt 0.90765798091888 0.14367306232452 0
vt 0.84218299388886 0.18973004817963 0
vt 0.86225098371506 0.19490599632263 0
vt 0.86461901664734 0.21576106548309 0
vt 0.976213991642 0.18095803260803 0
vt 0.9670490026474 0.18229901790619 0
vt 0.96122997999191 0.20415103435516 0
vt 0.96332198381424 0.21555197238922 0
vt 0.97424298524857 0.23590302467346 0
vt 0.96757197380066 0.23653399944305 0
vt 0.84871202707291 0.09460699558258 0
vt 0.83454602956772 0.09188604354858 0
vt 0.7636039853096 0.12085402011871 0
vt 0.13185200095177 0.31507408618927 0
vt 0.01480100024492 0.48710906505585 0
vt 0.66715198755264 0.91894602775574 0
vt 0.86406701803207 0.00921297073364 0
vt 0.92887097597122 0.59433501958847 0
vt 0.40612599253654 0.02172005176544 0
# 33 texture coordinates

o 25_DHD_symbols_outer_Cylinder.064
usemtl Symbole
f 16/3/3 32/2/2 33/1/1
f 26/6/7 27/5/6 12/4/5
f 10/9/10 6/8/9 15/7/8
f 28/11/12 29/10/11 16/3/3
f 18/14/15 19/13/14 20/12/13
f 18/14/15 20/12/13 21/15/16
f 17/16/17 18/14/15 21/15/16
f 17/16/17 21/15/16 22/17/18
f 16/3/3 17/16/17 32/2/2
f 17/16/17 22/17/18 32/2/2
f 22/17/18 23/18/19 32/2/2
f 28/11/12 16/3/3 33/1/1
f 30/21/22 2/20/21 3/19/20
f 30/21/22 3/19/20 31/22/23
f 3/19/20 4/23/24 31/22/23
f 4/23/24 5/24/25 31/22/23
f 13/26/27 15/7/8 25/25/26
f 12/4/5 13/26/27 25/25/26
f 23/18/19 30/21/22 31/22/23
f 24/27/28 12/4/5 27/5/6
f 23/18/19 31/22/23 32/2/2
f 24/27/28 27/5/6 33/1/1
f 1/30/31 8/29/30 11/28/29
f 6/8/9 14/31/32 15/7/8
f 27/5/6 28/11/12 33/1/1
f 11/28/29 9/33/34 7/32/33
f 7/32/33 1/30/31 11/28/29
f 13/26/27 10/9/10 15/7/8
f 25/25/26 26/6/7 12/4/5

