# WaveFront *.obj file (generated by CINEMA 4D)

mtllib ./26.mtl

v -0.17672842741013 0.99815195798874 -0.22376595437527
v -0.15855300426483 1.05933105945587 -0.166777998209
v -0.20849800109863 0.93948799371719 -0.26739299297333
v -0.27045398950577 0.97109097242355 -0.21479800343513
v -0.23264800012112 0.9490219950676 -0.25127500295639
v -0.19492995738983 0.97282660007477 -0.24271067976952
v -0.19984152913094 0.97323566675186 -0.24057058990002
v -0.19777998328209 0.97659081220627 -0.23798459768295
v -0.23104651272297 0.99783170223236 -0.20524954795837
v -0.18443179130554 1.0255583524704 -0.19433379173279
v -0.18056507408619 1.03261947631836 -0.18872509896755
v -0.1726503521204 1.02244365215302 -0.20157399773598
v -0.18072989583015 1.02103006839752 -0.20011499524117
v -0.21977855265141 0.99816846847534 -0.20889918506145
v -0.1915534734726 0.98039925098419 -0.23642435669899
v -0.18972496688366 0.98327714204788 -0.23422659933567
v -0.18632127344608 0.98236668109894 -0.23632797598839
v -0.19035241007805 0.9808874130249 -0.23636600375175
v -0.18694886565208 1.00117266178131 -0.21717052161694
v -0.18555755913258 1.00173842906952 -0.21710447967052
v -0.1771489828825 0.99925416707993 -0.22252911329269
v -0.17048355937004 1.00862300395966 -0.21563027799129
v -0.17385928332806 1.00979125499725 -0.21328377723694
v -0.18747548758984 1.00406920909882 -0.21412417292595
v -0.17201167345047 1.00786733627319 -0.21583692729473
v -0.17478945851326 1.00882828235626 -0.21390700340271
v -0.18598999083042 1.00412094593048 -0.21459716558456
v -0.12218700349331 1.04077696800232 -0.19764199852943
# 28 vertices

vn -0.243622392416 0.68156111240387 -0.69001638889313
vn -0.24371023476124 0.68152791261673 -0.69001811742783
vn -0.24374352395535 0.68158477544785 -0.68995016813278
vn 0 0 0
vn -0.24428336322308 0.68128007650375 -0.69006025791168
vn -0.24390269815922 0.68153190612793 -0.68994623422623
vn -0.24400374293327 0.68135380744934 -0.69008630514145
vn -0.24353276193142 0.68158358335495 -0.690025806427
vn -0.24362488090992 0.68163585662842 -0.68994164466858
vn -0.24357458949089 0.68163728713989 -0.68995797634125
vn -0.24371068179607 0.68152165412903 -0.69002419710159
vn -0.24375376105309 0.6815265417099 -0.6900041103363
vn -0.24389354884624 0.68150901794434 -0.68997204303741
vn -0.24384579062462 0.68158406019211 -0.68991482257843
vn -0.24382822215557 0.68154442310333 -0.6899601817131
vn -0.243822067976 0.68155300617218 -0.68995386362076
vn -0.24382625520229 0.68155086040497 -0.68995451927185
vn -0.2438231408596 0.68154203891754 -0.68996429443359
vn -0.24385267496109 0.681511759758 -0.68998372554779
vn -0.24384792149067 0.68152332305908 -0.68997406959534
vn -0.24382576346397 0.68185710906982 -0.68965196609497
vn -0.24352876842022 0.68129366636276 -0.69031351804733
vn -0.24374438822269 0.68143182992935 -0.69010096788406
vn -0.24390421807766 0.68127626180649 -0.69019812345505
vn -0.23277653753757 0.68185818195343 -0.69345831871033
vn -0.21072843670845 0.66985028982162 -0.71196496486664
vn -0.22288437187672 0.67784494161606 -0.70060604810715
vn -0.2437162399292 0.68761366605759 -0.68395161628723
vn -0.2524422109127 0.68954575061798 -0.67882215976715
# 29 normals

vt 0.82258599996567 0.09863305091858 0
vt 0.8127229809761 0.09237897396088 0
vt 0.81133198738098 0.12033998966217 0
vt 0.90534698963165 0.1569390296936 0
vt 0.88692802190781 0.17164707183838 0
vt 0.91332697868347 0.16325104236603 0
vt 0.78338497877121 0.12848997116089 0
vt 0.7831699848175 0.14136004447937 0
vt 0.792484998703 0.13261198997498 0
vt 0.78324800729752 0.12460803985596 0
vt 0.7566459774971 0.10762000083923 0
vt 0.77714598178864 0.10323798656464 0
vt 0.76626801490784 0.09410905838013 0
vt 0.93069398403168 0.2193820476532 0
vt 0.98644202947617 0.20693802833557 0
vt 0.96278899908066 0.18906199932098 0
vt 0.93769299983978 0.19511008262634 0
vt 0.90372800827026 0.06207799911499 0
vt 0.92040199041367 0.02983200550079 0
vt 0.82144200801849 0.12163698673248 0
vt 0.89093899726868 0.18113100528717 0
vt 0.91332697868347 0.08116507530212 0
vt 0.90534198284149 0.08941507339478 0
vt 0.13993699848652 0.30012404918671 0
vt 0.01595200039446 0.48748600482941 0
vt 0.67175900936127 0.91725301742554 0
vt 0.93766301870346 0.59804904460907 0
vt 0.40640100836754 0.0198700428009 0
# 28 texture coordinates

o 26_DHD_symbols_outer_Cylinder.046
usemtl Symbole
f 23/3/3 22/2/2 25/1/1
f 19/6/7 27/5/6 20/4/5
f 16/9/10 17/8/9 18/7/8
f 18/7/8 6/11/12 15/10/11
f 6/11/12 7/13/14 8/12/13
f 6/11/12 8/12/13 15/10/11
f 15/10/11 16/9/10 18/7/8
f 10/16/17 11/15/16 12/14/15
f 10/16/17 12/14/15 13/17/18
f 9/19/20 10/16/17 14/18/19
f 23/3/3 25/1/1 26/20/21
f 15/10/11 8/12/13 14/18/19
f 8/12/13 9/19/20 14/18/19
f 10/16/17 13/17/18 14/18/19
f 24/21/22 23/3/3 27/5/6
f 23/3/3 26/20/21 27/5/6
f 25/1/1 22/2/2 1/22/23
f 21/23/24 25/1/1 1/22/23
f 19/6/7 24/21/22 27/5/6
f 20/4/5 21/23/24 19/6/7
f 21/23/24 1/22/23 19/6/7
f 28/26/27 3/25/26 5/24/25
f 5/24/25 4/28/29 2/27/28
f 2/27/28 28/26/27 5/24/25

