# WaveFront *.obj file (generated by CINEMA 4D)

mtllib ./27.mtl

v -0.11130800098181 1.03668701648712 -0.20446400344372
v -0.11255799978971 0.91262298822403 -0.31210500001907
v -0.19057400524616 0.93268299102783 -0.2787190079689
v -0.06550599634647 1.02486300468445 -0.22400000691414
v -0.1413349956274 0.91776698827744 -0.30322998762131
v -0.09790176898241 0.99294900894165 -0.24872985482216
v -0.09215518087149 1.00288844108582 -0.24128478765488
v -0.09909747540951 1.00154197216034 -0.24090078473091
v -0.11372827738523 1.00596475601196 -0.23370869457722
v -0.10158124566078 0.99816566705704 -0.24331066012383
v -0.11747409403324 1.00291478633881 -0.23554572463036
v -0.14125131070614 0.96321308612823 -0.26510167121887
v -0.11809277534485 0.9658390879631 -0.26801925897598
v -0.10941536724567 0.97022712230682 -0.26611799001694
v -0.11291375011206 0.9576963186264 -0.2763504087925
v -0.12034004181623 0.96109110116959 -0.27168905735016
v -0.15142990648746 0.95691561698914 -0.26834562420845
v -0.11693984270096 1.01004004478455 -0.22939877212048
v -0.11252780258656 1.00796902179718 -0.23221635818481
# 19 vertices

vn -0.16700677573681 0.65121525526047 -0.74028873443604
vn -0.167052090168 0.65126061439514 -0.74023866653442
vn -0.1670244038105 0.6512326002121 -0.74026954174042
vn 0 0 0
vn -0.15818274021149 0.65419560670853 -0.73959881067276
vn -0.14491318166256 0.65071815252304 -0.7453630566597
vn -0.13305974006653 0.64861661195755 -0.74939411878586
vn -0.11827933043242 0.64333140850067 -0.75639587640762
vn -0.16854649782181 0.65460586547852 -0.73694181442261
vn -0.16713985800743 0.65122026205063 -0.74025428295136
vn -0.16720429062843 0.65124237537384 -0.74022030830383
vn -0.16714549064636 0.65128397941589 -0.74019694328308
vn -0.16714349389076 0.65115851163864 -0.74030780792236
vn -0.16708908975124 0.65120303630829 -0.74028092622757
vn -0.16704712808132 0.65123748779297 -0.74026012420654
vn -0.16708545386791 0.65120160579681 -0.74028301239014
vn -0.16705726087093 0.65116381645203 -0.74032258987427
vn -0.16705410182476 0.65120959281921 -0.74028301239014
vn -0.16702929139137 0.65119391679764 -0.74030244350433
vn -0.16708067059517 0.65117049217224 -0.74031144380569
# 20 normals

vt 0.8446289896965 0.00936305522919 0
vt 0.79984498023987 0.1068639755249 0
vt 0.8491650223732 0.04687201976776 0
vt 0.93973898887634 0.5992060303688 0
vt 0.13714200258255 0.30688607692719 0
vt 0.66743898391724 0.9154109954834 0
vt 0.01722200028598 0.48823201656342 0
vt 0.4077909886837 0.0211660861969 0
vt 0.90735799074173 0.20484101772308 0
vt 0.90723699331284 0.23831808567047 0
vt 0.91562700271606 0.21607899665833 0
vt 0.87982499599457 0.20991206169128 0
vt 0.96157097816467 0.17743301391602 0
vt 0.96701598167419 0.18328499794006 0
vt 0.98374199867249 0.17246699333191 0
vt 0.95705199241638 0.16279804706573 0
vt 0.81392198801041 0.11895000934601 0
vt 0.7720519900322 0.1251779794693 0
vt 0.81396901607513 0.14981305599213 0
# 19 texture coordinates

o 27_DHD_symbols_outer_Cylinder.066
usemtl Symbole
f 12/3/3 16/2/2 17/1/1
f 4/6/7 5/5/6 1/4/5
f 2/7/8 5/5/6 4/6/7
f 5/5/6 3/8/9 1/4/5
f 8/11/12 7/10/11 10/9/10
f 7/10/11 6/12/13 10/9/10
f 18/15/16 19/14/15 9/13/14
f 9/13/14 8/11/12 10/9/10
f 9/13/14 10/9/10 11/16/17
f 14/19/20 15/18/19 13/17/18
f 15/18/19 16/2/2 13/17/18
f 18/15/16 9/13/14 11/16/17
f 12/3/3 13/17/18 16/2/2
f 18/15/16 11/16/17 17/1/1
f 11/16/17 12/3/3 17/1/1

