# Blender v2.79 (sub 0) OBJ File: 'DHD_separated.blend'
# www.blender.org
o 28_DHD_symbols_outer_Cylinder.048
v -0.057623 1.224481 0.108079
v -0.104229 1.213590 0.089952
v -0.178089 1.232034 0.219484
v -0.159949 1.237852 0.229167
v -0.150501 1.240576 0.233700
v -0.098683 1.250591 0.250368
v -0.107909 1.236387 0.185490
v -0.093179 1.236725 0.175471
v -0.076669 1.235437 0.156923
v -0.085422 1.235311 0.163205
v -0.103466 1.237763 0.188064
v -0.111500 1.242625 0.215691
v -0.122037 1.227309 0.156650
v -0.123480 1.229334 0.166674
v -0.126202 1.228138 0.163544
v -0.143129 1.233263 0.199269
v -0.124707 1.232062 0.179611
v -0.118753 1.233351 0.180624
v -0.123653 1.223922 0.143040
v -0.112478 1.226172 0.144194
v -0.089843 1.232688 0.155136
v -0.118913 1.225939 0.148194
v -0.087591 1.238356 0.178272
v -0.121511 1.231658 0.175338
v -0.122588 1.225142 0.147562
v -0.119704 1.234454 0.186208
v -0.112916 1.236354 0.189254
v -0.123431 1.233647 0.185574
v -0.110136 1.237215 0.190865
v -0.115164 1.240259 0.208157
v -0.134962 1.234398 0.197879
v -0.081029 1.219012 0.098975
v -0.120317 1.217607 0.118166
vt 0.881841 0.077845
vt 0.934913 0.077946
vt 0.923754 0.093979
vt 0.852233 0.176834
vt 0.855543 0.164484
vt 0.871362 0.187985
vt 0.873385 0.091485
vt 0.855833 0.089716
vt 0.861124 0.081179
vt 0.958691 0.113272
vt 0.989016 0.115597
vt 0.956906 0.141011
vt 0.788120 0.102365
vt 0.765207 0.111696
vt 0.827232 0.044648
vt 0.827693 0.019481
vt 0.841848 0.108274
vt 0.851044 0.121134
vt 0.836779 0.133149
vt 0.832919 0.115795
vt 0.850236 0.139088
vt 0.880871 0.212229
vt 0.911217 0.204917
vt 0.883543 0.225545
vt 0.889667 0.204798
vt 0.457599 0.779080
vt 0.018732 0.487462
vt 0.100519 0.358780
vt 0.771774 0.767095
vt 0.669758 0.918982
vt 0.144409 0.298764
vt 0.405888 0.023247
vt 0.935062 0.591286
vn -0.1708 0.9607 -0.2187
vn -0.1707 0.9607 -0.2187
vn -0.1710 0.9607 -0.2188
vn -0.1707 0.9608 -0.2186
vn -0.1708 0.9607 -0.2188
vn -0.1709 0.9607 -0.2186
vn -0.1709 0.9607 -0.2188
vn -0.1707 0.9607 -0.2188
vn -0.1709 0.9607 -0.2187
vn -0.1405 0.9653 -0.2201
vn -0.1791 0.9546 -0.2381
vn -0.1709 0.9567 -0.2355
vn -0.1409 0.9657 -0.2179
vn -0.1373 0.9640 -0.2275
vn -0.1229 0.9674 -0.2213
s off
f 11/1/1 23/2/1 8/3/1
f 15/4/2 14/5/2 13/6/2
f 8/3/2 7/7/2 11/1/2
f 7/7/3 27/8/3 29/9/3
f 7/7/4 29/9/4 11/1/4
f 10/10/5 9/11/5 21/12/5
f 31/13/5 16/14/5 30/15/5
f 16/14/6 12/16/6 30/15/6
f 30/15/2 12/16/2 11/1/2
f 10/10/7 21/12/7 8/3/7
f 29/9/8 30/15/8 11/1/8
f 23/2/1 10/10/1 8/3/1
f 26/17/2 27/8/2 18/18/2
f 27/8/9 7/7/9 18/18/9
f 16/14/1 31/13/1 17/19/1
f 31/13/5 28/20/5 17/19/5
f 28/20/5 26/17/5 18/18/5
f 28/20/1 18/18/1 17/19/1
f 18/18/1 24/21/1 17/19/1
f 25/22/2 15/4/2 13/6/2
f 15/4/8 17/19/8 14/5/8
f 20/23/5 19/24/5 22/25/5
f 19/24/5 25/22/5 22/25/5
f 17/19/3 24/21/3 14/5/3
f 13/6/1 22/25/1 25/22/1
s 1
f 33/26/10 3/27/11 4/28/12
f 33/26/10 32/29/13 2/30/13
f 4/28/12 5/31/14 33/26/10
f 5/31/14 6/32/15 33/26/10
f 6/32/15 1/33/13 33/26/10
f 1/33/13 32/29/13 33/26/10
