# WaveFront *.obj file (generated by CINEMA 4D)

mtllib ./31.mtl

v 0.2377809882164 0.9742192029953 -0.23302809894085
v 0.24841248989105 0.98602044582367 -0.21657967567444
v 0.19674098491669 1.02404189109802 -0.1970242112875
v 0.17367699742317 1.06693696975708 -0.15411800146103
v 0.20737162232399 1.03584337234497 -0.18057535588741
v 0.18587075173855 1.03939855098724 -0.18523323535919
v 0.22691203653812 0.98957639932632 -0.22123716771603
v 0.27574899792671 0.97056299448013 -0.2156780064106
v 0.23780882358551 0.97108435630798 -0.23628844320774
v 0.25212264060974 0.98697263002396 -0.2141432762146
v 0.21108132600784 1.03679478168488 -0.17813935875893
v 0.18213382363319 1.04158222675323 -0.18441015481949
v 0.1407890021801 1.04674100875854 -0.18772999942303
v 0.29237601161003 0.98376500606537 -0.19370500743389
v 0.23634099960327 0.949353992939 -0.25097298622131
v 0.19676750898361 1.02090656757355 -0.20028452575207
v 0.22317425906658 0.99176043272018 -0.22041365504265
# 17 vertices

vn 0.25992718338966 0.69707757234573 -0.6682220697403
vn 0.25993391871452 0.69705158472061 -0.66824650764465
vn 0.26009851694107 0.69703108072281 -0.66820389032364
vn 0 0 0
vn 0.26135492324829 0.6928585767746 -0.67204213142395
vn 0.13258934020996 0.78695392608643 -0.60259735584259
vn 0.17654664814472 0.75783544778824 -0.62810570001602
vn 0.25995576381683 0.69716614484787 -0.66811847686768
vn 0.26003581285477 0.69701671600342 -0.66824328899384
vn 0.26007622480392 0.69703376293182 -0.66820979118347
vn 0.26014217734337 0.69702392816544 -0.66819435358047
vn 0.26000872254372 0.69706273078918 -0.66820579767227
vn 0.2600234746933 0.69706338644028 -0.66819936037064
vn 0.26011514663696 0.69707894325256 -0.66814750432968
vn 0.26004302501678 0.69713115692139 -0.6681210398674
vn 0.26135671138763 0.69286245107651 -0.67203742265701
vn -0.00018631623243 0.85724151134491 -0.51491451263428
vn 0.26006758213043 0.69704246520996 -0.66820400953293
# 18 normals

vt 0.79777801036835 0.19510507583618 0
vt 0.76859498023987 0.21836698055267 0
vt 0.99413502216339 0.15551197528839 0
vt 0.93710500001907 0.59561604261398 0
vt 0.40473398566246 0.02495300769806 0
vt 0.01793299987912 0.48774099349976 0
vt 0.88332599401474 0.00995707511902 0
vt 0.96603101491928 0.15971004962921 0
vt 0.9040219783783 0.02284598350525 0
vt 0.90027898550034 0.05036306381226 0
vt 0.99254697561264 0.17006397247314 0
vt 0.77183598279953 0.1965320110321 0
vt 0.80210000276566 0.17937099933624 0
vt 0.8829910159111 0.04030799865723 0
vt 0.66906601190567 0.9146900177002 0
vt 0.14032100141048 0.29842901229858 0
vt 0.01783500052989 0.48709297180176 0
vt 0.40611800551414 0.02696597576141 0
vt 0.96529102325439 0.14841604232788 0
# 19 texture coordinates

o 31_DHD_symbols_outer_Cylinder.051
usemtl Symbole
f 17/3/3 10/2/2 2/1/1
f 14/6/7 15/5/6 13/4/5
f 10/2/2 9/7/8 2/1/1
f 6/10/11 12/9/10 5/8/9
f 12/9/10 11/11/12 5/8/9
f 11/11/12 16/12/13 5/8/9
f 12/9/10 3/13/14 16/12/13
f 17/3/3 1/14/15 9/7/8
f 14/6/7 13/4/5 4/15/16
f 15/18/6 14/17/7 8/16/17
f 9/7/8 1/14/15 2/1/1
f 16/12/13 3/13/14 5/8/9
f 12/9/10 6/10/11 3/13/14
f 17/3/3 7/19/18 1/14/15
f 7/19/18 17/3/3 2/1/1

