# WaveFront *.obj file (generated by CINEMA 4D)

mtllib ./36.mtl

v 0.15306305885315 1.22357046604156 0.14764812588692
v 0.12338659912348 1.2268123626709 0.13906000554562
v 0.12812148034573 1.2261106967926 0.13975591957569
v 0.14211840927601 1.2260000705719 0.14899106323719
v 0.14384600520134 1.22659838199615 0.15236669778824
v 0.14877861738205 1.22692942619324 0.15697541832924
v 0.1492415368557 1.22751975059509 0.15945045650005
v 0.15314190089703 1.22677564620972 0.15941531956196
v 0.15335839986801 1.22548747062683 0.15485993027687
v 0.16087444126606 1.22276544570923 0.15008500218391
v 0.15986943244934 1.22196578979492 0.14646583795547
v 0.16753475368023 1.23348200321198 0.19384795427322
v 0.17067404091358 1.23248219490051 0.19235409796238
v 0.16912235319614 1.23171293735504 0.18847194314003
v 0.19315806031227 1.22349727153778 0.17499630153179
v 0.19163645803928 1.22203266620636 0.1685893535614
v 0.16028720140457 1.22651958465576 0.16340199112892
v 0.1548358798027 1.22459030151367 0.15259797871113
v 0.16400097310543 1.23124563694 0.18323889374733
v 0.18294528126717 1.22481262683868 0.17276668548584
v 0.18411700427532 1.23227894306183 0.22014300525188
v 0.15423357486725 1.21814835071564 0.12862890958786
v 0.16561968624592 1.23297119140625 0.19066071510315
v 0.18780869245529 1.22306287288666 0.16971907019615
v 0.15947091579437 1.23296916484833 0.18641993403435
v 0.17174553871155 1.22997117042542 0.1839113086462
v 0.17710915207863 1.22761535644531 0.17899486422539
v 0.15539145469666 1.22757422924042 0.16388827562332
v 0.16083036363125 1.23420774936676 0.19188411533833
v 0.17631778120995 1.22343397140503 0.16316336393356
v 0.17161630094051 1.2230635881424 0.15857253968716
v 0.16436098515987 1.22296941280365 0.15322840213776
v 0.16576623916626 1.22366273403168 0.1567310243845
v 0.16928647458553 1.22437644004822 0.16176450252533
v 0.19000713527203 1.22371852397919 0.17363002896309
v 0.09360499680042 1.21797394752502 0.09726200252771
v 0.16895994544029 1.22202670574188 0.15294907987118
v 0.16823093593121 1.22966527938843 0.18037390708923
v 0.15526942908764 1.21429705619812 0.11526259034872
v 0.18251118063927 1.22333300113678 0.16705892980099
v 0.15691547095776 1.21448051929474 0.11707131564617
v 0.19104519486427 1.22448468208313 0.17714916169643
v 0.14660876989365 1.22585320472717 0.15154604613781
v 0.18374411761761 1.22548675537109 0.17578303813934
v 0.15007793903351 1.21774888038635 0.12430918961763
v 0.15408739447594 1.21600794792175 0.12070222944021
v 0.13620500266552 1.20337104797363 0.07294599711895
v 0.17665514349937 1.22658956050873 0.17492939531803
v 0.14538964629173 1.22115790843964 0.13354124128819
v 0.15682600438595 1.23946595191956 0.23185400664806
v 0.22940599918365 1.21457505226135 0.19042700529099
v 0.13563317060471 1.2226425409317 0.13224713504314
v 0.12863598763943 1.22461795806885 0.13465246558189
v 0.17412379384041 1.22468256950378 0.16621655225754
v 0.14490351080894 1.2245157957077 0.14548161625862
v 0.13345408439636 1.22458946704864 0.13786575198174
v 0.15754751861095 1.22057116031647 0.13976602256298
v 0.16162315011024 1.2192577123642 0.13777570426464
v 0.1576846241951 1.21579909324646 0.12241829931736
v 0.16181534528732 1.21344411373138 0.11665221303701
v 0.12316815555096 1.22520053386688 0.13301527500153
# 61 vertices

vn 0.17872914671898 0.94897538423538 -0.25981074571609
vn 0.17878846824169 0.94898784160614 -0.25972437858582
vn 0.17879649996758 0.94899564981461 -0.25969040393829
vn 0 0 0
vn 0.17875117063522 0.94904589653015 -0.25953787565231
vn 0.1787616610527 0.94903981685638 -0.2595528960228
vn 0.17879647016525 0.94903355836868 -0.25955179333687
vn 0.17914336919785 0.94899171590805 -0.25946545600891
vn 0.17913676798344 0.9489973783493 -0.25944936275482
vn 0.17892330884933 0.94901961088181 -0.25951540470123
vn 0.17878906428814 0.94903594255447 -0.25954815745354
vn 0.17876939475536 0.94902038574219 -0.25961849093437
vn 0.17877541482449 0.94902366399765 -0.25960251688957
vn 0.17873804271221 0.94901579618454 -0.25965690612793
vn 0.17872206866741 0.94903647899628 -0.25959241390228
vn 0.17871659994125 0.94903272390366 -0.25960972905159
vn 0.17883156239986 0.94903498888016 -0.25952237844467
vn 0.17877267301083 0.94902974367142 -0.25958204269409
vn 0.17883303761482 0.94899886846542 -0.25965341925621
vn 0.17888751626015 0.94898241758347 -0.25967609882355
vn 0.17889809608459 0.94898909330368 -0.2596443593502
vn 0.1789715886116 0.94898945093155 -0.25959241390228
vn 0.17882834374905 0.94899898767471 -0.25965613126755
vn 0.17881225049496 0.94901210069656 -0.25961944460869
vn 0.17884151637554 0.94905143976212 -0.25945541262627
vn 0.17886617779732 0.94904804229736 -0.25945085287094
vn 0.17880579829216 0.94902014732361 -0.25959429144859
vn 0.17874193191528 0.94905209541321 -0.25952160358429
vn 0.17874759435654 0.9490709900856 -0.25944864749908
vn 0.17871554195881 0.94910842180252 -0.25933358073235
vn 0.17870658636093 0.94899094104767 -0.25976940989494
vn 0.17875596880913 0.94903212785721 -0.25958496332169
vn 0.17875145375729 0.94904029369354 -0.25955811142921
vn 0.17897495627403 0.94900214672089 -0.25954353809357
vn 0.17892442643642 0.94898331165314 -0.25964736938477
vn 0.17899470031261 0.94895541667938 -0.25970077514648
vn 0.19465617835522 0.94856977462769 -0.2496485710144
vn 0.20424357056618 0.94586497545242 -0.25223803520203
vn 0.18177582323551 0.95307868719101 -0.2420714199543
vn 0.17886309325695 0.94901120662689 -0.25958752632141
vn 0.17876939475536 0.94903177022934 -0.25957703590393
vn 0.17882458865643 0.94903385639191 -0.25953131914139
vn 0.17880009114742 0.94901740550995 -0.25960823893547
vn 0.17871278524399 0.94904607534409 -0.2595636844635
vn 0.17866505682468 0.94905680418015 -0.25955730676651
vn 0.17873795330524 0.94903910160065 -0.25957182049751
vn 0.17873838543892 0.94902884960175 -0.25960892438889
vn 0.17872299253941 0.94903784990311 -0.25958660244942
vn 0.17871180176735 0.94903123378754 -0.25961849093437
vn 0.17879556119442 0.94902169704437 -0.25959575176239
vn 0.17876335978508 0.94905108213425 -0.25951060652733
vn 0.17876423895359 0.94905006885529 -0.2595134973526
vn 0.17049504816532 0.95645016431808 -0.23692731559277
vn 0.17873355746269 0.94904750585556 -0.25954413414001
vn 0.17876948416233 0.94901603460312 -0.25963440537453
vn 0.17896848917007 0.94897311925888 -0.25965422391891
vn 0.17852364480495 0.94904029369354 -0.25971499085426
vn 0.17936743795872 0.94894325733185 -0.25948792695999
vn 0.15588369965553 0.96139937639236 -0.22674100100994
vn 0.17881539463997 0.94898480176926 -0.25971686840057
vn 0.17880508303642 0.94903373718262 -0.25954526662827
vn 0.17882303893566 0.94903641939163 -0.25952306389809
# 62 normals

vt 0.90462201833725 0.06075203418732 0
vt 0.86472797393799 0.05480599403381 0
vt 0.88238698244095 0.0860710144043 0
vt 0.92367500066757 0.16663503646851 0
vt 0.95571100711823 0.15332007408142 0
vt 0.9235680103302 0.13184297084808 0
vt 0.76142501831055 0.09136700630188 0
vt 0.76730102300644 0.10482907295227 0
vt 0.78076499700546 0.08981204032898 0
vt 0.81903702020645 0.09671700000763 0
vt 0.83446598052979 0.07041597366333 0
vt 0.80110198259354 0.07474803924561 0
vt 0.85080701112747 0.16681206226349 0
vt 0.8537369966507 0.19244706630707 0
vt 0.89214599132538 0.17567801475525 0
vt 0.83461797237396 0.13523197174072 0
vt 0.87704199552536 0.15556001663208 0
vt 0.87528699636459 0.0616409778595 0
vt 0.91464102268219 0.06596708297729 0
vt 0.91005098819733 0.04725503921509 0
vt 0.84937399625778 0.04517698287964 0
vt 0.82684201002121 0.05117702484131 0
vt 0.83248001337051 0.09076905250549 0
vt 0.80796098709106 0.10973000526428 0
vt 0.84635400772095 0.11672103404999 0
vt 0.87990701198578 0.1046040058136 0
vt 0.90462201833725 0.1443510055542 0
vt 0.84319698810577 0.12336504459381 0
vt 0.87959802150726 0.15933108329773 0
vt 0.88044100999832 0.04357504844666 0
vt 0.85519301891327 0.22144603729248 0
vt 0.94805300235748 0.18333506584167 0
vt 0.78405302762985 0.06345403194427 0
vt 0.7747660279274 0.13553905487061 0
vt 0.7922859787941 0.1514550447464 0
vt 0.94164198637009 0.59553802013397 0
vt 0.4074549973011 0.02028298377991 0
vt 0.13691799342632 0.30886006355286 0
vt 0.94435900449753 0.04765605926514 0
vt 0.95968699455261 0.03328704833984 0
vt 0.93669897317886 0.02481198310852 0
vt 0.87949502468109 0.07948303222656 0
vt 0.95708101987839 0.08770608901978 0
vt 0.98110699653625 0.09761905670166 0
vt 0.86667400598526 0.20823705196381 0
vt 0.90806198120117 0.19776201248169 0
vt 0.8884459733963 0.2214720249176 0
vt 0.86325597763062 0.07034397125244 0
vt 0.86929798126221 0.12871897220612 0
vt 0.83679401874542 0.20837807655334 0
vt 0.84946501255035 0.22032201290131 0
vt 0.67218601703644 0.92131000757217 0
vt 0.84758502244949 0.1981680393219 0
vt 0.82622700929642 0.23131906986237 0
vt 0.84178698062897 0.02114701271057 0
vt 0.81670600175858 0.01341497898102 0
vt 0.85417801141739 0.01249599456787 0
vt 0.01716700010002 0.48899698257446 0
vt 0.83918297290802 0.23905408382416 0
vt 0.97453099489212 0.18445801734924 0
vt 0.98798000812531 0.14980506896973 0
# 61 texture coordinates

o 36_DHD_symbols_outer_Cylinder.075
usemtl Symbole
f 9/3/3 6/2/2 8/1/1
f 52/6/7 53/5/6 56/4/5
f 35/9/10 42/8/9 15/7/8
f 24/12/13 40/11/12 20/10/11
f 35/9/10 24/12/13 20/10/11
f 19/15/16 14/14/15 26/13/14
f 38/17/18 26/13/14 27/16/17
f 31/20/21 34/19/20 30/18/19
f 22/23/24 59/22/23 46/21/22
f 48/25/26 27/16/17 44/24/25
f 9/3/3 10/27/28 18/26/27
f 10/27/28 11/29/30 1/28/29
f 18/26/27 10/27/28 1/28/29
f 18/26/27 6/2/2 9/3/3
f 6/2/2 7/30/31 8/1/1
f 3/32/33 4/31/32 56/4/5
f 16/33/34 24/12/13 35/9/10
f 57/35/36 58/34/35 22/23/24
f 58/34/35 59/22/23 22/23/24
f 21/38/39 51/37/38 47/36/37
f 38/17/18 19/15/16 26/13/14
f 37/41/42 32/40/41 33/39/40
f 33/39/40 34/19/20 31/20/21
f 34/19/20 54/42/43 30/18/19
f 20/10/11 48/25/26 44/24/25
f 48/25/26 38/17/18 27/16/17
f 38/17/18 17/43/44 19/15/16
f 17/43/44 28/44/45 19/15/16
f 19/15/16 25/46/47 23/45/46
f 25/46/47 29/47/48 23/45/46
f 49/49/50 45/48/49 52/6/7
f 44/24/25 35/9/10 20/10/11
f 31/20/21 37/41/42 33/39/40
f 23/45/46 12/51/52 13/50/51
f 15/7/8 16/33/34 35/9/10
f 23/45/46 13/50/51 14/14/15
f 19/15/16 23/45/46 14/14/15
f 47/36/37 36/52/53 21/38/39
f 20/10/11 40/11/12 54/42/43
f 53/5/6 3/32/33 56/4/5
f 43/54/55 55/53/54 4/31/32
f 59/22/23 60/56/57 41/55/56
f 41/55/56 39/57/58 46/21/22
f 36/52/53 50/58/59 21/38/39
f 40/11/12 30/18/19 54/42/43
f 59/22/23 41/55/56 46/21/22
f 56/4/5 49/49/50 52/6/7
f 49/49/50 22/23/24 45/48/49
f 45/48/49 22/23/24 46/21/22
f 55/53/54 56/4/5 4/31/32
f 4/31/32 5/59/60 43/54/55
f 61/61/62 2/60/61 53/5/6
f 2/60/61 3/32/33 53/5/6

