# WaveFront *.obj file (generated by CINEMA 4D)

mtllib ./37.mtl

v 0.09849124401808 1.24638116359711 0.21331982314587
v 0.06461580097675 1.24814343452454 0.20945146679878
v 0.06289830058813 1.24945878982544 0.21501132845879
v 0.05855110660195 1.2363303899765 0.15180797874928
v 0.07927600294352 1.25433897972107 0.25685399770737
v 0.02992100082338 1.22810995578766 0.1141199991107
v 0.07053285092115 1.23283767700195 0.13970546424389
v 0.07089085131884 1.23448383808136 0.14756287634373
v 0.07494853436947 1.23414719104767 0.14743599295616
v 0.08555053919554 1.23640358448029 0.161829829216
v 0.07938899844885 1.22135305404663 0.10287299752235
v 0.04901200160384 1.2566169500351 0.26039698719978
v 0.13329699635506 1.24510300159454 0.24123400449753
v 0.05375039950013 1.24479985237122 0.18985667824745
v 0.08323257416487 1.23741400241852 0.165746062994
v 0.05709799006581 1.24431443214417 0.18877883255482
v 0.09535858035088 1.24536180496216 0.20741149783134
v 0.0860452875495 1.2407101392746 0.18223249912262
v 0.08363913744688 1.24095451831818 0.18251368403435
v 0.08552883565426 1.25056195259094 0.22830359637737
v 0.10150536894798 1.24682533740997 0.2164843082428
v 0.0858173891902 1.25023019313812 0.22684964537621
v 0.06640854477882 1.2492835521698 0.21544797718525
v 0.07547058165073 1.23242783546448 0.13955084979534
v 0.09952057152987 1.24702525138855 0.21671195328236
v 0.06104362010956 1.23735463619232 0.15750904381275
v 0.10030592978001 1.24607408046722 0.21252895891666
# 27 vertices

vn 0.07452671229839 0.97533673048019 -0.2077594101429
vn 0.07447578012943 0.97534000873566 -0.20776256918907
vn 0.0744961425662 0.97533845901489 -0.20776252448559
vn 0 0 0
vn 0.0744716078043 0.97534281015396 -0.20775070786476
vn 0.07441908866167 0.97535365819931 -0.20771867036819
vn 0.07445740699768 0.9753452539444 -0.2077445089817
vn 0.07436432689428 0.97536325454712 -0.20769321918488
vn 0.07457125931978 0.97533541917801 -0.20774982869625
vn 0.0744693428278 0.97535455226898 -0.20769645273685
vn 0.07443801313639 0.97533965110779 -0.20777778327465
vn 0.07440149784088 0.9753423333168 -0.20777800679207
vn 0.07445774972439 0.97533416748047 -0.20779633522034
vn 0.07445477694273 0.97534716129303 -0.20773628354073
vn 0.07446113228798 0.97534382343292 -0.2077498883009
vn 0.07443133741617 0.97534608840942 -0.20774984359741
vn 0.07452300190926 0.97533404827118 -0.20777359604836
vn 0.0744821280241 0.97534734010696 -0.20772576332092
vn 0.07450684159994 0.97534424066544 -0.20773144066334
vn 0.07455018907785 0.97534376382828 -0.20771813392639
vn 0.07445633411407 0.9753480553627 -0.20773151516914
vn 0.07477361708879 0.97531026601791 -0.20779502391815
vn 0.08077304065228 0.97546398639679 -0.20480662584305
vn 0.05058159306645 0.97901803255081 -0.1973961442709
vn 0.06812070310116 0.97679543495178 -0.20305246114731
vn 0.0958399027586 0.97332870960236 -0.20843687653542
vn 0.1060334071517 0.97231900691986 -0.20821309089661
vn 0.07440922409296 0.97534364461899 -0.20776906609535
# 28 normals

vt 0.86389297246933 0.03309202194214 0
vt 0.8561879992485 0.01450908184052 0
vt 0.7763500213623 0.09679698944092 0
vt 0.86240100860596 0.01101005077362 0
vt 0.96855300664902 0.19121503829956 0
vt 0.98975002765656 0.20341598987579 0
vt 0.95667099952698 0.13798403739929 0
vt 0.90610498189926 0.10146999359131 0
vt 0.94136601686478 0.13744103908539 0
vt 0.79248797893524 0.02513098716736 0
vt 0.84997802972794 0.00590002536774 0
vt 0.78813099861145 0.02339601516724 0
vt 0.97790098190308 0.2163770198822 0
vt 0.95881599187851 0.20186805725098 0
vt 0.91942399740219 0.22760701179504 0
vt 0.76931500434875 0.10695397853851 0
vt 0.8118479847908 0.1748480796814 0
vt 0.78739100694656 0.11194205284119 0
vt 0.82234597206116 0.16773808002472 0
vt 0.91075700521469 0.2110960483551 0
vt 0.89980900287628 0.10743403434753 0
vt 0.13931399583817 0.30428099632263 0
vt 0.01835300028324 0.48776698112488 0
vt 0.67111200094223 0.91896599531174 0
vt 0.93047499656677 0.59590101242065 0
vt 0.40506801009178 0.02125108242035 0
vt 0.85515701770782 0.00097608566284 0
# 27 texture coordinates

o 37_DHD_symbols_outer_Cylinder.057
usemtl Symbole
f 23/3/3 1/2/2 17/1/1
f 1/2/2 27/4/5 17/1/1
f 10/7/8 24/6/7 9/5/6
f 15/9/10 18/8/9 10/7/8
f 20/12/13 25/11/12 22/10/11
f 24/6/7 7/13/14 9/5/6
f 7/13/14 4/15/16 8/14/15
f 2/18/19 14/17/18 3/16/17
f 26/20/21 14/17/18 16/19/20
f 17/1/1 2/18/19 23/3/3
f 2/18/19 3/16/17 23/3/3
f 3/16/17 20/12/13 23/3/3
f 19/21/22 17/1/1 18/8/9
f 6/24/25 12/23/24 5/22/23
f 10/7/8 9/5/6 15/9/10
f 15/9/10 19/21/22 18/8/9
f 20/12/13 22/10/11 23/3/3
f 4/15/16 26/20/21 8/14/15
f 26/20/21 4/15/16 14/17/18
f 5/22/23 13/26/27 11/25/26
f 11/25/26 6/24/25 5/22/23
f 2/18/19 16/19/20 14/17/18
f 7/13/14 8/14/15 9/5/6
f 20/12/13 21/27/28 25/11/12
f 17/1/1 27/4/5 18/8/9

