# Blender v2.79 (sub 0) OBJ File: 'DHD_separated.blend'
# www.blender.org
o 37_DHD_symbols_outer_Cylinder.057
v 0.015752 1.019100 -0.233732
v 0.065978 1.024162 -0.225308
v 0.110051 0.911353 -0.314219
v 0.089794 0.907846 -0.320056
v 0.079381 0.906317 -0.322599
v 0.024475 0.902727 -0.328574
v 0.077095 0.951424 -0.288104
v 0.061787 0.936096 -0.302962
v 0.060919 0.937081 -0.302198
v 0.074047 0.950228 -0.289454
v 0.034258 1.003149 -0.247707
v 0.038864 1.004272 -0.246259
v 0.041791 0.998469 -0.250985
v 0.038006 0.997546 -0.252175
v 0.042219 0.969467 -0.276067
v 0.034219 0.984427 -0.263932
v 0.037974 0.982159 -0.265509
v 0.044549 0.969865 -0.275483
v 0.042193 0.940693 -0.301000
v 0.044113 0.941024 -0.300515
v 0.054901 0.998470 -0.249633
v 0.054971 0.993701 -0.253758
v 0.041657 0.943869 -0.298303
v 0.044087 0.948828 -0.293756
v 0.043654 0.943748 -0.298202
v 0.073211 0.955037 -0.285374
v 0.075085 0.972004 -0.270481
v 0.071559 0.971950 -0.270891
v 0.040865 1.021631 -0.229520
vt 0.906105 0.101470
vt 0.956671 0.137984
vt 0.941366 0.137441
vt 0.811848 0.174848
vt 0.910757 0.211096
vt 0.919424 0.227607
vt 0.822346 0.167738
vt 0.787391 0.111942
vt 0.769315 0.106954
vt 0.788131 0.023396
vt 0.855157 0.000976
vt 0.849978 0.005900
vt 0.792488 0.025131
vt 0.863893 0.033092
vt 0.776350 0.096797
vt 0.856188 0.014509
vt 0.862401 0.011010
vt 0.989750 0.203416
vt 0.968553 0.191215
vt 0.977901 0.216377
vt 0.958816 0.201868
vt 0.899809 0.107434
vt 0.667106 0.913112
vt 0.017113 0.488364
vt 0.089372 0.377821
vt 0.142115 0.297832
vt 0.758171 0.777884
vt 0.406178 0.020357
vt 0.937516 0.593437
vn 0.0776 0.6528 -0.7535
vn 0.0778 0.6529 -0.7535
vn 0.0777 0.6528 -0.7535
vn 0.0773 0.6528 -0.7536
vn 0.0777 0.6533 -0.7531
vn 0.0772 0.6530 -0.7534
vn 0.0777 0.6529 -0.7535
vn 0.0775 0.6528 -0.7535
vn 0.0774 0.6530 -0.7534
vn 0.0778 0.6531 -0.7532
vn 0.0781 0.6530 -0.7533
vn 0.0778 0.6528 -0.7535
vn 0.0680 0.6384 -0.7667
vn 0.1079 0.6411 -0.7599
vn 0.0974 0.6422 -0.7603
vn 0.0677 0.6403 -0.7652
vn 0.0629 0.6361 -0.7690
vn 0.0448 0.6358 -0.7706
vn 0.0655 0.6333 -0.7711
s off
f 15/1/1 16/2/1 17/3/1
f 27/4/2 22/5/2 21/6/2
f 28/7/3 27/4/3 26/8/3
f 27/4/1 7/9/1 26/8/1
f 8/10/4 19/11/1 20/12/1
f 8/10/5 20/12/6 9/13/7
f 24/14/3 26/8/3 10/15/3
f 26/8/8 7/9/8 10/15/8
f 7/9/9 8/10/10 10/15/9
f 8/10/11 9/13/3 10/15/3
f 10/15/7 25/16/7 24/14/7
f 25/16/7 23/17/7 24/14/7
f 16/2/12 11/18/12 14/19/12
f 11/18/3 12/20/3 14/19/3
f 12/20/7 21/6/7 13/21/7
f 21/6/7 22/5/7 13/21/7
f 12/20/1 13/21/1 14/19/1
f 24/14/12 23/17/12 15/1/12
f 18/22/1 24/14/1 15/1/1
f 16/2/3 14/19/3 17/3/3
f 17/3/1 18/22/1 15/1/1
f 27/4/3 28/7/3 22/5/3
s 1
f 2/23/13 3/24/14 4/25/15
f 4/25/15 5/26/16 29/27/17
f 5/26/16 6/28/18 29/27/17
f 6/28/18 1/29/19 29/27/17
f 29/27/17 2/23/13 4/25/15
