# Blender v2.79 (sub 7) OBJ File: 'gateN.blend'
# www.blender.org
o chevronLight_Circle.006
v 0.173217 4.993392 0.323581
v -0.075816 4.983021 0.330243
v 0.006770 5.108289 0.247342
v -0.093432 5.107822 0.246220
v 0.007195 4.983072 0.330792
v 0.039973 4.722359 0.283554
v 0.090205 4.983122 0.331340
v -0.054584 4.721859 0.282851
v -0.023065 4.722026 0.283086
v 0.106971 5.108755 0.248462
v 0.173217 4.983173 0.331890
v 0.207173 5.109222 0.249584
v 0.071492 4.722525 0.283789
v -0.158826 4.982972 0.329694
v -0.193634 5.107355 0.245098
v 0.008454 4.722191 0.283320
v 0.006770 5.108289 0.037257
v -0.093432 5.107822 0.036135
v 0.106971 5.108755 0.038378
v 0.207173 5.109222 0.039499
v -0.193634 5.107355 0.035013
v -0.023065 4.722026 0.060874
v 0.006770 5.108289 0.247342
v -0.093432 5.107822 0.246220
v 0.106971 5.108755 0.248462
v -0.193634 5.107355 0.245098
v 0.207173 5.109222 0.249584
v 0.006770 5.108289 0.037257
v -0.093432 5.107822 0.036135
v 0.106971 5.108755 0.038378
v -0.193634 5.107355 0.035013
v 0.207173 5.109222 0.039499
v -0.093437 5.107920 0.036135
v 0.207183 5.108154 0.038133
v 0.106971 5.108755 0.248462
v 0.207173 5.109222 0.249584
v 0.006770 5.108289 0.247342
v 0.006770 5.108289 0.037257
v 0.173217 4.993392 0.053550
v 0.106971 5.108755 0.038378
v 0.008454 4.722191 0.061109
v 0.207173 5.109222 0.039499
v 0.106971 5.108755 0.248462
v 0.207173 5.109222 0.249584
v 0.106971 5.108755 0.038378
v 0.207173 5.109222 0.039499
v 0.006770 5.107998 0.036801
v 0.106976 5.108076 0.037467
v 0.090205 4.983122 0.043387
v 0.007195 4.983072 0.042838
v -0.075816 4.983021 0.042289
v 0.071492 4.722525 0.061577
v 0.039973 4.722359 0.061343
v -0.193644 5.107842 0.035469
v -0.158826 4.982972 0.041740
v -0.054584 4.721859 0.060639
v 0.173217 4.993392 0.323581
v -0.075816 4.983021 0.330243
v 0.006770 5.108289 0.247342
v -0.093432 5.107822 0.246220
v 0.007195 4.983072 0.330792
v 0.039973 4.722359 0.283554
v 0.090205 4.983122 0.331340
v -0.054584 4.721859 0.282851
v -0.023065 4.722026 0.283086
v 0.106971 5.108755 0.248462
v 0.173217 4.983173 0.331890
v 0.207173 5.109222 0.249584
v 0.071492 4.722525 0.283789
v -0.158826 4.982972 0.329694
v -0.193634 5.107355 0.245098
v 0.008454 4.722191 0.283320
v 0.006770 5.108289 0.037257
v -0.093432 5.107822 0.036135
v 0.106971 5.108755 0.038378
v 0.207173 5.109222 0.039499
v -0.193634 5.107355 0.035013
v -0.023065 4.722026 0.060874
v 0.006770 5.108289 0.247342
v -0.093432 5.107822 0.246220
v 0.106971 5.108755 0.248462
v -0.193634 5.107355 0.245098
v 0.207173 5.109222 0.249584
v 0.006770 5.108289 0.037257
v -0.093432 5.107822 0.036135
v 0.106971 5.108755 0.038378
v -0.193634 5.107355 0.035013
v 0.207173 5.109222 0.039499
v -0.093437 5.107920 0.036135
v 0.207183 5.108154 0.038133
v 0.106971 5.108755 0.248462
v 0.207173 5.109222 0.249584
v 0.006770 5.108289 0.247342
v 0.006770 5.108289 0.037257
v 0.173217 4.993392 0.053550
v 0.106971 5.108755 0.038378
v 0.008454 4.722191 0.061109
v 0.207173 5.109222 0.039499
v 0.106971 5.108755 0.248462
v 0.207173 5.109222 0.249584
v 0.106971 5.108755 0.038378
v 0.207173 5.109222 0.039499
v 0.006770 5.107998 0.036801
v 0.106976 5.108076 0.037467
v 0.090205 4.983122 0.043387
v 0.007195 4.983072 0.042838
v -0.075816 4.983021 0.042289
v 0.071492 4.722525 0.061577
v 0.039973 4.722359 0.061343
v -0.193644 5.107842 0.035469
v -0.158826 4.982972 0.041740
v -0.054584 4.721859 0.060639
v -0.193634 5.107355 0.245098
v 0.207183 5.108154 0.038133
v 0.207173 5.109222 0.249584
v -0.193644 5.107842 0.035469
vt 0.612577 0.790904
vt 0.749880 0.882658
vt 0.606214 0.879642
vt 0.767137 0.732237
vt 0.799890 0.624459
vt 0.841098 0.731700
vt 0.693178 0.732774
vt 0.649590 0.621651
vt 0.699690 0.622585
vt 0.617678 0.598217
vt 0.771408 0.785548
vt 0.588903 0.782039
vt 0.757132 0.584239
vt 0.757037 0.604789
vt 0.612259 0.584650
vt 0.782290 0.602073
vt 0.630009 0.598532
vt 0.577373 0.763436
vt 0.621488 0.881072
vt 0.549931 0.880311
vt 0.634281 0.763021
vt 0.693046 0.881831
vt 0.748099 0.762195
vt 0.764603 0.882591
vt 0.749790 0.623523
vt 0.619217 0.733310
vt 0.545257 0.733850
vt 0.599490 0.620711
vt 0.805008 0.761782
vt 0.836161 0.883351
vt 0.644221 0.866710
vt 0.782771 0.863813
vt 0.695589 0.887720
vt 0.788587 0.888706
vt 0.695589 0.887720
vt 0.602591 0.886732
vt 0.602591 0.886732
vt 0.509593 0.885744
vt 0.509593 0.885744
vt 0.965852 0.739444
vt 0.933437 0.824872
vt 0.939423 0.742427
vt 0.923484 0.824910
vt 0.913534 0.824947
vt 0.913225 0.742395
vt 0.788587 0.888706
vt 0.881585 0.889694
vt 0.860814 0.742335
vt 0.881517 0.702875
vt 0.887021 0.742364
vt 0.913157 0.702909
vt 0.893633 0.825019
vt 0.881585 0.889694
vt 0.788587 0.888706
vt 0.944803 0.702955
vt 0.903584 0.824983
vt 0.612577 0.790904
vt 0.749880 0.882658
vt 0.606214 0.879642
vt 0.767137 0.732237
vt 0.799890 0.624459
vt 0.841098 0.731700
vt 0.693178 0.732774
vt 0.649590 0.621651
vt 0.699690 0.622585
vt 0.617678 0.598217
vt 0.771408 0.785548
vt 0.588903 0.782039
vt 0.757132 0.584239
vt 0.757037 0.604789
vt 0.612259 0.584650
vt 0.782290 0.602073
vt 0.630009 0.598532
vt 0.577373 0.763436
vt 0.621488 0.881072
vt 0.549931 0.880311
vt 0.634281 0.763021
vt 0.693046 0.881831
vt 0.748099 0.762195
vt 0.764603 0.882591
vt 0.749790 0.623523
vt 0.619217 0.733310
vt 0.545257 0.733850
vt 0.599490 0.620711
vt 0.805008 0.761782
vt 0.836161 0.883351
vt 0.644221 0.866710
vt 0.782771 0.863813
vt 0.695589 0.887720
vt 0.788587 0.888706
vt 0.695589 0.887720
vt 0.602591 0.886732
vt 0.602591 0.886732
vt 0.509593 0.885744
vt 0.509593 0.885744
vt 0.965852 0.739444
vt 0.933437 0.824872
vt 0.939423 0.742427
vt 0.923484 0.824910
vt 0.913534 0.824947
vt 0.913225 0.742395
vt 0.788587 0.888706
vt 0.881585 0.889694
vt 0.860814 0.742335
vt 0.881517 0.702875
vt 0.887021 0.742364
vt 0.913157 0.702909
vt 0.893633 0.825019
vt 0.881585 0.889694
vt 0.788587 0.888706
vt 0.944803 0.702955
vt 0.903584 0.824983
vt 0.834300 0.892094
vt 0.568924 0.817743
vt 0.822900 0.820666
vt 0.551526 0.890009
vt 0.809912 0.795492
vt 0.763293 0.596024
vt 0.612353 0.564100
vt 0.612447 0.543550
vt 0.757226 0.563689
vt 0.757321 0.543140
vt 0.612542 0.523001
vt 0.757416 0.522590
vt 0.612164 0.605200
vt 0.691190 0.762608
vt 0.881585 0.889694
vt 0.849878 0.702844
vt 0.976444 0.702844
vt 0.809912 0.795492
vt 0.763293 0.596024
vt 0.612353 0.564100
vt 0.612447 0.543550
vt 0.757226 0.563689
vt 0.757321 0.543140
vt 0.612542 0.523001
vt 0.757416 0.522590
vt 0.612164 0.605200
vt 0.691190 0.762608
vt 0.881585 0.889694
vt 0.849878 0.702844
vt 0.976444 0.702844
vn -0.9479 -0.3184 -0.0002
vn -0.9631 -0.2693 -0.0002
vn -0.9632 -0.2686 -0.0006
vn -0.0064 -0.1791 0.9838
vn -0.0064 -0.1790 0.9838
vn 0.5993 -0.8005 -0.0041
vn 0.9491 -0.3150 -0.0048
vn 0.9462 -0.3233 -0.0119
vn 0.0053 -1.0000 0.0000
vn 0.5752 -0.8180 0.0000
vn -0.5853 -0.8108 0.0000
vn -0.5718 -0.8204 0.0000
vn -0.0080 0.5587 0.8294
vn -0.0109 0.5584 0.8295
vn -0.0119 0.5601 0.8284
vn -0.0070 0.5566 0.8307
vn -0.0099 0.5545 0.8321
vn -0.0070 0.5524 0.8335
vn -0.0109 0.5506 0.8347
vn -0.0080 0.5504 0.8349
vn -0.0119 0.5489 0.8358
vn 0.9627 -0.2706 -0.0069
vn 0.9589 -0.2836 0.0015
vn 0.0000 0.0000 1.0000
vn 0.1307 -0.0784 -0.9883
vn 0.0262 -0.0715 -0.9971
vn 0.0737 -0.0747 -0.9945
vn 0.0077 -0.0700 -0.9975
vn 0.0078 -0.0698 -0.9975
vn 0.0067 -0.0698 -0.9975
vn 0.0067 -0.0483 -0.9988
vn 0.0066 -0.0483 -0.9988
vn 0.0067 -0.0482 -0.9988
vn 0.0076 -0.0695 -0.9976
vn 0.0066 -0.0696 -0.9976
vn 0.0067 -0.0696 -0.9976
vn 0.0603 -0.0553 -0.9966
vn 0.0066 -0.0482 -0.9988
vn 0.0324 -0.0807 -0.9962
vn 0.0792 -0.0935 -0.9925
vn 0.0077 -0.0697 -0.9975
vn -0.0034 1.0000 -0.0028
vn -0.0020 1.0000 0.0000
vn -0.0046 1.0000 -0.0051
vn -0.0008 1.0000 0.0023
vn -0.9442 -0.3293 0.0000
vn -0.0058 0.5545 0.8321
vn 0.0067 -0.1351 -0.9908
s 1
f 55/1/1 26/2/2 54/3/3
f 7/4/4 13/5/4 11/6/4
f 5/7/4 9/8/5 16/9/4
f 13/10/6 39/11/7 11/12/8
f 53/13/9 52/14/10 6/15/9
f 8/16/11 55/1/1 56/17/12
f 14/18/13 4/19/14 15/20/15
f 2/21/16 3/22/17 4/19/14
f 3/22/17 7/23/18 10/24/19
f 5/7/4 16/9/4 6/25/4
f 2/26/5 14/27/5 8/28/5
f 10/24/19 11/29/20 12/30/21
f 6/25/4 7/4/4 5/7/4
f 2/26/5 9/8/5 5/7/4
f 44/31/22 39/11/7 34/32/23
f 3/33/24 25/34/24 23/35/24
f 4/36/24 23/35/24 24/37/24
f 15/38/24 24/37/24 26/39/24
f 39/40/25 52/41/26 49/42/27
f 53/43/28 41/44/29 50/45/30
f 49/42/27 53/43/28 50/45/30
f 10/46/24 27/47/24 25/34/24
f 55/48/31 33/49/31 51/50/32
f 47/51/33 51/50/32 33/49/31
f 56/52/34 55/48/35 51/50/36
f 25/34/24 36/53/24 35/54/24
f 47/51/33 49/42/37 50/45/38
f 48/55/39 39/40/40 49/42/37
f 41/44/29 22/56/41 50/45/30
f 51/50/36 22/56/41 56/52/34
f 111/57/1 82/58/2 110/59/3
f 63/60/4 69/61/4 67/62/4
f 61/63/4 65/64/5 72/65/4
f 69/66/6 95/67/7 67/68/8
f 109/69/9 108/70/10 62/71/9
f 64/72/11 111/57/1 112/73/12
f 70/74/13 60/75/14 71/76/15
f 58/77/16 59/78/17 60/75/14
f 59/78/17 63/79/18 66/80/19
f 61/63/4 72/65/4 62/81/4
f 58/82/5 70/83/5 64/84/5
f 66/80/19 67/85/20 68/86/21
f 62/81/4 63/60/4 61/63/4
f 58/82/5 65/64/5 61/63/4
f 100/87/22 95/67/7 90/88/23
f 59/89/24 81/90/24 79/91/24
f 60/92/24 79/91/24 80/93/24
f 71/94/24 80/93/24 82/95/24
f 95/96/25 108/97/26 105/98/27
f 109/99/28 97/100/29 106/101/30
f 105/98/27 109/99/28 106/101/30
f 66/102/24 83/103/24 81/90/24
f 111/104/31 89/105/31 107/106/32
f 103/107/33 107/106/32 89/105/31
f 112/108/34 111/104/35 107/106/36
f 81/90/24 92/109/24 91/110/24
f 103/107/33 105/98/37 106/101/38
f 104/111/39 95/96/40 105/98/37
f 97/100/29 78/112/41 106/101/30
f 107/106/36 78/112/41 112/108/34
f 114/113/42 113/114/43 115/115/44
f 114/113/42 116/116/45 113/114/43
f 55/1/1 14/117/46 26/2/2
f 13/10/6 52/118/10 39/11/7
f 6/15/9 16/119/9 53/13/9
f 16/119/9 9/120/9 41/121/9
f 41/121/9 9/120/9 22/122/9
f 9/120/9 8/123/11 22/122/9
f 8/123/11 56/124/12 22/122/9
f 52/14/10 13/125/6 6/15/9
f 16/119/9 41/121/9 53/13/9
f 8/16/11 14/117/46 55/1/1
f 14/18/13 2/21/16 4/19/14
f 2/21/16 5/126/47 3/22/17
f 3/22/17 5/126/47 7/23/18
f 10/24/19 7/23/18 11/29/20
f 6/25/4 13/5/4 7/4/4
f 2/26/5 8/28/5 9/8/5
f 44/31/22 11/12/8 39/11/7
f 3/33/24 10/46/24 25/34/24
f 4/36/24 3/33/24 23/35/24
f 15/38/24 4/36/24 24/37/24
f 49/42/27 52/41/26 53/43/28
f 10/46/24 12/127/24 27/47/24
f 55/48/31 54/128/31 33/49/31
f 47/51/33 50/45/38 51/50/32
f 25/34/24 27/47/24 36/53/24
f 47/51/33 48/55/39 49/42/37
f 48/55/39 34/129/48 39/40/40
f 51/50/36 50/45/30 22/56/41
f 111/57/1 70/130/46 82/58/2
f 69/66/6 108/131/10 95/67/7
f 62/71/9 72/132/9 109/69/9
f 72/132/9 65/133/9 97/134/9
f 97/134/9 65/133/9 78/135/9
f 65/133/9 64/136/11 78/135/9
f 64/136/11 112/137/12 78/135/9
f 108/70/10 69/138/6 62/71/9
f 72/132/9 97/134/9 109/69/9
f 64/72/11 70/130/46 111/57/1
f 70/74/13 58/77/16 60/75/14
f 58/77/16 61/139/47 59/78/17
f 59/78/17 61/139/47 63/79/18
f 66/80/19 63/79/18 67/85/20
f 62/81/4 69/61/4 63/60/4
f 58/82/5 64/84/5 65/64/5
f 100/87/22 67/68/8 95/67/7
f 59/89/24 66/102/24 81/90/24
f 60/92/24 59/89/24 79/91/24
f 71/94/24 60/92/24 80/93/24
f 105/98/27 108/97/26 109/99/28
f 66/102/24 68/140/24 83/103/24
f 111/104/31 110/141/31 89/105/31
f 103/107/33 106/101/38 107/106/32
f 81/90/24 83/103/24 92/109/24
f 103/107/33 104/111/39 105/98/37
f 104/111/39 90/142/48 95/96/40
f 107/106/36 106/101/30 78/112/41
l 1 11
l 30 19
l 17 28
l 32 20
l 31 21
l 18 29
l 37 23
l 28 38
l 40 30
l 32 42
l 36 44
l 43 35
l 42 46
l 45 40
l 57 67
l 86 75
l 73 84
l 88 76
l 87 77
l 74 85
l 93 79
l 84 94
l 96 86
l 88 98
l 92 100
l 99 91
l 98 102
l 101 96
