# Blender v2.79 (sub 0) OBJ File: 'gate.blend'
# www.blender.org
o chevronFrame_Circle.005
v 0.069810 4.667248 0.273515
v 0.043922 4.571792 0.276345
v 0.069254 4.646770 0.290183
v -0.011315 4.571634 0.275926
v 0.007097 4.571686 0.276065
v 0.006942 4.646123 0.264952
v -0.193290 5.043271 0.244813
v -0.206377 4.943831 0.329486
v -0.243036 5.043231 0.244452
v 0.203519 5.043596 0.247689
v 0.209200 4.944094 0.332484
v 0.169893 4.944071 0.332200
v -0.054003 4.674278 0.274262
v 0.002929 4.533767 0.256277
v -0.063029 4.533015 0.255672
v 0.068887 4.534520 0.256882
v -0.055557 4.646079 0.289171
v -0.029728 4.571585 0.275786
v 0.107311 4.646681 0.277586
v 0.025510 4.571738 0.276205
v 0.038308 4.667801 0.272101
v -0.022334 4.676010 0.272415
v -0.158820 4.943861 0.329829
v 0.244664 5.043628 0.247987
v -0.102285 4.645515 0.275886
v 0.006783 4.656490 0.278236
v 0.007092 4.626271 0.268977
v -0.243060 5.051570 0.251241
v -0.206471 4.944130 0.342392
v -0.193313 5.051611 0.251601
v -0.158914 4.944160 0.342736
v 0.203495 5.051935 0.254477
v 0.244641 5.051969 0.254775
v 0.169800 4.944369 0.345106
v 0.002835 4.534067 0.269182
v 0.068793 4.534820 0.269788
v -0.063123 4.533314 0.268578
v -0.102378 4.645815 0.288792
v 0.107218 4.646980 0.290491
v 0.209106 4.944394 0.345390
vt 0.067950 0.955131
vt 0.055645 0.940816
vt 0.146944 0.852297
vt 0.065636 0.874080
vt 0.084960 0.874118
vt 0.084775 0.949165
vt 0.770253 0.919694
vt 0.803528 0.914658
vt 0.776560 0.939259
vt 0.804463 0.913806
vt 0.793408 0.944917
vt 0.778319 0.938596
vt 0.764852 0.941736
vt 0.737081 0.973862
vt 0.728830 0.953353
vt 0.847037 0.873556
vt 0.867286 0.882801
vt 0.830833 0.907102
vt 0.039025 0.966180
vt 0.151457 0.852789
vt 0.038595 0.947383
vt 0.755054 0.985183
vt 0.743052 0.979542
vt 0.818561 0.902580
vt 0.104284 0.874158
vt 0.123608 0.874198
vt 0.150273 0.949480
vt 0.117524 0.949323
vt 0.052026 0.949007
vt 0.019277 0.948849
vt 0.046310 0.874041
vt 0.797498 0.895955
vt 0.820258 0.920424
vt 0.760153 0.926945
vt 0.843211 0.856917
vt 0.848996 0.871769
vt 0.828018 0.939047
vt 0.825462 0.912276
vt 0.854396 0.933444
vt 0.801112 0.938645
vt 0.128117 0.866090
vt 0.107071 0.871090
vt 0.105312 0.869835
vt 0.055293 0.955119
vt 0.054137 0.975268
vt 0.053651 0.953681
vt 0.087654 0.905219
vt 0.081860 0.909349
vt 0.086421 0.904097
vt 0.117874 0.883065
vt 0.139959 0.876381
vt 0.139947 0.878124
vt 0.079647 0.909353
vt 0.086396 0.904126
vt 0.080880 0.910476
vt 0.062414 0.948854
vt 0.062905 0.925573
vt 0.064147 0.948439
vt 0.093478 0.931603
vt 0.116223 0.881668
vt 0.068075 0.916521
vt 0.062404 0.926378
vt 0.060753 0.924950
vt 0.101360 0.887686
vt 0.114062 0.872162
vt 0.115863 0.873397
vt 0.086246 0.910387
vt 0.076633 0.923950
vt 0.084487 0.909131
vt 0.099559 0.886450
vt 0.093487 0.931808
vt 0.090366 0.929024
vt 0.055082 0.934806
vt 0.053429 0.933378
vt 0.128248 0.867830
vt 0.055906 0.975059
vt 0.083091 0.910471
vt 0.085165 0.903004
vt 0.061104 0.924337
vt 0.090290 0.928957
vt 0.069728 0.917950
vt 0.078393 0.925206
vt 0.466894 0.533885
vt 0.392293 0.444605
vt 0.388278 0.465545
vt 0.490961 0.527868
vt 0.385756 0.463838
vt 0.478275 0.544684
vt 0.715935 0.785321
vt 0.681545 0.782797
vt 0.687183 0.767616
vt 0.650986 0.663112
vt 0.466956 0.533312
vt 0.478255 0.519882
vt 0.698472 0.734635
vt 0.651012 0.662986
vt 0.735924 0.735333
vt 0.619073 0.664554
vt 0.697839 0.734476
vt 0.628108 0.643509
vt 0.478900 0.520370
vt 0.393233 0.444166
vt 0.698637 0.734305
vt 0.735033 0.735609
vt 0.692140 0.838550
vt 0.668552 0.818139
vt 0.675981 0.796827
vt 0.636216 0.673447
vt 0.636130 0.673397
vt 0.734533 0.735797
vt 0.491041 0.527822
vt 0.478581 0.544627
vn -0.9226 0.2593 0.2855
vn -0.9224 0.2587 0.2870
vn -0.9223 0.2587 0.2870
vn -0.0079 0.1476 0.9890
vn -0.0273 0.0464 0.9986
vn 0.0060 -0.6488 -0.7610
vn 0.0059 -0.6488 -0.7610
vn 0.0060 -0.6484 -0.7613
vn 0.0059 -0.6484 -0.7613
vn -0.1029 0.1452 -0.9840
vn 0.0076 0.1300 -0.9915
vn -0.0180 0.1316 -0.9911
vn 0.0077 0.1243 -0.9922
vn 0.8518 0.2093 0.4802
vn 0.8507 0.2083 0.4826
vn 0.0197 0.1766 -0.9841
vn 0.0070 0.1792 -0.9838
vn 0.1705 0.1315 -0.9766
vn -0.0665 0.1033 0.9924
vn -0.0441 0.0415 0.9982
vn -0.1258 0.0365 0.9914
vn 0.0671 -0.1794 0.9815
vn 0.1391 -0.0263 0.9899
vn 0.0631 0.1131 0.9916
vn 0.0059 -0.6487 -0.7610
vn -0.1129 0.1454 -0.9829
vn -0.0053 0.1769 -0.9842
vn 0.1726 0.1213 -0.9775
vn 0.1787 0.1329 -0.9749
vn 0.2789 -0.2787 0.9190
vn -0.3631 -0.2763 0.8898
vn -0.9627 -0.1826 0.1999
vn -0.9483 -0.3172 0.0078
vn -0.9468 -0.3219 0.0006
vn 0.9538 0.3002 -0.0070
vn 0.9668 0.1725 -0.1887
vn 0.9524 0.3048 -0.0001
vn 0.0051 0.6312 -0.7756
vn 0.0051 0.6313 -0.7755
vn -0.9586 0.2842 -0.0200
vn -0.9680 0.1657 -0.1885
vn -0.9673 0.1585 -0.1982
vn 0.0051 0.6314 -0.7755
vn 0.0051 0.6314 -0.7754
vn 0.9646 -0.1743 0.1980
vn 0.9542 -0.2986 0.0207
vn 0.9638 -0.1667 0.2081
vn -0.9407 0.3393 0.0002
vn -0.9393 0.3427 -0.0147
vn 0.0112 -0.9997 0.0233
vn 0.0112 -0.9997 0.0234
vn 0.9451 -0.3264 0.0144
vn 0.9451 -0.3264 0.0145
vn -0.9441 -0.3296 0.0009
vn -0.9441 -0.3296 0.0008
vn -0.9441 -0.3296 0.0007
vn 0.9338 0.3569 0.0242
vn -0.9618 -0.1744 0.2108
vn 0.9660 0.1647 -0.1991
vn -0.9574 0.2885 -0.0136
vn 0.9529 -0.3030 0.0140
vn 0.9319 0.3627 -0.0016
vn -0.0060 0.6457 0.7636
vn -0.0060 0.6457 0.7635
vn -0.0061 0.6457 0.7635
vn -0.0059 0.6454 0.7638
vn -0.0060 0.6454 0.7638
vn -0.0070 -0.1792 0.9838
vn -0.0059 0.6457 0.7636
vn -0.0061 0.6454 0.7638
s 1
f 1/1/1 2/2/2 3/3/3
f 4/4/4 5/5/4 6/6/5
f 7/7/6 8/8/7 9/9/6
f 10/10/8 11/11/9 12/12/9
f 13/13/10 14/14/11 15/15/12
f 16/16/13 14/17/13 1/18/13
f 13/19/14 17/20/15 18/21/15
f 12/22/16 11/23/17 19/24/18
f 20/25/4 2/26/19 6/6/5
f 2/26/19 1/27/20 21/28/21
f 6/6/5 2/26/19 21/28/21
f 6/6/5 22/29/22 13/30/23
f 13/30/23 18/31/24 6/6/5
f 18/31/24 4/4/4 6/6/5
f 5/5/4 20/25/4 6/6/5
f 7/7/6 23/32/25 8/8/7
f 10/10/8 24/33/8 11/11/9
f 15/15/12 25/34/26 13/13/10
f 25/34/26 8/35/17 23/36/27
f 13/13/10 25/34/26 23/36/27
f 19/24/18 16/16/28 1/18/29
f 1/18/29 12/22/16 19/24/18
f 26/37/30 27/38/30 21/39/30
f 22/40/31 27/38/31 26/37/31
f 28/41/32 8/42/33 29/43/34
f 23/44/35 30/45/36 31/46/37
f 24/47/38 32/48/39 33/49/38
f 12/50/40 32/51/41 10/52/42
f 28/53/43 7/54/38 9/55/44
f 33/56/45 11/57/46 24/58/47
f 1/59/1 34/60/48 12/50/49
f 16/61/50 35/62/51 14/63/51
f 19/64/52 36/65/53 16/66/53
f 25/67/54 37/68/55 38/69/54
f 8/42/55 38/69/54 29/43/56
f 11/57/53 39/70/52 19/64/52
f 13/71/14 31/46/57 17/72/15
f 14/63/51 37/73/50 15/74/50
f 28/41/32 9/75/58 8/42/33
f 23/44/35 7/76/59 30/45/36
f 24/47/38 10/77/39 32/48/39
f 12/50/40 34/60/60 32/51/41
f 28/53/43 30/78/38 7/54/38
f 33/56/45 40/79/61 11/57/46
f 1/59/1 3/80/3 34/60/48
f 16/61/50 36/81/50 35/62/51
f 19/64/52 39/70/52 36/65/53
f 25/67/54 15/82/56 37/68/55
f 8/42/55 25/67/54 38/69/54
f 11/57/53 40/79/53 39/70/52
f 13/71/14 23/44/62 31/46/57
f 14/63/51 35/62/51 37/73/50
f 29/83/63 30/84/64 28/85/65
f 40/86/66 32/87/67 34/88/66
f 35/89/68 5/90/68 4/91/68
f 38/92/68 31/93/68 29/94/68
f 18/95/68 38/96/68 37/97/68
f 3/98/68 2/99/68 39/100/68
f 29/83/63 31/101/69 30/84/64
f 40/86/66 33/102/70 32/87/67
f 18/103/68 37/104/68 35/89/68
f 35/89/68 36/105/68 2/106/68
f 35/89/68 2/106/68 20/107/68
f 4/91/68 18/103/68 35/89/68
f 35/89/68 20/107/68 5/90/68
f 38/92/68 17/108/68 31/93/68
f 18/95/68 17/109/68 38/96/68
f 2/99/68 36/110/68 39/100/68
f 39/100/68 40/111/68 34/112/68
f 34/112/68 3/98/68 39/100/68
